<?xml version="1.0" encoding="UTF-8" standalone="no"?>
<!-- Created with Inkscape (http://www.inkscape.org/) -->

<svg
   xmlns:dc="http://purl.org/dc/elements/1.1/"
   xmlns:cc="http://creativecommons.org/ns#"
   xmlns:rdf="http://www.w3.org/1999/02/22-rdf-syntax-ns#"
   xmlns:svg="http://www.w3.org/2000/svg"
   xmlns="http://www.w3.org/2000/svg"
   xmlns:xlink="http://www.w3.org/1999/xlink"
   xmlns:sodipodi="http://sodipodi.sourceforge.net/DTD/sodipodi-0.dtd"
   xmlns:inkscape="http://www.inkscape.org/namespaces/inkscape"
   id="svg2"
   version="1.1"
   inkscape:version="0.48.4 r9939"
   viewbox="0 0 1872 3232"
   preserveAspectRatio="xMidYMid meet"
   width="1872"
   height="3232"
   sodipodi:docname="27413-20.svg">
  <metadata
     id="metadata8">
    <rdf:RDF>
      <cc:Work
         rdf:about="">
        <dc:format>image/svg+xml</dc:format>
        <dc:type
           rdf:resource="http://purl.org/dc/dcmitype/StillImage" />
      </cc:Work>
    </rdf:RDF>
  </metadata>
  <defs
     id="defs6" />
  <sodipodi:namedview
     pagecolor="#ffffff"
     bordercolor="#666666"
     borderopacity="1"
     objecttolerance="10"
     gridtolerance="10"
     guidetolerance="10"
     inkscape:pageopacity="0"
     inkscape:pageshadow="2"
     inkscape:window-width="1280"
     inkscape:window-height="732"
     id="namedview4"
     showgrid="false"
     inkscape:zoom="0.21"
     inkscape:cx="970.88527"
     inkscape:cy="2267.4385"
     inkscape:window-x="-8"
     inkscape:window-y="-8"
     inkscape:window-maximized="1"
     inkscape:current-layer="svg2" />
  <image
     width="1872"
     height="3232"
     xlink:href="file:///C:/Users/Surface/Desktop/CHI2013%20BI%20GitRepo/public-dataset/input/cropped-display/27413-20.png"
     id="image10"
     x="0"
     y="-0.57749653" />
  <g
     inkscape:groupmode="layer"
     id="layer2"
     inkscape:label="Layer"
     transform="translate(0,2179.6378)" />
  <path
     style="fill:#de2d26;fill-opacity:1;stroke:none"
     id="path6045"
     d="m 14.799653,-9.7278051 c 6.232321,8.556597 11.908409,17.475085 18.953377,25.3969911 5.969824,6.970887 11.772514,14.048381 16.699553,21.801329 4.12175,6.169523 7.728573,12.741175 12.50052,18.446365 3.10449,4.071204 6.455007,8.016224 10.714469,10.914708 6.025607,3.8956 11.136046,8.891635 16.002838,14.114801 5.112757,5.413161 10.59203,10.467871 15.86041,15.729472 5.26519,4.762279 9.78089,10.148099 14.39459,15.515049 4.2106,5.39864 7.1453,11.63638 10.50825,17.5717 3.20034,6.02646 8.5481,10.26993 13.5131,14.77522 7.40344,6.42169 15.62599,11.79256 23.16657,18.02472 6.07412,5.27717 11.94464,10.76271 17.96895,16.0962 5.21506,5.45255 10.92359,10.40376 16.41638,15.57207 5.42692,5.4108 11.33431,10.2945 18.48794,13.15855 7.15931,2.73011 14.17546,5.66575 20.98224,9.18427 5.3374,2.62837 10.58767,5.37434 16.07208,7.71236 5.86988,2.65714 10.78697,6.68635 15.76742,10.66554 3.30824,3.257 7.01925,6.33794 11.25626,8.31163 4.10529,3.04492 8.58994,4.32005 13.55754,5.02192 6.98765,0.49338 13.9021,0.62743 20.82551,1.785 7.2623,1.21674 14.55208,1.83826 21.76309,3.35369 8.60825,0.36587 17.23186,-0.22749 25.83778,-0.5085 8.65977,-0.28061 17.32364,-0.37979 25.98732,-0.42996 6.84397,0.6126 13.19725,-0.82474 19.64997,-2.86087 7.45784,-2.50459 15.24334,-3.47035 23.05165,-4.00572 7.75424,-0.93223 15.34818,0.7501 22.97011,1.89262 8.56329,1.90988 17.09665,3.78722 25.37674,6.72142 7.73215,3.05263 15.38234,6.2423 23.27927,8.87029 7.61604,2.47266 14.89098,5.9796 22.52121,8.36728 7.18458,2.04077 14.17923,5.55269 21.59899,6.60176 7.07297,0.93038 13.89663,2.66781 20.75933,4.54099 5.72164,2.20823 11.24708,4.90489 17.07117,6.83854 7.70778,2.54235 14.85258,6.30423 21.88387,10.30429 6.53556,3.64478 13.58402,6.14584 20.52733,8.86021 5.61185,1.21279 10.65074,5.06536 16.41594,5.39238 4.81869,1.23264 9.67007,2.00267 14.62472,2.38166 7.31313,1.59006 14.64836,2.73647 22.10636,3.35398 8.38886,0.36915 16.61359,2.22692 24.6642,4.50317 6.52563,1.9653 13.29223,2.64479 20.06365,3.0324 7.44872,0.11279 14.79523,0.16897 22.16009,1.36661 6.80164,1.31449 13.69864,1.8823 20.60769,2.203 7.09669,-0.24258 13.97031,0.59823 20.90183,2.00231 6.41998,0.80291 12.57289,2.79306 18.93119,3.94298 7.24927,1.44268 14.12759,3.98808 21.11334,6.30192 5.22978,2.69867 10.81927,4.41815 16.23496,6.66922 7.27331,1.72072 13.64184,4.77088 19.57049,9.31076 5.97474,4.22081 10.0881,10.30295 14.16234,16.24933 2.52155,4.77536 5.40151,8.90726 9.70912,12.11836 5.45996,2.8593 10.61035,6.32645 16.20534,8.91675 6.75578,3.28927 13.64487,6.2515 20.14879,10.03115 7.31114,4.34856 12.88096,10.51694 18.09545,17.0822 3.94065,5.38643 8.21007,10.27826 13.05029,14.86836 5.83413,5.67347 12.69462,10.12425 19.09642,15.10225 6.38752,5.68962 13.54367,10.47617 20.75383,15.05547 6.26418,4.62636 12.45308,9.41434 18.12948,14.75423 4.4657,4.39482 8.429,9.52804 13.7264,12.96699 5.7903,4.50351 12.211,8.0921 18.4439,11.93004 8.7487,5.62917 17.4551,11.35255 26.383,16.69584 7.3556,4.39737 14.2127,9.66215 20.3877,15.60033 4.3928,4.81103 6.6922,11.02162 10.6456,16.12907 2.1468,3.19377 6.0834,8.61527 3.7375,12.85247 -1.1806,2.13243 -3.7167,3.15442 -5.5751,4.73163 -9.6382,3.03505 -13.9304,-10.59543 -4.2922,-13.63048 l 0,0 c -1.1987,1.36949 -2.9336,2.41334 -3.5961,4.10848 -1.7966,4.59654 2.5513,6.45557 -1.7499,0.45377 -3.3529,-4.62993 -5.9501,-9.69537 -9.1529,-14.41997 -5.271,-5.26593 -11.4255,-9.67679 -17.7541,-13.56981 -8.9681,-5.38792 -17.7407,-11.11091 -26.5291,-16.78462 -6.4308,-3.96394 -13.0507,-7.67741 -19.0346,-12.31434 -5.7884,-4.09466 -10.6825,-9.2247 -15.5008,-14.40637 -4.9251,-4.78875 -10.53466,-8.84387 -15.9516,-13.04789 -7.57813,-4.84828 -15.13864,-9.86076 -21.87301,-15.84705 -6.72941,-5.29689 -14.01996,-9.94352 -20.1337,-15.99656 -5.31758,-5.05394 -10.04322,-10.47077 -14.41069,-16.35602 -4.09968,-5.18304 -8.33881,-10.17739 -14.11835,-13.62728 -6.1136,-3.61671 -12.69132,-6.28266 -19.04074,-9.4458 -6.43538,-3.09379 -12.53434,-6.86701 -18.71361,-10.43722 -5.4858,-4.19528 -9.68318,-9.28565 -12.87502,-15.43688 -3.27077,-4.77382 -6.39803,-9.76783 -11.23718,-13.11702 -4.76565,-3.98407 -10.30009,-5.64153 -16.19225,-7.32454 -5.09342,-2.11746 -10.39301,-3.67346 -15.26647,-6.30714 -6.34804,-2.12524 -12.57788,-4.45907 -19.16664,-5.80233 -6.45149,-1.19033 -12.68675,-3.16363 -19.19822,-3.99444 -6.22894,-1.26181 -12.33967,-1.99961 -18.73355,-1.7335 -7.4606,-0.3526 -14.90908,-0.97055 -22.25584,-2.37642 -6.8637,-1.14158 -13.72471,-1.00616 -20.67229,-1.20161 -7.80623,-0.45987 -15.60152,-1.29607 -23.12551,-3.54827 -7.16923,-2.03055 -14.4846,-3.73026 -21.96241,-4.01279 -7.42063,-0.62453 -14.78379,-1.57887 -22.02926,-3.34775 -5.06187,-0.4019 -10.11073,-0.98475 -15.00211,-2.41616 -7.08862,-0.88825 -13.37744,-4.14919 -20.14476,-6.30142 -7.57626,-2.98337 -15.2714,-5.73042 -22.3903,-9.75125 -6.22591,-3.56344 -12.5329,-6.92868 -19.37178,-9.17656 -5.54124,-1.89302 -10.92109,-4.22777 -16.27354,-6.59506 -6.41863,-1.76027 -12.77188,-3.40706 -19.40238,-4.23976 -8.06687,-1.51977 -15.78158,-4.52374 -23.57013,-7.08595 -7.64967,-2.51932 -15.0252,-5.82217 -22.65992,-8.41279 -7.99216,-2.6749 -15.76194,-5.85772 -23.58088,-8.97472 -7.38271,-2.69089 -15.04654,-4.21479 -22.6726,-6.04024 -6.61064,-0.99425 -13.1577,-2.59062 -19.8848,-1.76669 -6.68029,0.44373 -13.34548,1.21839 -19.72339,3.3786 -7.7932,2.4487 -15.62432,4.11601 -23.8589,3.52026 -8.5358,0.0493 -17.07178,0.14631 -25.60373,0.42258 -9.73792,0.31778 -19.53032,1.13663 -29.25057,0.20903 -7.01649,-1.48289 -14.12768,-2.00681 -21.1918,-3.24539 -6.82211,-1.16076 -13.66317,-1.0641 -20.54451,-1.74051 -6.36144,-0.97412 -12.55443,-2.55295 -17.8651,-6.38181 -5.02259,-2.60952 -9.84472,-5.88471 -13.80625,-9.94873 -3.95705,-3.19479 -7.80055,-6.4759 -12.44847,-8.67127 -5.78859,-2.4952 -11.35347,-5.38447 -17.00124,-8.15106 -6.45681,-3.33764 -13.12082,-6.09322 -19.91507,-8.68723 -8.67326,-3.70678 -16.17661,-9.20343 -22.7863,-15.9432 -5.38673,-5.06958 -10.99861,-9.91913 -16.09734,-15.2808 -5.91494,-5.2396 -11.67026,-10.63529 -17.63965,-15.81338 -7.63774,-6.42162 -16.15705,-11.76584 -23.62499,-18.42329 -6.09085,-5.52762 -12.45179,-10.91651 -16.34767,-18.32123 -2.90733,-5.14792 -5.48621,-10.52669 -8.937,-15.32761 -4.34701,-5.11663 -8.6279,-10.21204 -13.650453,-14.70861 C 90.055249,101.35913 84.4129,96.237654 79.211796,90.684481 75.002275,86.16002 70.63645,81.795979 65.380588,78.473707 60.19302,74.685436 55.704256,70.133416 51.886399,64.957958 46.857593,58.704852 42.695207,51.837595 38.365093,45.093219 33.908116,37.956306 28.467814,31.567826 23.055421,25.144111 15.607753,16.705819 9.4707909,7.3249324 2.9093945,-1.8009658 -2.6957274,-10.208649 9.1945316,-18.135488 14.799653,-9.7278051 z"
     inkscape:connector-curvature="0" />
  <path
     style="fill:#de2d26;fill-opacity:1;stroke:none"
     id="path6047"
     d="m 613.47493,395.3729 c 9.06275,0 18.12551,0 27.18827,0 8.18589,-0.58419 16.18951,1.049 24.23666,2.22765 6.91936,0.42455 13.63258,1.56412 20.38063,3.09194 7.56422,2.30036 14.82016,5.45538 22.18886,8.30194 7.10115,3.17479 13.79609,7.07752 20.38589,11.17647 5.86138,2.90657 12.43043,3.98594 18.64295,5.96718 9.65017,3.78471 18.03079,10.02121 26.96376,15.17201 8.59265,5.14045 16.6375,11.38649 24.00172,18.17407 5.70966,5.6117 12.83756,9.32835 19.62388,13.46792 9.17437,6.62113 18.90973,12.16605 28.89102,17.45687 11.11258,5.30242 22.03193,10.99918 33.0067,16.57891 13.89012,6.5341 27.76616,13.08268 41.69446,19.53139 10.27335,4.69881 19.53755,10.94363 28.43577,17.81351 8.46718,5.71458 17.51852,10.54691 26.62459,15.15976 8.75711,5.26599 18.57911,8.11434 28.24341,11.17967 6.264,1.48567 11.7259,4.8632 18.2328,4.78332 6.1687,-0.72281 12.5661,-0.20357 18.6496,-1.48937 5.2082,-0.96843 10.1006,-2.99305 14.9322,-5.1265 6.175,-2.83793 12.9038,-3.79689 19.3389,-5.82272 5.9248,-1.25329 11.4817,-3.60226 17.3487,-5.07079 4.8802,-0.88033 9.7915,-1.40976 14.4952,-2.98166 5.7691,-1.80527 11.848,-2.02773 17.8412,-2.25684 6.7807,-0.64558 13.3983,0.60489 19.9541,2.19216 0.6818,0.24594 1.3636,0.49189 2.0454,0.73783 9.395,3.72044 4.1335,17.00689 -5.2615,13.28645 l 0,0 c -0.06,-0.0478 -0.1196,-0.0955 -0.1794,-0.14323 -5.2914,-1.31157 -10.535,-2.38569 -16.0199,-1.79305 -4.643,0.17259 -9.3751,0.25161 -13.8731,1.53772 -5.0671,1.67643 -10.3236,2.5035 -15.5919,3.29809 -5.5771,1.33566 -10.8342,3.70011 -16.4717,4.82541 -5.9637,1.87373 -12.1661,2.80935 -17.9254,5.29468 -5.8439,2.51403 -11.7628,4.95273 -18.0553,6.07839 -7.0451,1.18502 -14.2329,1.21572 -21.3539,1.72318 -8.0065,-0.16959 -14.8917,-3.077 -22.43023,-5.45271 -10.39478,-3.30311 -20.94066,-6.43348 -30.38037,-12.05381 -9.9009,-5.02208 -19.75205,-10.28023 -28.89649,-16.59465 -8.05427,-6.21855 -16.3911,-11.91927 -25.70738,-16.15731 -14.08621,-6.52362 -28.1234,-13.14053 -42.1662,-19.76045 -11.04762,-5.61678 -22.04163,-11.34597 -33.2241,-16.69179 -10.22929,-5.42444 -20.23388,-11.10506 -29.63987,-17.88331 -7.60101,-4.63819 -15.53019,-8.91211 -21.92141,-15.21044 -6.49083,-6.13206 -13.80119,-11.60485 -21.40616,-16.25464 -8.06025,-4.65834 -15.66064,-10.19164 -24.20147,-13.94631 -7.30265,-2.38255 -15.09799,-3.51398 -21.81287,-7.43734 -5.82917,-3.63162 -11.7377,-7.09352 -17.98752,-9.97952 -6.72052,-2.60109 -13.35049,-5.42863 -20.192,-7.69327 -6.39767,-1.44987 -12.72749,-2.49255 -19.29797,-2.8902 -7.36779,-1.08268 -14.66335,-2.66188 -22.16226,-2.0763 -9.06276,0 -18.12552,0 -27.18827,0 -10.10478,0 -10.10478,-14.29031 0,-14.29031 z"
     inkscape:connector-curvature="0" />
  <path
     style="fill:#de2d26;fill-opacity:1;stroke:none"
     id="path6049"
     d="m 983.09037,588.81982 c -7.27189,4.28005 -14.38122,8.76966 -20.72852,14.35629 -4.83628,3.88982 -9.06582,8.42969 -13.73448,12.51289 -6.6291,5.06288 -14.28098,8.55343 -21.67903,12.34307 -6.75189,3.63899 -12.87693,8.38002 -18.72766,13.31946 -6.29138,5.43355 -13.85564,9.09544 -20.11992,14.53211 -6.42225,6.54882 -12.69503,13.16776 -19.54918,19.2749 -8.04657,6.97648 -17.31091,12.25962 -25.29821,19.28764 -6.21934,4.66119 -11.80435,10.01512 -16.53646,16.18039 -4.95662,6.64497 -10.20544,13.04871 -14.5787,20.10472 -4.6015,7.83305 -8.68533,15.94376 -12.9535,23.95753 -3.46561,7.37402 -8.37641,13.99538 -13.27613,20.47522 -5.06537,7.7189 -10.27202,15.34922 -15.39679,23.03442 -5.7565,7.69666 -10.15006,16.23446 -15.47529,24.21932 -5.61066,7.61601 -11.04681,15.3057 -15.81827,23.47024 -5.62927,9.79732 -12.0105,19.05295 -19.18425,27.77311 -7.47873,8.45676 -15.33395,16.52068 -22.10964,25.56869 -6.50232,9.11199 -13.83879,17.56381 -20.76024,26.3502 -6.36583,7.65176 -12.12685,15.87219 -16.36055,24.89867 -3.89633,8.84732 -6.67819,18.11119 -10.6218,26.9364 -3.77612,8.75845 -8.62555,17.04204 -13.9104,24.96891 -4.49766,7.5774 -9.90903,14.5333 -14.99489,21.7124 -5.24745,7.5895 -9.12436,15.9888 -13.86295,23.8848 -4.97955,7.1956 -9.73158,14.5078 -13.41963,22.4543 -3.25841,7.1401 -6.59288,14.2983 -9.35769,21.65 -2.05414,6.5267 -4.08948,13.0547 -6.2421,19.5516 -2.1053,7.0072 -4.3717,13.9614 -7.15685,20.7284 -1.97575,6.4319 -5.65654,11.9037 -9.71587,17.1652 -3.4048,4.7993 -6.46844,9.8451 -9.85659,14.6549 -2.18405,4.1517 -5.30297,6.6374 -9.39954,8.73 -9.28261,3.9924 -14.9288,-9.1352 -5.6462,-13.1276 l 0,0 c 1.47681,0.4669 2.58234,-3.3134 3.42083,-3.9135 3.56973,-4.8844 6.58977,-10.1878 10.1684,-15.0745 3.28929,-4.261 6.32468,-8.5931 7.81443,-13.8741 2.65787,-6.4559 4.80086,-13.0958 6.80666,-19.7844 2.21892,-6.6934 4.30552,-13.4206 6.45056,-20.1377 2.94274,-7.6648 6.33811,-15.1735 9.77144,-22.6267 3.94594,-8.3706 8.79065,-16.2046 14.12023,-23.768 4.94652,-8.1814 8.90126,-16.95 14.44425,-24.7736 5.01283,-7.0757 10.34876,-13.9279 14.77859,-21.39827 4.87067,-7.24913 9.29345,-14.86252 12.75635,-22.88786 4.03648,-8.88904 6.67619,-18.3262 10.74727,-27.20755 4.78022,-9.94553 10.94201,-19.15442 18.04054,-27.60494 6.85483,-8.70129 14.12036,-17.07089 20.56217,-26.09279 6.93382,-9.19645 14.81863,-17.5173 22.50821,-26.07484 6.70869,-8.11314 12.61748,-16.76509 17.87254,-25.89361 4.91921,-8.41128 10.47674,-16.36808 16.27532,-24.20056 5.34196,-7.96724 9.70016,-16.53411 15.47307,-24.21601 5.29603,-7.91144 10.62466,-15.79842 15.88894,-23.72562 4.45861,-5.86991 8.94466,-11.85973 12.05587,-18.56779 4.42886,-8.29746 8.64992,-16.70563 13.44341,-24.80513 4.67926,-7.44387 10.12322,-14.30909 15.4233,-21.31327 5.35955,-6.81039 11.42313,-12.97681 18.39923,-18.15346 7.99592,-6.96951 17.06169,-12.41863 25.2085,-19.20845 6.94304,-6.17622 13.19444,-12.97188 19.80237,-19.49504 6.38864,-5.34165 13.66942,-9.35302 20.1619,-14.56762 6.6882,-5.62411 13.69798,-10.99444 21.42709,-15.11309 6.3714,-3.25406 12.92722,-6.27141 18.78546,-10.38289 4.68298,-4.08535 8.90892,-8.6525 13.76616,-12.54048 7.31658,-6.28956 15.32193,-11.58493 23.70742,-16.34806 9.03798,-4.51899 15.42881,8.26265 6.39082,12.78165 z"
     inkscape:connector-curvature="0" />
  <path
     style="fill:#de2d26;fill-opacity:1;stroke:none"
     id="path6051"
     d="m 620.97171,409.70716 c -6.52295,7.82687 -11.64254,16.5014 -19.51523,23.09648 -5.59305,4.35103 -11.99332,7.46548 -18.12495,10.96242 -4.5919,3.40616 -9.31465,6.62002 -14.02332,9.85908 -4.48446,3.87321 -9.36411,7.25814 -14.21091,10.65554 -4.93867,2.59125 -9.40298,5.88669 -13.88964,9.17099 -6.02008,3.65467 -11.76477,7.70661 -17.55643,11.69921 -5.68276,3.56658 -10.13783,8.58254 -14.93934,13.17914 -5.59618,5.33882 -12.3264,9.2716 -19.12356,12.86807 -6.55374,3.36678 -12.60934,7.34107 -18.10397,12.23607 -7.63302,6.31054 -15.0978,12.7954 -22.9559,18.82539 -7.28483,5.00336 -12.99163,11.68782 -18.8436,18.20863 -6.45891,7.60315 -13.21834,14.62405 -21.91147,19.61188 -6.08448,3.26279 -11.96323,7.30841 -17.04475,12.00387 -5.13804,5.9848 -11.52158,10.68267 -16.98674,16.32414 -5.5589,5.93757 -10.90034,12.04369 -15.32278,18.883 -4.22549,6.4961 -8.9519,12.48799 -14.07131,18.28658 -5.61487,5.37174 -11.71353,10.06174 -16.48018,16.24344 -5.65633,7.3631 -10.47692,15.29019 -16.03984,22.72046 -5.7962,7.07924 -11.71034,14.08193 -16.98314,21.56812 -4.28648,6.30593 -7.83573,13.01741 -11.88914,19.48462 -2.92104,5.15597 -5.70473,10.36452 -8.51615,15.58338 -2.65572,6.67733 -6.71265,12.70565 -10.96821,18.45438 -4.189,5.93732 -9.48706,11.03297 -14.59314,16.17955 -4.20113,4.91906 -7.25797,10.7042 -10.97309,15.99117 -4.74912,5.61204 -10.42503,10.26643 -16.41208,14.4856 -4.68536,3.33033 -8.86744,7.25696 -13.29109,10.90018 -0.0529,0.0841 -0.10572,0.16817 -0.15857,0.25226 -6.97229,7.31394 -17.31576,-2.54637 -10.34347,-9.86031 l 0,0 c 0.50398,-0.50004 1.00797,-1.00008 1.51196,-1.50012 4.76632,-3.74151 9.07577,-8.08379 14.10671,-11.51342 4.69039,-3.22491 9.05108,-6.88092 12.93686,-11.04054 4.23901,-5.87825 7.48371,-12.51328 12.50609,-17.80768 4.65964,-4.6383 9.46598,-9.28468 13.27415,-14.65631 3.91775,-5.14025 7.40624,-10.66543 9.83054,-16.67623 2.97012,-5.48601 5.90639,-10.96724 8.98791,-16.39222 4.20368,-6.68119 7.83874,-13.64991 12.32872,-20.14329 5.3833,-7.56674 11.28303,-14.74428 17.21356,-21.88422 5.64005,-7.50277 10.46245,-15.56243 16.23347,-22.9727 5.03183,-6.31981 10.93429,-11.58942 17.01103,-16.88032 4.66642,-5.27355 8.98452,-10.70335 12.81518,-16.63865 4.99482,-7.58296 10.82685,-14.49263 17.08156,-21.07084 5.73428,-5.79613 12.21094,-10.80052 17.62154,-16.93298 5.98185,-5.30556 12.56997,-10.13561 19.64589,-13.86701 7.43238,-3.97596 12.67168,-10.49801 18.24455,-16.68046 6.43846,-7.17417 12.79886,-14.46389 20.78051,-20.00189 7.592,-5.82341 14.79307,-12.09793 22.17646,-18.18237 6.3778,-5.62749 13.35801,-10.30197 20.9344,-14.19119 5.64732,-2.94228 11.26079,-6.17998 15.91838,-10.56875 5.37543,-5.07984 10.34726,-10.65795 16.69269,-14.60184 5.68604,-3.90236 11.28919,-7.92521 17.21998,-11.46053 4.56854,-3.33834 9.11905,-6.74068 14.15084,-9.35755 4.90008,-3.39572 9.74753,-6.87579 14.30894,-10.7233 5.0496,-3.44219 10.03657,-6.96016 15.02991,-10.4889 5.48471,-3.1161 11.20161,-5.90499 16.25884,-9.69519 7.79373,-5.73883 11.44738,-15.37526 18.34655,-22.04962 7.14516,-7.14516 17.24994,2.95962 10.10478,10.10478 z"
     inkscape:connector-curvature="0" />
  <path
     style="fill:#de2d26;fill-opacity:1;stroke:none"
     id="path6053"
     d="m 1164.0291,1205.8205 c 9.0188,-4.3694 18.7672,-6.8153 28.3206,-9.6972 8.8381,-2.9131 18.1831,-2.9671 27.2974,-4.2651 8.5151,-1.4963 17.0945,-2.4708 25.7197,-3.0061 7.4219,-0.3802 14.8557,-0.3852 22.2853,-0.3961 9.5169,0 19.0339,0.015 28.5509,0.022 8.2996,0.01 16.5992,0.01 24.8988,0.01 7.5676,-0.1187 14.9796,1.7299 22.4634,2.6422 6.4781,0.9987 12.3825,3.6819 18.4663,5.914 6.5929,2.4749 13.5236,3.6201 20.3305,5.3035 7.9218,2.073 15.6377,4.8963 23.3446,7.6542 8.7726,2.7246 18.0052,2.9608 27.1079,3.3041 10.9147,0.6399 21.7588,3.0765 32.7132,2.7381 8.5422,-0.1891 16.8246,-1.8516 25.1439,-3.5917 9.0502,-1.8842 18.1354,-3.5445 27.1009,-5.8123 7.569,-1.8882 15.3198,-2.7294 22.7032,-5.3176 8.9577,-2.8 17.6863,-6.2707 26.6388,-9.0919 8.1221,-3.1741 16.6006,-5.2789 24.7974,-8.2258 7.072,-2.5942 14.5575,-4.1807 20.9456,-8.2981 5.7886,-4.5886 11.242,-9.0892 18.0945,-11.9725 6.6134,-2.3417 13.6002,-3.0374 20.2235,-5.3642 8.2999,-2.361 16.1225,-6.0372 24.2334,-8.9272 5.6299,-2.5494 11.3356,-4.9677 16.2204,-8.8013 5.7474,-5.5389 12.4412,-9.6479 19.44,-13.367 7.2219,-3.4253 14.9942,-5.6611 22.712,-7.6987 7.3177,-1.2776 14.6007,-2.5291 21.8925,-3.9724 6.3009,-2.4669 12.6618,-4.3188 19.4393,-4.5522 6.486,0.794 13.0339,1.3213 19.456,2.5339 8.207,1.6128 16.4055,2.9201 24.3997,5.4475 7.9177,2.4725 15.4939,5.9048 22.3294,10.6042 5.9043,4.3469 9.9827,10.4915 14.8848,15.8189 4.3588,4.6918 10.0337,7.6924 15.8142,10.2603 7.4784,2.6407 15.3084,3.9169 22.8369,6.4349 8.223,2.3454 15.2802,7.3008 22.9423,10.8978 7.7378,4.0192 15.5617,7.8399 23.3269,11.8036 3.6882,1.4541 7.0282,3.58 10.6908,5.0918 9.3053,3.9393 3.7343,17.099 -5.571,13.1597 l 0,0 c -3.9571,-1.7039 -7.6467,-3.8629 -11.6197,-5.525 -7.6453,-3.9069 -15.3524,-7.667 -22.9711,-11.628 -7.1285,-3.4324 -13.7726,-7.947 -21.3934,-10.2685 -7.9256,-2.7454 -16.3207,-3.7478 -24.1052,-6.9344 -7.5531,-3.4325 -14.8689,-7.4907 -20.5351,-13.691 -4.1467,-4.6184 -7.7325,-9.774 -12.547,-13.7494 -5.4938,-4.0696 -12.0331,-6.4943 -18.4587,-8.6711 -7.4446,-2.4492 -15.1602,-3.4242 -22.8053,-5.0343 -5.4569,-1.1652 -11.1028,-1.2883 -16.6035,-2.2607 -5.8,-0.4413 -11.2276,3.0392 -16.7387,4.2809 -7.0037,1.3829 -13.9962,2.6411 -21.0385,3.7763 -6.6588,1.733 -13.3585,3.6648 -19.6322,6.4954 -6.3119,3.3537 -12.2943,7.0541 -17.4546,12.0914 -6.1503,4.6364 -13.0434,7.9549 -20.1358,10.9262 -8.171,2.8802 -16.0259,6.6337 -24.3884,8.9811 -6.3581,2.1289 -12.9087,3.235 -19.3432,5.0307 -1.2871,0.5306 -2.7157,0.7692 -3.8931,1.5121 -4.3037,2.7153 -7.6933,6.8775 -12.1583,9.4081 -7.3786,4.4803 -15.5153,6.9589 -23.6871,9.6205 -8.3834,2.9719 -17.0093,5.2043 -25.3184,8.4004 -8.8471,2.7673 -17.4559,6.2332 -26.3074,8.9834 -7.7863,2.6024 -15.8223,3.8575 -23.8141,5.6468 -9.158,2.313 -18.4348,4.0185 -27.6775,5.9454 -9.1816,1.9198 -18.3513,3.6779 -27.7723,3.8912 -11.2491,0.1514 -22.3628,-1.7813 -33.5525,-2.7453 -10.5612,-0.404 -21.247,-0.8139 -31.3815,-4.1298 -7.2659,-2.6017 -14.534,-5.2811 -21.9989,-7.246 -7.3021,-1.8553 -14.7561,-3.0875 -21.8358,-5.7699 -5.0395,-1.8893 -9.8892,-4.1323 -15.2304,-5.1261 -6.908,-0.852 -13.7548,-2.5445 -20.7247,-2.5359 -8.3025,-7e-4 -16.605,-0 -24.9075,-0.01 -9.5067,-0.01 -19.0134,-0.018 -28.5202,-0.022 -7.1433,0.01 -14.2909,0.012 -21.4273,0.369 -8.2636,0.5053 -16.4781,1.4657 -24.6356,2.8977 -8.3937,1.1385 -16.9799,1.2462 -25.1342,3.792 -8.7755,2.6459 -17.7402,4.8623 -26.0559,8.7971 -9.038,4.519 -15.4289,-8.2626 -6.3909,-12.7816 z"
     inkscape:connector-curvature="0" />
  <path
     style="fill:#de2d26;fill-opacity:1;stroke:none"
     id="path6055"
     d="m 682.50608,918.21506 c 5.077,7.70698 11.09237,14.73449 17.40123,21.45162 4.9209,5.46163 9.96293,10.79716 14.37649,16.69177 4.55234,5.225 8.33486,11.06229 12.68785,16.43893 4.35554,5.31092 10.48941,8.57644 16.09361,12.36575 6.99433,3.97403 12.77317,9.62815 19.04668,14.59424 5.74296,5.77423 13.332,7.85243 20.56187,11.01713 7.7557,2.6795 14.15955,7.4861 20.55085,12.426 4.58081,4.6282 9.75924,8.2544 15.61416,11.0498 6.14685,3.4955 12.53884,6.6371 19.23081,8.9441 6.49842,2.827 13.39982,4.3478 20.06236,6.6993 2.71002,1.2117 5.35441,0.9162 8.12105,0.3355 9.72868,-2.7312 13.59118,11.0272 3.86251,13.7584 l 0,0 c -5.54376,1.3956 -11.33021,1.4265 -16.74079,-0.6187 -6.64804,-2.3477 -13.54983,-3.8439 -20.03007,-6.6879 -7.18564,-2.5485 -14.14606,-5.7656 -20.75143,-9.5775 -6.67792,-3.2875 -12.887,-7.251 -18.12266,-12.6079 -5.46444,-4.2452 -10.8431,-8.4355 -17.54993,-10.64 -8.29417,-3.668 -17.0541,-6.3077 -23.67909,-12.8942 -5.99581,-4.7477 -11.50276,-10.1684 -18.18708,-13.96438 -6.79167,-4.60329 -14.08154,-8.69561 -19.23718,-15.2669 -4.4148,-5.55874 -8.39482,-11.46182 -13.01492,-16.86341 -4.02494,-5.50827 -8.83599,-10.34047 -13.33777,-15.44486 -6.52004,-7.01113 -12.86664,-14.25062 -18.11741,-22.2797 -6.3124,-7.8905 4.84645,-16.81759 11.15886,-8.92709 z"
     inkscape:connector-curvature="0" />
  <path
     style="fill:#de2d26;fill-opacity:1;stroke:none"
     id="path6057"
     d="m 836.51099,987.78952 c 3.78551,8.41112 9.04238,15.61898 14.98374,22.57318 5.71205,6.2299 10.32961,13.3321 14.40141,20.7097 3.42311,7.1221 5.31063,14.8331 7.85411,22.2789 2.38994,7.0138 3.68722,14.3069 6.31799,21.2432 1.96408,6.244 6.2146,11.3881 10.49091,16.2252 4.00917,5.0073 8.82687,9.2757 13.1368,14.0208 3.9427,4.9374 7.8141,9.9324 11.70818,14.9114 2.70273,3.3792 5.06899,5.7901 9.24419,6.9129 6.95175,2.0199 13.56956,4.7655 20.01516,8.0316 9.01359,4.5675 2.55423,17.3146 -6.45936,12.7471 l 0,0 c -5.73159,-2.9044 -11.59577,-5.3625 -17.79383,-7.1312 -6.8493,-2.2661 -11.89631,-6.0811 -16.28724,-11.7883 -3.65287,-4.7327 -7.37299,-9.4171 -11.0492,-14.124 -4.3098,-4.8499 -9.28387,-9.08 -13.29285,-14.197 -5.33202,-6.1935 -10.60377,-12.7156 -13.10559,-20.624 -2.6046,-7.0997 -4.1709,-14.4564 -6.46242,-21.65 -2.23846,-6.6748 -4.01515,-13.5288 -6.84904,-19.9895 -3.55425,-6.5451 -7.6855,-12.7948 -12.7342,-18.2942 -6.69423,-7.8355 -12.56656,-16.0496 -16.9004,-25.46495 -4.519,-9.03799 8.26265,-15.42881 12.78164,-6.39083 z"
     inkscape:connector-curvature="0" />
  <path
     style="fill:#de2d26;fill-opacity:1;stroke:none"
     id="path6059"
     d="m 359.58466,263.33115 c -8.09584,6.20386 -17.3448,10.32744 -26.56419,14.48795 -6.77802,2.78328 -13.57525,5.5 -20.29033,8.43721 -6.60698,3.23674 -13.55782,5.4311 -20.50161,7.78077 -5.19623,1.57319 -10.33334,3.87735 -14.4269,7.51022 -3.58152,4.27795 -6.90144,8.81263 -10.62836,12.98016 -5.66667,5.47912 -10.89454,11.33704 -17.08096,16.24764 -4.41956,3.40845 -6.73442,8.60271 -9.95018,13.04424 -3.27482,4.85835 -6.51349,9.72399 -9.85822,14.53816 -3.1294,5.2363 -7.08987,9.90351 -9.64632,15.47207 -3.04837,5.29478 -5.64787,10.87306 -7.58034,16.67205 -1.64003,5.7594 -3.894,11.23023 -4.92248,17.1552 -1.87223,7.00142 -3.2539,14.09466 -5.14774,21.0886 -1.86843,7.38616 -4.26431,14.63629 -6.70883,21.8511 -2.18031,7.62201 -5.12515,15.00582 -8.46712,22.18698 -3.35639,6.89978 -6.41098,13.91383 -9.24088,21.04646 -2.95246,7.02893 -6.7519,13.67592 -8.66866,21.08626 -2.41528,8.89767 -5.46632,17.58951 -8.5038,26.28851 -3.37361,7.99318 -6.49832,16.11717 -10.17,23.97521 -3.39924,7.06891 -6.33701,14.34126 -9.70628,21.42378 -3.42712,7.95854 -6.38859,16.08759 -9.32969,24.2347 -1.57468,6.51947 -4.21617,12.71641 -5.76687,19.23797 -1.14838,5.55785 -2.90092,10.95225 -4.15415,16.49754 -2.22793,9.8561 -16.16657,6.70532 -13.93864,-3.15078 l 0,0 c 1.27151,-5.62379 3.05699,-11.08485 4.20629,-16.71991 1.7309,-7.01326 4.4268,-13.72086 6.21344,-20.7209 3.10508,-8.58669 6.2301,-17.15706 9.87329,-25.53473 3.38386,-7.0609 6.27342,-14.342 9.68965,-21.38883 3.55154,-7.34635 6.30558,-15.09379 9.59175,-22.56576 2.9255,-8.37511 5.87653,-16.73725 8.1995,-25.30467 2.20118,-7.90707 5.79771,-15.18446 9.18533,-22.63905 2.94513,-7.39046 6.1061,-14.66979 9.57832,-21.8266 3.15488,-6.68519 5.83315,-13.60468 7.8742,-20.71259 2.35027,-6.93448 4.67094,-13.89645 6.44971,-21.00021 1.78559,-6.5924 3.05908,-13.283 4.8743,-19.87021 1.21178,-6.62272 3.53573,-12.81091 5.45766,-19.23222 2.16686,-6.29485 4.84525,-12.44931 8.20216,-18.20556 3.01813,-6.22345 7.12772,-11.68501 10.82325,-17.50228 3.42868,-4.9272 6.73268,-9.91242 10.10215,-14.87826 4.11124,-5.36161 6.83254,-11.86777 12.63216,-15.80012 5.6288,-4.31603 10.12335,-9.80682 15.31678,-14.60953 4.26287,-4.56633 7.65536,-9.91295 12.07794,-14.36482 5.64605,-4.52613 11.9973,-8.07383 18.99719,-10.05597 6.56872,-2.19381 13.12998,-4.24696 19.35962,-7.34183 6.66875,-2.88014 13.38591,-5.62889 20.11521,-8.35974 8.13356,-3.65669 16.31892,-7.20727 23.50556,-12.61707 7.8905,-6.31241 16.81759,4.84645 8.92709,11.15886 z"
     inkscape:connector-curvature="0" />
  <path
     style="fill:#de2d26;fill-opacity:1;stroke:none"
     id="path6061"
     d="m 95.960457,1110.3178 c -1.37202,9.7182 -2.16524,19.5016 -2.681452,29.2984 -0.362112,7.7496 -0.396985,15.5088 -0.415715,23.2652 -0.725106,5.9482 -1.949859,11.8924 -0.479131,17.8189 2.445846,5.3231 5.616057,10.3966 9.474721,14.8149 3.48269,4.4245 7.59908,8.2674 11.2939,12.5145 3.50749,5.1102 7.77628,9.6029 11.05214,14.8644 3.56556,6.2124 6.72524,12.6681 9.77555,19.1496 2.87654,7.1509 5.72591,14.3199 9.06999,21.2679 3.36501,7.3928 7.08604,14.6113 10.50268,21.9817 3.63369,9.0309 6.62721,18.3275 9.58795,27.5996 2.66426,8.4206 4.41503,17.2081 8.00769,25.2995 3.18051,6.5805 8.62167,11.4656 13.59636,16.6465 6.30249,5.6658 10.19793,13.0138 14.51036,20.1434 3.81411,6.677 7.35471,13.4745 11.84736,19.7285 6.36319,7.5497 12.42105,15.3061 18.12127,23.3683 5.03534,7.3211 8.01937,15.7474 12.36498,23.4473 3.29714,6.5596 7.84816,12.3603 11.93313,18.4276 4.58926,6.6275 8.00664,13.9768 11.7469,21.1046 4.10728,7.1039 7.45411,14.6582 10.14491,22.4051 2.73245,5.8645 4.80784,11.9946 7.52982,17.8631 2.20029,5.1757 4.99105,10.2548 8.82861,14.4078 3.889,4.6255 6.88815,9.8251 9.64515,15.175 3.16754,5.8949 5.35518,11.7734 6.22061,18.4211 1.18084,10.0355 -13.01157,11.7055 -14.1924,1.67 l 0,0 c -0.48141,-4.9733 -2.45905,-9.1103 -4.73257,-13.548 -2.2213,-4.3154 -4.54149,-8.5472 -7.67531,-12.285 -4.57681,-5.3519 -8.41911,-11.3293 -11.07843,-17.8727 -2.88247,-6.3168 -5.21158,-12.8532 -8.05962,-19.1857 -2.40334,-7.0844 -5.55528,-13.9385 -9.28897,-20.4187 -3.49271,-6.6779 -6.68161,-13.5638 -10.9576,-19.7778 -4.27176,-6.4013 -9.07589,-12.4945 -12.53414,-19.4068 -4.05588,-7.2955 -7.02801,-15.1489 -11.56387,-22.1775 -5.68702,-8.0452 -11.77866,-15.7414 -18.08139,-23.3122 -4.67776,-6.5813 -8.51973,-13.6267 -12.46124,-20.6633 -3.74767,-6.2497 -7.0209,-12.7126 -12.59,-17.6318 -6.12574,-6.421 -12.6706,-12.5825 -16.38248,-20.8385 -3.66855,-8.5945 -5.85736,-17.7112 -8.51615,-26.6551 -2.76223,-8.7072 -5.61096,-17.4183 -8.93639,-25.9251 -3.39056,-7.317 -7.08556,-14.4823 -10.42688,-21.8209 -3.33213,-6.9933 -6.28443,-14.1594 -9.11725,-21.3675 -2.82549,-6.042 -5.78086,-12.0491 -9.07837,-17.8443 -2.63814,-4.6667 -6.8117,-8.2786 -9.59914,-12.8668 -3.725707,-4.293 -7.894239,-8.1683 -11.406091,-12.6452 -5.257827,-6.3174 -9.949458,-13.3061 -12.56752,-21.1515 -1.304058,-6.9345 -1.245804,-13.8262 0.18059,-20.7596 0.01948,-7.9964 0.05845,-15.9957 0.435605,-23.985 0.542116,-10.2203 1.371068,-20.4267 2.805145,-30.5648 1.429032,-10.0032 15.57572,-7.9823 14.146688,2.0209 z"
     inkscape:connector-curvature="0" />
  <path
     style="fill:#de2d26;fill-opacity:1;stroke:none"
     id="path6063"
     d="m 240.60848,1888.567 c 8.66212,-5.5953 14.87549,-13.0962 21.10788,-21.1446 5.42294,-8.6907 11.75921,-16.6205 19.39579,-23.4463 6.64958,-5.5104 13.67155,-10.5271 20.51787,-15.7898 7.51098,-5.4192 15.28658,-10.3907 23.2765,-15.0677 6.07901,-3.2704 11.7455,-7.0887 17.31539,-11.1339 4.78439,-4.1223 9.53774,-8.3188 14.52593,-12.1975 4.88032,-4.8687 10.6387,-8.9962 14.91487,-14.4266 2.6948,-5.4032 6.47574,-10.0278 10.08814,-14.8086 4.49516,-5.906 8.89103,-11.841 13.52246,-17.6402 4.55384,-4.8073 6.72882,-10.906 8.97064,-16.995 2.11623,-6.1513 2.59053,-12.6449 2.90572,-19.0906 0.0288,-6.5995 1.9469,-12.9722 2.82478,-19.4824 0.29181,-6.9842 2.007,-13.7633 3.11445,-20.6385 0.54506,-7.277 1.70028,-14.4141 3.03627,-21.5818 0.80597,-7.2511 2.1052,-14.3769 3.52303,-21.53 2.18794,-6.8618 3.92662,-13.7813 4.80293,-20.9307 1.56373,-7.4842 2.95469,-14.9813 4.90577,-22.3747 1.41166,-7.0734 2.95943,-14.1004 4.50809,-21.1485 0.26708,-4.138 2.41567,-7.8472 2.9161,-11.9109 1.70085,-9.9606 15.78727,-7.5553 14.08642,2.4053 l 0,0 c -0.81908,4.2733 -2.41723,8.2658 -3.04668,12.5793 -1.59804,7.2403 -3.16708,14.4595 -4.647,21.7224 -1.79009,6.7779 -3.03325,13.6494 -4.54229,20.496 -0.94605,7.475 -2.55889,14.7924 -4.96621,21.9426 -1.41029,7.1028 -2.6804,14.1669 -3.49199,21.3687 -1.31725,7.0614 -2.42547,14.0751 -2.97782,21.2462 -1.09982,6.7622 -2.78438,13.4167 -3.06215,20.288 -0.8426,6.1063 -2.5961,12.0881 -2.71106,18.2597 -0.39958,7.8985 -1.11093,15.8301 -3.77702,23.3415 -2.78541,7.4881 -5.68956,14.9936 -11.21237,20.9595 -4.56736,5.7023 -8.88215,11.5567 -13.3119,17.3705 -3.75329,4.9011 -7.42766,9.7491 -10.39989,15.2034 -5.14219,6.137 -11.37369,11.2617 -17.24277,16.6887 -5.13322,3.9229 -9.90115,8.3262 -14.86991,12.4548 -5.95801,4.3085 -12.0181,8.3915 -18.49455,11.9029 -7.48151,4.359 -14.73544,9.0134 -21.77581,14.0587 -6.59132,5.0647 -13.34312,9.9016 -19.76926,15.1729 -7.06734,6.1319 -12.50122,13.6524 -17.55513,21.4838 -6.89987,8.9044 -14.00671,17.2591 -23.47813,23.5522 -7.8905,6.3124 -16.81759,-4.8464 -8.92709,-11.1588 z"
     inkscape:connector-curvature="0" />
  <path
     style="fill:#de2d26;fill-opacity:1;stroke:none"
     id="path6065"
     d="m -59.488086,1113.3175 c 7.755758,-5.987 16.411228,-10.615 24.558419,-16 6.092861,-4.2646 11.671944,-9.1853 17.846846,-13.3332 6.093922,-3.4639 11.6147117,-7.7134 17.27132636,-11.8319 7.08947194,-4.7821 14.20253064,-9.7015 21.62910664,-13.9792 6.201701,-2.9993 11.089805,-7.7845 16.183551,-12.2816 4.497065,-4.6193 8.206106,-9.8717 12.538628,-14.6346 5.458645,-4.5614 10.291842,-9.7013 14.678497,-15.279 4.965701,-5.3576 7.623696,-12.0102 10.197026,-18.71735 2.484235,-6.36365 6.707105,-11.72662 10.187372,-17.52607 1.819996,-2.51109 3.542716,-5.05728 5.467919,-7.48743 6.339924,-7.86841 17.467535,1.0976 11.127615,8.96601 l 0,0 c -1.57399,1.89871 -2.835921,4.00434 -4.376172,5.93089 -3.092953,5.06061 -6.748549,9.76454 -9.07441,15.26075 -3.104625,8.008 -6.44703,15.9634 -12.302927,22.4152 -4.601717,5.835 -9.574253,11.3612 -15.351569,16.0723 -4.698761,5.1237 -8.597247,10.9158 -13.651516,15.7274 -5.833403,5.1132 -11.489229,10.5089 -18.543148,13.9662 -7.003918,3.945 -13.64501,8.6495 -20.2992716,13.1196 -5.8185812,4.2355 -11.5294127,8.584 -17.7731462,12.181 -6.2400462,4.085 -11.7087492,9.2241 -17.9102152,13.3751 -7.805241,5.1003 -16.013085,9.588 -23.476843,15.2147 -7.890505,6.3124 -16.817593,-4.8464 -8.927088,-11.1588 z"
     inkscape:connector-curvature="0" />
  <path
     style="fill:#de2d26;fill-opacity:1;stroke:none"
     id="path6067"
     d="m 121.95568,613.60473 c 2.31243,8.42277 6.43329,16.17167 9.58094,24.28639 2.02725,7.56631 5.12887,14.6272 8.61446,21.59998 3.93223,6.90707 7.29111,14.12399 11.48174,20.8813 4.20147,7.47644 8.86236,14.69489 12.92266,22.24407 3.67859,7.6095 8.53467,14.49689 14.40117,20.56068 6.02297,5.30538 10.83102,11.70128 14.98122,18.52577 4.40367,6.83761 7.64193,14.26076 10.87585,21.68687 2.4662,6.49072 4.8986,12.98987 7.62038,19.38224 2.84773,5.81841 6.35575,11.2534 10.2217,16.44513 5.20309,6.15373 10.62682,12.02626 14.93857,18.86248 2.37674,5.6981 6.12302,10.58122 9.69576,15.54732 4.20917,4.34864 9.03728,7.86573 13.07638,12.41915 5.16507,4.59377 7.73909,11.03077 11.29917,16.75716 3.0794,5.77035 5.59534,11.70085 10.02599,16.60074 5.41664,5.92762 10.2824,12.28 15.20761,18.61014 5.42948,5.46422 10.09542,11.60344 15.13966,17.39972 4.07053,5.83067 9.36646,10.54251 14.0464,15.85468 4.07434,5.55036 8.34729,10.90408 12.79193,16.15027 3.80032,4.90434 6.96867,10.18119 10.06057,15.54569 2.3865,5.80676 5.58181,11.19778 8.17055,16.9002 1.90454,5.67757 4.62434,11.05838 7.44437,16.33139 3.45973,5.6765 8.20401,10.4027 12.7299,15.2198 4.41788,4.8071 8.09306,10.1975 12.72086,14.8145 2.88539,2.3026 5.79909,4.5763 8.60208,6.9804 7.63185,6.6228 -1.73418,17.4159 -9.36604,10.7931 l 0,0 c -3.02565,-2.6728 -6.32389,-5.0277 -9.36306,-7.691 -4.70276,-4.7488 -8.60762,-10.1251 -13.02026,-15.1245 -5.36973,-5.745 -10.96117,-11.4179 -14.92061,-18.2825 -2.94682,-5.56732 -5.86096,-11.22584 -7.87158,-17.20526 -2.32054,-5.29688 -5.45469,-10.20467 -7.52292,-15.62737 -2.642,-4.63693 -5.34151,-9.17879 -8.57823,-13.43005 -4.37002,-5.18525 -8.64516,-10.42053 -12.60499,-15.93352 -4.69791,-5.34389 -10.04433,-10.08073 -14.12845,-15.94874 -5.17323,-6.01369 -10.07794,-12.26559 -15.61008,-17.97317 -4.76203,-6.12418 -9.45248,-12.27537 -14.7044,-17.99889 -4.79655,-5.63941 -8.26953,-11.90635 -11.45478,-18.55331 -3.06886,-5.11292 -5.35375,-10.75513 -9.88879,-14.82577 -4.17092,-4.98982 -9.96605,-8.21273 -13.89144,-13.45117 -3.7365,-5.22212 -7.73635,-10.36236 -10.22474,-16.33884 -3.99382,-6.57546 -9.53928,-11.87717 -14.28028,-17.89366 -4.51634,-6.11774 -8.64253,-12.5151 -11.90646,-19.39717 -2.66486,-6.35828 -5.15287,-12.78416 -7.55982,-19.24087 -2.97682,-6.85563 -5.932,-13.71872 -10.01611,-20.01868 -3.54662,-5.98211 -7.84599,-11.42846 -13.08396,-16.03678 -6.66812,-7.08202 -12.44613,-14.90007 -16.66946,-23.70492 -3.83844,-7.32011 -8.48642,-14.2092 -12.47135,-21.457 -4.37831,-7.13947 -8.00635,-14.68689 -12.0991,-21.9903 -3.68604,-7.3747 -7.0158,-14.84941 -9.16412,-22.84449 -3.19578,-8.33182 -7.47401,-16.25848 -9.80587,-24.91222 -3.19542,-9.58623 10.36157,-14.10523 13.55698,-4.51899 z"
     inkscape:connector-curvature="0" />
  <path
     style="fill:#de2d26;fill-opacity:1;stroke:none"
     id="path6069"
     d="m 468.15139,585.96529 c 6.48313,6.71941 12.47147,13.92292 19.109,20.4929 6.15144,6.43395 12.1047,13.02006 17.56659,20.04856 6.64214,5.8783 13.66926,11.29809 20.37199,17.11269 6.35757,5.46764 13.54838,9.70903 20.76206,13.90794 7.03272,3.47207 13.40504,8.17734 19.13994,13.49665 4.80484,5.53018 10.35682,9.89323 16.74459,13.41915 7.3912,4.01742 15.26898,7.14592 23.02541,10.40712 8.27828,3.69607 16.67842,7.13089 25.03758,10.64977 7.45981,3.39454 14.09679,8.3238 20.95951,12.76374 6.66746,4.07406 13.76987,7.35959 21.135,9.95912 7.92283,3.56371 16.40065,5.29395 24.86324,7.01438 8.66409,2.51469 17.42499,4.62779 26.0788,7.16877 6.98901,2.24059 13.63306,5.33721 20.48673,7.91208 6.36345,1.46119 12.09238,4.56699 18.09196,6.98848 5.8124,2.96898 12.14137,4.5075 18.22839,6.77685 5.02264,1.57631 9.86624,3.61095 14.14336,6.68817 2.81203,1.32069 3.33606,3.5536 4.71151,6.24092 2.45217,9.80273 -11.41098,13.27062 -13.86315,3.46789 l 0,0 c 1.74976,2.57978 3.21268,3.54901 0.28125,1.49517 -1.08624,-2.05161 -8.30997,-3.43474 -10.26513,-4.50218 -6.22159,-2.31965 -12.70114,-3.89208 -18.64107,-6.93803 -5.87927,-2.42455 -11.51425,-5.39535 -17.76139,-6.8582 -6.49754,-2.48922 -12.82061,-5.36736 -19.43849,-7.55969 -8.2688,-2.42793 -16.64482,-4.42299 -24.90923,-6.87831 -9.11282,-1.86497 -18.25835,-3.75899 -26.80581,-7.5559 -8.38699,-3.01495 -16.51181,-6.72711 -24.10006,-11.42235 -6.16129,-3.9886 -12.11911,-8.41966 -18.74367,-11.59163 -8.35566,-3.52294 -16.75344,-6.96029 -25.03383,-10.64819 -8.24642,-3.47543 -16.61434,-6.81401 -24.46646,-11.11142 -7.3157,-4.14551 -13.96713,-9.06155 -19.51396,-15.4428 -4.92103,-4.63905 -10.48964,-8.61282 -16.57437,-11.5894 -7.9855,-4.64897 -15.91115,-9.40632 -22.93951,-15.46569 -7.39768,-6.42368 -15.33359,-12.23434 -22.29139,-19.13956 -5.08646,-6.55315 -10.64378,-12.67839 -16.36359,-18.68778 -6.98163,-6.98662 -13.39996,-14.51673 -20.18466,-21.69213 -6.31241,-7.89051 4.84645,-16.8176 11.15886,-8.92709 z"
     inkscape:connector-curvature="0" />
  <path
     style="fill:#de2d26;fill-opacity:1;stroke:none"
     id="path6071"
     d="m 657.86373,476.14283 c 5.79865,9.61266 14.12487,16.90024 22.55203,24.10328 8.65257,7.26823 17.70835,14.02047 26.30701,21.35993 8.60704,5.9483 14.87881,14.34028 21.59867,22.19721 8.63742,8.78546 16.96114,17.87284 25.46397,26.78841 7.34833,7.6787 14.8348,15.22317 22.33256,22.75543 7.26351,6.37398 12.93162,14.10519 18.83657,21.6616 3.90062,5.59699 8.78114,10.06956 13.82688,14.5606 4.72305,3.42821 9.82432,6.30818 14.60676,9.67568 6.5598,5.0397 12.60816,10.69108 19.02537,15.90359 5.36589,4.39465 10.43863,9.19449 15.17868,14.25975 4.53133,5.18207 8.21318,11.32518 10.57434,17.79289 3.16029,9.59786 -10.41314,14.06719 -13.57343,4.46932 l 0,0 c -0.9896,-4.58224 -4.76598,-8.88684 -7.49564,-12.56305 -4.20993,-4.63999 -8.91391,-8.878 -13.71689,-12.88556 -6.14476,-5.03052 -12.01067,-10.3895 -18.24568,-15.31087 -5.20222,-3.70159 -10.86996,-6.70909 -15.8713,-10.68227 -5.66799,-5.08001 -11.13631,-10.1989 -15.58471,-16.44094 -5.52676,-7.1207 -10.83893,-14.38713 -17.68891,-20.3592 -7.56967,-7.60457 -15.12758,-15.22182 -22.54605,-22.97454 -8.68103,-9.10291 -17.19183,-18.36778 -25.98382,-27.36401 -6.23845,-7.29806 -11.98587,-15.13463 -20.01776,-20.61724 -8.59675,-7.34585 -17.67472,-14.07569 -26.31364,-21.3656 -9.41771,-8.05576 -18.62817,-16.3415 -25.15527,-27.03757 -5.60512,-8.40768 6.28514,-16.33452 11.89026,-7.92684 z"
     inkscape:connector-curvature="0" />
  <path
     style="fill:#de2d26;fill-opacity:1;stroke:none"
     id="path6073"
     d="m 554.10515,454.51507 c 1.43408,10.13809 2.26303,20.3445 2.80515,30.5648 0.68837,7.60101 2.84384,14.86574 4.75016,22.21014 2.35726,6.93061 4.96176,13.7835 7.70208,20.57275 1.97397,6.56437 4.93584,12.66735 7.89005,18.8228 3.55817,6.83885 8.62908,12.72723 13.17915,18.91448 4.54782,5.28586 8.94209,10.68099 14.09642,15.39651 4.72891,4.30455 9.35779,8.75754 13.71356,13.44379 3.55723,4.50638 7.36388,8.93081 10.45476,13.78122 5.11258,8.71596 -7.21366,15.94624 -12.32623,7.23028 l 0,0 c -2.81515,-3.75782 -5.57365,-7.73441 -8.65386,-11.34556 -4.03047,-4.46733 -8.49957,-8.56055 -12.91295,-12.63868 -5.74374,-5.39202 -10.85393,-11.34569 -15.88419,-17.40142 -5.07809,-6.90538 -10.7145,-13.49084 -14.55393,-21.20556 -3.07786,-6.435 -6.17424,-12.83199 -8.26536,-19.67649 -2.94017,-7.36493 -5.82599,-14.76459 -8.27296,-22.30967 -2.13845,-8.26837 -4.50489,-16.47489 -5.18708,-25.0401 -0.51622,-9.79679 -1.30944,-19.58017 -2.68146,-29.29834 -1.42903,-10.00322 12.71766,-12.02417 14.14669,-2.02095 z"
     inkscape:connector-curvature="0" />
  <path
     style="fill:#de2d26;fill-opacity:1;stroke:none"
     id="path6075"
     d="m 1092.664,802.34933 c 8.4459,7.26942 16.3953,15.10128 24.9783,22.22512 7.9332,7.38786 17.1969,12.78371 26.5894,18.04101 8.4713,4.70328 16.6172,9.78121 24.2216,15.79364 6.4899,5.09827 13.4289,9.50075 20.749,13.29118 8.3316,4.19264 17.7118,4.787 26.5855,7.2761 9.9563,2.66293 19.6308,6.30504 29.0061,10.56677 8.4812,4.70351 17.3248,8.72586 26.4287,12.06114 9.6618,3.8783 19.6299,6.91378 29.4415,10.37118 5.3016,1.7299 10.3816,4.01884 15.656,5.82679 9.5524,3.29538 4.892,16.80442 -4.6603,13.50904 l 0,0 c -5.3035,-1.83955 -10.4346,-4.09088 -15.7602,-5.86317 -9.8638,-3.50238 -19.9079,-6.52101 -29.6249,-10.43743 -9.4198,-3.49848 -18.6444,-7.55763 -27.4192,-12.46952 -8.7036,-3.99992 -17.7286,-7.333 -26.982,-9.82102 -9.7605,-2.83241 -20.1838,-3.32852 -29.2582,-8.33821 -8.1188,-4.22847 -15.8393,-9.1061 -23.0409,-14.77558 -6.9899,-5.56102 -14.5252,-10.17525 -22.3224,-14.52111 -10.1517,-5.68225 -20.1367,-11.59684 -28.7487,-19.52485 -8.4979,-7.08378 -16.4383,-14.78821 -24.7664,-22.05222 -7.8905,-6.3124 1.0366,-17.47126 8.9271,-11.15886 z"
     inkscape:connector-curvature="0" />
  <path
     style="fill:#de2d26;fill-opacity:1;stroke:none"
     id="path6077"
     d="m 1322.342,199.18565 c 2.3992,8.20312 5.9576,16.04848 9.7489,23.69532 4.3651,9.02319 11.604,16.21274 18.473,23.36184 8.8049,7.79986 17.7371,15.44406 26.4021,23.40315 7.9074,7.36895 15.4427,15.09146 23.7504,22.01308 7.2213,5.94962 14.0603,12.30952 21.4115,18.09868 6.9317,6.03295 14.496,11.20871 22.051,16.41011 8.4455,5.83882 15.6806,13.28947 22.2073,21.17084 5.737,6.88716 10.4975,14.48292 15.9629,21.57451 5.2705,6.11348 11.8429,10.74454 18.2361,15.56853 5.2208,4.79958 10.4704,9.44028 16.0253,13.81988 0.403,0.23177 0.806,0.46354 1.209,0.69531 8.5844,5.33052 1.0459,17.47071 -7.5385,12.14019 l 0,0 c -0.8504,-0.54654 -1.7008,-1.09308 -2.5511,-1.63961 -5.4367,-4.34614 -10.7122,-8.7876 -15.7529,-13.60905 -7.412,-5.59427 -14.9734,-11.05515 -20.9543,-18.26169 -5.3613,-6.98018 -10.0736,-14.41723 -15.6764,-21.21423 -5.6158,-6.89756 -11.9691,-13.36269 -19.2713,-18.47441 -7.8063,-5.37499 -15.6163,-10.73696 -22.7905,-16.9551 -7.4537,-5.87424 -14.4098,-12.29949 -21.7201,-18.34878 -8.4782,-7.07541 -16.2151,-14.91435 -24.2662,-22.4646 -8.8835,-8.16221 -18.0827,-15.95417 -27.0417,-24.02881 -7.8813,-8.2116 -16.0097,-16.55158 -20.979,-26.93286 -4.056,-8.24349 -7.8937,-16.67619 -10.4925,-25.5033 -3.1954,-9.58624 10.3615,-14.10523 13.557,-4.519 z"
     inkscape:connector-curvature="0" />
  <path
     style="fill:#de2d26;fill-opacity:1;stroke:none"
     id="path6079"
     d="m 1399.4106,1323.8711 c 12.5404,-0.6348 25.0666,-0.2156 37.5338,1.1892 10.3768,0.7959 20.2541,3.9486 29.9154,7.6177 8.1553,3.1381 16.2768,6.3496 24.4604,9.4202 7.0508,2.997 14.1485,5.9716 21.4549,8.2955 7.7234,1.5653 15.3188,3.3215 22.7536,5.9615 6.4952,2.5678 12.6828,5.8522 19.1582,8.4452 6.4692,3.2386 12.8961,6.5112 19.5504,9.3759 6.4124,2.2947 10.1196,8.3292 15.5254,11.9663 3.9319,3.3845 8.6198,5.6745 13.0162,8.3988 6.2501,3.0605 11.1428,8.0797 14.8962,13.84 1.9051,2.6931 0.956,1.1994 2.7749,4.5263 4.6683,8.9618 -8.0056,15.5637 -12.6739,6.6019 l 0,0 c -0.9116,-1.9977 -0.2628,-0.7431 -2.244,-3.5943 -2.276,-4.1297 -6.1392,-7.1543 -10.2955,-9.236 -4.6717,-2.9125 -9.661,-5.3816 -13.8622,-8.9674 -4.4223,-3.3228 -7.8947,-7.7855 -12.8054,-10.4175 -6.5497,-2.8392 -12.9345,-5.9831 -19.2674,-9.2572 -6.2582,-2.5761 -12.2998,-5.6362 -18.5609,-8.2177 -7.2953,-2.5984 -14.7878,-4.127 -22.3351,-5.8199 -7.5139,-2.4321 -14.8608,-5.3975 -22.1098,-8.5235 -8.2023,-3.0834 -16.3457,-6.3012 -24.5227,-9.4437 -8.5378,-3.263 -17.2486,-6.1083 -26.4357,-6.7725 -11.3495,-1.2903 -22.7325,-1.6531 -34.1543,-1.2089 -10.0268,1.2534 -11.7993,-12.9266 -1.7725,-14.1799 z"
     inkscape:connector-curvature="0" />
  <path
     style="fill:#de2d26;fill-opacity:1;stroke:none"
     id="path6081"
     d="m 1446.9381,1246.3034 c 8.8734,8.1445 15.8669,18.0441 25.5204,25.2999 8.9226,6.0632 18.8337,10.3444 28.1601,15.7037 9.3963,5.613 17.5462,12.938 25.4855,20.3997 7.3024,7.1845 14.8187,14.1821 21.5936,21.8732 5.1813,6.6389 11.1044,12.6338 17.2004,18.4259 6.3656,5.36 11.8959,11.5789 16.8914,18.2127 3.5481,6.3082 7.9146,12.0955 13.2806,16.9566 5.4796,5.3274 11.5594,9.9871 17.2761,15.0617 5.5422,5.2004 11.2836,10.052 17.7183,14.088 5.8807,3.3784 12.1493,5.9026 18.2852,8.7572 5.4886,3.6457 11.7815,4.907 17.991,6.6516 9.0754,2.0011 16.7587,6.918 23.6143,13.0015 6.0175,5.4094 10.8941,11.9383 16.7335,17.5048 5.6696,5.1638 12.3387,9.0626 18.4995,13.5915 6.8997,5.8369 13.6334,11.8838 20.8553,17.3283 6.972,5.2361 13.7513,10.7434 19.7149,17.1169 5.6061,6.4037 9.1972,14.0262 12.4619,21.7946 3.1259,7.3228 8.1858,13.5653 12.7549,20.0194 5.3252,7.4062 11.5725,14.0692 17.8541,20.6586 8.2079,8.175 15.2026,17.4443 21.9018,26.8636 7.6786,9.8186 13.1544,21.0275 19.6,31.629 6.7057,10.261 15.159,19.2232 23.0402,28.5752 9.0029,11.7483 19.4087,22.2942 28.8476,33.674 5.6733,6.6767 10.5643,13.957 15.7051,21.0385 5.9358,8.1776 -5.6291,16.5721 -11.5649,8.3944 l 0,0 c -4.9613,-6.8361 -9.6737,-13.8699 -15.1459,-20.3176 -9.3955,-11.3619 -19.8103,-21.8488 -28.7694,-33.5804 -8.3553,-9.9147 -17.3109,-19.4218 -24.3282,-30.3681 -6.2551,-10.3172 -11.5833,-21.2124 -19.0347,-30.7695 -6.2915,-8.8692 -12.8664,-17.5976 -20.5965,-25.2802 -6.7577,-7.0926 -13.4578,-14.2813 -19.1734,-22.2616 -5.1743,-7.3118 -10.8234,-14.4214 -14.2753,-22.7634 -2.5866,-6.2258 -5.3465,-12.3583 -9.7314,-17.5636 -5.3766,-5.7967 -11.5914,-10.7074 -17.8883,-15.4677 -7.1577,-5.4419 -13.9402,-11.35 -20.7317,-17.2358 -6.6224,-4.949 -13.9152,-9.0655 -19.9292,-14.8029 -5.665,-5.5358 -10.5832,-11.7799 -16.3911,-17.1845 -5.1114,-4.7691 -11.0216,-8.3621 -17.9243,-9.8475 -6.9075,-1.9844 -13.9816,-3.4471 -20.1207,-7.4437 -6.6712,-3.1073 -13.4942,-5.8621 -19.853,-9.6101 -7.1008,-4.4624 -13.4913,-9.7688 -19.6091,-15.5059 -5.7858,-5.1414 -11.9474,-9.8546 -17.4911,-15.2565 -5.8972,-5.5366 -11.1476,-11.7571 -15.0267,-18.8968 -4.4651,-6.0463 -9.5695,-11.5742 -15.3134,-16.4305 -6.3693,-6.1147 -12.643,-12.3627 -18.0777,-19.3421 -6.4228,-7.3839 -13.7063,-13.9756 -20.6332,-20.8783 -7.13,-6.7087 -14.4141,-13.3413 -22.8308,-18.4284 -9.843,-5.6893 -20.3836,-10.1277 -29.7001,-16.7295 -10.0678,-7.7868 -17.7957,-17.7609 -26.9504,-26.5511 -7.1451,-7.1452 2.9597,-17.2499 10.1048,-10.1048 z"
     inkscape:connector-curvature="0" />
  <path
     style="fill:#de2d26;fill-opacity:1;stroke:none"
     id="path6083"
     d="m 1049.7203,1141.3786 c 8.5544,4.932 17.4013,9.3839 26.3108,13.6431 6.5978,2.3174 12.9727,5.3564 19.7665,7.0831 5.8688,1.9915 11.5763,4.4359 17.4957,6.2722 7.4969,1.336 14.0954,4.5526 20.5675,8.3938 5.467,3.9425 10.7841,8.147 15.5623,12.9073 4.1039,4.0404 8.2178,8.094 12.1046,12.3474 4.1482,3.8739 8.0324,7.9671 11.3317,12.5956 4.0039,5.6416 6.5747,12.093 9.9544,18.1064 2.5252,5.5307 6.2115,10.2834 10.0254,14.9488 1.0461,3.0042 6.5522,7.536 7.2041,10.5819 0.4105,1.9184 0.3041,3.9119 0.4561,5.8679 -2.4119,9.8127 -16.2892,6.4017 -13.8772,-3.411 l 0,0 c 2.1228,10.9376 -2.0092,-1.9348 -4.8517,-4.0002 -4.335,-5.3149 -8.4917,-10.7666 -11.4309,-17.0154 -3.1252,-5.6172 -5.5806,-11.5937 -9.2036,-16.9069 -2.837,-4.2272 -6.6309,-7.6255 -10.2202,-11.1962 -3.679,-4.1613 -7.7626,-7.9746 -11.6841,-11.9009 -3.7977,-3.9997 -8.3573,-7.2212 -12.6645,-10.6358 -5.544,-3.2905 -11.0832,-5.9901 -17.5576,-7.0495 -5.6849,-1.8043 -11.2273,-4.0173 -16.8219,-6.0786 -7.6546,-2.0373 -14.9238,-5.2524 -22.3285,-8.0211 -9.5102,-4.5609 -18.9764,-9.2892 -28.0657,-14.6417 -8.4077,-5.6051 -0.4809,-17.4954 7.9268,-11.8902 z"
     inkscape:connector-curvature="0" />
  <path
     style="fill:#fc9272;fill-opacity:1;stroke:none"
     id="path6087"
     d="m 389.45497,674.6909 c 6.39518,5.801 12.66515,11.7871 20.04178,16.34191 7.08705,3.72341 13.69474,8.16681 20.28554,12.69869 7.29579,5.3518 15.18679,9.75306 22.53342,15.04736 7.54501,5.25618 15.22324,10.32112 22.71002,15.65982 8.12654,5.46701 14.40287,12.73477 20.02207,20.64093 3.62997,6.79866 8.87192,12.40616 14.14435,17.93682 6.01045,5.65836 12.84784,10.25378 19.49046,15.10607 6.96115,4.5055 13.66052,9.39051 20.84768,13.53775 7.424,4.1978 14.1725,9.42738 21.05422,14.42707 5.49465,4.39999 10.72434,9.15484 16.32791,13.41326 5.37253,3.9902 11.26562,7.5 17.42855,10.1434 5.50808,1.88803 10.91128,4.09185 16.18136,6.57041 6.63761,3.73278 11.30224,9.80338 16.32593,15.33793 4.56129,5.47267 8.54386,11.37925 12.64033,17.20075 3.08836,5.50662 7.38378,10.14815 10.64872,15.52653 4.21126,4.69458 5.22676,10.78215 7.27935,16.47131 0.94277,4.15394 2.57959,4.68624 6.31547,5.48485 2.43264,0.51137 1.31082,0.25817 3.36856,0.74575 9.82918,2.34387 6.51445,16.24443 -3.31473,13.90056 l 0,0 c -1.90621,-0.45833 -0.71303,-0.18041 -3.58729,-0.79973 -7.93292,-2.18445 -14.11283,-6.30923 -16.30006,-14.69728 -1.62818,-4.90334 -2.45969,-9.84569 -6.06914,-13.84391 -2.87863,-5.14136 -7.34009,-9.2732 -10.02863,-14.56558 -3.76241,-5.34923 -7.41896,-10.77094 -11.55407,-15.8409 -3.75032,-4.16394 -7.21477,-8.68493 -11.80689,-11.98904 -5.16246,-2.42856 -10.45544,-4.55443 -15.85156,-6.42036 -7.16562,-3.20531 -14.11036,-7.14293 -20.36871,-11.88237 -5.48103,-4.22891 -10.69473,-8.81104 -16.0453,-13.20216 -6.47593,-4.7223 -12.83284,-9.65096 -19.81833,-13.62159 -7.59962,-4.43358 -14.75711,-9.53031 -22.10576,-14.35941 -7.32407,-5.3562 -14.86153,-10.44835 -21.40537,-16.78703 -5.73199,-6.02203 -11.45593,-12.15856 -15.45085,-19.52255 -4.69069,-6.62032 -9.82245,-12.74665 -16.67224,-17.28147 -7.50076,-5.36325 -15.2141,-10.42432 -22.77329,-15.70525 -7.24517,-5.24625 -15.08091,-9.53754 -22.26606,-14.85888 -6.44672,-4.43807 -12.89814,-8.77252 -19.84178,-12.4054 -8.1605,-5.27495 -15.42603,-11.65189 -22.49044,-18.30348 -7.14516,-7.14516 2.95962,-17.24994 10.10478,-10.10478 z"
     inkscape:connector-curvature="0" />
  <path
     style="fill:#de2d26;fill-opacity:1;stroke:none"
     id="path6089"
     d="m 696.95024,905.70668 c -5.82055,6.65973 -11.72143,13.13779 -18.26127,19.10153 -4.35652,4.05338 -8.01977,8.55135 -11.27861,13.51254 -1.1123,3.42241 -3.4327,6.61954 -4.03534,10.17749 -3.8634,-2.34187 -8.20779,-4.03069 -11.5902,-7.02561 -0.60479,-0.53551 1.09661,-1.18842 1.59943,-1.82064 0.33664,-0.42328 0.60383,-0.89751 0.91447,-1.34023 1.69703,-2.41852 3.16595,-4.89841 4.70481,-7.42376 2.91186,-4.30651 6.87882,-7.75127 10.87485,-11.0157 7.87445,-6.33242 16.82984,4.80374 8.95539,11.13616 l 0,0 c -2.76693,2.17219 -5.47117,4.53295 -7.62783,7.31689 -0.61158,1.0032 -7.56186,12.21026 -8.25142,12.0608 -4.67396,-1.01312 -9.09072,-2.97459 -13.63609,-4.46188 1.11013,-5.45816 3.90445,-10.51312 6.19922,-15.52668 3.9539,-5.87532 8.33063,-11.33075 13.54527,-16.15121 5.99114,-5.45707 11.38774,-11.37767 16.72846,-17.46679 6.3124,-7.8905 17.47126,1.03659 11.15886,8.92709 z"
     inkscape:connector-curvature="0" />
  <path
     style="fill:#fee0d2;fill-opacity:1;stroke:none"
     id="path6091"
     d="m 911.33757,2722.5107 c 3.06533,9.1562 3.50457,18.7228 3.61324,28.2857 0.42345,9.3487 -2.41362,18.2837 -4.71861,27.2153 -2.59351,7.9915 -4.97586,16.036 -8.19775,23.8028 -3.10873,7.0603 -6.13685,14.1407 -8.95166,21.327 -3.035,6.8683 -5.9418,13.833 -8.22163,20.9934 -2.77253,6.4728 -4.48606,13.1991 -5.36679,20.1626 -1.20125,6.7153 -3.62957,13.0808 -5.52623,19.6028 -1.68101,7.4622 -4.18229,14.736 -7.58406,21.5827 -2.68729,5.2244 -5.77712,10.2256 -8.49307,15.4357 -4.68979,8.9506 -17.34778,2.3182 -12.658,-6.6323 l 0,0 c 2.71149,-5.1528 5.72737,-10.1337 8.41998,-15.2943 3.16603,-5.9647 5.00868,-12.5748 6.6011,-19.109 1.7113,-5.8068 3.82656,-11.4764 5.06797,-17.4183 1.02819,-7.8106 2.82696,-15.4334 5.93488,-22.7046 2.40939,-7.4323 5.33726,-14.7083 8.5232,-21.8391 2.86251,-7.2818 5.92359,-14.4665 9.07234,-21.6247 3.01193,-7.1143 5.07673,-14.5461 7.54338,-21.858 1.99291,-7.7115 4.61372,-15.4142 4.26547,-23.4875 -0.0905,-8.8633 -0.55337,-17.6089 -3.41964,-26.0909 -1.66121,-9.9673 12.43466,-12.3166 14.09588,-2.3493 z"
     inkscape:connector-curvature="0" />
  <path
     style="fill:#fee0d2;fill-opacity:1;stroke:none"
     id="path6093"
     d="m 849.72871,2913.7431 c 6.74973,6.3877 12.93381,13.4373 18.28346,21.0427 3.92807,4.8053 7.22941,10.1965 11.63045,14.5981 4.91208,4.7169 11.11334,7.7356 16.79956,11.3886 6.17025,3.4805 11.55913,8.1634 17.98111,11.1989 5.34017,2.9957 10.59226,6.1399 15.75759,9.4183 5.49076,3.0687 10.0351,7.2898 13.84902,12.244 3.99904,4.1189 6.07662,9.5948 9.61567,14.04 4.19061,4.8828 9.08632,9.0019 14.46285,12.5076 7.01468,4.5336 13.92964,9.227 21.00894,13.6593 6.45987,3.9275 12.91004,7.9824 19.61194,11.4829 2.9827,1.9537 1.7472,1.0985 3.7418,2.5139 8.23,5.8629 -0.061,17.5019 -8.2914,11.639 l 0,0 c -1.2784,-0.9155 -0.5572,-0.4016 -2.1659,-1.5388 -6.95963,-3.7543 -13.77756,-7.8219 -20.49688,-11.9955 -7.16315,-4.5112 -14.1904,-9.2368 -21.2931,-13.8425 -6.67162,-4.4616 -12.85117,-9.5777 -17.97223,-15.8009 -3.39743,-4.6126 -5.8511,-9.8254 -9.67466,-14.1185 -2.62914,-3.7392 -6.20783,-6.5475 -10.16264,-8.7949 -4.59937,-3.0762 -9.48716,-5.7293 -14.23979,-8.5622 -6.88253,-3.4104 -12.9044,-8.0922 -19.47035,-12.0366 -6.60339,-4.2658 -13.79233,-7.7947 -19.35016,-13.4851 -4.79244,-5.0823 -8.81,-10.8139 -13.06442,-16.3428 -4.50454,-6.536 -9.88301,-12.4588 -15.48795,-18.0567 -7.8905,-6.3124 1.03659,-17.4712 8.92709,-11.1588 z"
     inkscape:connector-curvature="0" />
  <path
     style="fill:#fee0d2;fill-opacity:1;stroke:none"
     id="path6095"
     d="m 563.88617,2606.7988 c 11.27122,-0.516 22.44289,0.9942 33.61867,2.1927 8.71014,0.6659 17.22838,2.7445 25.57235,5.2382 7.30518,2.4954 14.72923,4.393 22.19658,6.3124 12.1956,2.4045 24.43116,4.6433 36.63183,7.0588 12.0118,2.5905 23.8362,5.9636 35.80901,8.6961 10.40463,2.0561 20.76158,4.1178 31.31779,5.234 4.29247,0.4147 8.60051,0.6157 12.90599,0.834 10.09178,0.5124 9.3672,14.7843 -0.72458,14.2719 l 0,0 c -4.56824,-0.2322 -9.13898,-0.4501 -13.69293,-0.8958 -11.12096,-1.1894 -22.04136,-3.3307 -33.00099,-5.5155 -11.82928,-2.7254 -23.52474,-6.0138 -35.39017,-8.6066 -12.46917,-2.4696 -24.97888,-4.7333 -37.4336,-7.2417 -7.63299,-1.9875 -15.23591,-3.9248 -22.71268,-6.4562 -7.50605,-2.2455 -15.15999,-4.1582 -23.00257,-4.7207 -10.67103,-1.1447 -21.33121,-2.6307 -32.0947,-2.1113 -10.10477,0 -10.10477,-14.2903 0,-14.2903 z"
     inkscape:connector-curvature="0" />
  <path
     style="fill:#fee0d2;fill-opacity:1;stroke:none"
     id="path6097"
     d="m 611.05451,2615.1897 c 5.72109,6.2288 11.52573,12.3863 17.54618,18.3296 4.37482,4.8042 9.0728,9.2749 13.32757,14.1898 4.86262,5.5133 8.7703,11.7838 12.79207,17.9159 2.9511,4.5656 6.78156,7.865 11.15414,10.9673 5.57147,3.4334 12.03281,4.1626 17.81768,7.1602 6.01604,3.6432 11.61826,7.9842 16.77507,12.7591 6.51089,5.7549 10.82925,13.1124 14.7264,20.745 3.38956,7.1559 5.60033,14.7762 8.28904,22.1996 1.61773,6.0915 3.97049,11.7048 7.13361,17.114 3.58256,4.7176 7.39128,9.2319 11.38454,13.6106 6.55322,6.1263 11.68745,13.4256 17.15176,20.4666 4.50642,6.2724 8.67319,12.7899 12.71994,19.367 4.64042,7.7044 10.70877,14.3546 15.75871,21.7752 6.02217,7.3626 8.56748,16.2483 11.68832,24.9812 2.22415,6.1841 3.39666,12.6438 5.79759,18.77 2.55727,6.5532 5.12289,13.2305 9.55371,18.7638 4.81096,5.6555 10.30394,10.619 15.22231,16.1757 5.45909,6.0837 10.48124,12.5145 15.70765,18.7924 3.5861,3.9833 8.10074,6.687 12.77625,9.1649 2.4026,1.2078 4.98559,1.9696 7.50858,2.8749 9.51086,3.4133 4.68382,16.8637 -4.82703,13.4504 l 0,0 c -3.16214,-1.1349 -6.38486,-2.1357 -9.37339,-3.6987 -6.3203,-3.3497 -12.29452,-7.2403 -17.07539,-12.6585 -5.12227,-6.1774 -10.07225,-12.4783 -15.42418,-18.4617 -5.12121,-5.8035 -10.91465,-10.9374 -15.84115,-16.9258 -5.08991,-6.7848 -8.67368,-14.3996 -11.57048,-22.3613 -2.36914,-6.2796 -3.81221,-12.7891 -5.93433,-19.142 -2.64955,-7.6185 -4.74221,-15.3349 -10.0436,-21.7164 -5.12412,-7.6236 -11.4639,-14.3523 -16.10655,-22.3149 -3.75654,-6.1532 -7.67978,-12.2165 -11.84544,-18.0995 -5.20213,-6.759 -10.12468,-13.7242 -16.40602,-19.5783 -4.66005,-5.1179 -9.12876,-10.3864 -13.15781,-16.022 -3.60388,-6.1631 -6.36778,-12.5854 -8.24545,-19.4935 -2.45347,-6.8685 -4.5421,-13.884 -7.56864,-20.5356 -3.1385,-6.1477 -6.43255,-12.1718 -11.73567,-16.7832 -4.29544,-4.0249 -9.00103,-7.6293 -13.99881,-10.7384 -5.65671,-3.8181 -13.92648,-2.9466 -19.13921,-7.9951 -5.80834,-4.1392 -10.87794,-8.7924 -14.83237,-14.7921 -3.65553,-5.6098 -7.22532,-11.3428 -11.64256,-16.3911 -4.00814,-4.6438 -8.4618,-8.8408 -12.57712,-13.3865 -6.38609,-6.3523 -12.60944,-12.8642 -18.64477,-19.5515 -6.31241,-7.8905 4.84645,-16.8176 11.15885,-8.9271 z"
     inkscape:connector-curvature="0" />
  <path
     style="fill:#fee0d2;fill-opacity:1;stroke:none"
     id="path6099"
     d="m 1024.7488,1274.2271 c 12.1888,0.2863 22.7753,5.1231 32.5019,12.0847 7.3514,6.3735 14.9022,12.5154 22.2697,18.8743 7.314,5.9835 13.6368,12.9642 18.2976,21.1838 1.9965,4.4072 4.6993,8.2619 7.5529,12.1202 3.0351,4.5857 5.6366,9.5042 8.8375,13.9752 3.3718,4.2706 8.3881,6.8273 12.9179,9.7175 0.8306,0.4517 1.6612,0.9034 2.4918,1.3552 8.8514,4.8743 1.958,17.3921 -6.8934,12.5177 l 0,0 c -1.0955,-0.6089 -2.191,-1.2179 -3.2865,-1.8269 -6.1228,-3.9089 -12.655,-7.5672 -16.9599,-13.6014 -3.0343,-4.441 -5.7569,-9.1148 -8.6147,-13.6641 -3.228,-4.4084 -6.3005,-8.8492 -8.6286,-13.8199 -3.3172,-6.9139 -9.452,-12.1161 -15.0536,-17.1409 -7.0558,-6.0943 -14.3135,-11.949 -21.3071,-18.1127 -7.217,-5.2942 -14.9783,-9.074 -24.1255,-9.3723 -10.1048,0 -10.1048,-14.2904 0,-14.2904 z"
     inkscape:connector-curvature="0" />
  <path
     style="fill:#fee0d2;fill-opacity:1;stroke:none"
     id="path6101"
     d="m 1144.476,546.64254 c 8.5941,4.0489 17.8106,6.16946 26.8887,8.74644 7.5084,2.31137 15.2839,3.36733 22.9082,5.19771 6.8915,1.51097 13.8682,2.16868 20.7549,3.70543 6.3021,1.04428 12.8528,2.71381 19.2705,1.96301 6.2542,-1.22439 12.5538,-2.04429 18.9063,-2.51936 7.1639,-0.43299 14.3441,-0.44702 21.5184,-0.47038 6.657,-0.42874 13.4934,0.73406 20.0908,-0.3526 5.5179,-0.67602 10.6541,-2.45524 15.9192,-4.09668 0.5168,-0.26313 1.0336,-0.52625 1.5504,-0.78938 9.1665,-4.25221 15.18,8.71121 6.0135,12.96343 l 0,0 c -1.1102,0.4916 -2.2204,0.9832 -3.3305,1.4748 -6.0198,1.85568 -11.9544,3.81677 -18.2444,4.61016 -7.2853,0.86545 -14.6257,0.34957 -21.9527,0.48051 -6.8379,0.0221 -13.6813,0.0316 -20.51,0.43148 -6.3261,0.46264 -12.5695,1.40127 -18.8126,2.51211 -7.9106,0.4924 -15.7901,-0.62404 -23.5316,-2.25991 -6.9554,-1.55254 -14.0287,-2.13367 -20.9795,-3.75746 -7.8171,-1.87834 -15.7987,-2.94267 -23.4907,-5.35066 -9.2681,-2.65802 -18.7126,-4.78049 -27.4879,-8.93167 -9.5862,-3.19541 -5.0672,-16.7524 4.519,-13.55698 z"
     inkscape:connector-curvature="0" />
  <path
     style="fill:#fee0d2;fill-opacity:1;stroke:none"
     id="path6103"
     d="m 191.53353,676.07036 c 7.64388,4.11986 15.65821,5.62411 24.21363,5.86113 7.60586,-0.033 15.20571,-0.38024 22.80895,-0.56111 7.70203,-0.64856 15.22308,0.26327 22.79966,1.52379 6.27871,0.67305 12.77899,2.21008 19.10034,1.3445 2.98321,-0.54196 1.66224,-0.22121 3.9829,-0.87586 9.76987,-2.57996 13.41849,11.23672 3.64862,13.81668 l 0,0 c -3.86263,0.98118 -1.79552,0.535 -6.21386,1.279 -7.64877,0.62057 -15.29564,-0.29352 -22.86354,-1.46781 -6.70226,-1.11534 -13.28976,-1.98684 -20.11464,-1.33402 -7.86339,0.18664 -15.72343,0.5577 -23.58997,0.55832 -10.60226,-0.35576 -20.68811,-2.34002 -30.16291,-7.36297 -9.03799,-4.519 -2.64717,-17.30064 6.39082,-12.78165 z"
     inkscape:connector-curvature="0" />
  <path
     style="fill:#fee0d2;fill-opacity:1;stroke:none"
     id="path6105"
     d="m 421.86171,269.78776 c -5.32436,8.25894 -12.2811,15.13632 -20.05918,21.0561 -4.72017,3.8697 -9.06353,8.29895 -12.99013,12.97896 -4.10043,4.83757 -8.86401,8.76789 -14.07618,12.34518 -5.00369,2.9505 -10.1568,5.82654 -13.82368,10.42647 -4.81005,6.06971 -8.85445,12.66297 -13.52989,18.83616 -5.60155,7.40736 -12.53204,13.63155 -19.39163,19.83681 -5.58998,5.10903 -10.93858,10.45591 -16.92299,15.12292 -4.66812,4.31691 -9.79523,7.97285 -14.89266,11.72943 -4.31093,3.65944 -7.92236,7.89056 -12.29421,11.49558 -7.80239,6.421 -16.88305,-4.61325 -9.08066,-11.03424 l 0,0 c 4.57858,-3.76165 8.23188,-8.41423 12.97292,-12.02077 5.02906,-3.61946 9.95932,-7.29126 14.5606,-11.48062 5.74785,-4.38006 10.70917,-9.63039 16.08984,-14.42751 6.21784,-5.57939 12.48074,-11.20476 17.57575,-17.86101 4.8385,-6.36002 8.95228,-13.21605 13.99856,-19.42115 4.70579,-5.3962 10.34384,-9.5965 16.65532,-12.98691 4.1849,-2.86811 8.04259,-5.89703 11.29248,-9.84117 4.67789,-5.41143 9.64838,-10.66861 15.26295,-15.11578 6.90597,-5.1215 12.81,-11.32966 17.49393,-18.56554 6.31241,-7.8905 17.47127,1.03659 11.15886,8.92709 z"
     inkscape:connector-curvature="0" />
  <path
     style="fill:#fee0d2;fill-opacity:1;stroke:none"
     id="path6107"
     d="m 88.789896,842.11131 c -2.197931,8.38758 -0.691934,16.32679 0.982042,24.5977 1.692635,7.46891 6.159123,13.28525 11.521002,18.5054 6.90334,6.12781 13.02844,13.03695 18.18862,20.67801 4.90951,7.97129 8.46681,16.59876 11.8292,25.30102 2.51332,8.1747 6.13117,15.94417 9.48908,23.79207 4.123,8.74164 9.58333,16.78829 14.96037,24.79515 8.09107,10.98688 18.02548,20.45164 27.34887,30.37564 8.03912,8.3216 15.00932,17.5776 22.57735,26.3164 6.49479,7.0115 12.89174,14.1163 19.42792,21.0843 -5.79508,-2.7955 5.20774,4.6164 3.50505,4.066 -0.6233,-0.2014 -0.98703,-0.8614 -1.48055,-1.2922 9.27299,4.0148 3.59527,17.1288 -5.67772,13.114 l 0,0 c -2.80404,-1.7682 -4.94948,-3.3166 -6.78459,-6.1274 -6.64087,-7.1212 -13.19928,-14.3229 -19.7944,-21.4916 -7.43814,-8.5955 -14.30093,-17.6881 -22.18823,-25.885 -9.85394,-10.4894 -20.35044,-20.49913 -28.79959,-32.19688 -5.86814,-8.74955 -11.80883,-17.55061 -16.23394,-27.1399 -3.42144,-8.00669 -7.11296,-15.93489 -9.68345,-24.27034 -2.96964,-7.72283 -6.09054,-15.3795 -10.37019,-22.49131 -4.55549,-6.88024 -10.188989,-12.9449 -16.33724,-18.44249 -7.345577,-7.2895 -13.243568,-15.55704 -15.504481,-25.85904 -2.005736,-9.93113 -3.529853,-19.73336 -1.071001,-29.77885 1.661215,-9.96729 15.757093,-7.61797 14.095878,2.34932 z"
     inkscape:connector-curvature="0" />
  <path
     style="fill:#fee0d2;fill-opacity:1;stroke:none"
     id="path6109"
     d="m 140.86677,472.58393 c -5.10498,9.16658 -9.64122,18.63387 -15.00633,27.65375 -4.54309,8.81065 -10.47269,16.69128 -16.89693,24.19142 -7.03859,5.85036 -12.702292,12.78578 -18.344405,19.92669 -6.544539,8.09872 -12.827108,16.40413 -18.864566,24.88637 -4.61232,6.22712 -9.105068,12.49185 -13.120241,19.11291 1.138307,-4.68879 0.09664,-2.14626 -2.057806,-7.1292 -0.117622,-0.27204 0.590988,-0.0635 0.887303,-0.0572 1.842597,0.0392 3.683008,0.15518 5.525579,0.19554 9.657134,0.44469 17.736898,5.68643 25.679447,10.65736 4.114348,2.77572 8.815201,4.32179 13.373529,6.16478 9.36698,3.79026 4.00675,17.03718 -5.360242,13.24692 l 0,0 c -5.332687,-2.15969 -10.794143,-4.06845 -15.60852,-7.30693 -5.715531,-3.59664 -11.518016,-7.82772 -18.423058,-8.47583 -9.201116,-0.23236 -21.967781,-1.23588 -16.232407,-14.71014 4.202464,-6.91709 8.87101,-13.48122 13.694203,-19.98503 6.175978,-8.67643 12.603244,-17.17183 19.294037,-25.45884 5.748553,-7.27562 11.495561,-14.46561 18.712011,-20.37307 5.908806,-6.87291 11.329246,-14.10345 15.469956,-22.2075 5.20884,-8.70061 9.52903,-17.88541 14.49679,-26.72279 4.519,-9.03799 17.30064,-2.64717 12.78165,6.39082 z"
     inkscape:connector-curvature="0" />
  <path
     style="fill:#fee0d2;fill-opacity:1;stroke:none"
     id="path6111"
     d="m 1879.8393,498.35998 c -5.2951,9.06096 -11.2474,17.70951 -16.4909,26.80141 -3.9636,8.20995 -6.751,16.85897 -9.315,25.58367 -2.1455,8.28598 -4.6041,16.49033 -7.2462,24.63111 -2.9947,7.94281 -6.3842,15.72468 -10.6499,23.06763 -4.8578,7.01465 -9.5159,14.11864 -13.1347,21.85708 -3.7358,7.86048 -6.8866,15.92804 -10.6401,23.78584 -3.9085,6.98393 -7.2531,14.21046 -10.4947,21.51384 -1.1821,3.70007 -3.1616,6.94447 -5.3464,10.11096 -5.908,8.19771 -17.5013,-0.15741 -11.5933,-8.35513 l 0,0 c 1.7947,-2.25781 2.9382,-4.82958 3.8813,-7.56013 3.3027,-7.4188 6.6767,-14.77892 10.659,-21.87022 3.744,-7.83433 6.8691,-15.88851 10.6099,-23.72238 3.8466,-8.09537 8.543,-15.6738 13.7285,-22.98296 3.8024,-6.42315 6.6701,-13.31543 9.3881,-20.25611 2.602,-8.01665 5.0234,-16.09448 7.1302,-24.25635 2.8931,-9.8056 6.0569,-19.53263 10.6521,-28.69996 5.415,-9.34347 11.4905,-18.27159 16.9719,-27.57514 5.6051,-8.40768 17.4953,-0.48084 11.8902,7.92684 z"
     inkscape:connector-curvature="0" />
  <path
     style="fill:#fee0d2;fill-opacity:1;stroke:none"
     id="path6113"
     d="m 150.21441,663.84083 c 8.87102,2.4491 17.82543,4.43568 26.95042,5.63287 7.54809,0.98528 14.01343,4.13826 20.20022,8.36689 1.89387,1.30737 5.65678,6.18621 8.66018,5.01334 10.07313,0.79906 8.94309,15.04462 -1.13004,14.24556 l 0,0 c -5.96943,-0.77599 -11.46803,-2.84998 -15.59391,-7.46108 -4.34469,-2.96959 -8.62502,-5.36244 -14.01005,-5.99775 -9.27544,-1.23542 -18.4301,-3.10519 -27.42613,-5.70396 -9.96729,-1.66121 -7.61798,-15.75709 2.34931,-14.09587 z"
     inkscape:connector-curvature="0" />
  <path
     style="fill:#fee0d2;fill-opacity:1;stroke:none"
     id="path6115"
     d="m 123.00388,947.73683 c -3.67984,8.32129 -8.12994,16.32814 -13.54018,23.64771 -1.63022,4.56589 -8.71823,7.99971 -10.157097,12.32029 -5.092879,8.7275 -17.435416,1.52508 -12.342536,-7.20241 l 0,0 c 3.186134,-4.9907 7.757707,-8.77987 11.070243,-13.69588 5.01669,-6.53872 8.78186,-13.9859 12.18792,-21.46053 4.519,-9.03799 17.30064,-2.64717 12.78165,6.39082 z"
     inkscape:connector-curvature="0" />
  <path
     style="fill:#fee0d2;fill-opacity:1;stroke:none"
     id="path6119"
     d="m 318.0034,156.66706 c 6.90738,7.10978 14.69798,13.28264 21.8043,20.17754 6.34596,5.88395 11.10156,13.01587 15.57652,20.3472 2.94768,5.38841 6.42784,10.36875 10.05164,15.30529 3.2126,3.12966 7.01263,5.75647 10.92517,7.97607 5.156,3.14424 9.63171,7.23573 14.73387,10.45012 4.68049,3.7488 10.078,6.34506 14.89244,9.90447 3.07372,2.53797 6.21429,4.83014 9.54395,7.00658 8.44992,5.54125 0.61341,17.49124 -7.83651,11.94999 l 0,0 c -3.60393,-2.37292 -7.00374,-4.88578 -10.35802,-7.58202 -4.36745,-3.50171 -9.73045,-5.53732 -13.95992,-9.2522 -4.8819,-3.1733 -9.31648,-6.92328 -14.18218,-10.11344 -5.5626,-3.27165 -11.03815,-6.99984 -15.28998,-11.8989 -3.85013,-5.2777 -7.56881,-10.60019 -10.73532,-16.32906 -3.82187,-6.33504 -7.86565,-12.4756 -13.34372,-17.53808 -7.09816,-6.98064 -15.03233,-13.09479 -21.92701,-20.29878 -7.14516,-7.14516 2.95962,-17.24994 10.10477,-10.10478 z"
     inkscape:connector-curvature="0" />
</svg>
