<?xml version="1.0" encoding="UTF-8" standalone="no"?>
<!-- Created with Inkscape (http://www.inkscape.org/) -->

<svg
   xmlns:dc="http://purl.org/dc/elements/1.1/"
   xmlns:cc="http://creativecommons.org/ns#"
   xmlns:rdf="http://www.w3.org/1999/02/22-rdf-syntax-ns#"
   xmlns:svg="http://www.w3.org/2000/svg"
   xmlns="http://www.w3.org/2000/svg"
   xmlns:xlink="http://www.w3.org/1999/xlink"
   xmlns:sodipodi="http://sodipodi.sourceforge.net/DTD/sodipodi-0.dtd"
   xmlns:inkscape="http://www.inkscape.org/namespaces/inkscape"
   id="svg2"
   version="1.1"
   inkscape:version="0.48.4 r9939"
   width="1804"
   height="2996"
   sodipodi:docname="27413-77.png">
  <metadata
     id="metadata8">
    <rdf:RDF>
      <cc:Work
         rdf:about="">
        <dc:format>image/svg+xml</dc:format>
        <dc:type
           rdf:resource="http://purl.org/dc/dcmitype/StillImage" />
        <dc:title></dc:title>
      </cc:Work>
    </rdf:RDF>
  </metadata>
  <defs
     id="defs6" />
  <sodipodi:namedview
     pagecolor="#ffffff"
     bordercolor="#666666"
     borderopacity="1"
     objecttolerance="10"
     gridtolerance="10"
     guidetolerance="10"
     inkscape:pageopacity="0"
     inkscape:pageshadow="2"
     inkscape:window-width="1366"
     inkscape:window-height="744"
     id="namedview4"
     showgrid="false"
     inkscape:zoom="0.63017356"
     inkscape:cx="847.62377"
     inkscape:cy="248.90491"
     inkscape:window-x="0"
     inkscape:window-y="24"
     inkscape:window-maximized="1"
     inkscape:current-layer="layer1" />
  <image
     width="1804"
     height="2996"
     xlink:href="file:///Users/juls/Documents/UUlm/Projects/2013/BrokenInterfaces/GIT%20Repo/brokenInterface/public-dataset/input/cropped-display/27413-77.png"
     id="image10"
     x="0"
     y="0" />
  <g
     inkscape:groupmode="layer"
     id="layer1"
     inkscape:label="Layer">
    <path
       style="fill:#fee0d2;fill-opacity:1;fill-rule:nonzero;stroke:none"
       id="g2"
       d="m 1099.6864,2731.5318 c 2.5099,2.2243 5.1351,4.3124 7.6615,6.5187 1.7809,1.3586 3.56,2.774 5.1126,4.3941 1.3641,0.5478 2.6952,1.5875 3.9715,2.4529 1.7515,1.2668 3.5425,2.5259 5.492,3.4738 2.1357,0.8498 4.2369,1.7995 6.3025,2.8151 2.0994,0.6746 4.2105,1.3124 6.3043,2.0207 1.7473,0.4286 3.3966,1.0891 5.0753,1.7235 1.2911,0.5057 2.7136,0.5282 4.0832,0.5804 2.7784,0.5239 5.544,1.0367 8.355,1.3582 2.5708,0.1353 4.9871,1.0732 7.5177,1.4657 2.6191,0.1219 5.1185,0.9317 7.6824,1.398 3.5399,0.8076 7.0226,1.8551 10.5665,2.6397 3.618,1.2346 7.4151,1.7288 11.1001,2.6684 2.5049,0.6039 4.8869,1.5377 7.2948,2.4276 2.5275,1.0467 4.8977,2.3779 7.2803,3.7093 2.9857,1.8153 6.1337,3.3327 9.1134,5.1576 2.8078,1.8488 5.504,3.8651 8.3203,5.701 2.9545,1.9644 5.525,4.4428 8.2476,6.714 1.9027,1.577 3.7292,3.241 5.52,4.9428 1.364,1.4926 2.9753,2.6894 4.403,4.1094 1.3462,0.7212 2.4625,1.64 3.3419,2.9046 3.2747,4.2089 -7.0992,4.3213 -7.0475,1.7209 0,0 7.974,0.2359 7.974,0.2359 l 0,0 c -0.1218,3.4906 -9.4445,-0.5095 -7.7342,2.1849 0.4565,0.4889 0.1427,0.195 1.0339,0.771 0.1527,0.1466 -0.3781,-0.1901 -0.5634,-0.2924 -0.9458,-0.5225 -1.8454,-1.1208 -2.6498,-1.847 -1.3901,-1.3812 -2.9858,-2.5311 -4.3051,-3.9923 -1.6372,-1.5801 -3.3569,-3.0664 -5.1062,-4.5211 -2.5189,-2.0594 -4.856,-4.3503 -7.5452,-6.1781 -2.7456,-1.8111 -5.3898,-3.7732 -8.1415,-5.575 -2.8707,-1.7954 -5.9504,-3.2198 -8.8202,-5.0191 -2.0102,-1.1433 -3.9902,-2.3014 -6.1255,-3.2078 -2.1484,-0.8067 -4.2698,-1.6314 -6.5184,-2.1407 -3.5887,-0.9605 -7.3534,-1.2899 -10.8707,-2.5762 -3.434,-0.7997 -6.826,-1.7705 -10.2455,-2.6257 -2.5061,-0.4775 -4.9331,-1.2613 -7.4962,-1.3756 -2.3899,-0.402 -4.6915,-1.2035 -7.1049,-1.4021 -2.6388,-0.2791 -5.2726,-0.6503 -7.8393,-1.3427 -2.2527,-0.1144 -4.5345,-0.2854 -6.6486,-1.143 -1.5479,-0.6221 -3.0395,-1.2017 -4.6861,-1.5588 -2.4451,-0.8036 -4.9161,-1.5083 -7.3148,-2.4329 -2.0928,-1.0334 -4.2208,-1.9814 -6.3853,-2.8575 -2.2413,-1.1628 -4.3983,-2.5015 -6.4095,-4.0304 -1.7275,-1.2034 -3.5538,-2.2435 -5.2131,-3.5364 -1.3629,-1.4445 -3.0297,-2.5965 -4.5885,-3.817 -2.409,-2.0573 -4.9138,-4.0169 -7.2019,-6.2063 0,0 4.8076,-6.4101 4.8076,-6.4101 z"
       inkscape:connector-curvature="0"
       inkscape:label="#path2988" />
  </g>
</svg>
