<?xml version="1.0" encoding="UTF-8" standalone="no"?>
<!-- Created with Inkscape (http://www.inkscape.org/) -->

<svg
   xmlns:dc="http://purl.org/dc/elements/1.1/"
   xmlns:cc="http://creativecommons.org/ns#"
   xmlns:rdf="http://www.w3.org/1999/02/22-rdf-syntax-ns#"
   xmlns:svg="http://www.w3.org/2000/svg"
   xmlns="http://www.w3.org/2000/svg"
   xmlns:xlink="http://www.w3.org/1999/xlink"
   xmlns:sodipodi="http://sodipodi.sourceforge.net/DTD/sodipodi-0.dtd"
   xmlns:inkscape="http://www.inkscape.org/namespaces/inkscape"
   id="svg2"
   version="1.1"
   inkscape:version="0.48.2 r9819"
   width="843"
   height="1521"
   sodipodi:docname="27413-39.svg">
  <metadata
     id="metadata8">
    <rdf:RDF>
      <cc:Work
         rdf:about="">
        <dc:format>image/svg+xml</dc:format>
        <dc:type
           rdf:resource="http://purl.org/dc/dcmitype/StillImage" />
        <dc:title />
      </cc:Work>
    </rdf:RDF>
  </metadata>
  <defs
     id="defs6" />
  <sodipodi:namedview
     pagecolor="#ffffff"
     bordercolor="#666666"
     borderopacity="1"
     objecttolerance="10"
     gridtolerance="10"
     guidetolerance="10"
     inkscape:pageopacity="0"
     inkscape:pageshadow="2"
     inkscape:window-width="1920"
     inkscape:window-height="1152"
     id="namedview4"
     showgrid="false"
     inkscape:zoom="1.2412886"
     inkscape:cx="235.71841"
     inkscape:cy="1336.6393"
     inkscape:window-x="1280"
     inkscape:window-y="0"
     inkscape:window-maximized="1"
     inkscape:current-layer="svg2" />
  <image
     width="843"
     height="1521"
     xlink:href="file:///Users/juls/Documents/UUlm/Projects/2013/BrokenInterfaces/GIT%20Repo/brokenInterface/public-dataset/input/cropped-display/27413-39.png"
     id="image10"
     x="0"
     y="0" />
  <g
     inkscape:groupmode="layer"
     id="layer1"
     inkscape:label="Layer">
    <g
       id="g1"
       inkscape:label="#g3002">
      <path
         inkscape:connector-curvature="0"
         d="m -7.7725206,176.40082 c 0.3339009,-2.65149 0.8993578,-5.25646 1.3812895,-7.8825 0.4163801,-2.66176 1.1046624,-5.26593 1.5342227,-7.92691 0.6573156,-2.08348 0.9807338,-4.2389 1.4709783,-6.35947 0.4245612,-2.14746 1.0350774,-4.23092 1.6418926,-6.33084 0.4719228,-1.4529 0.5261001,-2.97954 0.5809185,-4.49229 0.050275,-2.04589 0.037158,-4.09263 0.033826,-6.13894 -0.2158678,-2.20854 0.31469647,-4.32364 0.74609041,-6.46341 0.27525485,-1.24094 0.33571261,-2.50902 0.36941072,-3.77477 0.02773365,-1.56374 0.02245425,-3.12779 0.01999672,-4.6917 -0.32114413,-1.38049 -0.17602601,-2.89901 -0.10896491,-4.3378 -0.10096691,-1.7196 0.47503271,-3.32858 0.89331865,-4.96441 0.29744281,-1.73212 0.28829751,-3.49017 0.50080621,-5.23322 0.2489374,-2.5462 0.9962074,-4.98265 1.6759382,-7.43529 0.2806126,-1.377661 0.4905432,-2.735096 1.0137215,-4.048949 0.4245259,-1.535788 0.9486107,-3.036765 1.2722388,-4.600696 0.1978522,-1.9357 0.7237985,-3.805343 1.2532432,-5.671024 0.2489156,-0.901097 0.2973478,-1.829494 0.3236628,-2.758109 -0.098021,-2.962608 0.503058,-5.869678 1.0924046,-8.75554 0.4410445,-2.7821 1.081865,-5.512052 1.9625346,-8.187078 0.3588,-1.006799 0.346696,-2.057735 0.368672,-3.111681 -0.137854,-3.71374 0.457086,-7.375518 1.065826,-11.023426 0.481332,-2.928557 0.910817,-5.868574 1.134639,-8.829115 0.223457,-2.624105 0.821158,-5.213029 1.299322,-7.803327 0.487369,-3.365382 1.309701,-6.668825 1.854349,-10.025013 0.277839,-1.94298 0.964216,-3.778341 1.209554,-5.728412 0.190288,-3.560901 0.675817,-7.094749 0.975422,-10.6475987 0.238737,-3.0675634 0.372935,-6.141867 0.426628,-9.21787258 0.232675,-3.43673232 1.426068,-6.68007782 2.442124,-9.94111192 1.528316,-4.3751938 3.219934,-8.6967038 4.971917,-12.9877558 0.912277,-2.033782 1.922225,-4.030722 3.128195,-5.907547 0.252957,-0.425313 0.58461,-0.774354 0.93456,-1.119333 0,0 4.450368,5.188764 4.450368,5.188764 l 0,0 c 0.119256,-0.119789 0.464621,-0.490466 0.35702,-0.360108 -0.986674,1.514287 -1.782195,3.146424 -2.541749,4.782887 -1.679356,4.110382 -3.297299,8.25081 -4.774203,12.4375359 -0.824885,2.6446166 -1.808228,5.2624576 -2.133424,8.02687711 -0.05718,3.22821279 -0.19776,6.45468459 -0.449906,9.67394829 -0.31109,3.6657247 -0.799954,7.3119047 -1.012403,10.9848377 -0.283198,2.011265 -0.873548,3.92833 -1.237457,5.915717 -0.557851,3.402715 -1.376205,6.755138 -1.878965,10.16651 -0.435207,2.352236 -0.997828,4.704498 -1.205465,7.083242 -0.245033,3.162135 -0.688142,6.30431 -1.207939,9.432296 -0.555655,3.328235 -1.121331,6.66254 -0.974289,10.052273 -0.04142,1.728151 -0.12833,3.454956 -0.711965,5.101747 -0.803027,2.420496 -1.356697,4.89255 -1.755951,7.411572 -0.512808,2.50697 -1.069309,5.022129 -0.9572,7.597345 -0.04864,1.488549 -0.172009,2.974608 -0.580356,4.414626 -0.489638,1.723432 -0.970965,3.435101 -1.142905,5.226166 -0.421099,1.942156 -1.030018,3.826571 -1.613679,5.722468 -0.135425,0.334394 -0.5269883,2.113095 -0.7710413,3.330765 -0.59571,2.149 -1.28204,4.27195 -1.4866795,6.50637 -0.302766,2.00982 -0.1332482,4.08098 -0.6637477,6.06438 -0.3202334,1.2084 -0.7853851,2.28487 -0.6787105,3.55504 -0.062851,1.34432 -0.1929723,2.68094 0.1163918,4.00832 0.00256,1.63053 0.00798,3.26123 -0.022605,4.89156 -0.047416,1.66021 -0.1488619,3.32151 -0.5041884,4.94929 -0.3491283,1.70192 -0.8283663,3.32221 -0.6087048,5.08864 0.00347,2.13527 0.017071,4.27103 -0.038603,6.40581 -0.079687,2.07262 -0.2135431,4.15571 -0.8483689,6.14647 -0.5839766,1.99573 -1.165223,3.96824 -1.5582497,6.01554 -0.4941779,1.9409 -0.6845427,3.96021 -1.3703652,5.85804 -0.440542,2.71065 -1.1269657,5.36588 -1.55999235,8.07557 -0.49404061,2.65895 -1.05423602,5.29647 -1.40028785,7.98127 0,0 -6.703117,-1.34063 -6.703117,-1.34063 z"
         id="path2990"
         style="fill:#fc9272;fill-opacity:1;fill-rule:nonzero;stroke:none" />
      <path
         inkscape:connector-curvature="0"
         d="m 41.085097,-5.6654067 c 0.409612,2.466849 1.198739,4.86108526 2.161492,7.1642068 1.146009,2.6054389 1.942494,5.3288639 2.822006,8.0277776 0.925292,2.5911133 1.378095,5.2931183 1.645406,8.0201283 0.288059,1.973508 0.36321,3.941279 0.291769,5.937573 0.01833,1.993847 0.469664,3.975587 0.670161,5.969438 0.05967,2.488577 -0.379543,4.946641 -0.640958,7.413066 -0.147518,1.528168 -0.170523,3.064031 -0.184374,4.598009 -0.0085,1.3727 -0.0053,2.745438 -0.0027,4.118151 1.71e-4,0.239157 0.0012,0.478329 0.002,0.717483 0,0 -6.835599,0.06031 -6.835599,0.06031 l 0,0 c -9.52e-4,-0.254948 -0.0022,-0.509901 -0.0023,-0.764853 -0.0026,-1.397917 -0.0058,-2.79586 0.003,-4.193763 0.01631,-1.753975 0.0484,-3.509893 0.22226,-5.256739 0.21301,-2.004757 0.526896,-3.99988 0.636452,-6.014053 -0.226591,-2.299773 -0.771098,-4.578711 -0.699351,-6.894409 0.0623,-1.698252 0.02395,-3.35112 -0.264363,-5.030762 C 40.696122,15.968849 40.339432,13.753799 39.564928,11.631657 38.74926,9.0973684 38.002187,6.5452958 36.925891,4.1022276 35.818077,1.3825745 34.867414,-1.4206652 34.38198,-4.3247833 c 0,0 6.703117,-1.3406234 6.703117,-1.3406234 z"
         id="path2992"
         style="fill:#fc9272;fill-opacity:1;fill-rule:nonzero;stroke:none" />
      <path
         inkscape:connector-curvature="0"
         d="m 76.956112,-2.5863959 c -0.803886,2.14622109 -1.230322,4.4048384 -1.537246,6.6684837 -0.227712,2.0154311 -0.229337,4.046798 -0.239527,6.0722722 0.134522,3.036903 -0.379312,6.038857 -0.694738,9.048944 -0.247414,2.468746 -0.362113,4.948092 -0.415163,7.427833 0.0535,2.062481 -0.189977,4.15355 0.09437,6.20188 0.48493,2.771321 0.734327,5.571103 0.896312,8.377309 0.08907,2.555936 0.07176,5.090726 0.433036,7.624468 0.520496,2.688111 0.519004,5.435892 0.878776,8.139931 0.39513,3.638975 0.940887,7.252367 1.462254,10.874655 0.223284,2.966854 0.899959,5.857943 1.389638,8.784427 0.417706,2.276991 0.47748,4.591241 0.522016,6.898822 0.06161,2.129555 0.127414,4.212215 -0.474127,6.27231 -1.471287,3.68521 -1.590554,2.060332 -7.209639,0.881409 0,0 6.473422,-2.196329 6.473422,-2.196329 l 0,0 c -6.230409,-0.702316 -6.617634,0.615187 -5.773981,-0.769875 0.568798,-1.177162 -0.06108,-2.785331 0.149711,-4.056766 -0.03742,-1.975022 -0.06963,-3.957448 -0.430371,-5.906442 -0.493148,-2.976274 -1.18213,-5.91824 -1.412892,-8.934275 -0.526254,-3.660854 -1.074865,-7.313797 -1.47795,-10.99084 -0.325429,-2.677648 -0.382132,-5.383172 -0.865957,-8.043966 -0.37922,-2.722322 -0.423363,-5.441727 -0.488603,-8.186418 -0.152433,-2.68119 -0.403458,-5.352711 -0.864253,-8.000611 -0.23566,-2.366774 -0.163528,-4.740332 -0.136028,-7.117438 0.05825,-2.668734 0.182864,-5.336974 0.45092,-7.993737 0.292914,-2.785821 0.788199,-5.559919 0.657473,-8.370258 0.01208,-2.3257978 0.02352,-4.6581461 0.303453,-6.9706343 0.392651,-2.81215533 0.939493,-5.6144461 1.962154,-8.2739311 0,0 6.346942,2.5387765 6.346942,2.5387765 z"
         id="path2994"
         style="fill:#fc9272;fill-opacity:1;fill-rule:nonzero;stroke:none" />
      <path
         inkscape:connector-curvature="0"
         d="m 82.05848,-10.821727 c 1.526087,2.8086026 2.323957,5.8705573 2.876385,8.9949381 0.465618,2.950391 0.506117,5.9402391 0.533182,8.9196859 0.143037,2.6305406 1.216657,5.037683 1.975917,7.52542 0.603046,2.738528 1.677448,5.328267 2.547829,7.983157 0.635056,2.315712 1.067917,4.689067 1.799721,6.978469 0.791944,2.933738 1.621204,5.848407 2.140395,8.845752 0.406222,2.542926 1.210511,4.967547 1.939509,7.424793 0.943552,2.387567 1.853116,4.758322 2.468924,7.255641 0.746864,2.705041 0.396683,5.567283 0.879703,8.29592 0.427184,1.621978 0.747007,3.254386 0.907435,4.923741 0.14469,2.443075 0.13564,4.892173 0.14009,7.338602 7.9e-4,2.485137 -0.003,4.970272 -0.006,7.455406 -0.002,2.155838 -0.002,4.311676 -0.002,6.467514 0.0114,2.076378 0.50679,4.124185 0.79301,6.179895 0.0394,0.346397 0.0815,0.692506 0.11828,1.039192 0.10635,1.001912 0.0589,2.051484 0.20989,3.043729 0.0112,0.07377 0.0198,-0.147927 0.0297,-0.22189 0.4444,1.04542 0.75792,2.144838 1.13591,3.219002 0.42424,1.69154 0.89344,3.34801 1.42186,5.00834 0.67725,1.70227 0.70889,3.37787 0.13215,5.11967 -0.336,1.26549 -0.48729,2.56906 -0.79578,3.8509 -0.46633,2.38441 -0.631,4.80037 -1.08359,7.19046 -0.4033,2.18673 -0.58795,4.38238 -1.2301,6.51663 -0.46585,1.95909 -0.88933,3.9364 -1.235543,5.92225 -0.334681,3.54053 -0.72106,7.07056 -1.147804,10.60263 -0.443214,3.48329 -1.373378,6.8617 -2.128432,10.27972 -0.650608,3.10272 -0.614154,6.28416 -0.903818,9.42725 -0.474456,3.83384 -0.747794,7.68404 -0.898635,11.54279 0.06814,3.28834 -0.340661,6.53444 -0.850255,9.77382 -0.252834,1.43702 -0.339995,2.87657 -0.650453,4.30074 -0.368472,1.27284 -0.775466,2.52175 -1.28817,3.73946 -0.0046,0.19187 0.275639,-0.6351 0.205141,-0.47702 -0.771467,1.72988 -0.992946,2.37276 -2.687939,3.16774 0.469032,-0.35806 0.859561,-0.85417 1.407096,-1.07418 0.34927,-0.14035 -0.545717,1.11841 -0.775823,0.82053 -4.025069,-5.21071 -5.135671,-5.50912 -2.094829,-6.27263 0,0 1.423769,6.68595 1.423769,6.68595 l 0,0 c 2.409791,-0.77619 -1.094527,-2.9309 -3.621358,-5.73349 -0.202211,-0.22428 -0.846104,0.85378 -0.600052,0.67871 0.588497,-0.41872 1.092421,-0.94511 1.638632,-1.41767 -1.40834,0.75364 -2.062098,4.00171 -0.965825,0.48045 -0.281559,1.35413 0.657439,-2.3755 0.771851,-2.42372 0.106733,0.31914 0.03106,0.14413 0.08119,-0.48678 0.08131,-1.02343 0.22701,-2.0404 0.404116,-3.05141 0.469409,-2.97789 0.853495,-5.95424 0.772324,-8.97901 0.157449,-3.98427 0.434769,-7.96057 0.923861,-11.91932 0.335436,-3.42262 0.262933,-6.89484 1.036712,-10.26787 0.716565,-3.19695 1.581144,-6.35727 2.014413,-9.61419 0.441958,-3.65634 0.822302,-7.31152 1.202905,-10.97307 0.403248,-2.25371 0.869392,-4.50292 1.427161,-6.72178 0.583103,-1.88592 0.622365,-3.87305 1.054199,-5.80278 0.4764,-2.49679 0.596804,-5.0333 1.153747,-7.51614 0.353707,-1.46469 0.484105,-2.96189 0.952099,-4.39825 0.2975,-0.89796 0.239464,0.10794 0.290417,0.65708 0.126093,1.35896 -0.364129,-2.72766 -0.450451,-1.56429 -0.500868,-1.59289 -0.988643,-3.17799 -1.355046,-4.80807 -0.428209,-1.22438 -0.801155,-2.45986 -1.276224,-3.667713 -0.322731,-1.567717 -0.360393,-3.143446 -0.538027,-4.734317 -0.328663,-2.367035 -0.887389,-4.723611 -0.858146,-7.121962 1.94e-4,-2.157845 4.32e-4,-4.31569 0.0023,-6.473534 0.0024,-2.478802 0.0066,-4.957604 0.0059,-7.436409 -0.004,-2.241231 0.0022,-4.484289 -0.111227,-6.723261 -0.133557,-1.545167 -0.529225,-3.030805 -0.861568,-4.543321 -0.345599,-2.555114 -0.258441,-5.152848 -0.761704,-7.692211 -0.568403,-2.395098 -1.549148,-4.62108 -2.381734,-6.931285 -0.798126,-2.717187 -1.674008,-5.404788 -2.122427,-8.213388 -0.450571,-2.704388 -1.239229,-5.3213 -1.931176,-7.970231 -0.688023,-2.268064 -1.210283,-4.581803 -1.76948,-6.883329 -0.8738,-2.700568 -1.981287,-5.328504 -2.588544,-8.11242 C 79.961133,13.49486 78.678384,10.463272 78.632457,7.1541902 78.609399,4.5468667 78.588939,1.9296528 78.200218,-0.65479246 77.744726,-3.3261112 77.026602,-5.8910162 75.711538,-8.28295 c 0,0 6.346942,-2.538777 6.346942,-2.538777 z"
         id="path2996"
         style="fill:#fc9272;fill-opacity:1;fill-rule:nonzero;stroke:none" />
      <path
         inkscape:connector-curvature="0"
         d="m 119.22073,-8.4110871 c -2.02486,2.3624888 -3.66807,5.0356764 -4.94261,7.86813702 -1.32629,2.77834328 -2.07142,5.71886658 -2.42571,8.76042828 -0.72506,3.7355008 -0.89798,7.5371838 -1.32273,11.3089998 -0.56602,3.866459 -0.86848,7.760012 -1.04129,11.661446 0.0276,3.524993 -0.22154,7.011834 -0.66919,10.504984 -0.31939,2.234394 -0.56427,4.442648 -0.25445,6.680714 0.53843,2.482307 0.53264,4.941033 0.17727,7.441968 -0.26988,1.524197 -0.37883,3.056957 -0.72297,4.564813 -0.46488,1.07517 -0.70984,2.194986 -0.81951,3.354697 -0.0301,2.17239 -0.4576,4.302203 -1.11646,6.364319 -0.54607,1.453244 -1.19529,2.650135 -1.86268,3.808905 -0.4094,0.551079 -0.3976,0.745692 -0.46576,1.263737 -0.0936,1.285147 -0.0856,2.575668 -0.088,3.863544 2.1e-4,1.129119 0.006,2.258226 0.008,3.38734 0.0577,1.240783 -0.0186,2.435619 -0.21569,3.660924 0.0133,0.336494 -1.07251,3.377379 -0.53063,2.57405 0.708,1.852314 0.15347,3.546015 -1.13824,4.923372 -1.50425,1.275514 0.6009,-0.818707 0.7292,-1.052604 -0.002,0.05253 0.0112,-0.05464 0.0167,-0.08196 -6e-4,0.09637 -0.001,0.19274 -0.002,0.28911 0,0 -6.835527,-0.0682 -6.835527,-0.0682 l 0,0 c 0.0048,-0.390607 0.0011,-0.784448 0.06316,-1.171481 0.261329,-1.631996 0.643696,-1.74903 1.763357,-3.242911 0.08538,-0.113915 -0.22134,0.179092 -0.33201,0.268637 -1.357256,1.599541 -0.19466,4.332466 -0.976549,1.433121 -0.299667,-1.860382 -0.0025,-3.579424 0.570214,-5.358507 0.305792,0.754277 -0.147921,-2.677229 0.05193,-2.158566 -0.0025,-1.138528 -0.0081,-2.27705 -0.0082,-3.415583 0.0032,-1.618748 -0.01209,-3.243565 0.162214,-4.854969 0.235162,-1.502388 0.70413,-2.883693 1.593021,-4.129833 -0.481713,1.282912 0.940916,-2.055781 1.023106,-2.132895 0.600566,-1.548332 0.713166,-3.232922 0.790956,-4.874224 0.16613,-1.522361 0.41395,-3.059664 1.03089,-4.473862 0.20053,-1.125826 0.30815,-2.504046 0.54484,-3.714443 0.27658,-1.892709 0.25423,-3.689686 -0.18836,-5.575497 -0.35975,-2.830196 -0.1818,-5.624816 0.25139,-8.443153 0.42427,-3.306655 0.65048,-6.601457 0.62044,-9.939541 0.1815,-4.05832 0.49224,-8.109297 1.07851,-12.131659 0.4372,-3.783077 0.58957,-7.601271 1.3273,-11.3480503 0.45801,-3.7395059 1.37161,-7.36860525 2.99567,-10.7885978 1.64374,-3.5547572 3.6922,-6.9433979 6.32628,-9.8603949 0,0 4.83368,4.8336859 4.83368,4.8336859 z"
         id="path2998"
         style="fill:#fc9272;fill-opacity:1;fill-rule:nonzero;stroke:none" />
      <path
         inkscape:connector-curvature="0"
         d="m 60.164316,348.48026 c -1.927347,-0.17639 -3.639881,-1.01223 -5.381336,-1.77659 -1.81919,-0.6229 -2.950749,-1.79893 -3.878088,-3.45179 -0.782827,-1.72802 -1.672659,-3.37459 -2.279967,-5.17991 -0.750389,-2.05107 -0.690575,-4.06592 -0.195682,-6.16202 0.623486,-1.35875 1.211646,-2.67498 1.467653,-4.15197 -0.48999,-1.5783 -0.618857,-3.452 -0.596671,-5.1549 0.03513,-1.88206 0.927355,-3.52416 1.581021,-5.22847 0.940022,-1.21735 1.125987,-2.52674 1.526293,-3.95736 0.530958,-1.66188 0.803029,-3.38374 1.328851,-5.04404 0.521537,-1.22188 0.955808,-2.45493 1.646685,-3.59652 0.64731,-1.14205 1.378415,-2.26724 2.151856,-3.33449 0.692189,-1.03844 1.350746,-2.11441 2.049634,-3.15418 0.468551,-0.65129 0.96945,-1.27928 1.501836,-1.87946 0,0 5.198582,4.45986 5.198582,4.45986 l 0,0 c -0.352866,0.44073 -0.698424,0.88733 -1.030568,1.34397 -0.771573,1.04403 -1.386706,2.21107 -2.12811,3.27409 -0.690273,0.95674 -1.35462,1.90761 -1.883365,2.90727 -0.439726,0.67706 -0.609172,1.54334 -1.006009,2.29526 -0.598379,0.73827 -0.511842,3.72916 -1.173226,4.66741 -0.484779,1.56258 -0.756542,3.39581 -1.795595,4.6196 -0.399486,0.9545 -0.917659,1.87989 -1.043365,2.88923 -0.264402,2.04196 0.904764,4.11366 0.465197,6.17883 -0.297859,1.50464 -0.718156,3.35116 -1.544555,4.47402 -0.06848,0.28099 0.02728,0.69324 -0.222771,0.83857 -0.04754,0.0276 -0.09359,-0.18725 -0.0983,-0.13247 -0.04958,0.57607 0.340913,1.16164 0.397033,1.71978 0.461049,1.55867 1.37224,2.91484 1.946798,4.43054 -0.891709,-0.86081 -0.570223,-0.23286 0.334332,-0.0105 1.326736,0.55773 2.547577,1.22134 4.015966,1.34565 0,0 -1.354125,6.77062 -1.354125,6.77062 z"
         id="path3000"
         style="fill:#fc9272;fill-opacity:1;fill-rule:nonzero;stroke:none" />
    </g>
  </g>
  <path
     style="fill:#fc9272;fill-opacity:1;fill-rule:nonzero;stroke:none"
     id="path2991"
     d="m 77.13758,82.010767 c 0,0.956952 0,1.913904 0,2.870857 0.128755,0.926242 0.272733,1.842123 0.280731,2.777963 -0.02612,0.416882 -0.09677,0.828747 -0.210183,1.230457 -0.02335,0.08272 -0.07955,0.331794 -0.07778,0.245857 0.03196,-1.549103 0.315156,-0.479457 -0.293872,-1.916009 -0.491273,-0.576314 -1.082885,-0.843139 -1.821038,-0.786471 -1.666298,2.269922 -1.698697,3.564047 -2.021311,2.124554 -0.115944,-0.51734 -0.145191,-0.938234 -0.160317,-1.478942 0.05475,-0.458366 0.04155,-0.469783 0.137954,-0.879976 0.02264,-0.09634 0.07825,-0.385493 0.07779,-0.286527 -0.0012,0.256575 -0.313692,0.659542 -0.08004,0.765561 3.761811,1.706922 4.645554,-0.245456 3.974335,1.156326 -0.106904,0.355226 -0.14834,0.726369 -0.184522,1.094327 -0.120982,-0.28528 0.04706,0.854866 -0.02612,0.485648 -0.27802,-1.402697 -0.184318,-1.392133 -1.515084,-2.055768 -0.622269,-0.136515 -1.163434,-0.01721 -1.672,0.339657 -0.340675,0.304766 0.180075,-0.208801 0.24817,-0.277636 -0.707316,0.779271 -0.724802,1.708746 -0.181049,2.565593 5.013997,-4.626971 0.707568,-4.140035 6.9e-4,-2.345125 -0.75142,1.67138 5.047546,0.355475 3.832804,-0.781738 2.412974,1.998475 -0.413295,5.410936 -2.82627,3.412462 l 0,0 c -0.05244,-0.04509 -0.509404,-0.499787 -0.507404,-0.500576 3.574049,-1.410788 4.15717,-2.458799 3.720499,-0.778323 -0.844345,2.302964 -4.566599,3.095012 -0.698878,-1.695964 0.698262,1.070941 0.639845,2.232211 -0.190441,3.239839 -0.220642,0.223026 -0.434641,0.453248 -0.674406,0.656332 -0.628975,0.448532 -1.318207,0.617015 -2.093831,0.472065 -0.298035,-0.137041 -0.640254,-0.203361 -0.894105,-0.411123 -0.884089,-0.723577 -1.064204,-1.726499 -0.930451,-2.776226 0.09464,-0.90288 0.243302,-1.80884 0.635281,-2.636907 1.032945,-2.011443 5.374123,-0.618431 4.275346,1.390382 -0.01358,-0.05375 -0.03989,-0.216682 -0.04074,-0.16125 -0.0028,0.185934 0.07103,0.425771 0.117959,0.606326 0.372221,1.432151 0.257575,0.0736 -1.7598,3.151839 -0.890904,0.07572 -1.635397,-0.218698 -2.248307,-0.898079 -0.450586,-0.978554 -0.699226,-1.315101 -0.341967,-2.396302 -0.04465,-0.859247 -0.246912,-1.76823 -0.282515,-2.652246 0,-0.956953 0,-1.913905 0,-2.870857 0,-3.133105 4.430879,-3.133105 4.430879,0 z"
     inkscape:connector-curvature="0" />
  <path
     style="fill:#ffb380;fill-opacity:1;fill-rule:nonzero;stroke:none"
     id="path4542"
     d="m 87.742478,193.60909 c -2.588582,2.7205 -4.93979,5.71191 -6.794495,8.98645 -0.920312,1.62485 -1.660154,3.37597 -2.424679,5.07497 -1.818131,3.99222 -3.346441,8.08982 -4.591132,12.29337 -1.333609,5.09894 -2.827272,10.15348 -4.32617,15.20575 -1.457065,4.65824 -2.833004,9.35012 -3.988931,14.09295 -1.051451,4.06485 -2.010927,8.14122 -2.775731,12.26911 -0.678047,4.45851 -1.048983,8.96005 -1.506435,13.44654 -0.279423,2.78603 -0.438301,5.58162 -0.499102,8.3804 -0.03172,2.15939 -0.02262,4.31913 -0.01923,6.47868 0.0044,1.85594 0.0059,3.71188 0.0067,5.56782 -0.046,2.08192 0.108205,4.17217 -0.102718,6.24592 -0.217088,1.83845 -1.186445,3.44676 -1.882685,5.12769 -0.859757,2.58089 -1.701603,5.15387 -2.622035,7.71625 -0.655973,1.73862 -0.886774,3.56279 -0.999684,5.40318 -0.06878,1.51397 -0.05265,3.03001 -0.04662,4.54502 0.130622,2.11676 -0.173852,4.20591 -0.355767,6.308 -0.239921,2.98307 -0.347964,5.97388 -0.408241,8.96523 -0.03543,1.99514 -0.03261,3.99065 -0.03168,5.98602 0.10059,2.09032 -0.182303,4.1606 -0.602584,6.20274 -1.025077,2.84304 -2.503793,5.50683 -3.885799,8.19015 -1.889848,3.88684 -4.501194,7.33466 -7.221222,10.66759 -3.43345,4.21008 -7.475457,7.83418 -11.672738,11.25642 -2.611417,1.89485 -5.199509,3.82438 -7.840698,5.67831 -2.77075,1.86745 -5.725873,3.42266 -8.682053,4.9649 -2.124651,1.23543 -4.279044,2.32317 -6.5791185,3.20963 -2.3600467,0.84508 -4.633148,1.86812 -7.05373875,2.53394 -2.01114935,0.58359 -4.09967445,0.69667 -6.17911755,0.76787 -1.7079806,0.058 -1.7900544,-2.35741 -0.082074,-2.41545 l 0,0 c 1.8917222,-0.0637 3.7934374,-0.15172 5.62350251,-0.68362 2.34438449,-0.63731 4.53551209,-1.65374 6.82412259,-2.4586 2.2179111,-0.85049 4.2830735,-1.90271 6.3293035,-3.09694 2.863435,-1.49133 5.724446,-2.9972 8.410832,-4.80003 2.594111,-1.82013 5.134026,-3.71714 7.701972,-5.57329 4.071775,-3.31855 7.997108,-6.82845 11.327926,-10.91193 2.615894,-3.20047 5.130716,-6.50974 6.944635,-10.2457 1.284251,-2.49186 2.628184,-4.97133 3.668175,-7.57595 0.3966,-1.87907 0.646972,-3.78453 0.551831,-5.70892 -9.29e-4,-2.012 -0.0037,-4.02413 0.03218,-6.0359 0.06153,-3.04503 0.172004,-6.08953 0.416857,-9.12609 0.177736,-2.02997 0.476902,-4.04438 0.346677,-6.08877 -0.0062,-1.56805 -0.02246,-3.1372 0.05123,-4.70409 0.129295,-2.06798 0.404613,-4.11745 1.137446,-6.07102 0.934767,-2.60043 1.781675,-5.21312 2.665794,-7.82907 0.613785,-1.46358 1.46768,-2.8734 1.710696,-4.45879 0.234031,-1.98089 0.0083,-3.99347 0.08856,-5.98369 -7.76e-4,-1.85501 -0.0022,-3.71002 -0.0067,-5.56503 -0.0034,-2.1784 -0.01259,-4.35698 0.0198,-6.53522 0.06277,-2.86303 0.224775,-5.72285 0.510994,-8.57283 0.464169,-4.55182 0.839404,-9.11917 1.534418,-13.64169 0.77316,-4.17232 1.741437,-8.29314 2.804165,-12.4017 1.16779,-4.78068 2.549457,-9.51185 4.019878,-14.20749 1.499003,-5.05201 2.991457,-10.10659 4.325963,-15.20505 1.277642,-4.30728 2.841191,-8.50826 4.704842,-12.59943 0.849986,-1.88419 1.555078,-3.5639 2.579936,-5.36504 1.932046,-3.39548 4.370103,-6.5019 7.054428,-9.32931 1.149575,-1.26453 2.937894,0.36121 1.788319,1.62574 z"
     inkscape:connector-curvature="0" />
</svg>
