<?xml version="1.0" encoding="UTF-8" standalone="no"?>
<!-- Created with Inkscape (http://www.inkscape.org/) -->

<svg
   xmlns:dc="http://purl.org/dc/elements/1.1/"
   xmlns:cc="http://creativecommons.org/ns#"
   xmlns:rdf="http://www.w3.org/1999/02/22-rdf-syntax-ns#"
   xmlns:svg="http://www.w3.org/2000/svg"
   xmlns="http://www.w3.org/2000/svg"
   xmlns:xlink="http://www.w3.org/1999/xlink"
   xmlns:sodipodi="http://sodipodi.sourceforge.net/DTD/sodipodi-0.dtd"
   xmlns:inkscape="http://www.inkscape.org/namespaces/inkscape"
   id="svg2"
   version="1.1"
   inkscape:version="0.48.4 r9939"
   width="1576"
   height="2680"
   sodipodi:docname="27413-35.svg">
  <metadata
     id="metadata8">
    <rdf:RDF>
      <cc:Work
         rdf:about="">
        <dc:format>image/svg+xml</dc:format>
        <dc:type
           rdf:resource="http://purl.org/dc/dcmitype/StillImage" />
        <dc:title />
      </cc:Work>
    </rdf:RDF>
  </metadata>
  <defs
     id="defs6" />
  <sodipodi:namedview
     pagecolor="#ffffff"
     bordercolor="#666666"
     borderopacity="1"
     objecttolerance="10"
     gridtolerance="10"
     guidetolerance="10"
     inkscape:pageopacity="0"
     inkscape:pageshadow="2"
     inkscape:window-width="1280"
     inkscape:window-height="732"
     id="namedview4"
     showgrid="false"
     inkscape:zoom="0.20226213"
     inkscape:cx="738.55179"
     inkscape:cy="1764.7824"
     inkscape:window-x="-8"
     inkscape:window-y="-8"
     inkscape:window-maximized="1"
     inkscape:current-layer="layer1" />
  <image
     width="1576"
     height="2680"
     xlink:href="file:///tmp/broken-interfaces/phone_cropped_display/27413-35.png"
     id="image10"
     x="0"
     y="0" />
  <g
     inkscape:groupmode="layer"
     id="layer1"
     inkscape:label="Layer">
    <g
       id="g0"
       inkscape:label="#g3010">
      <path
         inkscape:connector-curvature="0"
         d="m 49.741223,-0.0836742 c -1.312037,-1.164192 -2.863158,-1.9013911 -4.545052,-2.355849 9.06112,-20.6052298 5.026485,-19.5110858 14.873252,-12.8742588 5.796367,3.941684 11.395791,8.1243349 16.766679,12.628541 5.709724,4.3811837 11.750995,8.2765434 17.397787,12.752932 4.704112,3.566054 8.889601,7.742567 13.521071,11.390004 2.89054,2.026262 5.23257,4.662784 7.92621,6.920397 2.46355,2.323072 4.1098,5.192648 5.07776,8.402818 1.3045,4.40595 -0.92299,8.56207 -2.62102,12.477909 -1.03469,4.38375 -3.88118,7.902558 -5.81365,11.849412 -2.28953,4.266397 -5.56124,7.722578 -9.04142,11.026217 -2.65117,2.743784 -5.700759,5.057637 -8.474113,7.655987 -1.935222,1.572045 -4.569469,3.634268 -5.756648,5.380866 -1.426801,2.033062 -2.941276,4.139704 -4.018408,6.388689 -1.600422,2.958163 -3.039359,5.990569 -4.760505,8.88481 -1.634053,2.61126 -3.057842,5.33299 -4.582811,7.99857 -0.549232,2.14916 -3.294476,3.88621 -3.416314,6.06797 -1.645215,4.12752 -3.462114,8.18264 -5.384156,12.18846 -1.841324,3.9981 -4.068977,7.84716 -6.52511,11.50216 -2.592312,3.97715 -5.844404,7.37266 -9.229048,10.67843 -3.55588,3.10226 -6.374232,6.88504 -9.362488,10.5102 -2.808734,3.24456 -5.346232,6.66035 -8.373341,9.71202 -2.626678,2.51289 -5.25165,5.02672 -7.846436,7.57264 -3.844305,3.67847 -7.627621,7.39743 -10.64705,11.79737 -2.598074,3.7656 -4.635552,7.87193 -7.0124546,11.77997 -1.8244812,3.36696 -4.6621448,5.88863 -7.61416433,8.23147 -2.05443797,1.98712 -4.49359877,3.57476 -6.68353577,5.42909 -2.835345,2.49275 -5.7302643,4.9208 -8.7893513,7.13696 -3.507449,1.55823 -4.063254,2.51593 -7.208271,4.36145 -0.356637,0.18718 -0.713274,0.37437 -1.069911,0.56155 0,0 -9.060308,-17.57878 -9.060308,-17.57878 l 0,0 c 0.109657,-0.0531 0.219314,-0.1063 0.328971,-0.15945 1.735267,-0.86697 3.322847,-2.79646 5.457341,-3.23624 2.682697,-1.91123 5.158591,-4.06357 7.629317,-6.23483 2.475389,-2.06478 5.143941,-3.87844 7.500555,-6.07871 1.388129,-0.58295 1.216561,-0.66623 2.616705,-2.71555 2.612787,-4.28799 4.822113,-8.81618 7.7511075,-12.9053 3.8028923,-5.29514 8.1712042,-10.07159 12.9513505,-14.50596 2.546338,-2.49789 5.116403,-4.97057 7.701167,-7.42864 2.60458,-2.58245 4.650067,-5.59892 7.108236,-8.31813 3.440025,-4.17319 6.746072,-8.48642 10.811313,-12.08571 2.434485,-2.37278 4.859739,-4.67677 6.652786,-7.59418 1.953006,-2.86913 3.708257,-5.90245 5.121014,-9.06673 1.712697,-3.46639 3.240826,-7.02217 4.697814,-10.60112 1.382095,-3.32002 3.281434,-6.26345 5.049348,-9.381471 1.366075,-2.618174 3.037456,-5.163209 4.457903,-7.792695 1.599284,-2.64746 2.874238,-5.466283 4.35696,-8.177845 1.462123,-2.597006 2.9368,-5.232965 4.73983,-7.6089 2.550101,-3.63832 5.638852,-6.7495 9.194439,-9.425994 2.72433,-2.399359 5.502251,-4.726051 8.083248,-7.295339 1.94276,-1.838321 3.882221,-3.523567 5.1609,-5.912278 1.891101,-3.474641 4.184467,-6.615515 5.180649,-10.536421 0.39482,-0.896912 0.86783,-1.758542 1.25014,-2.66086 0.18411,-0.434547 0.4389,-1.803615 0.47663,-1.333184 0.13839,1.72524 -0.70441,3.122201 -0.0348,4.761165 0.2315,0.672316 0.60566,0.970931 1.22418,1.399348 -2.54061,-2.14964 -4.746206,-4.594924 -7.456432,-6.536588 C 90.851653,33.284235 86.626366,29.145108 81.92816,25.549026 76.155098,20.945303 69.878229,17.06605 64.11422,12.455976 59.285019,8.3895379 54.234387,4.6365082 49.015221,1.0846126 48.376217,0.653797 42.512434,-3.4504792 42.526378,-3.4911598 c 6.41755,-18.7223942 1.29776,-19.7852992 8.439918,-17.8641872 3.825358,1.200713 7.508168,2.908892 10.640717,5.450619 0,0 -11.86579,15.8210538 -11.86579,15.8210538 z"
         id="path2990"
         style="fill:#de2d26;fill-opacity:1;fill-rule:nonzero;stroke:none" />
      <path
         inkscape:connector-curvature="0"
         d="m -39.417664,346.56432 c 5.332717,-3.16602 9.818644,-7.43731 14.524245,-11.42038 3.559468,-2.99088 7.667659,-5.03807 11.719295,-7.22073 2.306503,-1.45392 5.2086799,-1.62686 7.2628023,-3.45339 2.1274665,-1.86282 4.0784118,-3.91831 6.06079157,-5.93237 2.40750803,-2.09401 4.61643423,-4.41846 7.08012853,-6.44798 1.3900042,-1.77753 3.4638166,-2.87519 5.2851886,-4.16313 -0.09856,0.0302 -0.364169,0.16768 -0.295673,0.0906 1.398599,-1.57304 2.955786,-2.52266 4.158302,-4.24239 2.459473,-2.7949 5.223136,-5.26213 8.066629,-7.66145 2.203596,-1.6472 3.468387,-3.95925 5.298386,-6.00166 1.76266,-2.35038 3.964775,-4.38398 5.609542,-6.81554 2.174484,-2.62137 4.392144,-5.2469 5.987573,-8.26815 1.40631,-2.85693 3.640337,-5.17093 5.12711,-7.96448 1.490964,-2.65574 3.515386,-5.04152 5.486469,-7.36096 1.925032,-2.37463 3.833183,-4.76163 5.874484,-7.04166 1.590919,-2.2363 3.188267,-4.45249 4.720647,-6.73031 1.995939,-2.66414 4.277128,-5.0763 6.343702,-7.67826 2.297725,-2.70752 4.416963,-5.52596 6.862016,-8.10414 3.464117,-3.62782 6.75012,-7.49346 9.767898,-11.50562 1.831086,-2.70915 4.197889,-5.11968 5.844673,-7.88918 2.42852,-4.09136 5.066131,-8.05074 7.562326,-12.1124 2.602759,-4.43362 5.002429,-9.00079 7.707339,-13.36769 1.27885,-2.51297 3.14503,-4.62732 4.75643,-6.9231 2.22457,-3.09759 -3.12703,4.63672 1.3417,-2.27692 0.29701,-0.45952 1.21313,-1.78375 1.05041,-1.26136 -0.22667,0.72768 -0.83548,1.27496 -1.25322,1.91244 -0.15629,0.85883 -0.61257,3.43751 -0.46887,2.57649 0.8809,-5.27824 2.4559,-6.45193 6.28828,-9.38458 1.04653,-0.88032 2.99971,-3.23787 5.00238,-5.08718 2.31178,-1.99656 4.58118,-4.03779 6.79951,-6.13756 0.98416,-0.93641 1.96246,-1.87899 2.93111,-2.83143 0,0 10.42053,10.555 10.42053,10.555 l 0,0 c -1.04146,1.02783 -2.09849,2.03978 -3.15712,3.04987 -2.27468,2.15183 -4.59411,4.25288 -6.96824,6.29474 -2.09418,1.90205 -3.77382,4.18873 -6.01448,5.93572 -3.44693,2.63765 -1.36907,1.34926 -0.70042,-0.84793 0.10169,-0.33415 0.6319,-7.37402 -0.22218,1.024 -0.52843,0.93663 -1.05114,1.87651 -1.5853,2.80989 -0.0289,0.0506 0.0461,-0.10699 0.0691,-0.16048 0.16581,-0.40766 0.33163,-0.81531 0.49744,-1.22296 -0.65094,1.29951 -1.00273,2.48595 -1.90037,3.58758 -1.55489,2.20552 -3.20193,3.96413 -4.39582,6.38609 -2.86097,4.12837 -4.81496,8.92688 -7.56388,13.13911 -2.27545,3.69753 -4.63592,7.33458 -6.94157,10.99831 -2.02735,3.70423 -4.810049,6.81543 -7.292127,10.20988 -3.395748,4.43178 -6.994706,8.75801 -10.859757,12.78438 -2.17176,2.23864 -3.956182,4.77812 -6.006144,7.12762 -1.854956,2.29891 -3.860578,4.42915 -5.669486,6.76829 -1.983919,2.87414 -3.918164,5.78507 -6.134084,8.49351 -2.109206,1.87676 -3.455744,4.52986 -5.423724,6.53713 -1.788628,2.08504 -3.520991,4.0913 -3.7608,4.85861 -1.532777,2.75626 -3.500459,5.17937 -5.090281,7.89682 -1.953075,3.56011 -4.346822,6.85309 -7.019627,9.90959 -2.169171,2.91011 -4.596566,5.61693 -6.930836,8.39637 -1.97404,1.18978 -3.749458,6.00807 -6.428286,7.06032 -2.147932,1.81054 -4.3121,3.60524 -6.156291,5.7238 -2.095535,2.45513 -4.379116,4.70623 -6.780908,6.86794 -2.209156,1.55762 -3.139878,1.91845 -4.98616,3.94639 0.334715,-0.6613 0.140375,-0.22176 -0.817016,0.75937 -1.065358,1.09178 -2.268323,2.01407 -3.389149,3.01635 -0.410024,0.36666 -0.771178,0.78455 -1.156768,1.17682 -2.4727245,2.5122 -4.9046128,5.08403 -7.6358694,7.32075 -2.88459002,2.10774 -6.0067162,3.49838 -9.3229305,4.77127 -3.1383868,1.64109 -6.2966371,3.17511 -9.0731951,5.43191 -5.316846,4.49861 -10.432036,9.27104 -16.474741,12.81691 0,0 -7.631124,-12.71854 -7.631124,-12.71854 z"
         id="path2996"
         style="fill:#de2d26;fill-opacity:1;fill-rule:nonzero;stroke:none" />
      <path
         inkscape:connector-curvature="0"
         d="m 120.96019,-4.5000953 c 2.74866,4.77171751 6.39013,8.8498891 9.92597,13.0300856 3.37569,3.2520057 6.74666,6.4858737 10.29247,9.5550017 2.78888,2.401214 5.49324,4.896846 8.16789,7.423853 2.09445,1.713137 4.31445,3.279392 6.30933,5.16524 2.96339,2.250807 5.85866,4.525113 8.5787,7.081846 2.60104,2.190104 4.8309,4.869275 7.62727,6.815136 2.09362,1.450313 3.98048,3.155333 6.19207,4.417363 3.28117,1.86045 5.67115,4.943513 8.8498,6.941627 3.23821,2.702205 5.4353,6.234997 7.00126,10.104589 1.27009,4.005602 0.64523,8.3561 -0.0997,12.409911 -0.52105,3.038135 -0.98486,6.005955 -2.05567,8.915147 -1.54975,3.654768 -2.51622,7.483069 -3.67782,11.267112 -1.2661,3.721854 -2.03154,7.557654 -2.44987,11.456824 -0.80402,3.46347 -1.92534,6.76392 -2.32586,10.3064 -0.39035,5.03832 -1.62259,9.96919 -3.30493,14.71894 -1.09059,3.43087 -1.8094,6.89552 -3.49897,10.09559 -0.71377,0.84709 -0.86577,1.44533 -1.16116,2.41947 -0.0521,0.1952 -0.001,0.0192 -0.002,0.0288 0,0 -14.4319,-3.42281 -14.4319,-3.42281 l 0,0 c 0.13974,-0.56789 0.0628,-0.27192 0.2331,-0.88732 0.57554,-1.87216 1.27175,-3.79738 2.42509,-5.3928 1.49706,-1.78211 1.07475,-5.65738 2.46016,-7.80812 1.32549,-3.71421 2.30041,-7.56246 2.55364,-11.51485 0.43017,-3.46444 1.07717,-6.87503 2.30848,-10.15464 0.53757,-4.84922 1.48049,-9.629665 3.0358,-14.264965 1.28372,-4.015468 2.32301,-8.099709 3.92999,-12.005989 0.58179,-1.55128 0.93886,-4.017339 1.38205,-6.480672 0.33156,-1.732996 0.29145,-2.126939 0.48743,-4.235029 0.0125,-0.134254 0.0386,-0.467871 0.14032,-0.37938 0.20606,0.179237 0.14363,0.53851 0.30001,0.762403 0.0783,0.112154 -0.0346,-0.271419 -0.0519,-0.407128 -0.41512,-1.135508 -1.31268,-2.230054 -1.55479,-3.277884 -2.79443,-1.969282 -5.30441,-4.304864 -7.96594,-6.383408 -2.60806,-1.540474 -4.96644,-3.395593 -7.39472,-5.199195 -3.27793,-2.405616 -6.08532,-5.362067 -9.12387,-8.051076 -2.82492,-2.670915 -5.96494,-4.856988 -8.90119,-7.395136 -1.47422,-2.112371 -4.46679,-2.720564 -6.00098,-4.865291 -2.51841,-2.379972 -5.06374,-4.731505 -7.6906,-6.992072 -4.12138,-3.570431 -8.06468,-7.32302 -11.90759,-11.18902 -4.05003,-4.78863 -8.16355,-9.5218768 -11.31985,-14.9774399 0,0 12.71854,-7.6311234 12.71854,-7.6311234 z"
         id="path2998"
         style="fill:#de2d26;fill-opacity:1;fill-rule:nonzero;stroke:none" />
      <path
         inkscape:connector-curvature="0"
         d="m 197.82414,73.194418 c 1.86811,5.73555 4.87834,10.997466 7.54378,16.38352 2.54301,5.300267 5.32955,10.462822 8.96621,15.096362 2.53395,3.34374 4.71237,6.93731 7.4033,10.16068 3.14647,3.5169 5.72338,7.49727 8.35988,11.39887 2.13553,2.9323 3.86812,6.08848 5.7032,9.20304 1.30648,1.69971 2.27024,4.01997 3.86086,5.45635 2.54886,3.43706 4.63803,7.15471 7.21845,10.57146 3.69139,4.71413 7.20724,9.54377 11.10472,14.09572 3.62114,3.94073 7.09526,8.00595 10.38896,12.22343 2.62541,3.25092 5.1188,6.6066 8.00591,9.6317 3.6314,4.54385 7.53213,8.8611 11.21408,13.36094 4.80179,6.19252 10.09572,11.97039 15.45923,17.67422 4.61375,5.2435 10.11675,9.53209 15.00043,14.50029 3.40384,3.24048 6.88669,6.4079 10.15372,9.78724 2.83376,2.54992 5.41168,5.3518 7.87566,8.26044 2.0619,2.44083 4.23113,4.7866 6.42093,7.11225 2.14091,2.62045 3.87595,5.35891 5.00753,8.58928 1.27529,4.52022 1.14796,9.11536 0.19515,13.67146 -0.39997,3.6272 -2.62448,6.68317 -3.64562,10.10143 -1.49248,3.71443 -4.41589,6.38253 -7.21649,9.10824 -2.82164,3.23207 -4.77809,7.06183 -7.10647,10.63533 -1.6638,3.04296 -3.86972,5.75973 -5.38639,8.87763 -2.05764,2.65513 -3.27463,5.76064 -4.76931,8.74174 -2.28764,4.74323 -4.45028,9.55115 -6.14766,14.54287 -1.60273,4.84219 -3.66444,9.4767 -5.66291,14.1561 -2.45362,4.61112 -4.29677,9.47621 -6.25919,14.30748 -3.84614,9.24512 -8.22217,18.25617 -12.60602,27.2546 -4.63285,9.81255 -9.73689,19.37704 -14.93447,28.89759 -3.69825,7.31482 -7.57529,14.56175 -11.99185,21.47084 -4.38583,6.24589 -8.01903,13.00323 -11.84063,19.60619 -6.33513,10.36554 -12.59247,20.77734 -18.88828,31.16896 -4.40461,7.08874 -9.22421,13.94203 -14.29206,20.5757 -2.38838,2.65054 -4.27327,5.57247 -5.8913,8.73722 -3.2982,6.67288 -7.60128,12.71112 -11.8992,18.75526 -4.22677,5.68082 -8.6784,11.25182 -13.87236,16.08231 -2.92294,1.99031 -5.76847,3.97707 -8.53324,6.14929 -2.36813,2.52811 -5.29864,4.54279 -8.27399,6.28832 -2.93777,1.75565 -5.86722,3.52317 -8.70295,5.44969 -2.94518,1.84687 -5.91611,3.7126 -8.65668,5.86662 -3.20015,3.73037 -6.42912,7.43255 -9.74435,11.06133 -4.2788,4.65312 -7.9909,9.71929 -12.56469,14.10495 -2.63417,3.09774 -6.71851,4.52965 -9.46849,7.45982 -2.50691,2.90054 -5.23627,5.57817 -8.11883,8.10134 -2.18717,2.22028 -4.56599,4.27082 -6.63033,6.6116 -1.84217,1.87598 -2.77665,4.21528 -3.62376,6.67514 -2.847458,6.99854 -5.259157,14.13765 -7.549182,21.33561 -3.307611,9.42547 -5.505666,19.23201 -7.392427,29.0319 -0.995576,7.11074 -1.947364,14.19769 -3.204761,21.26867 -1.01526,5.47869 -0.940104,11.06029 -1.551171,16.58098 -0.897207,5.70698 -1.576544,11.43618 -1.930159,17.20194 0.04881,4.24483 -0.399137,8.29122 -1.825997,12.29812 -0.658114,2.17943 -0.8556,4.43006 -1.346466,6.65194 -1.235533,3.543 -1.814589,7.25634 -2.642635,10.90863 -0.89632,6.32817 -3.11407,12.32565 -4.926095,18.41888 -1.064563,4.01812 -2.791265,7.8075 -3.837119,11.83124 -0.944358,4.03797 -2.176656,8.01802 -3.295606,12.01609 -2.293062,7.48503 -4.30291,15.04974 -6.516533,22.5595 -1.042864,5.17537 -3.507995,9.9047 -5.030964,14.92384 -0.439617,2.68958 -1.631536,5.17226 -2.231407,7.81944 -1.284303,3.50831 -2.235331,7.10142 -2.835093,10.78521 -0.460258,2.89807 -2.108047,5.48873 -2.588373,8.37476 -0.466349,2.16188 -2.057009,3.76116 -2.50465,5.84374 -1.04868,3.41866 -2.639725,6.62022 -3.845009,9.97549 -0.927987,3.45935 -2.280623,6.76804 -3.938838,9.94045 -1.587704,2.68007 -2.873863,5.52306 -4.357314,8.26502 -2.345966,3.73926 -4.575534,7.54119 -6.78603,11.36306 -2.544884,4.72821 -5.113333,9.49722 -8.149631,13.93032 -1.964406,2.88976 -3.9930846,5.7234 -5.6300047,8.81645 -2.4995707,4.4055 -4.6714038,8.98289 -7.10438951,13.42609 -2.23204119,3.667 -4.60996959,7.22621 -7.07741649,10.73792 -1.8874271,2.73744 -3.3448873,5.71185 -5.2653363,8.44172 -1.843412,2.42857 -3.525552,4.97259 -5.284304,7.4687 -1.395682,1.96671 -2.872838,3.86413 -4.503723,5.64015 -1.029319,1.24456 -2.137235,1.90018 -3.518947,2.88118 0,0 -7.188957,-12.97359 -7.188957,-12.97359 l 0,0 c -2.399057,2.14378 -0.588839,0.54247 -0.198915,0.0407 1.208368,-1.30432 2.273216,-2.72165 3.310457,-4.16653 1.791476,-2.50495 3.493347,-5.05844 5.326265,-7.52758 1.960449,-2.64459 3.163372,-5.7431 5.194869,-8.34249 2.157087,-3.05764 4.22138,-6.15104 6.199225,-9.32894 2.425995,-4.42188 4.5806904,-8.98383 7.0731033,-13.36871 1.9688547,-3.57574 4.2179438,-6.96303 6.55632654,-10.30669 2.95912016,-3.91075 4.94934276,-8.58419 7.42634736,-12.80224 2.1528678,-3.7116 4.3017778,-7.42033 6.6039498,-11.0394 1.506587,-2.72019 2.751595,-5.57172 4.344592,-8.24168 1.504304,-2.48307 2.174712,-5.30121 3.068518,-8.02897 1.063081,-2.79718 2.344937,-5.53173 3.336097,-8.31814 0.05295,-0.20769 2.353908,-7.76454 2.429668,-5.521 0.612838,-2.59221 1.438229,-5.12552 2.438279,-7.59584 0.676212,-4.05271 1.590156,-8.07388 3.067919,-11.91846 0.757625,-2.95504 1.918698,-5.74851 2.492475,-8.74773 1.588294,-4.9009 3.81983,-9.59131 4.944198,-14.64 2.194956,-7.44612 4.190177,-14.94629 6.461655,-22.36863 1.101075,-3.92339 2.343931,-7.8194 3.233941,-11.78917 1.109897,-4.17752 2.783609,-8.1476 3.96806,-12.29757 1.728915,-5.77368 3.839701,-11.4532 4.673673,-17.45655 0.860028,-3.79238 1.474223,-7.65591 2.746486,-11.33701 1.126822,-1.84894 0.293727,-6.0051 1.760482,-7.99057 0.972323,-2.61267 0.9033,-5.21769 0.969341,-8.16878 0.377482,-6.03319 1.051805,-12.03456 2.001971,-18.00568 0.729356,-5.79788 0.467816,-11.70602 1.680181,-17.45723 1.271276,-7.14459 2.198527,-14.30757 3.24548,-21.48801 2.01338,-10.36403 4.33181,-20.73629 7.82057,-30.71178 2.358298,-7.4124 4.851494,-14.76244 7.768495,-21.97425 1.62496,-4.24893 3.473353,-8.41811 6.729849,-11.69676 2.531743,-2.62642 5.108741,-5.20432 7.77393,-7.70531 2.82127,-2.33944 5.20531,-5.08676 7.7185,-7.74466 2.96802,-2.62836 6.33136,-4.69168 9.30062,-7.30229 4.35244,-4.11552 7.70754,-9.05808 11.84962,-13.37475 3.88301,-4.24678 7.49133,-8.75049 11.60355,-12.77594 3.03037,-2.32874 6.24679,-4.42947 9.47744,-6.45936 3.12157,-2.07947 6.31789,-4.04018 9.53099,-5.96699 2.45635,-1.39726 4.64111,-3.17639 6.63364,-5.18482 2.46269,-1.85537 4.8154,-3.85329 7.55072,-5.31789 4.4775,-4.09603 8.19238,-8.96073 11.84825,-13.78213 3.89281,-5.47349 7.83325,-10.91047 10.80731,-16.96385 2.03687,-3.91623 4.35395,-7.62514 7.2877,-10.94151 4.7489,-6.20572 9.26066,-12.62181 13.38955,-19.25296 6.24509,-10.30634 12.4538,-20.63188 18.73663,-30.91291 3.93574,-6.79958 7.69523,-13.7468 12.19643,-20.18951 4.2564,-6.59454 7.88575,-13.58141 11.45456,-20.56474 5.08781,-9.31944 10.08816,-18.67922 14.6191,-28.28667 4.23825,-8.69863 8.47304,-17.40752 12.19868,-26.34159 2.00206,-4.9257 3.88567,-9.89909 6.38266,-14.6022 1.88101,-4.32447 3.76911,-8.61899 5.25646,-13.10675 1.95144,-5.61375 4.33037,-11.05769 6.93104,-16.39815 1.47785,-2.90121 2.72329,-6.20694 4.73324,-8.66978 1.83602,-3.63719 4.23385,-6.92306 6.28627,-10.43902 2.97337,-4.41133 5.32938,-9.27879 9.13954,-13.09196 1.00925,-0.98192 2.5314,-2.72204 3.53856,-3.31368 1.02005,-2.82656 2.55868,-5.47718 3.17311,-8.41358 0.45005,-1.94335 0.58932,-3.78691 0.2402,-5.79748 -0.41371,-1.40426 -1.10778,-2.03632 -2.02763,-3.34503 -0.0655,-0.0932 0.18654,0.13099 0.27982,0.19649 -2.36848,-2.5161 -4.7121,-5.05637 -6.94266,-7.69659 -2.2815,-2.69776 -4.66946,-5.27151 -7.30663,-7.62609 -3.12875,-3.39765 -6.72252,-6.36158 -9.9931,-9.62083 -4.93877,-5.05358 -10.57568,-9.36252 -15.21564,-14.72446 -5.60104,-5.9593 -11.12687,-11.99834 -16.14875,-18.46158 -3.4335,-4.23047 -7.14532,-8.2298 -10.48969,-12.53661 -3.18739,-3.38788 -6.02777,-7.06398 -8.92513,-10.70024 -3.15852,-4.04664 -6.4975,-7.93366 -9.97231,-11.71351 -4.09537,-4.79775 -7.81755,-9.86535 -11.69566,-14.83337 -2.4382,-3.26787 -4.5555,-6.71568 -6.83661,-10.08394 -1.85053,-2.39041 -3.67643,-4.82093 -5.22518,-7.43237 -1.62468,-2.85218 -3.2167,-5.68116 -5.16518,-8.34015 -2.34306,-3.51004 -4.66109,-7.07795 -7.48361,-10.22495 -2.75866,-3.36165 -5.1394,-6.98705 -7.68318,-10.50996 -4.20353,-5.45317 -7.59738,-11.40909 -10.55022,-17.624598 -2.82969,-5.73589 -6.01589,-11.346379 -8.01782,-17.445799 0,0 13.77138,-5.508555 13.77138,-5.508555 z"
         id="path3000"
         style="fill:#de2d26;fill-opacity:1;fill-rule:nonzero;stroke:none" />
      <path
         inkscape:connector-curvature="0"
         d="m 243.74259,11.080057 c 4.54638,3.942223 9.29314,7.605552 14.26043,10.999447 6.44465,4.400273 12.53111,9.288622 18.88816,13.81214 7.77763,5.286591 15.86948,10.067438 23.59674,15.427065 6.92771,5.471371 14.439,10.163331 21.36992,15.617386 4.08031,3.221939 8.24974,6.338728 12.25925,9.642834 4.03382,3.417985 8.07567,6.844 12.0395,10.35029 3.46116,3.217479 7.06743,6.256846 10.78536,9.172234 5.08706,4.111367 10.47847,7.837197 15.89657,11.496367 7.88719,4.9585 15.88415,9.74424 24.00676,14.30786 7.25888,4.17371 14.4776,8.46662 21.96616,12.22144 3.73558,2.28432 7.74612,3.85914 11.84492,5.33408 5.16127,2.20244 9.8926,5.17226 14.6876,8.04708 4.49536,2.75679 9.0021,5.49667 13.39967,8.41138 2.85476,2.1371 5.97652,3.65933 9.13109,5.27062 3.19667,1.19922 6.17327,2.92795 9.48368,3.81469 4.83599,1.62637 9.72797,3.01466 14.4662,4.92174 4.05995,1.94093 8.53809,2.48884 12.80923,3.729 2.52831,1.02684 5.09237,1.69866 7.79925,1.97787 2.26559,0.22875 4.54467,0.21111 6.81878,0.21444 2.81912,-0.005 5.63824,-0.0137 8.45736,-0.0189 3.58984,-0.20555 6.93594,1.25433 10.39163,1.94451 2.9794,0.36248 5.88889,0.68912 8.7827,1.55431 1.62612,0.53735 3.21401,1.18287 4.75519,1.92832 0,0 -6.51266,13.32594 -6.51266,13.32594 l 0,0 c -0.85771,-0.41039 -1.73421,-0.77996 -2.63495,-1.08733 -2.39212,-0.80037 -4.95614,-0.60823 -7.43913,-1.20574 -2.44966,-0.5291 -4.8653,-1.52881 -7.31543,-1.62779 -2.83598,0.005 -5.67195,0.0141 -8.50792,0.0189 -2.82116,-0.005 -5.64762,-0.004 -8.4564,-0.3077 -3.62697,-0.42902 -7.1698,-1.19363 -10.5691,-2.56182 -4.49336,-1.7186 -9.70137,-1.68132 -13.99006,-4.15425 -4.22433,-1.76533 -8.65241,-2.87624 -12.96281,-4.39953 -4.21571,-1.26097 -8.13748,-3.17968 -12.17993,-4.88729 -3.61608,-1.89756 -7.2112,-3.73504 -10.54858,-6.1051 -4.19199,-2.80964 -8.52329,-5.39541 -12.81641,-8.04222 -3.97416,-2.39205 -7.87932,-4.867 -12.10071,-6.81568 -4.63949,-1.68954 -9.22325,-3.48449 -13.47273,-6.03645 -7.67104,-3.88776 -15.11742,-8.22047 -22.55396,-12.53466 -8.47596,-4.76571 -16.82637,-9.75554 -25.04629,-14.94986 -5.70433,-3.85972 -11.3816,-7.78566 -16.74342,-12.11354 -3.94688,-3.09638 -7.77888,-6.32937 -11.46204,-9.736209 -3.85842,-3.417164 -7.78321,-6.767318 -11.72451,-10.079269 -3.84553,-3.295751 -8.04257,-6.197135 -11.96651,-9.404283 -6.62532,-5.322912 -13.98745,-9.705594 -20.60857,-15.051644 -7.76796,-5.403677 -15.94141,-10.17064 -23.74204,-15.529285 -6.27845,-4.478449 -12.30908,-9.289789 -18.66612,-13.65698 -5.70779,-3.921631 -11.19562,-8.130314 -16.36385,-12.746437 0,0 10.48798,-10.487976 10.48798,-10.487976 z"
         id="path3002"
         style="fill:#de2d26;fill-opacity:1;fill-rule:nonzero;stroke:none" />
      <path
         inkscape:connector-curvature="0"
         d="m 399.77258,10.197172 c 9.77527,1.006711 19.42194,3.242313 28.99963,5.41508 10.61062,2.524811 20.95508,5.907494 31.25887,9.45085 9.06783,3.084652 17.54647,7.585863 25.8846,12.241907 4.53181,2.363141 8.78924,5.219763 13.08947,7.976902 4.38724,2.492735 6.14797,7.097235 8.22252,11.389204 2.41582,5.82341 4.09723,11.932901 6.01898,17.936738 2.43395,6.501329 4.01904,13.274309 6.29289,19.825885 1.68118,5.735192 3.92427,11.263512 5.97063,16.868132 1.78312,5.64469 2.985,11.46377 4.79975,17.09826 1.49513,4.97069 2.76898,9.99344 4.20747,14.98297 1.14219,4.04263 1.63296,8.21666 1.85809,12.39874 0.89897,1.5692 1.58253,4.33826 1.98902,6.42629 0.39226,4.80721 -1.29236,9.01887 -3.32363,13.24624 -0.59195,1.36426 -0.89215,2.76739 -1.05031,4.23242 -0.42927,2.61604 1.32093,4.15647 -1.01192,-1.35588 -0.2471,-0.58387 -0.82474,-0.96315 -1.23711,-1.44473 -3.13683,-2.58948 -8.49338,-0.36105 -10.0034,3.18401 -0.0188,0.055 -0.0376,0.10992 -0.0564,0.16488 0.0462,1.25049 0.0925,2.50099 0.13869,3.75148 0,0 13.73365,-5.602 13.73365,-5.602 l 0,0 c 0.66995,5.26585 1.01568,3.33697 0.41553,5.86415 -2.03312,5.88941 -8.36564,7.98489 -13.2612,4.40176 -3.41758,-3.44461 -3.94898,-6.25382 -3.45244,-10.66288 0.36983,-3.10039 1.11592,-6.10943 2.4181,-8.9616 0.17579,-0.36517 1.31357,-2.38056 1.37914,-2.57769 0.22226,-0.66813 -0.12522,-1.71217 0.48994,-2.05478 0.1356,-0.0755 0.14545,0.27424 0.21818,0.41136 -0.34802,-2.82577 -2.1436,-5.34288 -2.1983,-8.25693 -0.14906,-3.05174 -0.48184,-6.10189 -1.29742,-9.05603 -1.40436,-4.87117 -2.64831,-9.77649 -4.10101,-14.63024 -1.6946,-5.4552 -3.01182,-11.02085 -4.59923,-16.5063 -2.04314,-5.6917 -4.35983,-11.28453 -6.05298,-17.101389 -2.27189,-6.664724 -3.96294,-13.511304 -6.39235,-20.125689 -1.71315,-5.355305 -3.24036,-10.792482 -5.26076,-16.032101 -1.17753,-2.461131 -1.3731,-4.356296 -2.8994,-5.353582 -4.01525,-2.618517 -8.04149,-5.262339 -12.28498,-7.492846 -7.56,-4.236798 -15.24584,-8.347879 -23.46928,-11.161317 -9.799,-3.373046 -19.63014,-6.60549 -29.72089,-9.012867 -8.50948,-1.938182 -17.07163,-3.820637 -25.71216,-5.046169 0,0 0,-14.832238 0,-14.832238 z"
         id="path3004"
         style="fill:#de2d26;fill-opacity:1;fill-rule:nonzero;stroke:none" />
      <path
         inkscape:connector-curvature="0"
         d="m 448.15049,305.72011 c -5.538,-2.47138 -10.0047,-6.40669 -13.746,-11.1037 -3.40834,-5.00043 -3.97831,-10.88723 -4.26203,-16.75347 -0.14091,-4.76501 -1.23341,-9.44594 -1.79174,-14.18174 -0.6668,-4.87478 -0.79252,-9.67433 0.17389,-14.5057 0.91668,-4.81987 3.05654,-9.26872 4.90723,-13.77677 1.91966,-4.13933 2.77873,-8.54182 3.90324,-12.92614 1.63865,-6.03349 3.38874,-12.03609 5.27713,-17.99659 1.11861,-3.56005 1.89852,-7.19599 2.25663,-10.90734 0.0194,-3.3918 0.29764,-6.69191 0.99939,-10.01791 0.82011,-3.04921 1.19853,-6.18006 1.43728,-9.32006 0.1472,-2.48129 0.14895,-4.96766 0.15093,-7.45232 0.40863,3.63178 -1.66409,-3.72258 -1.79256,-4.20557 -0.41409,-1.87429 -0.60958,-3.78824 -0.69965,-5.70302 0.85532,-6.10988 14.81145,-4.80846 14.82178,1.56466 0,0 -14.83222,0.024 -14.83222,0.024 l 0,0 c -0.01,-6.13188 5.57914,-4.32133 14.82782,-2.25251 0.0441,0.86432 0.12593,1.72454 0.2241,2.58435 0.70359,2.70293 2.07577,5.1607 2.28296,8.00049 -0.003,2.86137 -0.0104,5.72483 -0.19493,8.58156 -0.29664,3.79548 -0.75817,7.5837 -1.72031,11.27589 -0.60279,2.77802 -0.63373,5.52539 -0.74491,8.38572 -0.4795,4.73206 -1.44095,9.38236 -2.87676,13.92182 -1.80988,5.71232 -3.49244,11.46287 -5.06085,17.2458 -1.32474,5.01683 -2.39572,10.06937 -4.53844,14.83091 -1.50529,3.66534 -3.32276,7.26715 -4.10794,11.17072 -0.72312,3.22865 -0.33146,6.4692 0.0381,9.7562 0.58749,5.07882 1.78197,10.09495 1.8761,15.21659 0.12357,2.81992 0.14355,5.77679 1.22511,8.42702 1.88648,2.74448 4.56829,4.78276 7.47515,6.34568 0,0 -5.50855,13.77139 -5.50855,13.77139 z"
         id="path3006"
         style="fill:#de2d26;fill-opacity:1;fill-rule:nonzero;stroke:none" />
      <path
         inkscape:connector-curvature="0"
         d="m 454.8553,300.9043 c 1.0909,5.06627 2.61975,10.11893 4.66094,14.88797 1.4634,4.08419 3.81641,7.7214 5.65946,11.62344 1.56235,2.48791 3.09017,5.00029 4.69147,7.46671 1.88777,3.72083 3.92782,7.38749 5.4789,11.27132 1.57343,2.75969 3.11533,5.5419 4.35815,8.4718 1.45083,3.89306 3.66059,7.39428 5.62685,11.03461 2.01771,3.63663 4.44284,7.00725 6.65101,10.52672 1.53258,2.7364 3.05461,5.35982 4.67559,8.0175 1.41231,1.9157 2.48898,4.03672 3.73203,6.05938 1.59191,2.99395 2.8764,6.15252 4.53415,9.10992 2.20828,1.74859 3.78462,8.10817 5.31488,9.6354 1.91613,2.02137 3.73499,4.15821 5.40294,6.39493 2.35673,2.65939 3.50521,6.14317 5.60601,8.95953 1.67722,2.81839 3.34325,5.59272 5.0565,8.38053 1.94088,1.97859 3.38629,4.39975 5.07631,6.61418 2.38744,2.44823 4.18579,5.35124 6.14733,8.13044 0.96006,1.91134 2.185,3.26914 3.68718,4.72364 2.07667,2.66626 4.06122,5.43078 5.93838,8.24522 2.90596,3.84284 5.16391,8.12447 7.90258,12.07214 2.38976,3.06041 4.00339,6.8265 6.47119,9.80779 1.60925,2.01152 3.12263,4.0734 4.67075,6.14932 1.18997,1.68906 5.17808,5.66433 4.04419,7.72142 -1.8494,3.35517 -5.6427,5.18359 -8.46405,7.77539 0,0 0.5521,-14.82196 0.5521,-14.82196 l 0,0 c -2.29979,2.61123 -5.45815,4.66659 -6.89939,7.83367 -0.57355,1.26037 1.13623,2.52977 1.58759,3.83888 0.65543,1.90092 -3.31099,-5.35083 -2.73969,-3.51979 -1.57282,-2.13416 -3.10907,-4.27889 -4.79463,-6.31909 -2.29387,-3.32864 -4.44357,-6.76714 -6.69758,-10.1317 -2.7317,-4.07748 -5.14672,-8.36196 -8.06609,-12.31811 -1.19998,-1.94868 -2.84879,-3.63745 -3.84867,-5.70252 -2.11275,-2.06297 -4.00489,-4.25329 -5.46462,-6.80547 -1.93271,-2.74195 -3.70173,-5.56501 -6.04757,-7.99073 -1.8642,-2.64396 -3.77145,-5.19445 -5.8087,-7.72998 -1.38651,-2.60448 -3.18761,-5.01039 -4.57698,-7.62575 -1.8202,-2.78448 -3.25378,-5.81017 -5.25672,-8.46665 -1.94547,-2.66418 -4.32508,-4.94625 -6.23243,-7.64375 -1.86012,-3.38515 -3.21192,-7.03551 -5.59873,-10.13536 -1.5219,-2.85842 -2.89194,-5.7971 -4.30815,-8.70825 -1.1405,-2.00104 -2.19006,-3.96629 -3.58841,-5.81843 -1.57926,-2.59855 -3.07359,-5.21643 -4.57363,-7.85249 -2.38175,-3.80082 -5.01546,-7.43556 -7.15228,-11.38936 -2.18886,-4.10825 -4.6561,-8.07233 -6.29426,-12.45261 -1.13494,-3.0685 -3.20087,-5.71428 -4.4634,-8.73727 -1.06033,-2.9956 -2.86853,-5.68415 -4.12145,-8.59355 -1.92839,-3.02877 -3.88365,-6.04198 -5.63512,-9.17482 -1.9115,-4.10702 -4.42557,-7.91903 -5.92587,-12.22532 -2.68904,-6.58312 -5.04969,-13.49191 -5.8003,-20.58889 0,0 14.83224,0 14.83224,0 z"
         id="path3008"
         style="fill:#de2d26;fill-opacity:1;fill-rule:nonzero;stroke:none" />
    </g>
    <path
       style="fill:#fee0d2;fill-opacity:1;stroke:none"
       id="path3003"
       d="m 560.46069,479.70824 c -0.45515,9.92428 -0.31254,19.77568 1.62182,29.52439 1.00739,7.63268 5.27741,13.89002 10.3477,19.45702 6.96883,6.60442 12.81265,14.07861 18.62875,21.65808 4.76225,7.18727 9.09095,14.64153 11.79459,22.85407 3.92176,7.6666 5.72647,15.94625 6.81693,24.41522 0.62217,8.82588 2.64175,17.4597 5.55903,25.78433 3.90602,8.54904 7.92076,17.05385 12.86879,25.05549 5.55011,7.80522 12.23392,14.89985 19.34161,21.32122 5.53995,5.53801 9.46458,12.33216 14.91338,17.95324 5.98411,5.45245 12.83606,9.72073 19.34713,14.47317 9.15448,6.68875 15.63611,15.8048 21.77233,25.15763 5.56082,10.01073 9.26099,20.9741 15.59194,30.5491 4.48589,7.12655 10.8063,13.01397 16.77697,18.91234 6.4261,7.18218 12.56295,14.75207 17.36496,23.12456 4.76783,8.85577 9.16585,17.92708 13.40958,27.04835 3.94078,9.91287 7.90239,19.82782 12.52524,29.44607 4.14022,7.31275 9.89425,13.33345 15.39177,19.58896 5.03853,6.35708 8.95304,13.50247 13.66667,20.06943 4.6918,7.29018 8.17328,15.43032 11.19476,23.55542 2.53942,5.88334 6.03986,10.96446 10.58143,15.4488 8.15048,5.06104 12.78356,13.09146 16.84586,21.48186 2.06536,6.72328 5.06961,12.98562 7.60076,19.50497 1.69878,8.42195 3.3661,16.44017 6.44129,24.48434 3.74269,9.7974 -10.11298,15.0904 -13.85568,5.293 l 0,0 c -3.06417,-8.02688 -5.1649,-16.02936 -6.44885,-24.50422 -2.27246,-6.16433 -5.33185,-12.01012 -7.11725,-18.37669 -3.37313,-7.161 -7.0376,-13.11296 -13.95704,-17.39822 -5.99216,-6.05493 -10.74172,-12.91561 -14.01475,-20.82395 -2.501,-6.93602 -5.52123,-13.85243 -9.38951,-20.11396 -4.33232,-6.21723 -8.14706,-12.79129 -12.70985,-18.85341 -6.34786,-7.2923 -13.00523,-14.33106 -17.60804,-22.95219 -4.61884,-9.68344 -8.69354,-19.61419 -12.59953,-29.60363 -4.0686,-8.78131 -8.31438,-17.50272 -12.88709,-26.02825 -3.96452,-7.27153 -9.54773,-13.58957 -14.89032,-19.87098 -6.69229,-6.68443 -13.76437,-13.30231 -18.77603,-21.37799 -6.14673,-9.65862 -10.44238,-20.2448 -15.53988,-30.46915 -5.16732,-7.8811 -10.44651,-15.68929 -18.1632,-21.34772 -7.13607,-5.31167 -14.76575,-9.96263 -21.24825,-16.14042 -5.19011,-5.43785 -9.24728,-11.69012 -14.22216,-17.27929 -8.06247,-7.42762 -15.77669,-15.44253 -21.97516,-24.50683 -5.4577,-8.92872 -10.03111,-18.34518 -14.23286,-27.92535 -3.24859,-9.30914 -5.52496,-18.96565 -6.27345,-28.82193 -0.93876,-7.61619 -2.73674,-14.86399 -6.2302,-21.75932 -2.02942,-6.65234 -5.81018,-12.5023 -9.45599,-18.36865 -5.54501,-7.29659 -11.19306,-14.4165 -17.88109,-20.75495 -6.74627,-7.61012 -12.36207,-16.23348 -13.86061,-26.50685 -2.22765,-11.48715 -2.51805,-23.1434 -1.69693,-34.81552 1.72422,-10.34527 16.35465,-7.90687 14.63043,2.43841 z"
       inkscape:connector-curvature="0" />
    <path
       style="fill:#fee0d2;fill-opacity:1;stroke:none"
       id="path3005"
       d="m 1345.739,602.57804 c 11.9357,3.22462 22.8752,9.11618 34.3677,13.5314 9.7802,2.75661 19.5222,5.75007 29.5105,7.69174 9.5211,2.87691 19.1695,4.95766 29.0513,6.03531 10.1609,0.17712 20.0956,1.52291 30.0913,3.24247 10.7791,2.86502 20.9278,7.75829 31.2293,11.99527 9.3377,3.03706 18.9476,5.31769 28.5214,7.53708 9.8731,1.40078 19.6338,3.14915 29.4208,5.0796 9.3786,1.8049 18.9271,2.25135 28.4496,2.53369 11.4943,-0.45224 22.7764,0.7881 34.1169,2.47455 8.3674,1.31409 16.8147,1.8958 25.267,2.28349 10.4768,0.48356 9.793,15.30002 -0.6838,14.81647 l 0,0 c -8.9535,-0.41567 -17.9012,-1.03987 -26.7652,-2.42909 -10.7719,-1.60231 -21.4535,-2.79282 -32.3777,-2.31979 -10.3382,-0.31089 -20.7008,-0.833 -30.8794,-2.80791 -9.9526,-1.96629 -19.8753,-3.6973 -29.9082,-5.18436 -10.3483,-2.41407 -20.7524,-4.84703 -30.8079,-8.26835 -9.3016,-3.8329 -18.4783,-8.16614 -28.0975,-11.09315 -9.71,-1.67049 -19.3274,-2.9472 -29.2036,-3.11723 -10.2831,-1.14672 -20.3824,-3.15797 -30.2786,-6.22303 -10.8263,-2.13924 -21.4203,-5.30375 -31.9961,-8.40911 -11.2672,-4.36517 -22.0222,-10.0936 -33.7181,-13.29795 -9.9498,-3.31659 -5.2594,-17.38769 4.6903,-14.0711 z"
       inkscape:connector-curvature="0" />
    <path
       style="fill:#fee0d2;fill-opacity:1;stroke:none"
       id="path3007"
       d="m 695.44536,258.60437 c 4.97483,10.99241 9.82193,22.08124 13.84083,33.46364 3.50286,8.99139 7.05044,18.08952 11.76826,26.52772 3.89706,7.82001 9.2336,14.76421 14.26879,21.85914 4.93888,6.05985 10.37759,11.6744 16.03148,17.07296 6.1199,4.50446 13.98803,5.54779 21.19028,7.48002 9.88885,1.59812 17.91921,5.93498 25.2084,12.593 3.67512,4.23553 1.93899,2.35435 5.15291,5.69424 7.23905,7.58906 -3.4935,17.82661 -10.73255,10.23755 l 0,0 c -3.36803,-3.555 -1.91997,-1.87021 -4.4261,-4.98279 -5.76302,-5.26925 -11.04225,-8.00073 -19.04795,-9.21688 -9.66326,-2.59529 -19.87141,-4.28986 -27.63376,-11.12167 -6.27629,-6.08559 -12.41873,-12.31249 -17.84553,-19.18223 -5.35607,-7.57508 -11.02717,-14.99492 -15.18729,-23.33119 -4.94609,-9.22933 -9.08156,-18.90321 -12.73994,-28.71139 -4.01212,-11.47281 -9.04448,-22.56609 -13.91893,-33.69176 -3.31659,-9.94977 10.75451,-14.64013 14.0711,-4.69036 z"
       inkscape:connector-curvature="0" />
    <path
       style="fill:#fee0d2;fill-opacity:1;stroke:none"
       id="path3009"
       d="m 396.76029,16.340586 c -6.54114,-9.7100927 -15.48677,-17.12910717 -24.66343,-24.196722 -8.29252,-6.421197 0.78842,-18.14859 9.08094,-11.727393 l 0,0 c 9.97834,7.763473 19.77228,15.8826011 26.97693,26.4287474 6.71424,8.0570866 -4.6802,17.5524536 -11.39444,9.4953676 z"
       inkscape:connector-curvature="0" />
    <path
       style="fill:#fee0d2;fill-opacity:1;stroke:none"
       id="path3011"
       d="m 233.4553,14.68093 c -11.53617,-17.5347405 -23.38987,-34.837392 -34.71707,-52.512158 -6.65864,-11.228541 -3.58329,-5.671331 -9.27744,-16.64309 -4.81855,-9.315533 8.3556,-16.129998 13.17416,-6.814465 l 0,0 c 5.19313,10.076686 2.35278,4.912241 8.59117,15.454566 11.46242,17.886239 23.48783,35.375788 35.10717,53.1562966 5.20349,9.1061134 -7.6745,16.4649634 -12.87799,7.3588504 z"
       inkscape:connector-curvature="0" />
    <path
       style="fill:#fee0d2;fill-opacity:1;stroke:none"
       id="path3013"
       d="m 95.456157,195.4265 c 10.184383,-13.35176 20.357423,-26.59403 31.939893,-38.78882 13.27241,-14.49214 27.99809,-27.55268 42.34645,-40.95368 7.77817,-6.56955 4.15225,-3.38592 10.91391,-9.50956 7.77878,-7.034787 17.72747,3.96607 9.94868,11.00086 l 0,0 c -6.96839,6.29362 -3.39128,3.17468 -10.7386,9.34846 -14.13692,13.20334 -28.65423,26.06322 -41.72963,40.34281 -11.32293,11.85476 -21.1386,24.83981 -31.09867,37.82555 -6.55179,8.18974 -18.133819,-1.07589 -11.582033,-9.26562 z"
       inkscape:connector-curvature="0" />
  </g>
  <g
     inkscape:groupmode="layer"
     id="layer2"
     inkscape:label="Layer#1">
    <g
       id="g1"
       inkscape:label="#g3027">
      <path
         inkscape:connector-curvature="0"
         d="m -7.5178393,689.31969 c 2.8783388,-3.98499 5.9423631,-7.81953 9.5079807,-11.20703 3.4023646,-2.92288 7.0117265,-5.5818 10.6480936,-8.19825 2.522129,-1.5081 4.633709,-3.48539 6.467903,-5.7682 1.935713,-2.81296 4.97146,-4.57654 7.13014,-7.17042 2.848763,-2.54997 5.487765,-5.28831 8.414469,-7.7563 2.125058,-2.00357 4.205689,-3.86836 6.44228,-5.81144 2.883972,-2.61841 6.229576,-4.60423 9.823113,-6.05742 3.566124,-0.77837 7.005547,-1.5978 10.506769,-2.58199 3.806917,-1.00308 7.723606,-1.33708 11.639774,-1.54552 0.840442,-0.68372 3.039961,-1.20969 3.984886,-1.60608 1.41026,-0.58068 2.185791,-1.25696 3.153303,-2.31455 1.548088,-1.3924 11.518835,-6.52599 2.429949,-0.86343 -0.496252,1.62238 -0.992504,3.24477 -1.488756,4.86716 0.222568,0.75165 0.742335,1.47461 0.667705,2.25496 -0.02473,0.25862 -0.669695,-0.93052 -1.94767,-3.18695 0,0 13.041767,-7.06453 13.041767,-7.06453 l 0,0 c 2.161574,4.63462 4.371656,6.10796 1.62919,11.9799 -4.253972,3.01148 -5.741136,4.39757 -3.559087,2.20778 -2.105277,2.19505 -4.479111,4.00707 -7.214637,5.34643 -3.157654,1.44137 -6.495466,2.58043 -9.916987,3.19104 -2.836328,0.14733 -5.677,0.33407 -8.444226,1.0234 -3.068541,0.84122 -6.08915,1.78388 -9.258659,2.17446 -2.131644,0.58496 -3.894993,2.20666 -5.563766,3.58035 -2.212497,1.80222 -4.210183,3.78648 -6.376977,5.75683 -2.453848,2.05777 -4.62935,4.38067 -7.058455,6.46067 -2.137796,2.24013 -4.573499,4.17262 -6.568833,6.52534 -2.687227,3.23425 -5.730952,6.20343 -9.319441,8.43321 -3.160539,2.22633 -6.232404,4.57104 -9.214254,7.03415 -3.0370463,2.60713 -5.2271129,6.07441 -7.6897839,9.19577 0,0 -11.8657904,-8.89934 -11.8657904,-8.89934 z"
         id="path3021"
         style="fill:#fc9272;fill-opacity:1;fill-rule:nonzero;stroke:none" />
      <path
         inkscape:connector-curvature="0"
         d="m 320.37161,311.78601 c 4.04633,-0.85059 8.13299,-1.48761 12.23871,-1.97316 2.35481,-0.9362 4.74173,-1.80062 7.10622,-2.72833 2.72393,-1.21353 5.54835,-2.36447 8.1595,-3.81643 2.86583,-1.57894 5.58812,-3.28065 8.63733,-4.53424 3.46189,-1.02098 6.8151,-2.31965 10.14118,-3.70477 3.54181,-1.40879 7.28644,-2.03176 10.88896,-3.2105 3.95638,-1.49387 8.16377,-1.87001 12.34651,-2.13567 3.04138,0.23224 5.75555,-0.77716 8.67098,-1.46299 3.17365,-0.2738 5.99422,-1.08026 8.99858,-1.95467 3.52224,-0.95306 7.13228,-1.31573 10.68529,-2.12296 3.88815,-0.6511 7.51079,-2.25714 11.27575,-3.36893 -0.90214,0.45755 3.81947,-1.25818 2.93685,-0.76404 -0.91082,0.50992 -2.85952,0.31016 -2.82398,1.3534 0.4485,13.16796 7.89247,13.14848 2.96408,13.08633 -0.9257,-0.008 -1.03127,-0.0735 -0.35783,0.1062 0,0 -3.26564,-14.46827 -3.26564,-14.46827 l 0,0 c 3.42898,-0.53845 2.00653,-0.49094 4.24519,-0.45713 12.87339,0.65747 8.53775,15.34038 0.48147,15.37453 -4.06248,1.18509 -7.96551,2.93922 -12.17167,3.60198 -3.28134,0.74464 -6.59601,1.15363 -9.8642,1.91167 -3.21805,0.91328 -6.38973,1.86689 -9.74259,2.14824 -3.66788,0.84043 -7.28882,2.01216 -11.10634,1.81994 -2.93314,0.18007 -5.89435,0.33248 -8.6602,1.42927 -3.24731,1.0624 -6.56991,1.72305 -9.80632,2.80898 -3.37099,1.39939 -6.76511,2.76688 -10.2797,3.76155 -2.60237,1.01919 -4.84549,2.65091 -7.32414,3.92759 -3.15327,1.60208 -6.37368,3.11571 -9.63019,4.48567 -3.53269,1.37379 -7.05057,2.84131 -10.77076,3.64408 -4.68391,0.54867 -9.28962,1.53278 -13.97304,2.0749 0,0 0,-14.83224 0,-14.83224 z"
         id="path3023"
         style="fill:#fc9272;fill-opacity:1;fill-rule:nonzero;stroke:none" />
      <path
         inkscape:connector-curvature="0"
         d="m 551.72572,173.7915 c 4.6038,0.88644 9.22097,1.45653 13.73412,2.75653 3.28549,1.07404 6.72754,1.39986 10.15671,1.62066 4.29273,0.86121 8.63955,1.61121 12.85089,2.8084 3.21515,1.14348 6.48979,1.9772 9.58912,3.42237 2.03226,0.98075 3.70814,2.06754 5.88563,2.8976 3.14864,0.75232 5.51366,2.98048 8.21462,4.5768 3.42354,2.52774 6.87064,4.93849 9.89478,7.94564 3.24579,3.4737 6.37148,7.05496 9.50596,10.63484 2.86915,2.94017 5.79794,5.81977 8.59315,8.84466 2.39668,2.46405 4.19704,5.34278 6.65977,7.73888 3.67213,3.53347 7.58056,6.81922 10.95253,10.64588 2.06308,2.62182 4.37645,4.91015 6.647,7.33405 3.06531,2.71521 5.9449,5.64083 8.56346,8.78982 1.99892,1.3489 3.1498,4.14609 5.43763,5.06379 3.36136,2.36078 6.69539,4.74862 9.71965,7.53544 2.55147,3.0209 5.45425,5.67281 8.67708,7.96436 3.47564,2.25751 6.55993,5.07907 10.17622,7.10974 6.11507,3.0599 5.20865,3.60246 1.92871,14.50896 -0.27838,0.92568 -1.7565,0.80758 -2.63475,1.21137 0,0 -5.52617,-13.76433 -5.52617,-13.76433 l 0,0 c 0.0814,3.84363 -0.18005,7.70989 0.24428,11.5309 0.049,0.4414 1.01284,0.24797 1.15173,0.66981 0.29562,0.89783 -3.20591,-2.52012 -2.52918,-1.28245 -4.06764,-2.35401 -7.67852,-5.34451 -11.54965,-7.99949 -3.68961,-2.73258 -7.25301,-5.67758 -10.1901,-9.22994 -2.17312,-2.28736 -5.02568,-3.82744 -7.48242,-5.77393 -3.33134,-2.29953 -6.08234,-5.16379 -8.85826,-8.09803 -2.44929,-2.99336 -5.27319,-5.61512 -8.09522,-8.25002 -2.23041,-2.62236 -4.82079,-4.95449 -6.95158,-7.67915 -2.91504,-3.64516 -6.92578,-6.32579 -10.10281,-9.7331 -2.60341,-2.59648 -4.68192,-5.51767 -7.13198,-8.22704 -2.88422,-3.12209 -5.91719,-6.08046 -8.85833,-9.13948 -2.98069,-3.40433 -5.92836,-6.83436 -9.03386,-10.12058 -1.96996,-2.3328 -4.88107,-3.62611 -7.10879,-5.67802 -2.08243,-1.34644 -3.70407,-2.90801 -6.16523,-3.50029 -2.17164,-0.96979 -4.2954,-2.04622 -6.40812,-3.134 -2.42601,-1.20257 -5.13589,-1.62517 -7.64542,-2.66001 -2.90388,-1.2488 -6.4306,-1.00157 -9.4037,-2.16384 -4.50508,-0.30663 -9.01706,-0.80156 -13.33868,-2.18492 -4.08079,-1.22144 -8.32085,-1.53309 -12.47763,-2.44767 0,0 2.90884,-14.54421 2.90884,-14.54421 z"
         id="path3025"
         style="fill:#fc9272;fill-opacity:1;fill-rule:nonzero;stroke:none" />
    </g>
  </g>
  <g
     inkscape:groupmode="layer"
     id="layer3"
     inkscape:label="Layer#2">
    <g
       id="g2"
       inkscape:label="#g3090">
      <path
         inkscape:connector-curvature="0"
         d="m 749.7164,341.34877 c 4.81214,4.12854 10.05723,7.66286 15.49716,10.9043 5.47687,3.48791 11.04153,6.81631 16.65349,10.07996 4.34601,2.4578 8.7969,4.63539 13.31467,6.74954 4.51075,2.07355 8.72032,4.66938 13.00058,7.15911 3.25392,1.78023 6.33785,3.82809 9.46664,5.80891 2.60454,1.58521 5.05595,3.37591 7.61115,5.03241 2.58145,1.77624 5.37672,3.1757 8.02904,4.84217 2.88336,2.22517 5.78629,4.36268 8.78435,6.42827 2.95966,1.7509 6.06302,3.22346 9.07817,4.86944 4.18857,2.81262 8.6298,5.20373 12.8581,7.95133 3.75505,2.45991 7.46701,4.97782 11.1212,7.5907 3.66739,1.65769 7.29871,3.20008 10.68824,5.42027 3.97726,2.77958 8.20513,5.13883 12.41396,7.5395 3.57094,2.06812 7.14629,4.07652 10.8316,5.92877 3.7398,1.60989 6.81549,4.40072 10.43555,6.19376 3.66962,2.26612 7.32311,4.37081 11.22794,6.18235 3.65119,1.80864 7.17989,3.87926 10.6794,5.97008 3.29006,1.81321 6.47358,3.83833 9.70579,5.76475 3.71671,2.28332 7.57484,4.2735 11.4268,6.32189 4.04247,1.80944 7.99363,3.8107 11.83149,6.01802 3.69868,2.0022 7.5641,3.68304 11.35122,5.51157 4.33407,1.64758 8.59669,3.37586 12.7458,5.45674 4.25496,1.83152 8.34936,3.95554 12.78076,5.33647 5.34,1.79491 10.667,3.66924 16.0841,5.22288 5.0542,1.54179 9.8314,3.80347 14.6138,6.02243 4.194,2.22887 8.6527,3.64722 13.1254,5.16004 4.374,1.15099 8.5109,2.97648 12.8225,4.3201 3.9,1.16642 7.2883,3.56332 11.1331,4.82541 3.7933,1.3779 7.4016,3.19156 11.1263,4.72484 2.7189,0.69219 5.1345,2.26245 7.8046,3.07102 4.3845,1.04321 8.7501,2.14966 13.0814,3.40743 5.527,2.06404 10.7721,4.80557 16.1916,7.14327 4.9086,1.51444 9.7579,3.16383 14.5648,4.98365 3.6881,1.35343 7.1383,3.23069 10.9115,4.35219 3.3178,1.36679 6.7122,2.50035 10.0855,3.71543 4.0506,0.9683 7.9974,2.33098 12.0455,3.31446 4.2098,0.85459 8.324,2.30722 12.2731,3.99189 3.8448,1.41799 7.7849,2.56587 11.6538,3.91838 3.4634,1.30222 6.9506,2.44721 10.3524,3.90364 3.6257,1.54141 7.4379,2.53788 11.1355,3.87577 3.5492,0.84232 6.5557,3.09583 10.0027,4.15071 3.0549,0.57598 5.9198,1.83899 8.9421,2.53573 4.4625,1.32376 8.8404,2.91504 13.3143,4.19699 3.5253,1.45692 7.0378,2.87968 10.782,3.64596 3.243,0.18255 6.3687,0.98022 9.5281,1.67895 5.2109,1.19955 10.2335,2.94973 15.3192,4.56413 3.5956,0.84604 7.1216,1.86655 10.6788,2.87131 4.5547,0.88629 9.0869,1.9259 13.5791,3.09671 5.092,1.41458 10.2937,2.21374 15.3748,3.66567 4.4566,0.93969 8.8905,1.95423 13.3399,2.94456 4.4675,0.51956 8.7458,1.8777 13.0968,2.94937 2.9589,0.30264 5.5494,1.86027 8.3467,2.6814 2.9112,1.42193 1.6157,0.66883 3.9304,2.18221 0,0 -8.3571,12.25376 -8.3571,12.25376 l 0,0 c -0.1079,-0.0885 -0.2158,-0.177 -0.3237,-0.26551 0.019,-0.0334 0.038,-0.0668 0.058,-0.10012 -2.7141,-0.94517 -4.4262,-2.00545 -7.2068,-2.35126 -4.2529,-1.05074 -8.4079,-2.38862 -12.7807,-2.87505 -4.7322,-1.06232 -9.4498,-2.11413 -14.1831,-3.15926 -4.9815,-1.42715 -10.1075,-2.14382 -15.0916,-3.58769 -4.5816,-1.23914 -9.2316,-2.19041 -13.8695,-3.17674 -3.7013,-1.07212 -7.3592,-2.08886 -11.1077,-3.00129 -4.659,-1.49748 -9.2479,-3.11482 -14.0281,-4.21478 -3.1266,-0.70052 -6.1276,-1.4305 -9.347,-1.63977 -4.091,-0.87168 -8.07,-2.14572 -11.8675,-3.91668 -4.2655,-1.24732 -8.4632,-2.70788 -12.7032,-4.03392 -3.4551,-0.87029 -6.7694,-2.15734 -10.2522,-2.92027 -3.5321,-1.27274 -6.7464,-3.19074 -10.3536,-4.27648 -3.8754,-1.52237 -7.9906,-2.4459 -11.8106,-4.14637 -3.0984,-1.3346 -6.3006,-2.33982 -9.4592,-3.55371 -4.1519,-1.50595 -8.4359,-2.64426 -12.5471,-4.26834 -3.2042,-1.38941 -6.5415,-2.57449 -9.9725,-3.21967 -4.5445,-1.13441 -9.002,-2.58504 -13.5318,-3.76502 -3.1249,-1.13196 -6.2938,-2.14235 -9.3438,-3.46932 -4.0884,-1.25325 -7.9059,-3.09689 -11.8662,-4.67706 -5.0224,-1.90252 -10.1131,-3.54259 -15.2043,-5.24303 -4.8446,-2.10367 -9.5812,-4.45137 -14.4355,-6.511 -4.5694,-1.32698 -9.1855,-2.42677 -13.7888,-3.63221 -2.9552,-1.06769 -5.6911,-2.52842 -8.7076,-3.41635 -3.4463,-1.46766 -6.8203,-3.08789 -10.3276,-4.41601 -3.6474,-1.3374 -7.0086,-3.23003 -10.6193,-4.65407 -4.4294,-1.39372 -8.6778,-3.24696 -13.1729,-4.43466 -4.9692,-1.70985 -9.9336,-3.32908 -14.618,-5.76091 -4.0786,-1.92202 -8.1583,-3.8467 -12.4599,-5.2133 -5.5424,-1.61566 -11.0114,-3.49069 -16.4777,-5.34272 -5.144,-1.67399 -9.9879,-3.98616 -14.91311,-6.20593 -4.09389,-2.0532 -8.33658,-3.65851 -12.58252,-5.3761 -4.11887,-2.0219 -8.36202,-3.8083 -12.36734,-6.05546 -3.61524,-2.18977 -7.48035,-3.90638 -11.29517,-5.7183 -4.0666,-2.16405 -8.11313,-4.32265 -12.06424,-6.68144 -3.23532,-1.93542 -6.40373,-3.9895 -9.71593,-5.77081 -3.05689,-1.83065 -6.13472,-3.65007 -9.31543,-5.24783 -4.13665,-1.92503 -8.05734,-4.10258 -11.92043,-6.52631 -3.47151,-1.89592 -6.61392,-4.29758 -10.16699,-6.05501 -3.91382,-1.97735 -7.71127,-4.10992 -11.51212,-6.29413 -4.53122,-2.58964 -9.07644,-5.14876 -13.36662,-8.13227 -3.37688,-2.43949 -7.60549,-3.21306 -11.01093,-5.64468 -3.48479,-2.49375 -7.01153,-4.90681 -10.60409,-7.23708 -3.91025,-2.57202 -8.07451,-4.72919 -11.92784,-7.39107 -3.4114,-1.93 -7.02458,-3.5059 -10.32495,-5.64234 -2.81868,-1.95227 -5.61733,-3.90176 -8.26406,-6.08487 -2.74003,-1.73372 -5.64672,-3.17689 -8.31478,-5.02687 -2.46084,-1.65183 -4.8899,-3.33982 -7.41515,-4.90472 -2.94512,-1.90024 -5.88747,-3.80257 -8.96353,-5.50068 -3.88088,-2.28432 -7.70421,-4.64671 -11.80744,-6.53143 -4.90416,-2.30753 -9.75102,-4.68652 -14.47229,-7.3565 -5.66459,-3.29795 -11.28686,-6.65352 -16.81582,-10.17579 -5.86194,-3.52671 -11.57327,-7.30162 -16.77466,-11.76262 0,0 8.89934,-11.86579 8.89934,-11.86579 z"
         id="path3054"
         style="fill:#fee0d2;fill-opacity:1;fill-rule:nonzero;stroke:none" />
      <path
         inkscape:connector-curvature="0"
         d="m 827.69357,903.06436 c -1.26259,4.93098 -1.09447,9.82184 -0.6617,14.82842 0.75543,3.55094 1.59225,7.12116 3.48682,10.25312 2.356,3.39053 5.31239,6.29255 8.19637,9.22506 4.42556,5.21068 8.13638,10.96225 12.44378,16.27732 4.97161,5.50395 9.15053,11.62464 13.51243,17.60127 3.09165,4.37835 6.19935,8.90187 9.90059,12.79817 4.05966,4.67024 7.51043,9.81276 11.47034,14.57204 3.38459,4.67844 6.43834,9.55144 9.84465,14.22254 3.69034,5.3198 6.42284,11.2213 9.06573,17.1123 2.7656,5.2581 4.11117,11.0955 6.61712,16.4466 1.44076,3.243 2.78429,6.5088 4.18663,9.7687 1.59117,4.395 3.83582,8.5004 5.79607,12.731 1.93207,3.6961 4.77052,6.8518 7.20033,10.2341 2.88548,4.2287 6.19946,8.1353 9.60305,11.9502 2.80145,2.8857 5.3341,6.0046 7.76268,9.206 3.72633,5.1127 7.13941,10.4339 10.73601,15.6321 2.50477,4.0896 5.38099,7.9407 7.5812,12.2075 1.42861,2.385 2.5902,4.8102 3.72126,6.5605 1.43844,1.847 1.96223,4.1637 3.06124,6.1546 1.70249,3.7073 3.57873,7.315 5.057,11.123 0.96748,2.1363 1.23531,4.4865 1.87987,6.7136 0.11494,0.3972 0.6377,0.5318 0.90974,0.8431 1.31917,1.8405 2.82326,3.6059 4.56196,5.0736 2.51607,2.1841 4.02779,5.1414 6.16133,7.6409 3.45319,3.8956 6.60312,8.0664 9.45843,12.4184 1.4442,2.2682 2.7624,4.7151 4.9752,6.3081 2.7346,1.9944 4.8054,4.7872 6.6057,7.6131 1.174,2.3623 2.6781,4.5076 3.844,6.8723 0.8109,2.6186 1.8659,3.766 2.1386,7.6185 -0.402,5.4729 -5.3945,9.7059 -11.7827,7.1362 0,0 5.5574,-13.7517 5.5574,-13.7517 l 0,0 c 3.2594,1.326 -9.5233,0.7824 -8.6011,6.1973 0.069,0.4406 0.067,0.8981 0.2059,1.322 0.1616,0.4947 0.933,0.9461 0.6844,1.4033 -0.01,0.012 -1.7816,-3.1071 -1.7924,-3.9833 0.4668,0.476 -0.6772,-1.1486 -1.0274,-1.7159 -0.62257,-1.0083 -1.14255,-1.8733 -1.70684,-2.9285 -0.10391,-0.1942 -0.18351,-0.4006 -0.27526,-0.6009 -0.41577,-1.5154 -2.40027,-2.9898 -3.52811,-3.9426 -3.04808,-2.7465 -5.7279,-5.8089 -7.7115,-9.4309 -2.54476,-3.9084 -5.39342,-7.6256 -8.49487,-11.1077 -1.59453,-1.9736 -2.77118,-4.1693 -4.48598,-5.9133 -2.34182,-2.087 -4.517,-4.4514 -6.37638,-6.9727 -2.71176,-3.5062 -4.03817,-7.2837 -5.06128,-11.5346 -1.1993,-3.2484 -2.90683,-6.2599 -4.28637,-9.4277 -1.06393,-2.0319 -1.37129,-3.5295 -2.44913,-5.1107 -1.62738,-2.5545 -2.9095,-5.2457 -4.45946,-7.8465 -1.85043,-3.7086 -4.50787,-6.9481 -6.58392,-10.5319 -3.44336,-5.0278 -6.76038,-10.1343 -10.33389,-15.0756 -2.19479,-2.8939 -4.46291,-5.7086 -7.01621,-8.2989 -3.76018,-4.2199 -7.41372,-8.5465 -10.61238,-13.2148 -2.93078,-4.1622 -6.44572,-7.9804 -8.59685,-12.6456 -1.99185,-4.3812 -4.35101,-8.6035 -5.97986,-13.1476 -1.30798,-3.1285 -2.62015,-6.237 -3.99632,-9.3379 -2.4787,-5.4368 -3.99247,-11.2474 -6.68825,-16.6034 -2.20536,-4.9566 -4.47111,-9.9275 -7.51272,-14.4308 -3.21628,-4.4189 -6.17104,-8.9892 -9.26656,-13.4797 -3.79171,-4.5728 -7.16314,-9.45766 -10.97318,-14.00349 -3.98612,-4.41202 -7.61661,-9.19893 -10.97073,-14.10247 -4.21348,-5.77975 -8.24604,-11.69972 -13.0608,-17.01353 -3.99878,-4.95127 -7.57524,-10.20289 -11.48933,-15.2076 -3.79444,-3.8612 -7.65208,-7.72295 -10.54006,-12.33974 -2.76784,-5.07597 -4.51327,-10.54009 -5.3443,-16.27285 -0.54093,-6.38713 -0.61321,-12.71657 0.8958,-19.0009 0,0 14.54421,2.90884 14.54421,2.90884 z"
         id="path3078"
         style="fill:#fee0d2;fill-opacity:1;fill-rule:nonzero;stroke:none" />
      <path
         inkscape:connector-curvature="0"
         d="m 1438.131,2029.0587 c 2.7937,4.0005 5.7053,7.9262 8.2783,12.0788 2.5153,3.6426 4.3286,7.7009 6.7705,11.3846 2.4823,3.5586 4.5243,7.4104 6.4515,11.2916 2.5714,4.6062 5.3544,9.0831 7.7787,13.7739 1.6011,2.8104 2.966,5.7709 4.5844,8.5677 2.2251,4.1815 4.2003,8.4663 6.1322,12.7897 2.3972,4.7366 3.8022,9.981 6.1604,14.7155 1.2292,2.9382 2.87,5.6595 4.4558,8.4138 1.6106,3.6249 3.2446,7.1966 5.2641,10.6199 1.9281,2.2418 2.2368,5.5929 4.1246,7.8228 2.2087,3.386 4.368,6.7786 6.2303,10.3719 1.5883,3.2239 3.358,6.3226 4.7104,9.6613 0.6375,2.4674 1.9891,3.9607 3.6071,6.7954 3.28,5.0236 6.4329,10.125 9.6531,15.1871 2.973,4.4748 6.1136,8.8092 9.007,13.3401 2.0272,3.5951 4.2906,6.9834 6.7186,10.3059 2.3193,2.3278 2.6503,5.9956 4.6457,8.485 1.9614,3.3244 4.0027,6.5922 5.8151,10.0026 2.2286,4.13 4.9752,7.9281 7.5167,11.8636 1.0898,1.8824 2.3673,3.7009 3.5654,5.4613 1.9628,2.7895 3.9869,5.511 5.5604,8.5446 1.5843,2.5505 3.2703,4.9518 4.5865,7.6615 1.565,3.5458 4.0832,6.5177 6.1829,9.7379 2.4252,2.5859 3.7131,5.9068 5.578,8.8591 2.816,3.9715 6.2102,7.4889 9.5472,11.0191 1.7006,2.7696 4.0645,4.8023 6.2167,7.1677 2.274,2.8713 4.3153,5.8997 6.807,8.5883 2.5686,2.6665 5.2455,5.226 7.9047,7.8014 1.1668,0.7181 7.0571,11.2494 2.3278,4.0127 -0.355,-0.2531 -1.5003,-0.7315 -1.0652,-0.7593 1.9535,-0.1245 6.745,5.8603 7.9833,7.3562 0,0 -11.434,9.4477 -11.434,9.4477 l 0,0 c -1.5816,-1.9182 -2.6375,-3.5958 -4.9696,-4.6419 -1.1953,-1.5709 -2.5574,-2.8989 -3.1614,-4.7611 -2.8726,-2.7823 -5.7659,-5.5465 -8.5265,-8.4411 -2.5658,-2.8272 -4.8284,-5.8731 -7.1102,-8.93 -1.5055,-2.4031 -4.5628,-3.9128 -5.7526,-6.653 -4.0348,-4.2705 -8.1237,-8.5465 -11.4048,-13.4421 -1.7679,-2.9251 -3.1102,-6.0554 -5.4314,-8.6255 -2.3871,-3.8529 -5.4777,-7.2987 -7.1812,-11.5688 -0.9339,-2.6026 -3.2875,-4.5054 -4.3137,-7.0967 -1.0576,-2.1535 -2.6312,-3.9621 -3.9089,-5.9899 -1.6098,-2.1537 -3.0707,-4.3983 -4.4634,-6.7065 -2.7767,-4.3074 -5.7736,-8.4732 -8.1844,-13.0072 -1.6004,-3.0996 -3.5144,-6.0086 -5.2552,-9.0286 -1.4727,-2.4983 -2.5352,-5.1946 -4.0705,-7.6335 -2.5846,-3.5775 -5.0473,-7.2014 -7.2238,-11.0466 -2.8969,-4.5364 -6.0498,-8.8755 -9.0211,-13.3622 -3.3476,-5.2632 -6.6408,-10.5568 -10.0217,-15.7987 -1.5965,-2.8003 -3.5875,-5.4814 -4.4832,-8.6065 -1.1704,-2.9348 -2.8107,-5.6026 -4.1606,-8.4542 -1.5861,-3.1815 -3.5859,-6.0859 -5.4876,-9.0816 -1.6422,-2.7115 -2.8531,-5.6137 -4.4455,-8.3441 -2.0342,-3.4732 -3.8395,-7.0564 -5.3569,-10.7801 -1.7721,-3.1231 -3.6353,-6.2018 -5.0282,-9.5221 -2.2035,-4.9138 -3.9686,-10.0292 -6.2517,-14.9162 -1.7606,-3.9491 -3.5397,-7.8691 -5.5821,-11.6833 -1.5978,-2.9726 -3.145,-5.9619 -4.7724,-8.9205 -2.4577,-4.7774 -5.3592,-9.2935 -7.9036,-14.0216 -1.6359,-3.3631 -3.4217,-6.6789 -5.57,-9.7432 -2.4714,-3.834 -4.4617,-7.9366 -6.992,-11.7353 -2.2807,-3.7853 -4.9999,-7.2906 -7.4968,-10.9279 0,0 11.8658,-8.8994 11.8658,-8.8994 z"
         id="path3086"
         style="fill:#fee0d2;fill-opacity:1;fill-rule:nonzero;stroke:none" />
      <path
         inkscape:connector-curvature="0"
         d="m 1008.7439,1199.2723 c 1.4654,3.7962 2.8058,7.648 3.8311,11.5881 1.4435,2.4221 2.7384,5.755 3.7371,8.6231 1.6223,4.373 3.2282,8.7489 4.8155,13.1363 1.3599,4.0252 2.929,7.9076 3.8654,12.0772 0.6067,3.2863 1.8539,6.4033 2.5614,9.6957 1.5156,2.9949 1.4538,6.6165 2.7627,9.6354 0.9345,2.4179 1.7291,4.9715 2.4925,7.391 1.0409,2.5761 2.0845,5.0885 3.2086,7.633 1.4132,2.4478 2.5647,4.9897 3.685,7.6001 1.8766,4.0637 3.9543,8.0286 6.019,12.0056 1.9785,3.8889 4.3386,7.5057 6.6813,11.1663 1.7607,2.8714 3.3367,5.8473 4.8533,8.8537 1.1873,2.4628 2.7609,5.2686 3.9046,7.4147 1.5282,2.3536 2.7491,4.7845 4.2741,7.1285 1.7561,2.4859 3.0294,5.2726 4.1297,8.0992 0.7183,1.6725 0.8537,3.4942 0.8662,5.2909 -0.053,5.3685 0.1338,0.9612 -14.852,-0.2051 -0.1733,-0.013 -0.01,-0.3474 -0.012,-0.5211 -0,-0.1922 -0.2022,-0.5822 -0.01,-0.5766 4.9465,0.1437 9.8873,0.4393 14.831,0.6589 -1.2097,-5.0081 2.5662,5.4488 2.6476,5.6568 1.5258,3.1039 2.8891,6.276 4.3096,9.4268 2.075,3.9946 3.8939,8.1146 6.2506,11.9564 2.0616,3.9969 4.9977,7.4023 7.6311,11.0146 1.5505,2.8827 3.5949,5.3938 5.5623,7.9916 3.09,4.2312 6.3001,8.3857 9.3626,12.6395 2.3828,3.4391 5.1882,6.4119 7.9921,9.4794 3.4884,2.9599 6.3713,6.525 9.3533,9.9739 2.3327,2.8538 5.1467,5.2021 7.625,7.9234 1.5967,2.4699 3.456,4.6644 5.2469,6.9926 3.5138,5.167 6.5477,10.6461 9.4529,16.1744 3.0781,4.9652 5.8807,10.1297 9.2697,14.8955 3.7868,5.4675 7.1346,11.2518 9.9408,17.2795 2.5098,5.1257 5.4467,10.0193 7.9186,15.1759 2.6928,4.6414 5.2828,9.3332 8.1358,13.8817 4.3935,6.9653 8.4749,14.1504 11.7827,21.6966 2.0722,4.1275 4.8792,7.7685 6.7986,11.9821 1.2488,3.4241 2.881,6.6905 4.3619,10.021 3.704,7.833 7.3782,15.6506 10.6313,23.6836 2.3418,6.1057 4.6182,12.3049 7.7729,18.0499 1.6712,2.9621 2.9069,6.1177 4.3349,9.2066 2.7177,5.0845 5.3742,10.1996 8.0601,15.3017 2.0539,4.9117 5.0369,9.3032 7.7051,13.8728 1.546,2.439 3.3119,4.56 5.1228,6.785 4.4742,5.1274 7.8057,11.1057 10.8918,17.1334 3.763,7.3964 8.0032,14.5327 11.8892,21.8622 1.8967,3.4486 4.4439,6.4098 7.1617,9.2225 2.3773,2.3607 4.8289,4.6086 6.9314,7.2194 1.3794,2.3357 2.983,4.4981 4.7661,6.5366 2.331,2.6805 4.3938,5.5783 6.6038,8.3634 2.3377,3.1462 4.7263,6.2971 6.6715,9.7023 2.0074,2.9333 3.7838,6.0289 5.2059,9.286 1.8044,3.6181 3.0087,7.6195 5.1728,11.0487 1.8162,3.2282 3.4337,6.5778 4.9043,9.9774 2.7471,4.9642 4.6866,10.2817 6.3645,15.684 2.4507,7.7378 4.1442,15.703 7.1379,23.2601 2.3104,5.7227 4.3789,11.5986 7.0024,17.1893 2.3565,4.8213 4.8057,9.5978 7.2241,14.401 4.1528,7.4059 7.2695,15.307 10.7575,23.0296 2.2029,6.1057 5.8244,11.4353 9.5203,16.7073 4.2511,6.398 8.9813,12.4529 13.6112,18.5763 5.6272,7.2404 10.9444,14.7193 16.3486,22.1292 3.8803,5.5547 7.5273,11.2694 11.3991,16.8297 2.2461,3.0079 4.4228,6.0586 6.6434,9.0889 2.8057,2.8874 3.6723,6.5794 4.8228,10.2801 1.8698,5.7327 3.3319,11.5752 4.7769,17.4287 1.6738,7.4265 3.4599,14.7876 4.4857,22.3403 0.49,5.4056 1.8058,10.6869 2.6246,16.0481 0.5971,4.7183 1.7444,9.3588 2.9847,13.9492 1.4,2.0822 1.2987,10.037 2.4943,11.6666 1.2801,2.5302 3.6076,4.5256 5.4105,6.7127 2.1872,2.1438 4.5075,4.0892 6.5164,6.4044 1.9162,2.0419 3.6547,4.2408 5.3781,6.4587 2.2793,2.4244 3.4858,5.4927 4.8754,8.4488 1.2208,2.5246 1.9339,5.2536 2.4799,7.993 1.7346,9.7031 -4.349,8.6283 -10.0767,9.2822 0,0 3.8942,-14.3119 3.8942,-14.3119 l 0,0 c -7.8971,1.6985 -4.5329,-0.5462 -8.3125,8.2649 -0.049,0.1153 0.047,-0.8146 -0.058,-0.3719 -0.3007,-1.5646 -0.6541,-3.1449 -1.3652,-4.5792 -0.9799,-2.1168 -1.498,-3.9498 -3.1563,-5.6346 -1.6987,-2.1927 -3.3935,-4.3645 -5.3079,-6.3691 -1.6109,-1.6741 -4.5887,-4.0873 -6.4092,-6.2699 -2.888,-3.7322 -6.4926,-6.9158 -8.0148,-11.5698 -1.1148,-4.036 -1.4854,-8.2269 -2.6672,-12.2575 -1.3851,-5.1303 -2.6235,-10.3257 -3.3304,-15.5946 -0.8168,-5.4434 -2.1839,-10.8005 -2.6593,-16.2912 -0.936,-7.0259 -2.6535,-13.8559 -4.1866,-20.7667 -1.3911,-5.6435 -2.7854,-11.2764 -4.6065,-16.798 -0.727,-2.5519 -0.637,-3.716 -2.573,-5.7187 -2.2756,-3.1273 -4.5195,-6.2689 -6.838,-9.3619 -3.8059,-5.4734 -7.4003,-11.0919 -11.2092,-16.5631 -5.3521,-7.343 -10.6185,-14.7536 -16.1967,-21.9247 -4.7362,-6.2699 -9.5787,-12.4671 -13.9307,-19.0156 -4.2124,-6.0303 -8.3142,-12.1688 -10.8889,-19.1139 -3.3941,-7.5388 -6.4363,-15.2446 -10.4903,-22.4686 -2.4882,-4.9636 -4.9938,-9.9 -7.4492,-14.8694 -2.6673,-5.8931 -4.9809,-11.9629 -7.3395,-17.9835 -3.0619,-7.9299 -5.0357,-16.1839 -7.5025,-24.3079 -1.4893,-4.9429 -3.3779,-9.7136 -5.8452,-14.2558 -1.1591,-2.8677 -2.6177,-5.6249 -4.09,-8.3404 -2.2809,-4.1067 -4.12,-8.4363 -6.0081,-12.7353 -1.0812,-2.8758 -3.0363,-5.3521 -4.5852,-7.9848 -1.1237,-2.7648 -3.6857,-4.9989 -5.2425,-7.5278 -2.064,-2.616 -3.9788,-5.3507 -6.1755,-7.8463 -1.9951,-2.3137 -3.9306,-4.7042 -5.4391,-7.3718 -1.7555,-2.0006 -3.8484,-3.8635 -5.734,-5.8107 -3.6721,-3.8188 -7.0506,-7.8982 -9.5919,-12.5781 -3.9067,-7.4007 -8.2129,-14.5847 -11.9899,-22.0561 -2.5983,-5.1093 -5.3697,-10.196 -9.1852,-14.5144 -2.2932,-2.8185 -4.5163,-5.6545 -6.4632,-8.7303 -2.7061,-4.7679 -5.8881,-9.2805 -7.9883,-14.3864 -2.7986,-5.328 -5.5912,-10.6558 -8.3954,-15.9809 -1.2916,-2.7942 -2.3599,-5.6744 -3.8948,-8.3314 -3.3936,-6.2609 -5.9944,-12.9279 -8.4983,-19.5837 -3.1878,-7.8794 -6.8159,-15.5341 -10.4357,-23.2228 -1.498,-3.3692 -3.1334,-6.6853 -4.415,-10.1419 -1.604,-4.3043 -5.3321,-7.5731 -6.7966,-11.9776 -2.9587,-6.8916 -6.7927,-13.3799 -10.7517,-19.7376 -3.1437,-5.0334 -6.0365,-10.2041 -8.9528,-15.3705 -2.4772,-5.2405 -5.5449,-10.1512 -8.0173,-15.3873 -2.3304,-5.2348 -5.3778,-10.1562 -8.5745,-14.9013 -3.7245,-5.3174 -6.9263,-10.9883 -10.277,-16.5423 -2.5124,-4.7811 -5.1251,-9.5093 -8.0798,-14.0312 -1.5745,-2.0472 -3.2774,-4.0225 -4.6949,-6.1806 -0.046,-0.07 0.1486,0.077 0.2228,0.1147 -2.5444,-2.8147 -5.4974,-5.2093 -7.8631,-8.1922 -2.9249,-3.3829 -5.7586,-6.8328 -9.1612,-9.756 -3.0862,-3.531 -6.3494,-6.8733 -9.0239,-10.7633 -2.9605,-4.164 -6.1154,-8.2008 -9.1295,-12.323 -2.0129,-2.6609 -4.1453,-5.2703 -5.7276,-8.2142 -2.8731,-3.9541 -6.056,-7.7045 -8.3283,-12.0634 -2.63,-4.3879 -4.8023,-9.0054 -7.0978,-13.5729 -1.5075,-3.3949 -3.0262,-6.7768 -4.6067,-10.1391 -1.3782,-3.6263 -3.1314,-7.1211 -3.6465,-11.0172 4.944,-0.29 9.885,-0.6356 14.8319,-0.87 0.3148,-0.015 0.3326,0.9175 0.019,0.9451 -4.9255,0.4345 -9.8739,0.5515 -14.8109,0.8272 0,-0.063 0,-0.1265 0,-0.1898 -0.01,-1.556 0.4495,1.3373 0.1316,-0 -0.7272,-1.9025 -1.5532,-3.7894 -2.775,-5.4318 -1.4199,-2.2296 -2.6475,-4.5336 -4.0336,-6.766 -1.8268,-2.9522 -3.3339,-6.1025 -4.9422,-9.1807 -1.2607,-2.5842 -2.6423,-5.1063 -4.1291,-7.5648 -2.4745,-4.054 -5.187,-7.9598 -7.2969,-12.2415 -2.2416,-4.3318 -4.4716,-8.6562 -6.5213,-13.077 -1.0603,-2.5506 -2.1949,-4.9502 -3.5821,-7.3617 -1.1826,-2.6777 -2.2165,-5.3915 -3.39,-8.0619 -0.9973,-2.7384 -1.7218,-5.5606 -2.817,-8.2718 -1.1454,-3.7432 -1.8778,-7.6029 -3.2113,-11.3007 -0.631,-3.2321 -2.0309,-6.2475 -2.5206,-9.5059 -0.7726,-3.5559 -2.2158,-6.8168 -3.3407,-10.2641 -1.5986,-4.4758 -3.251,-8.9291 -4.9025,-13.3847 -1.0883,-3.3408 -2.77758,-6.4232 -4.05555,-9.6902 -1.07428,-4.2124 -2.76286,-8.2239 -4.01339,-12.3847 0,0 14.54424,-2.9089 14.54424,-2.9089 z"
         id="path3088"
         style="fill:#fee0d2;fill-opacity:1;fill-rule:nonzero;stroke:none" />
    </g>
  </g>
</svg>
