<?xml version="1.0" encoding="UTF-8" standalone="no"?>
<!-- Created with Inkscape (http://www.inkscape.org/) -->

<svg
   xmlns:dc="http://purl.org/dc/elements/1.1/"
   xmlns:cc="http://creativecommons.org/ns#"
   xmlns:rdf="http://www.w3.org/1999/02/22-rdf-syntax-ns#"
   xmlns:svg="http://www.w3.org/2000/svg"
   xmlns="http://www.w3.org/2000/svg"
   xmlns:xlink="http://www.w3.org/1999/xlink"
   xmlns:sodipodi="http://sodipodi.sourceforge.net/DTD/sodipodi-0.dtd"
   xmlns:inkscape="http://www.inkscape.org/namespaces/inkscape"
   id="svg2"
   version="1.1"
   inkscape:version="0.48.4 r9939"
   width="1428"
   height="2523"
   sodipodi:docname="27413-52.svg">
  <metadata
     id="metadata8">
    <rdf:RDF>
      <cc:Work
         rdf:about="">
        <dc:format>image/svg+xml</dc:format>
        <dc:type
           rdf:resource="http://purl.org/dc/dcmitype/StillImage" />
        <dc:title />
      </cc:Work>
    </rdf:RDF>
  </metadata>
  <defs
     id="defs6" />
  <sodipodi:namedview
     pagecolor="#ffffff"
     bordercolor="#666666"
     borderopacity="1"
     objecttolerance="10"
     gridtolerance="10"
     guidetolerance="10"
     inkscape:pageopacity="0"
     inkscape:pageshadow="2"
     inkscape:window-width="1280"
     inkscape:window-height="732"
     id="namedview4"
     showgrid="false"
     inkscape:zoom="0.18707887"
     inkscape:cx="-223.27339"
     inkscape:cy="1257.8136"
     inkscape:window-x="-8"
     inkscape:window-y="-8"
     inkscape:window-maximized="1"
     inkscape:current-layer="svg2" />
  <image
     y="-1.6589077"
     x="3.5062988"
     id="image2992"
     xlink:href="file:///Users/juls/Documents/UUlm/Projects/2013/BrokenInterfaces/GIT%20Repo/brokenInterface/public-dataset/input/cropped-display/27413-52.jpg"
     height="2523"
     width="1428" />
  <g
     inkscape:groupmode="layer"
     id="layer1"
     inkscape:label="Layer">
    <path
       style="fill:#de2d26;fill-opacity:1;fill-rule:nonzero;stroke:none"
       id="g0"
       d="m -24.56101,213.4158 c 4.702601,-0.99803 9.502056,-1.36999 14.292829,-1.62198 5.4135723,-0.23407 10.83343882,-0.23677 16.2509648,-0.23092 4.7358022,0.025 9.4148142,-0.88712 14.1228652,-1.33368 4.383253,-0.37351 8.783156,-0.48414 13.180488,-0.5046 2.853716,0.22898 5.54358,-0.12098 8.31088,-0.7215 3.956771,-0.84116 8.014058,-1.00014 12.04501,-1.10906 2.930757,-0.0815 5.862563,-0.0516 8.793915,-0.0469 2.425184,7.3e-4 4.850359,0.0104 7.275553,0.009 3.31985,-0.005 6.6396,-0.0303 9.959412,-0.0417 3.512373,-0.005 7.024698,0.0237 10.537044,0.0322 3.156048,0.007 6.311894,-0.0107 9.467929,-0.0186 5.00664,-0.0245 10.01322,-0.0454 15.01992,-0.0572 4.41947,0.15657 8.79063,-0.65984 13.15448,-1.24311 3.48193,-0.53252 7.01251,-0.37916 10.49882,-0.81589 7.49361,-0.84277 14.98136,-1.77495 22.44062,-2.88707 5.86701,-1.27107 11.95953,-1.28938 17.82964,-2.46521 5.44974,-1.06906 10.94955,-1.83466 16.40582,-2.8765 7.36346,-1.38372 14.67099,-2.97655 22.09932,-3.99088 3.4511,-0.0404 6.67389,-0.94338 9.98,-1.75842 3.18538,-0.42682 6.27279,-1.29051 9.42362,-1.91475 3.94576,-0.59845 7.9112,-1.16836 11.79354,-2.11381 3.74304,-1.02526 7.52665,-1.82577 11.38149,-2.27213 3.04194,-0.74503 6.04375,-1.58192 8.99502,-2.63736 3.9664,-1.24149 7.89975,-2.53055 11.69887,-4.2235 2.93326,-1.10321 5.71194,-2.53628 8.67306,-3.56625 1.63137,-0.69948 2.69091,-1.98454 4.0422,-3.11788 2.75913,-1.87352 5.6119,-3.58287 8.47992,-5.28287 2.89423,-1.9106 5.68607,-4.00634 8.3085,-6.27502 4.0116,-3.25813 8.37098,-6.04469 12.65141,-8.93063 7.47737,-4.98118 14.96903,-9.93847 22.49315,-14.84955 4.77582,-2.90827 9.12707,-6.44253 13.82261,-9.46277 2.91349,-1.97986 6.11023,-3.48532 8.80034,-5.77902 3.83817,-3.43877 7.65888,-6.93703 11.79642,-10.01593 2.67554,-2.40955 5.86937,-4.09741 8.7353,-6.24437 6.31915,-4.59619 13.02227,-8.626777 19.58487,-12.858796 5.19566,-3.387216 10.59793,-6.399862 15.99947,-9.43023 4.05814,-2.043977 7.77403,-4.651736 11.76094,-6.834203 5.40313,-2.634976 10.59684,-5.690656 15.61408,-8.998856 3.10271,-1.844609 5.98503,-3.968667 8.88066,-6.115159 5.44736,-3.620783 11.07023,-6.986737 16.67663,-10.357894 3.79248,-2.042889 7.06097,-4.825164 10.51116,-7.366252 4.32736,-3.338067 9.28841,-5.686584 13.92092,-8.552319 3.49315,-2.225558 6.76968,-4.735099 10.11112,-7.167094 3.11702,-2.652119 6.75888,-4.652329 10.1965,-6.868523 6.68432,-5.040912 14.092,-8.95217 21.22699,-13.2887332 3.71813,-2.2534377 7.36388,-4.6509173 10.70348,-7.4404009 3.77622,-3.3327759 8.23609,-5.8371958 12.59378,-8.3233808 9.02929,-4.9415051 18.00906,-9.9595311 26.83987,-15.2510651 3.8571,-2.499387 8.00485,-4.486308 12.01692,-6.710651 5.83337,-2.887838 11.86744,-5.393333 17.79249,-8.121132 5.17825,-2.591136 10.43236,-5.029037 15.74355,-7.334724 0.66191,-0.284475 1.32511,-0.566205 1.99575,-0.829564 0,0 4.48418,10.435009 4.48418,10.435009 l 0,0 c -0.56536,0.276885 -1.13224,0.550678 -1.69914,0.824426 -5.21932,2.525589 -10.44137,5.045873 -15.64009,7.613684 -5.68323,2.568226 -11.48738,4.870869 -17.12561,7.491158 -3.86763,2.11883 -7.77533,4.181839 -11.42299,6.675346 -8.88104,5.5433159 -18.02009,10.6248647 -27.29507,15.4767099 -3.73729,2.0037634 -7.65483,3.9503037 -10.83608,6.7869311 -3.74656,3.248136 -7.81224,6.103494 -12.01909,8.724158 -7.05713,4.349506 -14.41006,8.218876 -21.12061,13.114671 -3.27267,2.038938 -6.80032,3.763047 -9.69898,6.319594 -3.58387,2.57813 -6.94496,5.485725 -10.74236,7.780012 -4.39932,2.701898 -9.10825,4.89538 -13.25146,7.994364 -3.75151,2.662835 -7.17702,5.779571 -11.24845,7.983068 -5.3048,3.239496 -10.62979,6.445632 -15.90077,9.736614 -3.06063,2.190103 -6.11982,4.357881 -9.283,6.394301 -5.30267,3.562655 -10.72629,6.982102 -16.53797,9.661425 -3.94546,2.037714 -7.59358,4.556067 -11.54974,6.569393 -5.18293,2.98038 -10.27683,6.085484 -15.30323,9.328743 -6.39772,4.12203 -12.98007,7.96152 -19.22141,12.32257 -2.88848,2.02141 -5.99513,3.72987 -8.61356,6.11951 -4.02492,2.98353 -7.57639,6.59514 -11.42407,9.79763 -3.08673,2.3893 -6.44568,4.25055 -9.72861,6.33667 -4.6244,3.14071 -8.89713,6.78547 -13.67936,9.70956 -7.47468,4.94025 -14.95231,9.87543 -22.48387,14.72811 -3.92955,2.58417 -7.97598,5.01556 -11.64242,7.97012 -3.1646,2.68091 -6.45309,5.24801 -9.97302,7.45125 -2.38276,1.38048 -4.76341,2.78143 -7.07995,4.25127 -2.4569,1.82724 -4.52436,4.17573 -7.59551,5.07531 -2.62111,0.8292 -4.99421,2.30083 -7.59009,3.20778 -4.10171,1.87615 -8.36069,3.30369 -12.66476,4.63858 -3.75508,1.27027 -7.57084,2.35155 -11.46243,3.12176 -3.41617,0.39254 -6.7324,1.24831 -10.04989,2.13396 -4.00989,0.91823 -8.0785,1.56463 -12.15187,2.11178 -2.99646,0.62598 -5.96165,1.41656 -9.00212,1.79155 -3.64956,0.87082 -7.21892,2.00616 -11.0142,2.1244 -7.26455,1.12981 -14.43344,2.69956 -21.66617,4.00104 -5.4309,0.95642 -10.90391,1.63534 -16.31528,2.69227 -6.06313,1.15412 -12.25013,1.60896 -18.31628,2.77773 -7.63992,1.1109 -15.30866,2.05292 -22.99547,2.76675 -3.33656,0.27927 -6.68907,0.21783 -10.01116,0.67012 -4.89934,0.76346 -9.82175,1.66132 -14.80137,1.49597 -5.0067,-0.0118 -10.01327,-0.0327 -15.01991,-0.0572 -3.156005,-0.008 -6.31182,-0.0253 -9.467837,-0.0185 -3.512462,0.009 -7.024904,0.0376 -10.537394,0.0323 -3.322885,-0.0115 -6.645712,-0.0365 -9.968621,-0.0454 -2.425818,-0.005 -4.851638,-0.003 -7.277447,-0.0117 -2.801121,-0.001 -5.602547,0.0294 -8.40276,0.10116 -3.330698,0.13128 -6.694701,0.18262 -9.975749,0.81952 -3.51468,0.77112 -7.011001,1.21309 -10.619236,1.0125 -4.080174,0.082 -8.164029,0.15088 -12.231028,0.52118 -5.06306,0.47711 -10.092805,1.47213 -15.1910909,1.38853 -5.22498486,0.0256 -10.451429,0.0348 -15.6738014,0.21943 -4.2354157,0.21542 -8.4635017,0.54497 -12.6457447,1.28038 0,0 -2.246191,-11.23096 -2.246191,-11.23096 z"
       inkscape:connector-curvature="0"
       inkscape:label="#path3011" />
  </g>
  <g
     inkscape:groupmode="layer"
     id="layer2"
     inkscape:label="Ebene" />
</svg>
