<?xml version="1.0" encoding="UTF-8" standalone="no"?>
<!-- Created with Inkscape (http://www.inkscape.org/) -->

<svg
   xmlns:dc="http://purl.org/dc/elements/1.1/"
   xmlns:cc="http://creativecommons.org/ns#"
   xmlns:rdf="http://www.w3.org/1999/02/22-rdf-syntax-ns#"
   xmlns:svg="http://www.w3.org/2000/svg"
   xmlns="http://www.w3.org/2000/svg"
   xmlns:xlink="http://www.w3.org/1999/xlink"
   xmlns:sodipodi="http://sodipodi.sourceforge.net/DTD/sodipodi-0.dtd"
   xmlns:inkscape="http://www.inkscape.org/namespaces/inkscape"
   id="svg2"
   version="1.1"
   inkscape:version="0.48.4 r9939"
   width="294"
   height="486"
   sodipodi:docname="27413-24.svg"
   inkscape:export-filename="/tmp/brokenInterface/data-analysis/data/display-damages-png/27413-24.png"
   inkscape:export-xdpi="107.76"
   inkscape:export-ydpi="107.76">
  <metadata
     id="metadata8">
    <rdf:RDF>
      <cc:Work
         rdf:about="">
        <dc:format>image/svg+xml</dc:format>
        <dc:type
           rdf:resource="http://purl.org/dc/dcmitype/StillImage" />
      </cc:Work>
    </rdf:RDF>
  </metadata>
  <defs
     id="defs6" />
  <sodipodi:namedview
     pagecolor="#ffffff"
     bordercolor="#666666"
     borderopacity="1"
     objecttolerance="10"
     gridtolerance="10"
     guidetolerance="10"
     inkscape:pageopacity="0"
     inkscape:pageshadow="2"
     inkscape:window-width="1280"
     inkscape:window-height="732"
     id="namedview4"
     showgrid="false"
     inkscape:zoom="1.9423868"
     inkscape:cx="122.48523"
     inkscape:cy="75.831217"
     inkscape:window-x="-8"
     inkscape:window-y="-8"
     inkscape:window-maximized="1"
     inkscape:current-layer="svg2" />
  <image
     width="294"
     height="486"
     xlink:href="file:///C:/Users/Surface/Desktop/CHI2013%20BI%20GitRepo/public-dataset/input/cropped-display/27413-24.png"
     id="image10"
     x="0"
     y="0" />
  <g
     inkscape:groupmode="layer"
     id="layer1"
     inkscape:label="Layer" />
  <path
     style="fill:#de2d26;fill-opacity:1;stroke:none"
     id="path6195"
     d="m -4.3480125,250.67122 c 1.5403159,-0.23287 3.1013476,-0.12703 4.62978864,0.12827 1.16737236,0.14235 2.28803666,0.50019 3.43753056,0.73065 1.1259392,0.12895 2.2436028,0.28297 3.3627888,0.46656 1.0692372,0.15983 2.141462,0.19063 3.1976465,0.42926 0.84571,0.21871 1.715887,0.28519 2.584916,0.32735 1.05225,0.0307 2.080614,0.28653 3.124072,0.41325 1.062759,0.0386 2.102602,0.19229 3.147712,0.37905 1.01179,0.19426 2.044651,0.18033 3.06137,0.32393 1.107771,0.20306 2.22002,0.36452 3.32812,0.56538 1.521342,0.22698 3.048118,0.43392 4.549211,0.77457 1.195912,0.23778 2.338848,0.66757 3.525966,0.9375 1.131422,0.36499 2.300839,0.57526 3.45984,0.83109 1.338109,0.36816 2.671057,0.7562 4.016751,1.09638 1.055409,0.3678 2.126144,0.65179 3.234926,0.79093 1.136128,0.19915 2.236653,0.56484 3.318399,0.95859 1.059517,0.33199 2.090791,0.73403 3.118488,1.15256 1.006419,0.47642 1.920608,1.11019 2.84656,1.72218 0.88961,0.69517 1.870309,1.22679 2.878811,1.72105 1.007503,0.40136 2.019378,0.79123 3.024611,1.20014 1.041301,0.3319 2.031462,0.78175 2.980345,1.32068 0.800295,0.51573 1.438409,1.21932 2.134631,1.85573 0.42509,0.25064 0.748515,0.69843 1.269619,0.65956 0.902246,0.13673 1.807242,0.22105 2.718395,0.26531 1.208134,0.15793 2.408285,0.35561 3.590402,0.65049 1.065279,0.25062 2.111,0.58221 3.124223,0.99461 0.917578,0.33172 1.81639,0.71926 2.693622,1.14652 1.307629,0.64071 0.401528,2.48998 -0.906101,1.84927 l 0,0 c -0.832577,-0.41103 -1.691892,-0.77124 -2.56413,-1.08851 -0.922949,-0.37597 -1.875127,-0.6781 -2.846552,-0.90392 -1.052187,-0.26306 -2.118864,-0.43468 -3.192196,-0.5916 -0.909313,-0.0449 -1.816035,-0.11481 -2.714932,-0.26515 -1.0295,-0.0833 -1.79126,-0.55774 -2.571741,-1.20579 -0.576071,-0.53862 -1.115512,-1.11497 -1.757692,-1.57895 -0.867233,-0.50048 -1.780966,-0.8929 -2.734389,-1.20093 -1.048873,-0.42734 -2.107341,-0.82824 -3.15447,-1.25832 -1.087432,-0.53307 -2.14634,-1.10813 -3.108344,-1.85247 -0.813067,-0.53797 -1.614311,-1.09499 -2.487707,-1.5328 -1.005549,-0.40989 -2.014436,-0.80266 -3.051711,-1.1267 -0.934482,-0.34744 -1.890194,-0.65721 -2.869325,-0.84886 -1.18963,-0.15446 -2.348311,-0.43446 -3.479653,-0.83741 -1.324817,-0.33654 -2.638988,-0.71373 -3.955162,-1.08178 -1.164101,-0.25748 -2.340343,-0.46705 -3.476474,-0.83483 -1.186511,-0.27478 -2.331822,-0.69169 -3.526007,-0.93751 -1.468035,-0.34202 -2.96779,-0.52328 -4.455657,-0.75535 -1.087478,-0.19728 -2.179047,-0.35523 -3.266208,-0.55512 -1.030415,-0.16827 -2.09253,-0.10495 -3.118156,-0.33327 -1.008878,-0.18034 -2.008779,-0.3256 -3.03545,-0.36216 -0.994095,-0.1224 -1.974507,-0.36158 -2.975136,-0.40051 -0.989017,-0.0492 -1.978794,-0.13069 -2.9417212,-0.37642 -1.0123083,-0.23355 -2.0492176,-0.22861 -3.0731628,-0.40487 -1.1443941,-0.18783 -2.2868451,-0.33822 -3.4370563,-0.48015 -1.1273814,-0.22917 -2.2268402,-0.57556 -3.37152063,-0.71843 -1.31876267,-0.22372 -2.66708607,-0.32307 -3.99685847,-0.12043 -1.4415255,0.20594 -1.7327576,-1.83269 -0.2912321,-2.03862 z"
     inkscape:connector-curvature="0" />
  <path
     style="fill:#de2d26;fill-opacity:1;stroke:none"
     id="path6199"
     d="m 99.89782,259.65409 c 0.78174,1.10476 1.52507,2.23417 2.29302,3.34862 0.69871,0.82497 1.10705,1.84229 1.74919,2.70366 0.40444,0.67392 0.83227,1.32347 1.29043,1.96113 0.54039,0.55168 1.09429,1.07615 1.68217,1.57372 0.6882,0.42647 1.2138,1.00374 1.72677,1.61711 0.59926,0.77747 0.90892,1.71232 1.26728,2.61213 0.25111,0.81566 0.7228,1.5188 1.20797,2.20996 0.52647,0.7583 1.11826,1.46218 1.6994,2.17753 0.4984,0.55174 1.03753,1.06323 1.5435,1.60771 0.98372,1.07363 -0.53462,2.46483 -1.51835,1.3912 l 0,0 c -0.52389,-0.58452 -1.11339,-1.10856 -1.6266,-1.70425 -0.60697,-0.75542 -1.23236,-1.49416 -1.78539,-2.29178 -0.57368,-0.82251 -1.12533,-1.6685 -1.43496,-2.63159 -0.27626,-0.6999 -0.5054,-1.4318 -0.93756,-2.0558 -0.43352,-0.52547 -0.87835,-1.00135 -1.47379,-1.36146 -0.7143,-0.60679 -1.4032,-1.24266 -2.02523,-1.94618 -0.4534,-0.63703 -0.88911,-1.27964 -1.28501,-1.9536 -0.63063,-0.89055 -1.09288,-1.88568 -1.77569,-2.74122 -0.739841,-1.07424 -1.459927,-2.16019 -2.205211,-3.23044 -0.909656,-1.13707 0.698404,-2.42352 1.608061,-1.28645 z"
     inkscape:connector-curvature="0" />
  <path
     style="fill:#de2d26;fill-opacity:1;stroke:none"
     id="path6203"
     d="m 143.7287,271.90655 c -1.07352,0.64362 -2.14986,1.29735 -3.27567,1.84671 -0.99991,0.50883 -2.05419,0.91658 -3.12358,1.25443 -1.02428,0.35753 -2.04788,0.72318 -3.08811,1.03249 -1.06978,0.21504 -2.12139,0.50807 -3.19474,0.7075 -0.99111,0.14596 -1.96315,0.3063 -2.96735,0.30664 -0.88896,0.16625 -1.80052,0.21002 -2.6837,0.40024 -1.00998,0.24288 -2.03649,0.37502 -3.04623,0.61626 -1.02838,0.34065 -2.00137,0.80563 -3.04113,1.1141 -0.98691,0.27148 -2.0104,0.26065 -3.00334,0.48904 -0.79017,0.13337 -1.55394,0.36885 -2.29759,0.66659 -0.0705,0.039 -0.14094,0.078 -0.21141,0.11698 -1.29117,0.67325 -2.2433,-1.15274 -0.95212,-1.826 l 0,0 c 0.13779,-0.0696 0.27559,-0.13921 0.41339,-0.20881 0.84121,-0.32361 1.69959,-0.60681 2.59023,-0.75662 0.95526,-0.21594 1.92691,-0.24394 2.88207,-0.4575 1.0746,-0.30946 2.06556,-0.8331 3.14179,-1.14083 1.03212,-0.24614 2.07992,-0.38633 3.11254,-0.63094 1.02274,-0.20086 2.06597,-0.30189 3.09851,-0.44183 0.8784,0.003 1.72279,-0.15038 2.59099,-0.27252 1.003,-0.18321 1.98335,-0.46571 2.98443,-0.65718 1.03075,-0.30243 2.04156,-0.6723 3.05653,-1.02288 0.97515,-0.30181 1.93256,-0.68097 2.84254,-1.14321 1.12202,-0.53586 2.1771,-1.21033 3.25099,-1.83458 1.30243,-0.65121 2.22339,1.1907 0.92096,1.84192 z"
     inkscape:connector-curvature="0" />
  <path
     style="fill:#de2d26;fill-opacity:1;stroke:none"
     id="path6205"
     d="m 115.34598,279.62856 c 1.38955,0.27168 2.36029,0.80384 3.36052,1.78939 0.64916,0.73013 1.07369,1.61025 1.48503,2.48615 0.28481,0.69505 0.64714,1.37965 1.15783,1.93659 0.5803,0.51388 1.19025,1.00373 1.80513,1.47895 0.62164,0.55041 1.23048,1.10892 1.78123,1.73135 0.45495,0.67922 0.8062,1.38195 1.41928,1.93683 0.6701,0.63012 1.33092,1.23971 1.88357,1.98201 0.68428,0.75201 1.09634,1.68516 1.55635,2.57842 0.45113,0.89096 0.9308,1.76369 1.34007,2.67712 0.26655,0.72384 0.56357,1.46838 1.07586,2.05687 0.53306,0.65372 1.10857,1.27159 1.61401,1.95025 0.49292,0.50605 0.83194,1.10362 1.12311,1.73978 0.5874,1.33243 -1.29694,2.16314 -1.88434,0.83071 l 0,0 c -0.21014,-0.51123 -0.51493,-0.94625 -0.89691,-1.34928 -0.47846,-0.65978 -1.0507,-1.24148 -1.55757,-1.87711 -0.58961,-0.7562 -1.05328,-1.5994 -1.35501,-2.51263 -0.39023,-0.88044 -0.85708,-1.71645 -1.2907,-2.57419 -0.41068,-0.80012 -0.7682,-1.63745 -1.38801,-2.30554 -0.46445,-0.65582 -1.07204,-1.14548 -1.64042,-1.70495 -0.62549,-0.61179 -1.13753,-1.29209 -1.54348,-2.06583 -0.46526,-0.52912 -0.9817,-0.99889 -1.50392,-1.47029 -0.71538,-0.56225 -1.44275,-1.12097 -2.09523,-1.75465 -0.6077,-0.72326 -1.12078,-1.52712 -1.46548,-2.41036 -0.30789,-0.65791 -0.61081,-1.32302 -1.06675,-1.89429 -0.69518,-0.68695 -1.24957,-1.03254 -2.25272,-1.224 -1.43635,-0.23939 -1.0978,-2.2707 0.33855,-2.0313 z"
     inkscape:connector-curvature="0" />
  <path
     style="fill:#fc9272;fill-opacity:1;stroke:none"
     id="path6207"
     d="m 134.44681,303.14418 c 0.64362,1.07352 1.29735,2.14986 1.84671,3.27567 0.51462,1.02196 0.49986,2.16487 0.69418,3.26084 0.12288,1.00183 0.45695,1.94057 0.81224,2.87765 0.43714,1.02259 0.95122,2.00833 1.43102,3.0108 0.56457,0.85447 1.15058,1.69375 1.70092,2.55902 0.47306,0.9262 0.96816,1.84216 1.44151,2.76922 0.49688,0.80554 1.04332,1.57694 1.57179,2.36192 0.61365,0.91138 1.29663,1.7737 1.88559,2.70189 0.48721,0.8975 1.10232,1.70349 1.70032,2.52813 0.75442,0.97833 1.5963,1.88005 2.3627,2.84911 0.79795,1.0489 1.58151,2.10996 2.36799,3.16833 0.94805,1.34013 2.23862,2.37465 3.41217,3.50636 1.47517,1.43951 2.91134,2.92321 4.22812,4.50974 1.22698,1.53069 2.36463,3.13126 3.51585,4.71927 1.20233,1.54649 2.32743,3.14672 3.61519,4.62414 1.25227,1.45636 2.59252,2.83312 3.87668,4.26253 0.95959,1.12661 1.79219,2.35489 2.579,3.60625 0.68689,1.2581 1.47722,2.45846 2.38652,3.56614 1.20297,1.44339 2.33429,2.94272 3.54622,4.3787 1.28675,1.41514 2.45781,2.91658 3.44157,4.55651 0.81187,1.43885 1.54635,2.88805 2.51496,4.22901 1.17262,1.33805 2.41524,2.61705 3.69236,3.85593 1.26677,1.30804 2.48201,2.66245 3.6351,4.07125 1.02725,1.32448 1.76409,2.84131 2.78695,4.16678 1.37409,1.43515 2.77277,2.84631 4.17373,4.25513 1.58801,1.53954 3.07779,3.17646 4.49394,4.87451 1.22781,1.56469 2.55021,3.04808 3.91071,4.49736 1.28318,1.54433 2.70144,2.96339 4.08515,4.41521 1.29891,1.36986 2.45574,2.86456 3.69418,4.28821 1.10743,1.25167 2.28329,2.44042 3.45795,3.62845 0.99688,0.97353 1.81539,2.09772 2.82727,3.05599 1.05661,1.10778 2.20579,2.12287 3.31998,3.17188 1.14924,0.95284 2.32028,1.8751 3.47024,2.82689 1.26547,1.03676 2.45979,2.15264 3.73913,3.1721 1.13556,0.88456 2.19533,1.85865 3.23704,2.85024 0.94437,0.97263 1.97845,1.84847 3.05811,2.66631 1.42504,0.99441 2.78769,2.06773 4.15944,3.1333 1.31745,0.89354 2.59913,1.83632 3.90653,2.74391 1.20405,0.89752 2.37806,1.83832 3.53552,2.79562 1.24681,0.9997 2.52588,1.94264 3.8719,2.80288 1.44212,0.93064 2.63041,2.19256 3.87747,3.35948 1.73992,1.68644 3.54423,3.29122 5.42637,4.81648 1.71724,1.23625 3.33546,2.59905 4.88036,4.04326 0.79212,0.87029 1.58648,1.71985 2.44206,2.52693 0.65042,0.49986 1.28994,1.0427 2.02197,1.42048 0.84252,0.26905 1.61473,0.70149 2.4304,1.03343 1.21933,0.46397 2.25946,1.2464 3.28147,2.03984 1.21494,0.89018 2.60061,1.45817 3.97992,2.03324 1.37039,0.50973 2.70905,1.09078 3.98975,1.79643 1.14593,0.63699 2.30753,1.24449 3.4601,1.86911 0.91645,0.52009 1.86888,0.97876 2.77821,1.51219 1.28141,0.75166 2.48405,1.6268 3.60466,2.60014 0.89072,0.68262 1.7339,1.46072 2.71631,2.01208 0.80136,0.46103 1.63403,0.86481 2.43759,1.32059 0.5309,0.37321 0.29646,0.20234 0.70666,0.508 1.16713,0.87074 -0.0643,2.52132 -1.23142,1.65058 l 0,0 c -0.32469,-0.24256 -0.15599,-0.11719 -0.50623,-0.37592 -0.79254,-0.4725 -1.64432,-0.84625 -2.43734,-1.32045 -1.08533,-0.63972 -2.05729,-1.45523 -3.03816,-2.24204 -1.02324,-0.89415 -2.12779,-1.69056 -3.29972,-2.38006 -0.88354,-0.52694 -1.81887,-0.96691 -2.71264,-1.47505 -1.15688,-0.62848 -2.32431,-1.23717 -3.47496,-1.87725 -1.21196,-0.67375 -2.48779,-1.21059 -3.78531,-1.69763 -1.54771,-0.64535 -3.09548,-1.30021 -4.45164,-2.30837 -0.87596,-0.68253 -1.7545,-1.36981 -2.8036,-1.76215 -0.87754,-0.36664 -1.72055,-0.80563 -2.61995,-1.12331 -0.88006,-0.48551 -1.68773,-1.09799 -2.46128,-1.73789 -0.8508,-0.80756 -1.65411,-1.64517 -2.43497,-2.52025 -1.50551,-1.4146 -3.094,-2.73581 -4.76891,-3.9461 -1.91997,-1.55637 -3.76177,-3.19297 -5.53721,-4.91307 -1.15433,-1.08146 -2.25156,-2.25574 -3.57903,-3.12756 -1.41689,-0.90574 -2.76394,-1.89875 -4.07585,-2.9516 -1.11212,-0.92113 -2.24189,-1.82416 -3.39686,-2.6904 -1.33769,-0.92864 -2.65036,-1.8915 -3.99574,-2.80947 -1.36555,-1.06145 -2.72242,-2.12975 -4.14163,-3.11963 -1.13798,-0.86679 -2.2345,-1.78744 -3.23234,-2.81463 -0.99781,-0.95021 -2.01233,-1.88437 -3.10066,-2.73137 -1.28903,-1.02782 -2.49532,-2.14903 -3.7687,-3.19611 -1.18347,-0.97987 -2.39236,-1.92508 -3.56873,-2.91387 -1.11634,-1.0511 -2.26777,-2.0684 -3.32659,-3.17813 -1.02527,-0.9765 -1.87313,-2.10121 -2.87338,-3.10118 -1.20548,-1.21925 -2.41174,-2.43968 -3.54744,-3.72494 -1.21771,-1.4005 -2.35687,-2.86932 -3.63136,-4.21921 -1.38641,-1.45612 -2.80997,-2.87751 -4.09563,-4.42629 -1.38803,-1.4791 -2.73799,-2.99243 -3.99141,-4.5886 -1.37557,-1.65327 -2.82779,-3.24272 -4.37192,-4.7405 -1.46399,-1.47221 -2.93265,-2.94073 -4.35047,-4.45775 -0.99673,-1.31749 -1.76478,-2.78151 -2.74369,-4.11205 -1.10307,-1.34818 -2.26588,-2.64366 -3.47553,-3.89759 -1.36261,-1.32274 -2.69374,-2.68554 -3.92818,-4.12877 -1.00228,-1.39034 -1.78042,-2.88264 -2.61251,-4.37725 -0.92183,-1.54754 -2.03911,-2.95072 -3.24807,-4.28539 -1.21913,-1.44559 -2.3594,-2.953 -3.56912,-4.40633 -0.95434,-1.18 -1.81264,-2.43616 -2.53469,-3.77302 -0.71995,-1.15376 -1.49014,-2.28153 -2.36585,-3.3234 -1.29133,-1.4374 -2.63884,-2.82207 -3.89807,-4.28672 -1.32592,-1.52523 -2.49321,-3.1698 -3.72919,-4.76752 -1.12525,-1.55228 -2.23702,-3.11695 -3.43463,-4.6145 -1.26421,-1.53045 -2.6541,-2.95275 -4.07167,-4.34098 -1.25485,-1.21061 -2.6277,-2.32244 -3.63596,-3.76098 -0.77313,-1.04232 -1.54504,-2.0862 -2.32998,-3.11871 -0.78373,-0.99158 -1.65082,-1.90982 -2.4145,-2.91752 -0.62393,-0.86069 -1.26167,-1.70745 -1.77601,-2.64008 -0.56961,-0.91487 -1.25708,-1.7501 -1.85104,-2.64882 -0.57494,-0.85432 -1.17327,-1.69191 -1.69901,-2.5783 -0.44033,-0.86989 -0.9132,-1.72364 -1.34362,-2.59765 -0.59458,-0.93502 -1.24479,-1.83149 -1.82143,-2.77649 -0.50272,-1.05469 -1.04668,-2.08967 -1.49839,-3.16837 -0.40288,-1.06261 -0.76977,-2.13372 -0.91761,-3.26699 -0.14611,-0.90699 -0.14234,-1.84891 -0.51729,-2.70528 -0.53586,-1.12202 -1.21033,-2.1771 -1.83458,-3.25099 -0.65121,-1.30243 1.1907,-2.22339 1.84192,-0.92096 z"
     inkscape:connector-curvature="0" />
  <path
     style="fill:#fc9272;fill-opacity:1;stroke:none"
     id="path6209"
     d="m 55.287086,262.00115 c 1.28715,-0.19674 2.551355,-0.52684 3.801126,-0.88845 1.048393,-0.20847 2.040638,-0.60363 3.076103,-0.85866 0.78645,-0.17312 1.456979,-0.5502 2.123375,-0.97914 0.295241,-0.24832 0.577606,-0.51041 0.879748,-0.74938 1.1711,-0.86541 2.394969,0.79078 1.223868,1.65618 l 0,0 c -0.314557,0.28223 -0.654906,0.55735 -0.989104,0.82487 -0.858601,0.55255 -1.747221,1.01604 -2.751655,1.24857 -1.007555,0.24053 -1.969648,0.64038 -2.990043,0.83576 -1.326512,0.38371 -2.66913,0.7303 -4.034868,0.94156 -1.436348,0.23939 -1.774898,-1.79192 -0.33855,-2.03131 z"
     inkscape:connector-curvature="0" />
  <path
     style="fill:#fc9272;fill-opacity:1;stroke:none"
     id="path6211"
     d="m 72.146599,265.1816 c 0.226344,0.9711 0.292325,1.97273 0.522586,2.94211 0.320127,1.42053 -1.688815,1.87326 -2.008941,0.45272 l 0,0 c -0.197108,-0.90673 -0.318903,-1.82768 -0.46729,-2.74362 -0.460478,-1.38143 1.493166,-2.03265 1.953645,-0.65121 z"
     inkscape:connector-curvature="0" />
  <path
     style="fill:#fc9272;fill-opacity:1;stroke:none"
     id="path6213"
     d="m 72.146599,265.1816 c 0.387579,1.16632 0.519529,2.40811 1.047278,3.52579 0.16586,0.40171 0.38997,0.77566 0.750448,1.0276 1.11748,0.93362 -0.202855,2.51397 -1.320335,1.58035 l 0,0 c -0.560233,-0.49659 -1.033876,-1.05181 -1.30756,-1.76178 -0.523634,-1.19713 -0.769146,-2.46834 -1.123476,-3.72075 -0.460478,-1.38143 1.493166,-2.03265 1.953645,-0.65121 z"
     inkscape:connector-curvature="0" />
</svg>
