<?xml version="1.0" encoding="UTF-8" standalone="no"?>
<!-- Created with Inkscape (http://www.inkscape.org/) -->

<svg
   xmlns:dc="http://purl.org/dc/elements/1.1/"
   xmlns:cc="http://creativecommons.org/ns#"
   xmlns:rdf="http://www.w3.org/1999/02/22-rdf-syntax-ns#"
   xmlns:svg="http://www.w3.org/2000/svg"
   xmlns="http://www.w3.org/2000/svg"
   xmlns:xlink="http://www.w3.org/1999/xlink"
   xmlns:sodipodi="http://sodipodi.sourceforge.net/DTD/sodipodi-0.dtd"
   xmlns:inkscape="http://www.inkscape.org/namespaces/inkscape"
   id="svg2"
   version="1.1"
   inkscape:version="0.48.4 r9939"
   width="1520"
   height="2492"
   sodipodi:docname="27413-19.svg"
   inkscape:export-filename="/tmp/brokenInterface/data-analysis/data/display-damages-png/27413-19.png"
   inkscape:export-xdpi="107.76"
   inkscape:export-ydpi="107.76">
  <metadata
     id="metadata8">
    <rdf:RDF>
      <cc:Work
         rdf:about="">
        <dc:format>image/svg+xml</dc:format>
        <dc:type
           rdf:resource="http://purl.org/dc/dcmitype/StillImage" />
      </cc:Work>
    </rdf:RDF>
  </metadata>
  <defs
     id="defs6" />
  <sodipodi:namedview
     pagecolor="#ffffff"
     bordercolor="#666666"
     borderopacity="1"
     objecttolerance="10"
     gridtolerance="10"
     guidetolerance="10"
     inkscape:pageopacity="0"
     inkscape:pageshadow="2"
     inkscape:window-width="1280"
     inkscape:window-height="732"
     id="namedview4"
     showgrid="false"
     inkscape:zoom="0.63"
     inkscape:cx="867.86555"
     inkscape:cy="1484.7012"
     inkscape:window-x="-8"
     inkscape:window-y="-8"
     inkscape:window-maximized="1"
     inkscape:current-layer="svg2" />
  <image
     width="1520"
     height="2492"
     xlink:href="file:///C:/Users/Surface/Desktop/CHI2013%20BI%20GitRepo/public-dataset/input/cropped-display/27413-19.png"
     id="image10"
     x="0"
     y="0"
     style="fill:#fee0d2" />
  <g
     inkscape:groupmode="layer"
     id="layer1"
     inkscape:label="Layer" />
  <path
     style="fill:#de2d26;fill-opacity:1;stroke:none"
     id="path5883"
     d="m 602.14311,611.59027 c 4.14057,1.1485 8.06571,2.91655 12.11809,4.31983 3.31639,1.17798 6.55517,2.59365 9.92572,3.6094 3.48183,1.2967 7.08975,2.19383 10.59517,3.41813 3.4583,1.20237 6.95794,2.28725 10.40412,3.52319 3.10898,1.31105 6.30422,2.32378 9.50419,3.37536 3.07446,0.89525 6.17152,1.73259 9.28226,2.50128 4.13123,1.00539 7.86694,2.81877 11.25408,5.35516 2.73172,2.15565 5.70634,3.93488 8.69722,5.69594 3.0056,1.53109 5.95568,3.14603 8.81608,4.93474 2.74194,1.5868 5.52659,3.08954 8.23086,4.73709 3.11276,1.70183 6.2941,3.26129 9.43263,4.91988 3.36021,2.02264 7.04725,3.37329 10.67354,4.82091 3.51181,1.37314 7.00826,2.8154 10.42024,4.42049 3.40147,1.59984 6.73662,3.33646 10.10751,4.99975 3.78444,2.03244 7.854,3.44269 11.78254,5.16758 3.96373,1.79354 8.02705,3.37758 12.17643,4.68498 4.83424,1.60527 9.68475,3.15511 14.51545,4.77332 3.60588,1.31982 7.12941,2.89083 10.49481,4.7389 2.08332,1.38227 4.54028,1.57018 6.9079,2.10827 3.127,0.6112 6.12747,1.68721 9.23972,2.3575 3.64442,0.40721 7.18986,1.21464 10.70542,2.2386 3.8938,1.0597 7.70919,2.39394 11.49507,3.78924 4.09663,1.49775 8.18717,3.03917 12.21881,4.70659 4.01874,1.49657 8.07919,2.93431 11.90391,4.88499 2.72823,1.57757 5.52826,2.97596 8.43009,4.20561 3.50723,1.19484 7.02997,2.32815 10.45285,3.75232 4.27446,1.36791 8.16424,3.6257 12.26048,5.40989 2.64692,1.54803 5.37275,2.69114 8.39599,3.17878 4.69298,1.03573 8.99285,3.35734 13.31108,5.39836 6.32895,3.06961 12.63033,6.18775 19.02001,9.12965 6.41291,2.92747 13.03509,5.31609 19.35171,8.46096 3.89325,2.03957 7.60977,4.4618 11.59428,6.32117 2.40519,0.69247 4.73582,1.64132 7.18544,2.18139 2.96889,1.11411 6.09877,1.48937 9.18499,2.09765 4.8033,0.7832 9.41827,2.39595 13.77221,4.53945 4.33603,2.08671 8.68499,4.11462 13.14041,5.93732 3.89828,1.74419 7.97078,3.13106 12.07438,4.31349 3.54,1.04504 6.9124,2.46478 10.1744,4.1754 2.3334,1.13581 4.6244,2.35659 6.9104,3.5884 3.5424,1.5915 7.0109,3.36546 10.5813,4.89648 5.3212,2.25426 10.6925,4.4178 15.8801,6.9692 3.8306,1.95786 7.76,3.76191 11.4595,5.96211 2.3568,1.43154 4.9864,2.39564 7.6247,3.17464 3.5231,1.02725 6.7681,2.6887 9.9541,4.47701 3.0224,1.71948 5.7672,3.81801 8.5084,5.93806 2.0464,1.71647 4.506,2.86164 7.0117,3.74165 2.9993,0.77744 5.882,1.99962 8.5707,3.52928 2.1384,1.05472 4.07,2.55573 6.4017,3.14981 2.958,0.56348 5.8506,1.43615 8.6403,2.56233 2.7145,1.44866 5.5426,2.65714 8.2891,4.03183 2.5354,0.83439 4.5438,2.97373 7.0435,3.80576 0.1559,0.0521 0.3117,0.1043 0.4676,0.15644 4.2429,1.4677 2.1672,7.46805 -2.0757,6.00035 l 0,0 c -0.267,-0.0941 -0.534,-0.18827 -0.801,-0.2824 -2.6044,-1.14567 -4.8921,-2.88154 -7.5112,-4.02006 -2.5614,-1.33038 -5.2686,-2.38403 -7.7906,-3.80498 -2.591,-1.04762 -5.2809,-1.82308 -8.0296,-2.35107 -2.8106,-0.86724 -5.2846,-2.33529 -7.8405,-3.76795 -2.3021,-1.41235 -4.9217,-2.30687 -7.5098,-3.03362 -3.1198,-1.1381 -6.1887,-2.55992 -8.7577,-4.70056 -2.4908,-1.93695 -4.9811,-3.85407 -7.7325,-5.42265 -2.774,-1.56831 -5.5874,-3.03365 -8.6618,-3.92748 -3.1392,-0.95232 -6.2675,-2.09932 -9.0753,-3.81634 -3.5192,-2.15173 -7.3456,-3.79208 -10.9944,-5.70801 -5.0847,-2.5163 -10.3703,-4.61058 -15.5871,-6.83383 -3.7344,-1.6205 -7.3815,-3.44739 -11.0824,-5.13937 -2.2616,-1.22366 -4.5259,-2.43828 -6.8423,-3.55214 -2.8847,-1.51286 -5.8574,-2.77863 -8.9922,-3.6998 -4.3173,-1.25639 -8.6082,-2.7025 -12.71446,-4.53658 -4.59552,-1.88466 -9.08658,-3.97343 -13.56023,-6.12736 -3.83655,-1.93066 -7.94678,-3.30307 -12.19125,-3.99897 -3.13222,-0.63808 -6.33092,-0.98062 -9.34321,-2.13141 -2.89273,-0.66901 -5.68217,-1.71117 -8.4971,-2.63422 -4.00883,-1.91661 -7.80416,-4.26992 -11.71356,-6.37914 -6.25141,-3.12656 -12.83169,-5.44839 -19.17246,-8.37501 -6.40894,-2.95106 -12.73068,-6.07605 -19.07797,-9.15668 -3.79376,-1.79351 -7.56621,-3.84701 -11.65125,-4.87738 -3.51955,-0.61021 -6.80559,-1.78708 -9.88661,-3.62279 -4.06133,-1.78268 -7.93049,-4.00126 -12.16865,-5.37058 -3.42795,-1.44642 -6.98718,-2.51446 -10.48756,-3.76698 -3.04268,-1.30057 -5.99814,-2.75241 -8.86237,-4.40919 -3.63565,-1.92155 -7.59584,-3.1655 -11.41728,-4.65856 -3.94999,-1.64393 -7.96794,-3.14205 -11.98374,-4.61452 -3.6464,-1.34679 -7.32133,-2.63472 -11.0739,-3.65036 -3.37706,-0.98481 -6.78046,-1.72458 -10.27978,-2.13038 -3.14005,-0.68996 -6.17434,-1.74173 -9.32694,-2.37713 -2.93649,-0.70416 -5.98708,-1.01261 -8.57114,-2.75223 -2.9814,-1.71811 -6.20883,-3.01719 -9.41046,-4.25883 -4.7979,-1.60761 -9.61513,-3.14837 -14.41718,-4.74128 -4.36039,-1.38973 -8.64276,-3.02984 -12.81031,-4.92383 -4.01564,-1.76321 -8.175,-3.20618 -12.04227,-5.28869 -3.33933,-1.65169 -6.6462,-3.36992 -10.01707,-4.95596 -3.2794,-1.57293 -6.6755,-2.92131 -10.05582,-4.26135 -3.83274,-1.5355 -7.72588,-2.97543 -11.28482,-5.10383 -3.25759,-1.72463 -6.56902,-3.33015 -9.78821,-5.12291 -2.70566,-1.68158 -5.53715,-3.14313 -8.2794,-4.76721 -2.80709,-1.76552 -5.71993,-3.3209 -8.66518,-4.84303 -3.20132,-1.88566 -6.37833,-3.80414 -9.30695,-6.10423 -2.67612,-2.0542 -5.663,-3.44675 -8.95206,-4.25564 -3.2656,-0.81386 -6.51975,-1.6855 -9.74643,-2.63545 -3.24892,-1.08293 -6.50511,-2.10247 -9.66675,-3.43159 -3.42347,-1.24634 -6.91764,-2.29639 -10.35478,-3.5056 -3.41538,-1.21188 -6.95102,-2.04914 -10.34257,-3.33517 -3.44164,-1.06218 -6.76993,-2.45727 -10.15569,-3.68444 -4.02422,-1.40322 -7.92971,-3.14441 -12.04148,-4.29376 -4.25917,-1.41972 -2.25138,-7.44311 2.0078,-6.02338 z"
     inkscape:connector-curvature="0" />
  <path
     style="fill:#de2d26;fill-opacity:1;stroke:none"
     id="path5887"
     d="m 710.83667,366.30852 c 3.71789,2.6238 7.05146,5.68636 10.28926,8.87 2.71173,2.9049 4.88394,6.23279 7.26816,9.39782 1.73275,2.29776 3.24897,4.73482 5.2625,6.80326 1.8319,2.12534 3.7564,4.1603 5.66097,6.21855 2.11241,2.08222 4.0094,4.40397 6.20859,6.39854 2.98797,2.19233 5.25166,5.06628 7.59833,7.88196 1.67165,2.37967 3.27416,4.69298 5.27942,6.78809 2.02699,1.59587 3.51163,3.75084 4.99916,5.83165 1.35468,2.29285 3.05583,4.37687 4.91887,6.2751 2.44973,1.82981 4.48731,4.12758 6.41633,6.48136 1.70305,1.8689 3.25742,3.85242 5.12484,5.56691 2.21835,1.38246 4.17605,3.07351 6.02017,4.91747 1.7121,1.97387 3.97047,2.95547 6.17968,4.21832 2.25524,1.65558 4.18181,3.67852 5.96229,5.82272 1.88244,2.23492 4.15202,4.06617 5.92304,6.39798 1.35411,1.87821 2.88131,3.60412 4.36303,5.37819 1.87827,1.94077 4.15231,3.39374 6.19312,5.14248 2.62921,1.9775 4.5841,4.66027 6.99746,6.86798 2.62072,2.10048 4.81713,4.56775 6.91961,7.16045 1.70119,2.34563 3.23702,4.80245 5.15037,6.98273 2.60229,2.62225 5.11911,5.32215 7.68035,7.98165 2.37355,2.47777 4.6921,5.01501 6.95236,7.59963 2.27863,2.46301 4.82839,4.67282 7.28578,6.96121 2.51378,2.46851 4.1689,5.61549 5.70595,8.74554 1.32421,2.92076 2.61161,5.77175 3.29954,8.91925 0.60487,2.29623 1.593,4.4268 2.42578,6.63864 0.85971,1.86688 2.17204,3.42032 3.59485,4.8907 1.14648,1.39804 0.61446,0.60447 1.53353,2.42146 1.67098,4.16702 -4.22208,6.53013 -5.89305,2.36311 l 0,0 c 0.42687,0.35412 0.28665,0.26442 -0.25851,-0.42725 -1.96408,-2.1156 -3.81785,-4.33378 -4.92741,-7.03376 -0.91761,-2.50606 -2.05555,-4.92313 -2.68579,-7.53346 -0.53977,-2.64882 -1.72825,-4.98784 -2.79531,-7.45485 -1.17987,-2.43835 -2.43481,-4.92681 -4.33358,-6.88945 -2.60701,-2.44155 -5.32904,-4.77893 -7.73197,-7.42236 -2.19453,-2.5113 -4.44088,-4.98083 -6.75235,-7.38133 -2.62499,-2.74179 -5.23326,-5.49614 -7.88947,-8.21039 -1.94835,-2.25319 -3.60345,-4.71683 -5.30068,-7.16199 -1.90171,-2.36298 -3.90169,-4.59308 -6.29647,-6.4933 -2.33911,-2.19013 -4.3092,-4.75338 -6.84376,-6.73007 -2.26761,-2.00623 -4.91969,-3.57278 -6.92151,-5.8883 -1.53943,-1.88391 -3.16791,-3.69037 -4.59017,-5.66946 -1.57811,-2.29998 -4.05617,-3.83499 -5.69297,-6.10316 -1.30568,-1.5784 -2.7044,-3.05112 -4.2603,-4.38275 -2.6444,-1.56787 -5.40638,-2.86084 -7.4877,-5.22529 -1.79706,-1.80534 -3.75581,-3.33976 -5.86748,-4.7695 -2.04472,-1.94259 -3.8478,-4.08877 -5.71278,-6.19822 -1.78775,-2.23143 -3.75904,-4.30136 -6.03195,-6.04959 -2.07316,-2.13609 -4.01086,-4.45582 -5.53887,-7.01599 -1.32099,-1.84789 -2.59558,-3.74214 -4.42242,-5.13554 -2.10919,-2.20693 -3.8659,-4.59171 -5.57523,-7.11989 -2.16109,-2.60956 -4.23803,-5.26038 -7.01805,-7.27085 -2.29938,-2.1454 -4.35637,-4.54097 -6.57547,-6.76566 -1.86071,-2.0334 -3.76979,-4.01898 -5.56237,-6.11387 -2.17344,-2.27323 -3.91515,-4.85746 -5.76392,-7.39148 -2.1924,-2.91807 -4.20718,-5.96685 -6.6469,-8.68852 -2.95149,-2.90426 -5.97371,-5.71306 -9.3588,-8.11361 -3.73555,-2.49036 -0.21364,-7.77322 3.5219,-5.28286 z"
     inkscape:connector-curvature="0" />
  <path
     style="fill:#fc9272;fill-opacity:1;stroke:none"
     id="path5889"
     d="m 871.65487,551.69572 c 2.21438,4.16199 5.70271,7.36853 9.05468,10.59918 2.92031,2.74437 5.98932,5.3265 8.90453,8.0773 1.99646,2.31235 4.01956,4.60975 6.11323,6.8329 2.01263,2.09924 4.68381,3.43997 7.20354,4.84469 3.70793,2.0787 7.09714,4.65284 10.61076,7.02885 3.48321,2.14102 6.25858,5.13263 8.79609,8.29206 1.83103,2.519 3.66703,5.05145 5.27256,7.72471 1.59892,1.94385 2.47659,4.3559 4.03681,6.3193 1.79925,1.89422 4.158,3.11509 6.19931,4.736 2.56515,2.43921 5.0071,5.0423 7.39637,7.66338 2.20761,2.8653 4.80551,5.30915 7.51936,7.67729 2.64947,2.48386 5.1479,5.10515 7.34363,8.00076 1.91358,2.17708 3.31547,4.76007 5.67734,6.49746 2.42194,1.06266 4.8446,2.14705 7.26579,3.22675 2.89542,1.5236 5.60303,3.46157 8.21478,5.43401 2.77598,2.27247 5.18423,4.94061 7.46695,7.69561 1.66075,1.9127 3.45564,3.69707 5.15444,5.57348 1.61964,1.65798 3.30184,3.24826 5.18447,4.61099 2.04189,1.79479 3.83259,3.80079 6.00649,5.4516 2.8581,1.29623 3.8834,3.16826 4.8552,5.99251 0.4744,1.71513 1.7277,3.00594 2.5109,4.59927 1.7993,4.11325 -4.0177,6.6578 -5.817,2.54455 l 0,0 c -0.1229,-1.44228 -2.9396,-3.3582 -2.7236,-5.15521 -0.1079,-0.33546 -0.2575,-0.66027 -0.3237,-1.00638 -6e-4,-0.003 0.2676,-2.9e-4 0.1981,-0.12022 -0.5277,-0.91058 -1.8527,-1.20861 -2.5877,-1.83479 -2.10149,-1.64915 -3.98682,-3.50133 -5.88582,-5.36045 -2.2112,-1.65068 -4.2431,-3.49604 -6.14895,-5.48816 -1.72755,-1.96476 -3.63261,-3.77158 -5.32462,-5.77174 -1.95598,-2.39542 -4.05202,-4.68751 -6.41956,-6.68567 -2.19716,-1.70561 -4.53954,-3.31383 -6.95223,-4.6833 -2.87898,-1.29052 -5.82896,-2.47053 -8.57494,-4.0134 -2.73066,-2.19477 -4.69917,-4.96172 -6.85404,-7.69517 -1.89944,-2.56481 -4.14356,-4.82316 -6.44087,-7.02897 -2.89864,-2.53032 -5.68167,-5.15006 -8.0509,-8.1992 -2.1423,-2.38612 -4.39001,-4.70739 -6.65481,-6.96598 -2.43858,-1.96701 -5.35374,-3.35675 -7.30995,-5.88043 -1.61514,-2.21329 -2.78166,-4.68771 -4.41776,-6.88752 -1.434,-2.44092 -3.14328,-4.71625 -4.78349,-7.01673 -2.11032,-2.68255 -4.4534,-5.19422 -7.3899,-6.98999 -3.36127,-2.28115 -6.61001,-4.74129 -10.15226,-6.74584 -3.08646,-1.73569 -6.30885,-3.42336 -8.74017,-6.04955 -1.99118,-2.14453 -3.97392,-4.30896 -5.84321,-6.56083 -2.91163,-2.77931 -6.02614,-5.33848 -8.94192,-8.11307 -3.6769,-3.54589 -7.46964,-7.10505 -9.93079,-11.64815 -2.49036,-3.73554 2.7925,-7.25745 5.28286,-3.5219 z"
     inkscape:connector-curvature="0" />
  <path
     style="fill:#fee0d2;fill-opacity:1;stroke:none"
     id="path5891"
     d="m 1011.3456,688.54488 c 1.8623,3.75311 4.822,6.71641 7.6847,9.69953 2.1363,2.05695 4.3778,4.00639 6.4537,6.12395 1.812,2.1235 3.8253,4.04807 5.9515,5.85272 2.0608,1.32411 4.3506,2.20541 6.4833,3.39886 2.4062,1.24074 4.4259,3.06072 6.5195,4.74842 2.9141,2.39766 5.6196,5.03358 8.3221,7.66323 2.8936,3.09243 5.5017,6.42315 7.7418,10.01528 1.6221,2.65479 3.5106,5.04621 5.5577,7.37181 2.5913,2.66948 5.1907,5.25277 7.2568,8.36938 1.5441,3.35686 3.4386,6.51361 5.382,9.64957 2.1852,3.27324 4.8508,6.17696 7.2658,9.27792 1.7773,2.45489 3.4184,5.05964 5.5165,7.26036 1.8461,2.08577 3.9631,3.86852 5.8031,5.97363 3.0028,2.72346 5.6574,5.78336 8.3722,8.78549 2.5276,3.25695 5.0896,6.47589 7.8347,9.55315 2.7599,2.90526 5.866,5.38932 8.4093,8.5063 2.3698,3.06046 4.2818,6.46252 5.8673,9.98555 1.644,3.09157 3.4642,6.09234 5.2365,9.11418 1.2995,2.40534 2.6813,4.84392 4.556,6.85526 1.035,1.26234 0.5315,0.73256 1.4665,1.63012 3.1776,3.17158 -1.3076,7.66542 -4.4853,4.49384 l 0,0 c -1.2928,-1.31919 -0.7311,-0.67941 -1.7149,-1.89262 -2.0868,-2.39075 -3.851,-5.05224 -5.3002,-7.87646 -1.8908,-3.22899 -3.85,-6.42696 -5.5637,-9.7526 -1.3163,-3.03601 -3.015,-5.93241 -5.0069,-8.57453 -2.4291,-3.07076 -5.6153,-5.34111 -8.2041,-8.26408 -2.7326,-3.06725 -5.3123,-6.25417 -7.8045,-9.51961 -2.7413,-3.03156 -5.4333,-6.10352 -8.4482,-8.87106 -1.7923,-2.06087 -3.8901,-3.77534 -5.678,-5.83436 -2.1667,-2.38512 -4.0448,-5.017 -5.8658,-7.67161 -2.5538,-3.27986 -5.3848,-6.3442 -7.6548,-9.83703 -1.9126,-3.09281 -3.8364,-6.18837 -5.303,-9.52512 -1.842,-2.89801 -4.3999,-5.13031 -6.7051,-7.64273 -2.2788,-2.59386 -4.3715,-5.27634 -6.1883,-8.22266 -1.9434,-3.16802 -4.268,-6.06274 -6.7714,-8.80703 -2.5608,-2.49218 -5.1217,-4.99325 -7.8789,-7.27048 -1.8335,-1.47805 -3.5772,-3.10214 -5.688,-4.18067 -2.4307,-1.4407 -5.2007,-2.29264 -7.4419,-4.07181 -2.2794,-1.93968 -4.4538,-4.00272 -6.4039,-6.27704 -2.0432,-2.15766 -4.3711,-4.03854 -6.4711,-6.14203 -3.3044,-3.44552 -6.6492,-6.9175 -8.7819,-11.25557 -2.0078,-4.01559 3.6711,-6.85504 5.6789,-2.83945 z"
     inkscape:connector-curvature="0" />
  <path
     style="fill:#de2d26;fill-opacity:1;stroke:none"
     id="path5893"
     d="m 1121.6066,831 c 3.7449,1.97834 7.7415,3.32564 11.6572,4.89182 2.8832,1.07045 5.7788,2.03766 8.1149,4.08445 0.995,1.08856 1.6677,2.28858 3.1443,2.74769 3.748,0.55694 2.1462,-3.77494 2.4131,6.0846 -2.6822,0.39798 -5.1119,-0.41139 -7.4307,-1.66025 -1.9803,-0.96934 -3.9301,-2.00679 -5.8752,-3.05353 -1.791,-1.49481 -3.9349,-2.29239 -6.0233,-3.25994 -1.9565,-1.19892 -3.9254,-2.19674 -5.6503,-3.72263 -3.2553,-3.09175 1.1171,-7.69551 4.3724,-4.60375 l 0,0 c 1.0166,1.23614 2.7797,1.48898 3.952,2.56776 2.1862,1.01724 4.5003,1.85517 6.3642,3.43088 1.9425,1.05052 3.8803,2.10395 5.8708,3.0512 1.1411,0.61454 2.2299,1.21529 3.605,0.95359 0.6191,2.04164 3.987,5.53355 1.9307,6.10217 -2.0973,0.57998 -4.0439,0.73847 -6.1239,-0.0955 -2.0369,-0.99349 -3.7322,-2.27162 -5.0754,-4.08972 -1.2403,-1.02307 -4.1091,-1.88087 -5.9627,-2.64834 -4.0618,-1.65335 -8.2308,-3.03722 -12.1226,-5.10158 -4.0156,-2.0078 -1.1761,-7.6867 2.8395,-5.6789 z"
     inkscape:connector-curvature="0" />
  <path
     style="fill:#fee0d2;fill-opacity:1;stroke:none"
     id="path5895"
     d="m 392.12731,-15.383022 c 2.81917,3.631869 6.03882,6.894522 9.24434,10.1739514 2.77619,2.5895603 5.31208,5.26853811 7.29641,8.5197359 1.26806,2.1297783 2.84676,4.009371 4.40232,5.923905 2.16179,2.4236417 3.89734,5.1509487 5.59848,7.9039417 1.92172,2.893469 4.01646,5.659464 6.08632,8.447484 1.95914,2.7724 3.55084,5.821826 5.68747,8.461966 2.69324,2.751308 5.76378,5.183242 8.85381,7.483339 3.26091,2.550724 6.71719,4.863585 9.88313,7.530342 2.40135,2.101416 4.61685,4.406256 6.99418,6.530643 2.36463,2.094572 3.40972,5.033183 4.78532,7.763371 1.16186,2.390659 1.7649,4.966328 2.95585,7.345911 1.05753,2.889212 3.04232,5.126214 5.03253,7.39115 2.38924,2.52767 4.35474,5.384808 6.80677,7.851147 2.34025,2.950868 5.45959,5.066916 8.26264,7.522817 2.90854,2.744852 5.37412,5.969357 7.32139,9.456918 1.55629,2.41297 2.73131,5.04249 4.52186,7.29523 1.93845,2.56964 4.34103,4.70783 6.48998,7.08755 2.22636,2.10292 4.75751,3.9302 7.27631,5.67814 3.81266,2.0392 7.00124,4.89847 10.0829,7.88459 2.88145,2.89902 5.04002,6.30743 7.22147,9.72251 1.85414,2.76009 3.78731,5.43859 5.94355,7.97195 2.76665,2.79308 5.10182,5.92443 7.2782,9.18624 2.22462,2.63137 2.90154,5.91393 3.98261,9.06183 0.73728,2.84919 2.74162,5.01266 4.428,7.33315 2.21412,2.94812 4.02051,6.18037 6.20983,9.14439 2.00788,2.62846 3.93671,5.2912 5.63107,8.14071 1.62676,2.77427 3.78652,5.22455 6.07365,7.47467 2.07019,2.21217 4.19139,4.38589 6.41704,6.44448 2.86983,2.63938 5.77197,5.249 8.38842,8.14274 2.34752,2.47488 4.98486,4.62368 7.40982,7.02378 2.72076,2.65016 4.23551,6.08673 6.08451,9.32321 1.31616,3.24173 3.6299,5.68442 5.88887,8.25825 2.36839,2.62372 5.00458,4.9289 7.16615,7.74486 1.71692,2.21323 3.86423,4.01817 6.04825,5.75032 2.89121,2.34073 5.36125,5.20077 7.65749,8.11707 1.86444,2.71448 4.29863,4.9288 6.51975,7.32978 2.06356,2.55076 4.02509,5.17683 6.06055,7.75612 1.99274,2.4108 4.28332,4.55463 6.47857,6.7776 2.60242,2.55425 4.83976,5.41277 7.09702,8.26496 2.62243,3.08303 5.15188,6.24927 7.47627,9.56413 1.97217,3.11036 3.56615,6.42765 5.35597,9.63428 1.33589,1.85998 2.14232,5.13406 3.97317,6.53919 1.80441,0.70139 3.54171,1.91253 5.07979,3.10794 2.24285,1.56547 3.85837,3.82459 5.45446,6.00613 1.21268,1.86557 1.50653,4.18471 2.86805,5.95363 1.64104,1.75111 3.66907,3.0834 5.44329,4.69889 2.56865,2.01831 4.45101,4.68104 6.10228,7.46236 1.63512,2.93611 3.68511,5.60902 5.31572,8.54305 0.956,2.13719 1.82429,4.41265 3.39003,6.19209 1.41565,1.87014 3.08308,3.5248 4.68899,5.22968 1.77083,1.39558 3.61135,2.72528 5.44042,4.05616 1.34859,1.20321 0.72384,0.67907 1.85716,1.59258 3.48019,2.83627 -0.5309,7.75801 -4.0111,4.92174 l 0,0 c -1.22865,-1.00935 -0.70335,-0.53442 -1.60209,-1.39527 -2.1325,-1.57464 -4.33583,-3.07828 -6.31916,-4.83571 -1.69393,-1.82337 -3.46962,-3.57934 -4.98028,-5.56339 -1.6983,-2.16683 -3.05334,-4.57121 -4.03325,-7.14902 -1.55373,-2.90076 -3.67152,-5.4704 -5.22327,-8.37994 -1.31059,-2.27299 -2.84655,-4.4031 -4.94392,-6.01994 -2.0725,-1.98109 -4.66188,-3.43298 -6.37797,-5.78722 -1.16903,-1.81116 -2.0642,-3.75133 -2.75503,-5.79256 -1.25054,-1.74598 -2.51526,-3.56685 -4.30677,-4.79637 -1.69013,-1.49837 -3.92654,-2.17946 -5.65848,-3.63834 -2.08255,-2.33866 -3.51142,-5.11545 -4.96165,-7.87923 -1.65564,-3.02942 -3.19588,-6.11652 -5.00273,-9.0667 -2.23642,-3.22164 -4.72132,-6.2627 -7.24881,-9.25826 -2.1161,-2.67445 -4.19886,-5.36341 -6.64534,-7.75327 -2.34496,-2.39736 -4.8172,-4.68797 -6.93558,-7.29603 -1.9378,-2.45573 -3.81262,-4.95301 -5.75486,-7.39701 -2.30815,-2.54373 -4.89615,-4.84888 -6.84314,-7.71142 -1.96623,-2.53749 -4.12139,-5.01286 -6.60301,-7.05478 -2.59832,-2.06417 -5.12948,-4.24816 -7.16261,-6.89044 -2.02637,-2.72843 -4.68887,-4.81279 -6.88081,-7.39464 -2.52793,-2.89377 -5.11324,-5.69759 -6.63101,-9.30165 -1.55455,-2.74231 -2.78342,-5.66852 -5.03355,-7.95147 -2.51106,-2.48825 -5.26211,-4.6998 -7.66706,-7.29394 -2.46257,-2.76856 -5.27333,-5.1988 -7.978,-7.72586 -2.27247,-2.10751 -4.44527,-4.32734 -6.56466,-6.58569 -2.66497,-2.6418 -5.17559,-5.51397 -7.07731,-8.76077 -1.57435,-2.68297 -3.40983,-5.15689 -5.29137,-7.62503 -2.16782,-2.99056 -4.03652,-6.18628 -6.22362,-9.16331 -2.06207,-2.85007 -4.40744,-5.56449 -5.31244,-9.05559 -0.86114,-2.64461 -1.3747,-5.36214 -3.2477,-7.55482 -2.02468,-3.06748 -4.23592,-5.96897 -6.82751,-8.58744 -2.34053,-2.7594 -4.4496,-5.67096 -6.46245,-8.67571 -1.904,-3.0052 -3.77395,-6.00604 -6.28435,-8.57204 -2.8407,-2.75802 -5.76581,-5.37311 -9.29721,-7.23636 -2.90887,-2.04125 -5.85166,-4.1395 -8.3713,-6.64822 -2.21878,-2.50457 -4.75999,-4.7164 -6.76487,-7.41616 -1.96587,-2.55013 -3.40299,-5.40618 -5.08246,-8.14618 -1.54078,-2.8732 -3.63036,-5.47667 -5.95632,-7.751727 -2.88957,-2.570799 -6.15582,-4.743965 -8.57558,-7.818323 -2.53132,-2.568206 -4.61507,-5.482921 -7.06377,-8.12677 -2.35766,-2.684765 -4.66288,-5.401912 -5.96482,-8.789501 -1.15218,-2.389729 -1.8922,-4.905496 -2.9472,-7.328306 -0.98375,-2.023224 -1.70631,-4.245818 -3.34813,-5.861846 -2.31126,-2.105411 -4.51617,-4.324828 -6.85183,-6.405829 -3.03204,-2.613746 -6.44133,-4.783168 -9.57068,-7.281033 -3.51804,-2.640048 -7.04369,-5.395035 -10.0308,-8.628411 -2.13014,-2.73392 -3.87923,-5.738979 -5.80682,-8.617671 -2.17653,-2.932492 -4.37908,-5.843889 -6.38946,-8.894383 -1.56143,-2.527019 -3.13746,-5.037684 -5.13651,-7.251964 -1.72531,-2.152701 -3.49204,-4.2624909 -4.90669,-6.6455008 -1.67899,-2.8661651 -4.02335,-5.0552013 -6.39489,-7.35123856 -3.34907,-3.43173424 -6.71175,-6.84757514 -9.6601,-10.64400064 -2.80461,-3.505763 2.15329,-7.472081 4.9579,-3.966318 z"
     inkscape:connector-curvature="0" />
  <path
     style="fill:#fee0d2;fill-opacity:1;stroke:none"
     id="path5897"
     d="m -11.047291,278.26777 c 3.1901915,2.70376 6.7159134,4.99459 10.20671505,7.28953 3.34872515,2.04223 6.38674235,4.38626 9.00058525,7.31341 1.4946664,1.91407 3.3628897,3.36833 5.2121187,4.9038 2.193007,1.77163 4.72226,3.02478 7.082757,4.54014 2.206776,1.35085 4.501622,2.52069 6.828659,3.64742 2.978045,1.30604 5.894319,2.74406 8.857266,4.08543 3.756118,1.5489 7.499475,3.14058 11.363906,4.40622 3.734599,1.30367 7.422118,2.71727 10.888081,4.63215 4.077473,2.3483 8.278936,4.45947 12.328592,6.86054 4.97171,2.44619 9.939638,4.87225 14.663602,7.77687 4.107711,2.5223 8.444099,4.67709 12.866837,6.58677 4.543852,2.19399 9.242162,4.02695 13.884972,5.99107 3.71123,1.4105 7.27709,3.12979 10.68544,5.16053 2.97541,1.95971 5.91457,3.96884 8.88217,5.94044 3.12906,1.78997 6.09242,3.84504 9.23919,5.60454 3.03018,1.7104 6.11016,3.31198 9.1189,5.05987 3.02975,1.96484 5.93027,4.13898 8.81251,6.31702 2.92879,2.28518 6.26345,3.83664 9.58755,5.43203 3.18846,1.57884 6.69931,2.21461 10.13782,3.00439 5.20072,1.56978 9.55516,4.91278 14.30048,7.42455 4.5735,2.42114 9.12202,4.90866 13.8013,7.12154 4.4032,2.06427 8.47137,4.75017 12.64822,7.22639 4.03139,2.63686 8.44841,4.62717 12.88239,6.48123 5.08303,1.77664 10.00559,3.9639 14.8668,6.27035 3.60773,1.82486 6.70653,4.33634 9.77192,6.92776 2.50257,2.39255 5.19627,4.50313 8.19202,6.23494 3.63161,1.61208 6.98182,3.77612 10.589,5.42982 4.10283,1.75407 7.72554,4.37465 11.39339,6.87239 3.07101,1.96679 6.49296,3.27448 9.76217,4.86106 4.54842,2.34321 8.87399,5.06574 13.37397,7.49897 4.50817,2.39364 8.90139,5.02595 13.13609,7.87649 3.26182,2.04455 6.51813,4.09881 9.81617,6.08416 2.93042,1.7501 5.92593,3.16211 8.63335,5.26251 1.63835,1.91716 3.81716,3.02642 5.97399,4.2355 3.52979,1.53133 6.59261,3.82762 9.53166,6.26954 2.70659,2.67946 5.35472,5.4272 8.49132,7.60526 3.45252,2.48689 7.30382,4.31316 11.06253,6.27357 3.51465,1.56795 6.74059,3.68011 10.11872,5.50642 3.31995,2.00023 6.36829,4.22416 9.9313,5.77653 4.92994,1.74483 9.91618,3.35653 14.72428,5.4194 4.60972,2.35286 9.09873,4.93247 13.62301,7.44437 5.12999,2.43857 10.25454,4.85037 15.53304,6.94965 5.58806,1.96808 10.47992,5.24918 15.55086,8.2042 4.40434,2.72244 9.16607,4.75383 13.73112,7.18422 4.78406,2.6811 9.69089,5.11754 14.46207,7.82358 4.04554,2.69974 8.19472,5.16728 12.49101,7.44106 3.30744,1.73081 6.72743,3.19218 10.20254,4.54698 3.16388,1.47748 6.42809,2.73632 9.58492,4.22074 2.60788,1.27989 5.09053,2.87808 7.45285,4.5698 1.8998,1.17151 3.72948,2.5012 5.87507,3.18123 2.76862,0.36075 5.35325,1.2829 7.92927,2.31777 2.83794,1.34909 5.73234,2.61524 8.71963,3.59783 3.17609,0.97411 6.05068,2.50078 8.82215,4.29667 2.19237,1.80777 4.40689,3.57351 6.71478,5.2302 3.23073,1.77935 6.62199,3.23258 9.93236,4.85172 3.21402,1.37443 6.44887,2.70217 9.67199,4.05903 2.76573,1.02989 5.46493,2.24432 8.10769,3.55717 2.21105,0.98829 4.37291,2.0904 6.51789,3.21916 1.13573,0.49213 2.33858,0.76398 3.48537,1.22956 4.12371,1.77518 1.61322,7.60698 -2.51048,5.8318 l 0,0 c -1.21127,-0.66798 -2.76684,-0.64191 -3.93572,-1.44478 -2.09945,-1.10846 -4.20932,-2.19682 -6.38258,-3.14989 -2.5249,-1.25512 -5.10015,-2.41812 -7.74802,-3.39221 -3.33284,-1.40611 -6.68312,-2.76956 -10.00059,-4.20866 -3.62261,-1.77983 -7.36368,-3.3293 -10.84061,-5.39514 -2.2248,-1.59727 -4.39766,-3.26291 -6.46521,-5.05989 -2.32099,-1.50448 -4.6954,-2.80895 -7.37354,-3.60026 -3.10209,-1.04166 -6.13637,-2.30729 -9.08198,-3.73077 -2.47953,-0.99615 -4.94629,-1.79838 -7.60303,-2.19697 -2.72867,-0.96176 -5.17115,-2.46485 -7.5731,-4.06182 -2.01139,-1.50464 -4.21481,-2.83965 -6.45012,-3.97205 -2.9939,-1.46056 -6.15731,-2.5827 -9.15987,-4.03651 -3.69772,-1.44795 -7.34081,-3.00542 -10.86173,-4.84901 -4.35038,-2.3026 -8.56445,-4.78623 -12.65361,-7.53018 -4.72157,-2.67872 -9.57917,-5.08862 -14.31391,-7.74213 -4.63815,-2.47095 -9.48054,-4.53276 -13.95224,-7.30771 -4.78796,-2.80976 -9.40802,-5.91979 -14.69228,-7.78527 -5.52963,-2.20066 -10.90363,-4.72209 -16.2681,-7.29817 -4.33986,-2.40981 -8.65092,-4.87314 -13.05459,-7.16491 -4.81167,-2.08603 -9.83599,-3.63437 -14.75898,-5.43447 -3.72171,-1.63903 -6.98291,-3.85384 -10.41026,-6.01087 -3.34393,-1.81918 -6.54896,-3.89731 -10.02898,-5.45867 -4.00582,-2.092 -8.10357,-4.05254 -11.77962,-6.71045 -3.25057,-2.31218 -6.13411,-5.04764 -8.9,-7.91847 -2.63957,-2.20456 -5.38758,-4.25014 -8.57392,-5.61038 -2.40822,-1.35111 -4.91914,-2.63593 -6.7604,-4.75691 -2.50287,-1.94207 -5.32909,-3.17079 -8.02215,-4.84307 -3.38492,-2.04773 -6.73937,-4.14537 -10.08564,-6.25621 -4.05783,-2.74295 -8.2826,-5.25534 -12.60569,-7.55527 -4.42102,-2.39053 -8.67649,-5.05337 -13.13334,-7.37541 -3.53965,-1.72959 -7.25736,-3.13495 -10.55749,-5.3223 -3.38143,-2.30435 -6.70871,-4.74478 -10.49308,-6.36121 -3.77053,-1.76897 -7.32276,-3.96009 -11.10988,-5.7017 -3.30245,-1.93485 -6.33134,-4.21923 -9.0964,-6.87328 -2.64891,-2.24034 -5.28661,-4.44344 -8.39731,-6.04133 -4.76866,-2.26955 -9.60556,-4.3999 -14.59266,-6.14795 -4.7036,-1.9694 -9.3845,-4.0928 -13.66982,-6.87703 -4.01014,-2.37818 -7.91432,-4.96047 -12.13584,-6.95343 -4.75849,-2.27217 -9.40711,-4.77349 -14.06042,-7.25206 -4.2471,-2.27465 -8.18216,-5.1863 -12.73773,-6.84046 -3.89594,-0.89603 -7.85835,-1.66309 -11.46362,-3.46855 -3.70512,-1.77954 -7.40342,-3.55218 -10.66985,-6.09204 -2.67632,-2.02664 -5.37573,-4.03986 -8.17323,-5.89167 -2.98057,-1.7339 -6.03622,-3.31553 -9.03832,-5.0138 -3.27704,-1.84937 -6.38828,-3.96334 -9.64257,-5.85143 -2.88434,-1.91682 -5.74296,-3.86752 -8.62915,-5.78078 -3.14916,-1.89535 -6.46634,-3.45087 -9.90119,-4.76212 -4.65825,-1.97615 -9.37766,-3.80908 -13.937594,-6.01365 -4.69228,-2.04807 -9.309714,-4.31208 -13.669187,-7.00556 -4.687997,-2.89757 -9.65768,-5.24382 -14.57325,-7.72221 -3.998167,-2.37689 -8.156353,-4.44961 -12.181434,-6.77582 -3.095127,-1.74972 -6.44258,-2.94373 -9.780062,-4.14585 -4.075377,-1.34856 -8.036024,-3.00444 -11.9966,-4.65281 -3.014199,-1.36478 -5.980368,-2.82834 -9.01008,-4.15709 -2.562002,-1.24591 -5.08747,-2.54447 -7.516954,-4.03605 -2.549465,-1.68531 -5.349289,-3.00025 -7.6971849,-4.99427 -2.0818574,-1.75959 -4.1926823,-3.44049 -5.9093642,-5.58469 -2.1860443,-2.55712 -4.8837794,-4.411 -7.7169771,-6.19673 -4.0377961,-2.65455 -8.1793648,-5.27398 -11.6767208,-8.62859 -2.804611,-3.50576 2.153287,-7.47208 4.957897,-3.96632 z"
     inkscape:connector-curvature="0" />
  <path
     style="fill:#fee0d2;fill-opacity:1;stroke:none"
     id="path5899"
     d="m 47.682867,-5.8592127 c 3.080811,3.5388361 6.005663,7.1970541 8.927814,10.8666255 2.836973,3.6736848 4.943808,7.8299672 8.050071,11.2954562 2.822186,2.763931 5.797381,5.391779 8.900456,7.841408 3.106433,2.229596 5.543902,5.175942 8.332258,7.758728 3.040748,2.738538 6.002596,5.56173 8.9374,8.412882 2.840744,2.386082 5.605876,4.854188 8.409976,7.284376 2.788738,2.207594 5.425188,4.786607 8.503008,6.588356 3.05898,1.703916 6.33011,2.957026 9.3899,4.662315 3.39995,2.10814 6.38236,4.794171 9.50383,7.276314 2.35611,1.822714 4.2814,4.131769 6.92522,5.559602 2.71952,1.296401 5.27815,2.825319 7.77602,4.502358 2.16515,1.666804 4.07603,3.617874 5.96375,5.584439 2.05807,1.85884 4.21107,3.606459 6.42767,5.271199 2.51626,1.355753 4.70496,3.121186 6.73591,5.115285 2.28777,2.580701 4.09161,5.524885 6.34351,8.130189 2.27186,2.61753 4.96359,4.82986 7.78816,6.82355 2.7669,1.78545 5.4444,3.72936 8.29228,5.38922 2.48209,1.63317 4.49613,3.88617 6.40135,6.14366 1.40832,1.78546 3.21496,3.08614 4.96176,4.50203 3.24845,1.76846 6.26819,3.88417 9.24415,6.06855 3.92402,3.00822 7.91462,5.90525 11.84518,8.90981 4.21381,3.34751 8.4517,6.65571 12.9362,9.63481 4.5088,2.45941 8.79955,5.22976 12.81701,8.42633 3.55283,2.94674 6.82519,6.20842 10.09689,9.4584 3.17452,3.173 6.33803,6.35699 9.50673,9.53579 3.14165,2.79222 6.54698,5.29319 10.0176,7.66022 3.73249,2.37871 7.67976,4.33526 11.31739,6.88368 3.43127,2.56141 6.65005,5.4733 9.16036,8.95376 1.44799,2.08486 3.00711,4.07935 4.77129,5.90916 2.37149,2.10704 5.00452,3.90517 7.4466,5.94305 2.7622,2.99463 6.09722,5.34047 9.24293,7.90004 3.22889,2.45683 6.19718,5.08657 8.74732,8.24739 1.93633,2.67833 3.72413,5.44131 5.4315,8.26962 1.97831,3.13809 4.51491,5.86224 7.04101,8.55888 2.8879,3.46855 6.61826,5.9543 10.17452,8.66089 4.61388,3.33908 8.78228,7.19002 12.84532,11.16661 4.08916,3.77965 8.10683,7.6375 12.39336,11.19712 4.05625,3.20789 7.96785,6.58595 11.7639,10.09611 3.3403,2.51884 6.36372,5.33247 9.19267,8.40588 2.34056,3.46555 5.31035,6.27271 8.4973,8.93707 3.81903,3.29023 7.86015,6.30312 11.74581,9.5122 3.54423,2.45745 6.79346,5.23895 9.96224,8.14913 2.58629,2.15815 4.38413,5.02069 6.62027,7.51116 2.40736,2.47591 5.12269,4.6952 7.89367,6.75767 2.8102,2.05773 5.24322,4.5068 7.63497,7.02359 2.22709,2.01735 4.39711,4.09715 6.65183,6.08246 1.69424,1.1753 3.67917,1.51788 5.61473,2.09221 3.41782,1.31866 6.30346,3.50002 9.06894,5.84747 3.60013,2.12809 6.72192,4.85981 9.73251,7.73534 2.82687,2.69121 5.96171,5.07566 9.10328,7.39761 2.58963,2.09723 4.96513,4.42943 7.27854,6.82189 1.80174,2.34602 4.32362,3.53828 6.97459,4.65611 5.08159,2.07642 9.54755,5.24894 14.01027,8.38207 4.84788,3.32193 9.25391,7.20306 13.5488,11.19754 3.65191,3.41122 7.78436,6.22223 11.70708,9.29897 3.31546,2.62069 6.64459,5.23248 10.00705,7.7945 3.85333,2.8396 7.45089,5.99492 10.95857,9.24522 3.79611,3.29369 7.81958,6.31906 11.8718,9.28875 4.09112,3.07084 8.26267,6.02394 12.82019,8.361 3.61528,2.02776 7.12664,4.21096 10.16812,7.03828 2.42348,2.54781 5.17361,4.74272 8.00467,6.81399 3.268,2.41362 6.26265,5.15406 9.46702,7.64799 3.44488,2.64421 6.63284,5.59498 9.77417,8.58681 2.87455,2.38352 5.38169,5.14085 8.23498,7.54766 3.20728,2.63631 6.24073,5.47111 9.23738,8.34148 2.48784,2.61899 4.90259,5.3129 7.5044,7.81984 2.64725,2.60988 5.44043,5.05629 8.1758,7.56769 2.06989,2.21935 4.65225,3.83011 7.15047,5.51535 3.22293,2.5153 6.42545,5.02357 9.76335,7.38983 4.40531,3.79431 9.1028,7.23873 13.45823,11.08682 4.43378,4.12265 8.88338,8.23964 13.4518,12.21356 5.44264,4.70147 11.20454,9.0141 16.83194,13.49254 3.93708,3.25587 7.93129,6.43011 11.85551,9.69853 2.37794,2.14624 4.67738,4.31463 7.2814,6.18849 2.56045,1.67381 5.19105,3.13471 7.96729,4.41309 3.21333,1.01788 6.02827,2.90841 8.85217,4.69594 3.60897,2.37228 6.77701,5.32187 9.90247,8.28191 2.90137,2.62391 6.10089,4.85761 9.23857,7.17868 3.33818,2.31562 5.91207,5.46101 8.85392,8.21878 2.72314,2.23296 5.69833,4.1102 8.57149,6.13517 3.10652,2.33712 5.82753,5.17988 8.42334,8.06653 2.22067,2.68073 4.80387,5.02346 7.60047,7.08779 2.77573,1.99896 5.18179,4.38428 7.54067,6.84679 2.54316,2.91697 5.4303,5.44585 8.38418,7.92814 3.85083,3.17882 7.13435,6.94441 10.7136,10.41712 6.11206,6.15981 12.97141,11.4908 19.42737,17.26733 5.6754,5.00338 10.97336,10.42637 16.31119,15.78543 4.63839,4.67679 8.84585,9.76189 12.87914,14.9627 2.92304,3.72778 6.05523,7.27397 8.69235,11.21635 1.88943,3.00534 3.91783,5.91649 5.21651,9.23482 0.97474,2.88017 0.90538,5.92614 1.57911,8.86475 0.3833,2.59716 1.02806,5.08939 1.7131,7.61595 -0.0834,0.37939 1.14192,2.80932 0.33922,1.32023 3.28148,3.064 -1.05167,7.70471 -4.33315,4.64071 l 0,0 c -1.1098,-1.31584 -1.79395,-2.61189 -2.13543,-4.30465 -0.70175,-2.607 -1.37239,-5.19181 -1.7752,-7.86571 -0.60011,-2.66202 -0.67923,-5.3686 -1.32295,-8.01638 -1.04874,-2.89949 -3.02289,-5.33182 -4.56869,-7.97476 -2.52684,-3.83018 -5.6299,-7.20847 -8.42243,-10.84074 -3.8722,-4.99468 -7.90771,-9.88186 -12.36099,-14.37357 -5.25013,-5.27551 -10.4649,-10.61086 -16.04785,-15.53563 -6.51269,-5.83954 -13.4494,-11.21168 -19.61304,-17.44045 -3.47052,-3.36869 -6.65491,-7.01793 -10.37667,-10.11275 -3.12826,-2.62893 -6.18181,-5.31882 -8.88475,-8.39722 -2.11606,-2.20978 -4.24605,-4.36967 -6.7505,-6.14839 -3.11301,-2.33944 -6.04076,-4.92677 -8.52878,-7.93513 -2.27626,-2.53743 -4.65329,-5.046 -7.36056,-7.12164 -3.11014,-2.19774 -6.34489,-4.22287 -9.25586,-6.69327 -2.76033,-2.59362 -5.17493,-5.54389 -8.28595,-7.7448 -3.34235,-2.475 -6.74817,-4.86351 -9.82817,-7.67306 -2.82719,-2.67953 -5.68163,-5.36376 -8.93495,-7.52841 -2.59329,-1.6463 -5.15887,-3.37896 -8.12086,-4.29708 -3.13197,-1.45703 -6.12747,-3.1143 -9.00992,-5.02245 -2.72494,-1.96401 -5.1618,-4.20539 -7.63681,-6.46409 -3.88368,-3.24135 -7.8464,-6.37816 -11.74327,-9.6071 -5.70037,-4.53671 -11.53662,-8.90596 -17.04732,-13.67184 -4.57978,-3.99053 -9.05046,-8.11288 -13.49553,-12.25199 -4.16784,-3.71232 -8.71792,-6.97595 -12.91736,-10.65735 -3.29737,-2.33758 -6.47789,-4.79705 -9.64234,-7.30613 -2.76028,-1.86244 -5.59716,-3.67587 -7.90089,-6.10855 -2.7628,-2.55399 -5.60724,-5.01917 -8.2838,-7.66951 -2.59202,-2.50563 -5.01795,-5.17827 -7.48727,-7.80337 -2.90057,-2.77912 -5.83591,-5.52476 -8.94188,-8.07563 -2.94785,-2.49245 -5.55738,-5.32325 -8.51757,-7.80118 -2.98795,-2.84697 -6.01718,-5.6586 -9.29498,-8.17385 -3.15469,-2.45626 -6.11059,-5.14413 -9.31677,-7.53456 -3.03689,-2.22343 -5.98728,-4.5815 -8.59679,-7.30511 -2.58817,-2.45208 -5.6608,-4.24947 -8.73739,-6.0283 -4.84063,-2.51075 -9.3183,-5.59534 -13.66399,-8.88366 -4.24554,-3.11623 -8.46574,-6.2847 -12.43298,-9.75208 -3.35797,-3.11378 -6.80166,-6.13698 -10.49365,-8.85391 -3.38232,-2.58386 -6.73713,-5.20922 -10.07566,-7.84759 -4.06016,-3.18863 -8.34067,-6.09977 -12.11189,-9.64508 -4.08103,-3.79799 -8.26238,-7.49436 -12.87229,-10.64966 -4.09665,-2.87614 -8.174,-5.82495 -12.84014,-7.73286 -3.41875,-1.45597 -6.69825,-3.14419 -9.07626,-6.10423 -2.048,-2.15249 -4.19019,-4.21088 -6.47285,-6.11365 -3.35523,-2.4804 -6.69044,-5.04469 -9.71668,-7.91398 -2.92606,-2.8001 -5.9847,-5.38252 -9.46035,-7.4898 -2.09426,-1.78819 -4.24175,-3.47616 -6.77876,-4.60117 -2.81324,-0.85663 -5.67726,-1.49346 -8.00875,-3.42886 -2.37021,-2.12326 -4.70243,-4.28657 -7.03536,-6.45351 -2.1474,-2.2602 -4.30383,-4.47976 -6.8389,-6.31557 -3.0934,-2.3296 -6.14409,-4.79697 -8.81604,-7.60259 -2.09672,-2.34498 -3.79548,-5.01554 -6.18782,-7.07315 -3.08452,-2.83714 -6.26155,-5.52761 -9.70973,-7.92906 -3.89461,-3.21908 -7.94945,-6.23664 -11.77671,-9.53789 -3.38682,-2.83728 -6.60888,-5.81896 -9.09521,-9.5076 -2.71357,-2.95187 -5.63452,-5.61218 -8.83108,-8.0433 -3.71355,-3.43588 -7.5443,-6.7374 -11.51345,-9.87636 -4.41164,-3.67681 -8.56616,-7.63723 -12.77415,-11.5409 -3.87466,-3.79412 -7.84096,-7.47527 -12.24947,-10.65164 -3.83625,-2.92087 -7.8377,-5.64357 -10.96356,-9.37341 -2.82789,-3.02178 -5.64731,-6.08934 -7.84219,-9.61772 -1.55994,-2.58545 -3.18544,-5.11533 -4.94337,-7.57141 -2.26071,-2.82206 -4.93482,-5.10908 -7.80773,-7.30218 -3.16387,-2.57659 -6.53343,-4.93276 -9.30555,-7.95169 -2.62866,-2.19913 -5.50118,-4.0955 -7.98781,-6.45183 -1.94224,-2.07931 -3.74268,-4.27267 -5.35223,-6.6197 -1.98757,-2.9447 -4.85708,-5.23072 -7.6191,-7.4129 -3.60566,-2.54553 -7.57226,-4.41914 -11.25107,-6.83768 -3.78962,-2.60051 -7.52566,-5.32233 -10.92887,-8.41775 -3.16138,-3.17146 -6.3176,-6.34807 -9.48471,-9.51381 -3.10807,-3.08772 -6.21361,-6.1896 -9.58066,-8.99863 -3.86958,-3.09317 -8.04069,-5.70823 -12.37575,-8.1045 -4.59586,-3.06254 -8.95805,-6.43603 -13.2756,-9.87709 -3.89625,-2.98005 -7.85113,-5.85709 -11.74555,-8.83517 -3.06809,-2.25206 -6.22116,-4.34461 -9.50595,-6.27143 -2.04238,-1.68944 -4.15313,-3.2643 -5.823,-5.35574 -1.40411,-1.72336 -2.94831,-3.41771 -4.73983,-4.73243 -2.99526,-1.77381 -5.84398,-3.78683 -8.75559,-5.68953 -3.22704,-2.31242 -6.32525,-4.83675 -8.92142,-7.85769 -2.12598,-2.485 -3.91963,-5.209546 -5.9842,-7.74561 -1.83449,-1.814299 -3.84072,-3.32082 -6.10845,-4.573178 -2.48128,-1.884891 -4.92482,-3.826166 -7.19958,-5.960297 -1.55166,-1.651499 -3.15948,-3.24964 -4.90588,-4.691396 -2.36094,-1.589088 -4.78177,-3.020981 -7.3591,-4.244855 -2.89277,-1.681082 -5.23538,-3.956844 -7.75836,-6.122183 -2.84947,-2.277856 -5.58826,-4.715658 -8.65506,-6.704924 -3.11569,-1.767972 -6.51326,-2.960575 -9.60039,-4.785943 -3.31969,-2.095809 -6.329778,-4.69053 -9.341215,-7.202359 -2.894975,-2.509416 -5.7532,-5.052362 -8.67581,-7.528351 -2.899498,-2.817143 -5.826205,-5.606103 -8.830721,-8.311613 -2.66368,-2.473509 -4.994563,-5.284059 -7.95004,-7.43142 C 66.227523,26.441218 62.963637,23.560282 59.899335,20.503027 56.769932,16.911961 54.434809,12.805255 51.643702,8.9623522 48.724758,5.2961445 45.801061,1.6440036 42.72497,-1.8928949 c -2.80461,-3.5057627 2.153287,-7.4720805 4.957897,-3.9663178 z"
     inkscape:connector-curvature="0" />
  <path
     style="fill:#fee0d2;fill-opacity:1;stroke:none"
     id="path5901"
     d="m 725.12635,504.28886 c 5.29323,3.2096 10.9883,5.71079 16.5639,8.38592 5.43461,2.9087 10.51538,6.34978 15.51559,9.9303 3.24591,2.62476 6.92732,4.52416 10.67044,6.31116 5.48191,2.33219 10.50084,5.50246 15.62257,8.50765 5.61569,2.90819 11.4449,5.37909 17.28112,7.80468 3.55175,1.11692 6.99963,2.44708 10.40607,3.94478 3.30262,1.14985 6.34715,2.91325 9.38005,4.62953 4.64083,2.58799 9.66003,4.43845 14.59702,6.37878 4.59905,1.65633 9.2866,3.04067 13.91274,4.61948 3.58593,0.95573 6.94402,2.55405 10.43887,3.76616 2.90633,0.69979 5.78628,1.50753 8.6019,2.51956 2.58447,1.13065 5.15152,2.23187 7.79206,3.23474 2.72242,1.0249 5.60044,1.40102 8.38199,2.22911 1.51533,0.33252 3.12772,1.04326 4.68542,0.60258 4.42136,-0.77956 5.52384,5.47319 1.10247,6.25276 l 0,0 c -2.59976,0.38405 -5.10217,0.0267 -7.60239,-0.77093 -2.92904,-0.87516 -5.98029,-1.2343 -8.83261,-2.3821 -2.60793,-1.0025 -5.15656,-2.08087 -7.70577,-3.20251 -2.77753,-1.03777 -5.65638,-1.7326 -8.51697,-2.48921 -3.47622,-1.22167 -6.8288,-2.78614 -10.39579,-3.75129 -4.71718,-1.61005 -9.49993,-3.01425 -14.18435,-4.71915 -5.21378,-2.04911 -10.50584,-4.0183 -15.40186,-6.76235 -2.8493,-1.61279 -5.6998,-3.27816 -8.80943,-4.34346 -3.36736,-1.48214 -6.78034,-2.7725 -10.28736,-3.89398 -6.10171,-2.53884 -12.20022,-5.11841 -18.0566,-8.1912 -4.96686,-2.91498 -9.82283,-6.00172 -15.14462,-8.25391 -4.07898,-1.94742 -8.08342,-4.04095 -11.63265,-6.87952 -4.69946,-3.3683 -9.46836,-6.60798 -14.56444,-9.36724 -5.71268,-2.7409 -11.5423,-5.31187 -16.96746,-8.59768 -3.89804,-2.22745 -0.74795,-7.74011 3.15009,-5.51266 z"
     inkscape:connector-curvature="0" />
  <path
     style="fill:#fee0d2;fill-opacity:1;stroke:none"
     id="path5903"
     d="m 1334.305,975.44444 c 4.2741,1.12921 8.5445,2.24623 12.7649,3.57676 3.7785,1.28646 7.3822,2.94669 10.8696,4.87214 2.5144,1.51224 4.9585,3.09576 7.5361,4.49678 2.4467,1.29267 4.8606,2.61529 7.3994,3.73091 3.4353,1.4307 6.7369,3.17215 10.169,4.61271 3.8355,1.59878 7.2569,4.01696 10.5065,6.57306 2.2556,1.8891 4.9441,3.0112 7.6101,4.1643 2.6138,1.2728 5.3191,2.3024 7.9913,3.4354 2.5217,1.1007 5.1594,1.9091 7.6897,2.9817 3.1794,1.2506 5.878,3.3915 8.6582,5.3278 2.9028,1.9151 5.9947,3.4994 9.0473,5.1538 3.3641,2.028 6.9358,3.7138 10.5022,5.3574 3.677,1.5437 7.0024,3.6594 10.3445,5.8009 2.5918,1.9774 5.2308,3.8897 8.0794,5.4812 2.7225,1.4879 5.6786,2.2763 8.6138,3.1911 3.4374,1.0104 6.7415,2.4363 9.9627,3.9942 3.2933,1.8085 6.2971,4.0735 9.3106,6.3037 2.4486,1.6851 5.2576,2.6673 7.9957,3.757 3.3641,1.2905 6.6643,2.7396 9.9801,4.1494 4.1925,1.723 8.2276,3.7562 12.1776,5.9739 3.4006,1.6676 6.5481,3.7687 9.6894,5.8662 1.1904,0.8844 2.4708,1.6237 3.6991,2.4517 3.7171,2.5177 0.1565,7.7746 -3.5606,5.2568 l 0,0 c -1.2131,-0.8264 -2.4915,-1.5474 -3.6667,-2.4299 -3.0046,-2.0101 -6.0156,-4.0204 -9.2738,-5.6109 -3.7445,-2.1104 -7.5734,-4.0335 -11.5522,-5.6661 -3.2699,-1.3944 -6.5269,-2.8218 -9.8459,-4.0941 -3.2419,-1.2975 -6.5504,-2.5037 -9.4204,-4.551 -2.7,-1.9995 -5.3848,-4.031 -8.3089,-5.6965 -2.9319,-1.4342 -5.9533,-2.724 -9.0873,-3.6463 -3.3529,-1.0602 -6.7297,-1.9989 -9.8328,-3.7192 -2.9393,-1.6706 -5.7279,-3.5791 -8.3879,-5.667 -3.0955,-1.9876 -6.1594,-3.9679 -9.5784,-5.3809 -3.6876,-1.7062 -7.3835,-3.4482 -10.868,-5.5408 -3.2579,-1.7694 -6.5587,-3.4647 -9.6488,-5.525 -2.435,-1.6968 -4.7821,-3.6097 -7.5614,-4.7151 -2.4978,-1.131 -5.191,-1.8237 -7.685,-2.9797 -2.6388,-1.1872 -5.3864,-2.1494 -7.9864,-3.4332 -3.1747,-1.3763 -6.3436,-2.7792 -9.0331,-5.0167 -2.7762,-2.2266 -5.7435,-4.3008 -9.0312,-5.6984 -3.4594,-1.4692 -6.7962,-3.2132 -10.2666,-4.65484 -2.691,-1.19652 -5.2642,-2.59061 -7.864,-3.95951 -2.5907,-1.40908 -5.0532,-2.98633 -7.5721,-4.51651 -3.1184,-1.72173 -6.3316,-3.2172 -9.7099,-4.37505 -4.5387,-1.43099 -9.1705,-2.50279 -13.6953,-3.95325 -4.0156,-2.00779 -1.1761,-7.6867 2.8395,-5.6789 z"
     inkscape:connector-curvature="0" />
  <path
     style="fill:#de2d26;fill-opacity:1;stroke:none"
     id="path5916"
     d="m 1145.0003,841.749 c 3.6227,1.38376 6.9102,3.37861 10.1244,5.51257 2.1939,1.79145 4.8604,2.6903 7.4231,3.79796 2.689,1.01124 5.2689,2.2935 7.8323,3.58923 2.8533,1.3299 5.6664,2.74685 8.4562,4.20671 2.4311,1.61822 5.2577,2.28286 7.8026,3.67244 3.2065,2.078 5.7599,4.93442 8.8605,7.15117 3.3292,2.02197 6.3861,4.487 9.7195,6.49383 2.7857,1.66525 5.6874,3.14594 8.6196,4.53736 3.4857,1.50997 6.6339,3.56391 9.8127,5.61264 2.3768,1.89082 4.994,3.42664 7.5302,5.08806 2.0575,1.321 3.9528,2.64843 6.3451,3.2483 3.2553,0.52877 6.4163,1.52065 9.3979,2.91771 2.8849,1.41626 5.5166,3.33624 7.8215,5.56639 2.4484,2.10762 4.6086,4.50078 6.9362,6.73319 2.3758,2.04205 5.1497,3.49143 7.8671,5.0099 2.6775,1.60807 4.8792,3.84838 7.4627,5.58041 2.2013,1.78992 4.5691,3.35607 7.0636,4.70393 3.4069,1.1584 5.8561,3.57676 8.1869,6.19603 1.9553,2.6879 4.1773,5.20143 6.6998,7.36826 2.164,1.91225 4.1961,4.00571 6.6095,5.61082 2.302,1.84458 4.8527,3.30341 7.1279,5.18063 2.0676,1.84685 4.4234,3.29119 6.5633,5.04275 2.0262,2.11816 4.1139,4.18552 5.7243,6.64307 1.4105,2.5983 2.4909,5.23778 3.0739,8.14094 0.7033,1.92604 1.0135,4.0397 2.2391,5.72887 1.3053,1.32087 2.8862,2.10312 4.5736,2.85771 2.2084,0.47407 4.2006,1.42008 6.2726,2.26078 1.4587,0.85256 0.8048,0.4732 1.9604,1.1405 3.8839,2.25199 0.6991,7.74467 -3.1848,5.49268 l 0,0 c -1.0396,-0.60478 -0.6372,-0.32067 -1.2512,-0.78649 -2.115,-0.91698 -4.1659,-1.73916 -6.4265,-2.32837 -2.7827,-1.28201 -5.377,-2.75348 -7.2947,-5.21878 -1.4951,-2.46683 -2.3836,-5.1544 -3.1212,-7.93573 -0.3961,-2.14271 -1.2175,-4.0338 -2.2118,-5.96545 -1.1376,-1.95697 -2.981,-3.38602 -4.395,-5.1328 -2.1274,-1.77515 -4.515,-3.20485 -6.5836,-5.05956 -2.0997,-1.7679 -4.5281,-3.0573 -6.6413,-4.81367 -2.5909,-1.79374 -4.8891,-3.94301 -7.2055,-6.07096 -2.6963,-2.37448 -5.1886,-5.00697 -7.276,-7.93898 -1.8817,-2.1232 -3.6793,-3.95391 -6.4813,-4.839 -2.6663,-1.46651 -5.247,-3.09781 -7.6016,-5.0332 -2.4072,-1.66401 -4.5468,-3.65603 -6.9812,-5.28234 -3.1877,-1.78266 -6.4243,-3.51926 -9.1662,-5.97187 -2.3491,-2.25728 -4.5348,-4.66854 -7.0055,-6.80071 -1.7464,-1.79372 -3.8965,-3.22572 -6.1161,-4.36157 -2.5831,-1.30972 -5.4465,-1.97415 -8.2796,-2.50208 -3.0263,-0.84279 -5.5961,-2.32635 -8.1841,-4.07194 -2.5206,-1.65497 -5.1311,-3.17857 -7.4912,-5.06271 -2.9484,-1.90514 -5.8536,-3.83073 -9.1,-5.21511 -3.1263,-1.49374 -6.2268,-3.0661 -9.1976,-4.85034 -3.4531,-2.12988 -6.6739,-4.6281 -10.1269,-6.76452 -2.8924,-2.10292 -5.3879,-4.63424 -8.2539,-6.76376 -2.4332,-1.43178 -5.3302,-1.87813 -7.6396,-3.58402 -2.762,-1.44796 -5.5459,-2.85375 -8.3753,-4.16505 -2.4519,-1.24011 -4.9088,-2.47996 -7.489,-3.42834 -2.9022,-1.2574 -5.9168,-2.32695 -8.4139,-4.33584 -2.7482,-1.82556 -5.5333,-3.56162 -8.6197,-4.77827 -4.2592,-1.41972 -2.2514,-7.44311 2.0078,-6.02338 z"
     inkscape:connector-curvature="0" />
</svg>
