<?xml version="1.0" encoding="UTF-8" standalone="no"?>
<!-- Created with Inkscape (http://www.inkscape.org/) -->

<svg
   xmlns:dc="http://purl.org/dc/elements/1.1/"
   xmlns:cc="http://creativecommons.org/ns#"
   xmlns:rdf="http://www.w3.org/1999/02/22-rdf-syntax-ns#"
   xmlns:svg="http://www.w3.org/2000/svg"
   xmlns="http://www.w3.org/2000/svg"
   xmlns:xlink="http://www.w3.org/1999/xlink"
   xmlns:sodipodi="http://sodipodi.sourceforge.net/DTD/sodipodi-0.dtd"
   xmlns:inkscape="http://www.inkscape.org/namespaces/inkscape"
   id="svg2"
   version="1.1"
   inkscape:version="0.48.2 r9819"
   width="1299"
   height="2277"
   sodipodi:docname="27413-70.svg">
  <metadata
     id="metadata8">
    <rdf:RDF>
      <cc:Work
         rdf:about="">
        <dc:format>image/svg+xml</dc:format>
        <dc:type
           rdf:resource="http://purl.org/dc/dcmitype/StillImage" />
        <dc:title />
      </cc:Work>
    </rdf:RDF>
  </metadata>
  <defs
     id="defs6" />
  <sodipodi:namedview
     pagecolor="#ffffff"
     bordercolor="#666666"
     borderopacity="1"
     objecttolerance="10"
     gridtolerance="10"
     guidetolerance="10"
     inkscape:pageopacity="0"
     inkscape:pageshadow="2"
     inkscape:window-width="1920"
     inkscape:window-height="1152"
     id="namedview4"
     showgrid="false"
     inkscape:zoom="0.82916118"
     inkscape:cx="444.31162"
     inkscape:cy="1851.6723"
     inkscape:window-x="1280"
     inkscape:window-y="0"
     inkscape:window-maximized="1"
     inkscape:current-layer="layer3" />
  <image
     width="1299"
     height="2277"
     xlink:href="file:///tmp/broken-interfaces/phone_cropped_display/27413-70.png"
     id="image10"
     x="0"
     y="0" />
  <g
     inkscape:groupmode="layer"
     id="layer1"
     inkscape:label="Layer">
    <g
       id="g0"
       inkscape:label="#g3037">
      <path
         inkscape:connector-curvature="0"
         d="m -15.930716,684.68144 c 4.412249,-2.07951 8.5159562,-4.71847 12.5774801,-7.40176 4.14707962,-2.7981 8.5321788,-5.14756 13.0993476,-7.17373 3.4739983,-1.60838 6.9502633,-3.19866 10.3342783,-4.99154 3.737329,-1.64287 7.224729,-3.77199 10.898525,-5.53372 2.310587,-1.05921 4.398548,-2.38793 6.84936,-3.14237 1.759543,-0.89095 3.68332,-1.30856 5.464593,-2.14795 2.049678,-0.70932 3.989661,-1.57472 6.013355,-2.33594 1.752736,-0.38483 3.26024,-1.30119 4.913918,-1.95806 2.016473,-0.67413 3.959287,-1.63535 5.957745,-2.44795 3.298372,-1.04002 6.421705,-2.5299 9.677459,-3.68439 2.567023,-1.24648 5.259741,-2.18072 7.897312,-3.25826 2.859263,-1.05639 5.641391,-2.36249 8.41142,-3.64548 3.967364,-1.72891 7.719591,-3.86741 11.560674,-5.84885 2.468709,-1.04086 4.623769,-2.58976 7.129149,-3.55162 2.4542,-1.13779 4.68903,-2.68153 6.99373,-4.08783 2.92545,-2.00943 5.98284,-3.81043 8.94851,-5.75855 2.12124,-1.23188 4.17954,-2.60313 6.11529,-4.11558 1.95419,-1.51272 4.07065,-2.79004 6.04485,-4.27955 1.98995,-1.32627 3.96112,-2.70478 5.83695,-4.19515 2.25304,-1.68651 4.77602,-2.92812 7.18938,-4.34931 2.398,-1.20719 4.5211,-2.87607 6.83431,-4.23448 2.13132,-1.22248 4.21471,-2.5069 6.3514,-3.71841 2.09702,-1.31274 4.28127,-2.50904 6.51737,-3.57148 1.93656,-1.16919 3.97692,-2.14553 6.01205,-3.12655 2.17738,-0.92186 4.41466,-1.70748 6.55035,-2.7296 3.06461,-1.16857 6.09838,-2.40284 9.12626,-3.66633 3.44752,-1.32386 6.92433,-2.55539 10.4049,-3.79001 3.28332,-1.10367 6.75983,-1.66321 9.99199,-2.91429 3.44807,-1.26632 6.88659,-2.55563 10.33907,-3.81473 3.27463,-1.39635 6.57329,-2.75117 9.63674,-4.57646 3.73428,-2.19945 7.38946,-4.48218 11.2792,-6.40932 3.71581,-1.85494 7.42687,-3.72518 11.18261,-5.49898 3.87869,-1.99567 7.64055,-4.20959 11.40639,-6.40952 3.64636,-2.20102 7.08984,-4.70755 10.7647,-6.86132 2.9294,-1.30295 5.62961,-3.04186 8.46724,-4.51852 1.98172,-0.99678 4.01089,-1.94905 5.85993,-3.18258 2.76781,-1.59467 5.40286,-3.39838 8.07751,-5.14095 2.22112,-1.20961 4.17826,-2.81481 6.36216,-4.07969 1.6232,-1.15454 3.44069,-1.98303 5.06881,-3.12961 1.85217,-1.78546 4.16137,-3.07406 6.03083,-4.81537 1.97689,-1.38234 3.1831,-2.45309 3.58531,-2.86172 1.32121,-1.21957 2.78791,-2.2677 4.1098,-3.48144 2.196,-2.07968 4.60254,-3.91107 6.69521,-6.1036 1.83083,-1.64013 3.57663,-3.34474 5.44336,-4.94559 2.25056,-1.91454 4.29712,-4.04351 6.52237,-5.98704 3.5051,-3.11208 7.33394,-5.81545 11.06053,-8.64927 2.34237,-1.88225 4.5917,-3.85568 7.02555,-5.61862 2.74948,-2.14142 5.53257,-4.17965 8.47382,-6.05699 2.96912,-1.87884 5.63081,-4.17514 8.64432,-5.98135 2.33499,-1.3981 4.75139,-2.61833 7.04463,-4.09419 4.07787,-2.21363 7.98544,-4.71113 12.02807,-6.98561 3.80391,-1.57928 7.10625,-4.04751 10.72807,-5.96051 1.68619,-1.21663 3.48878,-2.24556 5.2501,-3.34775 4.23751,-2.96859 8.81378,-5.39443 13.28607,-7.9792 4.45818,-2.57548 8.7656,-5.3827 13.36762,-7.70107 1.83367,-0.92136 3.58588,-2.00419 5.3616,-3.03907 3.16195,-1.94875 6.39431,-3.76943 9.57063,-5.69354 1.86111,-1.42639 4.07639,-2.37334 5.86495,-3.88259 1.90907,-1.37923 3.69674,-2.92807 5.6288,-4.29448 3.05069,-2.16712 6.00362,-4.49491 8.8459,-6.92803 2.29185,-1.95164 4.68452,-3.78484 6.9781,-5.73694 2.61707,-2.64265 5.6196,-4.8561 8.32515,-7.39352 2.13787,-1.69803 4.02538,-3.65926 6.16862,-5.34895 1.75483,-1.41534 3.32828,-3.03477 4.9266,-4.61996 3.47192,-3.02427 7.01549,-5.96407 10.44858,-9.03339 2.31566,-2.12672 4.60838,-4.27968 6.84486,-6.48974 2.2641,-2.38557 4.68361,-4.58642 7.16846,-6.73824 4.71361,-3.83266 9.6854,-7.326 14.53415,-10.98265 2.65007,-2.01118 5.18866,-4.16094 7.82968,-6.17753 1.93718,-1.70898 4.02714,-3.24741 6.0249,-4.89229 2.02593,-1.58075 4.05969,-3.1529 6.09112,-4.73265 1.30294,-0.98992 2.48895,-2.12134 3.66563,-3.25513 1.58971,-1.84093 3.78272,-2.92003 5.70967,-4.33071 2.55507,-2.21115 5.44048,-3.98013 8.28336,-5.78855 2.89882,-2.03619 5.9663,-3.82585 9.10674,-5.46088 3.34662,-1.68596 6.59289,-3.53945 9.80004,-5.47737 3.4887,-2.0892 6.89387,-4.2961 10.27141,-6.56699 3.12863,-2.03402 6.50725,-3.64197 9.63376,-5.67571 2.13379,-1.28204 4.38245,-2.39733 6.3491,-3.93785 1.32532,-1.00051 2.57721,-2.05074 3.89335,-3.05705 1.08916,-1.3418 2.63505,-2.26147 3.97445,-3.33831 2.22147,-1.4333 4.37353,-2.95518 6.46873,-4.56599 1.54606,-1.06136 3.04335,-2.16605 4.59388,-3.22892 2.48895,-1.25106 4.65443,-3.00785 6.7683,-4.79924 2.47616,-1.8167 4.94535,-3.63602 7.35068,-5.54579 1.85635,-1.28352 3.68273,-2.60009 5.62958,-3.75079 2.48877,-1.47445 4.68269,-3.38333 6.8586,-5.27461 2.09904,-1.6719 4.15245,-3.34562 6.56326,-4.54835 0.94999,-0.83303 1.78645,-1.41773 2.70011,-2.09388 2.04564,-1.29108 3.93956,-2.76882 5.85616,-4.23932 2.08494,-1.50713 4.18371,-2.97866 6.27011,-4.48536 2.25183,-1.47665 4.51507,-2.94501 6.71428,-4.50368 1.71751,-1.27872 3.72214,-2.07264 5.58581,-3.10593 3.14666,-2.03813 6.24424,-4.14121 9.35494,-6.23155 1.92042,-1.15663 3.43083,-2.79502 5.31131,-4.01941 2.01464,-1.27009 3.69624,-2.92731 5.66174,-4.294 2.74976,-1.82937 5.45312,-3.73005 8.02332,-5.80481 1.48734,-0.98124 2.73551,-2.22435 4.13401,-3.31593 1.89884,-1.04887 3.61382,-2.32614 5.35321,-3.61233 1.28781,-1.36472 2.74434,-2.53061 4.14104,-3.75923 1.43356,-1.15903 2.91847,-2.21575 4.47879,-3.1967 1.40362,-0.93269 2.82146,-1.77808 4.36344,-2.45034 2.09952,-0.58496 -0.19317,0.063 -0.70315,0.50575 -1.63617,3.2262 3.84437,2.60328 7.46201,4.07838 0,0 -7.54668,-4.04891 -7.54668,-4.04891 l 0,0 c 6.66139,1.94805 9.51825,0.20891 7.53206,4.16595 -0.94995,1.64199 -2.16955,2.82935 -3.99336,3.41106 1.73687,-1.05954 -2.59255,1.67752 -2.59903,1.67403 -1.19682,0.7227 -2.32543,1.49544 -3.40862,2.39961 -1.63293,1.29261 -3.05807,2.80537 -4.62251,4.17822 -1.81405,1.3162 -3.59491,2.6685 -5.58006,3.71417 0.72792,-1.07597 -3.94612,3.76257 -3.54405,2.94093 -2.74429,2.27008 -5.6305,4.36464 -8.62119,6.29907 -2.02914,1.32313 -3.7447,3.04224 -5.82022,4.28785 -1.82815,1.21992 -3.21087,2.98363 -5.16165,4.04576 -3.34496,2.27021 -6.6698,4.56757 -10.1433,6.64288 -1.55746,0.81289 -3.2307,1.45989 -4.64045,2.50966 -2.18495,1.57551 -4.45251,3.0461 -6.70211,4.52056 -2.02789,1.43798 -4.06079,2.85402 -6.06524,4.3216 -2.00833,1.51709 -3.97746,3.07426 -6.12766,4.38694 -1.49107,0.90141 -2.24805,1.94505 -4.0752,2.89192 -1.73533,0.32176 -2.87476,2.57856 -4.44305,3.23884 -2.59079,2.29406 -5.25652,4.54383 -8.28152,6.25194 -1.58545,0.85249 -2.99494,1.98448 -4.48908,2.97151 -2.32621,1.9175 -4.7387,3.71971 -7.19151,5.47205 -2.37165,1.98887 -4.79315,3.99261 -7.60161,5.34049 -1.394,0.90433 -2.68702,1.87939 -4.0348,2.84745 -2.05934,1.63664 -4.18353,3.19028 -6.43969,4.5479 -1.50495,1.16962 -3.04091,2.1697 -4.33807,3.57083 -1.17697,0.99571 -2.46269,1.88347 -3.64495,2.9063 -2.17534,1.63229 -4.49131,3.04364 -6.86764,4.36431 -3.09471,1.99186 -6.36994,3.66489 -9.49119,5.61357 -3.49849,2.34947 -7.02201,4.63865 -10.63581,6.7977 -3.37299,2.02496 -6.78413,3.97001 -10.29911,5.7375 -2.91033,1.49187 -5.73491,3.16203 -8.41061,5.04406 -2.72146,1.76408 -5.51172,3.43442 -7.9785,5.55749 -1.60886,1.1132 -3.40483,1.96995 -4.71684,3.45112 -1.38571,1.34595 -2.80232,2.66405 -4.3235,3.85734 -1.98416,1.5699 -4.00298,3.09711 -5.97543,4.67652 -2.10536,1.68178 -4.26364,3.29326 -6.29494,5.06385 -2.6667,1.91502 -5.00395,4.31795 -7.68396,6.23022 -4.68228,3.62666 -9.53799,7.01641 -14.18907,10.68365 -2.35706,1.96887 -4.6649,3.96976 -6.75948,6.22357 -2.33428,2.30916 -4.66097,4.62739 -7.09816,6.82929 -3.32732,2.99885 -6.72819,5.91078 -10.19183,8.7513 -1.82171,1.76519 -3.63976,3.54113 -5.61832,5.13284 -1.9473,1.59722 -3.66448,3.43657 -5.63422,5.00953 -2.8319,2.61137 -5.89375,4.96264 -8.66961,7.64219 -2.297,1.91517 -4.64165,3.7701 -6.90105,5.72712 -3.06806,2.61866 -6.23444,5.1465 -9.55984,7.43306 -1.752,1.17875 -3.36592,2.55862 -5.06411,3.80097 -2.13532,1.76007 -4.59007,3.08068 -6.85191,4.67329 -3.24428,1.98525 -6.53855,3.87146 -9.81246,5.80833 -1.89901,1.04697 -3.75482,2.14002 -5.64604,3.19673 -4.42612,2.37009 -8.58551,5.17158 -12.95747,7.63703 -4.4163,2.54229 -8.95074,4.89175 -13.18417,7.74002 -1.94989,1.15299 -3.86892,2.3234 -5.72066,3.62824 -3.56033,1.85645 -6.71691,4.45205 -10.49106,5.92576 -3.92184,2.17692 -7.68281,4.62506 -11.66035,6.70424 -2.36053,1.46363 -4.83397,2.70671 -7.20781,4.13757 -2.93857,1.79918 -5.48024,4.16748 -8.44345,5.94109 -2.80796,1.77589 -5.48567,3.67815 -8.09752,5.73231 -2.37294,1.68953 -4.48617,3.67405 -6.76484,5.49074 -3.57366,2.78191 -7.29108,5.37559 -10.69937,8.36522 -2.27251,1.90193 -4.32191,4.04812 -6.6053,5.94006 -1.66833,1.40808 -3.1805,2.95898 -4.81047,4.40956 -2.28576,2.33415 -4.80023,4.39349 -7.22449,6.57338 -1.26402,1.07878 -2.58771,2.07097 -3.84096,3.16569 -1.21163,1.16981 -2.48654,2.20343 -3.86446,3.1818 -2.22192,1.88761 -4.61758,3.56857 -6.85049,5.44896 -1.83227,1.22107 -3.78623,2.20432 -5.60754,3.43724 -2.05547,1.19604 -3.87333,2.76857 -5.96688,3.91336 -2.69717,1.73797 -5.33312,3.57288 -8.13094,5.14918 -2.11477,1.31735 -4.33978,2.44818 -6.55832,3.57886 -2.71347,1.38044 -5.24137,3.13113 -8.04707,4.3388 -3.69027,2.14661 -7.08076,4.75377 -10.76403,6.9141 -3.99058,2.29913 -7.9541,4.65343 -12.07518,6.71401 -3.70902,1.75374 -7.36687,3.61746 -11.03546,5.45316 -3.71008,1.82766 -7.18432,4.0052 -10.74422,6.09854 -3.53738,2.04702 -7.27649,3.68533 -11.05609,5.23338 -3.43829,1.25433 -6.86455,2.53615 -10.30519,3.77951 -3.30254,1.19311 -6.73392,1.9819 -10.10048,2.97221 -3.33503,1.1823 -6.66812,2.3567 -9.97257,3.62084 -2.93038,1.21542 -5.86382,2.41193 -8.84285,3.49896 -2.13241,0.95946 -4.30773,1.81613 -6.47561,2.68259 -2.04563,0.943 -4.03637,1.98399 -5.98459,3.11356 -2.03954,0.9812 -4.03964,2.05841 -5.95416,3.26435 -2.11738,1.22726 -4.19807,2.49767 -6.3168,3.7218 -2.33214,1.30546 -4.39584,3.08049 -6.82255,4.2274 -2.08386,1.19277 -4.21844,2.28857 -6.18755,3.67424 -1.92762,1.49631 -3.92584,2.91445 -5.94995,4.26924 -1.95212,1.49024 -4.05536,2.75129 -5.99163,4.25215 -2.11098,1.60816 -4.31193,3.11628 -6.59101,4.47116 -3.04224,2.0514 -6.19853,3.92704 -9.23982,5.97954 -2.80547,1.69169 -5.54139,3.5453 -8.59808,4.76826 -2.18064,0.56714 -3.78426,2.59143 -5.99598,3.14568 -3.953149,2.1053 -7.85862,4.28803 -11.981917,6.05282 -2.893265,1.30808 -5.806336,2.61985 -8.767589,3.75179 -2.770636,1.12013 -5.573154,2.15104 -8.273579,3.43838 -3.144693,1.09387 -6.145425,2.57021 -9.341667,3.52403 -2.004488,0.78777 -3.980269,1.67264 -5.99294,2.41125 -1.723258,0.68763 -3.334394,1.64226 -5.156468,2.07399 -1.791762,0.60291 -3.488895,1.45601 -5.291729,2.03418 -2.211982,1.03357 -4.553784,1.6558 -6.787884,2.63777 -2.007136,0.3978 -3.490017,2.11229 -5.452861,2.67527 -3.58361,1.69532 -6.925251,3.88371 -10.593056,5.42271 -3.565707,1.84434 -7.201042,3.53506 -10.842042,5.22371 -4.1282837,1.8357 -8.0589553,4.0071 -11.7980015,6.55147 -4.5527974,2.99801 -9.1643761,5.96021 -14.2065135,8.08081 0,0 -3.200899,-8.00224 -3.200899,-8.00224 z"
         id="path3013"
         style="fill:#de2d26;fill-opacity:1;fill-rule:nonzero;stroke:none" />
      <path
         inkscape:connector-curvature="0"
         d="m 492.85511,192.11657 c 3.47544,-3.19567 7.36727,-5.80486 11.26096,-8.4501 4.43519,-3.2949 9.01367,-6.35378 13.73285,-9.22172 4.54803,-2.37042 8.86859,-5.13978 13.36755,-7.59415 4.66359,-2.52268 9.39427,-4.88801 14.20813,-7.10609 3.71241,-1.49806 7.4864,-2.89873 11.30891,-4.09747 2.74566,-1.26851 5.4012,-2.6227 8.29321,-3.54077 2.31028,-1.00647 4.63309,-1.94719 7.09771,-2.48578 2.90689,-1.12536 5.79631,-2.35197 8.68649,-3.548 4.42835,-1.86516 8.6008,-4.26107 12.89896,-6.39328 2.56612,-1.06086 4.96317,-2.4526 7.4997,-3.5725 4.25079,-1.91162 8.38255,-4.07782 12.47901,-6.29736 3.08296,-1.58174 6.25229,-2.97438 9.27495,-4.67076 3.77103,-1.76145 7.3966,-3.7858 10.87107,-6.07484 2.72791,-1.74523 5.40367,-3.5406 8.09733,-5.33322 2.57442,-1.27764 5.07734,-2.61147 7.51981,-4.12754 3.66598,-2.17405 7.42822,-4.17372 11.1172,-6.30045 1.49533,-1.39405 3.72208,-1.80804 5.30812,-2.99234 1.3065,-0.710585 1.9397,-1.28586 3.10642,-2.127664 2.1918,-1.461661 4.57246,-2.549077 6.95954,-3.648044 3.58036,-1.839474 7.11503,-3.768298 10.72124,-5.557286 3.78686,-1.864998 7.84884,-2.977209 11.77998,-4.46838 4.84282,-1.612136 9.44642,-3.842894 14.01964,-6.089506 2.86902,-1.829058 6.19104,-2.615547 9.28041,-3.90601 2.51428,-0.801604 4.93274,-1.856303 7.43519,-2.694148 1.03068,-0.326654 2.06661,-0.64211 3.12069,-0.885145 1.74568,-0.05732 1.40559,-0.192738 2.47757,-0.498937 3.99877,-0.764232 7.93844,-1.791792 11.90063,-2.729802 5.28237,-1.379542 10.48869,-3.004235 15.67998,-4.689027 5.0073,-1.485141 9.73123,-3.631165 14.48774,-5.749204 3.89596,-1.795489 7.77124,-3.666078 11.74711,-5.279657 3.23649,-1.104902 6.49592,-2.123874 9.73986,-3.205558 3.63465,-1.482408 7.26681,-2.966373 10.90663,-4.435399 3.78885,-1.399234 7.57593,-2.793557 11.42213,-4.028644 4.89833,-1.281844 9.72539,-2.793089 14.67699,-3.859761 6.05797,-1.376235 12.14395,-2.660922 18.27468,-3.670636 6.69211,-1.357543 13.34065,-2.924513 20.02208,-4.339525 5.51602,-1.189165 11.08675,-2.141519 16.59999,-3.337491 4.27892,-0.995057 8.63369,-1.535893 12.94092,-2.379722 4.00983,-0.640083 7.92365,-1.741491 11.91092,-2.505275 2.38907,-0.397534 4.77052,-0.488557 7.12622,-1.031009 3.04478,-0.717658 6.16251,-0.843419 9.19944,-1.580012 1.45842,-0.321994 2.90366,-0.716977 4.37083,-0.999988 0.0767,-0.0148 -0.15935,0.02154 -0.22586,0.06252 -0.53047,0.3269 -1.03746,0.690443 -1.55619,1.035664 0,0 6.29671,5.764904 6.29671,5.764904 l 0,0 c -2.12251,1.492104 -4.2808,2.07136 -6.83563,2.543976 -3.09248,0.756998 -6.23869,0.976646 -9.35466,1.603559 -2.4307,0.535058 -4.87052,0.717845 -7.32636,1.083182 -3.98388,0.831668 -7.90548,1.96495 -11.93429,2.566659 -4.25399,0.830691 -8.55547,1.370056 -12.77623,2.372391 -5.52747,1.179603 -11.08242,2.239932 -16.61028,3.420358 -6.81573,1.443487 -13.59189,3.072381 -20.43116,4.398069 -6.00025,0.969676 -11.94993,2.239026 -17.87974,3.56756 -4.68333,0.966541 -9.23791,2.409476 -13.87282,3.578194 -3.64291,1.123215 -7.19763,2.493449 -10.77597,3.803121 -3.80652,1.541647 -7.61158,3.082094 -11.43022,4.594927 -3.0725,1.020414 -6.16039,1.979765 -9.22876,3.010506 -3.8833,1.563802 -7.61396,3.514966 -11.42792,5.238709 -5.02726,2.251227 -10.04899,4.469217 -15.33426,6.066764 -5.42718,1.794473 -10.8842,3.481661 -16.42175,4.906611 -3.86122,0.878059 -7.70217,1.85755 -11.60715,2.513044 -0.58441,0.153519 -5.4274,1.009518 -2.71615,0.482729 -0.79971,0.23345 -1.5929,0.488587 -2.38204,0.755521 -2.35996,0.81578 -4.65228,1.807884 -7.03701,2.549819 -2.91967,1.121443 -5.90747,2.060015 -8.59072,3.733694 -4.83428,2.382406 -9.71144,4.722826 -14.83797,6.41579 -3.66801,1.343459 -7.43717,2.360864 -10.96029,4.081465 -3.69784,1.834386 -7.30594,3.843419 -11.00479,5.676969 -1.96759,0.87697 -3.96024,1.67237 -5.75902,2.87553 -1.18323,0.93107 -2.36995,1.65473 -3.63295,2.45727 -1.7836,0.9559 -3.60902,1.79066 -5.22108,3.04809 -3.6266,2.09533 -7.30175,4.10659 -10.93152,6.20123 -2.34518,1.40647 -4.70898,2.75775 -7.21983,3.84397 -2.70068,1.86024 -5.3961,3.70678 -8.13707,5.50883 -3.66725,2.38713 -7.47452,4.52704 -11.46515,6.33003 -3.05779,1.67687 -6.1902,3.20516 -9.29919,4.78489 -4.34522,2.3608 -8.73285,4.65486 -13.28483,6.59617 -2.40692,0.92927 -4.58762,2.3698 -6.97326,3.36142 -4.47624,2.26405 -8.81053,4.83292 -13.48122,6.69999 -3.40313,1.37958 -6.78849,2.81315 -10.29309,3.91422 -2.19924,0.35138 -4.1332,1.66473 -6.24488,2.31704 -2.89992,0.85395 -5.44557,2.47831 -8.27099,3.53683 -3.46641,1.06907 -6.85631,2.42741 -10.22661,3.75864 -4.63583,2.13934 -9.17897,4.43889 -13.67958,6.85421 -4.37635,2.38325 -8.59083,5.05368 -12.99833,7.38437 -4.58741,2.80733 -9.051,5.78396 -13.37624,8.98543 -3.78385,2.56832 -7.54179,5.10761 -11.00512,8.10708 0,0 -5.16732,-6.88975 -5.16732,-6.88975 z"
         id="path3015"
         style="fill:#de2d26;fill-opacity:1;fill-rule:nonzero;stroke:none" />
      <path
         inkscape:connector-curvature="0"
         d="m 637.20721,24.719046 c 3.4871,-0.272987 6.88059,0.184733 10.29612,0.823583 3.18095,0.992221 6.29514,2.188453 9.32254,3.579297 3.46273,1.891576 6.76396,4.064282 9.93114,6.414259 3.1875,2.056285 6.1665,4.401164 9.25443,6.599418 4.33819,2.733756 8.33108,5.954481 12.41779,9.039959 3.78681,3.101982 7.85537,5.807401 11.93439,8.499427 2.37884,1.551246 4.78114,3.06322 7.11036,4.693922 2.29785,1.596387 4.56216,3.274013 6.92885,4.769665 2.43908,1.51955 5.00557,2.933941 7.67574,4.014151 2.0604,1.187784 4.26443,2.084345 6.36628,3.173283 1.19542,0.743792 2.26074,1.669043 3.1397,2.766923 -0.14905,-0.119326 0.67738,0.832017 0.44824,0.68423 -4.757,-3.068193 -1.51929,-3.090792 -7.69949,1.175954 0,0 8.49,1.097455 8.49,1.097455 l 0,0 c -6.18419,5.176779 -2.911,5.075531 -8.23184,1.902067 -0.068,-0.04057 0.26259,0.39691 0.28084,0.421508 -0.21185,-0.197456 -0.43507,-0.382659 -0.6612,-0.563579 -1.81852,-0.806081 -3.69964,-1.673821 -5.45775,-2.672448 -3.12132,-1.323476 -6.18308,-2.882175 -9.02852,-4.722411 -2.43553,-1.584152 -4.81042,-3.27764 -7.17712,-4.960181 -2.27708,-1.570588 -4.59217,-3.064595 -6.94995,-4.507355 -4.2589,-2.769632 -8.51137,-5.542003 -12.43617,-8.785209 -4.03031,-3.033793 -7.94296,-6.225786 -12.19777,-8.948309 -3.1324,-2.237136 -6.15205,-4.623461 -9.38652,-6.715498 -2.69264,-2.009221 -5.51467,-3.839255 -8.41988,-5.526528 -2.35532,-1.126098 -4.80276,-2.001814 -7.24337,-2.920207 -2.8983,-0.540437 -5.7416,-0.917806 -8.70684,-0.72118 0,0 0,-8.612196 0,-8.612196 z"
         id="path3017"
         style="fill:#de2d26;fill-opacity:1;fill-rule:nonzero;stroke:none" />
      <path
         inkscape:connector-curvature="0"
         d="m 465.56558,98.308816 c 3.05066,-2.715594 6.29355,-5.054989 9.89935,-6.968997 4.79726,-2.185279 9.70721,-4.089864 14.59383,-6.062317 6.45515,-2.387558 13.00932,-4.484973 19.4933,-6.788569 6.92061,-2.713391 13.75144,-5.63727 20.79017,-8.039146 4.99737,-1.962825 10.19928,-3.270606 15.34562,-4.759645 5.55508,-1.105818 10.79868,-3.272471 16.08157,-5.248515 8.12659,-3.119791 16.24426,-6.264194 24.29128,-9.584557 6.8714,-2.473818 13.5266,-5.497151 20.41016,-7.933873 5.97511,-2.017695 11.69601,-4.695553 17.4965,-7.15667 4.78033,-2.130248 9.65316,-4.062708 14.54878,-5.913117 4.21675,-1.199474 8.08727,-3.314271 12.0503,-5.142415 6.81754,-3.234908 13.69207,-6.301669 20.82906,-8.762993 6.1338,-2.120561 12.29946,-4.170757 18.54935,-5.925869 8.17754,-2.431198 16.4456,-4.5056909 24.70221,-6.6453963 9.72408,-2.56612357 19.26329,-5.7453436 28.91397,-8.5652805 8.28707,-2.5934203 16.6866,-4.8296012 25.12197,-6.8864262 7.92714,-1.695684 15.52834,-4.478459 23.15414,-7.174545 9.09851,-3.464918 18.26113,-6.719708 27.52834,-9.700503 8.39982,-2.440616 16.41554,-5.95561 24.63389,-8.903993 5.72295,-2.41824 11.74078,-3.892359 17.69823,-5.574157 2.75553,-0.785671 5.57455,-1.332723 8.4181,-1.674809 4.37961,-0.425649 1.80433,0.209944 0.74158,8.476695 0,0 -0.0846,-8.594754 -0.0846,-8.594754 l 0,0 c 0.46543,7.537583 2.26397,8.362549 0.49011,8.619358 -2.40542,0.370112 -4.79841,0.854259 -7.13402,1.542947 -5.7576,1.717613 -11.60197,3.133628 -17.12905,5.557768 -8.30479,2.986873 -16.39998,6.558838 -24.88903,9.031201 -9.18537,2.992528 -18.28593,6.209206 -27.32027,9.634252 -7.90766,2.7555245 -15.80716,5.5444074 -23.99788,7.3551049 -8.29929,2.051146 -16.5623,4.28469495 -24.71482,6.8595602 -9.73908,2.8757219 -19.37343,6.0932514 -29.20467,8.6498729 -8.2048,2.095631 -16.42515,4.111897 -24.56438,6.455144 -6.08839,1.690785 -12.07902,3.719761 -18.03749,5.816237 -6.87823,2.363661 -13.4754,5.376335 -20.07768,8.414077 -4.14679,1.844021 -8.20524,3.955177 -12.5715,5.247896 -4.77789,1.858028 -9.51867,3.827743 -14.21103,5.891463 -5.96286,2.547638 -11.86529,5.273536 -18.01112,7.357662 -6.74106,2.377556 -13.21334,5.443297 -19.93979,7.865321 -8.14911,3.377559 -16.37919,6.553276 -24.63403,9.662676 -5.48853,1.990666 -10.94491,4.164357 -16.69362,5.29976 -5.01352,1.48569 -10.07439,2.816645 -14.94015,4.760995 -7.00509,2.391321 -13.78425,5.361392 -20.6939,8.006259 -6.37797,2.252833 -12.81912,4.318498 -19.18029,6.621113 -4.62842,1.834237 -9.27245,3.613228 -13.82715,5.626044 -3.22225,1.645115 -5.95828,3.866025 -8.758,6.144895 0,0 -5.16732,-6.889754 -5.16732,-6.889754 z"
         id="path3019"
         style="fill:#de2d26;fill-opacity:1;fill-rule:nonzero;stroke:none" />
      <path
         inkscape:connector-curvature="0"
         d="m 485.51436,87.723016 c 3.489,-1.285193 6.99453,-2.530112 10.45374,-3.894218 3.55658,-1.296213 6.96735,-2.950178 10.4133,-4.510522 4.12754,-1.586299 8.1101,-3.480346 12.04073,-5.497739 5.92406,-3.265701 12.11447,-5.97 18.42952,-8.376171 4.14439,-1.806236 8.39841,-3.309225 12.66477,-4.791792 4.00893,-1.526797 7.94642,-3.228164 11.9029,-4.889083 3.93519,-1.906686 8.00984,-3.488254 11.98999,-5.296609 2.42854,-0.988637 4.95135,-1.659465 7.40204,-2.593845 3.99282,-1.601266 7.78371,-3.640625 11.72944,-5.347452 2.81241,-1.496467 5.75067,-2.722231 8.6096,-4.125628 1.69556,-1.005292 3.26821,-2.168343 4.93332,-3.218861 1.50385,-0.66144 2.71776,-1.667035 4.17383,-2.434002 1.36437,-0.99693 2.93827,-1.612572 4.38275,-2.474359 1.54671,-0.859107 2.31771,-1.417618 3.7736,-2.248049 1.84839,-0.672165 3.56674,-1.602701 5.40576,-2.301887 2.55861,-0.714914 4.93893,-1.905731 7.44173,-2.78843 3.39288,-1.354018 6.70272,-2.851097 10.21821,-3.867035 2.94884,-0.853383 5.78863,-1.963824 8.65016,-3.061057 2.18226,-0.797942 4.54313,-1.285411 6.62059,-2.343584 2.504,-1.220589 5.23506,-1.781761 7.86049,-2.666691 3.05968,-0.942934 6.08445,-1.99882 9.10992,-3.0512387 3.78879,-1.5494419 7.71279,-2.8092144 11.65033,-3.9328425 4.88667,-1.710692 9.91013,-2.9739512 14.86423,-4.46715749 8.23367,-2.46095391 16.21133,-5.67136951 24.36518,-8.36392011 8.01107,-2.2912682 15.65135,-5.6061532 23.41418,-8.5803792 7.8407,-2.756108 15.60964,-5.696468 23.33878,-8.749018 7.05535,-3.147252 14.11752,-6.24903 21.25343,-9.211925 6.99665,-2.861477 13.89512,-5.932317 20.76444,-9.082447 3.56789,-1.707045 6.98448,-3.705424 10.67893,-5.134362 2.68977,-0.600072 1.45171,-0.493499 4.12147,-1.562154 1.14628,-0.353216 0.60093,-0.199852 1.63362,-0.468565 0,0 2.17546,8.296537 2.17546,8.296537 l 0,0 c -0.56611,0.150394 -0.28251,0.07194 -0.85077,0.235517 -1.32613,0.228686 -2.451,1.523024 -3.88854,1.491877 -3.51297,1.461693 -6.71655,3.526853 -10.16191,5.135261 -6.95133,3.262097 -13.969,6.352242 -21.08369,9.244998 -7.18679,2.988058 -14.28633,6.141745 -21.38847,9.323465 -7.75844,3.042597 -15.54453,6.003818 -23.41778,8.7396848 -7.89155,3.0446702 -15.65838,6.4357305 -23.80568,8.7811934 -8.2409,2.7009161 -16.29254,5.9710601 -24.64309,8.3476496 -4.99579,1.4607321 -10.06833,2.6625772 -14.9856,4.3829812 -3.7823,1.078121 -7.54408,2.301153 -11.19194,3.766815 -3.05604,1.057321 -6.11763,2.103232 -9.20817,3.049964 -2.35036,0.782397 -4.78452,1.30166 -7.03923,2.335403 -2.28992,0.989391 -4.66718,1.782986 -7.0474,2.53126 -3.10145,1.230492 -6.20843,2.415591 -9.41372,3.355789 -3.36499,0.938042 -6.48106,2.509493 -9.75634,3.706784 -2.43012,0.822769 -4.73294,1.999508 -7.22176,2.643212 -1.42038,0.540551 -2.73428,1.345301 -4.20904,1.727765 -1.29407,0.73674 -2.41014,1.402534 -3.62899,2.179569 -1.59295,0.945386 -3.29469,1.646217 -4.82416,2.697224 -1.21914,0.613355 -2.28454,1.509664 -3.51997,2.082343 -1.8982,1.213531 -3.7036,2.552961 -5.66876,3.661911 -2.98237,1.531839 -6.08137,2.803987 -9.02709,4.408664 -4.09291,1.771222 -8.01803,3.90957 -12.19921,5.483577 -2.23726,0.797354 -4.52124,1.434067 -6.72635,2.308246 -4.0554,1.943694 -8.24373,3.571576 -12.29554,5.523303 -4.12353,1.701358 -8.22939,3.439462 -12.40301,5.010013 -4.18179,1.466043 -8.32207,3.012441 -12.373,4.817594 -6.02004,2.323391 -11.93761,4.89424 -17.62407,7.955533 -4.07314,2.043762 -8.18451,4.005652 -12.44064,5.644098 -3.58705,1.587513 -7.11783,3.313974 -10.80667,4.657715 -3.44514,1.337092 -6.90754,2.643567 -10.41495,3.807324 0,0 -3.2009,-8.002247 -3.2009,-8.002247 z"
         id="path3021"
         style="fill:#de2d26;fill-opacity:1;fill-rule:nonzero;stroke:none" />
      <path
         inkscape:connector-curvature="0"
         d="m 615.89541,34.831404 c 3.64966,-1.004073 7.08263,-2.581929 10.57101,-4.020296 3.30514,-1.389765 6.3348,-3.312347 9.48841,-4.997587 2.22046,-1.925772 5.87939,-2.345306 8.19224,-3.830447 1.55909,-1.09998 3.38407,-1.742989 5.14853,-2.433645 3.05699,-1.427947 6.22669,-2.648504 9.46285,-3.603999 4.09242,-1.281145 8.06359,-2.828143 12.24934,-3.789974 4.05722,-1.172092 8.19159,-2.034648 12.3166,-2.9261883 6.0962,-1.634673 12.16403,-3.3923895 18.13321,-5.4496232 6.67279,-2.2413182 13.4247,-4.23369491 20.12211,-6.3946403 7.16811,-1.9911923 14.2022,-4.4120703 21.24426,-6.8012047 8.607,-2.2339685 16.95474,-5.2490295 25.34717,-8.1486355 6.45779,-2.485634 12.93971,-4.918695 19.35645,-7.511118 7.01578,-2.962286 14.0092,-5.973458 21.04652,-8.883926 4.06107,-1.497152 7.97657,-3.352408 11.94759,-5.069422 0.74385,-0.372795 2.17671,-0.786926 2.58759,-0.915753 0,0 3.3576,7.901645 3.3576,7.901645 l 0,0 c -0.84431,0.307073 -1.61007,0.496303 -2.3985,0.866477 -3.99326,1.881463 -7.97935,3.802879 -12.10864,5.368715 -7.05796,2.943798 -14.07199,5.989763 -21.13768,8.915358 -6.55531,2.630232 -13.17338,5.103296 -19.74135,7.7005309 -8.41036,2.9404226 -16.77317,6.0132198 -25.42324,8.21036742 -7.08476,2.35685278 -14.16818,4.72176598 -21.36258,6.72694208 -6.6445,2.1711971 -13.34302,4.1789643 -19.97311,6.3988346 -6.31279,2.148755 -12.73273,3.973034 -19.19347,5.617049 -4.09279,0.844409 -8.18075,1.719233 -12.19644,2.886058 -4.03838,0.898808 -7.83371,2.498112 -11.80063,3.656067 -3.01602,0.806375 -5.90442,2.061552 -8.76376,3.302131 -1.51454,0.556025 -2.9786,1.05542 -4.28268,2.041101 -2.67355,1.294585 -5.55909,2.145159 -8.05376,3.822955 -3.41092,1.808029 -6.66797,3.91645 -10.25012,5.390717 -4.00291,1.646091 -7.94644,3.473824 -12.19621,4.418099 0,0 -1.68931,-8.446588 -1.68931,-8.446588 z"
         id="path3023"
         style="fill:#de2d26;fill-opacity:1;fill-rule:nonzero;stroke:none" />
      <path
         inkscape:connector-curvature="0"
         d="m 791.33432,169.94383 c 2.91268,-2.9239 6.22838,-5.35956 9.70038,-7.56894 3.96706,-2.12035 7.77183,-4.52143 11.72888,-6.6584 3.9078,-2.09867 7.59493,-4.56311 11.31221,-6.9748 3.01357,-1.65865 5.89433,-3.56441 9.01481,-5.02004 3.02052,-1.68815 6.29515,-2.84511 9.4772,-4.18347 4.9739,-2.05953 10.10195,-3.7095 15.12353,-5.63942 3.2872,-1.33094 6.70929,-2.23926 10.0327,-3.4562 4.98998,-1.49703 10.04737,-2.76237 14.98525,-4.42594 4.79853,-1.30073 9.42979,-3.10589 14.16151,-4.61215 4.49569,-0.98636 9.03441,-1.80864 13.55367,-2.70271 5.48921,-1.18441 10.76402,-3.1191 16.05369,-4.96537 2.27047,-0.80053 4.64042,-1.21748 6.83536,-2.14872 2.84096,-0.94844 5.35616,-2.62515 8.05904,-3.89854 3.36229,-1.45444 6.6121,-3.10629 9.75356,-4.99052 2.85866,-1.62472 5.82451,-3.043053 8.72759,-4.583289 3.32861,-1.563348 6.73149,-3.001745 10.24527,-4.098447 1.647,-0.648952 3.03599,-1.667482 4.52524,-2.592419 1.03675,-0.712391 2.18206,-1.180682 3.3836,-1.531557 0,0 2.26325,8.269806 2.26325,8.269806 l 0,0 c -0.0255,0.0096 -0.69568,0.149264 -1.08064,0.552477 -2.10206,1.329549 -4.16304,2.724839 -6.52886,3.564149 -3.0115,0.92566 -5.90117,2.23236 -8.7726,3.51372 -2.75689,1.4374 -5.56305,2.77673 -8.26985,4.3091 -3.40759,2.08911 -6.95527,3.90906 -10.62698,5.48786 -2.81646,1.23749 -5.38367,3.04156 -8.34843,3.93267 -2.35683,0.97699 -4.79923,1.63328 -7.226,2.41834 -5.672,2.08437 -11.3724,4.14374 -17.30533,5.36942 -4.18752,0.81359 -8.40014,1.51981 -12.58043,2.33883 -4.68767,1.53861 -9.24695,3.45897 -14.03176,4.70834 -4.86973,1.61966 -9.84458,2.87788 -14.80181,4.19833 -3.27823,1.20326 -6.62543,2.18966 -9.86563,3.50209 -4.95507,1.91077 -10.0096,3.55752 -14.93528,5.5494 -3.06792,1.24299 -6.23246,2.29738 -9.13232,3.91341 -2.75189,1.31465 -5.25886,3.08163 -7.94115,4.53067 -3.91159,2.54374 -7.79905,5.1291 -11.92656,7.3167 -3.77942,2.04278 -7.39498,4.37135 -11.19655,6.37565 -3.29484,2.07503 -6.34693,4.42765 -9.19924,7.08972 0,0 -5.16732,-6.88975 -5.16732,-6.88975 z"
         id="path3025"
         style="fill:#de2d26;fill-opacity:1;fill-rule:nonzero;stroke:none" />
      <path
         inkscape:connector-curvature="0"
         d="m 990.93952,137.05603 c 3.82302,2.18013 7.26114,4.93583 10.60628,7.77527 3.0384,2.70901 6.1049,5.41286 8.7677,8.49819 2.0796,2.24989 4.1672,4.46376 6.4041,6.55985 2.8428,2.53314 5.8385,4.93643 8.9101,7.19157 2.9843,2.40209 5.6584,5.15194 8.5719,7.63429 2.2866,1.85408 4.5356,3.75131 6.7029,5.7438 1.9092,1.77125 3.7471,3.61724 5.6001,5.4467 2.0438,2.10513 4.1711,4.12323 6.4425,5.98032 1.7297,1.72755 3.7093,3.17101 5.5933,4.72156 0.5509,0.45613 1.0999,0.91453 1.6403,1.38297 0.017,0.0148 0.034,0.0297 0.051,0.0445 0,0 -5.475,6.54349 -5.475,6.54349 l 0,0 c -0.01,-0.005 -0.015,-0.0107 -0.022,-0.016 -0.5371,-0.41809 -1.0697,-0.84176 -1.6036,-1.26388 -1.9325,-1.53414 -3.9283,-3.00834 -5.6929,-4.73688 -2.4664,-2.04883 -4.8203,-4.21973 -7.041,-6.53498 -1.7416,-1.75659 -3.4944,-3.50254 -5.305,-5.1885 -2.1164,-1.90982 -4.2955,-3.74275 -6.5155,-5.53135 -2.7543,-2.35321 -5.3355,-4.89597 -8.1102,-7.22484 -3.344,-2.47518 -6.618,-5.09202 -9.698,-7.88534 -2.4513,-2.32821 -4.7566,-4.77566 -7.0538,-7.25343 -2.302,-2.77297 -5.17884,-5.03482 -7.8251,-7.46381 -3.20398,-2.73513 -6.52397,-5.31885 -10.1151,-7.53371 0,0 5.16732,-6.88975 5.16732,-6.88975 z"
         id="path3027"
         style="fill:#de2d26;fill-opacity:1;fill-rule:nonzero;stroke:none" />
      <path
         inkscape:connector-curvature="0"
         d="m 852.9569,180.21506 c 5.20599,1.07143 9.84231,3.7638 14.39829,6.38418 4.00789,2.61223 7.95877,5.32702 11.71592,8.2923 3.38702,2.67472 6.72872,5.35783 9.94613,8.2342 2.17443,2.02578 4.0905,4.32187 6.27532,6.33207 1.92052,2.01226 4.009,3.8433 5.89578,5.89401 1.68438,1.60896 3.18927,3.38406 4.96502,4.89755 1.82516,1.48545 3.57939,3.05281 5.28837,4.66972 1.87671,1.77936 4.11517,3.14803 6.27137,4.56587 2.52738,1.76403 5.28117,3.16927 7.87154,4.82938 2.14813,1.43017 4.37469,2.71373 6.58219,4.0474 2.26099,1.55634 4.72504,2.77417 7.00585,4.29623 2.26383,1.32047 4.53828,2.62687 6.73533,4.0672 2.55648,1.91179 5.39543,3.38032 8.07113,5.11037 3.15757,2.04915 6.54429,3.70674 9.73872,5.68803 2.841,1.83617 5.81043,3.4453 8.76387,5.08855 2.9217,1.44783 5.76512,3.0332 8.57821,4.67617 2.208,1.25094 4.52456,2.27633 6.79282,3.41758 2.2508,1.14119 4.5577,2.05788 6.90999,2.95172 3.38028,1.27325 6.74435,2.59148 10.13325,3.84921 2.9928,1.24269 5.9648,2.48816 8.9011,3.86088 2.4963,1.02392 5.0186,1.97505 7.6021,2.76068 3.8914,0.89256 7.7781,1.82577 11.7165,2.49546 3.2865,0.21727 6.4326,1.14958 9.6228,1.87939 2.9713,0.5326 6.0138,0.50011 9.0228,0.53 3.9618,-0.20727 7.8298,0.18445 11.7197,0.877 2.6858,0.55677 5.3797,-0.1017 7.9778,-0.78463 3.2985,-0.65472 6.4863,-1.72064 9.7449,-2.5364 2.3375,-0.54749 4.7161,-0.58905 7.0127,-1.24239 2.9035,-1.13887 5.763,-2.40102 8.7017,-3.45703 1.6105,-0.95048 3.2885,-1.73235 4.9057,-2.65383 2.6554,-1.93586 5.5124,-3.56619 8.3122,-5.28351 2.9195,-1.98975 5.9542,-3.79382 9.0125,-5.55756 2.5089,-1.47819 4.9163,-3.12497 7.4735,-4.52247 1.8849,-1.09441 3.4632,-2.56128 5.1167,-3.95874 1.7733,-1.87959 3.9925,-3.33813 6.196,-4.6735 1.1561,-1.06348 2.5134,-1.88553 3.739,-2.87191 0.9244,-0.60183 1.7132,-1.18404 2.4415,-1.99324 -0.026,0.10528 0.2211,-0.35736 0.2079,-0.24981 -0.5219,4.2701 -1.3688,3.35302 0.5599,5.45347 0,0 3.6445,-7.7784 3.6445,-7.7784 l 0,0 c 3.0035,2.16898 5.4028,4.18847 1.9906,8.26452 -1.0513,1.19012 -2.2779,2.1965 -3.4509,2.99426 -1.5176,1.22489 -3.1517,2.29093 -4.65,3.54156 -1.8487,1.13328 -3.6794,2.31472 -5.1439,3.93051 -2.1162,1.74175 -4.1366,3.59859 -6.5492,4.94669 -2.5046,1.32245 -4.8008,3.01667 -7.2589,4.42168 -2.9846,1.71268 -5.9106,3.52104 -8.7648,5.44649 -2.8871,1.79344 -5.8581,3.44074 -8.6451,5.38795 -2.0357,1.13383 -4.0942,2.20338 -6.1666,3.27611 -3.1369,1.17092 -6.1881,2.55181 -9.3548,3.64431 -2.3841,0.65445 -4.7973,0.89568 -7.2255,1.324 -3.2301,0.81262 -6.3859,1.90639 -9.6622,2.53776 -3.8107,0.98646 -7.7522,1.70157 -11.6782,0.92325 -3.4402,-0.608 -6.8256,-0.90447 -10.3342,-0.70898 -3.6132,-0.0692 -7.2587,-0.0822 -10.8141,-0.80875 -3.0385,-0.6905 -6.0256,-1.54446 -9.1578,-1.71834 -4.3361,-0.73255 -8.618,-1.74776 -12.8844,-2.80231 -2.9048,-0.94878 -5.7622,-2.01419 -8.5819,-3.18947 -2.7429,-1.23707 -5.493,-2.40965 -8.277,-3.552 -3.45504,-1.24247 -6.84914,-2.63856 -10.27851,-3.94122 -2.58585,-1.02797 -5.15813,-2.03357 -7.6487,-3.28684 -2.43973,-1.21043 -4.88638,-2.38326 -7.27902,-3.67752 -2.77313,-1.61086 -5.60217,-3.11549 -8.46575,-4.5669 -3.06866,-1.72495 -6.15601,-3.41129 -9.12488,-5.30705 -3.22529,-2.03671 -6.72028,-3.64029 -9.89147,-5.77716 -2.65334,-1.75659 -5.50017,-3.21036 -8.03757,-5.1426 -2.26412,-1.46585 -4.5906,-2.8083 -6.9074,-4.18044 -2.07281,-1.50547 -4.50872,-2.46253 -6.55756,-4.01525 -2.30961,-1.37394 -4.61336,-2.74391 -6.86328,-4.21365 -2.56078,-1.7251 -5.44202,-2.98228 -7.92027,-4.84904 -2.56087,-1.69867 -5.20486,-3.34307 -7.40865,-5.5034 -1.61256,-1.50718 -3.24459,-2.99147 -4.96111,-4.38083 -2.06539,-1.75018 -3.84891,-3.7748 -5.78653,-5.65898 -1.69943,-1.91672 -3.6737,-3.54515 -5.41565,-5.41757 -2.08808,-1.99488 -4.04601,-4.12005 -6.12575,-6.12499 -3.10627,-2.74839 -6.32357,-5.32479 -9.58202,-7.89369 -3.41307,-2.71031 -7.02947,-5.14953 -10.66151,-7.55298 -3.74491,-2.15204 -7.53288,-4.38098 -11.73539,-5.50774 0,0 1.68932,-8.44659 1.68932,-8.44659 z"
         id="path3029"
         style="fill:#de2d26;fill-opacity:1;fill-rule:nonzero;stroke:none" />
      <path
         inkscape:connector-curvature="0"
         d="m 904.14104,219.03572 c 4.12966,-0.66182 8.16636,-1.73135 12.29361,-2.41476 3.70643,-0.70089 7.30445,-1.73212 10.89748,-2.85544 2.85498,-1.04351 5.49312,-2.54075 8.34627,-3.58381 3.0345,-1.11518 5.94967,-2.50319 8.89682,-3.82427 2.57805,-1.58333 5.27393,-2.96126 7.87829,-4.49613 1.83528,-1.11521 3.78511,-1.98821 5.61873,-3.10818 2.04571,-0.87124 2.11732,-1.04042 3.96683,-2.40997 2.16822,-1.53604 4.05998,-3.39008 6.18351,-4.98851 1.68086,-1.46952 3.204,-3.09732 4.83122,-4.62487 1.60075,-1.3146 3.04834,-2.785 4.34628,-4.39921 1.32399,-1.56151 2.80675,-2.99924 4.32461,-4.37366 1.74051,-1.44384 3.45822,-2.91416 5.17406,-4.38734 1.76001,-1.53257 3.6531,-2.90603 5.4719,-4.37456 1.62306,-1.79982 3.57116,-3.25598 5.3837,-4.85112 1.29166,-1.21946 2.71785,-2.2505 3.96435,-3.51629 2.5437,-2.34462 5.3936,-4.2711 8.2404,-6.21477 1.9313,-1.20489 3.8412,-2.39012 5.7664,-3.5974 1.7726,-0.93117 3.4442,-1.98923 5.3198,-2.73383 1.3675,-0.89599 3.2109,-1.89381 4.8119,-2.71268 2.5374,-1.31786 5.0735,-2.62499 7.6927,-3.77852 5.463,-2.36263 4.5771,0.0604 7.0306,5.42655 0,0 -8.1629,-2.63606 -8.1629,-2.63606 l 0,0 c 3.9939,6.21735 1.026,4.78138 5.6763,4.59173 0.3612,-0.0147 -1.673,0.54075 -0.9855,0.45272 -2.4967,1.17222 -4.945,2.43329 -7.3985,3.69002 -1.9544,0.93953 -3.8007,2.05869 -5.734,3.04168 -1.3379,0.18554 -2.3441,1.67018 -3.6509,1.9236 -1.8292,1.17158 -3.6683,2.30416 -5.4859,3.4859 -2.4223,1.65106 -4.8439,3.28483 -7.0641,5.20931 -1.406,1.3567 -2.9448,2.50343 -4.3604,3.84727 -1.9258,1.67223 -3.86508,3.33276 -5.66124,5.1468 -1.72836,1.35436 -3.53519,2.61521 -5.18173,4.0555 -1.68362,1.51256 -3.40112,2.98572 -5.16385,4.4057 -1.26324,1.03142 -2.41702,2.23243 -3.44347,3.46783 -1.58453,1.82377 -3.14343,3.68653 -5.06829,5.17529 -1.87306,1.66395 -3.5088,3.58848 -5.4625,5.17135 -2.13645,1.62499 -4.07234,3.4833 -6.27514,5.02004 -1.42012,1.04903 -2.88265,2.16442 -4.54554,2.78803 -1.88448,1.18897 -3.89879,2.11064 -5.79377,3.27408 -2.88566,1.67693 -5.81304,3.27929 -8.70233,4.95118 -3.15487,1.4063 -6.28312,2.86983 -9.53488,4.04567 -2.96487,1.01259 -5.62178,2.78697 -8.63762,3.69842 -3.98097,1.27526 -7.97669,2.43496 -12.0955,3.19991 -4.02958,0.65697 -7.9666,1.738 -12.01838,2.25939 0,0 -1.68932,-8.44659 -1.68932,-8.44659 z"
         id="path3031"
         style="fill:#de2d26;fill-opacity:1;fill-rule:nonzero;stroke:none" />
      <path
         inkscape:connector-curvature="0"
         d="m 980.70595,181.40151 c 2.86297,2.57815 5.86375,4.98847 8.96401,7.27269 3.79831,2.84186 7.32392,6.01505 11.00954,8.99817 4.4358,3.72743 9.2266,6.99325 13.8054,10.53759 4.6298,3.38976 9.04,7.0732 13.8672,10.18517 2.567,1.65289 4.9554,3.67376 7.6292,5.1559 2.1251,1.39213 4.4523,2.40379 6.7112,3.55022 2.6527,1.38138 5.342,2.7037 8.0579,3.95921 3.2394,1.16676 6.3235,2.71592 9.5665,3.86878 3.3406,1.2396 6.5251,2.8514 9.9641,3.80855 3.642,1.23032 7.2557,2.49872 10.9073,3.69642 3.5508,1.12591 6.9348,2.72364 10.3817,4.13203 3.4167,1.49419 6.7325,3.19941 10.1033,4.79055 2.3594,0.87815 4.3647,2.5485 6.7882,3.25809 1.7333,0.36708 3.2318,1.38903 4.9615,1.75772 2.0422,0.82201 4.0527,1.67702 6.0111,2.67783 0.8638,0.45494 1.7434,0.95423 2.7424,1.00019 2.297,0.6946 4.5845,1.39979 6.8702,2.14163 1.5867,0.52911 3.1875,1.08582 4.8618,1.25062 0.581,0.0583 1.1641,0.089 1.7474,0.11104 0,0 -0.079,8.54606 -0.079,8.54606 l 0,0 c -0.8976,0.002 -1.7951,-0.0358 -2.6883,-0.12704 -2.2356,-0.28908 -4.4227,-0.81148 -6.5481,-1.57085 -1.7762,-0.59357 -3.6586,-1.07358 -5.3351,-1.84971 -1.9406,-0.30901 -3.808,-0.86145 -5.5219,-1.85119 -1.3699,-0.71341 -2.8214,-1.2648 -4.1705,-1.98801 -1.9028,-0.51196 -3.6536,-1.35922 -5.532,-1.91006 -2.7384,-0.93689 -5.1953,-2.40202 -7.8204,-3.59791 -3.2297,-1.53029 -6.4099,-3.1615 -9.6754,-4.61641 -3.2612,-1.33735 -6.4696,-2.83751 -9.833,-3.89498 -3.5264,-1.1809 -7.0263,-2.40133 -10.5422,-3.61162 -3.6222,-1.04408 -7.0304,-2.59741 -10.5279,-3.98708 -3.4843,-1.26234 -6.8241,-2.87376 -10.2933,-4.17868 -2.8121,-1.31928 -5.5924,-2.70972 -8.3588,-4.12038 -2.3641,-1.23941 -4.8194,-2.31203 -7.061,-3.77548 -2.7581,-1.62462 -5.3778,-3.49395 -8.0312,-5.28185 -5.0575,-3.23485 -9.7393,-6.98584 -14.5436,-10.57784 -4.6234,-3.59201 -9.43962,-6.93232 -13.92377,-10.70198 -3.57365,-2.90871 -6.98751,-6.00654 -10.66796,-8.78166 -3.11365,-2.30042 -6.18545,-4.68552 -8.96434,-7.38597 0,0 5.16732,-6.88976 5.16732,-6.88976 z"
         id="path3033"
         style="fill:#de2d26;fill-opacity:1;fill-rule:nonzero;stroke:none" />
      <path
         inkscape:connector-curvature="0"
         d="m 1136.9246,199.00434 c 2.0324,3.89233 4.1616,7.73619 6.4501,11.48527 2.8189,4.30649 5.2878,8.83508 7.9019,13.26911 2.2065,3.96909 4.5159,7.85673 6.4726,11.96028 1.6824,3.49652 3.3562,6.9807 5.2434,10.36956 1.1166,2.09082 2.4413,4.05269 3.7484,6.02247 1.1274,1.71422 2.2805,3.46085 3.632,5.00668 1.7158,1.8083 3.5446,3.50412 5.3347,5.23761 2.0447,1.81391 4.0408,3.68218 6.1756,5.39827 2.8321,2.11332 5.474,4.45426 8.2547,6.63497 2.7211,2.04382 5.3133,4.2836 8.1988,6.09994 2.7743,1.82573 5.2898,3.95659 7.8359,6.07905 2.2005,1.95041 4.5935,3.65419 6.7804,5.61886 1.9342,1.5989 3.654,3.42175 5.5665,5.04759 2.2332,1.86539 4.2222,3.98571 6.3568,5.965 2.9841,2.50495 5.9007,5.0211 8.6111,7.83211 2.4735,2.47121 4.9416,4.97494 7.5678,7.28718 2.2799,2.36133 4.6533,4.59721 6.6476,7.21351 2.062,2.54149 3.9718,5.21179 6.0065,7.77543 1.629,2.28356 3.5783,4.34301 5.6232,6.2616 2.2921,2.06822 4.5455,4.17756 6.7742,6.31382 2.7205,2.52409 5.6163,4.90257 8.5957,7.11947 3.0709,2.30284 6.1531,4.60498 9.1132,7.04676 2.16,1.559 4.4635,2.91671 6.6805,4.4022 2.2117,1.37062 4.4067,2.76911 6.6438,4.10593 2.4545,2.12653 5.21,3.74105 7.9645,5.41263 2.6351,1.38855 5.3809,2.58334 8.1115,3.77864 3.2725,1.72748 6.6381,3.25908 9.9504,4.90284 3.1796,1.84682 2.751,0.8257 -0.08,1.1604 0,0 3.9284,7.62562 3.9284,7.62562 l 0,0 c -3.7731,1.04647 -4.4377,0.83027 -7.7101,-1.04044 -3.1801,-1.5954 -6.4772,-2.96029 -9.5827,-4.71285 -3.076,-1.36116 -6.1686,-2.71966 -9.1245,-4.32449 -2.7296,-1.67677 -5.5472,-3.20241 -7.9298,-5.38949 -2.3341,-1.42312 -4.6143,-2.92319 -6.9544,-4.32736 -2.4802,-1.63637 -5.0379,-3.1602 -7.4259,-4.92513 -2.8337,-2.36624 -5.8699,-4.4994 -8.796,-6.75144 -3.2577,-2.44879 -6.4376,-5.05156 -9.4008,-7.8468 -2.1957,-2.13237 -4.4355,-4.2184 -6.7119,-6.26446 -2.3312,-2.22534 -4.5726,-4.59222 -6.4768,-7.19443 -2.0621,-2.63942 -4.0469,-5.34276 -6.1418,-7.95573 -1.5695,-2.19297 -3.6453,-3.9097 -5.4396,-5.90861 -2.7909,-2.48046 -5.4968,-5.07158 -8.1028,-7.7441 -2.5925,-2.71211 -5.4224,-5.08033 -8.2604,-7.524 -2.0306,-1.91518 -3.9221,-3.96165 -6.0692,-5.74082 -1.9634,-1.70326 -3.76,-3.57446 -5.7654,-5.22574 -2.0426,-1.92993 -4.4458,-3.44206 -6.5097,-5.35391 -2.2559,-1.89748 -4.4658,-3.81084 -6.9465,-5.41749 -3.0995,-2.00467 -5.9783,-4.32472 -8.8935,-6.58187 -2.8073,-2.21538 -5.4866,-4.57488 -8.3438,-6.72452 -2.3092,-1.88535 -4.4709,-3.92944 -6.6982,-5.90397 -2.0404,-1.94285 -4.1101,-3.8633 -6.0021,-5.95313 -1.4927,-1.84847 -2.9066,-3.77353 -4.1881,-5.77713 -1.4004,-2.15397 -2.879,-4.2581 -4.108,-6.52112 -2.0034,-3.54637 -3.7853,-7.19146 -5.5489,-10.86354 -1.8407,-3.87139 -4.0126,-7.5345 -6.1144,-11.26546 -2.6091,-4.39743 -5.0772,-8.88514 -7.8694,-13.16717 -2.5192,-4.16236 -4.9249,-8.41488 -6.9777,-12.8267 0,0 8.0023,-3.2009 8.0023,-3.2009 z"
         id="path3035"
         style="fill:#de2d26;fill-opacity:1;fill-rule:nonzero;stroke:none" />
    </g>
  </g>
  <g
     inkscape:groupmode="layer"
     id="layer2"
     inkscape:label="Layer#1">
    <g
       id="g1"
       inkscape:label="#g3058">
      <path
         inkscape:connector-curvature="0"
         d="m 835.03416,562.29618 c 1.60434,2.36196 2.40875,5.27706 4.33465,7.41902 1.24642,1.69927 2.83986,3.05767 4.47772,4.36447 1.69775,1.56792 3.39248,3.14861 5.11385,4.70062 1.99786,1.87038 4.00865,3.72122 6.14724,5.42933 1.81587,1.87302 4.06323,3.20168 6.22243,4.63586 2.50583,1.73558 4.8213,3.70502 7.42889,5.29438 3.33898,2.06263 6.57989,4.27915 9.90166,6.36795 2.87812,2.00612 5.42446,4.47524 8.39433,6.35222 2.43866,1.53988 4.78708,3.20839 7.32638,4.5823 2.7282,1.42837 5.46219,2.83443 8.04841,4.51137 1.78844,1.1466 3.57612,2.41911 5.49772,3.33761 2.61783,1.36453 5.2582,2.69704 7.93079,3.9546 3.3944,1.6238 6.67607,3.50671 10.15277,4.94951 4.43481,2.08405 8.90409,4.03417 13.60502,5.43007 5.23022,1.59692 10.38505,3.48527 15.45226,5.54302 4.72823,2.22127 9.60668,4.08044 14.38988,6.17093 4.60425,2.009 9.29367,3.8123 13.86203,5.90274 4.03484,1.48498 7.89812,3.39651 11.93779,4.86327 4.33079,1.63605 8.86842,2.61246 13.32832,3.828 5.7027,1.30539 11.2856,3.06237 16.9429,4.53891 3.2863,1.15693 6.8146,1.91408 9.862,3.64639 -4.4232,7.73314 -1.4397,7.91724 -5.1289,7.35617 0,0 1.683,-8.46535 1.683,-8.46535 l 0,0 c 4.3353,0.96916 1.7866,-0.15625 -1.2606,8.26291 0.1721,0.0766 0.7031,0.25274 0.5162,0.22983 -2.6844,-0.32903 -5.1513,-2.24064 -7.8553,-2.55701 -5.7156,-1.45566 -11.3502,-3.21339 -17.0908,-4.57637 -4.6707,-1.3103 -9.43256,-2.34508 -13.96689,-4.09327 -4.25822,-1.54946 -8.35808,-3.49399 -12.59261,-5.10869 -4.52792,-2.07017 -9.19976,-3.80286 -13.75479,-5.81258 -4.70122,-2.07304 -9.50604,-3.90143 -14.15684,-6.09305 -4.8109,-1.95133 -9.71471,-3.71348 -14.67264,-5.24981 -5.01522,-1.50555 -9.80474,-3.5467 -14.52072,-5.81697 -3.55365,-1.55265 -6.97778,-3.38344 -10.44801,-5.11257 -2.74851,-1.31179 -5.46569,-2.69593 -8.15122,-4.12937 -2.16034,-1.14516 -4.26848,-2.42064 -6.30746,-3.76616 -2.37662,-1.5861 -4.96237,-2.81867 -7.48049,-4.1582 -2.69277,-1.50206 -5.23376,-3.23435 -7.83086,-4.89254 -2.92278,-1.90219 -5.58236,-4.15509 -8.34644,-6.2725 -3.30097,-2.08361 -6.52841,-4.28233 -9.83769,-6.35356 -2.67223,-1.67777 -5.11133,-3.64421 -7.66783,-5.48138 -2.3543,-1.59048 -4.83099,-3.06513 -6.84674,-5.08761 -2.25427,-1.83362 -4.41246,-3.77103 -6.51933,-5.77253 -1.58035,-1.44871 -3.13506,-2.93411 -4.70698,-4.36618 -2.0913,-1.69065 -4.12265,-3.46371 -5.76547,-5.61027 -2.33531,-2.95917 -3.95919,-6.33865 -5.64987,-9.69462 0,0 8.00224,-3.20089 8.00224,-3.20089 z"
         id="path3052"
         style="fill:#fc9272;fill-opacity:1;fill-rule:nonzero;stroke:none" />
      <path
         inkscape:connector-curvature="0"
         d="m 972.6431,698.79706 c 2.76819,2.84634 5.1958,5.95695 7.46569,9.20888 1.66472,2.37246 3.01155,4.93287 4.49603,7.41678 1.86892,3.43112 3.52354,6.97078 5.32461,10.43634 1.48481,2.58975 2.64474,5.44179 4.24416,7.96088 0.8267,1.74184 1.91084,3.31781 2.86769,4.98098 1.57806,1.93273 2.834,4.15927 4.02012,6.3539 1.5588,2.94537 3.805,5.44895 5.9621,7.96828 2.8494,3.23504 5.8867,6.29724 8.9162,9.36193 3.7756,3.95482 7.751,7.68358 12.0401,11.07441 4.6726,3.72502 9.5456,7.18073 14.1809,10.95268 4.6521,4.0768 9.5976,7.80219 14.2898,11.82853 4.425,4.18689 9.2139,7.95995 13.7826,11.9807 4.6269,4.12958 9.1503,8.36424 13.7098,12.56869 4.4984,4.54057 8.7796,9.29041 13.1613,13.94307 3.8799,4.03595 7.3715,8.42018 11.0831,12.60873 3.6666,3.88514 7.1287,7.95595 10.4277,12.15652 3.453,4.34214 6.6898,8.84801 10.1746,13.16486 3.519,3.811 6.7041,7.87432 9.9571,11.90354 3.2019,3.70515 6.5016,7.35366 10.1581,10.61661 3.9901,4.03024 8.1166,7.89054 12.3652,11.64574 3.8264,3.58688 8.5138,6.05258 12.8539,8.94713 4.7927,3.12855 9.4598,6.45592 14.0206,9.91363 4.3913,3.09356 8.5305,6.51412 12.8393,9.71698 3.4681,2.7362 6.8924,5.51338 10.4075,8.19062 2.1542,1.96912 4.509,3.51886 5.9101,6.11877 0,0 -7.972,3.1021 -7.972,3.1021 l 0,0 c 0.247,0.38575 1.1981,1.37188 0.8374,1.08951 -1.3719,-1.07404 -2.7464,-2.15149 -3.995,-3.37039 -3.5302,-2.62225 -6.9254,-5.39887 -10.3795,-8.11723 -4.3474,-3.20492 -8.5351,-6.61377 -12.9357,-9.74852 -4.4245,-3.34735 -8.9475,-6.57292 -13.5883,-9.61377 -4.6678,-3.11195 -9.6814,-5.79453 -13.7941,-9.65943 -4.2797,-3.76878 -8.441,-7.6439 -12.4278,-11.72349 -3.9683,-3.61423 -7.6446,-7.54331 -11.1174,-11.63531 -3.2269,-4.03965 -6.4346,-8.06668 -9.945,-11.87385 -3.5228,-4.35043 -6.7934,-8.8913 -10.2701,-13.27801 -3.1618,-4.07434 -6.523,-7.9913 -10.0647,-11.74011 -3.6597,-4.11287 -7.1032,-8.41892 -10.9218,-12.38604 -4.2605,-4.48944 -8.4086,-9.08492 -12.7363,-13.50957 -4.5209,-4.1591 -8.9812,-8.3738 -13.5747,-12.4526 -4.5211,-4.01934 -9.316,-7.7315 -13.7025,-11.90686 -4.6143,-4.00206 -9.5421,-7.63423 -14.1158,-11.68817 -4.5784,-3.77563 -9.457,-7.15822 -14.0855,-10.8722 -4.544,-3.6342 -8.791,-7.58131 -12.7803,-11.81953 -3.1748,-3.2204 -6.3534,-6.44303 -9.3205,-9.85841 -2.54765,-3.00574 -5.18892,-6.00156 -6.99426,-9.52978 -1.14482,-2.19587 -2.45362,-4.29494 -3.91906,-6.29172 -0.74723,-1.62827 -2.05398,-3.01812 -2.73629,-4.70045 -1.58906,-2.74611 -3.06709,-5.57543 -4.55198,-8.37889 -1.71986,-3.33615 -3.33679,-6.72381 -5.07623,-10.04997 -1.32926,-2.31147 -2.57803,-4.66871 -4.13336,-6.83977 -1.97733,-2.83775 -4.13302,-5.50948 -6.45509,-8.06916 0,0 6.09757,-6.09756 6.09757,-6.09756 z"
         id="path3056"
         style="fill:#fc9272;fill-opacity:1;fill-rule:nonzero;stroke:none" />
    </g>
  </g>
  <g
     inkscape:groupmode="layer"
     id="layer3"
     inkscape:label="Layer#2">
    <path
       style="fill:#fee0d2;fill-opacity:1;fill-rule:nonzero;stroke:none"
       id="path3005"
       d="m 1096.1772,1708.4441 c 1.4988,-4.9542 3.3893,-9.7741 5.0003,-14.6919 0.3274,-3.0926 2.1508,-5.7165 3.0299,-8.6129 0.4447,-2.4064 1.2032,-4.7343 1.9793,-7.0604 0.5582,-3.064 1.7136,-5.964 2.8126,-8.868 0.4483,-0.9076 0.5036,-1.8811 0.5519,-2.8716 0.049,-1.796 0.025,-3.5934 0.019,-5.3898 -0.01,-2.2341 -0.011,-4.4682 -0.014,-6.7022 0.4611,2.4614 -0.3466,-5.5604 -0,-2.5848 0.3806,3.2791 -0.4394,-0.05 -0.6573,-0.6496 -1.0659,-3.2954 -1.2179,-6.7308 -2.1144,-10.0552 -0.6393,-3.0904 -2.0349,-5.8698 -3.0128,-8.868 -1.6019,-2.6563 -1.9156,-5.8739 -3.2001,-8.6341 -1.3516,-2.8298 -2.0554,-5.8851 -3.1009,-8.8287 -1.0776,-3.0445 -2.5814,-5.9198 -3.981,-8.8272 -1.4987,-3.6667 -3.0004,-7.3408 -4.7705,-10.8865 -2.0375,-3.5372 -3.9886,-7.1614 -5.6352,-10.9019 -1.7391,-3.6246 -3.4288,-7.2719 -4.9591,-10.9904 -1.1285,-3.3057 -2.4264,-6.5644 -3.9818,-9.6935 -1.2793,-3.0717 -2.8493,-5.9887 -4.5102,-8.8571 -1.5657,-2.9939 -3.1995,-5.9078 -4.3787,-9.0906 -1.1773,-2.4015 -2.1854,-5.1709 -3.0448,-7.5015 -1.086,-1.998 -2.2897,-3.9401 -3.365,-5.9519 -1.1703,-2.9862 -2.5316,-5.8818 -3.9689,-8.7506 -1.4101,-2.6754 -2.9426,-5.2938 -4.4905,-7.8975 -1.6715,-3.5597 -3.9075,-6.7698 -5.5912,-10.3195 -1.9338,-3.5342 -3.5492,-7.264 -5.5503,-10.7535 -1.7768,-3.4631 -3.7466,-6.7938 -5.1796,-10.4205 -1.333,-2.6376 -2.6576,-5.2686 -3.9933,-7.9148 -1.2139,-2.7514 -2.0178,-5.701 -3.452,-8.3538 -1.4787,-3.3243 -2.8798,-6.6847 -4.2173,-10.0692 -1.6186,-2.4149 -2.6284,-5.1626 -3.9341,-7.7497 -1.4408,-3.4119 -2.4828,-6.9814 -4.0007,-10.3655 -1.3968,-3.3698 -2.7064,-6.8119 -4.4468,-10.0245 -1.6163,-3.6087 -3.5549,-7.0513 -5.3087,-10.5923 -2.1354,-4.1965 -4.3579,-8.3696 -6.11251,-12.7426 -1.01658,-3.6177 -3.00984,-6.7715 -4.57308,-10.1487 -2.20029,-3.5592 -3.87173,-7.4503 -5.27049,-11.3863 -1.43063,-4.0065 -3.09219,-7.9065 -4.70191,-11.8415 -1.82517,-3.4177 -3.02603,-7.1124 -4.44876,-10.7058 -1.14447,-4.1798 -2.77463,-8.1828 -3.8356,-12.3887 -0.7975,-3.4886 -1.8703,-6.9337 -3.20534,-10.2594 -1.48862,-4.1907 -3.56099,-8.1276 -5.14303,-12.2825 -1.83745,-3.9116 -3.95476,-7.6787 -5.88877,-11.5423 -2.44224,-4.6843 -4.88469,-9.3729 -7.18527,-14.1294 -2.3863,-4.3725 -4.83727,-8.7352 -7.67874,-12.8336 -2.75129,-4.4112 -5.47387,-8.8382 -8.15259,-13.2936 -1.99669,-3.9932 -3.926,-8.0199 -6.59439,-11.6153 -2.64528,-3.7019 -5.39791,-7.2352 -7.47435,-11.309 -2.11801,-3.6251 -3.86988,-7.4799 -5.50563,-11.3466 -1.35054,-2.1684 -2.48442,-4.0049 -3.5699,-5.4634 -1.67122,-2.1956 -2.60631,-4.8121 -3.27422,-7.4593 -0.30379,-1.1167 -0.36505,-2.2568 -0.35702,-3.4081 0.0476,0.148 -0.0521,-1.4126 0.01,-1.0635 0.86795,4.8861 -0.26021,1.3298 -1.07821,-0.8972 -0.54118,-3.0116 -1.30568,-5.8243 -2.11943,-8.7591 -0.67977,-3.4621 -1.89089,-6.7697 -2.77292,-10.1826 -1.51271,-3.9564 -2.41513,-8.0958 -3.6039,-12.1543 -1.13327,-4.1068 -3.19218,-7.8612 -4.71207,-11.829 -1.60104,-3.6828 -2.55673,-7.6316 -4.07403,-11.3368 -1.27196,-3.7279 -2.34687,-7.4686 -3.72255,-11.1624 -0.48222,-1.2861 -0.96822,-2.5708 -1.46818,-3.8501 -0.0104,-0.026 -0.0208,-0.052 -0.0313,-0.078 2.6e-4,9e-4 5.2e-4,0 7.7e-4,0 -3.87707,-9.4707 9.51654,-14.9537 13.39361,-5.483 l 0,0 c 0.0351,0.087 0.0716,0.1741 0.10536,0.262 0.53169,1.3613 1.04994,2.7277 1.56239,4.0963 1.35378,3.6362 2.45143,7.3235 3.66125,11.0007 1.41979,3.7946 2.54205,7.6944 4.112,11.4363 1.5991,4.3257 3.94395,8.3675 5.0617,12.8736 1.238,4.2271 2.20636,8.5207 3.74126,12.6566 0.82509,3.328 2.05596,6.546 2.70325,9.9189 0.72386,2.6777 1.56176,5.3157 1.91197,8.0706 0.0352,1.5492 2.56492,4.2018 1.79117,6.5893 -0.001,0.118 0.0387,0.2437 -0.003,0.3541 -0.0617,0.1631 -0.0681,-0.6941 -0.06,-0.5199 0.20284,0.8823 0.34469,1.6849 0.88247,2.3497 1.94373,2.7053 3.72468,5.505 5.26736,8.4662 1.47203,3.6115 3.18222,7.1512 5.13315,10.5262 1.54786,3.3949 4.19811,6.0474 6.18422,9.1742 2.86869,3.9813 5.25898,8.2475 7.31536,12.7045 2.50631,4.2049 5.10322,8.3534 7.66021,12.5272 3.23273,4.7276 6.10554,9.7003 8.79296,14.7538 2.2576,4.7071 4.69836,9.3265 7.10205,13.9595 2.13628,4.317 4.56816,8.4849 6.48452,12.9112 1.49734,4.081 3.64544,7.8888 5.039,12.0134 1.56139,3.9483 2.84262,8.028 3.81353,12.1591 0.84227,3.5831 2.37972,6.9464 3.24169,10.525 1.39618,3.5457 2.59199,7.1706 4.384,10.5446 1.70562,4.1736 3.45076,8.3203 4.97556,12.5654 1.1951,3.5619 2.8872,6.9354 4.7854,10.1715 1.5759,3.6273 3.8279,6.9604 4.8604,10.829 1.523,4.0281 3.7461,7.7761 5.627,11.6423 1.679,3.4444 3.6006,6.7659 5.148,10.2755 1.8253,3.5622 3.426,7.2439 4.8963,10.9658 1.3456,3.1603 2.5303,6.3883 3.6557,9.6281 1.5048,3.0018 2.7812,6.0984 4.4905,9.0006 1.1335,2.9837 2.4289,5.9086 3.6745,8.8455 1.3039,2.6967 2.4535,5.4791 3.4302,8.3105 1.5589,3.0935 3.0929,6.1769 4.601,9.2939 1.0497,3.0518 3.0294,5.6729 4.3443,8.6083 2.0592,3.8555 4.0004,7.7734 6.0066,11.6612 1.3487,3.1381 3.5966,5.7939 4.885,8.9737 1.7218,2.9035 3.4099,5.8309 4.9892,8.8108 1.4125,2.828 2.7784,5.7175 3.9188,8.6514 0.8952,2.1361 2.4527,4.0307 3.4539,6.1291 1.296,2.9481 2.2344,6.0408 3.6605,8.9432 0.8496,2.3982 2.1589,4.5542 3.3141,6.809 1.8098,3.1448 3.5491,6.333 4.9534,9.6856 1.6868,3.4324 3.1646,6.9831 4.393,10.6039 1.4966,3.6526 3.1796,7.2182 4.8719,10.7828 1.4421,3.5314 3.4588,6.8307 5.2944,10.1652 1.7905,3.6139 3.3746,7.3342 4.8647,11.0797 1.6027,3.3724 3.3309,6.7044 4.5664,10.2359 0.9919,2.7972 1.6563,5.6872 2.9295,8.3707 1.1731,3.1572 2.0017,6.4328 3.5007,9.473 1.031,3.2132 2.5433,6.2506 3.222,9.5748 0.7853,2.9355 1.2096,5.8888 1.7391,8.8648 0.9564,2.6335 1.7807,5.3262 1.5288,8.1614 0,2.2242 0.01,4.4484 0.014,6.6726 0.01,2.083 0.038,4.1675 -0.042,6.2494 -0.1479,2.4522 -0.5084,4.8975 -1.4661,7.1811 -1.0408,2.7492 -2.0955,5.4208 -2.6194,8.3255 -0.8317,2.4926 -1.5115,4.82 -2.1064,7.4249 -1.0586,2.7714 -2.4582,5.1863 -2.88,8.1792 -1.7107,5.2076 -3.6861,10.3212 -5.3142,15.5553 -3.8007,9.5016 -17.238,4.1267 -13.4374,-5.3749 z"
       inkscape:connector-curvature="0" />
    <path
       style="fill:#fee0d2;fill-opacity:1;fill-rule:nonzero;stroke:none"
       id="path3009"
       d="m 757.45144,833.33355 c 1.95866,5.46964 4.17289,10.8572 6.6609,16.10839 2.26324,5.51462 5.69276,10.39831 8.6424,15.55163 3.52626,5.60797 6.78846,11.36056 9.5002,17.40624 2.55514,5.30301 5.33878,10.50377 8.17748,15.66191 3.37958,5.8103 6.43418,11.80342 9.78713,17.63629 4.15078,7.11539 8.15473,14.36113 11.81359,21.7459 3.83459,7.45721 7.15452,15.1682 10.41415,22.89164 2.57195,5.98972 5.42434,11.8476 8.17221,17.75591 2.65311,5.4431 4.98864,11.04657 7.37107,16.61544 0.36778,0.99328 0.72116,1.99201 1.10336,2.97982 0.505,1.30519 1.28793,3.13598 1.8564,4.43548 0.27091,0.6193 1.18392,2.4302 0.91073,1.8119 6.36016,8.0172 -4.97777,17.0118 -11.33793,8.9947 l 0,0 c -2.73329,-3.7549 -4.20799,-8.2271 -5.8416,-12.5367 -2.31765,-5.43466 -4.59191,-10.90263 -7.189,-16.20683 -2.81122,-6.06858 -5.75022,-12.07677 -8.38147,-18.2286 -3.14261,-7.46651 -6.35308,-14.91565 -10.06184,-22.11982 -3.48146,-7.12503 -7.39911,-14.07235 -11.37707,-20.9267 -3.40004,-5.91571 -6.48792,-11.99723 -9.92572,-17.88296 -3.02251,-5.51591 -6.0103,-11.06382 -8.71354,-16.74271 -2.47544,-5.61783 -5.608,-10.8887 -8.83862,-16.10157 -3.13957,-5.48513 -6.77263,-10.6979 -9.17473,-16.57409 -2.58824,-5.52182 -4.95837,-11.15553 -7.00544,-16.90033 -3.80065,-9.50164 9.63669,-14.87657 13.43734,-5.37494 z"
       inkscape:connector-curvature="0" />
    <path
       style="fill:#de2d26;fill-opacity:1;stroke:none"
       id="path3003"
       d="m 742.19878,201.86705 c 2.22042,-1.49268 4.44083,-2.98537 6.66125,-4.47805 4.24656,-2.85451 8.28344,3.15104 4.03688,6.00554 l 0,0 c -2.19306,1.47403 -4.38613,2.94805 -6.57919,4.42208 -4.20699,2.91253 -8.32592,-3.03705 -4.11894,-5.94957 z"
       inkscape:connector-curvature="0" />
    <path
       style="fill:#de2d26;fill-opacity:1;stroke:none"
       id="path3006"
       d="m 734.5675,215.49793 c 6.0561,-5.74868 12.84137,-10.6064 19.625,-15.43972 5.40532,-3.58847 10.99058,-6.87458 16.42399,-10.41864 3.44825,-2.0471 6.9022,-4.22929 9.81094,-7.01277 3.44812,-2.99478 7.2697,-5.54223 11.11321,-7.99908 4.40662,-2.81383 8.99852,-5.30712 13.48458,-7.98841 3.99899,-2.84901 8.52409,-4.73742 12.83732,-7.00546 3.90034,-2.45141 8.25695,-3.81023 12.46155,-5.57076 3.56141,-1.47706 6.80189,-3.67924 10.09704,-5.67866 4.61157,-2.29063 8.77316,-5.33576 13.19507,-7.93888 5.06181,-2.33719 10.10707,-4.74074 15.35111,-6.64409 4.94393,-1.84806 9.77573,-3.93577 14.48343,-6.32078 5.78119,-2.62732 11.36215,-5.66146 17.07811,-8.42076 5.82483,-3.05539 11.89359,-5.61063 17.96028,-8.13898 5.68967,-2.61945 11.67895,-4.62564 17.68965,-6.38156 5.77771,-1.43973 11.21383,-3.69385 16.49434,-6.410776 6.16189,-2.822033 12.4248,-5.435318 18.85855,-7.575065 4.63085,-1.7343 8.98022,-4.081041 13.41879,-6.235476 5.06257,-2.747554 10.38559,-4.976418 15.69154,-7.203306 6.1105,-2.552648 11.9037,-5.840044 17.6666,-9.093209 5.5764,-3.532006 10.8736,-7.514525 16.125,-11.514255 5.2693,-4.408866 10.6936,-8.626571 15.9407,-13.063115 4.9148,-4.084038 10.4394,-7.30124 15.5541,-11.110972 5.0889,-3.862027 9.4849,-8.516958 14.3194,-12.670193 5.2456,-4.711225 10.967,-9.03185 16.9158,-12.8274843 6.1456,-3.5014127 11.78,-7.78145512 17.4489,-11.9873897 4.4645,-3.4833659 8.8295,-7.089337 14.2298,-8.924464 4.8958,-1.487803 6.9998,5.4357724 2.1041,6.923575 l 0,0 c -4.6614,1.0611669 -8.104,5.3260667 -12.0226,7.81258829 -5.8128,4.31146821 -11.5941,8.69431351 -17.8909,12.29055471 -5.683,3.560128 -11.0848,7.74893 -16.079,12.209456 -4.9743,4.242344 -9.4507,9.060791 -14.7076,12.980096 -5.0008,3.712992 -10.3728,6.881291 -15.2007,10.830683 -5.3426,4.514587 -10.86,8.813126 -16.2291,13.294607 -5.5166,4.196661 -11.0755,8.384539 -16.9535,12.059399 -6.0104,3.386146 -12.0499,6.808993 -18.4231,9.46357 -5.18723,2.172357 -10.3874,4.354457 -15.33396,7.041843 -4.72575,2.285677 -9.35338,4.788487 -14.29823,6.592454 -6.08751,2.008809 -11.99871,4.503669 -17.83457,7.146039 -5.69467,2.90764 -11.55452,5.35746 -17.77248,6.91886 -5.75697,1.66807 -11.48702,3.60089 -16.92988,6.11377 -5.94687,2.47403 -11.8927,4.98171 -17.60022,7.97739 -5.67719,2.73141 -11.21054,5.75734 -16.95218,8.35855 -4.97285,2.5144 -10.0752,4.72241 -15.29644,6.67153 -4.84196,1.73261 -9.46609,4.00473 -14.1627,6.08921 -4.40992,2.53617 -8.49053,5.64477 -13.08733,7.87485 -3.61712,2.19014 -7.17822,4.58242 -11.09986,6.18454 -4.03196,1.63043 -8.15266,2.9574 -11.87243,5.29743 -4.20867,2.16711 -8.5726,4.0451 -12.46413,6.79728 -4.42929,2.64296 -8.95707,5.10985 -13.30894,7.88009 -3.4826,2.20629 -6.92875,4.52055 -10.07063,7.19316 -3.27971,2.99466 -6.93489,5.56974 -10.7881,7.77654 -5.35194,3.48604 -10.84229,6.73583 -16.17634,10.24982 -6.45718,4.60071 -12.92604,9.209 -18.7072,14.66315 -3.61811,3.61812 -8.7349,-1.49867 -5.11678,-5.11678 z"
       inkscape:connector-curvature="0" />
    <path
       style="fill:#de2d26;fill-opacity:1;stroke:none"
       id="path3008"
       d="m 859.82045,189.81313 c -5.34472,-3.73487 -10.56461,-7.63606 -16.13369,-11.03618 -4.41905,-2.95022 -8.48388,-6.37065 -12.65561,-9.6508 -2.96954,-2.99443 -6.01823,-5.75906 -9.97354,-7.31375 -2.44239,-0.8146 -5.01142,-1.03491 -7.55532,-1.29681 -5.0896,-0.52678 -4.34463,-7.72456 0.74497,-7.19778 l 0,0 c 3.23141,0.33606 6.48326,0.67703 9.55879,1.80063 4.52102,1.91 8.34174,4.72692 11.6978,8.3193 3.95093,3.10655 7.79854,6.34399 11.962,9.16819 5.81727,3.57217 11.30287,7.61994 16.87504,11.55665 3.99554,3.19643 -0.5249,8.84698 -4.52044,5.65055 z"
       inkscape:connector-curvature="0" />
    <path
       style="fill:#de2d26;fill-opacity:1;stroke:none"
       id="path3010"
       d="m 1135.2703,256.52487 c 6.757,-5.01268 13.5052,-10.04904 20.4393,-14.81599 4.218,-2.89659 8.3144,3.06852 4.0964,5.96511 l 0,0 c -6.7938,4.66017 -13.3915,9.60503 -20.0152,14.50142 -3.9956,3.19643 -8.516,-2.45411 -4.5205,-5.65054 z"
       inkscape:connector-curvature="0" />
    <path
       style="fill:#de2d26;fill-opacity:1;stroke:none"
       id="path3012"
       d="m 537.36436,354.79981 c 5.30994,9.25668 10.16585,18.75002 14.77401,28.37135 4.97031,11.30601 10.1269,22.52922 15.13303,33.8189 4.61124,9.81291 8.7387,19.83542 13.06555,29.77496 4.21065,9.53755 8.41329,19.04789 13.0933,28.36738 5.07193,8.59875 8.89109,17.82161 13.87534,26.46177 4.95758,8.31644 10.00512,16.58017 15.11452,24.80421 5.00217,7.59585 9.33336,15.5865 13.08335,23.86774 3.2069,7.69584 6.65916,15.27909 9.97185,22.92664 3.45294,7.83746 6.8064,15.72017 9.70226,23.78382 2.75616,8.88003 6.72569,17.24041 11.15569,25.3844 3.40478,6.64773 7.19064,13.08056 10.80193,19.61589 3.76317,5.31994 6.15388,11.29236 8.59951,17.28474 3.12029,7.59973 6.23675,15.19583 9.47294,22.74702 3.11246,7.00001 5.98143,14.10231 9.05602,21.11945 3.0445,7.66091 6.29809,15.2406 9.56963,22.8079 3.05773,6.67392 7.13775,12.8035 10.2496,19.44705 2.58545,4.93657 5.06299,9.90939 7.26702,15.03184 1.39829,4.53069 3.21475,8.92368 4.36804,13.52928 1.00137,4.71163 1.0931,9.54353 1.17635,14.34006 0.0473,4.72739 1.16916,9.36959 1.73421,14.05887 0.53442,4.93988 0.61415,9.91174 0.66932,14.87524 0.51818,3.20441 0.96974,6.52483 2.83198,9.26109 2.88275,2.86175 5.8976,5.63802 8.79167,8.51707 3.82757,3.59544 6.2271,8.00925 8.51664,12.6489 2.11107,4.44672 3.89724,9.08451 6.38302,13.34001 2.54789,4.43731 -3.72742,8.04058 -6.27531,3.60326 l 0,0 c -2.50627,-4.42234 -4.47953,-9.12502 -6.59729,-13.74197 -1.94356,-3.94127 -3.82812,-7.68953 -7.13064,-10.72025 -3.29196,-3.27522 -6.844,-6.33251 -9.84985,-9.85285 -2.33879,-3.99262 -3.49952,-8.366 -3.90601,-12.97518 -0.0518,-4.70223 -0.12068,-9.41262 -0.61823,-14.0933 -0.58916,-4.93365 -1.77935,-9.8152 -1.78467,-14.79639 -0.0725,-4.2545 -0.1296,-8.54188 -0.96643,-12.72987 -1.02619,-4.23064 -2.77311,-8.23586 -3.99223,-12.40948 -2.16665,-5.05992 -4.63728,-9.95182 -7.17702,-14.8307 -3.10904,-6.71682 -7.32829,-12.85652 -10.33238,-19.63145 -3.26656,-7.55772 -6.5177,-15.12708 -9.55682,-22.77843 -3.07536,-7.03776 -5.95609,-14.1543 -9.07834,-21.17099 -3.24958,-7.59048 -6.38586,-15.22344 -9.52096,-22.86186 -2.34193,-5.73833 -4.59969,-11.44124 -8.23421,-16.52079 -3.61575,-6.55112 -7.41374,-12.99519 -10.82485,-19.65773 -4.60366,-8.47149 -8.73039,-17.17074 -11.61051,-26.40007 -2.83156,-7.92262 -6.14861,-15.65404 -9.53203,-23.35274 -3.28692,-7.61695 -6.7413,-15.15828 -9.92566,-22.82207 -3.59724,-8.00209 -7.81461,-15.69288 -12.63447,-23.02591 -5.15062,-8.29329 -10.24255,-16.62431 -15.23861,-25.01164 -5.03991,-8.76816 -8.95147,-18.09534 -14.07119,-26.82555 -4.73825,-9.43797 -8.99722,-19.06828 -13.26139,-28.72635 -4.31978,-9.92487 -8.43948,-19.93277 -13.04583,-29.73005 -4.97642,-11.22556 -10.10753,-22.38277 -15.04428,-33.62638 -4.53173,-9.464 -9.30731,-18.80179 -14.53038,-27.90666 -2.53863,-4.44262 3.74417,-8.03279 6.28281,-3.59018 z"
       inkscape:connector-curvature="0" />
    <path
       style="fill:#de2d26;fill-opacity:1;stroke:none"
       id="path3014"
       d="m 852.90826,1038.3291 c 2.16126,5.5869 4.13145,11.1894 5.77457,16.9611 1.54237,7.7082 3.55875,15.2152 6.86708,22.3499 2.48789,6.1874 6.25223,11.689 9.92101,17.2124 3.47624,5.0885 5.38544,10.8762 7.36617,16.6386 1.53344,4.9354 2.66185,9.9272 4.50834,14.7628 2.16554,5.3834 2.96849,11.1415 4.20639,16.7756 1.35421,5.2468 3.16889,10.2454 5.42725,15.1562 2.62934,4.9178 5.81172,9.4952 8.2025,14.5425 2.3456,3.724 3.65212,7.9137 5.32168,11.9489 0.23677,0.6826 0.49998,1.3567 0.71031,2.048 0.70854,2.3288 0.39478,1.7062 0.96153,3.6687 0.0457,0.1581 0.3423,0.4659 0.17782,0.4605 -7.17616,-0.2339 -6.86617,1.4847 -6.64506,-1.9331 0.18722,-4.8652 -1.40179,-9.6316 -2.88122,-14.2115 -2.03123,-5.6894 -3.72165,-11.5592 -6.34248,-17.0148 -2.26944,-5.6529 -4.42154,-11.3493 -6.70802,-16.9977 -2.69142,-5.3309 -4.84612,-10.8316 -6.73225,-16.4891 -1.93862,-6.7783 -4.41955,-13.3791 -6.29834,-20.1726 -1.80137,-6.7349 -3.99843,-13.3429 -6.24624,-19.9387 -2.46216,-5.8495 -4.00164,-12.0185 -6.3201,-17.9218 -2.71472,-5.3076 -5.53282,-10.442 -7.25239,-16.1708 -0.87929,-5.5079 -3.21412,-10.5437 -5.44672,-15.5954 -2.63635,-4.7095 -4.24165,-9.857 -5.94583,-14.9486 -1.11797,-4.0066 -2.70846,-7.8662 -4.49293,-11.6162 -1.76729,-3.7728 -3.65466,-7.2496 -4.16042,-11.44855 -0.43787,-5.09802 6.77181,-5.71727 7.20969,-0.61925 l 0,0 c -0.0211,3.31104 2.53935,5.9124 3.48487,8.9585 1.90967,4.0131 3.60427,8.1514 4.8215,12.4308 1.63061,4.8814 3.16065,9.81 5.70195,14.3186 2.35473,5.3298 4.81055,10.6659 5.76673,16.4669 1.6119,5.5455 4.57957,10.3995 7.05413,15.592 2.33518,6.0107 3.95447,12.2616 6.42897,18.2197 2.29374,6.7315 4.53104,13.4775 6.37282,20.3498 1.83322,6.6737 4.29949,13.1466 6.18711,19.807 1.83882,5.5158 3.95556,10.8623 6.57531,16.0634 2.23164,5.5172 4.35097,11.0736 6.53624,16.6067 2.71493,5.7671 4.59876,11.8948 6.69526,17.9051 1.75982,5.4957 3.53971,11.1865 3.20382,17.0247 -0.39302,4.1779 0.36532,3.1158 -7.38757,3.7505 -0.25258,0.021 -1.10302,-3.9945 -1.16236,-4.1953 -0.16271,-0.5507 -0.36856,-1.0877 -0.55284,-1.6315 -1.62733,-3.935 -2.89199,-8.0117 -5.18557,-11.6404 -2.35796,-5.0813 -5.7065,-9.596 -8.22628,-14.5937 -2.47457,-5.3811 -4.44745,-10.8787 -5.92051,-16.6266 -1.16182,-5.288 -1.89371,-10.6974 -3.9025,-15.7566 -1.86104,-4.9126 -3.0813,-9.9632 -4.58878,-14.9852 -1.77635,-5.1812 -3.42527,-10.4065 -6.55055,-14.9857 -3.87079,-5.8329 -7.82153,-11.6566 -10.46199,-18.181 -3.44285,-7.4831 -5.67817,-15.3162 -7.25723,-23.4023 -1.71782,-6.0342 -3.93062,-11.8305 -5.95265,-17.7528 -0.84119,-5.0472 6.29658,-6.2368 7.13778,-1.1897 z"
       inkscape:connector-curvature="0" />
    <path
       style="fill:#ff0000"
       id="path4422"
       d="m 1035.15,664.52702 c 28.9451,0 57.8901,0 86.8351,0 20.8064,0.35922 41.5788,-0.86379 62.3127,-2.41791 26.7916,-1.47094 53.5978,-2.71724 80.4129,-3.69483 16.143,-0.61403 32.2937,-0.91933 48.4467,-1.07251 8.5276,-0.0808 8.6419,11.97906 0.1143,12.05984 l 0,0 c -16.0447,0.15184 -32.0871,0.45502 -48.1217,1.06504 -26.6609,0.97163 -53.3129,2.2123 -79.9508,3.6691 -21.0338,1.57656 -42.107,2.8094 -63.2141,2.45165 -28.945,0 -57.89,0 -86.8351,0 -8.5279,0 -8.5279,-12.06038 0,-12.06038 z"
       inkscape:connector-curvature="0" />
    <path
       style="fill:#ff0000"
       id="path4424"
       d="m 963.62447,691.21566 c -0.34704,-11.67262 -2.66977,-23.17329 -5.66118,-34.42551 -1.74982,-5.3414 -4.87214,-9.57616 -8.80756,-13.45717 -6.05093,-6.00938 2.44763,-14.56668 8.49855,-8.5573 l 0,0 c 5.42375,5.41613 9.65245,11.51313 11.96645,18.92303 3.24451,12.26293 5.74148,24.79703 6.06412,37.51695 0,8.52798 -12.06038,8.52798 -12.06038,0 z"
       inkscape:connector-curvature="0" />
    <path
       style="fill:#ff0000"
       id="path4426"
       d="m 1219.1899,946.17243 c 16.1959,6.06449 31.8013,13.51392 47.5694,20.57951 12.9812,5.35679 26.2806,9.84517 39.1077,15.58377 3.5612,1.4902 6.9995,3.24406 10.4924,4.88287 7.7197,3.62385 2.5948,14.54122 -5.1249,10.91734 l 0,0 c -3.4285,-1.61019 -6.8033,-3.33257 -10.2999,-4.79456 -12.8192,-5.75616 -26.1501,-10.16655 -39.107,-15.58347 -15.5696,-6.97676 -30.9756,-14.33912 -46.9671,-20.32895 -7.9596,-3.06137 -3.6301,-14.31787 4.3294,-11.25651 z"
       inkscape:connector-curvature="0" />
    <path
       style="fill:#ff0000"
       id="path4428"
       d="m 820.62644,562.42608 c -2.87232,-12.97467 -7.46388,-25.42638 -12.52372,-37.67807 -6.24774,-15.20289 -12.49158,-30.40326 -18.4534,-45.72065 -4.63727,-11.97045 -9.91365,-23.71531 -15.80614,-35.12021 -5.99106,-10.98919 -11.35495,-22.33311 -15.63722,-34.09647 -3.71707,-8.61474 -6.20313,-17.63724 -8.63147,-26.67392 -3.19703,-10.93714 -6.95808,-21.71223 -10.79135,-32.44131 -5.12079,-12.52936 -9.76978,-25.2683 -15.40276,-37.5795 -4.11963,-9.16547 -9.10371,-17.89287 -13.47466,-26.93567 -2.69343,-6.04581 -5.7962,-11.88813 -8.6741,-17.8432 -2.00849,-3.493 -3.75076,-7.12896 -5.43951,-10.78851 -1.55359,-3.75236 -3.03039,-7.48704 -3.90396,-11.46228 -1.7641,-8.34352 10.03542,-10.83833 11.79952,-2.49481 l 0,0 c 0.61393,3.10999 1.93003,5.96207 3.05746,8.90892 1.65761,3.60153 3.36468,7.15894 5.34648,10.59134 2.87485,5.95569 5.98102,11.79601 8.67324,17.84145 4.40685,9.12348 9.45024,17.9209 13.5877,27.17634 5.75018,12.63434 10.57344,25.66952 15.78875,38.53068 3.93731,11.03515 7.81104,22.1136 11.08039,33.36678 2.33927,8.7056 4.72134,17.39724 8.32142,25.69008 4.08143,11.28933 9.28825,22.14283 15.02011,32.68438 6.06448,11.79061 11.55034,23.90036 16.32521,36.27151 5.93195,15.24118 12.14575,30.36537 18.36199,45.49271 5.28167,12.79743 10.05978,25.80956 13.0763,39.35534 2.06834,8.27335 -9.63195,11.19842 -11.70028,2.92507 z"
       inkscape:connector-curvature="0" />
    <path
       style="fill:#ff0000"
       id="path4430"
       d="m 1124.7161,186.11846 c -4.4688,-8.14412 -9.2904,-16.11356 -12.9642,-24.66077 -2.3219,-7.03714 -4.03,-14.22837 -5.136,-21.54973 -0.8604,-7.10086 -0.4878,-14.26454 -0.9978,-21.38582 -0.5505,-12.16343 -2.1958,-24.227724 -3.264,-36.347893 -1.52,-10.065116 -2.1136,-20.245226 -3.4387,-30.327847 -1.0658,-6.92523 -1.9312,-13.872344 -2.3718,-20.866069 -0.2676,-5.233831 -0.2745,-10.475958 -0.2798,-15.715164 6e-4,-0.880935 0,-1.76187 0,-2.642804 0.01,-8.5279756 12.0664,-8.5193976 12.0603,0.0086 l 0,0 c -6e-4,0.87403 -0,1.74806 -0,2.62209 0,4.993157 0.01,9.989063 0.2565,14.977399 0.4138,6.726715 1.2795,13.403561 2.2948,20.064437 1.3147,10.252426 1.985,20.587953 3.4926,30.822491 1.0709,12.196406 2.7306,24.336552 3.2819,36.576502 0.4524,6.80338 0.2154,13.63135 0.8923,20.42102 0.9445,6.31657 2.4268,12.50163 4.3021,18.60904 3.5294,8.34287 8.385,16.03239 12.6588,24.00097 3.8139,7.62766 -6.9733,13.02122 -10.7871,5.39357 z"
       inkscape:connector-curvature="0" />
    <path
       style="fill:#ff0000"
       id="path4432"
       d="m 1134.8819,185.91454 c 0.027,6.73595 -0.3024,13.4535 0.631,20.13782 0.1833,0.6637 1.9372,5.35036 1.2823,2.55895 7.6386,3.79187 2.2761,14.59447 -5.3625,10.80259 l 0,0 c -4.7264,-2.66643 -6.8344,-6.4777 -7.8686,-11.7246 -0.9754,-7.23414 -0.7798,-14.48739 -0.7426,-21.77476 0,-8.52798 12.0604,-8.52798 12.0604,0 z"
       inkscape:connector-curvature="0" />
    <path
       style="fill:#ff0000"
       id="path4434"
       d="m 528.45663,351.88842 c -8.00981,-22.62806 -17.45316,-44.72236 -26.15052,-67.09521 -6.94858,-16.67388 -13.02951,-33.68186 -19.84215,-50.40969 -2.41701,-6.41498 -5.45324,-12.56642 -8.13252,-18.87275 -2.08036,-5.27976 -4.07003,-10.57628 -5.97495,-15.92546 -2.91159,-7.77625 -5.0886,-15.79099 -7.33887,-23.77446 -2.91723,-10.31075 -5.74371,-20.62166 -9.00834,-30.82968 -3.8477,-12.97307 -8.13996,-25.81806 -13.11461,-38.40275 -5.32475,-14.59723 -10.2323,-29.300679 -16.06778,-43.712493 -5.37724,-10.971092 -9.33045,-22.515519 -13.52987,-33.962858 -2.2046,-5.924819 -3.75504,-12.148136 -6.44873,-17.883103 -1.03952,-2.2482835 -0.46741,-1.2866499 -1.61302,-2.9439011 -2.79086,-4.2886562 3.27421,-8.23553642 6.06508,-3.9468802 l 0,0 c 1.62879,2.5912136 0.93156,1.2919675 2.12735,3.8784029 2.67581,5.9542974 4.50106,12.2533194 6.66293,18.4034974 4.17148,11.373232 8.09761,22.84103 13.4437,33.73947 5.84119,14.43156 10.77166,29.149409 16.09082,43.770105 5.02474,12.73742 9.38829,25.72726 13.27647,38.85627 3.2902,10.28803 6.14093,20.67941 9.08086,31.07082 2.20613,7.8273 4.33445,15.68723 7.19115,23.31071 1.85605,5.21545 3.78238,10.38306 5.81957,15.52672 2.68493,6.34157 5.75162,12.5179 8.17256,18.9691 6.8265,16.76383 12.92359,33.80678 19.8849,50.51709 8.75994,22.53526 18.2834,44.78604 26.32221,67.58898 1.50477,4.89051 -5.41146,7.01859 -6.91624,2.12807 z"
       inkscape:connector-curvature="0" />
    <path
       style="fill:#ff0000"
       id="path4436"
       d="m 467.75814,97.689097 c -3.74388,-0.08697 -7.45849,-0.0049 -11.19025,0.278826 -5.10307,0.37442 -5.63258,-6.84241 -0.52951,-7.216829 l 0,0 c 3.90915,-0.277762 7.79908,-0.40306 11.71976,-0.298226 5.11678,0 5.11678,7.236229 0,7.236229 z"
       inkscape:connector-curvature="0" />
    <path
       style="fill:#ff0000"
       id="path4438"
       d="m 500.25928,197.26413 c -3.7342,1.61187 -7.51624,3.09744 -11.31915,4.53723 -4.78589,1.81019 -7.34589,-4.95807 -2.56001,-6.76827 l 0,0 c 3.8939,-1.47132 7.75585,-3.01401 11.59086,-4.63385 4.85421,-1.61807 7.14251,5.24682 2.2883,6.86489 z"
       inkscape:connector-curvature="0" />
    <path
       style="fill:#ff0000"
       id="path4440"
       d="m 440.93021,103.98235 c 3.60807,-0.88033 6.97068,-2.41802 10.39295,-3.80852 2.99828,-1.085192 6.1578,-1.624178 9.26455,-2.314783 2.01811,-0.282544 3.96286,-0.73515 5.9284,-1.245266 2.4779,-0.636721 3.37836,2.867552 0.90046,3.504269 l 0,0 c -2.00453,0.5088 -3.98874,0.9919 -6.04376,1.2729 -2.91155,0.6472 -5.87152,1.15159 -8.69071,2.1361 -3.49492,1.41237 -6.92658,2.98719 -10.60774,3.88775 -2.42711,0.80903 -3.57125,-2.62341 -1.14415,-3.43245 z"
       inkscape:connector-curvature="0" />
    <path
       style="fill:#ff0000"
       id="path4442"
       d="m 474.31805,204.03741 c 5.10849,-2.88818 10.12382,-5.94401 15.10036,-9.05408 0.52983,-0.38684 1.05965,-0.77368 1.58948,-1.16052 2.06965,-1.50397 4.19659,1.42295 2.12694,2.92692 l 0,0 c -0.59975,0.43401 -1.1995,0.86801 -1.79926,1.30202 -5.07403,3.16957 -10.1847,6.28926 -15.39945,9.2218 -2.28829,1.14414 -3.90636,-2.092 -1.61807,-3.23614 z"
       inkscape:connector-curvature="0" />
    <path
       style="fill:#ff0000"
       id="path4444"
       d="m 933.98539,18.085824 c 10.69384,-7.403329 22.36695,-13.1091444 33.98881,-18.86479305 2.29264,-1.13541145 3.89836,2.10687675 1.60572,3.24228825 l 0,0 C 958.04475,8.175983 946.4586,13.836177 935.8469,21.188331 c -2.19381,1.316283 -4.05531,-1.786225 -1.86151,-3.102507 z"
       inkscape:connector-curvature="0" />
    <path
       style="fill:#ff0000"
       id="path4446"
       d="m 1098.5708,1724.2556 c -0.3152,0.6971 -0.5845,1.4168 -0.9456,2.0913 -1.3983,2.6118 -3.141,5.0433 -4.5781,7.636 -0.9249,1.6687 -1.6787,3.306 -2.5026,5.0247 -2.042,4.6659 -3.3875,9.6072 -5.5651,14.2091 -2.4897,4.9514 -4.5595,10.0725 -6.322,15.3232 -0.2392,0.8648 -0.5137,1.7206 -0.7175,2.5944 -1.5484,6.6382 0.584,-1.2883 -1.246,5.7984 -0.7626,2.953 -1.6042,5.864 -2.286,8.839 -1.172,5.7216 -2.1442,11.4706 -3.5599,17.1396 -1.407,5.635 -2.5703,11.3246 -3.7788,17.0042 -0.8769,4.8411 -1.866,9.6616 -2.8719,14.4776 -1.9453,7.7491 -4.0522,15.435 -5.427,23.3114 -1.7204,8.5926 -2.2016,17.3451 -3.1587,26.0365 -1.1132,9.4122 -1.6598,18.8719 -1.9558,28.3406 -0.2188,9.5787 -0.2023,19.1608 -0.2035,28.7415 0.01,15.5819 0.8997,31.1568 1.7597,46.7118 0.5561,15.3243 1.9713,30.5904 2.9952,45.8845 0.9773,15.7338 0.8968,31.5018 1.7461,47.2401 1.0902,12.2118 3.1489,24.2973 4.6004,36.4665 0.9003,11.7714 3.8974,23.1305 6.898,34.4902 3.627,14.425 6.3409,29.0582 9.238,43.6438 1.9372,8.5389 2.9376,17.2524 4.5783,25.8448 1.0418,5.4559 1.5163,6.9643 2.8961,12.3653 2.9806,10.9689 6.1425,21.886 9.027,32.881 2.5751,10.1073 6.2662,19.8563 10.0132,29.5717 2.7033,7.8205 5.9012,15.4721 9.5237,22.9098 1.1202,2.3001 -2.1327,3.8843 -3.2529,1.5842 l 0,0 c -3.6669,-7.5302 -6.9073,-15.2755 -9.6466,-23.192 -3.7954,-9.841 -7.5278,-19.7183 -10.1372,-29.9558 -2.8854,-11.003 -6.0529,-21.9269 -9.033,-32.9042 -1.4215,-5.5751 -1.8825,-7.0254 -2.9579,-12.6576 -1.634,-8.5584 -2.6298,-17.2374 -4.5595,-25.7423 -2.8825,-14.5121 -5.5817,-29.0717 -9.1873,-43.4247 -3.0435,-11.5223 -6.0706,-23.0479 -6.9925,-34.9857 -1.4605,-12.2468 -3.5384,-24.4089 -4.6207,-36.7002 -0.8465,-15.7228 -0.773,-31.4748 -1.7432,-47.1932 -1.0243,-15.3081 -2.4412,-30.5882 -2.9978,-45.9265 -0.8632,-15.6217 -1.7581,-31.2632 -1.7652,-46.912 0,-9.6182 -0.015,-19.2379 0.2053,-28.8542 0.2996,-9.5632 0.852,-19.1174 1.9758,-28.6237 0.9667,-8.7672 1.4536,-17.5962 3.191,-26.2637 1.3875,-7.9141 3.479,-15.6439 5.4493,-23.4276 1.0069,-4.8205 1.9967,-9.6454 2.8747,-14.491 1.2174,-5.7212 2.3899,-11.4524 3.8077,-17.1287 1.413,-5.6454 2.3675,-11.3746 3.5434,-17.0714 0.6854,-2.9815 1.5237,-5.9006 2.2908,-8.8594 1.6727,-6.4516 -0.2949,0.7512 1.2814,-5.9364 0.2207,-0.9362 0.5162,-1.8531 0.7743,-2.7796 1.8137,-5.387 3.9321,-10.6473 6.4865,-15.7293 2.2127,-4.5846 3.4612,-9.5764 5.568,-14.215 0.9198,-1.9158 1.6155,-3.4351 2.6496,-5.3 1.3734,-2.4767 3.0593,-4.7939 4.3964,-7.2863 0.3581,-0.6674 0.6241,-1.3801 0.9361,-2.0702 1.0391,-2.3379 4.3453,-0.8684 3.3063,1.4695 z"
       inkscape:connector-curvature="0" />
    <path
       style="fill:#ff0000"
       id="path4448"
       d="m 1101.1902,1713.2386 c -1.3084,3.6544 -2.5822,7.3281 -4.0342,10.9295 -0.5994,1.9904 -1.1915,3.9617 -2.0366,5.8652 -1.0418,2.3367 -4.3464,0.8635 -3.3046,-1.4732 l 0,0 c 0.8345,-1.8628 1.3615,-3.8067 1.9858,-5.7456 1.4258,-3.5318 2.6727,-7.1362 3.9572,-10.7201 0.809,-2.4271 4.2414,-1.2829 3.4324,1.1442 z"
       inkscape:connector-curvature="0" />
    <path
       style="fill:#ff0000"
       id="path4450"
       d="m 970.63645,691.14621 c 0.75059,4.34992 1.88702,8.60598 3.0668,12.8539 0.68448,2.46513 -2.80174,3.43313 -3.48622,0.96801 l 0,0 c -1.18753,-4.2778 -2.33735,-8.56357 -3.09066,-12.94439 -0.62051,-2.482 2.88958,-3.35952 3.51008,-0.87752 z"
       inkscape:connector-curvature="0" />
  </g>
</svg>
