<?xml version="1.0" encoding="UTF-8" standalone="no"?>
<!-- Created with Inkscape (http://www.inkscape.org/) -->

<svg
   xmlns:dc="http://purl.org/dc/elements/1.1/"
   xmlns:cc="http://creativecommons.org/ns#"
   xmlns:rdf="http://www.w3.org/1999/02/22-rdf-syntax-ns#"
   xmlns:svg="http://www.w3.org/2000/svg"
   xmlns="http://www.w3.org/2000/svg"
   xmlns:xlink="http://www.w3.org/1999/xlink"
   xmlns:sodipodi="http://sodipodi.sourceforge.net/DTD/sodipodi-0.dtd"
   xmlns:inkscape="http://www.inkscape.org/namespaces/inkscape"
   id="svg2"
   version="1.1"
   inkscape:version="0.48.4 r9939"
   width="456"
   height="743"
   sodipodi:docname="27413-27.svg">
  <metadata
     id="metadata8">
    <rdf:RDF>
      <cc:Work
         rdf:about="">
        <dc:format>image/svg+xml</dc:format>
        <dc:type
           rdf:resource="http://purl.org/dc/dcmitype/StillImage" />
        <dc:title />
      </cc:Work>
    </rdf:RDF>
  </metadata>
  <defs
     id="defs6" />
  <sodipodi:namedview
     pagecolor="#ffffff"
     bordercolor="#666666"
     borderopacity="1"
     objecttolerance="10"
     gridtolerance="10"
     guidetolerance="10"
     inkscape:pageopacity="0"
     inkscape:pageshadow="2"
     inkscape:window-width="1280"
     inkscape:window-height="732"
     id="namedview4"
     showgrid="false"
     inkscape:zoom="1.2801501"
     inkscape:cx="74.772246"
     inkscape:cy="102.00493"
     inkscape:window-x="-8"
     inkscape:window-y="-8"
     inkscape:window-maximized="1"
     inkscape:current-layer="svg2" />
  <image
     width="456"
     height="743"
     xlink:href="file:///C:/Users/Surface/Desktop/CHI2013%20BI%20GitRepo/public-dataset/input/cropped-display/27413-27.png"
     id="image10"
     x="0"
     y="0" />
  <path
     style="fill:#de2d26;fill-opacity:1;stroke:none"
     id="path6256"
     d="m 467.87201,648.46001 c -2.04714,1.24194 -4.09258,2.49081 -6.2668,3.49894 -1.37584,0.68834 -2.74041,1.41139 -4.15617,2.01455 -1.35659,0.56628 -2.708,1.09911 -4.03469,1.73431 -1.66855,1.0094 -3.21179,2.23591 -4.69034,3.5045 -1.50391,1.36939 -3.17627,2.34572 -5.12214,2.92043 -1.2095,0.33216 -2.38926,0.69203 -3.36323,1.51038 -0.95399,0.69527 -1.75573,1.56652 -2.64385,2.34302 -1.10715,0.78425 -2.15503,1.63171 -3.18551,2.5099 -0.95735,1.01896 -2.08998,1.85347 -3.21287,2.67869 -1.223,0.8334 -2.41963,1.70863 -3.68565,2.47832 -1.38063,0.82737 -2.64179,1.83077 -3.93403,2.78508 -1.18228,0.83204 -2.36716,1.65997 -3.43443,2.64021 -0.85184,0.88699 -1.6606,1.84084 -2.30624,2.89263 -0.67917,0.97461 -1.3981,1.9683 -1.86645,3.0669 -0.6614,1.39895 -1.61799,2.60373 -2.49654,3.86417 -1.0358,1.62389 -2.39224,2.98292 -3.68297,4.39713 -1.16455,1.24124 -2.14732,2.63883 -3.10855,4.03945 -0.75451,1.43644 -1.82218,2.64077 -2.83036,3.8929 -0.91918,1.12171 -1.6506,2.3889 -2.31174,3.67624 -0.81376,1.66535 -1.91251,3.13598 -3.00875,4.6167 -1.23084,1.45146 -2.19577,3.08361 -3.24511,4.66322 -1.14192,1.54262 -2.19918,3.13842 -3.00879,4.88074 -0.89872,1.80241 -1.85529,3.57763 -2.82406,5.34367 -0.81783,1.5573 -1.58743,3.1391 -2.40142,4.69832 -0.75757,1.75144 -1.48527,3.51617 -2.30193,5.24128 -0.61877,1.4363 -1.2362,2.87185 -1.86678,4.3034 -0.56351,1.40619 -1.39758,2.67915 -2.08257,4.02701 -0.94693,1.59737 -1.68315,3.29984 -2.5097,4.95667 -0.72386,1.41623 -1.45235,2.83128 -2.2049,4.23284 -0.57076,1.17235 -0.78157,2.51301 -0.95516,3.80295 -0.13378,1.52435 -0.85343,2.9285 -1.15229,4.40233 -0.81214,3.21313 -5.35619,2.06458 -4.54405,-1.14854 l 0,0 c 0.3513,-1.29996 0.85202,-2.55162 1.05338,-3.89442 0.25883,-1.84088 0.61476,-3.7198 1.47166,-5.3849 0.73732,-1.36385 1.4429,-2.74561 2.14885,-4.12548 0.85033,-1.64815 1.55122,-3.37672 2.51594,-4.96896 0.64955,-1.27241 1.43435,-2.47653 1.97423,-3.79941 0.65583,-1.46629 1.2762,-2.94511 1.91889,-4.4168 0.84967,-1.77578 1.57108,-3.60855 2.38221,-5.40203 0.83272,-1.58488 1.60878,-3.19897 2.44612,-4.78165 0.92493,-1.67941 1.83133,-3.37148 2.69184,-5.0843 0.92417,-1.94075 2.05427,-3.75949 3.34626,-5.47884 1.09647,-1.64542 2.10781,-3.34615 3.38584,-4.86323 0.95218,-1.2767 1.91234,-2.53584 2.61049,-3.98009 0.81926,-1.56549 1.7087,-3.10949 2.83689,-4.47591 0.94034,-1.14598 1.9088,-2.25794 2.60064,-3.58591 1.08349,-1.57863 2.2017,-3.1454 3.51122,-4.54701 1.15664,-1.26704 2.38518,-2.47019 3.30832,-3.92994 0.72301,-1.02464 1.51539,-1.99726 2.07388,-3.12823 0.60262,-1.26835 1.33548,-2.48807 2.16663,-3.61928 0.90258,-1.39798 1.94816,-2.71195 3.13881,-3.87561 1.19798,-1.05613 2.46531,-2.02091 3.78207,-2.92271 1.41381,-1.03676 2.78864,-2.13479 4.30102,-3.02949 1.1571,-0.68042 2.22476,-1.50468 3.33921,-2.24895 1.03944,-0.74558 2.05398,-1.53299 2.93798,-2.46248 1.01769,-0.85932 2.03445,-1.71575 3.13602,-2.4673 0.96809,-0.84375 1.84248,-1.79353 2.88977,-2.54346 1.49521,-1.09163 3.12291,-1.8618 4.93039,-2.29101 1.31329,-0.33385 2.34458,-1.08361 3.35414,-1.97821 1.79585,-1.51835 3.6432,-3.0172 5.70436,-4.16264 1.4001,-0.6698 2.82809,-1.23145 4.25585,-1.83322 1.37512,-0.55009 2.66582,-1.31199 4.00246,-1.94726 1.95853,-0.88789 3.77419,-2.04752 5.62285,-3.13939 2.75756,-1.83837 5.35741,2.0614 2.59985,3.89978 z"
     inkscape:connector-curvature="0" />
  <path
     style="fill:#fc9272;fill-opacity:1;stroke:none"
     id="path6258"
     d="m -3.2830915,241.57227 c 2.56700713,-1.92761 5.0378469,-3.97264 7.4971469,-6.03378 2.995953,-2.28419 6.1313176,-4.37379 9.2428706,-6.49451 2.332732,-1.33791 4.467438,-2.91604 6.562994,-4.58873 2.21377,-1.61339 4.366025,-3.30681 6.543679,-4.96787 2.143192,-1.46127 4.00263,-3.28357 5.850409,-5.09161 1.318392,-1.71594 2.933442,-3.12447 4.519392,-4.57695 1.688784,-1.59966 3.318955,-3.25971 4.957322,-4.91056 1.773382,-1.70876 3.585714,-3.37383 5.213125,-5.22682 1.881068,-2.0592 3.875955,-4.00137 5.99255,-5.81567 2.038855,-1.65213 4.047862,-3.36531 6.20848,-4.85703 2.149717,-1.3544 4.344688,-2.60128 6.328301,-4.19573 2.3692,-2.06384 5.004757,-3.75362 7.726629,-5.30806 2.05411,-1.01859 4.019899,-2.15297 5.928863,-3.41501 1.435772,-0.94524 2.730392,-2.0898 4.233652,-2.92528 0.138052,-0.0657 0.276104,-0.13132 0.414156,-0.19698 2.998555,-1.41153 4.994761,2.82907 1.996206,4.2406 l 0,0 c -0.08275,0.0383 -0.165495,0.0766 -0.248242,0.11483 -1.41821,0.55603 -2.434493,2.01808 -3.812254,2.67745 -1.995996,1.31762 -4.045641,2.5156 -6.192911,3.57717 -2.514061,1.42723 -4.939573,2.98618 -7.119304,4.89607 -2.084903,1.6594 -4.347927,3.01816 -6.616605,4.40868 -2.037736,1.36165 -3.875618,3.02617 -5.797929,4.5429 -1.952856,1.67146 -3.790372,3.46294 -5.528408,5.35848 -1.696838,1.9128 -3.550021,3.66471 -5.399583,5.42597 -1.69269,1.70559 -3.376834,3.42084 -5.124318,5.07072 -1.552283,1.41279 -3.106765,2.79686 -4.40164,4.46568 -1.985314,1.94155 -3.98983,3.88994 -6.285372,5.46775 -2.150351,1.64019 -4.274299,3.31423 -6.462436,4.90449 -2.186873,1.74528 -4.416298,3.3995 -6.847212,4.79854 -2.983656,2.0333 -5.987769,4.03915 -8.8719199,6.21376 -2.462662,2.06369 -4.9340082,4.11558 -7.50712904,6.04212 -2.54601936,2.12168 -5.54653186,-1.47893 -3.00051256,-3.60062 z"
     inkscape:connector-curvature="0" />
  <path
     style="fill:#fc9272;fill-opacity:1;stroke:none"
     id="path6262"
     d="m 225.53559,662.13196 c 1.69992,1.46929 3.23485,3.11914 4.80094,4.72773 1.49707,1.49706 2.87944,3.11251 4.5884,4.37388 2.01055,1.09712 4.15298,1.86613 6.11341,3.05449 2.33169,1.60823 4.65983,3.23674 6.77041,5.12985 1.98,1.82462 3.68749,3.89875 5.39463,5.97151 1.90406,1.90106 3.70898,3.89618 5.54879,5.85911 2.47356,2.39539 4.9845,4.75198 7.66489,6.9149 3.02008,2.08109 5.84157,4.36683 8.24601,7.14071 1.97554,2.39403 3.8524,4.86647 5.80375,7.27945 1.85272,2.5374 4.28357,4.4434 6.7677,6.31123 2.91893,1.9963 5.5795,4.32773 8.25401,6.63213 2.07645,2.13325 4.22201,4.16572 6.44089,6.1469 1.83981,1.85216 4.02036,3.29273 6.08017,4.87813 1.83754,1.49602 3.26914,3.37957 4.73567,5.21929 1.443,1.6914 2.81057,3.44474 4.12481,5.23784 1.13914,1.74212 2.54996,3.22429 4.07572,4.62286 1.38335,1.47786 2.65082,3.01708 3.74888,4.71561 1.79912,2.78332 -2.13709,5.32767 -3.93622,2.54435 l 0,0 c -0.88209,-1.36481 -1.8919,-2.59733 -2.98171,-3.80676 -1.74962,-1.60736 -3.36905,-3.32164 -4.68966,-5.30901 -1.27245,-1.74371 -2.60776,-3.43974 -4.00687,-5.08343 -1.23143,-1.54491 -2.41402,-3.14187 -3.93063,-4.42755 -2.1488,-1.65634 -4.42162,-3.1649 -6.34341,-5.09665 -2.19556,-1.9642 -4.33761,-3.96179 -6.37707,-6.09089 -2.59596,-2.23685 -5.17508,-4.5034 -8.01163,-6.43693 -2.79049,-2.09891 -5.4998,-4.27865 -7.59602,-7.11113 -1.91998,-2.37729 -3.77163,-4.80888 -5.71241,-7.16989 -2.19667,-2.58159 -4.8775,-4.60316 -7.63854,-6.55136 -2.84399,-2.3029 -5.52177,-4.79704 -8.13814,-7.35475 -1.90812,-2.03612 -3.78981,-4.09563 -5.74685,-6.08447 -1.56211,-1.89669 -3.11439,-3.80229 -4.92227,-5.47653 -1.88367,-1.72591 -4.0212,-3.14842 -6.10071,-4.62484 -2.03173,-1.31705 -4.44824,-1.90363 -6.45395,-3.28775 -1.88277,-1.43358 -3.49172,-3.14894 -5.13029,-4.85079 -1.55171,-1.59382 -3.07269,-3.22668 -4.75687,-4.68307 -2.34348,-2.34348 0.9707,-5.65765 3.31417,-3.31417 z"
     inkscape:connector-curvature="0" />
  <path
     style="fill:#fc9272;fill-opacity:1;stroke:none"
     id="path6268"
     d="m 402.08098,754.85714 c 2.0162,-1.46969 4.03215,-2.94992 5.82068,-4.69446 1.97156,-2.06439 3.85887,-4.20441 5.91636,-6.18465 2.46607,-2.64689 5.62066,-4.49213 8.6926,-6.34375 3.51039,-2.33657 7.04857,-4.632 10.59159,-6.92076 4.45236,-3.1393 9.07185,-6.0055 13.87709,-8.56866 3.97099,-2.1638 8.20965,-3.74952 12.31508,-5.62541 2.69021,-1.06684 5.30021,-2.32328 7.98497,-3.40097 1.69787,-0.67115 3.33909,-1.47632 5.08733,-2.00684 3.18492,-0.91654 4.4811,3.58762 1.29618,4.50416 l 0,0 c -1.61287,0.41449 -3.07184,1.31817 -4.64567,1.85554 -2.61845,1.03863 -5.15083,2.28574 -7.77574,3.3115 -4.0194,1.83475 -8.16692,3.38953 -12.05826,5.49849 -4.69216,2.49692 -9.19069,5.30866 -13.53776,8.36913 -3.58428,2.31541 -7.16195,4.64 -10.71658,6.99874 -2.77616,1.67081 -5.6481,3.30885 -7.86624,5.71115 -2.06072,1.96927 -3.91906,4.13107 -5.90524,6.17396 -1.90906,1.82896 -3.9961,3.44872 -6.14848,4.98273 -2.58793,2.07035 -5.51585,-1.58955 -2.92791,-3.6599 z"
     inkscape:connector-curvature="0" />
</svg>
