<?xml version="1.0" encoding="UTF-8" standalone="no"?>
<!-- Created with Inkscape (http://www.inkscape.org/) -->

<svg
   xmlns:dc="http://purl.org/dc/elements/1.1/"
   xmlns:cc="http://creativecommons.org/ns#"
   xmlns:rdf="http://www.w3.org/1999/02/22-rdf-syntax-ns#"
   xmlns:svg="http://www.w3.org/2000/svg"
   xmlns="http://www.w3.org/2000/svg"
   xmlns:xlink="http://www.w3.org/1999/xlink"
   xmlns:sodipodi="http://sodipodi.sourceforge.net/DTD/sodipodi-0.dtd"
   xmlns:inkscape="http://www.inkscape.org/namespaces/inkscape"
   version="1.1"
   viewbox="0 0 348 572"
   id="svg2"
   inkscape:version="0.48.4 r9939"
   sodipodi:docname="27413-12.svg"
   width="348"
   height="572">
  <sodipodi:namedview
     pagecolor="#ffffff"
     bordercolor="#666666"
     borderopacity="1"
     objecttolerance="10"
     gridtolerance="10"
     guidetolerance="10"
     inkscape:pageopacity="0"
     inkscape:pageshadow="2"
     inkscape:window-width="1280"
     inkscape:window-height="732"
     id="namedview27"
     showgrid="false"
     inkscape:zoom="2.6912915"
     inkscape:cx="175.47793"
     inkscape:cy="102.75311"
     inkscape:window-x="-8"
     inkscape:window-y="-8"
     inkscape:window-maximized="1"
     inkscape:current-layer="g1" />
  <metadata
     id="metadata8">
    <rdf:RDF>
      <cc:Work
         rdf:about="">
        <dc:format>image/svg+xml</dc:format>
        <dc:type
           rdf:resource="http://purl.org/dc/dcmitype/StillImage" />
        <dc:title />
      </cc:Work>
    </rdf:RDF>
  </metadata>
  <defs
     id="defs6" />
  <image
     xlink:href="file:///C:/Users/Surface/Desktop/CHI2013%20BI%20GitRepo/public-dataset/input/cropped-display/27413-12.png"
     x="0"
     y="-0.10680359"
     width="348"
     height="572"
     id="image10" />
  <g
     id="g1"
     style="fill:#de2d26"
     inkscape:label="#layer1"
     transform="translate(0,-0.10680097)">
    <path
       style="fill:#de2d26;fill-opacity:1;stroke:none"
       id="path4235"
       d="m 250.21877,578.98122 c 1.18619,-1.05338 2.46179,-1.99347 3.75393,-2.91058 1.04154,-0.65591 2.0436,-1.36918 3.05854,-2.06447 0.84952,-0.62293 1.71483,-1.22354 2.62203,-1.75953 0.77212,-0.39699 1.61191,-0.65213 2.44213,-0.9013 0.60799,-0.0925 1.1295,-0.39311 1.65196,-0.69504 0.58341,-0.32721 0.99084,-0.86097 1.43025,-1.35105 0.72761,-0.75599 1.57169,-1.37946 2.39199,-2.02797 0.55743,-0.50551 1.11687,-1.00662 1.61502,-1.57157 0.59602,-0.65605 1.34889,-1.11344 2.10311,-1.56076 0.51829,-0.29406 1.08602,-0.56308 1.51714,-0.98446 0.48779,-0.48833 0.96311,-0.99062 1.4686,-1.46087 0.64785,-0.6324 1.48209,-0.98629 2.28036,-1.38133 0.75739,-0.36138 1.56002,-0.60976 2.34375,-0.90358 0.68942,-0.25599 1.37535,-0.51975 2.04616,-0.82077 0.6189,-0.2621 1.21862,-0.56203 1.84984,-0.79893 0.78522,-0.34696 1.60687,-0.62146 2.43001,-0.86601 0.80282,-0.1751 1.61024,-0.31657 2.41612,-0.47973 0.79295,-0.12868 1.59368,-0.21646 2.39318,-0.28459 0.87324,-0.0249 1.74691,0.0121 2.62005,0.0294 0.70556,0.0203 1.40207,0.0456 2.0988,-0.0695 0.83594,-0.16811 1.66606,-0.24902 2.5131,-0.139 0.61748,0.11914 1.24273,0.17315 1.86989,0.20376 0.71284,0.0269 1.42633,0.0263 2.13956,0.0271 0.73181,0.0547 1.45939,0.0649 2.19382,0.0444 0.83293,-0.0767 1.64991,0.0112 2.4713,0.14231 0.85461,0.0785 1.69738,0.21931 2.54442,0.35478 1.04921,0.19631 2.05731,0.53169 3.00804,1.01357 0.73746,0.36348 1.41486,0.84025 2.02929,1.38436 1.35685,1.24158 -0.39901,3.16045 -1.75586,1.91887 l 0,0 c -0.41408,-0.42009 -0.957,-0.71573 -1.46966,-0.99366 -0.6956,-0.37332 -1.45455,-0.59189 -2.22468,-0.75513 -0.8465,-0.13672 -1.68739,-0.27505 -2.54184,-0.35437 -0.66445,-0.1062 -1.31278,-0.18686 -1.98864,-0.11076 -0.75919,0.021 -1.51387,0.009 -2.26921,-0.0434 -0.75528,-8.8e-4 -1.51086,-5.2e-4 -2.26568,-0.0303 -0.70475,-0.0356 -1.4083,-0.0941 -2.10257,-0.22584 -0.58331,-0.0945 -1.15911,0.0368 -1.73859,0.13135 -0.85197,0.13411 -1.70217,0.13699 -2.56308,0.10196 -0.79164,-0.0157 -1.58345,-0.0454 -2.37528,-0.0361 -0.6917,0.0374 -1.38428,0.15231 -2.07156,0.24032 -0.732,0.14735 -1.46385,0.28524 -2.19647,0.42533 -0.77211,0.22451 -1.53774,0.48891 -2.27287,0.81427 -0.57817,0.20026 -1.10978,0.50216 -1.67658,0.72855 -0.72396,0.32486 -1.46463,0.60896 -2.20772,0.88685 -0.70168,0.25749 -1.41535,0.48522 -2.09601,0.79692 -0.5787,0.28491 -1.20045,0.51825 -1.67575,0.96797 -0.5286,0.4695 -0.99199,1.01064 -1.50694,1.49525 -0.58406,0.49498 -1.22253,0.92413 -1.90766,1.26814 -0.52235,0.30978 -1.05813,0.60482 -1.48285,1.0482 -0.60212,0.67741 -1.26984,1.28852 -1.94925,1.88758 -0.70446,0.55664 -1.43007,1.08899 -2.06829,1.72378 -0.62248,0.69418 -1.23347,1.413 -2.06536,1.86665 -0.69622,0.40234 -1.41456,0.78962 -2.21497,0.93703 -0.63093,0.18307 -1.26444,0.38459 -1.86399,0.6505 -0.85852,0.49949 -1.66436,1.08078 -2.4687,1.66219 -1.00307,0.68702 -1.99252,1.39338 -3.02302,2.0397 -1.25162,0.88826 -2.48618,1.79939 -3.63449,2.82053 -1.43615,1.14892 -3.06097,-0.8821 -1.62482,-2.03102 z"
       inkscape:connector-curvature="0"
       transform="translate(0,0.10680097)" />
    <path
       style="fill:#de2d26;fill-opacity:1;stroke:none"
       id="path4237"
       d="m 278.59348,575.57054 c 1.09716,-0.76125 2.19875,-1.5165 3.30992,-2.25724 1.11464,-0.76452 2.36911,-1.22308 3.64385,-1.63272 1.03372,-0.24139 2.01539,-0.62679 2.99496,-1.02559 1.1066,-0.46035 2.18198,-0.98882 3.28211,-1.46472 0.94142,-0.4368 1.92596,-0.75512 2.87734,-1.16964 0.62779,-0.26297 1.28326,-0.52756 1.84738,-0.91502 0.56021,-0.38317 1.08298,-0.79965 1.68852,-1.1164 0.51769,-0.29431 1.04832,-0.53415 1.54778,-0.85651 0.75293,-0.60752 1.65475,-0.8556 2.59064,-1.00864 0.81523,-0.20141 1.64095,-0.33879 2.47625,-0.41936 0.7405,-0.12283 1.45657,-0.34089 2.1869,-0.50854 0.94586,-0.2578 1.89315,-0.51593 2.84996,-0.73116 0.82507,-0.18851 1.60281,-0.51102 2.3799,-0.83704 0.7346,-0.37192 1.48653,-0.70096 2.24046,-1.0303 0.85846,-0.35642 1.73938,-0.63995 2.64881,-0.83144 0.94664,-0.2348 1.89729,-0.10138 2.84676,0.0189 0.78474,0.0468 1.55308,0.17535 2.32414,0.32221 0.71793,0.0758 1.41714,0.21418 2.11856,0.38184 0.75571,0.17693 1.5058,0.38217 2.25386,0.59153 0.82613,0.24275 1.68645,0.27625 2.54063,0.30857 1.71497,-0.037 3.40613,0.22233 5.09632,0.47526 2.2138,0.39061 4.43122,0.76436 6.65491,1.09472 1.45898,0.29052 2.92481,0.50968 4.40851,0.61279 1.45255,0.14034 2.89621,0.33479 4.32824,0.61558 1.17829,0.23635 2.34376,0.54927 3.46754,0.97566 0.15511,0.0793 0.31023,0.15862 0.46535,0.23793 1.61942,0.87181 0.38649,3.16201 -1.23292,2.2902 l 0,0 c -0.0522,-0.0323 -0.10431,-0.0645 -0.15647,-0.0968 -0.98679,-0.37575 -2.01203,-0.64711 -3.0472,-0.85522 -1.32529,-0.26361 -2.66223,-0.43748 -4.00648,-0.57272 -1.55047,-0.10961 -3.08463,-0.32822 -4.60904,-0.6347 -2.22444,-0.33089 -4.44301,-0.70307 -6.65741,-1.09509 -1.59614,-0.2389 -3.19127,-0.48941 -4.81126,-0.44853 -1.05752,-0.0412 -2.11989,-0.10205 -3.14174,-0.4029 -0.71662,-0.20058 -1.4338,-0.4025 -2.15873,-0.56683 -0.66301,-0.15912 -1.3197,-0.2828 -1.99964,-0.35628 -0.71893,-0.13711 -1.4312,-0.25699 -2.16409,-0.29684 -0.66837,-0.0847 -1.32465,-0.22102 -1.99277,-0.0523 -0.73602,0.14868 -1.44339,0.38649 -2.13838,0.66952 -0.76537,0.33177 -1.52408,0.67269 -2.27196,1.04375 -0.91869,0.3852 -1.8432,0.75533 -2.81825,0.97677 -0.95394,0.21185 -1.89608,0.47545 -2.83953,0.72881 -0.83971,0.18977 -1.66308,0.449 -2.51954,0.56199 -0.78288,0.0726 -1.55154,0.21973 -2.31688,0.39927 -0.59781,0.0888 -1.11481,0.21466 -1.58508,0.62475 -0.57952,0.37396 -1.1914,0.65857 -1.79079,0.99541 -0.53773,0.24272 -0.93752,0.69772 -1.45194,0.98164 -0.70044,0.43539 -1.44283,0.81247 -2.21243,1.10998 -0.95434,0.41578 -1.93983,0.73814 -2.88491,1.17291 -1.11757,0.48187 -2.20778,1.02203 -3.3329,1.48603 -1.04007,0.4232 -2.08372,0.83326 -3.17988,1.09282 -1.04561,0.33589 -2.08275,0.68924 -2.9971,1.32083 -1.11129,0.74028 -2.2121,1.49636 -3.30952,2.25696 -1.53028,1.02019 -2.97305,-1.14395 -1.44276,-2.16414 z"
       inkscape:connector-curvature="0"
       transform="translate(0,0.10680097)" />
    <path
       style="fill:#de2d26;fill-opacity:1;stroke:none"
       id="path4239"
       d="m 311.53802,576.98875 c 0.87627,-1.25606 2.02804,-2.27621 3.25817,-3.17308 1.13958,-0.80751 2.37822,-1.38826 3.69278,-1.83735 0.81459,-0.21784 1.61385,-0.4679 2.40316,-0.76341 0.74614,-0.33184 1.49847,-0.64197 2.23362,-0.99696 0.76056,-0.4738 1.59798,-0.74103 2.47365,-0.89674 0.75365,-0.0437 1.4875,-0.21033 2.23183,-0.32489 0.73971,-0.0512 1.46139,-0.16307 2.18911,-0.2981 0.80096,-0.1488 1.61485,-0.19221 2.42739,-0.21724 0.80965,-0.0135 1.61857,-0.0425 2.4246,0.0403 0.95599,0.18275 1.91046,0.39971 2.85752,0.62974 1.16979,0.28783 1.89361,0.55591 2.64269,1.53896 0.0713,0.25252 0.22409,0.49538 0.21382,0.75757 -0.0525,1.33906 -1.19758,1.68099 -2.26965,1.86981 -1.05622,0.0634 -2.12126,0.0589 -3.17453,-0.0431 -0.85912,-0.12999 -1.71872,-0.24727 -2.58587,-0.3054 -1.31846,-0.0843 -1.18852,0.0163 -0.60485,-2.65153 0.0163,-0.0746 0.77999,-0.16173 1.16848,-0.21364 1.73165,-0.1399 3.46024,-0.31173 5.18571,-0.51403 1.69037,-0.22773 3.39879,-0.14557 5.09705,-0.0838 1.22923,0.0242 2.4491,0.20956 3.64592,0.48152 0.84653,0.21727 1.69465,0.44027 2.53446,0.68384 0.33459,0.0878 0.66564,0.20452 1.00425,0.27717 0.0976,0.0209 -0.26394,-0.12005 -0.29837,-0.0263 -0.27143,0.7388 -0.39431,1.524 -0.59147,2.286 -0.76101,-0.17287 -1.54394,-0.20048 -2.3205,-0.2354 -1.69525,-0.0525 -3.39169,-0.0474 -5.08757,-0.0482 -1.22619,0.0146 -2.44686,0.0482 -3.65443,-0.1914 -1.82015,-0.56667 -1.11972,-1.38675 -0.0766,-2.67223 0.0608,-0.0749 1.28846,-0.0892 1.39852,-0.0918 1.06581,0.006 2.13885,-0.0375 3.18433,-0.25807 0.15148,-0.0349 0.50365,-0.0925 0.66689,-0.19541 0.0816,-0.0515 -0.21696,0.0456 -0.25675,0.13349 -0.3318,0.73271 -0.28607,0.63928 -0.10702,1.18219 0.021,0.0474 0.11047,0.12169 0.0629,0.14217 -0.0802,0.0345 -0.16917,-0.0439 -0.25508,-0.0595 -0.13853,-0.0251 -0.27734,-0.0517 -0.41771,-0.0625 -0.57817,-0.0446 -1.15945,0.0146 -1.73274,0.0789 -0.59034,0.17038 -1.45724,0.17126 -1.91602,0.65828 -0.0164,0.0175 0.0605,0.0131 0.0714,-0.008 0.13461,-0.26109 0.2332,-0.53922 0.3498,-0.80883 -0.17169,-0.31652 -0.31631,-0.64929 -0.51506,-0.94955 -0.12884,-0.19464 -0.41762,-0.10286 0.28642,-0.13023 1.83808,-0.0635 1.92789,2.53592 0.0898,2.59943 l 0,0 c -1.45205,0.0456 -1.53516,0.1101 -2.4534,-1.30633 0.10704,-0.38589 0.14413,-0.79844 0.3211,-1.15767 0.41689,-0.84624 2.65839,-1.3525 3.49465,-1.48368 1.57914,-0.15705 3.20347,-0.2336 4.54722,0.74775 0.15772,0.25344 0.42222,0.4662 0.47317,0.76033 0.26723,1.54267 -0.94821,2.16826 -2.2,2.40991 -1.19728,0.23046 -2.41443,0.32818 -3.63396,0.30779 -0.15821,0.004 -0.31646,0.006 -0.47465,0.0105 -0.21664,0.007 -0.37109,0.0216 -0.36528,0.007 0.84256,-2.06587 1.25293,-1.25224 -0.0184,-2.40186 1.0309,0.22474 2.08529,0.11792 3.13219,0.13816 1.73513,9.1e-4 3.47084,-0.004 5.20528,0.051 1.19882,0.0558 2.45363,0.0752 3.55316,0.6115 -0.0863,0.82945 -0.0369,1.68448 -0.25883,2.48835 -0.0391,0.14161 -0.29204,0.0427 -0.43892,0.0397 -0.5179,-0.0106 -1.00959,-0.22955 -1.50582,-0.34844 -0.78338,-0.23828 -1.5841,-0.43238 -2.37504,-0.64215 -1.03785,-0.23739 -2.09592,-0.40059 -3.1625,-0.4182 -1.56553,-0.057 -3.14119,-0.14211 -4.69959,0.0678 -1.71871,0.20149 -3.44051,0.3749 -5.16555,0.5116 -0.13312,0.0149 -0.26648,0.0277 -0.39936,0.0446 -0.0675,0.009 -0.18355,0.0976 -0.20176,0.032 -0.7118,-2.56457 -1.24283,-2.45903 -0.10918,-2.3873 0.89836,0.0618 1.79056,0.17348 2.68007,0.31353 0.84333,0.0984 1.6993,0.0665 2.54696,0.0536 0.33549,0.011 -0.14441,0.0106 0.43935,-0.0986 6.7e-4,-1.2e-4 -0.28397,0.33142 -0.29729,0.36787 -0.22197,0.60747 -0.13634,0.59827 0.077,1.07695 0.25354,0.17689 0.0126,-0.0389 -0.0412,-0.0646 -0.32627,-0.15616 -0.67808,-0.26955 -1.03029,-0.34621 -0.84275,-0.21192 -1.69792,-0.39212 -2.5463,-0.57282 -0.66774,-0.10964 -1.3606,0.005 -2.03425,-0.0228 -0.67995,0.0203 -1.36152,0.0517 -2.0321,0.17485 -0.75374,0.13967 -1.50484,0.26052 -2.2704,0.31184 -0.72888,0.11045 -1.44905,0.27872 -2.1872,0.31767 -0.64264,0.10207 -1.22678,0.32547 -1.78026,0.67505 -0.80667,0.38948 -1.63164,0.73224 -2.45266,1.09061 -0.81269,0.30423 -1.63452,0.56933 -2.47425,0.78886 -1.07089,0.36583 -2.08022,0.82187 -3.00977,1.48388 -0.94008,0.67215 -1.80555,1.44603 -2.52373,2.35568 -0.91248,1.59685 -3.17076,0.3064 -2.25828,-1.29045 z"
       inkscape:connector-curvature="0"
       transform="translate(0,0.10680097)" />
    <path
       style="fill:#de2d26;fill-opacity:1;stroke:none"
       id="path4241"
       d="m 312.98815,560.63578 c 1.44943,-0.18876 2.91104,-0.25019 4.37064,-0.29771 1.37186,-0.0395 2.74438,-0.043 4.11671,-0.0449 1.3769,-0.0156 2.74827,-0.0188 4.11951,0.11357 1.21844,0.0765 2.36053,0.40564 3.42422,0.9945 0.70691,0.45777 1.40407,0.91303 2.1434,1.31801 0.77521,0.47036 1.59679,0.84722 2.38181,1.30169 1.11992,0.67872 2.27673,1.25094 3.49392,1.73144 1.58256,0.58799 3.2468,0.8833 4.8971,1.20921 1.54247,0.32187 3.07437,0.68804 4.60775,1.04939 1.77094,0.38022 3.43534,1.09844 4.99934,1.99739 0.19329,0.11276 0.38814,0.22291 0.57988,0.33828 0.32877,0.19783 0.65993,0.39182 0.98461,0.59626 0.38498,0.24241 0.83522,0.61855 0.66405,0.40621 -0.22203,-0.0158 -0.44407,-0.0317 -0.66611,-0.0475 1.76531,-0.51601 2.49505,1.98051 0.72975,2.49651 l 0,0 c -0.29627,0.006 -0.59254,0.0117 -0.88881,0.0176 -0.9689,-0.39022 -1.78164,-1.07165 -2.70595,-1.55605 -1.33873,-0.78089 -2.77303,-1.39147 -4.29378,-1.71717 -1.50251,-0.3546 -3.00373,-0.7131 -4.51509,-1.02931 -1.80458,-0.357 -3.62262,-0.68844 -5.34961,-1.34225 -1.336,-0.52962 -2.60923,-1.15829 -3.84075,-1.89935 -0.76659,-0.4443 -1.57142,-0.80962 -2.32776,-1.27123 -0.75185,-0.41193 -1.46575,-0.86957 -2.18056,-1.33877 -0.72832,-0.4359 -1.54629,-0.60529 -2.38952,-0.66612 -1.2859,-0.12648 -2.57232,-0.1119 -3.86379,-0.10133 -1.34541,0.002 -2.69102,0.005 -4.036,0.0436 -1.36477,0.0441 -2.7315,0.0996 -4.08712,0.27294 -1.82069,0.26009 -2.18853,-2.31475 -0.36784,-2.57484 z"
       inkscape:connector-curvature="0"
       transform="translate(0,0.10680097)" />
    <path
       style="fill:#de2d26;fill-opacity:1;stroke:none"
       id="path4243"
       d="m 336.93433,567.38822 c -0.92704,-1.18831 -0.97909,-1.63196 0.83005,-2.69448 0.13613,-0.08 1.18006,0.28972 1.3241,0.33681 1.30117,0.36945 2.57051,0.83799 3.86072,1.2411 0.14925,0.0396 0.29637,0.0883 0.44775,0.11874 0.50992,0.1025 0.033,-0.23525 -0.38667,0.19305 -0.60602,0.61848 -0.42868,0.78437 -0.28482,1.44193 0.006,0.0315 0.0501,0.0999 0.0185,0.0945 -0.11345,-0.0192 -0.20578,-0.10406 -0.31353,-0.14447 -0.1385,-0.0519 -0.28082,-0.0936 -0.42368,-0.13199 -0.60534,-0.1626 -1.19391,-0.24374 -1.81806,-0.2787 -0.25446,0.0175 -0.62214,0.002 -0.87481,0.13001 -0.0473,0.024 0.13272,0.0315 0.15854,-0.0149 0.24004,-0.43125 0.51743,-0.86634 0.60259,-1.35249 0.035,-0.19978 -0.36478,-0.36581 -0.27017,-0.54521 0.0782,-0.14821 0.3209,0.0965 0.48135,0.14476 2.48267,0.53841 5.01271,0.8012 7.52927,1.12409 1.29589,0.17242 2.59538,0.31463 3.89592,0.44648 0.48112,0.0488 1.11142,0.17466 1.60786,0.13868 -1.6551,0.76152 -0.69907,-0.0398 -0.92125,2.09463 -0.008,0.0755 -0.14358,-0.0492 -0.21403,-0.0773 -0.18696,-0.0746 -0.36878,-0.16224 -0.55805,-0.23074 -0.48482,-0.17547 -1.11146,-0.33956 -1.59603,-0.47559 -2.40431,-0.74538 -4.91868,-0.94429 -7.41664,-1.09845 -1.88399,-0.13114 -3.7843,-0.0117 -5.6532,-0.32053 -0.21098,-0.0984 -0.6333,-0.0623 -0.63294,-0.29507 0.001,-0.81058 0.2495,-1.63487 0.63696,-2.34685 0.10851,-0.19938 0.45066,-0.0609 0.67752,-0.0686 0.88218,-0.03 1.77478,0.0749 2.64967,0.16634 1.96962,0.2706 3.8905,0.80531 5.77527,1.42544 0.19933,0.0632 0.40089,0.11977 0.59798,0.18964 0.46761,0.16577 0.61105,0.23305 1.02799,0.45854 0.0753,0.0407 0.23229,0.0468 0.22059,0.13164 -0.36687,2.66028 0.17996,2.42454 -1.30391,2.42023 -1.60532,-0.34329 -3.18643,-0.78749 -4.76657,-1.22982 -1.80834,-0.48295 -3.58784,-1.14719 -5.44022,-1.44696 -0.72877,0.0274 0.39271,0.16589 0.77967,-0.84988 0.36671,-0.96263 -0.89106,-1.38202 0.35284,-0.9254 1.57326,0.42694 3.16607,0.78397 4.76189,1.11652 0.21196,0.0388 0.42389,0.0779 0.63588,0.11656 0.21571,0.0394 0.44043,0.14952 0.65157,0.0904 0.0413,-0.0115 -0.11632,-0.0497 -0.12823,-0.009 -0.71317,2.46373 0.25593,2.56311 -0.85369,2.33333 -1.58372,-0.39176 -3.19783,-0.62734 -4.80387,-0.90288 -1.40751,-0.24517 -2.87161,-0.42106 -4.12749,-1.14376 -0.1832,-0.50102 -0.6325,-0.97609 -0.54959,-1.50307 0.208,-1.32205 2.1783,-1.20517 3.09628,-1.23723 0.18896,0.0133 0.37793,0.0266 0.5669,0.0399 1.83218,0.16012 1.60574,2.75123 -0.22645,2.59111 l 0,0 c -0.0838,-0.0105 -0.16769,-0.0211 -0.25154,-0.0316 -0.34686,0.0116 -0.49258,0.0133 -0.83473,0.0367 -0.12282,0.008 -0.43256,0.10394 -0.36932,-0.002 0.16927,-0.28267 0.56188,-0.48879 0.55457,-0.81818 -0.0105,-0.47051 -0.40073,-0.85168 -0.6011,-1.27752 0.0993,0.14596 0.71983,0.29617 0.81542,0.32074 0.77807,0.20002 1.57585,0.33078 2.36747,0.46114 1.66626,0.28672 3.34088,0.53245 4.98381,0.94039 1.35394,0.35733 1.02014,0.0577 0.59778,2.76791 -0.0204,0.13071 -0.26349,0.0306 -0.39577,0.0293 -0.56331,-0.005 -1.10524,-0.1805 -1.6591,-0.25686 -1.7273,-0.36076 -3.45489,-0.73919 -5.15031,-1.2297 -0.87134,-0.33594 -2.17694,-0.72515 -1.97152,-2.07516 0.19216,-1.26288 1.36927,-1.18705 2.19192,-1.14718 1.94012,0.338 3.8156,0.97483 5.70819,1.50694 1.43092,0.4007 2.86669,0.78618 4.30794,1.14484 -0.77235,0.46031 0.0175,-0.0458 -0.28947,2.39215 -0.005,0.0365 -0.0617,-0.0402 -0.0933,-0.0591 -0.23819,-0.14209 -0.27669,-0.1636 -0.59111,-0.27462 -0.20605,-0.0728 -0.41656,-0.13221 -0.62483,-0.19832 -1.71001,-0.56346 -3.45115,-1.05402 -5.23691,-1.30955 -1.0226,-0.11091 -0.63929,-0.0845 -1.6462,-0.13497 -0.18014,-0.009 -0.36031,-0.0175 -0.54056,-0.0236 -0.0777,-0.003 -0.23495,0.075 -0.23306,-0.003 0.0614,-2.52631 1.05418,-1.96717 -0.19835,-2.44488 1.77142,0.31781 3.59106,0.12063 5.37635,0.28838 2.68215,0.16736 5.37948,0.39384 7.96143,1.19108 0.88261,0.24989 1.77396,0.48173 2.60495,0.8801 0.22346,0.10713 0.54745,0.1299 0.65391,0.35367 0.2868,0.60283 0.60691,1.30575 0.44348,1.95301 -0.10177,0.40304 -0.72648,0.40428 -1.08972,0.60642 -1.96201,-0.0164 -3.91288,-0.44659 -5.86402,-0.60615 -2.6763,-0.34352 -5.37138,-0.61426 -8.003,-1.23058 -0.57481,-0.19557 -1.69194,-0.46267 -1.85387,-1.19258 -0.45971,-2.07221 1.43572,-2.2044 2.73856,-2.23785 1.55062,0.11917 3.14835,0.3743 4.37297,1.40914 0.14985,0.33713 0.44479,0.64248 0.44955,1.01138 0.0227,1.75811 -1.86923,1.75425 -3.01708,1.3633 -1.30312,-0.40938 -2.58696,-0.87856 -3.9011,-1.25411 -1.1398,-0.38442 -0.0597,-0.0879 0.62056,-1.61443 0.0768,-0.17246 -0.16481,-0.34145 -0.2195,-0.52216 -0.048,-0.15849 0.40692,0.7363 0.29392,0.40047 1.14892,1.43615 -0.88211,3.06097 -2.03103,1.62482 z"
       inkscape:connector-curvature="0"
       transform="translate(0,0.10680097)" />
    <path
       style="fill:#de2d26;fill-opacity:1;stroke:none"
       id="path4245"
       d="m 293.02322,533.1489 c 0.87973,-0.36504 1.73153,-0.79097 2.52622,-1.31665 0.84418,-0.47329 1.57337,-1.10687 2.33799,-1.69136 0.70954,-0.504 1.36681,-1.06202 1.94562,-1.71092 0.62277,-0.79926 1.37566,-1.45608 2.19367,-2.04549 0.57468,-0.50396 1.13085,-1.0397 1.61818,-1.62939 0.60343,-0.79967 1.25888,-1.54624 2.00098,-2.21883 0.7436,-0.5745 1.35537,-1.28016 2.01242,-1.94413 0.72081,-0.72785 1.56982,-1.3082 2.41393,-1.88119 0.58549,-0.3898 1.18274,-0.76062 1.74679,-1.18232 0.53901,-0.51077 1.0989,-0.99977 1.63971,-1.50938 0.68407,-0.56137 1.38923,-1.09472 2.09196,-1.63244 0.80736,-0.50348 1.56556,-1.07105 2.28804,-1.68882 0.74562,-0.72736 1.59886,-1.29862 2.51037,-1.79176 0.68974,-0.40455 1.40604,-0.77026 2.05367,-1.24195 0.44818,-0.3181 0.9118,-0.64712 1.28265,-1.05712 0.47307,-0.52783 0.99079,-1.00894 1.56458,-1.4251 0.51912,-0.43069 1.09885,-0.78328 1.62308,-1.2065 0.58107,-0.48012 0.99963,-1.11029 1.51079,-1.65869 0.65786,-0.68971 1.49595,-1.15432 2.22401,-1.76 0.77476,-0.69618 1.62058,-1.30824 2.35331,-2.05031 0.91609,-0.85236 1.59003,-1.90176 2.35317,-2.88063 0.53068,-0.86316 1.2477,-1.47129 2.0928,-2.00327 0.58802,-0.3079 1.15651,-0.62612 1.69868,-1.00598 0.58093,-0.35512 1.07338,-0.80259 1.55714,-1.27691 0.58185,-0.60303 1.17762,-1.1991 1.72141,-1.8372 0.45311,-0.52654 0.82925,-1.1035 1.13919,-1.72451 0.48674,-0.96483 1.33054,-1.6426 2.12305,-2.34496 0.7125,-0.65131 1.44333,-1.28152 2.19764,-1.88388 0.66964,-0.50327 1.24677,-1.10456 1.8319,-1.69853 1.2926,-1.30834 3.14287,0.51967 1.85027,1.82801 l 0,0 c -0.65889,0.66457 -1.30912,1.33743 -2.05943,1.90321 -0.71975,0.57441 -1.41612,1.17584 -2.09529,1.79776 -0.5472,0.48493 -1.16555,0.93067 -1.52976,1.57747 -0.41365,0.80321 -0.89898,1.56368 -1.49145,2.24821 -0.59949,0.68484 -1.22982,1.34444 -1.86804,1.99307 -0.58501,0.57189 -1.19251,1.10857 -1.8845,1.54867 -0.57835,0.40491 -1.1763,0.76126 -1.80743,1.07816 -0.66172,0.41482 -0.99037,0.69086 -1.42935,1.40554 -0.83394,1.05592 -1.56438,2.19614 -2.56212,3.11623 -0.80003,0.79084 -1.68788,1.47634 -2.53473,2.21515 -0.6511,0.53491 -1.37711,0.96869 -1.99255,1.54381 -0.60944,0.62551 -1.07303,1.3914 -1.79006,1.91344 -0.56915,0.44125 -1.1706,0.8394 -1.73375,1.28894 -0.45897,0.30257 -0.82642,0.72027 -1.20195,1.11628 -0.50415,0.50117 -1.04808,0.9672 -1.64006,1.36226 -0.74336,0.51765 -1.53034,0.96399 -2.31967,1.40722 -0.75146,0.40616 -1.45077,0.87376 -2.05953,1.48267 -0.76045,0.64741 -1.54944,1.25884 -2.4026,1.78107 -0.63377,0.47674 -1.25547,0.96862 -1.88199,1.45465 -0.61461,0.57878 -1.24487,1.1398 -1.8725,1.70432 -0.59747,0.44141 -1.22267,0.84066 -1.84182,1.24963 -0.70809,0.47494 -1.42035,0.9592 -2.0274,1.56186 -0.69459,0.69012 -1.3319,1.4374 -2.11213,2.03901 -0.65716,0.58966 -1.21763,1.26156 -1.75368,1.96288 -0.63525,0.74541 -1.3284,1.44837 -2.08954,2.06606 -0.6682,0.47924 -1.27538,1.01113 -1.77624,1.67087 -0.69191,0.7674 -1.46249,1.4449 -2.30612,2.04342 -0.81585,0.61765 -1.5904,1.29349 -2.48776,1.79723 -0.98577,0.64128 -2.03336,1.17994 -3.12926,1.60863 -1.74479,0.5816 -2.5673,-1.88591 -0.82251,-2.46751 z"
       inkscape:connector-curvature="0"
       transform="translate(0,0.10680097)" />
    <path
       style="fill:#de2d26;fill-opacity:1;stroke:none"
       id="path4247"
       d="m 324.80403,507.50606 c 1.03534,-0.13531 2.03124,-0.44395 3.01662,-0.77768 1.09616,-0.36783 2.15771,-0.81824 3.21669,-1.27981 1.27331,-0.5246 2.62671,-0.83412 3.98387,-1.04682 1.39725,-0.17051 2.78842,-0.37296 4.19243,-0.48253 1.25408,-0.083 2.51117,-0.0972 3.76753,-0.10476 0.95616,0.0148 1.90375,0.0128 2.85368,-0.0965 1.04641,-0.14857 2.07543,-0.38177 3.12674,-0.50856 0.70609,-0.14138 1.41479,-0.26578 2.12496,-0.38446 1.81403,-0.30305 2.24262,2.26237 0.42859,2.56543 l 0,0 c -0.75004,0.12527 -1.49727,0.26281 -2.24492,0.40164 -1.056,0.12485 -2.08709,0.37426 -3.14055,0.51017 -1.04299,0.1181 -2.08375,0.13279 -3.13297,0.11317 -1.1945,0.007 -2.38969,0.0198 -3.58212,0.097 -1.33848,0.1029 -2.66405,0.30021 -3.99626,0.45982 -1.13735,0.17262 -2.27295,0.43049 -3.34192,0.86075 -1.12617,0.49065 -2.25663,0.9668 -3.42176,1.35904 -1.11791,0.37826 -2.25008,0.71941 -3.42302,0.87962 -1.81414,0.30236 -2.24174,-2.26323 -0.42759,-2.56559 z"
       inkscape:connector-curvature="0"
       transform="translate(0,0.10680097)" />
    <path
       style="fill:#de2d26;fill-opacity:1;stroke:none"
       id="path4249"
       d="m 314.18359,517.23481 c 0.26829,0.9715 0.52372,1.94732 0.76735,2.92571 0.14198,0.83779 0.36624,1.65714 0.52052,2.49251 0.13672,0.80703 0.16076,1.62622 0.17515,2.44274 0.008,0.75051 0.005,1.50109 0.003,2.25162 0.0427,0.68662 -0.0773,1.39217 0.0331,2.07288 0.092,0.71811 0.33237,1.40089 0.48818,2.10613 0.10805,0.67119 0.16811,1.35061 0.47365,1.96663 0.36156,0.772 0.65551,1.57807 0.90517,2.39301 0.21917,0.77059 0.24723,1.57096 0.40298,2.35313 0.14496,0.82013 0.36,1.60793 0.39287,2.44373 -0.0626,0.70744 -0.0174,1.38878 0.0805,2.08775 0.18245,0.72687 0.46945,1.42051 0.73238,2.12108 0.40579,0.84755 0.64036,1.76036 0.98073,2.63343 0.36941,0.87182 0.67033,1.76762 0.97134,2.66511 0.25295,0.93223 0.52822,1.85767 0.79054,2.78707 0.18822,0.82949 0.44436,1.64358 0.78911,2.42139 0.29087,0.54782 0.76201,0.93827 1.1751,1.38846 0.60473,0.64846 1.0964,1.38699 1.64787,2.07879 0.55174,0.5899 1.07886,1.21937 1.68281,1.75845 0.633,0.5866 1.18124,1.25253 1.7607,1.88863 0.33417,0.40837 0.17837,0.23602 0.45649,0.52669 1.25507,1.34437 -0.64616,3.11932 -1.90123,1.77494 l 0,0 c -0.36342,-0.39493 -0.20386,-0.20695 -0.48539,-0.55816 -0.51993,-0.57919 -1.02043,-1.1761 -1.58638,-1.71318 -0.69378,-0.64448 -1.3323,-1.3532 -1.96254,-2.05821 -0.51547,-0.64921 -0.97757,-1.33915 -1.53903,-1.95069 -0.59317,-0.66628 -1.26823,-1.25756 -1.63341,-2.09801 -0.38228,-0.89002 -0.69757,-1.80867 -0.90808,-2.75539 -0.24856,-0.88886 -0.51721,-1.77198 -0.7528,-2.66449 -0.28826,-0.86138 -0.57378,-1.72121 -0.9322,-2.55635 -0.33714,-0.88307 -0.58602,-1.79778 -0.98896,-2.65509 -0.32912,-0.87813 -0.69104,-1.75033 -0.87296,-2.67427 -0.1103,-0.78977 -0.1739,-1.57382 -0.10439,-2.37107 -0.008,-0.68844 -0.25948,-1.33271 -0.34441,-2.01511 -0.13815,-0.70027 -0.18551,-1.40964 -0.34122,-2.10569 -0.20944,-0.7053 -0.47118,-1.39917 -0.78165,-2.06582 -0.34988,-0.79812 -0.55684,-1.62484 -0.64872,-2.4922 -0.16885,-0.78672 -0.4474,-1.54787 -0.5297,-2.35275 -0.0806,-0.79329 -0.0496,-1.58867 -0.0514,-2.38554 0.001,-0.73391 0.005,-1.46786 -0.003,-2.20176 -0.0115,-0.67499 -0.0261,-1.35256 -0.13322,-2.02058 -0.14084,-0.78238 -0.35939,-1.54807 -0.48625,-2.33325 -0.22572,-0.91278 -0.46864,-1.82155 -0.71046,-2.72977 -0.5816,-1.74479 1.88591,-2.56729 2.4675,-0.8225 z"
       inkscape:connector-curvature="0"
       transform="translate(0,0.10680097)" />
    <path
       style="fill:#de2d26;fill-opacity:1;stroke:none"
       id="path4253"
       d="m 205.16264,575.90543 c 1.05301,-0.5031 2.11734,-0.98482 3.16348,-1.50233 0.88437,-0.40178 1.64235,-0.95725 2.39408,-1.55719 0.67347,-0.60728 1.50064,-0.97861 2.30101,-1.38163 0.46548,-0.23196 1.01474,-0.42406 1.32908,-0.86334 0.53577,-0.65909 1.22434,-1.13976 1.93248,-1.59297 0.81578,-0.58054 1.63041,-1.16304 2.4478,-1.74169 1.1191,-0.77647 2.28368,-1.48042 3.46326,-2.15971 1.02271,-0.53342 2.1346,-0.87826 3.24595,-1.17547 0.56159,-0.17558 1.07207,-0.45004 1.57584,-0.74571 0.68509,-0.40293 1.33645,-0.85857 2.02143,-1.26163 1.11507,-0.65458 2.33372,-1.08885 3.53531,-1.55102 0.94057,-0.41304 1.81887,-0.9503 2.732,-1.41899 0.81508,-0.41649 1.54648,-0.96971 2.34053,-1.42023 0.54856,-0.35154 1.12184,-0.67419 1.71572,-0.94318 0.68519,-0.3512 1.47884,-0.22766 2.197,-0.40133 0.59981,-0.0763 1.10941,-0.36728 1.64629,-0.62389 0.86219,-0.46564 1.72662,-0.92457 2.62605,-1.31462 0.92152,-0.44 1.89334,-0.75703 2.84773,-1.11424 0.76048,-0.33646 1.48978,-0.73577 2.23427,-1.10489 0.74369,-0.38456 1.48634,-0.77225 2.23998,-1.13719 0.76997,-0.34178 1.56161,-0.62525 2.35401,-0.90934 0.70342,-0.16931 1.33825,-0.50512 1.99898,-0.78407 0.76148,-0.24474 1.55204,-0.40693 2.33752,-0.56068 0.84263,-0.19495 1.71962,-0.12267 2.56681,-0.25908 0.78208,-0.15643 1.57241,-0.25113 2.36752,-0.30529 0.66661,-0.12418 1.33046,-0.2408 1.98628,-0.41243 0.80891,-0.15883 1.60069,-0.3679 2.38528,-0.61876 0.86853,-0.29003 1.77389,-0.40793 2.68315,-0.46903 0.71488,0.019 1.4057,-0.0667 2.10748,-0.18372 0.79383,-0.13581 1.59828,-0.1788 2.40189,-0.20365 0.89558,-0.0399 1.77478,0.16576 2.62891,0.41137 0.79647,0.17902 1.53178,0.5401 2.29927,0.80521 0.70022,0.31181 1.44377,0.49376 2.17506,0.71422 0.78803,0.15036 1.52404,0.31488 2.22912,0.71633 0.6264,0.406 1.24261,0.82603 1.86516,1.23796 0.77765,0.40298 1.40091,1.0164 1.97331,1.66686 0.38088,0.42249 0.77957,0.82767 1.16119,1.24936 0.51351,0.44372 1.01452,0.90113 1.50912,1.36576 0.54388,0.53545 1.01334,1.14537 1.56413,1.67289 0.4473,0.40679 0.85736,0.84147 1.21526,1.32317 0.86281,1.62423 -1.4342,2.84441 -2.29701,1.22018 l 0,0 c 0.0807,0.0999 0.19751,0.17932 0.24211,0.29978 0.0331,0.0893 -0.13907,-0.13027 -0.20484,-0.19914 -0.25693,-0.26901 -0.50601,-0.54901 -0.78582,-0.796 -0.52168,-0.52587 -1.00637,-1.08697 -1.51498,-1.62546 -0.55164,-0.51857 -1.12384,-1.01405 -1.67322,-1.53459 -0.3764,-0.44182 -0.8058,-0.83865 -1.186,-1.27772 -0.40458,-0.48873 -0.86885,-0.90648 -1.43887,-1.1962 -0.57765,-0.38248 -1.15073,-0.77103 -1.72815,-1.15325 -0.0709,-0.0417 -0.12332,-0.11271 -0.19788,-0.14748 -0.45406,-0.21175 -1.02668,-0.11074 -1.4837,-0.33226 -0.76739,-0.23156 -1.54831,-0.42438 -2.28377,-0.74964 -0.71975,-0.25463 -1.41305,-0.58666 -2.15958,-0.76066 -0.59456,-0.17167 -1.20519,-0.34142 -1.82948,-0.31092 -0.68684,0.0206 -1.37474,0.0536 -2.05334,0.16942 -0.7853,0.13098 -1.567,0.22869 -2.36522,0.21359 -0.69834,0.0443 -1.39435,0.12632 -2.06126,0.35107 -0.82879,0.26493 -1.66503,0.49149 -2.51957,0.65775 -0.81332,0.21234 -1.6389,0.36483 -2.46995,0.49114 -0.73413,0.0483 -1.46178,0.14398 -2.18396,0.28642 -0.809,0.10291 -1.62815,0.0941 -2.43331,0.23699 -0.61325,0.11503 -1.22369,0.25766 -1.82819,0.40736 -0.70391,0.28747 -1.37688,0.65387 -2.12307,0.83209 -0.7067,0.25238 -1.41242,0.50368 -2.10076,0.80332 -0.74749,0.35848 -1.48025,0.74753 -2.21755,1.12624 -0.8253,0.40596 -1.62954,0.85542 -2.47938,1.2107 -0.91473,0.33865 -1.84387,0.64446 -2.72582,1.06535 -0.87055,0.37164 -1.69645,0.83239 -2.53348,1.27259 -0.74228,0.35462 -1.47957,0.72204 -2.30484,0.83654 -0.53887,0.0864 -1.08933,0.0849 -1.6185,0.22527 -0.52699,0.21031 -1.00522,0.5428 -1.49062,0.8316 -0.82813,0.44807 -1.56508,1.05776 -2.42033,1.4629 -0.99575,0.50993 -1.95032,1.10251 -2.98558,1.53235 -1.07135,0.41145 -2.161,0.7903 -3.15739,1.36957 -0.68623,0.39605 -1.3305,0.86097 -2.01616,1.25855 -0.70696,0.4147 -1.43602,0.78299 -2.22594,1.0166 -0.89208,0.23356 -1.78478,0.50962 -2.61417,0.91523 -1.10938,0.63884 -2.20549,1.29917 -3.25855,2.02872 -0.85056,0.60195 -1.69647,1.21044 -2.54872,1.80964 -0.50057,0.32017 -0.99954,0.63555 -1.37253,1.10991 -0.59717,0.65042 -1.30227,1.14357 -2.12323,1.47967 -0.64088,0.32129 -1.31191,0.60047 -1.84746,1.09141 -0.89782,0.71449 -1.81805,1.36707 -2.86425,1.85569 -1.04307,0.51355 -2.10191,0.99601 -3.15123,1.49624 -1.645,0.8225 -2.8082,-1.50389 -1.16319,-2.32639 z"
       inkscape:connector-curvature="0"
       transform="translate(0,0.10680097)" />
    <path
       style="fill:#de2d26;fill-opacity:1;stroke:none"
       id="path4255"
       d="m 294.68118,535.63204 c 0.87512,0.84852 1.63561,1.80474 2.26248,2.84823 0.39982,0.8144 0.77383,1.64185 1.1913,2.44739 0.42569,0.90316 0.76195,1.84011 1.06233,2.7911 0.30914,0.80187 0.53566,1.63208 0.87204,2.42343 0.27228,0.74528 0.65986,1.43294 1.04612,2.12217 0.47199,0.73959 0.84753,1.52722 1.20993,2.32364 0.24477,0.73631 0.68331,1.35214 1.17018,1.94436 0.58429,0.66895 1.16774,1.33328 1.8021,1.95542 0.57486,0.47747 1.13371,0.95488 1.78422,1.32728 0.92122,0.4572 1.64833,1.12547 2.31894,1.88939 0.48481,0.54195 0.74517,1.22876 1.11519,1.84046 0.22788,0.51301 0.0887,0.16084 0.31059,0.67723 0.6171,1.73255 -1.83311,2.60525 -2.4502,0.8727 l 0,0 c 0.18587,0.31658 -0.1053,-0.13257 -0.12827,-0.27643 -0.25688,-0.47207 -0.48032,-0.96483 -0.80213,-1.39821 -0.48775,-0.5558 -0.9891,-1.0446 -1.67855,-1.36072 -0.82625,-0.49097 -1.56943,-1.08355 -2.2919,-1.71563 -0.70177,-0.68955 -1.3502,-1.42434 -1.99504,-2.1669 -0.62202,-0.76643 -1.19206,-1.5733 -1.52325,-2.51324 -0.33143,-0.73074 -0.67549,-1.45219 -1.11148,-2.12904 -0.43388,-0.77637 -0.86504,-1.55374 -1.17654,-2.39014 -0.35786,-0.86763 -0.6279,-1.76506 -0.95298,-2.64502 -0.254,-0.81065 -0.53805,-1.60854 -0.89359,-2.38087 -0.39206,-0.76491 -0.76073,-1.54234 -1.12225,-2.32194 -0.48918,-0.86688 -1.15739,-1.62352 -1.85841,-2.32549 -1.30049,-1.30049 0.53868,-3.13966 1.83917,-1.83917 z"
       inkscape:connector-curvature="0"
       transform="translate(0,0.10680097)" />
    <path
       style="fill:#de2d26;fill-opacity:1;stroke:none"
       id="path4257"
       d="m 287.30755,509.84287 c 0.46889,-0.79659 1.00649,-1.55291 1.33788,-2.42028 0.35383,-0.86498 0.80304,-1.67783 1.32056,-2.45439 0.6519,-0.84312 1.46237,-1.54392 2.23537,-2.27196 0.76763,-0.71043 1.48572,-1.4726 2.27125,-2.16318 0.58785,-0.58012 1.2567,-1.06752 1.92825,-1.54435 0.47347,-0.42338 1.01019,-0.76973 1.49627,-1.17677 0.6014,-0.44712 1.19339,-0.9052 1.79573,-1.35045 0.65741,-0.52171 1.36543,-0.97095 2.06558,-1.43199 0.56188,-0.38195 1.16095,-0.70602 1.65536,-1.17651 0.60124,-0.61003 1.19097,-1.2313 1.78856,-1.84493 0.75439,-0.69334 1.57079,-1.31484 2.20638,-2.12509 0.60957,-0.78279 1.36847,-1.41557 2.19735,-1.9508 0.85835,-0.44311 1.59895,-1.05957 2.37066,-1.63046 0.75149,-0.59761 1.55046,-1.12341 2.36761,-1.62519 0.66028,-0.60463 1.36288,-1.13947 2.11688,-1.62405 0.86962,-0.5769 1.72689,-1.17516 2.56835,-1.79283 0.78663,-0.61471 1.72963,-0.91291 2.66603,-1.20957 0.77442,-0.16593 1.48787,-0.49892 2.21028,-0.80991 0.6915,-0.26562 1.36837,-0.56865 2.03183,-0.89714 0.49358,-0.22792 1.01118,-0.46015 1.45338,-0.78092 0.5512,-0.34466 1.09174,-0.70106 1.62618,-1.07117 0.61838,-0.46211 1.27478,-0.86957 1.92142,-1.2901 0.65759,-0.45156 1.30652,-0.91655 1.97358,-1.35428 0.74053,-0.52658 1.55328,-0.92027 2.37603,-1.29628 0.78679,-0.33833 1.56184,-0.71406 2.31021,-1.13194 0.92817,-0.49436 1.87734,-0.95477 2.85981,-1.33088 0.82863,-0.35212 1.73392,-0.32379 2.60046,-0.47945 0.77988,-0.1265 1.52881,-0.3678 2.30566,-0.5129 0.83135,-0.0881 1.65094,-0.20211 2.47326,-0.3509 0.80838,-0.14741 1.6292,-0.19136 2.44888,-0.21601 0.42985,-0.031 0.84909,-0.002 1.27629,0.0428 1.82366,0.2384 1.48652,2.81744 -0.33714,2.57904 l 0,0 c -0.28489,-0.0624 -0.57248,-0.0161 -0.8621,-0.022 -0.69029,0.0201 -1.38201,0.0525 -2.06305,0.17564 -0.81912,0.14805 -1.63679,0.27019 -2.46543,0.34947 -0.79649,0.14368 -1.56227,0.40911 -2.36507,0.52312 -0.69876,0.10462 -1.41679,0.10775 -2.09097,0.34373 -0.86887,0.3238 -1.69951,0.74538 -2.52067,1.17379 -0.80968,0.44541 -1.64212,0.85657 -2.49004,1.22261 -0.70508,0.32152 -1.40408,0.65158 -2.03541,1.10884 -0.67209,0.43461 -1.31699,0.91036 -1.97998,1.35845 -0.62648,0.40402 -1.25901,0.80069 -1.85675,1.2468 -0.54606,0.37689 -1.0981,0.74225 -1.66027,1.09434 -0.55502,0.35852 -1.13761,0.68759 -1.74456,0.9493 -0.70505,0.3488 -1.42503,0.67039 -2.15815,0.9555 -0.80207,0.34441 -1.59807,0.70942 -2.45494,0.90086 -0.66758,0.20968 -1.3489,0.38969 -1.9114,0.82715 -0.88662,0.64871 -1.78753,1.28006 -2.70386,1.8857 -0.77331,0.49215 -1.44476,1.07751 -2.15775,1.64967 -0.75467,0.46338 -1.49276,0.94731 -2.18496,1.5021 -0.8289,0.60884 -1.62339,1.26937 -2.54166,1.74636 -0.6013,0.34266 -1.10523,0.84158 -1.54357,1.37207 -0.70312,0.86002 -1.5223,1.59348 -2.36946,2.30921 -0.6283,0.64513 -1.24635,1.30031 -1.88305,1.93715 -0.61071,0.55818 -1.30035,0.99968 -1.99623,1.44354 -0.66344,0.43452 -1.3325,0.85918 -1.95333,1.35397 -0.5695,0.41515 -1.12057,0.85379 -1.69046,1.26885 -0.54238,0.43662 -1.1121,0.83879 -1.64422,1.28907 -0.60277,0.41932 -1.19285,0.86173 -1.71681,1.37847 -0.76687,0.66049 -1.44612,1.41707 -2.19697,2.09588 -0.63227,0.59548 -1.2884,1.17166 -1.85897,1.82799 -0.41922,0.61882 -0.77454,1.27079 -1.0616,1.96167 -0.37593,0.93022 -0.88169,1.78783 -1.43012,2.62674 -0.82251,1.645 -3.14889,0.48181 -2.32639,-1.1632 z"
       inkscape:connector-curvature="0"
       transform="translate(0,0.10680097)" />
    <path
       style="fill:#de2d26;fill-opacity:1;stroke:none"
       id="path4259"
       d="m 290.69046,511.91476 c -0.0563,0.81516 0.0631,1.61054 0.1891,2.41203 0.26978,0.85017 0.35387,1.7417 0.55024,2.60703 0.15147,0.77606 0.34738,1.53884 0.5324,2.30705 0.28429,0.79242 0.43155,1.62172 0.63838,2.43576 0.17783,0.77228 0.42038,1.52843 0.67065,2.27997 0.26529,0.79791 0.52846,1.58727 0.68192,2.41604 0.12539,0.71317 0.23481,1.44059 0.42198,2.14106 0.23776,0.76222 0.5072,1.50618 0.66837,2.29139 0.13652,0.54074 0.36569,1.03982 0.56213,1.55862 0.10644,0.52596 0.41309,0.94822 0.64797,1.41851 0.60684,1.12599 0.16044,0.62284 -2.22989,1.24992 -0.009,0.002 -0.0383,-0.13792 -0.10967,-0.46607 -0.10711,-0.64974 -0.42251,-1.23781 -0.61617,-1.86774 -0.3275,-0.80771 -0.50839,-1.65256 -0.6084,-2.51496 -0.0827,-0.79128 -0.17595,-1.5978 -0.36522,-2.3722 -0.16864,-0.8063 -0.41023,-1.5899 -0.67586,-2.36832 -0.42584,-1.07487 -0.70893,-2.19882 -0.94468,-3.32852 -0.23535,-0.89965 -0.41235,-1.81523 -0.75029,-2.68397 -0.33954,-0.88149 -0.48231,-1.81613 -0.70698,-2.72911 -0.19257,-0.76904 -0.24682,-1.55829 -0.41152,-2.33197 -0.18235,-0.80075 -0.25118,-1.6187 -0.29007,-2.43696 -0.0181,-0.55215 -0.0266,-1.10476 -0.0248,-1.65721 0.007,-1.83916 2.60832,-1.82875 2.60096,0.0104 l 0,0 c 9.9e-4,0.50853 0.004,1.01718 0.022,1.52545 0.031,0.67776 0.0835,1.35566 0.23631,2.01871 0.15796,0.7473 0.22457,1.50515 0.39278,2.25012 0.19975,0.81195 0.32596,1.64266 0.61407,2.43029 0.37189,1.00155 0.61371,2.03873 0.86433,3.07605 0.21108,1.02518 0.47032,2.0431 0.85952,3.01673 0.29457,0.86326 0.55936,1.73383 0.74943,2.62697 0.19333,0.87691 0.33158,1.77286 0.41511,2.66637 0.0736,0.70795 0.24671,1.38891 0.51334,2.05052 0.20567,0.70094 0.5779,1.34906 0.67076,2.08078 0.0224,0.11119 0.17778,0.27855 0.0774,0.33134 -2.62251,1.37907 -2.01228,1.71009 -2.62299,0.5578 -0.24747,-0.5482 -0.63196,-1.03848 -0.74495,-1.64544 -0.23477,-0.64882 -0.52737,-1.27583 -0.67491,-1.95524 -0.14381,-0.74521 -0.44242,-1.43658 -0.64027,-2.167 -0.18546,-0.76307 -0.33097,-1.54018 -0.45937,-2.31422 -0.12308,-0.70835 -0.37314,-1.3732 -0.5901,-2.05644 -0.27007,-0.81117 -0.52861,-1.6285 -0.72376,-2.46119 -0.20981,-0.82581 -0.3622,-1.66449 -0.64676,-2.46969 -0.18749,-0.78581 -0.38762,-1.56668 -0.54442,-2.35957 -0.19483,-0.91855 -0.31619,-1.85245 -0.57839,-2.75725 -0.16888,-1.07502 -0.30474,-2.15345 -0.18525,-3.24345 0.30236,-1.81415 2.86795,-1.38655 2.56559,0.4276 z"
       inkscape:connector-curvature="0"
       transform="translate(0,0.10680097)" />
    <path
       style="fill:#de2d26;fill-opacity:1;stroke:none"
       id="path4261"
       d="m 290.00551,511.49093 c 0.38292,0.92803 0.83292,1.82606 1.15198,2.77926 0.20725,0.73071 0.45901,1.43779 0.59149,2.18845 0.0399,0.64707 0.12581,1.269 0.26141,1.90059 0.11244,0.81608 0.30512,1.61665 0.42781,2.43138 0.11803,0.92267 0.32458,1.82746 0.43077,2.75292 0.0313,0.82653 0.12664,1.63495 0.26466,2.44887 0.19304,0.72264 0.49027,1.40629 0.69128,2.12723 0.22772,0.73796 0.47783,1.46897 0.69285,2.2108 0.31459,0.77862 0.49835,1.59181 0.60838,2.42157 0.0636,0.49432 0.10646,1.0507 0.34849,1.49811 -0.0201,-0.045 -0.0402,-0.0901 -0.0602,-0.13512 1.13089,1.4504 -0.92028,3.04971 -2.05117,1.59932 l 0,0 c -0.0851,-0.12838 -0.17012,-0.25676 -0.25518,-0.38514 -0.3069,-0.70984 -0.49631,-1.47302 -0.56151,-2.24443 -0.087,-0.70224 -0.26685,-1.37737 -0.52863,-2.03612 -0.21388,-0.75323 -0.47565,-1.49225 -0.7016,-2.24198 -0.21453,-0.80485 -0.59077,-1.55683 -0.74705,-2.37941 -0.14585,-0.86016 -0.25248,-1.71808 -0.28472,-2.59081 -0.10003,-0.8961 -0.31153,-1.77053 -0.41928,-2.66498 -0.10994,-0.75984 -0.29965,-1.50502 -0.39795,-2.26652 -0.14274,-0.6656 -0.2515,-1.32808 -0.2823,-2.00909 -0.10047,-0.62462 -0.34233,-1.20225 -0.49832,-1.81313 -0.26777,-0.83654 -0.69052,-1.61075 -1.00756,-2.42858 -0.82251,-1.645 1.50388,-2.8082 2.32639,-1.16319 z"
       inkscape:connector-curvature="0"
       transform="translate(0,0.10680097)" />
    <path
       style="fill:#de2d26;fill-opacity:1;stroke:none"
       id="path4263"
       d="m 273.86863,547.43369 c 1.02768,-1.2673 2.23173,-2.36407 3.46703,-3.42268 1.08113,-0.91668 2.25397,-1.70551 3.46212,-2.4415 0.95555,-0.55135 1.8926,-1.13132 2.77633,-1.79226 0.9061,-0.68264 1.82717,-1.3444 2.73672,-2.02229 0.71448,-0.45596 1.37414,-0.9872 2.02578,-1.52772 0.55749,-0.59133 1.17445,-1.11943 1.81909,-1.61242 0.7124,-0.49206 1.52802,-0.82569 2.33998,-1.11892 0.60044,-0.14097 1.18994,-0.30588 1.7795,-0.48868 -0.89381,0.16793 -0.46761,2.34602 0.40749,2.50115 -1.81482,0.2983 -2.23668,-2.26825 -0.42186,-2.56654 l 0,0 c 0.15254,-0.0155 0.39626,-0.18707 0.45762,-0.0466 1.04864,2.4014 1.33727,2.16962 0.3203,2.59833 -0.55411,0.16898 -1.10817,0.34053 -1.67617,0.45457 -0.56128,0.19114 -1.12077,0.42883 -1.62799,0.7336 -0.61883,0.47208 -1.1943,0.99179 -1.73903,1.54873 -0.68642,0.56762 -1.38051,1.12977 -2.13135,1.61065 -0.9099,0.67691 -1.83004,1.33917 -2.73587,2.02166 -0.95071,0.70636 -1.95014,1.33857 -2.97741,1.928 -1.08885,0.66327 -2.14862,1.3692 -3.12326,2.19562 -1.13456,0.97124 -2.24368,1.97356 -3.18421,3.13996 -1.19692,1.3964 -3.17173,-0.29629 -1.97481,-1.6927 z"
       inkscape:connector-curvature="0"
       transform="translate(0,0.10680097)" />
    <path
       style="fill:#de2d26;fill-opacity:1;stroke:none"
       id="path4265"
       d="m 226.25526,564.26226 c 0.37407,-1.00987 0.8129,-1.99281 1.41332,-2.88831 0.47883,-0.71062 1.0493,-1.34976 1.56684,-2.03126 0.34619,-0.59914 0.69328,-1.19463 1.07137,-1.77538 0.4774,-0.71664 1.26034,-1.05728 1.96297,-1.49746 0.6058,-0.31601 1.12873,-0.77063 1.57094,-1.28821 0.45907,-0.52851 0.81291,-1.12922 1.184,-1.7182 0.46905,-0.70058 0.97019,-1.35683 1.57909,-1.94211 0.61743,-0.50105 0.9994,-1.20271 1.5078,-1.80302 0.58948,-0.63907 1.27532,-1.1714 1.89704,-1.77778 0.5005,-0.53943 1.09406,-1.03028 1.48081,-1.6636 0.41313,-0.69752 1.0111,-1.2524 1.5236,-1.87407 0.59063,-0.70881 1.14684,-1.43498 1.8346,-2.05357 0.54797,-0.54694 1.11768,-1.07031 1.67407,-1.60789 0.54522,-0.54291 1.06847,-1.10737 1.55063,-1.70697 0.42008,-0.40772 0.71705,-0.91028 1.03983,-1.39376 0.36852,-0.67351 0.73697,-1.34048 1.17644,-1.97123 0.50769,-0.69761 1.19263,-1.14369 2.00748,-1.38317 1.78961,-0.42411 2.38939,2.10678 0.59978,2.53088 l 0,0 c 0.16178,-0.10374 -0.47096,0.17249 -0.47915,0.3477 -0.43376,0.60999 -0.75955,1.2788 -1.14194,1.92089 -0.36744,0.54936 -0.71605,1.12101 -1.18547,1.59092 -0.55598,0.67705 -1.14102,1.32953 -1.7678,1.94246 -0.58839,0.56064 -1.17727,1.11967 -1.76017,1.68678 -0.60294,0.5002 -1.01482,1.17896 -1.54213,1.75237 -0.45536,0.55139 -0.98714,1.04305 -1.36119,1.65475 -0.52559,0.76707 -1.17174,1.44026 -1.83452,2.09067 -0.56982,0.55443 -1.18657,1.05152 -1.74488,1.61636 -0.57961,0.6444 -0.97021,1.45501 -1.68062,1.98434 -0.463,0.43558 -0.82372,0.93603 -1.18208,1.46035 -0.45523,0.69411 -0.86782,1.42 -1.42792,2.04118 -0.62431,0.69103 -1.31639,1.33474 -2.14605,1.77349 -0.38247,0.23599 -0.81654,0.43478 -1.15751,0.71018 -0.4131,0.63086 -0.76984,1.29189 -1.17777,1.92633 -0.49458,0.65103 -1.03755,1.26284 -1.49937,1.93822 -0.4931,0.66837 -0.76478,1.47194 -1.08454,2.23063 -0.58159,1.74479 -3.0491,0.92229 -2.4675,-0.82251 z"
       inkscape:connector-curvature="0"
       transform="translate(0,0.10680097)" />
    <path
       style="fill:#de2d26;fill-opacity:1;stroke:none"
       id="path4267"
       d="m 251.97654,535.00215 c 0.98284,-0.16087 1.97543,-0.24513 2.96905,-0.30099 0.89477,-0.0794 1.76443,0.12171 2.60996,0.38985 0.81904,0.25811 1.5275,0.74644 2.29757,1.10768 0.70621,0.37825 1.45375,0.66652 2.17814,1.00402 0.61187,0.23659 1.17827,0.565 1.76039,0.86366 0.67002,0.35806 1.33908,0.71245 1.99505,1.09575 0.52243,0.27838 1.04475,0.55447 1.56694,0.83423 0.48774,0.24351 0.97531,0.48319 1.48002,0.69288 0.66946,0.16417 1.29252,0.42412 1.89519,0.75592 0.59039,0.41863 1.12681,0.91543 1.63604,1.42913 0.4554,0.40327 0.86086,0.85599 1.26084,1.31365 0.52713,0.59472 1.037,1.198 1.59933,1.76033 0.27145,0.21413 0.51807,0.45456 0.78824,0.67028 1.42812,1.1589 -0.21081,3.17855 -1.63892,2.01966 l 0,0 c -0.33732,-0.27662 -0.65833,-0.56814 -0.98971,-0.85198 -0.60234,-0.60382 -1.15284,-1.24842 -1.7174,-1.8867 -0.37091,-0.42441 -0.74351,-0.84394 -1.16952,-1.21447 -0.3189,-0.34464 -0.69696,-0.62507 -1.02347,-0.96149 -0.52347,-0.2883 -1.06893,-0.47421 -1.64802,-0.63636 -0.58001,-0.24561 -1.14103,-0.52458 -1.70537,-0.80056 -0.54825,-0.29616 -1.09689,-0.58828 -1.64773,-0.87959 -0.61707,-0.3615 -1.24719,-0.69427 -1.8783,-1.03139 -0.55527,-0.28984 -1.09541,-0.60169 -1.68264,-0.82501 -0.71595,-0.35511 -1.48144,-0.61424 -2.1819,-1.00581 -0.6587,-0.31943 -1.27196,-0.72253 -1.9625,-0.975 -0.54488,-0.17356 -1.09774,-0.33596 -1.67726,-0.27174 -0.89899,0.0498 -1.79708,0.12501 -2.68642,0.26964 -1.81415,0.30236 -2.24175,-2.26323 -0.4276,-2.56559 z"
       inkscape:connector-curvature="0"
       transform="translate(0,0.10680097)" />
    <path
       style="fill:#de2d26;fill-opacity:1;stroke:none"
       id="path4269"
       d="m 174.01211,547.97589 c 1.45394,-0.36717 2.91139,-0.72061 4.33015,-1.20957 1.20213,-0.37397 2.33544,-0.92475 3.49818,-1.40014 0.80944,-0.25529 1.46155,-0.72267 2.13555,-1.21164 0.67494,-0.52781 1.38959,-1.00041 2.06166,-1.53198 0.58032,-0.49124 1.24857,-0.86506 1.83616,-1.34414 0.69767,-0.5471 1.4852,-0.96608 2.1997,-1.48888 0.58802,-0.49183 1.15808,-1.00315 1.75164,-1.48852 0.70009,-0.51181 1.50296,-0.8632 2.2913,-1.21606 0.65564,-0.30999 1.28935,-0.65699 1.93706,-0.98368 0.67355,-0.36019 1.40864,-0.58641 2.0839,-0.93968 0.86538,-0.45617 1.74699,-0.87497 2.67459,-1.18812 0.81251,-0.33412 1.70315,-0.4581 2.49858,-0.83297 0.72242,-0.38889 1.47921,-0.69095 2.25194,-0.96585 0.79692,-0.31819 1.60043,-0.62617 2.41893,-0.88487 0.69534,-0.18233 1.38808,-0.37118 2.05823,-0.6304 0.59016,-0.19314 1.11386,-0.53256 1.68405,-0.77716 0.77324,-0.36312 1.61383,-0.54131 2.40846,-0.85002 0.8215,-0.29438 1.63264,-0.61294 2.47929,-0.82865 0.60649,-0.24003 1.2392,-0.39648 1.86145,-0.58832 0.61738,-0.16538 1.20644,-0.42487 1.80209,-0.65678 0.75212,-0.24374 1.51719,-0.44502 2.2753,-0.67 0.85084,-0.30694 1.75887,-0.34732 2.63523,-0.52767 0.79921,-0.1935 1.61331,-0.2954 2.43221,-0.35288 0.84572,-0.0461 1.69313,-0.0424 2.53981,-0.0432 0.96693,-0.0496 1.91807,0.0409 2.87219,0.18566 0.82189,0.14129 1.64833,0.31453 2.4496,0.54881 0.70855,0.19176 1.37329,0.50373 2.05957,0.75629 0.78055,0.329 1.52049,0.74164 2.28061,1.11282 0.8936,0.40272 1.74317,0.87321 2.55623,1.41852 0.64883,0.50263 1.32452,0.96051 2.02025,1.39468 0.79131,0.39545 1.60847,0.72959 2.42439,1.06909 0.86501,0.28694 1.62533,0.80132 2.48337,1.10189 0.79315,0.1707 1.48313,0.5943 2.15178,1.0326 0.66154,0.48883 1.31274,0.99188 1.96445,1.49456 0.7339,0.41614 1.30012,1.02003 1.8711,1.62662 1.26058,1.3392 -0.63335,3.12194 -1.89393,1.78273 l 0,0 c -0.48103,-0.51104 -0.93499,-1.01113 -1.56676,-1.35064 -0.59833,-0.46252 -1.19952,-0.92114 -1.80128,-1.37832 -0.5053,-0.33155 -1.00039,-0.65263 -1.61043,-0.76178 -0.89302,-0.32978 -1.70563,-0.81813 -2.59873,-1.14678 -0.9455,-0.39461 -1.89642,-0.7785 -2.80101,-1.26343 -0.71966,-0.44914 -1.42256,-0.91914 -2.09199,-1.4411 -0.71587,-0.48013 -1.46463,-0.89113 -2.25345,-1.24374 -0.68359,-0.3369 -1.35315,-0.70148 -2.0492,-1.01284 -0.63573,-0.24214 -1.25548,-0.52456 -1.91316,-0.70622 -0.66202,-0.23114 -1.38722,-0.32075 -2.07189,-0.46226 -0.82512,-0.12537 -1.64162,-0.20778 -2.47912,-0.15618 -0.7879,7.8e-4 -1.57645,-0.003 -2.36357,0.0371 -0.71394,0.0481 -1.42207,0.14101 -2.11818,0.31192 -0.79901,0.148 -1.61641,0.20613 -2.39202,0.46847 -0.68928,0.2024 -1.38225,0.39227 -2.06963,0.59985 -0.65342,0.2531 -1.30171,0.53206 -1.9778,0.71789 -0.66754,0.20565 -1.3422,0.38138 -1.99736,0.6262 -0.74796,0.18113 -1.45587,0.48639 -2.18255,0.73538 -0.77233,0.29071 -1.57862,0.48232 -2.33165,0.81932 -0.59686,0.23784 -1.12627,0.62768 -1.75023,0.80378 -0.72364,0.27937 -1.46854,0.49374 -2.21962,0.68674 -0.78933,0.2431 -1.55776,0.55353 -2.32648,0.85405 -0.71596,0.25237 -1.40769,0.53311 -2.0756,0.89606 -0.88804,0.37563 -1.82384,0.59896 -2.73119,0.92198 -0.80735,0.25417 -1.55535,0.65371 -2.30768,1.03555 -0.68654,0.3431 -1.40977,0.5978 -2.09484,0.94521 -0.68432,0.34308 -1.35313,0.71214 -2.04722,1.03586 -0.57958,0.25642 -1.16687,0.51615 -1.70322,0.85379 -0.63561,0.51942 -1.24054,1.07324 -1.88054,1.58734 -0.68649,0.48704 -1.41653,0.91039 -2.09433,1.40907 -0.60062,0.47329 -1.25799,0.86535 -1.84835,1.35381 -0.70154,0.55171 -1.44179,1.04877 -2.14654,1.59613 -0.84098,0.60777 -1.68522,1.17472 -2.6785,1.51328 -1.20917,0.49224 -2.38672,1.06592 -3.63707,1.45224 -1.51178,0.51619 -3.0602,0.90301 -4.60965,1.28828 -1.79538,0.39897 -2.35961,-2.14007 -0.56423,-2.53904 z"
       inkscape:connector-curvature="0"
       transform="translate(0,0.10680097)" />
    <path
       style="fill:#de2d26;fill-opacity:1;stroke:none"
       id="path4271"
       d="m 184.7746,543.57499 c -1.06884,-0.008 -2.13276,0.13653 -3.17807,0.34919 -0.90543,0.20098 -1.76078,0.54855 -2.6135,0.90333 -0.83205,0.35361 -1.62173,0.77278 -2.39396,1.24062 -0.90198,0.53806 -1.75919,1.13647 -2.61085,1.74928 -1.09977,0.7332 -2.21114,1.44669 -3.35976,2.10073 -0.88924,0.5121 -1.76679,1.04174 -2.63684,1.58584 -0.62895,0.38581 -1.09358,0.95971 -1.53117,1.54135 -0.57513,0.67803 -1.11183,1.38282 -1.74684,2.00696 -0.55728,0.5726 -1.29233,0.93734 -1.87162,1.48026 -0.64139,0.55652 -1.2752,1.09701 -2.0098,1.5272 -0.54933,0.36987 -1.31091,0.41535 -1.81421,0.8582 -1.18011,0.83783 -1.65471,0.87357 -2.50866,-1.28322 -0.0849,-0.21439 0.59786,-0.73331 0.78513,-0.88708 0.98007,-0.85541 2.04139,-1.60738 3.06974,-2.40225 1.24918,-0.91562 2.38583,-1.98004 3.50421,-3.04904 1.26087,-1.08604 2.58524,-2.09255 3.9463,-3.04878 1.52077,-1.11324 3.05333,-2.20749 4.60694,-3.27465 1.19048,-0.98542 2.46048,-1.85931 3.76268,-2.68842 1.04621,-0.68102 2.20256,-1.06899 3.42932,-1.24272 0.98256,-0.0424 1.95302,-0.19578 2.93024,-0.29829 1.06391,-0.0921 2.11512,-0.28658 3.17753,-0.39989 0.77873,-0.15542 1.60649,0.0109 2.37978,-0.14521 0.45175,-0.14829 0.85383,-0.1355 1.32486,-0.0691 1.74754,0.57327 0.93682,3.04467 -0.81072,2.4714 l 0,0 c 0.15031,0.015 0.2999,0.0423 0.45094,0.0449 0.0389,6.7e-4 0.14925,-0.0445 0.11145,-0.0351 -0.64596,0.16015 0.0216,0.0201 -0.70677,0.16246 -0.82167,0.10121 -1.65132,0.0657 -2.47507,0.15711 -1.06375,0.11223 -2.11587,0.3108 -3.18151,0.40031 -0.95207,0.0992 -1.89817,0.2524 -2.85571,0.28941 -0.8559,0.10393 -1.65047,0.38744 -2.37828,0.85929 -1.27752,0.81191 -2.51528,1.67623 -3.6861,2.63778 -1.54626,1.06211 -3.07122,2.15159 -4.58496,3.25938 -1.25571,0.88112 -2.4755,1.80968 -3.64576,2.80227 -1.18589,1.1289 -2.38712,2.25576 -3.70908,3.22505 -1.01274,0.78225 -2.05805,1.52182 -3.02239,2.36478 -0.5012,0.39729 0.13198,-0.0639 0.0187,-0.23671 -0.40586,-0.61887 -0.94319,-1.15517 -1.52163,-1.61683 -0.0908,-0.0725 -0.20498,0.11082 -0.31357,0.15212 -0.15048,0.0572 0.86419,-0.46108 0.39934,-0.27167 0.62817,-0.41916 1.30887,-0.70954 2.00997,-0.98407 0.58845,-0.33875 1.07462,-0.79188 1.59545,-1.22825 0.57567,-0.49453 1.21862,-0.90164 1.78813,-1.40322 0.55139,-0.51365 0.96998,-1.14514 1.47582,-1.7011 0.63135,-0.83454 1.32757,-1.62699 2.2292,-2.1805 0.90052,-0.56211 1.80833,-1.11034 2.72812,-1.6403 1.06894,-0.60848 2.10212,-1.27287 3.12782,-1.95188 0.90755,-0.65257 1.82311,-1.28738 2.7825,-1.86272 0.88378,-0.53484 1.7914,-1.01109 2.74209,-1.41717 1.0083,-0.41939 2.02492,-0.81879 3.09626,-1.05109 1.21541,-0.24517 2.45208,-0.4085 3.69433,-0.40095 1.83917,0 1.83917,2.60099 0,2.60099 z"
       inkscape:connector-curvature="0"
       transform="translate(0,0.10680097)" />
    <path
       style="fill:#de2d26;fill-opacity:1;stroke:none"
       id="path4273"
       d="m 11.860047,576.15247 c 0.394244,-1.12797 0.90461,-2.18799 1.61068,-3.1525 0.713402,-0.90802 1.742907,-1.26582 2.80376,-1.58363 0.659364,-0.20731 1.28065,-0.49157 1.887976,-0.81614 0.720882,-0.36674 1.469284,-0.66765 2.234231,-0.92819 0.769242,-0.32067 1.581303,-0.50274 2.365524,-0.7773 0.521868,-0.15713 1.014893,-0.39487 1.499632,-0.64119 0.621653,-0.31994 1.320905,-0.37039 1.98176,-0.56135 0.743352,-0.173 1.493739,-0.31882 2.243864,-0.46265 0.843104,-0.27579 1.742897,-0.32215 2.594364,-0.54852 0.690209,-0.19769 1.396627,-0.31878 2.096012,-0.47689 0.931084,-0.19483 1.879066,-0.25392 2.817161,-0.40432 0.89444,-0.0996 1.774162,-0.25129 2.656185,-0.42537 0.973188,-0.25776 1.96166,-0.44766 2.933447,-0.71142 1.338094,-0.32705 2.703268,-0.54558 4.064532,-0.75532 1.246895,-0.23447 2.487637,-0.50605 3.722024,-0.79955 1.058437,-0.27895 2.136102,-0.45485 3.226376,-0.53796 0.83236,0.004 1.644839,-0.0745 2.464798,-0.20356 0.76334,-0.12386 1.505664,-0.33756 2.271718,-0.45635 0.853055,-0.12571 1.69549,-0.30039 2.554883,-0.39227 0.924477,-0.0848 1.853151,-0.10047 2.780855,-0.10887 0.792047,0.002 1.57472,-0.17824 2.345747,-0.34589 0.925186,-0.21429 1.868368,-0.31619 2.814776,-0.36947 0.777779,-0.034 1.556516,-0.0313 2.334851,-0.0308 0.75132,0.0465 1.486694,-0.11519 2.22863,-0.20989 0.864651,-0.10754 1.735749,-0.13724 2.606049,-0.15236 0.940672,-0.0104 1.88143,-0.008 2.822142,-0.007 0.790862,9.3e-4 1.581725,0.001 2.372587,0.002 0.743048,2.2e-4 1.486096,2.2e-4 2.229144,2.2e-4 0.819914,-0.021 1.628674,-0.008 2.439098,0.12317 0.68618,0.13458 1.382119,0.19306 2.079456,0.22583 0.859453,0.0334 1.718327,-0.004 2.574921,0.077 0.786955,0.1362 1.576453,0.23267 2.373562,0.27801 0.927293,0.079 1.819364,0.32743 2.717115,0.55373 0.766709,0.18602 1.558753,0.19932 2.34316,0.219 1.118296,0.0186 2.236822,0.0145 3.355233,0.0131 0.97544,-0.002 1.95088,-0.003 2.92633,-0.003 1.17162,-0.0501 2.3316,0.0396 3.49366,0.17684 0.96143,0.0929 1.90124,0.33249 2.82259,0.61391 0.63334,0.16591 1.2101,0.47295 1.85481,0.59757 0.60195,0.23208 1.21142,0.35119 1.8502,0.4119 0.8981,0.0418 1.78882,0.0514 2.68005,0.1806 0.81974,0.0891 1.62258,0.2515 2.42819,0.42193 0.79523,0.29383 1.6332,0.39381 2.45711,0.56569 0.87059,0.20299 1.75856,0.28892 2.63347,0.47123 0.73366,0.0854 1.42353,0.3522 2.13984,0.5125 0.67905,0.25482 1.39424,0.35587 2.09636,0.51723 0.59682,0.17347 1.18366,0.28805 1.80035,0.22259 0.75993,-0.10497 1.52374,-0.16802 2.28972,-0.20429 0.76246,-0.0293 1.52562,-0.0299 2.28852,-0.0311 1.85049,-0.012 1.70209,0.6626 1.22255,2.41726 -0.0197,0.072 -0.63288,0.37285 -0.64636,0.37985 -0.75639,0.29178 -1.55631,0.46822 -2.34545,0.65395 -0.78165,0.11483 -1.54339,0.32128 -2.32028,0.46218 -0.72072,0.19338 -1.49816,0.0463 -2.21786,0.20288 -0.49229,0.0802 -0.95213,0.26501 -1.40723,0.46749 -0.6421,0.24863 -1.25787,0.54594 -1.82408,0.9383 -0.6018,0.5755 -1.25963,1.08344 -1.96137,1.53 -0.49887,0.3153 -0.94153,0.6976 -1.39349,1.07311 -0.31682,0.3036 -0.62122,0.61602 -0.93966,0.91422 -0.16627,0.0938 -0.33254,0.18753 -0.4988,0.2813 -1.70716,0.68423 -2.67481,-1.73005 -0.96766,-2.41429 l 0,0 c -0.0853,0.0613 -0.17052,0.1226 -0.25578,0.18389 0.32657,-0.32614 0.67178,-0.65052 1.00934,-0.97363 0.54282,-0.43964 1.06957,-0.89774 1.66506,-1.26869 0.68368,-0.41761 1.26887,-0.95987 1.87845,-1.47581 0.70913,-0.47718 1.46137,-0.87138 2.26042,-1.17779 0.65679,-0.27694 1.32374,-0.5424 2.03307,-0.64787 0.71775,-0.0972 1.44375,-0.0774 2.16031,-0.19323 0.73257,-0.12959 1.44982,-0.33209 2.18735,-0.43473 0.59779,-0.13865 1.19369,-0.29167 1.78475,-0.45278 0.75311,-0.31112 -0.58058,0.10738 0.0325,1.68153 0.19694,0.50571 1.72544,0.45393 0.54822,0.45384 -0.72365,0.001 -1.44754,0.001 -2.17079,0.0282 -0.727,0.0336 -1.45116,0.0978 -2.17247,0.19613 -0.90121,0.0759 -1.77285,-0.0235 -2.64129,-0.28221 -0.69111,-0.17398 -1.40979,-0.24521 -2.07771,-0.51287 -0.69894,-0.16385 -1.37184,-0.41447 -2.08822,-0.50117 -0.87852,-0.18394 -1.77257,-0.26221 -2.64601,-0.47388 -0.81867,-0.18168 -1.66313,-0.25853 -2.45216,-0.56463 -0.75261,-0.15979 -1.5,-0.31431 -2.26705,-0.39305 -0.8489,-0.12688 -1.7007,-0.1044 -2.55617,-0.16542 -0.72335,-0.0728 -1.44632,-0.17325 -2.12339,-0.45349 -0.72151,-0.15513 -1.38782,-0.43679 -2.08747,-0.65708 -0.77304,-0.23637 -1.55995,-0.44528 -2.36769,-0.51832 -1.06087,-0.12547 -2.11703,-0.21033 -3.18719,-0.15887 -0.97474,4.6e-4 -1.94947,0.001 -2.9242,0.003 -1.141695,0.001 -2.283515,0.006 -3.425088,-0.0139 -0.977115,-0.0254 -1.961178,-0.0578 -2.914231,-0.2975 -0.738484,-0.18722 -1.468318,-0.39922 -2.229622,-0.47871 -0.838964,-0.0492 -1.672448,-0.13983 -2.500143,-0.28844 -0.800331,-0.10587 -1.617867,0.002 -2.422491,-0.0652 -0.797601,-0.0387 -1.593819,-0.1063 -2.379081,-0.25763 -0.668762,-0.11325 -1.337176,-0.0976 -2.015257,-0.0884 -0.743364,0 -1.486727,0 -2.230091,-2.2e-4 -0.791322,-2.9e-4 -1.582645,-8.5e-4 -2.373967,-0.002 -0.925077,-8.4e-4 -1.850197,-0.003 -2.775235,0.007 -0.775414,0.0131 -1.551675,0.0373 -2.322212,0.13193 -0.850331,0.10789 -1.697468,0.28012 -2.558938,0.2307 -0.729744,-5.4e-4 -1.45985,-0.003 -2.189126,0.0268 -0.809186,0.0439 -1.615532,0.12941 -2.406285,0.31414 -0.944674,0.20515 -1.903896,0.40667 -2.874703,0.4051 -0.844856,0.008 -1.69061,0.0203 -2.532742,0.0948 -0.81926,0.084 -1.620545,0.26081 -2.434371,0.37678 -0.762185,0.11353 -1.496838,0.34614 -2.259322,0.45443 -0.889118,0.13991 -1.775187,0.23068 -2.676654,0.22805 -0.953766,0.0684 -1.894307,0.23155 -2.819626,0.47511 -1.302507,0.30725 -2.610231,0.5978 -3.926552,0.8394 -1.266393,0.19371 -2.536143,0.39769 -3.782047,0.69574 -1.030082,0.27627 -2.07503,0.4854 -3.107438,0.75199 -0.91219,0.17974 -1.823387,0.33769 -2.747842,0.44175 -0.88465,0.14171 -1.776454,0.20567 -2.65644,0.37334 -0.685617,0.15425 -1.377486,0.27375 -2.053749,0.46698 -0.902745,0.2089 -1.828391,0.31454 -2.720855,0.57597 -0.672584,0.12796 -1.344602,0.26167 -2.012837,0.40747 -0.506137,0.14507 -1.027615,0.20887 -1.523167,0.38084 -0.587184,0.29797 -1.189995,0.57752 -1.818258,0.77712 -0.795883,0.27836 -1.617609,0.46715 -2.39904,0.78877 -0.630339,0.20546 -1.23966,0.46204 -1.833837,0.75564 -0.761696,0.40707 -1.546772,0.75634 -2.372586,1.0153 -0.516825,0.15221 -1.076235,0.25276 -1.464553,0.65145 -0.564611,0.7211 -0.900874,1.56358 -1.223709,2.41408 -0.581597,1.74479 -3.049105,0.92229 -2.467508,-0.8225 z"
       inkscape:connector-curvature="0"
       transform="translate(0,0.10680097)" />
    <path
       style="fill:#de2d26;fill-opacity:1;stroke:none"
       id="path4275"
       d="m 29.564354,568.03939 c 0.525311,-1.10938 1.231307,-2.11121 1.9071,-3.12998 0.602453,-0.98935 1.379833,-1.83317 2.177143,-2.66344 0.729926,-0.76043 1.435423,-1.54524 2.216674,-2.25365 0.699645,-0.57626 1.396872,-1.15417 2.103594,-1.72141 0.606535,-0.54331 1.23656,-1.0349 1.946319,-1.43881 0.857106,-0.31528 1.679413,-0.70848 2.508024,-1.08969 0.754416,-0.42349 1.515873,-0.82909 2.303755,-1.18859 0.744066,-0.28896 1.491735,-0.57124 2.212257,-0.9158 0.815418,-0.41796 1.668393,-0.7367 2.534794,-1.03138 0.812598,-0.28526 1.650424,-0.48379 2.474078,-0.72969 0.716671,-0.21978 1.459547,-0.32767 2.161392,-0.59555 0.845135,-0.28951 1.689272,-0.58287 2.537733,-0.86226 0.890561,-0.296 1.805672,-0.5063 2.705322,-0.76818 0.790911,-0.25813 1.564106,-0.54194 2.381901,-0.70974 0.686883,-0.0471 1.342199,-0.23996 2.014932,-0.3694 0.76112,-0.13096 1.534589,-0.14989 2.304865,-0.16374 0.824188,-0.0654 1.630016,0.11203 2.4394,0.23356 0.683563,0.0969 1.3743,0.11678 2.063525,0.13047 0.782337,0.0471 1.514188,0.31755 2.259428,0.53023 0.719115,0.15461 1.456236,0.18581 2.189047,0.20784 0.998485,0.10669 1.992455,0.24728 2.975835,0.45046 1.046436,0.23523 1.945691,0.81558 2.822026,1.40512 0.5627,0.44841 1.24009,0.70035 1.865556,1.04268 0.534843,0.31081 1.046768,0.65631 1.577632,0.97485 0.545306,0.34811 1.139672,0.59465 1.684665,0.94636 0.621568,0.38233 1.132843,0.89237 1.56964,1.47118 0.194082,0.29566 0.448065,0.30702 0.773035,0.35582 0.722357,0.0499 1.437315,0.0687 2.153806,0.18492 0.819014,0.11 1.624485,0.3027 2.414107,0.544 0.90507,0.3088 1.689496,0.82656 2.450195,1.39185 0.599208,0.42709 1.249536,0.7689 1.891756,1.12449 0.858829,0.46031 1.615889,1.03818 2.279225,1.7498 0.616285,0.55746 0.974615,1.2365 1.187805,2.02709 0.37286,1.80098 -2.174114,2.32828 -2.546975,0.5273 l 0,0 c 0.275042,0.0646 -0.684153,-0.91509 -0.567539,-0.80714 -0.448743,-0.52363 -1.017816,-0.88509 -1.613677,-1.22228 -0.743446,-0.41279 -1.494679,-0.81348 -2.184982,-1.31384 -0.526873,-0.39416 -1.048806,-0.76972 -1.674671,-0.99564 -0.668627,-0.21912 -1.361725,-0.35962 -2.057306,-0.45912 -0.727465,-0.12177 -1.460077,-0.092 -2.191494,-0.1914 -0.96694,-0.18673 -1.838949,-0.55194 -2.420618,-1.3913 -0.226388,-0.35675 -0.568664,-0.61576 -0.919217,-0.84108 -0.473442,-0.37248 -1.106014,-0.49455 -1.576888,-0.87729 -0.503075,-0.3075 -0.993316,-0.63383 -1.501228,-0.93025 -0.673303,-0.39606 -1.438562,-0.64133 -2.044869,-1.15307 -0.59557,-0.40084 -1.192646,-0.83095 -1.897209,-1.01606 -0.836806,-0.17357 -1.681151,-0.28793 -2.528718,-0.3977 -0.948983,-0.0299 -1.903691,-0.0797 -2.829327,-0.30836 -0.529183,-0.1537 -1.044203,-0.34539 -1.591385,-0.429 -0.801481,-0.0163 -1.604421,-0.0436 -2.398919,-0.15901 -0.667458,-0.10098 -1.325717,-0.26435 -2.005555,-0.20491 -0.623205,0.0109 -1.249292,0.021 -1.866278,0.1186 -0.663472,0.12336 -1.312335,0.32117 -1.989368,0.36441 -0.751411,0.14458 -1.447522,0.44569 -2.179336,0.66069 -0.870402,0.24428 -1.74891,0.45707 -2.609069,0.73873 -0.821244,0.26679 -1.635756,0.55575 -2.453511,0.83309 -0.762182,0.27163 -1.547203,0.43915 -2.326807,0.64984 -0.790821,0.2267 -1.588346,0.42542 -2.366633,0.69583 -0.773795,0.26152 -1.533294,0.54028 -2.258593,0.91969 -0.735327,0.34462 -1.488155,0.65051 -2.249383,0.93299 -0.786618,0.35406 -1.533793,0.77538 -2.29254,1.18348 -0.766573,0.35144 -1.52173,0.74145 -2.327166,0.99792 -0.596602,0.32029 -1.079724,0.76449 -1.592457,1.20159 -0.671586,0.52896 -1.321101,1.08588 -1.986751,1.62261 -0.74174,0.65574 -1.383736,1.41589 -2.078377,2.11999 -0.690001,0.71767 -1.370326,1.43896 -1.885824,2.30009 -0.678088,1.02025 -1.370498,2.0293 -1.909749,3.13396 -1.020189,1.53028 -3.184336,0.0875 -2.164147,-1.44277 z"
       inkscape:connector-curvature="0"
       transform="translate(0,0.10680097)" />
    <path
       style="fill:#de2d26;fill-opacity:1;stroke:none"
       id="path4277"
       d="m 81.482478,552.55478 c 1.06035,0.14444 2.088751,0.45577 3.085305,0.83803 0.847786,0.29829 1.618046,0.761 2.308115,1.33081 0.433777,0.3482 0.806128,0.76128 1.224649,1.12685 0.308348,0.082 0.78251,0.23357 1.134434,0.36171 0.697491,0.2417 1.377931,0.51171 2.027147,0.86461 0.728844,0.38018 1.487819,0.69258 2.204438,1.09703 0.720217,0.37931 1.383627,0.85836 1.988718,1.40074 0.38577,0.4386 0.831114,0.79491 1.292069,1.14437 0.17963,0.1164 0.103681,0.092 0.207439,0.11942 1.636773,0.83877 0.450579,3.15351 -1.186194,2.31475 l 0,0 c -0.405937,-0.22126 -0.204041,-0.0987 -0.60408,-0.37025 -0.518595,-0.40539 -1.0372,-0.80276 -1.475895,-1.29936 -0.432741,-0.43526 -0.98364,-0.75064 -1.512651,-1.05147 -0.701363,-0.40837 -1.467928,-0.68509 -2.176271,-1.08116 -0.535877,-0.30848 -1.122156,-0.49633 -1.699383,-0.71143 -0.633496,-0.28384 -1.375391,-0.34032 -1.913928,-0.83275 -0.412342,-0.36224 -0.781755,-0.76702 -1.207656,-1.11209 -0.425159,-0.4178 -1.010879,-0.65882 -1.553683,-0.87766 -0.826455,-0.32761 -1.688112,-0.57619 -2.570171,-0.69656 -1.814148,-0.30236 -1.386549,-2.86795 0.427598,-2.56559 z"
       inkscape:connector-curvature="0"
       transform="translate(0,0.10680097)" />
    <path
       style="fill:#de2d26;fill-opacity:1;stroke:none"
       id="path4279"
       d="m 32.202844,562.2303 c 0.201561,-1.08896 0.633929,-2.09236 1.205447,-3.03395 0.568965,-0.66523 1.032773,-1.41368 1.628395,-2.05414 0.660244,-0.5427 1.44081,-0.90904 2.187945,-1.31598 0.706763,-0.35246 1.269898,-0.89162 1.838566,-1.42429 0.659418,-0.64459 1.384074,-1.21753 2.137642,-1.74733 0.719019,-0.51263 1.410241,-1.05696 2.124562,-1.57815 0.820675,-0.50476 1.563318,-1.1181 2.391937,-1.60879 0.849122,-0.45799 1.76933,-0.73016 2.688647,-1.00454 0.985289,-0.27536 1.978542,-0.51606 2.973804,-0.75227 1.041097,-0.24564 2.109981,-0.29537 3.160135,-0.48543 0.878153,-0.12445 1.747374,-0.29274 2.622046,-0.43799 0.952107,-0.1504 1.91494,-0.20278 2.877193,-0.23035 0.842033,-0.0464 1.659689,0.14587 2.435039,0.45749 0.565866,0.17993 1.120988,0.39415 1.670835,0.61933 0.340846,0.15528 0.703569,0.2348 1.069981,0.29932 1.808333,0.33539 1.334018,2.89276 -0.474314,2.55737 l 0,0 c -0.545097,-0.10434 -1.086157,-0.22869 -1.595839,-0.4557 -0.539313,-0.23101 -1.090246,-0.42398 -1.645941,-0.60911 -0.441742,-0.18021 -0.900582,-0.31032 -1.386109,-0.26876 -0.845204,0.0236 -1.691114,0.0666 -2.527729,0.19674 -0.862034,0.14092 -1.718565,0.30913 -2.583689,0.43137 -1.004774,0.18052 -2.023709,0.24106 -3.022253,0.4567 -0.947468,0.22382 -1.892531,0.45305 -2.830511,0.714 -0.723105,0.21501 -1.447967,0.416 -2.12329,0.75999 -0.759719,0.42935 -1.410222,1.02551 -2.167407,1.46216 -0.729929,0.53203 -1.436873,1.08615 -2.170911,1.61119 -0.656587,0.45077 -1.275017,0.95729 -1.846595,1.51185 -0.731009,0.68341 -1.47362,1.3536 -2.375054,1.81117 -0.522148,0.28218 -1.038902,0.57768 -1.566493,0.84586 -0.510797,0.44931 -0.777938,1.14949 -1.28374,1.61485 -0.418409,0.63718 -0.687234,1.34083 -0.846707,2.08499 -0.302358,1.81415 -2.86795,1.38655 -2.565592,-0.4276 z"
       inkscape:connector-curvature="0"
       transform="translate(0,0.10680097)" />
    <path
       style="fill:#de2d26;fill-opacity:1;stroke:none"
       id="path4281"
       d="m 132.50549,567.7048 c 1.11562,-0.33154 2.23601,-0.64421 3.35559,-0.96279 1.00861,-0.2576 2.04482,-0.41299 3.04514,-0.70209 0.61168,-0.20041 1.2808,-0.29367 1.81541,-0.67157 0.729,-0.51222 1.55839,-0.80783 2.38695,-1.1099 0.90599,-0.28459 1.81203,-0.56862 2.71863,-0.85124 0.85825,-0.2823 1.70032,-0.57642 2.52251,-0.94967 0.77447,-0.4425 1.53994,-0.89188 2.33737,-1.29366 0.94261,-0.47411 1.93144,-0.8368 2.91379,-1.21673 0.83262,-0.25751 1.58813,-0.68229 2.32833,-1.13071 0.51994,-0.36053 0.95926,-0.80918 1.46699,-1.1841 0.57364,-0.56582 1.24041,-0.93535 2.00068,-1.18719 0.56277,-0.0609 1.00018,-0.34681 1.46248,-0.64038 0.0757,-0.0194 0.11506,-0.17919 0.10909,-0.1569 -0.0757,0.28261 -0.3462,0.55728 -0.26238,0.8376 0.37126,1.24167 0.64112,1.10101 1.4544,1.14489 -1.76186,0.52762 -2.50802,-1.96404 -0.74615,-2.49165 l 0,0 c 0.28521,-0.0137 0.61041,-0.18726 0.85563,-0.041 1.65329,0.98632 1.06639,2.08002 -0.0165,2.90287 -0.64418,0.40887 -1.31394,0.81124 -2.08252,0.92768 -0.51687,0.13543 -0.86749,0.47976 -1.26769,0.82396 -0.57902,0.36965 -1.01509,0.95292 -1.62637,1.28883 -0.87061,0.52736 -1.76531,1.01935 -2.73932,1.33256 -0.9034,0.34811 -1.81338,0.6778 -2.68011,1.11306 -0.82867,0.41751 -1.61555,0.89983 -2.43253,1.33921 -0.9212,0.41819 -1.86571,0.74954 -2.8266,1.06537 -0.86784,0.26802 -1.73278,0.54547 -2.60112,0.81166 -0.65142,0.23618 -1.30808,0.4465 -1.87717,0.85851 -0.78076,0.47764 -1.63031,0.75969 -2.5155,0.98398 -1.00068,0.27212 -2.0213,0.46547 -3.03161,0.69827 -1.08245,0.30795 -2.16615,0.6089 -3.24487,0.92861 -1.7448,0.5816 -2.5673,-1.88591 -0.82251,-2.46751 z"
       inkscape:connector-curvature="0"
       transform="translate(0,0.10680097)" />
    <path
       style="fill:#de2d26;fill-opacity:1;stroke:none"
       id="path4283"
       d="m 317.02827,538.28183 c -0.66782,-0.50661 -1.35141,-0.98636 -2.05807,-1.43783 -0.27109,-0.1935 -0.5296,-0.3928 -0.79388,-0.59423 -0.011,-0.008 0.0137,0.0278 0.0271,0.0315 0.26495,0.0732 0.53254,0.25757 0.80072,0.19722 0.35129,-0.079 0.60662,-0.38811 0.90993,-0.58217 0.28885,-0.787 -0.0794,1.2301 -0.0936,1.3131 -0.11334,0.67905 -0.14289,1.36738 -0.16247,2.05428 -0.21256,1.55738 -0.81911,2.0572 -2.57686,1.15254 -0.2061,-0.10607 -0.28711,-0.76162 -0.32714,-0.99491 0.0141,-0.93951 -0.0245,-0.20762 0.0719,-0.95094 0.007,-0.0545 -0.0146,0.10933 -0.0144,0.1643 -0.26966,-1.81929 2.30321,-2.20066 2.57287,-0.38136 l 0,0 c 0.0189,0.2369 0.0904,0.59877 -0.0569,0.79032 0.007,0.24969 0.01,-0.13581 -0.16666,-0.18956 -0.52579,-0.15997 -1.08278,-0.36014 -1.6257,-0.2748 -0.39019,0.0613 -0.58169,0.89751 -0.47696,0.60923 0.0237,-0.80821 0.0632,-1.61768 0.1984,-2.4163 0.11972,-0.70155 0.15589,-1.40862 0.35733,-2.09004 0.33762,-0.25905 0.6059,-0.65271 1.01285,-0.77714 0.65993,-0.20179 1.28194,0.39946 1.7498,0.75091 0.77966,0.50341 1.53807,1.03315 2.27663,1.59485 1.43615,1.14892 -0.18867,3.17995 -1.62482,2.03103 z"
       inkscape:connector-curvature="0"
       transform="translate(0,0.10680097)" />
    <path
       style="fill:#de2d26;fill-opacity:1;stroke:none"
       id="path4285"
       d="m 224.45926,414.74056 c 0.2997,0.6699 0.75786,1.25119 1.26551,1.77514 0.55372,0.598 1.14002,1.14983 1.62608,1.80795 0.46753,0.58613 0.90017,1.19927 1.32185,1.81901 0.5269,0.71739 0.99001,1.47979 1.41035,2.26373 0.26121,0.52941 0.46717,1.12818 0.87404,1.56973 0.43882,0.4789 0.80124,1.00006 1.10503,1.57604 0.18924,0.6283 0.41667,1.15583 0.82541,1.66411 0.47133,0.63015 0.99193,1.22167 1.45578,1.85819 0.51763,0.71411 0.94816,1.4881 1.34711,2.27342 0.36236,0.68218 0.63593,1.39261 1.03029,2.05633 0.31888,0.55435 0.88324,0.87138 1.36109,1.27073 0.61034,0.5546 0.94813,1.31239 1.48869,1.92264 0.57295,0.58078 1.24299,1.05841 1.86349,1.58854 0.73808,0.68208 1.3184,1.50892 1.86459,2.34675 0.35209,0.62856 0.72082,1.19704 1.26584,1.66762 0.66701,0.59262 1.20426,1.29992 1.7495,2.00026 0.64175,0.74778 1.17535,1.56205 1.54304,2.47596 0.32453,0.7653 0.6374,1.55714 1.11634,2.2412 0.47868,0.69989 1.00695,1.36065 1.45826,2.07957 0.51917,0.78846 0.91263,1.64614 1.27696,2.51426 0.34179,0.70891 0.58843,1.46813 1.04857,2.11214 0.32587,0.62222 0.79931,1.06631 1.32671,1.50423 0.54627,0.54483 1.00375,1.17284 1.47022,1.78654 0.41226,0.59466 0.93667,1.09854 1.46307,1.59124 0.67723,0.56751 1.197,1.28023 1.65024,2.03148 0.38731,0.72151 0.7854,1.42311 1.2869,2.07202 0.69022,0.79194 1.34627,1.61259 2.03104,2.40933 0.61202,0.80833 1.24034,1.60133 1.91535,2.35802 0.67333,0.77293 1.21871,1.63985 1.7602,2.50654 0.4614,0.71424 0.87285,1.46072 1.25407,2.2205 0.34588,0.76057 0.62473,1.5465 0.9056,2.3325 0.3174,0.72038 0.61423,1.44818 0.9199,2.17339 0.29656,0.62874 0.65886,1.22004 1.07072,1.77967 0.55793,0.70646 0.91149,1.5078 1.23665,2.33762 0.16663,0.57527 0.48357,1.07207 0.82113,1.55876 0.42152,0.5833 0.87637,1.14067 1.27012,1.744 0.33638,0.5881 0.7136,1.14344 1.11016,1.69106 0.48048,0.56267 0.8444,1.2089 1.274,1.80708 0.434,0.57432 0.84903,1.14595 1.3752,1.63931 0.61237,0.59519 1.22019,1.1772 1.74591,1.85319 0.52839,0.6979 1.07451,1.39745 1.7046,2.00771 0.67996,0.55694 1.1807,1.27522 1.6996,1.97398 0.47368,0.6962 0.82035,1.46616 1.22278,2.20363 0.27276,0.53631 0.53344,1.09786 0.88209,1.59055 0.42124,0.6074 0.78882,1.24909 1.224,1.84679 0.46,0.6975 0.90552,1.4034 1.19718,2.18888 0.14569,0.71129 0.31806,1.4057 0.55183,2.09321 0.2163,0.7831 0.46979,1.5549 0.64186,2.34967 0.15662,0.80492 0.18184,1.62591 0.19729,2.44324 -0.0587,0.62894 0.1037,1.22367 0.21049,1.83628 0.25301,0.50316 0.2731,1.08274 0.45713,1.60391 0.25161,0.67659 0.34738,1.38929 0.40563,2.10427 0.16101,0.7163 0.27428,1.43954 0.34482,2.16997 0.10925,0.69895 0.32326,1.36956 0.50575,2.0507 0.20974,0.80971 0.26476,1.6448 0.2956,2.47703 0.13431,0.71872 0.24545,1.43955 0.31343,2.16762 0.17941,0.62475 0.29562,1.26079 0.36798,1.90601 0.19282,0.60455 0.30146,1.22694 0.37227,1.85601 -0.0101,0.63644 0.1657,1.23917 0.27982,1.85894 0.0915,0.66678 0.284,1.31506 0.48392,1.95632 0.29487,0.57814 0.69705,1.09362 1.05861,1.63077 0.44349,0.59713 0.89549,1.18388 1.38763,1.74216 0.41902,0.38282 0.85123,0.74671 1.25698,1.14389 1.12047,1.10891 -0.44777,2.69349 -1.56824,1.58458 l 0,0 c -0.43625,-0.43866 -0.93222,-0.80996 -1.36243,-1.25571 -0.55561,-0.63241 -1.0681,-1.29583 -1.56615,-1.97412 -0.47634,-0.71538 -1.02625,-1.39622 -1.3348,-2.20807 -0.22674,-0.72739 -0.43856,-1.46469 -0.54876,-2.21986 -0.12063,-0.66974 -0.30745,-1.32863 -0.30264,-2.01528 -0.0673,-0.63205 -0.22288,-1.23981 -0.37234,-1.85657 -0.0703,-0.66003 -0.23459,-1.29611 -0.37184,-1.94434 -0.07,-0.76984 -0.21755,-1.52592 -0.32137,-2.29122 -0.0238,-0.66556 -0.0588,-1.33463 -0.22174,-1.98349 -0.21235,-0.79995 -0.46226,-1.59 -0.57106,-2.41408 -0.0695,-0.74305 -0.2129,-1.47141 -0.34785,-2.2047 -0.0428,-0.55618 -0.1126,-1.10814 -0.31622,-1.63229 -0.17761,-0.62318 -0.2915,-1.26219 -0.52082,-1.87188 -0.1241,-0.72163 -0.29952,-1.43595 -0.24283,-2.17535 -0.0124,-0.675 -0.0272,-1.35348 -0.1486,-2.01955 -0.14861,-0.7104 -0.38726,-1.39624 -0.57227,-2.09723 -0.22977,-0.67589 -0.4312,-1.35663 -0.54142,-2.06326 -0.19314,-0.5956 -0.58874,-1.09837 -0.90488,-1.63213 -0.44622,-0.62285 -0.83363,-1.28139 -1.26907,-1.91166 -0.36664,-0.5636 -0.69665,-1.15652 -0.98642,-1.76292 -0.3525,-0.64735 -0.66334,-1.31793 -1.05545,-1.94191 -0.45203,-0.60917 -0.87772,-1.23957 -1.47794,-1.71841 -0.69018,-0.69297 -1.32246,-1.44726 -1.90373,-2.23342 -0.44584,-0.58996 -0.98928,-1.07099 -1.51027,-1.59215 -0.62996,-0.59972 -1.14941,-1.27698 -1.66553,-1.97464 -0.41648,-0.59828 -0.78924,-1.22653 -1.25957,-1.78687 -0.41761,-0.58127 -0.82019,-1.16847 -1.17731,-1.78954 -0.37064,-0.58958 -0.83486,-1.11359 -1.23113,-1.68544 -0.43024,-0.62789 -0.83378,-1.27828 -1.0613,-2.01115 -0.25507,-0.65284 -0.50924,-1.28455 -0.96128,-1.83559 -0.50951,-0.70252 -0.96509,-1.44147 -1.32603,-2.23218 -0.31854,-0.76348 -0.63856,-1.52503 -0.96357,-2.28606 -0.25015,-0.70245 -0.49798,-1.40447 -0.80077,-2.0864 -0.34611,-0.69889 -0.72908,-1.38123 -1.15136,-2.03688 -0.47221,-0.76056 -0.94774,-1.52097 -1.5324,-2.20218 -0.68309,-0.76727 -1.32726,-1.56525 -1.94197,-2.38844 -0.71113,-0.8281 -1.39481,-1.67899 -2.10852,-2.50472 -0.55068,-0.72138 -1.01111,-1.48909 -1.43482,-2.29036 -0.33796,-0.58195 -0.7443,-1.12009 -1.26602,-1.55112 -0.61171,-0.58331 -1.22833,-1.17203 -1.71191,-1.86976 -0.35751,-0.48154 -0.7313,-0.95255 -1.1141,-1.41286 -0.68207,-0.56743 -1.29897,-1.16964 -1.73744,-1.95369 -0.52972,-0.78501 -0.88943,-1.65301 -1.26985,-2.51754 -0.31598,-0.75974 -0.65733,-1.50924 -1.11338,-2.19697 -0.42996,-0.70124 -0.96336,-1.32712 -1.41551,-2.01343 -0.54819,-0.83619 -0.97499,-1.74594 -1.34301,-2.67499 -0.26503,-0.72158 -0.74036,-1.32662 -1.225,-1.91592 -0.45879,-0.58952 -0.90169,-1.19082 -1.46004,-1.69337 -0.69239,-0.61352 -1.22185,-1.32312 -1.66772,-2.13269 -0.42373,-0.66123 -0.87974,-1.31184 -1.44178,-1.86356 -0.70259,-0.60136 -1.46722,-1.13708 -2.09571,-1.81864 -0.46124,-0.53556 -0.81239,-1.13427 -1.24895,-1.68614 -0.65789,-0.56981 -1.42096,-1.02978 -1.83639,-1.83283 -0.42112,-0.70888 -0.72599,-1.45958 -1.1038,-2.1903 -0.34201,-0.68291 -0.71836,-1.35339 -1.16491,-1.97374 -0.43795,-0.61579 -0.95262,-1.17279 -1.39854,-1.7823 -0.47899,-0.61551 -0.86513,-1.25863 -1.05558,-2.02154 -0.22379,-0.45027 -0.51115,-0.82161 -0.85253,-1.19076 -0.45954,-0.58856 -0.83203,-1.23723 -1.11347,-1.93007 -0.37765,-0.71572 -0.80774,-1.40434 -1.28572,-2.05741 -0.40964,-0.60205 -0.82982,-1.19731 -1.2848,-1.76621 -0.40973,-0.58694 -0.96486,-1.03231 -1.42957,-1.57238 -0.72906,-0.76691 -1.38046,-1.61977 -1.77088,-2.61264 -0.49851,-1.49554 1.61649,-2.20054 2.11501,-0.70501 z"
       inkscape:connector-curvature="0"
       transform="translate(0,0.10680097)" />
    <path
       style="fill:#de2d26;fill-opacity:1;stroke:none"
       id="path4287"
       d="m 294.80017,501.15432 c 0.41791,-1.11669 0.95544,-2.18908 1.59014,-3.19804 0.68553,-1.08622 1.79717,-1.73242 2.84038,-2.42463 0.9331,-0.63626 1.84634,-1.29976 2.77541,-1.9417 0.71408,-0.42228 1.41161,-0.86915 2.00332,-1.45464 0.3435,-0.46201 0.68475,-0.92718 1.0666,-1.3591 0.55813,-0.59771 1.21096,-1.08579 1.85287,-1.58695 0.75203,-0.63695 1.67448,-0.85673 2.5965,-1.10737 0.67421,-0.25671 1.33695,-0.54512 1.95515,-0.91852 0.72945,-0.51597 1.43198,-1.06984 2.1656,-1.58019 0.58484,-0.39724 1.0957,-0.85035 1.57499,-1.36653 0.81041,-0.79168 1.74235,-1.44859 2.65323,-2.1201 0.6881,-0.6164 1.45017,-1.11177 2.26486,-1.53957 0.72808,-0.34804 1.46763,-0.67226 2.18799,-1.0362 0.79735,-0.41171 1.62425,-0.75722 2.44299,-1.12251 0.77644,-0.30961 1.56823,-0.58414 2.36322,-0.84364 0.34148,-0.16124 0.69747,-0.25417 1.06316,-0.3407 1.54315,-0.32218 1.99879,1.86017 0.45563,2.18236 l 0,0 c -0.2952,0.034 -0.55243,0.19012 -0.83322,0.27973 -0.7216,0.23004 -1.43683,0.4866 -2.14272,0.75923 -0.7876,0.34941 -1.58225,0.68122 -2.34821,1.07766 -0.70993,0.35504 -1.43355,0.68172 -2.15244,1.01793 -0.71604,0.37592 -1.37636,0.81688 -1.98037,1.36168 -0.80098,0.5875 -1.61611,1.16504 -2.34183,1.84265 -0.58909,0.63218 -1.227,1.18961 -1.93876,1.68136 -0.77866,0.53509 -1.51027,1.13672 -2.29494,1.66323 -0.79744,0.4687 -1.63994,0.85607 -2.516,1.15522 -0.63562,0.16912 -1.28118,0.27231 -1.80313,0.71176 -0.54347,0.42405 -1.10039,0.82973 -1.57716,1.33158 -0.43809,0.44526 -0.73516,1.01464 -1.17005,1.46524 -0.69096,0.65163 -1.4509,1.21443 -2.27997,1.68057 -0.94056,0.64986 -1.86493,1.32183 -2.81012,1.9652 -0.78221,0.51899 -1.65419,0.97251 -2.19276,1.76491 -0.54946,0.84736 -0.98789,1.76633 -1.35535,2.70508 -0.49852,1.49553 -2.61352,0.79053 -2.11501,-0.705 z"
       inkscape:connector-curvature="0"
       transform="translate(0,0.10680097)" />
    <path
       style="fill:#de2d26;fill-opacity:1;stroke:none"
       id="path4289"
       d="m 273.94342,564.2527 c 1.12095,0.16419 2.25767,0.17285 3.37818,0.33054 0.88856,0.1027 1.73825,0.38418 2.61067,0.56515 0.568,0.15242 1.09877,0.11073 1.66335,0.0105 0.54167,-0.084 1.05254,-0.31145 1.56367,-0.50591 0.74419,-0.25958 1.49775,-0.44392 2.28527,-0.48757 0.34492,-0.0548 0.59608,-0.19221 0.83943,-0.44273 0.13906,-0.32667 0.15501,-0.69541 0.18119,-1.04503 0.0103,-0.60992 -0.1684,-1.20936 -0.24001,-1.81744 -0.10663,-0.67009 -0.0199,-1.3574 -0.18987,-2.01479 -0.0747,-0.30328 -0.0368,-0.176 -0.10415,-0.38455 -0.46348,-1.50676 1.6674,-2.16222 2.13088,-0.65546 l 0,0 c 0.1,0.33329 0.0532,0.16257 0.13935,0.51241 0.17797,0.75652 0.16538,1.52154 0.2391,2.29195 0.0798,0.75013 0.32637,1.48506 0.24695,2.24646 -0.0786,0.93279 -0.24049,1.84638 -0.9298,2.53937 -0.64299,0.53955 -1.34678,0.93788 -2.20316,0.99651 -0.55562,0.022 -1.07592,0.17224 -1.6032,0.34487 -0.64145,0.24346 -1.28656,0.51142 -1.96784,0.61733 -0.84159,0.14796 -1.66915,0.17835 -2.50858,-0.0239 -0.82867,-0.1752 -1.63607,-0.43784 -2.47922,-0.54167 -1.11273,-0.17618 -2.25398,-0.14151 -3.3675,-0.32899 -1.56059,-0.22294 -1.2453,-2.42995 0.31529,-2.20701 z"
       inkscape:connector-curvature="0"
       transform="translate(0,0.10680097)" />
    <path
       style="fill:#de2d26;fill-opacity:1;stroke:none"
       id="path4291"
       d="m 344.76538,493.77442 c -0.52689,0.6912 0.009,0.24097 -0.1689,-0.19003 -0.22602,-0.54803 -0.32354,-0.55235 -0.68117,-0.70976 0.88611,-0.19143 1.76167,-0.42367 2.6566,-0.57865 1.35342,-0.22234 1.52673,-0.29018 1.26839,2.06013 -0.002,0.0189 -0.73066,0.33901 -0.81032,0.3744 -0.80651,0.3814 -1.65092,0.64822 -2.49409,0.93071 -0.1341,0.0426 -0.27046,0.0786 -0.4023,0.12769 -0.85064,0.31691 0.3615,0.15984 0.10814,-0.73855 -0.10272,-0.36423 -0.48493,-0.58113 -0.72739,-0.87169 0.79678,-0.16634 1.56723,-0.43113 2.33521,-0.6986 0.14206,-0.0558 0.51672,-0.21037 0.68096,-0.24901 0.0612,-0.0144 -0.18925,0.0107 -0.17438,0.0718 0.17403,0.7149 0.61887,1.3618 0.70134,2.09294 0.0175,0.15485 -0.30179,0.078 -0.45163,0.12083 -0.11801,0.0337 -0.23453,0.0725 -0.35179,0.10872 -0.67849,0.27331 -1.47077,0.25744 -2.11106,0.62648 0.37732,-0.32598 0.68075,-0.50859 0.14684,-1.42045 -0.15467,-0.26415 -0.59131,-0.20187 -0.82933,-0.39433 -0.0713,-0.0576 0.1799,-0.036 0.26863,-0.059 0.12482,-0.0325 0.24778,-0.0717 0.37168,-0.10756 1.2616,-0.44835 2.49817,-0.97472 3.7207,-1.52032 0.3935,-0.17275 0.62705,-0.25692 0.97973,-0.46943 0.0745,-0.0449 0.14747,-0.0939 0.21111,-0.15311 0.0147,-0.0137 0.0279,-0.0745 0.016,-0.0583 -0.36542,0.49629 -0.25333,0.29037 -0.19324,0.99219 0.36282,0.41812 0.51304,0.36942 0.16024,0.41769 -0.27089,0.0371 -0.55027,0.13818 -0.80963,0.21928 -0.14601,0.0446 -0.29275,0.0869 -0.43802,0.13394 -0.0835,0.027 -0.7602,0.25165 -0.77093,0.22417 -0.86415,-2.21233 -1.28767,-1.76211 -0.26376,-2.39841 0.95854,-0.53355 1.91697,-1.07482 2.79104,-1.74057 0.45593,-0.43209 0.0277,-0.0572 0.0304,-0.0405 0.0798,0.49415 0.18887,0.99181 0.3904,1.44999 0.0438,0.0996 0.23173,0.0411 0.30201,0.12426 0.0344,0.0407 -0.0998,0.0377 -0.1501,0.0554 -0.1227,0.0432 -0.24593,0.0849 -0.3689,0.12735 -1.01535,0.41445 -1.99944,0.92572 -2.9537,1.46665 -1.20955,0.58778 -0.712,0.46781 -1.36981,-1.82908 -0.0192,-0.067 0.8364,-0.63648 0.87627,-0.66634 0.34507,-0.36625 2.11677,-1.27216 2.20685,-1.65938 -0.21646,0.38443 -0.36147,0.48917 -0.0635,1.04073 0.0992,0.18362 0.31999,0.26851 0.4887,0.39138 0.0382,0.0278 0.15766,0.0209 0.1291,0.0586 -0.0531,0.07 -0.16518,0.0602 -0.24573,0.0952 -0.11882,0.0517 -0.23469,0.10996 -0.35203,0.16494 -0.89254,0.33455 -1.73046,0.77999 -2.47403,1.37718 -0.0871,0.0602 -0.29784,0.27988 -0.26131,0.18052 0.53176,-1.4461 1.64173,2.88439 -0.89745,-1.98784 -0.0457,-0.0877 0.16004,-0.1161 0.24087,-0.17302 0.51361,-0.3617 0.35809,-0.253 0.92294,-0.61285 0.85641,-0.47661 1.83262,-0.79595 2.68611,-1.21531 -0.7949,0.33506 0.74525,1.75603 0.3083,1.95601 -0.33521,0.15342 -0.65318,0.25418 -0.98048,0.44077 -1.00374,0.63391 -2.02714,1.26688 -2.9463,2.02152 -0.37992,0.41444 -0.005,0.13919 -0.006,-0.14007 -0.001,-0.46379 -0.15045,-0.72227 -0.52472,-0.90206 1.51412,0.14034 0.92691,0.38965 0.18843,2.29723 -0.006,0.0152 -0.3625,0.0963 -0.3821,0.10101 -0.68552,0.15296 -1.35442,0.3758 -2.02051,0.59817 -0.58208,0.28658 -0.14607,0.38717 -0.14414,-0.18261 0.21209,0.12279 -0.1335,-0.19256 -0.0623,-0.21623 0.17587,-0.0585 0.61398,-0.0344 0.77586,-0.0322 0.3115,0.0545 0.59557,-0.0199 0.90081,-0.0687 1.55676,-0.24829 1.90789,1.95329 0.35113,2.20158 l 0,0 c -0.42971,0.0684 -0.86473,0.15039 -1.30138,0.0959 -1.20243,-0.0455 -1.91453,0.046 -2.69585,-1.06267 -0.0661,-0.22393 -0.17671,-0.43932 -0.19839,-0.6718 -0.1004,-1.07633 0.76819,-1.82187 1.66839,-2.17804 0.72569,-0.2422 1.45595,-0.48012 2.20206,-0.65034 0.0505,-0.0122 0.6855,-0.16916 0.68618,-0.15263 0.10245,2.47171 -1.0411,1.71373 0.10769,2.17334 0.069,0.0276 -0.55794,-0.15179 -0.22122,-0.0274 -0.20228,-0.0377 -0.41722,-0.0332 -0.60684,-0.1131 -1.4221,-0.59928 -1.04493,-2.00165 -0.11981,-2.80221 1.0342,-0.82869 2.15355,-1.55723 3.28362,-2.24708 0.26987,-0.14259 2.1309,-1.02719 2.3856,-0.72845 0.44091,0.51711 0.73265,1.16596 0.92042,1.81906 0.0403,0.14008 -0.20552,0.20672 -0.30828,0.31007 -0.86416,0.53042 -1.85329,0.79088 -2.75153,1.25847 -0.3499,0.2211 -1.28383,0.8966 -1.32288,0.87787 -1.56609,-0.75125 -2.41448,-1.14538 -1.2538,-1.92034 0.89479,-0.69276 1.86917,-1.26313 2.93407,-1.65594 0.50939,-0.22428 1.25443,-0.62609 1.83983,-0.46921 1.12065,0.30033 1.36177,1.11332 0.90855,2.08219 -0.72872,0.89081 -1.74881,1.42701 -2.65897,2.11258 -0.0611,0.0457 -1.21919,0.93052 -1.25127,0.8932 -1.67975,-1.9535 -1.57841,-1.69916 -0.68177,-2.12702 1.08281,-0.60253 2.18526,-1.19303 3.34263,-1.63835 0.36946,-0.11926 1.56962,-0.59828 1.90971,-0.18801 0.99609,1.20163 0.74123,1.63105 -0.0721,2.36961 -0.93938,0.69942 -1.94238,1.30441 -2.97142,1.86285 -0.86088,0.50594 -0.23017,0.2478 -1.33863,-1.69083 -0.0287,-0.0501 0.11433,-0.0189 0.16943,-0.0362 0.13207,-0.0414 0.261,-0.0924 0.39269,-0.13503 0.14711,-0.0476 0.29573,-0.0904 0.4436,-0.13565 0.66176,-0.19608 1.78336,-0.53014 2.4493,-0.20991 0.27183,0.13071 0.49131,0.35002 0.73697,0.52503 0.0843,0.31359 0.2647,0.61625 0.25304,0.94078 -0.0401,1.11659 -1.44606,1.58765 -2.25113,1.96641 -1.32069,0.58565 -2.65212,1.16134 -4.01978,1.62851 -0.61636,0.1715 -1.54809,0.52438 -2.09171,-0.1116 -0.75874,-0.88764 -0.10571,-1.63096 0.54584,-2.05415 0.78245,-0.36121 1.61329,-0.52915 2.44063,-0.75663 0.24718,-0.0749 0.6858,-0.21366 0.70033,-0.19529 1.6798,2.12353 1.63128,1.74472 0.27991,2.28751 -1.12027,0.3901 -2.276,0.84587 -3.48082,0.78415 -0.352,-0.31118 -0.86973,-0.50222 -1.05601,-0.93355 -0.44493,-1.03026 1.11048,-1.70069 1.78701,-1.89053 0.77613,-0.25615 1.55206,-0.49849 2.29221,-0.85256 1.10919,-0.49241 0.14635,-0.0904 1.04968,1.70469 0.0563,0.11191 0.25501,-0.047 0.37563,-0.0131 0.19601,0.055 -0.96075,0.0595 -0.60099,0.10865 -0.98044,0.16692 -1.93105,0.4634 -2.9142,0.60763 -0.24316,-0.0203 -0.51347,0.0527 -0.72947,-0.0608 -1.32651,-0.69693 -1.01703,-1.7416 -0.2813,-2.65832 0.98479,-1.23099 2.72567,0.16172 1.74088,1.3927 z"
       inkscape:connector-curvature="0"
       transform="translate(0,0.10680097)" />
  </g>
</svg>
