<?xml version="1.0" encoding="UTF-8" standalone="no"?>
<!-- Created with Inkscape (http://www.inkscape.org/) -->

<svg
   xmlns:dc="http://purl.org/dc/elements/1.1/"
   xmlns:cc="http://creativecommons.org/ns#"
   xmlns:rdf="http://www.w3.org/1999/02/22-rdf-syntax-ns#"
   xmlns:svg="http://www.w3.org/2000/svg"
   xmlns="http://www.w3.org/2000/svg"
   xmlns:xlink="http://www.w3.org/1999/xlink"
   xmlns:sodipodi="http://sodipodi.sourceforge.net/DTD/sodipodi-0.dtd"
   xmlns:inkscape="http://www.inkscape.org/namespaces/inkscape"
   id="svg2"
   version="1.1"
   inkscape:version="0.48.4 r9939"
   width="382"
   height="604"
   sodipodi:docname="44491-54.svg">
  <metadata
     id="metadata8">
    <rdf:RDF>
      <cc:Work
         rdf:about="">
        <dc:format>image/svg+xml</dc:format>
        <dc:type
           rdf:resource="http://purl.org/dc/dcmitype/StillImage" />
        <dc:title />
      </cc:Work>
    </rdf:RDF>
  </metadata>
  <defs
     id="defs6" />
  <sodipodi:namedview
     pagecolor="#ffffff"
     bordercolor="#666666"
     borderopacity="1"
     objecttolerance="10"
     gridtolerance="10"
     guidetolerance="10"
     inkscape:pageopacity="0"
     inkscape:pageshadow="2"
     inkscape:window-width="1280"
     inkscape:window-height="732"
     id="namedview4"
     showgrid="false"
     inkscape:zoom="2.210294"
     inkscape:cx="150.28406"
     inkscape:cy="59.512533"
     inkscape:window-x="-8"
     inkscape:window-y="-8"
     inkscape:window-maximized="1"
     inkscape:current-layer="g1" />
  <image
     width="382"
     height="604"
     xlink:href="file:///C:/Users/Surface/Desktop/CHI2013%20BI%20GitRepo/public-dataset/input/cropped-display/44491-54.png"
     id="image10"
     x="0"
     y="0" />
  <g
     inkscape:groupmode="layer"
     id="layer1"
     inkscape:label="Layer"
     style="display:inline"
     sodipodi:insensitive="true">
    <g
       id="g0"
       inkscape:label="#g3024">
      <path
         inkscape:connector-curvature="0"
         d="m 176.43067,597.94714 c 0.68952,-0.52149 1.44338,-0.96221 2.21376,-1.35358 0.69748,-0.3462 1.45297,-0.46413 2.22055,-0.51478 0.67018,-0.0714 1.30298,0.0264 1.92433,0.28208 0.41445,0.11956 0.81145,0.23891 1.18375,0.46536 0.50425,0.25667 0.89764,0.68496 1.26598,1.10387 0.4669,0.53644 0.91624,1.08598 1.28102,1.69718 0.33442,0.50652 0.68116,1.00388 1.04154,1.49335 0.32515,0.44469 0.56854,0.94058 0.74523,1.17976 0.2669,0.46314 0.56584,0.89773 0.83219,1.3664 0.2105,0.57782 0.50508,1.10783 0.77965,1.65607 0.0726,0.14615 0.14449,0.29268 0.21328,0.44067 0.26702,1.00734 -1.78066,1.59025 -0.93547,1.65989 0,0 -0.97763,-2.0555 -0.97763,-2.0555 l 0,0 c 1.11065,-0.49406 1.3788,-0.40442 -0.12006,1.3909 -0.07,-0.13163 -0.13937,-0.26359 -0.20871,-0.39556 -0.27277,-0.5191 -0.56635,-1.02981 -0.75458,-1.58731 -0.20638,-0.38963 -0.463,-0.76866 -0.67181,-1.13613 -0.27099,-0.38416 -0.47917,-0.79299 -0.75194,-1.17287 -0.40424,-0.56048 -0.80883,-1.11967 -1.18024,-1.70217 -0.25719,-0.49875 -0.67262,-0.89934 -1.01775,-1.33683 -0.25789,-0.30153 -0.46721,-0.55587 -0.78342,-0.69534 0.39092,9.2e-4 -0.74629,-0.16055 -0.81765,-0.2683 -0.29865,-0.12803 -0.55021,-0.15197 -0.90668,-0.10407 -0.45439,0.0254 -0.90009,0.0722 -1.316,0.27385 -0.65284,0.33801 -1.29253,0.71021 -1.88865,1.14064 0,0 -1.37069,-1.82758 -1.37069,-1.82758 z"
         id="path2990"
         style="fill:#de2d26;fill-opacity:1;fill-rule:nonzero;stroke:none" />
      <path
         inkscape:connector-curvature="0"
         d="m 186.89519,594.79013 c 0.79325,0.19766 1.56168,0.20497 2.36636,0.12108 0.56519,-0.0795 1.13166,-0.14286 1.70142,-0.17617 0.37998,-0.0188 0.76041,-0.0164 1.14069,-0.0188 0.47691,-0.0267 0.92092,0.0112 1.38762,0.10969 0.60307,0.18189 1.18258,0.39902 1.73522,0.70351 0.73912,0.40003 1.42994,0.86018 2.10238,1.36228 0.62135,0.4666 1.04879,1.1105 1.53866,1.69575 0.41256,0.61755 0.9373,1.13777 1.37165,1.74082 0.46316,0.68007 0.94277,1.3467 1.41581,2.01915 0.3501,0.5186 0.70741,1.02977 1.05778,1.54719 0.31141,0.36965 0.57152,0.72845 0.84773,1.02788 0.24756,0.26284 0.53767,0.54532 0.79002,0.88074 0.5553,0.77847 0.11199,0.18441 -1.82551,1.34806 0,0 1.88206,-1.2753 1.88206,-1.2753 l 0,0 c -1.90877,1.48504 -1.34527,1.99612 -1.86387,1.30547 -0.20727,-0.26592 -0.43835,-0.49921 -0.67821,-0.73498 -0.35661,-0.42316 -0.71697,-0.83846 -1.05247,-1.28078 -0.33366,-0.50852 -0.69446,-0.99579 -1.03494,-1.50039 -0.47038,-0.67191 -0.95711,-1.33125 -1.4142,-2.01308 -0.39084,-0.57258 -0.90893,-1.04129 -1.27633,-1.63077 -0.35476,-0.4491 -0.68804,-0.91645 -1.1318,-1.2887 -0.60403,-0.45034 -1.22119,-0.86841 -1.88545,-1.22868 -0.37945,-0.26867 -0.85185,-0.33317 -1.27387,-0.51012 0.55465,4.4e-4 -0.62487,-10e-4 -0.6905,-0.002 -0.33892,-0.002 -0.67802,0.003 -1.01651,0.021 -0.53045,0.0271 -1.05579,0.10287 -1.58081,0.18122 -1.03316,0.11465 -2.04792,0.0982 -3.06105,-0.16398 0,0 0.44812,-2.24055 0.44812,-2.24055 z"
         id="path2992"
         style="fill:#de2d26;fill-opacity:1;fill-rule:nonzero;stroke:none" />
      <path
         inkscape:connector-curvature="0"
         d="m 240.16619,611.00443 c 0.45775,-1.17681 0.93136,-2.34702 1.40759,-3.5164 0.32801,-0.75662 0.51813,-1.56504 0.92211,-2.28571 0.163,-0.38793 0.43406,-0.71394 0.66899,-1.05979 0.11096,-0.30321 0.49173,-0.75238 0.7432,-1.11051 0.28842,-0.45383 0.70256,-0.86663 1.09151,-1.16319 0.35418,-0.24888 0.54337,-0.44692 0.8298,-0.71236 0.36605,-0.34209 0.68155,-0.72669 0.99234,-1.11966 0.39749,-0.43443 0.84225,-0.82222 1.23276,-1.26208 0.43745,-0.42408 0.60378,-0.56649 1.03265,-0.86867 0.26768,-0.16238 0.51669,-0.36618 0.76813,-0.54174 0.5059,-0.30127 0.98545,-0.65005 1.50746,-0.92621 0.48693,-0.18027 0.94669,-0.30141 1.41915,-0.48838 0.48408,-0.17816 0.93135,-0.43298 1.43239,-0.59251 0.57701,-0.27077 1.18218,-0.47733 1.76504,-0.73559 1.00166,-0.42345 2.02396,-0.79567 3.01379,-1.24674 0.98325,-0.41212 1.91716,-0.92817 2.90703,-1.32435 0.66461,-0.32572 1.37698,-0.53645 2.03571,-0.8718 0.45429,-0.26548 0.95162,-0.4238 1.46949,-0.49996 0.34363,-0.13729 0.98694,-0.38257 1.43617,-0.54944 0.0304,-0.0706 2.09439,-0.53328 1.12216,-0.26339 0.46698,-0.32276 1.02685,-0.46538 1.56468,-0.62523 1.03076,-0.32541 2.04286,-0.69856 3.05083,-1.08839 0.84287,-0.36808 1.77183,-0.55743 2.60581,-0.93983 0.34424,-0.20376 0.73295,-0.3111 1.06234,-0.53463 0.48146,-0.30714 1.04076,-0.46736 1.53506,-0.74303 -0.42847,-0.0279 1.86682,-0.64709 1.33651,-0.57132 0.47803,-0.30007 0.23831,-0.185 0.71249,-0.53676 0.444,-0.36016 0.90897,-0.69107 1.41277,-0.96143 1.0563,-0.54285 2.14235,-1.01917 3.21951,-1.51954 1.09787,-0.43611 2.18231,-0.91292 3.28891,-1.32753 0.67699,-0.20042 1.36638,-0.35872 2.05553,-0.51726 1.05231,-0.27279 2.07017,-0.65457 3.10406,-0.9873 1.12658,-0.36457 2.28174,-0.62771 3.41858,-0.95299 1.17696,-0.26686 2.33641,-0.59834 3.4998,-0.91861 1.28009,-0.41067 2.56895,-0.79118 3.84918,-1.20055 1.25761,-0.34909 2.51145,-0.70876 3.7957,-0.94762 0.94793,-0.31326 1.95873,-0.37598 2.91671,-0.63162 0.5515,-0.16024 1.09762,-0.33216 1.66288,-0.43735 1.10539,-0.17597 0.41793,-0.076 0.38973,2.20464 0,0 0.0265,-2.27301 0.0265,-2.27301 l 0,0 c 0.2575,2.43973 0.96531,2.12638 0.0165,2.30315 -0.52065,0.10642 -1.01788,0.28709 -1.52955,0.42913 -1.01303,0.25034 -2.05683,0.37204 -3.05913,0.67737 -1.18899,0.22235 -2.34788,0.56183 -3.5137,0.88006 -1.31059,0.41986 -2.62723,0.81908 -3.9407,1.2304 -1.1576,0.31764 -2.31423,0.63713 -3.4851,0.90176 -1.11532,0.31402 -2.24062,0.59077 -3.34577,0.94238 -1.09872,0.34445 -2.17824,0.75176 -3.30051,1.01764 -0.5865,0.12938 -1.17632,0.25622 -1.75031,0.42579 -1.05281,0.40181 -2.07407,0.89041 -3.12744,1.29192 -1.05521,0.48193 -2.11906,0.94037 -3.16059,1.45018 -0.41023,0.16901 -0.73062,0.50285 -1.0914,0.75248 -0.31437,0.23006 -0.61293,0.47416 -0.93965,0.68525 -0.4721,0.22666 -0.97106,0.38054 -1.43276,0.63492 -0.43226,0.20819 -0.87883,0.3785 -1.3058,0.59862 -0.44829,0.29325 -0.94127,0.48723 -1.41255,0.73922 -0.87626,0.36697 -1.79297,0.64025 -2.67768,0.98828 -1.07591,0.41955 -2.15798,0.81551 -3.26557,1.14402 -0.36945,0.0952 -0.71337,0.14888 -1.00699,0.36062 -0.49686,0.21099 -0.99324,0.31924 -1.5099,0.46889 -0.63325,0.23032 -1.25448,0.48987 -1.91042,0.65352 -0.26776,0.0335 -0.51493,0.13481 -0.74429,0.28213 -0.72232,0.37129 -1.49371,0.62845 -2.22755,0.97638 -0.95786,0.37685 -1.85101,0.89755 -2.80414,1.28693 -1.00419,0.45322 -2.03426,0.8417 -3.05534,1.25461 -0.65804,0.27873 -1.332,0.51755 -1.98893,0.79974 -0.44335,0.13858 -0.83314,0.39175 -1.27379,0.53607 -0.39157,0.15787 -0.78399,0.31362 -1.20055,0.38725 -0.39457,0.20759 -0.74405,0.48963 -1.14337,0.68548 -0.29261,0.218 -0.58614,0.42327 -0.89349,0.63205 -0.26028,0.17866 -0.49458,0.34171 -0.62872,0.51582 -0.36407,0.41101 -0.76759,0.78716 -1.15423,1.17483 -0.33444,0.41431 -0.67104,0.82791 -1.0605,1.19052 -0.30304,0.3162 -0.63133,0.62335 -0.98929,0.87584 -0.31546,0.27113 -0.55391,0.42697 -0.78085,0.81173 -0.28076,0.40141 -0.56112,0.67146 -0.72008,1.06442 -0.30756,0.46712 -0.37587,0.44643 -0.58037,0.92937 -0.37013,0.61366 -0.41719,1.39144 -0.76154,2.02356 -0.4565,1.12431 -0.88973,2.25763 -1.3762,3.3698 0,0 -2.17286,-0.72429 -2.17286,-0.72429 z"
         id="path2994"
         style="fill:#de2d26;fill-opacity:1;fill-rule:nonzero;stroke:none" />
      <path
         inkscape:connector-curvature="0"
         d="m 235.73169,586.97901 c -0.45105,0.51981 -1.03768,0.94118 -1.43,1.50939 -0.32472,0.45874 -0.61586,0.94905 -0.84334,1.46394 -0.24377,0.61987 -0.43641,1.2592 -0.67803,1.87915 -0.25112,0.54762 -0.38832,1.12802 -0.60487,1.68879 -0.18598,0.66057 -0.25462,1.33774 -0.43684,2.0016 -0.20451,0.64604 -0.23529,1.32175 -0.35707,1.98315 -0.19602,0.91634 -0.2927,1.84767 -0.35176,2.78146 -0.0506,0.99935 -0.0447,2.0005 -0.0471,3.00083 0.0279,1.0845 0.15919,2.18285 0.36717,3.24877 0.15104,0.65306 0.30136,1.30627 0.44405,1.9612 0.27525,1.178 -0.75786,1.90524 -1.82825,1.3813 0,0 1.03635,-2.02413 1.03635,-2.02413 l 0,0 c 0.50193,0.27443 -0.45153,-0.27386 -1.05826,0.25062 -0.57163,0.49413 -0.20338,1.51802 -0.36409,0.91525 -0.17388,-0.68285 -0.33833,-1.36802 -0.5002,-2.0538 -0.22459,-1.21106 -0.38647,-2.45122 -0.40214,-3.68263 6.6e-4,-1.04764 0.001,-2.09586 0.0543,-3.14245 0.0653,-1.03678 0.16951,-2.07228 0.40074,-3.08711 0.16386,-0.70465 0.1496,-1.45035 0.39634,-2.14123 0.20335,-0.73496 0.24132,-1.5018 0.51423,-2.21984 0.2224,-0.57092 0.35733,-1.16809 0.61775,-1.72681 0.28666,-0.63196 0.42664,-1.33832 0.7196,-1.97203 0.30797,-0.65293 0.65783,-1.29157 1.08635,-1.87379 0.55531,-0.72274 1.21666,-1.36171 1.89432,-1.96922 0,0 1.37069,1.82759 1.37069,1.82759 z"
         id="path2996"
         style="fill:#de2d26;fill-opacity:1;fill-rule:nonzero;stroke:none" />
      <path
         inkscape:connector-curvature="0"
         d="m 121.70023,543.528 c 0.68837,0.39732 1.33732,0.86287 2.06942,1.17865 0.65481,0.29073 1.2887,0.63014 1.94763,0.91068 0.58669,0.32653 1.21319,0.55069 1.82417,0.82397 0.58694,0.35142 1.21339,0.60834 1.82992,0.89992 0.48525,0.18613 0.95409,0.392 1.41252,0.64064 0.40356,0.0615 0.71865,0.36909 1.09435,0.4893 0.52263,0.34739 1.11267,0.56241 1.67604,0.83356 0.66478,0.27891 1.32367,0.56014 1.97589,0.86806 0.40583,0.14939 0.79993,0.3333 1.20391,0.48934 0.61869,0.26845 1.22739,0.56763 1.85993,0.80355 0.54706,0.15495 1.02231,0.49102 1.57417,0.62883 0.0293,0.0813 1.18598,0.42912 0.43842,0.23591 0,0 -0.15773,2.2655 -0.15773,2.2655 l 0,0 c -0.31533,-0.0468 -0.64547,-0.0899 -0.90013,-0.30302 -0.61444,-0.18181 -1.17707,-0.47223 -1.77799,-0.68767 -0.64731,-0.25409 -1.28004,-0.54714 -1.91139,-0.83579 -0.43016,-0.18457 -0.84957,-0.36639 -1.29219,-0.52302 -0.67074,-0.30654 -1.34504,-0.58976 -2.02335,-0.87989 -0.5158,-0.25878 -1.11324,-0.47693 -1.56161,-0.79967 -0.42722,-0.19412 -0.82545,-0.43488 -1.27597,-0.57623 -0.43155,-0.22902 -0.83569,-0.40301 -1.31604,-0.58112 -0.59996,-0.28538 -1.21778,-0.52899 -1.78517,-0.87962 -0.60101,-0.27006 -1.22243,-0.48716 -1.79862,-0.81225 -0.66056,-0.28992 -1.30628,-0.61264 -1.96311,-0.91119 -0.88654,-0.39657 -1.70649,-0.91325 -2.51376,-1.45085 0,0 1.37069,-1.82759 1.37069,-1.82759 z"
         id="path2998"
         style="fill:#de2d26;fill-opacity:1;fill-rule:nonzero;stroke:none" />
      <path
         inkscape:connector-curvature="0"
         d="m 119.48334,594.79013 c 0.83795,0.1531 1.67768,0.25598 2.49657,0.49603 0.46459,0.13611 0.93393,0.2693 1.41746,0.31545 0.41699,0.0314 0.83621,0.0217 1.25415,0.0228 0.58794,-0.0312 1.13283,0.2176 1.69155,0.35884 0.49662,0.0521 0.9704,0.11647 1.43926,0.30267 0.33245,0.1753 0.68648,0.23389 1.0411,0.35252 0.491,0.18435 0.99426,0.30546 1.48195,0.50404 0.54516,0.1202 1.01882,0.43457 1.55222,0.5826 0.74917,0.24741 1.47802,0.55203 2.23691,0.76874 0.9177,0.17717 1.81982,0.41557 2.74453,0.55723 0.97125,0.0487 1.90899,0.29229 2.85938,0.47281 0.74255,0.10324 1.48143,0.15706 2.21589,0.3135 0.84156,0.12567 1.66497,0.30041 2.48782,0.51636 0.79037,0.13322 1.55699,0.369 2.34471,0.51609 0.83254,0.23097 1.66413,0.46294 2.48831,0.72247 0.92111,0.29188 1.84894,0.5562 2.77677,0.82802 0.7976,0.18962 1.56105,0.48291 2.33865,0.73724 0.56317,0.23611 1.11079,0.50497 1.66777,0.7551 0.60863,0.30702 1.24415,0.54592 1.83287,0.8913 0.41285,0.21142 0.84911,0.33685 1.2626,0.55237 0.38188,0.14592 0.59837,0.50171 0.92253,0.7114 0.0933,0.0565 0.0716,0.0432 -0.0657,-0.0388 0,0 -0.67745,2.16962 -0.67745,2.16962 l 0,0 c -0.41672,-0.16855 -0.2549,-0.0814 -0.50191,-0.22839 -0.32386,-0.21295 -0.62527,-0.55474 -0.73743,-0.5951 -0.3327,-0.17594 -0.90641,-0.32677 -1.36182,-0.59947 -0.5205,-0.30712 -1.09335,-0.50761 -1.62951,-0.78531 -0.4688,-0.21941 -0.93982,-0.43016 -1.40737,-0.6533 -0.76392,-0.23845 -1.50893,-0.53045 -2.29269,-0.70274 -0.94296,-0.27702 -1.8826,-0.55994 -2.82003,-0.85236 -0.73722,-0.23432 -1.48195,-0.43646 -2.22456,-0.65401 -0.83781,-0.16138 -1.65368,-0.4065 -2.49397,-0.55426 -0.79289,-0.20509 -1.58529,-0.36606 -2.39478,-0.49361 -0.71365,-0.15727 -1.43617,-0.18458 -2.15828,-0.30061 -0.92685,-0.17544 -1.84173,-0.39988 -2.78821,-0.44907 -1.02291,-0.16274 -2.02356,-0.42264 -3.03723,-0.6306 -0.76595,-0.23034 -1.50889,-0.52516 -2.26332,-0.78931 -0.5936,-0.19268 -1.14102,-0.48595 -1.74365,-0.65355 -0.48349,-0.19974 -0.9955,-0.29691 -1.47859,-0.50986 0.0229,-0.002 0.0907,10e-4 0.0685,-0.005 -0.37502,-0.0958 -0.76221,-0.14922 -1.10593,-0.34518 -0.0466,-0.0198 -0.12246,-0.0119 -0.13987,-0.0595 -0.0135,-0.0368 0.15644,0.004 0.11759,-10e-4 -0.36887,-0.0491 -0.74816,-0.0367 -1.11016,-0.14019 -0.41014,-0.10163 -0.79447,-0.28563 -1.1364,-0.28985 -0.50028,0.002 -1.00167,0.005 -1.50055,-0.0381 -0.61669,-0.0707 -1.22385,-0.19646 -1.81713,-0.38103 -0.75436,-0.22017 -1.53498,-0.28132 -2.30066,-0.45644 0,0 0.44811,-2.24055 0.44811,-2.24055 z"
         id="path3000"
         style="fill:#de2d26;fill-opacity:1;fill-rule:nonzero;stroke:none" />
      <path
         inkscape:connector-curvature="0"
         d="m 179.66236,597.9087 c -0.34,0.76727 -0.49558,1.58718 -0.61906,2.41135 -0.0434,0.72523 -0.31252,1.40687 -0.45258,2.11397 -0.0824,0.44353 -0.10097,0.88702 -0.18331,1.33062 -0.15823,0.82398 -0.46304,1.59192 -0.82794,2.34312 -0.19679,0.34582 -0.34979,0.70293 -0.44826,1.08737 -0.16084,0.78261 -0.8452,1.06617 -1.53563,1.11394 -0.36715,0.009 -0.018,0.01 0.27316,-0.0852 0.061,-0.0199 0.2085,-0.14782 0.16212,-0.10354 -0.17091,0.16316 -0.3818,0.27532 -0.58847,0.38432 -0.33734,0.15255 -0.70036,0.21362 -1.06611,0.24321 -0.98667,0.0609 -0.35617,-0.3498 -0.60835,-2.19174 -0.0275,0.0132 -0.0551,0.0265 -0.0826,0.0397 0,0 1.40768,1.78378 1.40768,1.78378 l 0,0 c -0.0921,0.0642 -0.18412,0.1283 -0.27618,0.19245 -0.40032,-1.5919 -0.0464,-2.06441 -0.63937,-2.08229 0.0622,-0.007 0.37204,-0.0784 0.20838,0.004 0.2035,-0.10596 0.60283,-0.48003 1.0814,-0.45373 0.1611,-0.002 -0.10216,0.0601 -0.13159,0.081 -0.34399,0.24498 -0.138,0.15068 -0.4393,0.66637 -0.0222,0.038 0.0174,-0.0864 0.0262,-0.12953 0.1283,-0.54284 0.32748,-1.06019 0.59239,-1.55177 0.2912,-0.60079 0.5435,-1.20786 0.6711,-1.86814 0.0605,-0.39702 0.0775,-0.84669 0.16436,-1.25836 0.13695,-0.66424 0.36691,-1.31017 0.41877,-1.98887 0.14131,-1.00454 0.34515,-2.00286 0.77057,-2.93093 0,0 2.12269,0.84907 2.12269,0.84907 z"
         id="path3002"
         style="fill:#de2d26;fill-opacity:1;fill-rule:nonzero;stroke:none" />
    </g>
  </g>
  <g
     inkscape:groupmode="layer"
     id="layer2"
     inkscape:label="Layer#1"
     style="display:inline">
    <g
       id="g1"
       inkscape:label="#g3017">
      <path
         inkscape:connector-curvature="0"
         d="m 156.53722,577.91257 c 0.7649,0.60179 1.61156,1.08719 2.40399,1.64916 0.61277,0.39782 1.2157,0.80692 1.82287,1.21223 0.64975,0.40927 1.25929,0.88173 1.92148,1.27207 0.72445,0.43414 1.40871,0.92893 2.14907,1.33648 0.93054,0.46304 1.79009,1.03448 2.6585,1.60135 0.96625,0.66418 2.0054,1.20498 2.9857,1.84795 0.67467,0.43884 1.32065,0.94476 2.02716,1.33244 0.5894,0.34802 1.07856,0.82205 1.60075,1.25599 0.52487,0.41865 1.11561,0.7431 1.65916,1.13897 0.41726,0.30002 0.84026,0.5909 1.26667,0.88017 0.34786,0.30367 0.73703,0.5108 1.11577,0.76425 0.33138,0.27631 0.67244,0.54645 0.92874,0.92891 0.16214,0.2216 0.33573,0.43132 0.52162,0.63291 0.26435,0.34849 0.55918,0.65974 0.7896,1.03843 0.11069,0.19569 0.20338,0.40067 0.27985,0.6119 0,0 -2.12778,0.77838 -2.12778,0.77838 l 0,0 c -0.0341,-0.0775 -0.0687,-0.15486 -0.11039,-0.22872 -0.15722,-0.28721 -0.40528,-0.51106 -0.50804,-0.65956 -0.26884,-0.29348 -0.52231,-0.60104 -0.74734,-0.92975 -0.008,-0.0174 -0.0408,-0.0587 -0.0229,-0.0522 0.0338,0.0123 0.12468,0.0712 0.0955,0.0502 -0.1596,-0.11525 -0.36802,-0.20166 -0.48459,-0.36352 0.40451,0.11378 -1.21661,-0.63508 -1.00344,-0.6796 -0.45577,-0.30505 -0.89816,-0.6184 -1.35231,-0.92797 -0.58006,-0.43479 -1.23809,-0.7563 -1.78171,-1.2398 -0.40596,-0.34988 -0.78939,-0.72122 -1.24618,-1.00656 -0.74042,-0.4258 -1.4499,-0.91023 -2.15599,-1.38983 -0.98825,-0.63405 -2.02738,-1.18114 -2.99158,-1.85239 -0.82299,-0.53843 -1.63186,-1.08876 -2.51698,-1.52445 -0.75753,-0.42698 -1.47156,-0.92025 -2.21183,-1.37559 -0.68942,-0.41989 -1.33842,-0.90006 -2.01532,-1.33845 -0.62326,-0.42019 -1.24909,-0.83376 -1.88143,-1.24166 -0.8031,-0.5773 -1.68766,-1.0445 -2.43929,-1.69417 0,0 1.37069,-1.82758 1.37069,-1.82758 z"
         id="path3007"
         style="fill:#fc9272;fill-opacity:1;fill-rule:nonzero;stroke:none" />
      <path
         inkscape:connector-curvature="0"
         d="m 235.42412,539.34494 c -0.17254,0.95514 -0.21968,1.92662 -0.39193,2.88079 -0.17965,0.7687 -0.3222,1.54533 -0.38914,2.3321 -0.20224,0.86623 -0.31112,1.75031 -0.49635,2.61899 -0.25635,0.88939 -0.34264,1.80515 -0.39978,2.72457 -0.14883,1.00951 -0.34618,2.00814 -0.42479,3.02663 -0.0882,1.16914 -0.29795,2.32385 -0.40495,3.4925 -0.0611,1.23404 -0.32988,2.44356 -0.4532,3.67151 -0.0807,1.19151 -0.0875,2.37764 -0.26154,3.56076 -0.17493,1.02243 -0.24179,2.05866 -0.28535,3.09368 -0.0318,0.92958 -0.0315,1.85984 -0.032,2.78984 -4.7e-4,0.79549 0.001,1.59101 -0.003,2.38651 0.002,0.59701 -0.002,1.19401 -0.002,1.79102 0.001,0.55041 -0.001,1.10081 8.2e-4,1.65123 0.0252,0.65724 -4.7e-4,1.29186 -0.17079,1.9297 -0.17082,0.67792 -0.24786,1.36943 -0.40604,2.0516 -0.16321,0.90904 -0.37903,1.80755 -0.69872,2.67466 -0.25571,0.67327 -0.50459,1.34813 -0.75162,2.0248 -0.1399,0.63863 -0.35865,1.25449 -0.54292,1.88131 -0.11307,0.46901 -0.17814,0.93436 -0.34561,1.39131 -0.17743,0.54745 -0.42492,1.06724 -0.61659,1.61061 -0.0361,0.43994 -0.30383,0.78641 -0.49767,1.16289 -0.0348,0.0682 -0.0671,0.13766 -0.0986,0.2074 0,0 -2.08097,-0.90318 -2.08097,-0.90318 l 0,0 c 0.0515,-0.12149 0.10424,-0.24245 0.16433,-0.36 0.0862,-0.16323 0.13485,-0.2649 0.24375,-0.42318 0.0296,-0.0431 -0.0367,0.20566 -0.0239,0.155 0.0215,-0.0846 0.0337,-0.1713 0.0506,-0.25695 0.028,-0.10716 0.0561,-0.21432 0.0841,-0.32148 0.18948,-0.56688 0.44336,-1.10503 0.63721,-1.66867 0.11607,-0.30379 0.16417,-0.78154 0.28584,-1.2261 0.19117,-0.67713 0.425,-1.33981 0.58557,-2.0251 0.24583,-0.69118 0.50915,-1.3748 0.76062,-2.06391 0.30511,-0.76304 0.43764,-1.58361 0.6082,-2.38355 0.16842,-0.7104 0.24394,-1.43381 0.44027,-2.13797 0.1285,-0.43021 0.0879,-0.86841 0.0869,-1.31922 0.002,-0.55034 -6.2e-4,-1.10067 8.2e-4,-1.65102 3.8e-4,-0.59632 -0.004,-1.19264 -0.003,-1.78897 -0.005,-0.79638 -0.006,-1.5928 -0.008,-2.38919 -1.3e-4,-0.96124 -0.001,-1.92272 0.0292,-2.88358 0.0444,-1.11581 0.11782,-2.2318 0.30509,-3.33417 0.16795,-1.14997 0.14653,-2.3064 0.24632,-3.46357 0.12905,-1.21856 0.37119,-2.42252 0.44701,-3.64599 0.10736,-1.16205 0.31981,-2.30908 0.41178,-3.47079 0.0877,-1.00173 0.24571,-1.99154 0.42092,-2.98139 0.0662,-1.03833 0.17569,-2.07323 0.45682,-3.07891 0.18152,-0.76566 0.23543,-1.55973 0.45653,-2.31874 0.0767,-0.86276 0.21063,-1.71834 0.41349,-2.56105 0.19498,-0.9556 0.17026,-1.95022 0.41112,-2.90084 0,0 2.24056,0.44811 2.24056,0.44811 z"
         id="path3009"
         style="fill:#fc9272;fill-opacity:1;fill-rule:nonzero;stroke:none" />
      <path
         inkscape:connector-curvature="0"
         d="m 213.3312,539.12089 c -0.016,0.95328 0.0841,1.90851 0.30804,2.83554 0.22991,1.013 0.50752,2.01364 0.72994,3.0282 0.17393,1.17108 0.5457,2.29552 0.82442,3.44256 0.22598,1.10751 0.53296,2.19337 0.71019,3.31073 0.10529,0.68209 0.0828,1.36622 0.24662,2.03516 0.23612,0.95925 0.28723,1.94996 0.32899,2.93301 0.14065,0.80652 0.30355,1.60575 0.39172,2.42056 0.0851,1.05416 -0.1455,2.10349 -0.2384,3.15198 0.0406,1.0158 0.16951,2.02532 0.24414,3.03901 0.0611,0.88199 0.071,1.76617 0.0782,2.64988 -0.0669,0.70513 0.0818,1.37274 0.19555,2.06285 0.14975,0.94065 0.20817,1.89198 0.24204,2.8428 0.0245,0.94375 0.0238,1.88789 0.0231,2.83188 -0.003,0.93858 -4.3e-4,1.8772 -0.007,2.81577 1e-5,0.65851 -0.006,1.31701 -0.006,1.97552 0.03,0.69084 -0.0157,1.36341 -0.14618,2.04254 -0.14387,0.64325 -0.22179,1.29544 -0.2812,1.95085 -0.0964,1.19495 0.11821,0.48299 -2.26253,0.8697 0,0 1.9684,-1.1501 1.9684,-1.1501 l 0,0 c -2.20737,0.80214 -2.04435,1.34026 -1.98256,0.0954 0.0542,-0.74324 0.14792,-1.4819 0.30746,-2.21061 0.10879,-0.5314 0.14241,-1.05308 0.11145,-1.59789 -6e-5,-0.65893 -0.006,-1.31785 -0.005,-1.97678 -0.005,-0.93856 -5.4e-4,-1.87714 -0.002,-2.8157 3.5e-4,-0.91599 0.009,-1.83221 -0.0125,-2.74801 -0.0312,-0.85596 -0.0948,-1.71156 -0.22081,-2.55925 -0.12592,-0.80074 -0.26662,-1.5952 -0.21664,-2.40978 -0.007,-0.83289 -0.027,-1.66606 -0.0815,-2.49734 -0.0868,-1.14135 -0.2574,-2.27839 -0.24697,-3.42488 0.0872,-0.89712 0.28005,-1.79765 0.25489,-2.69632 -0.0889,-0.86424 -0.30259,-1.70333 -0.40944,-2.56479 -0.0352,-0.83542 -0.0683,-1.67983 -0.25567,-2.49756 -0.17161,-0.73069 -0.20132,-1.46523 -0.29219,-2.20786 -0.16704,-1.05596 -0.48343,-2.0764 -0.68558,-3.12553 -0.28201,-1.16526 -0.65665,-2.30833 -0.83095,-3.49816 -0.21588,-1.00514 -0.48917,-1.99637 -0.72245,-2.99756 -0.24711,-1.09995 -0.40384,-2.22583 -0.34525,-3.35584 0,0 2.28448,0 2.28448,0 z"
         id="path3011"
         style="fill:#fc9272;fill-opacity:1;fill-rule:nonzero;stroke:none" />
      <path
         inkscape:connector-curvature="0"
         d="m 262.32237,563.68823 c -0.57203,1.09592 -1.16628,2.17987 -1.71239,3.28946 -0.51048,1.01384 -1.03571,2.021 -1.52571,3.04501 -0.50374,0.98713 -0.9978,1.97903 -1.50422,2.96483 -0.4311,0.94568 -0.83041,1.90652 -1.23695,2.86343 -0.40364,0.85641 -0.95399,1.63543 -1.45744,2.43565 -0.42428,0.64692 -0.90036,1.25472 -1.2813,1.9294 -0.43161,0.64117 -0.83011,1.30048 -1.30204,1.91354 -0.38189,0.48524 -0.73325,0.94876 -1.22991,1.32428 -0.5429,0.38986 -1.15331,0.62662 -1.80122,0.77078 -0.0795,0.0917 -1.23237,0.45465 -0.82002,0.35074 -0.0136,0.0376 -0.33671,0.23844 -0.43293,0.30517 -0.033,0.0229 0.0693,-0.041 0.10643,-0.0562 0.0648,-0.0264 -0.0768,0.11705 -0.11876,0.17306 -0.20788,0.52937 -0.43645,1.05324 -0.67106,1.57229 -0.17999,0.43339 -0.0922,0.21913 -0.26349,0.64272 0,0 -2.12802,-0.85057 -2.12802,-0.85057 l 0,0 c 0.19232,-0.48617 0.0899,-0.2357 0.30848,-0.7509 0.31421,-0.66579 0.55129,-1.37389 0.9444,-1.99896 0.29438,-0.37647 0.63372,-0.67822 1.02058,-0.95013 0.4987,-0.26815 1.02711,-0.48491 1.56474,-0.66569 0.37597,-0.0808 0.71674,-0.21213 1.03109,-0.44231 -0.0628,0.15577 0.13008,-0.10196 0.14108,-0.11699 0.48514,-0.6633 0.007,-0.0653 0.37008,-0.50379 0.0579,-0.0699 0.11496,-0.14055 0.17244,-0.21083 0.41487,-0.52331 0.73389,-1.10806 1.11759,-1.65332 0.40554,-0.69391 0.87803,-1.33939 1.33004,-2.0029 0.43804,-0.69739 0.90693,-1.38073 1.27823,-2.11487 0.42792,-1.01002 0.84544,-2.02536 1.30335,-3.02185 0.49812,-0.9644 0.98812,-1.9325 1.47905,-2.90047 0.49229,-1.03142 1.0148,-2.04845 1.52528,-3.07091 0.57137,-1.16974 1.18998,-2.31381 1.83049,-3.44697 0,0 1.96211,1.17726 1.96211,1.17726 z"
         id="path3013"
         style="fill:#fc9272;fill-opacity:1;fill-rule:nonzero;stroke:none" />
      <path
         inkscape:connector-curvature="0"
         d="m 330.31934,577.03718 c 1.08409,-0.31304 2.09924,-0.82912 3.09709,-1.3484 0.8447,-0.48164 1.77349,-0.7866 2.6296,-1.24089 0.93735,-0.3924 1.70315,-1.05596 2.51257,-1.64963 0.63841,-0.41835 1.23079,-0.90152 1.90754,-1.25741 0.52501,-0.32966 1.03108,-0.68368 1.57097,-0.99065 0.59597,-0.39966 1.30588,-0.5984 1.92323,-0.94702 0.59713,-0.33591 1.25969,-0.50691 1.9077,-0.71321 0.81463,-0.3106 1.59302,-0.70217 2.38332,-1.06808 0.52269,-0.33071 1.04857,-0.65216 1.60549,-0.92281 0.8496,-0.38778 0.21954,-0.16705 0.34341,2.02807 0,0 0.39288,-2.24047 0.39288,-2.24047 l 0,0 c 0.4351,2.26661 1.07038,1.85488 0.28215,2.2479 -0.57126,0.29682 -1.09911,0.65957 -1.658,0.97774 -0.87994,0.40568 -1.7475,0.8405 -2.66253,1.16484 -0.52715,0.16295 -1.06585,0.28246 -1.54777,0.56019 -0.61709,0.30557 -1.26232,0.5528 -1.85168,0.91661 -0.56332,0.30562 -1.07308,0.69027 -1.62851,1.00862 -0.57518,0.30049 -1.05668,0.74968 -1.60366,1.09738 -0.9052,0.66295 -1.77338,1.38792 -2.81733,1.83178 -0.85945,0.43832 -1.76966,0.7636 -2.61145,1.24029 -1.18538,0.63307 -2.40892,1.24756 -3.72691,1.5457 0,0 -0.44811,-2.24055 -0.44811,-2.24055 z"
         id="path3015"
         style="fill:#fc9272;fill-opacity:1;fill-rule:nonzero;stroke:none" />
      <path
         style="fill:#fc9272;fill-opacity:1;stroke:none"
         id="path3772"
         d="m 122.32168,544.85753 c -0.72606,-0.97443 -1.7062,-1.71144 -2.58514,-2.53901 -0.85553,-0.75904 -1.86689,-1.32166 -2.92241,-1.75023 -0.98119,-0.36835 -1.91185,-0.83677 -2.82212,-1.35379 -0.80815,-0.40188 -1.65416,-0.74562 -2.50942,-1.03748 -0.82251,-0.31902 -1.63693,-0.63706 -2.36057,-1.14761 -0.60032,-0.43978 -1.34455,-0.60727 -2.06151,-0.76335 -0.74871,-0.0508 -1.37025,-0.45053 -2.03656,-0.74205 -0.58756,-0.32611 -1.08261,-0.76161 -1.71402,-1.00383 -0.69775,-0.33525 -1.37267,-0.7143 -2.06857,-1.0533 -0.75925,-0.2704 -1.440441,-0.69574 -2.101033,-1.14936 -0.757146,-0.42772 -1.557738,-0.78246 -2.353984,-1.13282 -0.684533,-0.4116 -1.431469,-0.70135 -2.077103,-1.17537 -0.566517,-0.36902 -1.124653,-0.74222 -1.771277,-0.95355 -0.800027,-0.32697 -1.630099,-0.5867 -2.417425,-0.94222 -0.843191,-0.38533 -1.722676,-0.67307 -2.627712,-0.8697 -0.890684,-0.24736 -1.836787,-0.26114 -2.714733,-0.54047 -0.662674,-0.31067 -1.14899,-0.84631 -1.677358,-1.33148 -0.624425,-0.56918 -1.36899,-0.99184 -2.115711,-1.37904 -0.882598,-0.46906 -1.771178,-0.93003 -2.674372,-1.35874 -0.917363,-0.45162 -1.828791,-0.91612 -2.67323,-1.49531 -0.749773,-0.48494 -1.554098,-0.88599 -2.362853,-1.26327 -0.951543,-0.25296 -1.803912,-0.68016 -2.66168,-1.15152 -0.813169,-0.60195 -1.765737,-0.84902 -2.710163,-1.14542 -0.944486,-0.22661 -1.776159,-0.72788 -2.596599,-1.22598 -0.687215,-0.5737 -1.380099,-1.14329 -2.053981,-1.73409 -0.902677,-0.65849 -1.764351,-1.36606 -2.596356,-2.11119 -0.900558,-0.71539 -1.788829,-1.443 -2.715316,-2.12444 -0.666333,-0.57069 -1.358209,-1.14143 -2.14071,-1.54584 -0.830782,-0.44454 -1.582622,-1.01587 -2.396513,-1.49031 -0.924229,-0.57503 -1.821181,-1.19866 -2.699282,-1.84258 -0.893446,-0.59046 -1.798364,-1.16501 -2.716142,-1.71699 -0.770282,-0.5471 -1.542265,-1.09672 -2.395766,-1.50587 -1.318391,-0.52822 -2.520841,-1.28954 -3.79669,-1.9034 -1.565385,-0.61507 -3.009051,-1.43502 -4.413111,-2.35241 0,0 1.082642,-0.69486 1.082642,-0.69486 l 0,0 c 1.406179,0.91248 2.861851,1.70627 4.422624,2.32655 1.276373,0.61942 2.48851,1.36909 3.811259,1.89406 0.852905,0.41889 1.629693,0.96498 2.401774,1.51657 0.917531,0.55868 1.83028,1.12661 2.720684,1.72771 0.877554,0.63853 1.769438,1.26324 2.695034,1.8296 0.809729,0.47917 1.565876,1.04415 2.399838,1.48121 0.778475,0.42281 1.472834,0.99177 2.141817,1.56839 0.928584,0.68438 1.819529,1.41529 2.719879,2.13629 0.834271,0.74291 1.701319,1.44331 2.600063,2.10703 0.671981,0.5825 1.359707,1.14816 2.045671,1.71271 0.811455,0.49698 1.641346,0.97571 2.576837,1.1997 0.954059,0.29207 1.898882,0.57713 2.72298,1.16914 0.85582,0.47127 1.719681,0.86681 2.65957,1.14281 0.812127,0.38447 1.625138,0.78214 2.373515,1.28162 0.841993,0.57178 1.748248,1.03202 2.661161,1.47893 0.902397,0.43437 1.794579,0.89127 2.678527,1.36173 0.754864,0.39815 1.509563,0.82442 2.141737,1.40427 0.510695,0.47583 0.98859,0.99574 1.640988,1.28316 0.881223,0.25362 1.81571,0.29728 2.704077,0.53564 0.909853,0.20741 1.798067,0.49746 2.646462,0.88902 0.789205,0.34574 1.611341,0.61679 2.414223,0.92981 0.650148,0.22967 1.221575,0.60727 1.793647,0.98657 0.643223,0.45861 1.376604,0.75557 2.055329,1.15618 0.801825,0.35684 1.614636,0.70515 2.371592,1.15005 0.65963,0.44442 1.33578,0.86266 2.08779,1.13544 0.69248,0.34111 1.36942,0.71241 2.06783,1.04159 0.62385,0.25777 1.12466,0.69054 1.71707,1.00812 0.65677,0.29715 1.28078,0.66419 2.01967,0.72141 0.73172,0.16748 1.4792,0.34597 2.08721,0.80835 0.72078,0.4944 1.52892,0.8059 2.34291,1.11579 0.8565,0.3046 1.70883,0.64466 2.51611,1.06154 0.90865,0.50992 1.83668,0.97236 2.81261,1.34075 1.06201,0.44749 2.0854,1.01716 2.94463,1.79307 0.88499,0.83472 1.86034,1.58565 2.61469,2.5478 0,0 -1.15303,0.68427 -1.15303,0.68427 z"
         inkscape:connector-curvature="0" />
      <path
         style="fill:#fc9272;fill-opacity:1;stroke:none"
         id="path3774"
         d="m 247.07688,585.84263 c -0.60146,1.17019 -1.38036,2.20802 -2.2651,3.17552 -0.87874,0.69926 -1.55413,1.56795 -2.21983,2.45823 -0.41198,0.60034 -0.86706,1.1737 -1.37246,1.69822 -0.65561,0.57284 -1.27929,1.17661 -1.86249,1.82304 -0.52875,0.66926 -0.75808,1.49913 -1.07603,2.27476 -0.30928,0.75728 -0.54915,1.54536 -0.76625,2.33416 -0.26666,0.80527 -0.67964,1.54771 -1.05256,2.30599 -0.45353,0.66082 -0.73453,1.40607 -1.06225,2.13113 -0.34874,0.63052 -0.76934,1.2169 -1.12204,1.84789 0,0 -1.21179,0.54253 -1.21179,0.54253 l 0,0 c 0.34304,-0.63369 0.74866,-1.22246 1.11978,-1.83512 0.32564,-0.72811 0.59985,-1.48129 1.06556,-2.13709 0.36438,-0.75636 0.77803,-1.49001 1.06218,-2.28272 0.21065,-0.7947 0.45467,-1.58617 0.75698,-2.34997 0.33998,-0.77616 0.5438,-1.62433 1.0601,-2.315 0.57145,-0.6549 1.19456,-1.26049 1.85331,-1.82789 0.52403,-0.50386 0.9706,-1.09007 1.3865,-1.68438 0.68189,-0.88537 1.31998,-1.79839 2.23163,-2.477 0.88384,-0.95003 1.66654,-1.96383 2.2516,-3.1289 0,0 1.22316,-0.5534 1.22316,-0.5534 z"
         inkscape:connector-curvature="0" />
      <path
         style="fill:#fc9272;fill-opacity:1;stroke:none"
         id="path3776"
         d="m 226.36894,587.72236 c 0.28595,-0.15538 0.55182,-0.35545 0.85785,-0.46614 0.1287,-0.0465 -0.2157,0.16987 -0.3108,0.26829 -0.43152,0.44656 -0.63308,0.998 -0.80283,1.58081 -0.28019,0.98605 -0.59002,1.9578 -0.98467,2.90387 -0.39471,0.85153 -0.83156,1.67866 -1.31028,2.48517 -0.4443,0.70596 -0.27265,1.52913 -0.32645,2.31438 -0.049,0.73928 -0.24782,1.43687 -0.45641,2.14182 -0.20042,0.91011 -0.3055,1.851 -0.23677,2.78138 0.1418,0.9248 0.26543,1.85015 0.33178,2.78359 -0.0611,0.62977 -0.11727,1.25777 -0.10755,1.89074 0.007,0.0701 0.0138,0.14018 0.0207,0.21026 0,0 -1.19094,0.62309 -1.19094,0.62309 l 0,0 c -0.009,-0.0732 -0.0172,-0.1465 -0.0258,-0.21975 -0.0245,-0.63129 0.0483,-1.26466 0.12332,-1.89259 -0.0634,-0.93337 -0.18244,-1.85917 -0.32977,-2.78297 -0.0823,-0.94264 0.0293,-1.8943 0.20853,-2.82149 0.20111,-0.70048 0.42348,-1.3831 0.46913,-2.11816 0.0777,-0.79759 -0.13407,-1.64305 0.30338,-2.37014 0.47604,-0.80523 0.92594,-1.62071 1.32137,-2.47017 0.39771,-0.941 0.7166,-1.90315 0.99014,-2.88816 0.39285,-1.45949 1.07155,-2.1323 2.52349,-2.77002 0,0 -1.06739,0.81619 -1.06739,0.81619 z"
         inkscape:connector-curvature="0" />
      <path
         style="fill:#fc9272;fill-opacity:1;stroke:none"
         id="path3778"
         d="m 216.71898,583.54605 c -0.79603,0.71233 -1.32613,1.5974 -1.70626,2.58409 -0.33647,1.08769 -0.39422,2.22881 -0.42737,3.35872 -0.0162,0.94067 -0.006,1.88155 -0.001,2.82228 0.005,0.90378 0.006,1.80758 0.007,2.71137 5.5e-4,0.90423 4.6e-4,1.80846 4.4e-4,2.71269 -4e-5,0.90483 -6e-5,1.80967 -8e-5,2.7145 0.0168,0.14849 0.0198,0.29919 0.0504,0.44545 0.15957,0.7624 0.0936,0.012 0.22312,0.76738 0.0517,0.30122 -0.001,0.60736 0.006,0.91047 0.24847,0.49169 0.51133,0.78341 0.25602,1.33626 -0.19885,0.43721 0.20979,0.71036 0.46744,1.01509 0,0 -1.14491,0.68927 -1.14491,0.68927 l 0,0 c -0.28992,-0.33624 -0.7284,-0.65827 -0.54629,-1.151 0.33698,-0.61541 0.0232,-0.70018 -0.2252,-1.27709 -0.0115,-0.29433 0.0575,-0.59621 0.0147,-0.88803 -0.0695,-0.4738 -0.1203,-0.29712 -0.22781,-0.78471 -0.0332,-0.15073 -0.0386,-0.30628 -0.0578,-0.45942 1e-5,-0.90484 4e-5,-1.80967 7e-5,-2.7145 2e-5,-0.90419 10e-5,-1.80838 -4.3e-4,-2.71257 -7.3e-4,-0.90366 -0.002,-1.80733 -0.006,-2.71098 -0.004,-0.94263 -0.0139,-1.8854 0.002,-2.82797 0.0331,-1.14271 0.093,-2.29465 0.41163,-3.39983 0.36728,-0.99563 0.87235,-1.90212 1.6641,-2.62742 0,0 1.24103,-0.51405 1.24103,-0.51405 z"
         inkscape:connector-curvature="0" />
      <path
         style="fill:#fc9272;fill-opacity:1;stroke:none"
         id="path3780"
         d="m 137.82471,552.29749 c 0.82244,0.64195 1.78245,1.08299 2.65201,1.66625 0.91508,0.64473 1.70102,1.44624 2.50425,2.21945 0.6426,0.70667 1.24939,1.44171 1.81874,2.20817 0.70771,0.97175 1.41749,1.9533 1.91721,3.05132 0.41389,0.97129 0.95259,1.87652 1.48255,2.78631 0.5133,0.85546 0.99391,1.72756 1.50868,2.58184 0.4446,0.73255 0.90821,1.45241 1.41981,2.1408 0.57729,0.77555 1.00007,1.64792 1.52043,2.45833 0.51487,0.7114 1.05848,1.4005 1.61283,2.08204 0.56104,0.71128 1.16039,1.3898 1.73827,2.0868 0.51473,0.61596 0.95368,1.27721 1.34112,1.97854 0.47933,0.77545 1.11803,1.43799 1.66143,2.16856 0.54513,0.76963 1.33975,1.25229 2.08357,1.7981 0,0 -1.1233,0.7123 -1.1233,0.7123 l 0,0 c -0.75527,-0.55164 -1.55161,-1.05324 -2.10228,-1.83315 -0.54825,-0.73442 -1.19285,-1.39968 -1.67453,-2.1815 -0.38603,-0.69216 -0.81694,-1.34981 -1.3295,-1.95678 -0.57707,-0.69782 -1.16808,-1.38362 -1.73521,-2.08974 -0.55991,-0.68352 -1.10416,-1.37884 -1.62049,-2.0955 -0.51424,-0.81062 -0.93975,-1.67731 -1.51599,-2.44971 -0.51669,-0.69039 -0.98014,-1.41552 -1.42726,-2.15194 -0.51158,-0.8568 -0.99009,-1.73099 -1.50504,-2.58601 -0.53114,-0.91436 -1.07458,-1.82223 -1.4884,-2.79868 -0.48883,-1.09333 -1.19309,-2.06725 -1.90431,-3.0257 -0.56701,-0.75976 -1.17275,-1.48626 -1.81016,-2.18843 -0.79119,-0.77319 -1.57309,-1.56746 -2.48268,-2.20455 -0.88641,-0.5876 -1.87318,-1.02054 -2.69478,-1.69285 0,0 1.15303,-0.68427 1.15303,-0.68427 z"
         inkscape:connector-curvature="0" />
      <path
         style="fill:#fc9272;fill-opacity:1;stroke:none"
         id="path3782"
         d="m 141.03007,553.51971 c 1.25167,0.50018 2.34607,1.29653 3.4123,2.10516 1.18861,1.07713 2.61886,1.78763 4.00438,2.56382 1.31388,0.70638 2.52375,1.58295 3.758,2.41584 1.26187,0.84294 2.58711,1.59497 3.89885,2.35991 1.44078,0.79737 2.85657,1.63564 4.19277,2.59907 1.26242,0.88504 2.49145,1.81192 3.63365,2.84776 1.02687,0.92678 1.91154,2.00261 3.03305,2.81884 0.85235,0.61661 1.82567,1.02702 2.72454,1.56622 0.92751,0.65837 1.81952,1.36842 2.71371,2.07243 0.86478,0.78107 1.80386,1.47874 2.66351,2.26398 0.6659,0.8656 1.49006,1.56685 2.32242,2.26309 0.85791,0.78307 1.80229,1.45893 2.69965,2.19444 0.89847,0.74323 1.62243,1.6685 2.39704,2.53458 0.73788,0.69383 1.53222,1.30116 2.26003,2.00522 0.80579,0.7016 1.48947,1.51636 2.18206,2.32551 0.84097,0.96899 1.7309,1.88971 2.53917,2.88655 0.58904,0.81401 1.00267,1.73584 1.47892,2.61722 0.19681,0.45557 0.43201,0.89632 0.72038,1.29994 0,0 -1.15113,0.67887 -1.15113,0.67887 l 0,0 c -0.2881,-0.41051 -0.52822,-0.85452 -0.72403,-1.31675 -0.4686,-0.87611 -0.87648,-1.79153 -1.45735,-2.60106 -0.80632,-0.99666 -1.69382,-1.9177 -2.53515,-2.88458 -0.69287,-0.80533 -1.38444,-1.60856 -2.18771,-2.30823 -0.72402,-0.71035 -1.5256,-1.31379 -2.25528,-2.01873 -0.7709,-0.86043 -1.49164,-1.78002 -2.38678,-2.5168 -0.89956,-0.73349 -1.84113,-1.41398 -2.70146,-2.19499 -0.83429,-0.69647 -1.65617,-1.40407 -2.32684,-2.26715 -0.85767,-0.78236 -1.78942,-1.48387 -2.65649,-2.25684 -0.89161,-0.699 -1.7757,-1.41206 -2.70706,-2.05636 -0.90534,-0.53403 -1.87935,-0.95237 -2.72877,-1.57916 -1.11176,-0.83316 -2.00225,-1.90577 -3.02942,-2.83659 -1.14028,-1.03094 -2.3705,-1.94992 -3.62702,-2.83476 -1.33263,-0.96151 -2.74553,-1.79683 -4.18454,-2.58911 -1.3155,-0.76372 -2.64223,-1.51868 -3.90425,-2.36671 -1.23308,-0.82962 -2.44228,-1.70228 -3.75495,-2.40501 -1.38876,-0.77915 -2.81288,-1.5069 -4.00571,-2.5841 -1.06958,-0.80472 -2.17246,-1.58207 -3.43202,-2.06359 0,0 1.12153,-0.73793 1.12153,-0.73793 z"
         inkscape:connector-curvature="0" />
      <path
         style="fill:#fc9272;fill-opacity:1;stroke:none"
         id="path3784"
         d="m 186.56473,595.9314 c -0.80397,0.37284 -1.53239,0.84138 -2.42864,0.94787 0,0 1.06484,-0.79722 1.06484,-0.79722 l 0,0 c 0.87916,-0.1501 1.6136,-0.61722 2.41219,-0.98926 0,0 -1.04839,0.83861 -1.04839,0.83861 z"
         inkscape:connector-curvature="0" />
      <path
         style="fill:#fc9272;fill-opacity:1;stroke:none"
         id="path3786"
         d="m 186.0928,597.15616 c -0.91378,-0.006 -1.82761,-0.005 -2.74141,-0.005 -0.89086,0.0788 -1.69138,-0.28254 -2.51608,-0.54863 -0.79054,-0.15098 -1.53814,-0.44829 -2.3226,-0.62338 -0.63745,-0.0133 -1.26807,0.11299 -1.89772,0.19799 -0.0672,0.0313 -0.13437,0.0626 -0.20156,0.0939 0,0 1.05719,-0.82913 1.05719,-0.82913 l 0,0 c 0.073,-0.0227 0.14605,-0.0454 0.21908,-0.0681 0.63479,-0.0879 1.27717,-0.21452 1.9193,-0.15392 0.78369,0.18512 1.53796,0.47142 2.32754,0.63437 0.81421,0.26764 1.60958,0.59534 2.4885,0.51687 0.91838,1.1e-4 1.83679,0.001 2.75515,-0.005 0,0 -1.08739,0.79003 -1.08739,0.79003 z"
         inkscape:connector-curvature="0" />
      <path
         style="fill:#fc9272;fill-opacity:1;stroke:none"
         id="path3788"
         d="m 308.68386,577.11502 c -1.38138,-0.82675 0.41745,-1.33673 1.18359,-1.74949 0.99679,-0.26506 2.00353,-0.46667 3.02712,-0.59248 0.86504,-0.12187 1.72298,0.10463 2.57871,0.21106 0.86253,0.11711 1.73705,0.0541 2.59661,0.18044 0.87412,0.21396 1.78502,0.21443 2.65933,0.4097 0.77011,0.23238 1.56381,0.33468 2.36317,0.39266 0.88481,0.049 1.77138,0.0471 2.65724,0.0482 0.90548,-4.3e-4 1.81096,-0.002 2.71644,-0.003 0.88449,-0.0364 1.78094,0.0753 2.65737,-0.0632 0.50765,-0.11698 1.01983,-0.20497 1.53589,-0.27397 0,0 -1.06733,0.79827 -1.06733,0.79827 l 0,0 c -0.51523,0.0747 -1.02554,0.17196 -1.53611,0.27357 -0.88363,0.10103 -1.77756,0.0205 -2.66547,0.047 -0.90557,9.4e-4 -1.81114,0.003 -2.71671,0.003 -0.8883,-0.002 -1.77746,-5.6e-4 -2.66445,-0.0552 -0.80348,-0.0641 -1.5986,-0.17926 -2.37417,-0.40667 -0.87527,-0.17653 -1.77787,-0.20376 -2.65139,-0.40294 -0.86216,-0.10509 -1.7359,-0.0582 -2.59811,-0.17815 -0.84685,-0.10961 -1.69652,-0.32275 -2.55302,-0.18837 -1.02012,0.1323 -2.02888,0.33008 -3.01511,0.62669 0.2757,-0.1772 0.5568,-0.34628 0.82711,-0.5316 0.1103,-0.0756 -0.28719,0.1363 -0.29704,0.26967 -0.0178,0.24097 0.31046,0.34548 0.45786,0.44712 0,0 -1.12153,0.73793 -1.12153,0.73793 z"
         inkscape:connector-curvature="0" />
      <path
         style="fill:#fc9272;fill-opacity:1;stroke:none"
         id="path3790"
         d="m 284.88526,584.15056 c 0.91379,0.006 1.82762,0.005 2.74142,0.005 0.90872,0.01 1.80371,0.0419 2.69626,-0.14097 0.79829,-0.18634 1.61532,-0.24776 2.43168,-0.28604 0.89367,-0.0314 1.78807,-0.0293 2.68216,-0.0294 0.92374,0.14014 1.84099,0.30136 2.77294,0.37857 1.01613,0.19184 2.03334,0.36218 3.06357,0.45505 0.93102,0.13835 1.84244,-0.0713 2.75989,-0.20231 0.95226,-0.14794 1.88034,-0.3876 2.84042,-0.50118 1.01239,-0.22827 2.02889,-0.41561 3.06337,-0.50229 1.02678,-0.19212 2.05464,-0.36293 3.09542,-0.45583 0.95635,0.0179 1.85615,-0.20446 2.7575,-0.49434 1.00261,-0.32041 2.06124,-0.32769 3.08733,-0.51253 0.92266,-0.2094 1.85981,-0.3217 2.8026,-0.38237 0.91233,-0.0213 1.80987,-0.0282 2.71014,-0.18311 0.92097,-0.10802 1.80345,-0.39144 2.71202,-0.5654 0.83572,-0.2373 1.69246,-0.40221 2.44456,-0.85335 0.69831,-0.37956 1.41311,-0.73367 2.13594,-1.06555 -0.49065,0.46034 1.86845,-0.95262 1.16767,-0.51868 -1.68509,1.04343 -0.58375,0.31515 -0.25207,0.0584 0.58625,-0.48047 1.14721,-0.99056 1.74561,-1.45763 0.69131,-0.47899 0.33772,-0.23539 1.06095,-0.73054 0,0 1.22536,-0.48126 1.22536,-0.48126 l 0,0 c -0.71778,0.49253 -0.36622,0.25263 -1.05451,0.71994 -0.60104,0.45895 -1.15739,0.96995 -1.73756,1.45081 -0.9289,0.79152 -2.07251,1.32472 -3.19627,1.78683 -0.71983,0.34029 -1.43858,0.68748 -2.13321,1.07665 -0.77336,0.40986 -1.62471,0.59576 -2.46644,0.81637 -0.90665,0.18254 -1.79337,0.45413 -2.71446,0.56245 -0.90252,0.14557 -1.80607,0.13651 -2.718,0.17277 -0.9395,0.0665 -1.87139,0.19018 -2.79235,0.39147 -1.02742,0.16461 -2.08011,0.19895 -3.07731,0.52826 -0.90642,0.28618 -1.81813,0.47331 -2.77439,0.47104 -1.0394,0.0987 -2.06453,0.28015 -3.09342,0.45396 -1.03243,0.0986 -2.04583,0.29553 -3.06074,0.50579 -0.95834,0.12266 -1.88708,0.37222 -2.84231,0.50603 -0.9228,0.13457 -1.8414,0.31979 -2.77708,0.17594 -1.02887,-0.1 -2.04324,-0.28207 -3.06174,-0.4549 -0.92987,-0.0803 -1.84366,-0.25488 -2.76915,-0.3674 -0.89316,6.4e-4 -1.78671,-9.5e-4 -2.67929,0.0355 -0.81399,0.0436 -1.62633,0.11776 -2.42234,0.30264 -0.89596,0.16507 -1.79842,0.11656 -2.7064,0.11668 -0.91838,-1.1e-4 -1.83679,-0.001 -2.75515,0.005 0,0 1.08738,-0.79003 1.08738,-0.79003 z"
         inkscape:connector-curvature="0" />
      <path
         style="fill:#fc9272;fill-opacity:1;stroke:none"
         id="path3792"
         d="m 349.56304,569.08789 c -1.18558,0.58131 2.35352,-1.24047 1.25235,-0.6924 -1.6376,0.81507 0.18102,-0.15146 0.41218,-0.29991 1.58766,-1.02837 3.24467,-1.94187 4.96281,-2.73036 1.53794,-0.73968 3.15866,-1.26319 4.78755,-1.75682 1.80505,-0.49186 3.61395,-0.9689 5.41895,-1.46149 2.03584,-0.45482 4.00897,-1.13469 6.00704,-1.72337 1.66417,-0.50779 3.33411,-0.999 5.04486,-1.32266 1.23292,-0.32519 2.51633,-0.41934 3.73291,-0.80246 0,0 -1.05301,0.81305 -1.05301,0.81305 l 0,0 c -1.22091,0.34922 -2.49433,0.46501 -3.72498,0.77928 -1.70476,0.32913 -3.3694,0.82292 -5.02958,1.32722 -1.99386,0.5923 -3.96949,1.25159 -5.99985,1.71443 -1.80999,0.49538 -3.62317,0.97789 -5.43227,1.47623 -1.62641,0.49234 -3.24,1.02895 -4.77407,1.76924 -0.51095,0.23727 -0.97368,0.44386 -1.47115,0.70656 -0.22111,0.11676 -0.41223,0.30392 -0.65414,0.36717 -0.20268,0.053 0.69333,-0.46831 0.53163,-0.33514 -0.0914,0.0752 -1.0195,0.63936 -1.11934,0.70056 -1.27217,0.83648 -2.60551,1.57797 -3.94027,2.30948 0,0 1.04838,-0.83861 1.04838,-0.83861 z"
         inkscape:connector-curvature="0" />
      <path
         style="fill:#fc9272;fill-opacity:1;stroke:none"
         id="path3794"
         d="m 352.60599,567.88083 c -0.57065,0.23362 -1.12644,0.5055 -1.65861,0.81734 -0.1614,0.0946 0.63833,-0.38496 0.49447,-0.26539 -0.34313,0.28516 -0.76273,0.46369 -1.13301,0.71259 -1.04907,0.83518 -2.33007,1.26664 -3.47209,1.93615 -0.84784,0.20995 0.54261,-0.36421 1.0453,-0.88137 0.23118,-0.23784 -1.1538,0.65495 -0.8667,0.48885 1.41119,-0.81642 1.03404,-0.615 1.91058,-1.06444 1.26361,-0.46284 2.45843,-1.08305 3.67196,-1.65926 1.70058,-0.76833 3.33159,-1.6745 4.99606,-2.51498 1.89912,-1.01985 3.95559,-1.669 5.97903,-2.38525 1.74779,-0.57603 3.49995,-1.13135 5.25651,-1.67825 0.0932,-0.0279 1.08679,-0.31829 1.24999,-0.38924 0.1173,-0.051 0.44076,-0.25933 0.32741,-0.20008 -0.6622,0.34613 -0.69169,0.5333 -1.13696,0.58333 -1.22149,0.16013 -2.37328,0.60251 -3.53186,0.9983 -1.73898,0.6744 -3.56175,1.08174 -5.34281,1.62296 -1.94753,0.51999 -3.71535,1.47156 -5.48601,2.40441 -1.48874,0.80925 -2.9891,1.59818 -4.52641,2.31246 -1.07782,0.45146 -2.17256,0.86604 -3.22992,1.36453 0.90649,-0.5008 0.76305,-0.46318 1.58625,-0.83712 0.87053,-0.33333 1.72239,-0.70586 2.52994,-1.17326 -0.18716,0.10535 -0.63544,0.51768 -0.56149,0.31604 0.0791,-0.21566 0.38763,-0.24656 0.58131,-0.37007 0.20891,-0.13322 0.41323,-0.27391 0.62646,-0.4001 1.16268,-0.68806 2.32499,-1.32445 3.5235,-1.9397 1.777,-0.94034 3.64618,-1.69732 5.53402,-2.3843 2.03411,-0.68169 4.04801,-1.41764 6.09361,-2.0644 1.72181,-0.54365 3.46854,-0.99249 5.21134,-1.46102 1.2281,-0.3485 2.44705,-0.72218 3.67525,-1.06985 0.90559,-0.26956 1.83476,-0.46097 2.74172,-0.72341 0.81449,-0.23798 1.57997,-0.62301 2.36457,-0.94617 0.86036,-0.31723 1.72449,-0.6207 2.59054,-0.92295 0,0 -1.04769,0.81666 -1.04769,0.81666 l 0,0 c -0.86465,0.30579 -1.73166,0.60211 -2.58802,0.93062 -0.78223,0.33008 -1.55327,0.70546 -2.37285,0.93205 -0.91102,0.24658 -1.83047,0.46252 -2.73838,0.72169 -1.22304,0.35193 -2.44294,0.70999 -3.66647,1.06039 -1.73583,0.46347 -3.47549,0.90871 -5.18917,1.4514 -2.04633,0.65146 -4.06311,1.38666 -6.09737,2.07455 -1.8837,0.6951 -3.75133,1.44964 -5.52399,2.39693 -1.98312,1.02465 -1.60795,0.89506 -4.18418,2.41253 -0.81925,0.45911 -1.67958,0.82685 -2.55138,1.1744 -1.36959,0.61327 -1.10128,-0.40958 0.50529,-0.82375 1.05897,-0.47847 2.14151,-0.90149 3.21265,-1.35156 1.53079,-0.71916 3.02877,-1.50393 4.5146,-2.31092 1.77295,-0.93147 3.55022,-1.86362 5.49847,-2.38269 1.78513,-0.53654 3.60663,-0.95776 5.34804,-1.6329 1.17402,-0.40136 2.35635,-0.88104 3.60638,-0.96445 1.20613,0.51155 -2.23949,1.46181 -2.58087,1.5747 -1.75507,0.53756 -3.49962,1.10212 -5.24382,1.67498 -2.02122,0.71211 -4.06942,1.37259 -5.96339,2.39427 -1.66899,0.84957 -3.31048,1.75316 -5.01714,2.52757 -1.21699,0.57934 -2.42201,1.18427 -3.68025,1.67169 -0.14452,0.0757 -0.5694,0.31739 -0.43356,0.22706 0.25966,-0.17265 1.07757,-0.62807 0.80606,-0.47473 -0.48013,0.27115 -0.88999,0.72664 -1.43196,0.8282 -0.14264,0.0267 0.70139,-0.70473 1.04786,-0.79657 0.32169,-0.17487 0.64981,-0.34087 0.97922,-0.50072 0.14196,-0.0689 0.55268,-0.2978 0.42935,-0.19938 -0.0583,0.0465 -1.47389,0.87399 -0.20591,0.0878 1.44078,-0.99289 2.97824,-1.86346 4.57292,-2.58475 0,0 -1.04839,0.83861 -1.04839,0.83861 z"
         inkscape:connector-curvature="0" />
      <path
         style="fill:#fc9272;fill-opacity:1;stroke:none"
         id="path3796"
         d="m 195.74685,595.84651 c 0.88872,-0.17189 1.79392,-0.33284 2.70065,-0.27338 0.82478,0.1306 1.65045,0.23807 2.48374,0.29425 0.88721,0.0485 1.77606,0.05 2.66431,0.0527 0.92047,-0.0665 1.81638,0.14684 2.72062,0.27938 0.83315,0.0269 1.58655,0.22513 2.32833,0.58924 0.73352,0.38723 1.26661,1.02963 1.85519,1.59473 0.43494,0.54801 0.96329,0.97588 1.50628,1.40484 0.53006,0.36702 1.03799,0.77702 1.49091,1.23705 0.50993,0.4457 0.98508,0.92577 1.37213,1.48335 0.37422,0.53502 0.82932,1.00555 1.22923,1.51871 0,0 -1.1539,0.68747 -1.1539,0.68747 l 0,0 c -0.39993,-0.51603 -0.84613,-0.99587 -1.22499,-1.52915 -0.38586,-0.54895 -0.86309,-1.01707 -1.36338,-1.46175 -0.45365,-0.45231 -0.95637,-0.85769 -1.48177,-1.22332 -0.54931,-0.42823 -1.06772,-0.874 -1.5104,-1.41852 -0.57539,-0.56064 -1.10458,-1.18989 -1.83485,-1.55783 -0.73135,-0.35433 -1.48553,-0.51714 -2.29967,-0.55938 -0.89986,-0.13551 -1.79353,-0.32898 -2.70981,-0.26357 -0.89039,-0.003 -1.78146,-0.006 -2.67059,-0.0591 -0.83222,-0.0605 -1.6558,-0.17722 -2.48174,-0.29276 -0.90416,-0.0348 -1.80649,0.1189 -2.68768,0.31321 0,0 1.06739,-0.81618 1.06739,-0.81618 z"
         inkscape:connector-curvature="0" />
      <path
         style="fill:#fc9272;fill-opacity:1;stroke:none"
         id="path3798"
         d="m 192.68363,593.20194 c 0.44513,-0.75391 1.20696,-1.20936 1.91593,-1.68276 0.87183,-0.69355 1.77588,-1.34512 2.65978,-2.02266 0.8086,-0.6034 1.65502,-1.15493 2.50845,-1.69249 0.97952,-0.62278 0.17748,-0.12171 2.01168,-1.18556 0.22896,-0.1328 -0.92101,0.52208 -0.68928,0.39419 0.83294,-0.45972 1.61001,-0.8526 2.43236,-1.2861 0.75885,-0.3301 1.50765,-0.66391 2.23957,-1.04988 0.74368,-0.36892 1.56757,-0.44639 2.38303,-0.49871 0.91982,-0.0637 1.82546,0.18688 2.64914,0.58054 0.71133,0.30806 1.35599,0.73522 2.0956,0.97483 0.76933,0.25402 1.51672,0.56269 2.28267,0.82554 0.33235,0.12463 0.17701,0.098 0.45923,0.11253 0,0 -1.09847,0.77705 -1.09847,0.77705 l 0,0 c -0.29156,-0.0576 -0.13506,-0.0149 -0.4654,-0.14238 -0.76285,-0.27085 -1.5132,-0.57022 -2.28249,-0.82369 -0.73616,-0.25523 -1.38756,-0.67932 -2.10068,-0.98971 -0.81845,-0.37458 -1.70469,-0.60305 -2.61094,-0.52488 -0.80955,0.0611 -1.62181,0.15775 -2.35102,0.54412 -0.72987,0.38689 -1.49078,0.69611 -2.23799,1.0466 -0.47848,0.23947 -0.91677,0.46245 -0.8451,0.39679 0.19793,-0.18132 0.9224,-0.54927 0.68795,-0.41856 -0.53155,0.29636 -1.05162,0.61289 -1.57954,0.91566 -0.23214,0.13313 0.45263,-0.2874 0.69214,-0.40674 0.15437,-0.0769 -0.29049,0.18598 -0.43573,0.27898 -0.85961,0.52766 -1.69846,1.09163 -2.51672,1.68113 -0.87586,0.68521 -1.79539,1.31495 -2.65038,2.02825 -0.69292,0.47269 -1.46458,0.89004 -1.93063,1.61451 0,0 -1.22316,0.5534 -1.22316,0.5534 z"
         inkscape:connector-curvature="0" />
      <path
         style="fill:#fc9272;fill-opacity:1;stroke:none"
         id="path3800"
         d="m 194.25602,591.85954 c 0.28228,-0.15322 0.55638,-0.32259 0.84685,-0.45965 0.12855,-0.0607 -0.24245,0.1487 -0.35932,0.2296 -0.50614,0.35041 -0.9048,0.78333 -1.32601,1.22646 -0.52086,0.54582 -0.77725,1.26422 -1.12609,1.92015 -0.10034,0.19438 -0.1941,0.39689 -0.2971,0.58804 -0.025,0.0748 -0.11867,0.11807 -0.15339,0.14501 0,0 -1.22972,0.57002 -1.22972,0.57002 l 0,0 c -0.005,-0.0749 0.0724,-0.13977 0.15143,-0.15018 0.0611,-0.21172 0.23597,-0.38409 0.30477,-0.60553 0.37817,-0.65177 0.60601,-1.39256 1.12243,-1.95597 0.93671,-0.96824 1.84225,-1.77741 3.11453,-2.34656 0,0 -1.04838,0.83861 -1.04838,0.83861 z"
         inkscape:connector-curvature="0" />
      <path
         style="fill:#fc9272;fill-opacity:1;stroke:none"
         id="path3802"
         d="m 235.10813,585.44065 c -0.16122,0.0496 1.22563,-0.538 0.89564,-0.46935 -0.22928,0.0477 -0.42911,0.42644 -0.6313,0.30829 -0.18028,-0.10535 0.32934,-0.25694 0.48912,-0.39138 0.36697,-0.30876 0.59995,-0.53688 0.94956,-0.86551 0.63575,-0.73375 1.36701,-1.39597 1.91312,-2.20219 0.42308,-0.55858 0.7252,-1.1928 1.08402,-1.79282 0.45201,-0.6717 1.03048,-1.25508 1.61898,-1.80848 0.34068,-0.45644 0.93868,-0.74406 1.20812,-1.25106 -0.83464,0.68368 1.42519,-0.96297 0.43954,-0.0989 -0.096,0.0842 -0.19152,0.16888 -0.28728,0.25333 -0.55526,0.48927 -1.00073,1.06118 -1.41513,1.67009 -0.32615,0.6185 -0.53879,1.29035 -0.8324,1.92425 -0.43966,0.57396 -0.8752,1.15354 -1.36667,1.68465 -0.58603,0.51325 -1.16966,1.02856 -1.77746,1.51611 -0.65286,0.37276 -1.11655,0.9573 -1.62032,1.49733 -0.41299,0.46976 -0.83096,0.93822 -1.27739,1.37688 -0.0474,0.0518 -0.0948,0.10358 -0.1422,0.15538 0,0 -1.23802,0.5236 -1.23802,0.5236 l 0,0 c 0.046,-0.0566 0.0921,-0.11327 0.13808,-0.16991 0.47035,-0.41198 0.86825,-0.90869 1.28596,-1.37187 0.51884,-0.5275 0.94701,-1.1577 1.61628,-1.51469 0.60824,-0.48604 1.18745,-1.00124 1.78561,-1.49897 0.49563,-0.52102 0.90564,-1.10511 1.37899,-1.64614 0.31872,-0.6262 0.51352,-1.31107 0.82556,-1.94093 0.40537,-0.62346 0.85407,-1.19932 1.40326,-1.70354 0.49547,-0.42951 1.98289,-1.84047 2.30658,-1.22341 -0.16341,0.5619 -0.87981,0.83769 -1.19581,1.31258 -0.59874,0.5329 -1.16292,1.12527 -1.63376,1.77321 -0.36531,0.59889 -0.65634,1.24 -1.08337,1.79771 -0.52554,0.83327 -1.28765,1.48271 -1.91533,2.23693 -1.17663,1.11883 -2.45851,2.13643 -3.98937,2.73503 0,0 1.06739,-0.81618 1.06739,-0.81618 z"
         inkscape:connector-curvature="0" />
      <path
         style="fill:#fc9272;fill-opacity:1;stroke:none"
         id="path3804"
         d="m 237.92648,597.72623 c 0.44879,-0.69271 0.89528,-1.39625 1.51439,-1.94901 0.59287,-0.58475 1.29507,-0.86982 2.02358,-1.31484 0.27744,-0.16947 -0.56594,0.32021 -0.85228,0.47416 -0.10065,0.0541 0.19501,-0.11934 0.29506,-0.17456 0.4869,-0.26872 0.97709,-0.53145 1.46563,-0.79717 0.50559,-0.24798 2.67749,-1.44266 0.55589,-0.24615 2.9333,-1.68274 0.8831,-0.49492 0.36242,-0.23325 -0.068,0.0341 0.1243,-0.088 0.18293,-0.13642 0.20787,-0.17182 0.3858,-0.34147 0.61313,-0.49049 0.87374,-0.66964 1.8852,-1.096 2.88718,-1.52429 0.74571,-0.28684 1.5468,-0.33507 2.33628,-0.37414 0.89659,-0.0307 1.79392,-0.0254 2.69089,-0.0239 0.76247,0.10864 1.50977,0.26374 2.23509,0.52031 0.71787,0.17086 1.41905,0.38099 2.12966,0.5807 0.61587,0.26837 1.20473,0.60704 1.76491,0.97763 0.6892,0.328 -0.19781,-0.11007 0.41175,0.23918 0.80972,0.46394 -0.68087,0.88946 -1.23455,0.56959 -0.52166,-0.40567 -1.15417,-0.65963 -1.77632,-0.87054 -0.76808,-0.22979 -1.50384,-0.51569 -2.29782,-0.65316 -0.85861,-0.11845 -1.7273,-0.122 -2.59236,-0.12909 -0.88361,0.0322 -1.77966,-0.0755 -2.65498,0.0644 -0.75159,0.15767 -1.50122,0.25926 -2.23462,0.48769 -0.71621,0.11531 -1.33653,0.40508 -1.95652,0.76209 -0.10318,0.0472 -0.40616,0.20126 -0.30954,0.14173 1.75925,-1.08377 0.64695,-0.34306 0.26878,-0.12285 -1.39176,0.81044 -2.17834,1.22651 -0.65267,0.40196 -0.65258,0.43789 -1.33228,0.83378 -1.94882,1.32275 -0.53661,0.42347 -1.16566,0.70852 -1.63112,1.2168 -0.37333,0.44315 -0.75255,0.88328 -1.11464,1.3361 -0.57193,0.55181 -1.38619,1.17112 -2.19215,0.94909 -0.22085,-0.0587 -0.4263,-0.10693 -0.65298,-0.0597 -0.0657,0.0137 -0.25186,0.0861 -0.19486,0.0507 1.23497,-0.76766 1.21128,-0.77397 0.83234,-0.38473 -0.1652,0.32534 -0.0942,0.14938 -0.20439,0.53127 0,0 -1.20719,0.5768 -1.20719,0.5768 l 0,0 c 0.0958,-0.40846 0.0352,-0.21554 0.17626,-0.58049 0.54277,-0.81258 1.47922,-1.14273 2.35838,-0.90078 0.27137,0.0497 0.46094,-0.0193 0.45864,-0.0177 -1.74361,1.25839 -1.00753,0.6357 -0.60868,0.36689 0.33899,-0.47212 0.76033,-0.88719 1.11768,-1.34584 0.43627,-0.5485 1.06896,-0.83048 1.62472,-1.23975 0.60093,-0.51098 1.29121,-0.89538 1.94521,-1.33328 3.31827,-2.00786 1.06218,-0.63467 0.65002,-0.40657 -0.10689,0.0592 0.20367,-0.1351 0.30801,-0.19866 0.6596,-0.40182 1.32019,-0.8091 2.01628,-1.14499 0.62126,-0.3562 1.26965,-0.59502 1.97368,-0.73733 0.73575,-0.22035 1.49408,-0.31436 2.24555,-0.46927 0.88299,-0.10264 1.77684,-0.026 2.66427,-0.0471 0.87045,0.009 1.74505,0.015 2.60763,0.14587 0.79526,0.14889 1.53661,0.43989 2.309,0.67047 0.63137,0.22261 1.26789,0.48179 1.80396,0.88984 0.55294,0.38033 0.28331,0.1055 -0.85691,0.97051 -0.10691,0.0811 -0.22991,-0.13848 -0.34535,-0.2069 -0.075,-0.0445 -0.1541,-0.0818 -0.23114,-0.12264 -0.55588,-0.35555 -1.12632,-0.70197 -1.74085,-0.94565 -0.7108,-0.20564 -1.41997,-0.39785 -2.13465,-0.58691 -0.71356,-0.24807 -1.45439,-0.39651 -2.20453,-0.48708 -0.89591,-0.001 -1.7923,-0.006 -2.68765,0.0306 -0.7845,0.0458 -1.57861,0.10737 -2.31198,0.41489 -0.0532,0.0232 -0.56985,0.24869 -0.6253,0.27083 -0.1071,0.0428 -0.4167,0.18912 -0.32455,0.11979 1.60067,-1.20434 0.75771,-0.38896 0.3609,-0.17803 -0.30734,0.17114 -0.50736,0.42563 -0.7989,0.60786 -1.22224,0.76395 -2.04371,1.23564 -0.35857,0.24892 -0.94055,0.55091 -1.87546,1.08615 -2.85368,1.56243 0.27627,-0.17064 0.55619,-0.33551 0.8288,-0.51193 0.0957,-0.0619 -0.19947,0.1104 -0.29769,0.16823 -0.47822,0.2816 -0.95422,0.56697 -1.43157,0.85003 -0.27503,0.1631 0.54103,-0.34239 0.82461,-0.49011 0.21845,-0.11379 -0.84192,0.54993 -0.5735,0.46595 -0.64153,0.51751 -1.06785,1.22054 -1.52704,1.89576 0,0 -1.22316,0.5534 -1.22316,0.5534 z"
         inkscape:connector-curvature="0" />
      <path
         style="fill:#fc9272;fill-opacity:1;stroke:none"
         id="path3806"
         d="m 47.640338,597.99335 c -0.896797,-0.21188 -1.817104,-0.2869 -2.734483,-0.34224 -0.94213,-0.0468 -1.885677,-0.0482 -2.828722,-0.05 -0.90713,-1.6e-4 -1.814258,0.002 -2.721387,0.002 -0.831659,0.11017 -1.641387,-0.1156 -2.460074,-0.15121 -0.732244,-0.0744 -1.428163,-0.29564 -2.138764,-0.47185 -0.676104,-0.0268 -1.281513,-0.52753 -1.951282,-0.54248 0.411558,-0.23647 0.797392,-0.52479 1.234673,-0.7094 0.06387,-0.027 0.113398,0.0801 0.173297,0.11498 0.07234,0.0421 0.146345,0.0819 0.222867,0.11583 0.320743,0.14238 0.649758,0.27491 0.975576,0.406 0.840816,0.28663 1.726295,0.37465 2.59015,0.57067 0.921557,0.16678 1.840287,0.2881 2.729528,0.59262 0.898964,0.28685 1.802203,0.56807 2.715126,0.809 0.68588,0.14154 1.349745,0.54033 2.056981,0.54739 0.658441,-0.0549 1.294579,-0.15219 1.924923,-0.34696 0.788277,-0.17047 1.568417,-0.36792 2.355565,-0.54654 0.831756,-0.16191 1.653865,-0.35673 2.485502,-0.52531 0.778107,-0.0615 1.52292,-0.22621 2.280165,-0.40361 0.83309,-0.11717 1.637425,-0.36099 2.464972,-0.51006 0.882038,-0.27864 1.783489,-0.45688 2.701786,-0.55572 0.919259,-0.01 1.811192,-0.2278 2.715843,-0.36414 0.917533,-0.0548 1.811713,-0.2102 2.713674,-0.37735 0.89802,-0.1633 1.810466,-0.20549 2.72084,-0.23136 0.806162,-0.006 1.586035,-0.2445 2.383734,-0.35016 0.813859,-0.0151 1.591995,-0.15871 2.383332,-0.3304 0.817735,-0.16743 1.653385,-0.19995 2.485134,-0.22401 0.794457,0.005 1.585982,-0.048 2.360616,-0.22476 0.699756,0.0278 1.367256,0.12058 2.063601,0.0133 0.679068,-0.12366 1.37118,0.0432 2.050968,0.10812 0.850814,0.0711 1.705051,0.0811 2.558294,0.0896 0.904963,0.006 1.809955,0.004 2.714932,0.004 0.905676,-6.9e-4 1.811351,-10e-4 2.717027,-0.001 0.904907,-1.4e-4 1.809814,-1.4e-4 2.714721,-1.4e-4 0.866404,0.0213 1.728598,-0.0521 2.580529,-0.207 0.799167,-0.15601 1.612684,-0.19909 2.424463,-0.22751 0.907219,0.0463 1.786136,-0.0845 2.676319,-0.2343 0.910806,-0.0174 1.817946,0.0964 2.726266,0.15227 0.87389,0.0355 1.73571,0.0203 2.59349,0.20175 0.79153,0.18975 1.60281,0.25061 2.4132,0.28883 0.87636,0.0626 1.7625,-0.0404 2.63202,0.0898 0.77865,0.18579 1.56948,0.28606 2.36677,0.34174 0.88506,0.0484 1.7718,0.0481 2.65789,0.05 0.90456,0.16041 1.82771,0.23494 2.72427,0.43396 0.89969,0.20836 1.809,0.42313 2.66841,0.76529 0.74406,0.35284 1.54504,0.4854 2.35685,0.55952 0.62894,0.0522 1.34025,0.12332 1.89014,0.46112 0.21191,0.33261 0.13835,0.15534 0.22529,0.52988 0,0 -1.18273,0.63282 -1.18273,0.63282 l 0,0 c -0.0526,-0.31135 0.004,-0.16781 -0.16969,-0.43077 -0.55739,-0.29947 -1.22662,-0.37597 -1.84767,-0.42083 -0.82033,-0.0834 -1.62566,-0.23421 -2.37753,-0.58989 -0.85881,-0.3284 -1.75808,-0.54868 -2.65442,-0.74864 -0.89384,-0.18155 -1.80635,-0.28259 -2.70891,-0.41111 -0.88842,-0.002 -1.77762,-0.003 -2.66478,-0.0565 -0.79925,-0.0608 -1.58986,-0.17248 -2.37264,-0.3478 -0.86929,-0.10636 -1.75039,-0.0194 -2.62392,-0.0815 -0.81567,-0.0425 -1.63074,-0.11269 -2.42727,-0.30389 -0.85274,-0.17038 -1.71348,-0.14131 -2.57934,-0.18892 -0.90128,-0.058 -1.804257,-0.17846 -2.707969,-0.12785 -0.893135,0.15009 -1.779377,0.25308 -2.687881,0.22153 -0.809565,0.0328 -1.61949,0.0859 -2.41599,0.24378 -0.855611,0.14474 -1.723319,0.20476 -2.59091,0.18591 -0.9049,0 -1.809799,0 -2.714699,1.5e-4 -0.905653,1.9e-4 -1.811305,5.2e-4 -2.716958,0.001 -0.905363,5.1e-4 -1.810745,0.002 -2.716089,-0.005 -0.856714,-0.01 -1.714455,-0.0213 -2.568465,-0.0964 -0.674897,-0.0664 -1.359206,-0.21783 -2.03392,-0.0815 -0.693204,0.0886 -1.365392,-0.0333 -2.059336,-0.004 -0.778483,0.16202 -1.575297,0.19575 -2.368901,0.20042 -0.828626,0.0281 -1.660669,0.0684 -2.473404,0.24575 -0.791384,0.17374 -1.578303,0.27976 -2.388534,0.32138 -0.796729,0.11477 -1.580127,0.3462 -2.389663,0.33683 -0.906691,0.0294 -1.814968,0.0783 -2.708265,0.24751 -0.901919,0.1691 -1.801161,0.30021 -2.716319,0.37406 -0.904447,0.14181 -1.79999,0.34039 -2.719159,0.35992 -0.916212,0.10791 -1.810697,0.30581 -2.696585,0.56367 -0.825282,0.15771 -1.63365,0.38928 -2.464561,0.51801 -0.755922,0.18154 -1.509521,0.30989 -2.281892,0.40009 -0.827755,0.17486 -1.653118,0.35349 -2.480864,0.52565 -0.785755,0.18498 -1.571333,0.36566 -2.354809,0.55703 -0.63724,0.18763 -1.292814,0.27865 -1.956356,0.31205 -0.710305,-0.0715 -1.370264,-0.41679 -2.063109,-0.57656 -0.912956,-0.24812 -1.820116,-0.52239 -2.719125,-0.81591 -0.88966,-0.28819 -1.807225,-0.40482 -2.722739,-0.58118 -0.869746,-0.1948 -1.764867,-0.27784 -2.605602,-0.58625 -0.3298,-0.13371 -0.666844,-0.26341 -0.990124,-0.41228 -0.0792,-0.0365 -0.154839,-0.0802 -0.231201,-0.12234 -0.05609,-0.0309 -0.208961,-0.049 -0.166091,-0.0966 0.2863,-0.31781 0.659575,-0.54484 0.989363,-0.81726 0.660507,0.14194 1.272884,0.47301 1.946838,0.56593 0.705074,0.17804 1.401789,0.38453 2.129978,0.4491 0.816149,0.0751 1.620518,0.2309 2.448311,0.14838 0.907107,-8.5e-4 1.814215,-0.003 2.721322,-0.002 0.944051,0.003 1.888663,0.006 2.83158,0.0578 0.92679,0.0606 1.854738,0.14504 2.762083,0.35258 0,0 -1.106077,0.76293 -1.106077,0.76293 z"
         inkscape:connector-curvature="0" />
    </g>
  </g>
</svg>
