<?xml version="1.0" encoding="UTF-8" standalone="no"?>
<!-- Created with Inkscape (http://www.inkscape.org/) -->

<svg
   xmlns:dc="http://purl.org/dc/elements/1.1/"
   xmlns:cc="http://creativecommons.org/ns#"
   xmlns:rdf="http://www.w3.org/1999/02/22-rdf-syntax-ns#"
   xmlns:svg="http://www.w3.org/2000/svg"
   xmlns="http://www.w3.org/2000/svg"
   xmlns:xlink="http://www.w3.org/1999/xlink"
   xmlns:sodipodi="http://sodipodi.sourceforge.net/DTD/sodipodi-0.dtd"
   xmlns:inkscape="http://www.inkscape.org/namespaces/inkscape"
   id="svg2"
   version="1.1"
   inkscape:version="0.48.4 r9939"
   width="594"
   height="914"
   sodipodi:docname="44491-19.svg">
  <metadata
     id="metadata8">
    <rdf:RDF>
      <cc:Work
         rdf:about="">
        <dc:format>image/svg+xml</dc:format>
        <dc:type
           rdf:resource="http://purl.org/dc/dcmitype/StillImage" />
      </cc:Work>
    </rdf:RDF>
  </metadata>
  <defs
     id="defs6" />
  <sodipodi:namedview
     pagecolor="#ffffff"
     bordercolor="#666666"
     borderopacity="1"
     objecttolerance="10"
     gridtolerance="10"
     guidetolerance="10"
     inkscape:pageopacity="0"
     inkscape:pageshadow="2"
     inkscape:window-width="1280"
     inkscape:window-height="732"
     id="namedview4"
     showgrid="false"
     inkscape:zoom="1.0328228"
     inkscape:cx="210.3596"
     inkscape:cy="326.23711"
     inkscape:window-x="-8"
     inkscape:window-y="-8"
     inkscape:window-maximized="1"
     inkscape:current-layer="layer2" />
  <image
     width="594"
     height="914"
     xlink:href="file:///tmp/broken-interfaces/phone_cropped_display/44491-19.png"
     id="image10"
     x="0"
     y="0" />
  <g
     inkscape:groupmode="layer"
     id="layer1"
     inkscape:label="Layer" />
  <g
     inkscape:groupmode="layer"
     id="layer2"
     inkscape:label="Layer#1">
    <g
       id="g0"
       inkscape:label="#g3080">
      <path
         inkscape:connector-curvature="0"
         d="m 397.22787,-9.981432 c 1.36072,1.4127451 2.68152,2.8723137 3.96407,4.3579559 1.26335,1.4199354 2.59532,2.7737249 3.76389,4.27843 0.84306,1.25923027 1.75277,2.4669825 2.70937,3.641155 0.73223,1.0015277 1.43562,1.9908705 1.94157,3.1299831 0.48346,0.294404 0.6997,1.053914 1.03615,1.5370404 0.6594,0.8608302 1.25532,1.7657658 1.84486,2.6781856 0.67364,1.096645 1.1351,2.320619 1.90155,3.354975 0.47503,0.762513 0.86782,1.551108 1.39384,2.278632 0.56248,0.986182 1.09883,1.974749 1.67875,2.945997 0.43051,0.642298 0.6062,1.383538 1.10663,1.954671 0.57528,0.866082 1.04407,1.790511 1.55823,2.694336 0.69908,1.094876 1.32404,2.234643 2.02898,3.32717 0.56622,0.895652 1.08761,1.814135 1.69513,2.68585 0.73128,0.960893 1.24589,2.061569 1.92164,3.055565 0.7362,0.85048 0.98625,2.562725 1.81832,3.301051 0.58248,0.886253 1.24652,1.711327 1.81787,2.603011 0.44497,0.970693 1.15688,1.768619 1.73617,2.655495 0.60344,1.127419 1.28609,2.195284 2.00874,3.249795 0.81067,1.134559 1.66528,2.233236 2.48021,3.363842 0.84639,0.916732 1.65212,1.865289 2.44306,2.833094 0.70845,0.783685 1.18014,1.800126 1.96175,2.521087 0.63733,0.65785 1.25304,1.385263 1.83219,2.072475 0.74054,0.859183 1.45252,1.740037 2.20886,2.586245 0.73407,0.941695 1.41779,1.950502 2.29367,2.769556 1.09726,0.721079 1.69738,1.951968 2.65824,2.79827 0.88849,0.841199 1.83621,1.616194 2.59095,2.585483 0.28919,0.473425 0.77245,0.887896 1.35774,1.47601 0.46897,0.460006 0.89693,1.059467 1.47973,1.422975 0.83506,0.762351 1.75223,1.42115 2.60606,2.164859 1.3043,1.055397 2.59395,2.127612 3.89,3.198512 1.1717,0.92056 2.41574,1.782794 3.69123,2.557679 1.32082,0.93875 2.57412,1.963062 3.84286,2.971361 1.03104,0.83043 2.01575,1.715935 2.96886,2.634149 0.71088,0.289374 1.49217,0.998004 2.06631,1.518452 0.77711,0.591467 1.51652,1.228784 2.24004,1.884041 1.04612,0.7333 2.02949,1.57243 2.94913,2.461623 0.89405,0.751242 1.73544,1.553389 2.6242,2.31329 1.12568,1.032387 2.33003,1.960514 3.43269,3.017036 1.15458,1.188901 2.3886,2.281271 3.52221,3.493339 0.99939,1.082451 2.01813,2.14632 3.04136,3.206149 0.94099,0.970137 1.979,1.815247 2.91687,2.793397 0.86964,0.99708 1.83315,1.8834 2.80354,2.77179 0.70569,0.82602 1.3844,1.64971 2.15968,2.41569 0.88888,0.86634 1.73539,1.78517 2.52071,2.74672 0.65398,0.65719 1.3168,1.30653 1.93352,2 0.5127,0.66577 1.102,1.36886 1.70304,2.12078 0.58855,1.08462 1.4868,1.90134 2.29114,2.81645 1.19635,1.05735 2.20769,2.29917 3.35856,3.40092 1.00033,1.01934 1.93541,2.11667 2.99978,3.07107 0.93221,0.95496 1.84909,1.91847 2.76038,2.89022 0.62793,0.88272 1.4454,1.55173 2.17128,2.34085 0.75491,0.54418 1.32787,1.34131 1.93578,2.04443 0.741,0.84891 1.57027,1.60165 2.45932,2.29211 1.01172,0.77314 1.76863,1.83425 2.78082,2.59558 0.6808,0.64698 1.16979,1.30392 1.91346,1.85994 0.92941,0.75358 1.87414,1.482 2.79965,2.2354 1.05658,0.85702 2.13258,1.69921 3.18357,2.56755 1.38906,0.98065 2.88608,1.78555 4.30052,2.729 1.4663,0.99663 3.06749,1.72246 4.69937,2.39879 2.28626,0.95204 4.5214,2.03204 6.72522,3.16169 1.77667,0.78925 3.48417,1.69489 5.14916,2.69337 1.25058,0.7226 2.43742,1.56676 3.72516,2.22326 1.39246,0.74663 2.72462,1.60974 3.99947,2.53941 1.10053,0.88529 2.22812,1.71194 3.41496,2.48033 1.85039,1.083 3.70673,2.15076 5.566,3.21965 2.35231,1.40763 4.74616,2.7637 7.17852,4.033 2.48613,1.351 4.86291,2.88473 7.22537,4.43802 2.26088,1.42101 4.62246,2.67049 6.8418,4.15488 1.626,1.08437 3.4225,1.87608 5.10528,2.86034 1.06485,0.51017 2.04183,1.17778 3.07855,1.73035 0.76035,0.26666 1.44125,0.7803 2.22096,1.01005 0.87997,0.50845 1.70883,0.93447 2.71278,1.0699 1.65411,0.47134 3.33098,0.78384 5.04094,0.95129 1.6765,0.29542 3.32998,0.69645 5.00401,1.00531 0.32718,0.0607 0.67619,0.11846 0.99778,0.17334 -0.0217,-0.002 -0.0435,-0.003 -0.0652,-0.005 0,0 -0.32483,4.83195 -0.32483,4.83195 l 0,0 c -0.0359,-0.003 -0.0718,-0.005 -0.10767,-0.008 -0.44644,-0.0442 -0.89079,-0.10646 -1.33387,-0.17683 -1.56516,-0.25492 -3.11187,-0.59645 -4.66262,-0.926 -1.80573,-0.18564 -3.60089,-0.46378 -5.33666,-1.01344 -1.22955,-0.21849 -2.57289,-0.52962 -3.58406,-1.30979 -1.04278,-0.40014 -1.98011,-0.93499 -2.99816,-1.37264 -1.03736,-0.61566 -2.07333,-1.19095 -3.15004,-1.74428 -1.73455,-1.06417 -3.68914,-1.77502 -5.35204,-2.971 -2.20448,-1.48504 -4.58292,-2.69197 -6.82134,-4.12701 -2.21531,-1.47425 -4.46067,-2.90038 -6.79464,-4.18154 -2.48715,-1.31189 -4.94936,-2.68572 -7.35331,-4.14094 -1.92929,-1.1249 -3.85475,-2.24981 -5.77577,-3.38785 -1.27146,-0.83857 -2.47233,-1.75069 -3.66937,-2.68278 -1.01551,-0.82286 -2.21497,-1.43645 -3.33217,-2.10839 -1.35832,-0.72339 -2.64228,-1.57328 -3.96774,-2.35277 -1.578,-0.9402 -3.20287,-1.77315 -4.88812,-2.51263 -2.0863,-1.07424 -4.21237,-2.07842 -6.36488,-3.01154 -1.92374,-0.80759 -3.81159,-1.68447 -5.5427,-2.86112 -1.54617,-1.04643 -3.2231,-1.88906 -4.69843,-3.04201 -1.04884,-0.8812 -2.12172,-1.73683 -3.18928,-2.58969 -0.82849,-0.74719 -1.78724,-1.35938 -2.62089,-2.10738 -0.6941,-0.53729 -1.39161,-1.15215 -1.91607,-1.85694 -1.03737,-0.80055 -1.88535,-1.79103 -2.87491,-2.64619 -1.1002,-0.89561 -2.16989,-1.83199 -3.08307,-2.92344 -0.58578,-0.6737 -1.11931,-1.39676 -1.84313,-1.93388 -0.72392,-0.78617 -1.55291,-1.465 -2.17928,-2.34096 -0.7927,-0.90234 -1.67999,-1.71902 -2.49066,-2.60452 -1.0682,-1.00896 -2.07812,-2.07987 -3.08983,-3.1443 -1.24137,-1.21906 -2.39118,-2.52502 -3.65585,-3.72186 -0.80662,-0.97403 -1.78898,-1.82805 -2.38409,-2.96229 -0.55297,-0.68953 -1.06799,-1.41324 -1.65621,-2.06914 -0.67553,-0.67936 -1.34725,-1.41145 -2.02841,-2.11034 -0.52472,-0.85601 -1.44189,-1.49625 -2.08877,-2.25962 -0.74318,-0.72992 -1.42669,-1.51022 -2.06377,-2.31136 -1.0165,-0.97062 -2.09108,-1.87906 -3.00079,-2.96164 -0.93337,-0.9665 -1.96602,-1.80426 -2.8969,-2.772 -1.0512,-1.07099 -2.08392,-2.15984 -3.10546,-3.259131 -1.08988,-1.1497 -2.25689,-2.205254 -3.36795,-3.332471 -1.01174,-0.997747 -2.15324,-1.839736 -3.18717,-2.81546 -0.9909,-0.840916 -1.90718,-1.744834 -2.90733,-2.571769 -0.82024,-0.876971 -1.82916,-1.562645 -2.77004,-2.300548 -0.80255,-0.722784 -1.63433,-1.407806 -2.45442,-2.109606 0.29149,0.101558 0.10635,0.04824 -0.28737,-0.226724 -1.67063,-1.166756 0.82363,0.501881 -0.94043,-0.641303 -0.24354,-0.157821 -0.46966,-0.34101 -0.70449,-0.511515 -0.86036,-0.801532 -1.73165,-1.589773 -2.64853,-2.327121 -1.13094,-0.886223 -2.23116,-1.805063 -3.3922,-2.648802 -1.45594,-0.915201 -2.89778,-1.879071 -4.24654,-2.944838 -1.32085,-1.101966 -2.63496,-2.203038 -3.96427,-3.291123 -0.68777,-0.599413 -1.61397,-1.322417 -2.14862,-1.837162 -0.84579,-0.596894 -1.55061,-1.353522 -2.26691,-2.093333 -0.48915,-0.672343 -1.26534,-1.136577 -1.69164,-1.868051 -0.57028,-0.79748 -1.47344,-1.332165 -2.14518,-2.047665 -0.91647,-0.939066 -1.63373,-2.039653 -2.69209,-2.837295 -0.89148,-0.922608 -1.73188,-1.909454 -2.46566,-2.959964 -0.68727,-0.7637 -1.34747,-1.549526 -1.97983,-2.359374 -0.70493,-0.742635 -1.29681,-1.576699 -2.03693,-2.280378 -0.75833,-0.875078 -1.45631,-1.795399 -2.14784,-2.721474 -0.84804,-1.052966 -1.74823,-2.050274 -2.62867,-3.075323 -0.82318,-1.176163 -1.74315,-2.276692 -2.55869,-3.459809 -0.73734,-1.105462 -1.45334,-2.220168 -2.08154,-3.39094 -0.53811,-0.944674 -1.37554,-1.717509 -1.78325,-2.748269 -0.31953,-0.796704 -1.16432,-1.38489 -1.5356,-2.170765 -0.8038,-1.142989 -1.41871,-2.39229 -2.05419,-3.632378 -0.60315,-0.987881 -1.14501,-2.007846 -1.83849,-2.93917 -0.59741,-0.907454 -1.15135,-1.841495 -1.74511,-2.747353 -0.77812,-1.19122 -1.45659,-2.441654 -2.21326,-3.645546 -0.25434,-0.476992 -0.9085,-1.617483 -0.97183,-1.882525 -0.67887,-0.803061 -1.12696,-1.707992 -1.61427,-2.627972 -0.48587,-0.835183 -1.01686,-1.71463 -1.39921,-2.556775 -0.53143,-0.720416 -0.98666,-1.481668 -1.40832,-2.270357 -0.81174,-1.11854 -1.42081,-2.354952 -2.06146,-3.576896 -0.63321,-0.973038 -1.2608,-1.933813 -1.94363,-2.8722246 -0.44477,-0.7994604 -0.75928,-1.2305212 -1.3593,-2.1973162 -0.30337,-0.6320706 -0.77005,-1.2237454 -1.17508,-1.8155048 -1.01801,-1.2058137 -1.96656,-2.4645583 -2.85539,-3.7689029 -1.08918,-1.44858698 -2.39854,-2.700774 -3.58021,-4.068478 -1.19799,-1.3977118 -2.4687,-2.7362419 -3.70152,-4.1016779 0,0 3.46142,-3.4614226 3.46142,-3.4614226 z"
         id="path3041"
         style="fill:#de2d26;fill-opacity:1;fill-rule:nonzero;stroke:none" />
      <path
         inkscape:connector-curvature="0"
         d="m 352.79877,-5.8445124 c 1.53344,1.7892779 2.96097,3.66519 4.56,5.39670474 1.22591,1.40819686 2.61182,2.60701066 4.10724,3.71094156 1.17789,0.7479228 2.12198,1.7401164 3.10181,2.7088059 -0.0562,-0.031244 0.76953,0.6857357 0.74158,0.6682725 -0.1504,-0.093943 -0.59913,-0.3771185 -0.43979,-0.2992948 0.28019,0.1368542 0.53632,0.3182811 0.80448,0.4774217 -0.0365,-0.043669 1.07032,1.0874757 1.06785,1.0855454 -0.22234,-0.1731377 -0.90308,-0.4876324 -0.63133,-0.5622204 0.29283,-0.080377 0.4927,0.3551023 0.73905,0.5326535 0.74644,0.8170524 1.02842,1.27325 1.58037,2.0694499 0.52256,0.6904764 1.11418,1.3093364 1.65882,2.0094974 0.30016,0.48127 0.71898,0.894783 0.10895,0.207527 -0.14093,1.578353 -0.18488,3.168389 -0.42279,4.735059 -0.0338,0.222818 -1.67548,-0.02567 -1.2817,0.06827 -1.54267,-0.428295 -2.56211,-1.508617 -3.74334,-2.50873 -1.83996,-1.443632 -3.36612,-3.192969 -4.87304,-4.9664069 -1.06639,-1.565624 -2.35658,-2.9466182 -3.55275,-4.405456 -0.82175,-0.7666117 -1.43412,-1.7284514 -1.98115,-2.6838612 -0.53043,-0.6342051 -0.88043,-1.40219314 -1.17585,-2.16855592 -0.63772,-1.80515448 0.0391,-0.1825217 4.60009,-0.58407748 0.0601,-0.005294 5.2e-4,-0.19406484 0.0567,-0.17197781 0.22636,0.0890013 0.19372,0.4463409 0.29877,0.66571063 0.80029,1.54840208 1.70842,3.02873468 2.40797,4.62991568 0.53855,1.5954692 1.25627,3.1121021 1.71187,4.7367395 0.4549,0.7212535 0.59568,1.6379005 1.04699,2.3466365 0.6068,0.994117 0.91465,2.114016 1.12094,3.249123 -0.0317,-0.140701 -0.18038,-0.53828 -0.0949,-0.422103 0.56511,0.768356 0.36991,4.747768 0.12405,0.674751 0.28104,0.146218 0.72321,1.079587 0.88826,1.619366 0.17133,0.794502 0.0472,0.117593 -0.29416,-0.545139 -0.0653,-0.126792 -0.40041,-0.406127 -0.29627,-0.308686 0.86087,0.805466 1.00026,1.094425 0.77332,0.666436 0.55374,0.380911 1.06373,0.819752 1.56895,1.261665 1.0026,1.480351 0.72587,0.842887 1.57042,2.249486 0.43425,0.654879 0.64858,1.401894 0.7199,2.179157 0.004,0.07948 0.0454,0.311134 0.013,0.238447 -0.73809,-1.653596 -0.48124,-2.04394 -2.67935,-2.015672 -0.34502,0.0044 -0.62679,0.273267 -0.87135,0.480799 -0.10888,0.09671 -0.15318,0.222479 -0.20514,0.353598 -0.20025,1.353186 -0.13555,-0.629404 -0.13631,-0.916252 0.005,-0.485815 0.004,-0.971505 0.003,-1.457291 -0.002,-0.61937 -0.008,-1.238689 -0.004,-1.858085 -0.1755,-1.075388 0.54912,-1.920165 0.88063,-2.802367 0.0501,-0.124857 0.12833,-0.373769 0.15592,-0.460906 -0.28218,0.579282 0.74042,2.06617 0.15844,1.559859 -0.63024,-0.486843 -0.92647,-1.221506 -1.5253,-1.67661 -0.71715,-0.65074 -1.17688,-1.472337 -1.46696,-2.38265 1.53996,-0.538308 3.04146,-1.20281 4.61988,-1.6149237 0.0528,-0.013785 1.53177,2.6757947 1.70444,3.0068747 0.6338,1.224283 1.20531,2.480611 1.90428,3.670191 0.2578,0.429753 0.5242,0.85442 0.80532,1.269312 -5.97547,1.881552 -4.38132,1.149027 -3.47171,-1.398462 0.70276,-2.053812 -0.13776,-0.637631 4.97542,0.2429 0.0318,1.533455 0.0343,3.067391 0.0433,4.601112 0.003,2.502127 -0.001,5.004232 -0.0103,7.506335 -0.009,1.232019 -0.0128,2.46404 -0.0343,3.695929 -0.002,0.145057 -0.006,0.29027 -0.0114,0.435164 -5.60785,0.09933 -5.20967,0.66652 -4.35687,-2.927172 0.38675,-1.680313 0.88239,-3.321289 1.14295,-5.030551 0.20871,-1.671984 0.25854,-3.358991 0.28039,-5.042216 0.0423,-1.277106 -0.35245,-2.523577 -0.62672,-3.762916 -0.11129,-0.783743 -0.0256,-0.432313 -0.34326,-0.781023 0.31762,0.303611 0.7817,0.409403 1.19813,0.549546 -0.65322,0.01636 -1.30669,0.0197 -1.96006,0.02755 -1.13904,0.122034 -2.15826,-0.207491 -3.19221,-0.647226 -0.69971,-0.268344 -1.20831,-0.519188 -1.80479,-1.072621 -0.13903,-0.128998 -0.76281,-1.114095 -0.26277,-0.333646 -1.40371,-0.606691 0.0999,-0.334246 3.23676,-2.986262 0.95,1.305623 1.74343,2.712913 2.56683,4.099666 0.57474,1.145166 1.09986,2.287831 1.98084,3.230119 1.00604,0.948879 0.22843,0.983625 -3.37965,3.400597 -0.21662,0.145107 -0.29925,-0.427043 -0.44888,-0.640565 -0.78397,-0.960259 -1.24356,-2.096576 -1.57398,-3.277605 -0.0759,-0.279796 -0.13387,-0.563698 -0.17958,-0.849795 0,0 4.7845,-0.776243 4.7845,-0.776243 l 0,0 c 0.0123,0.04992 0.0548,0.226457 0.075,0.289818 0.16091,0.544686 0.317,1.075532 0.67108,1.530979 0.17109,0.233315 0.35276,0.459226 0.51327,0.699946 0.0252,0.03783 -0.0744,-0.121147 -0.1048,-0.08733 -3.07461,3.420081 -2.07838,4.772806 -3.88779,3.067529 -1.14589,-1.195369 -2.00792,-2.578379 -2.69439,-4.083829 -0.89237,-1.522088 -1.80558,-3.029281 -2.72886,-4.530725 2.91302,-3.2698851 2.26297,-4.4421565 4.53778,-2.595653 1.70863,1.967417 0.45327,0.507495 0.39213,0.465625 -1.44234,-0.9876884 -0.1672,-0.04503 0.29688,5.9e-4 0.15807,0.07253 0.32126,0.1348 0.4742,0.217584 0.0192,0.01038 -0.0435,0.0025 -0.0653,0.0037 -0.12063,0.0014 -0.24127,0.0028 -0.3619,0.0042 0.36386,0.07202 0.76494,-0.05961 1.13111,-0.0042 0.66597,0.0015 1.3318,-0.0094 1.99772,-0.0074 0.90937,0.01453 1.67377,0.302984 2.29137,0.941394 0.80078,0.847182 1.43465,1.863926 1.59914,3.041082 0.39174,1.616225 0.84901,3.253189 0.77571,4.930693 -0.0248,1.915576 -0.0638,3.836125 -0.32577,5.736963 -0.29473,1.8561 -0.80485,3.645104 -1.25589,5.463368 -0.10949,0.420192 -0.0878,0.909758 -0.35228,1.25413 -0.0531,0.06914 0.0366,-0.318215 -0.0283,-0.260003 -0.006,0.0053 -0.002,0.453747 -0.002,0.501273 -1.61711,0.08207 -3.23422,0.164129 -4.85133,0.246194 -0.005,-0.14683 -0.01,-0.293749 -0.0115,-0.440693 -0.0215,-1.232357 -0.025,-2.464847 -0.0336,-3.697338 -0.008,-2.503857 -0.0103,-5.007723 -6.4e-4,-7.511587 0.0124,-1.466915 0.0331,-2.933889 0.0383,-4.400784 4.8933,0.241615 5.21911,-1.145086 4.48153,1.174032 -0.92592,2.676909 -0.76883,1.383387 -5.02232,2.670764 -0.40464,-0.532234 -0.76919,-1.093746 -1.12151,-1.661572 -0.7542,-1.270572 -1.37013,-2.612103 -2.05174,-3.921584 -0.36676,-0.730918 -0.74267,-1.481631 -1.16193,-2.184377 -1.17028,-1.961602 -1.09889,-0.178129 3.82819,-2.896762 0.0308,0.08505 0.14155,0.290473 -0.16382,-0.0037 0.72291,0.570404 1.27769,1.282555 1.83998,1.939013 0.82713,0.79425 1.57483,1.862731 1.25734,3.073665 -0.0928,0.419137 -0.22052,0.829779 -0.37378,1.230757 -0.76664,1.842768 -0.23997,1.106353 -0.52051,0.593106 -0.0607,-0.111043 -0.001,0.253092 -0.002,0.379639 0.004,0.617691 -0.003,1.235309 -0.004,1.852975 -1.2e-4,0.482802 0.003,0.965428 0.0105,1.44823 0.003,0.829015 0.0449,1.662565 -0.14688,2.476338 -0.16691,0.469006 -0.40356,0.906535 -0.72427,1.29023 -1.01164,1.023153 -3.16735,1.780658 -4.18948,0.263911 -0.33912,-0.503223 -0.51217,-1.10028 -0.76826,-1.65042 -0.002,-0.03027 -0.004,-0.06053 -0.005,-0.0908 0.001,-0.02966 -0.0338,-0.08432 0.004,-0.08899 0.0655,0.144034 0.13107,0.288069 0.19661,0.432103 0.0628,0.1487 -0.30374,-0.56802 -0.24499,-0.417684 -0.17856,-0.291536 -1.4573,-2.027817 -0.57888,-1.081418 -0.52615,-0.44393 -1.05093,-0.886689 -1.60723,-1.292456 -0.19845,-0.194016 -0.66982,-0.261101 -1.66476,-2.204985 0.93709,1.321733 -0.23361,-0.194987 -0.41318,-0.477803 -0.0957,-0.701599 -0.12746,-1.41496 -0.28725,-2.104797 -0.0665,-0.287059 -0.11125,0.589479 -0.0699,0.881215 0.0599,0.422237 0.71357,1.519087 -0.24612,-0.549055 -0.13437,-0.705238 -0.30092,-1.380659 -0.71221,-1.9871 -0.47748,-1.044448 -0.92546,-2.100624 -1.36848,-3.160652 -0.4089,-1.4170796 -1.08368,-2.727711 -1.52952,-4.131638 -0.66984,-1.6044865 -1.65635,-3.0424522 -2.38055,-4.6210792 -1.46185,-3.5617737 -1.1711,-2.88032363 4.05883,-3.6352826 0.18298,0.4466145 0.36662,0.8743375 0.70706,1.22858445 0.50887,0.81898223 0.96618,1.65564805 1.73619,2.31835245 1.14464,1.4471037 2.5077,2.7311872 3.51561,4.2938438 1.33389,1.578657 2.67371,3.1403114 4.29811,4.4355741 0.45211,0.392485 0.89568,0.828703 1.32649,1.229199 0.4464,0.414989 1.94388,1.053968 -0.28294,0.17795 0.12417,0.01846 0.49694,0.03873 0.37251,0.05536 -2.17837,0.29123 -0.83904,-2.8550638 -0.64823,4.591167 -1.01403,-0.341238 -1.89298,-0.911748 -2.47483,-1.83614 -0.62987,-0.810464 -1.31555,-1.566812 -1.92265,-2.395176 -0.0505,-0.06671 -1.33558,-1.814723 -0.57108,-0.886196 0.0359,0.04364 -0.10547,-0.117844 -0.10081,-0.136375 1.03216,0.541899 -0.61566,-0.332541 -0.83392,-0.780748 1.07045,0.432498 -1.57536,-0.8653764 -1.74834,-1.3808698 -0.75682,-0.7973543 -1.56063,-1.5435078 -2.50831,-2.1543762 -1.74673,-1.2868707 -3.38748,-2.6746248 -4.82517,-4.3110041 -1.71027,-1.8546927 -3.28164,-3.83130406 -4.83907,-5.8148582 0,0 3.91112,-2.9333461 3.91112,-2.9333461 z"
         id="path3043"
         style="fill:#de2d26;fill-opacity:1;fill-rule:nonzero;stroke:none" />
      <path
         inkscape:connector-curvature="0"
         d="m 378.11395,92.56001 c 0.0257,1.65767 0.009,3.315538 0.006,4.973291 -0.14626,0.908152 0.13295,1.413802 0.42415,2.227974 0.40336,1.235385 0.47193,2.538825 0.52195,3.827165 -0.10125,0.3862 0.25253,3.74622 -0.13283,1.43817 -0.0942,-0.15148 -0.44723,-0.52304 -0.28256,-0.45446 0.66602,0.27736 1.13226,2.18107 1.25257,2.81603 0.0379,1.37751 0.42716,2.69342 0.6964,4.03803 0.20864,1.02729 0.33288,2.06721 0.3904,3.11315 -0.0518,1.00105 0.16982,1.33479 0.41292,2.34162 0.49378,1.38408 0.2426,2.92801 0.62315,4.31821 0.46908,1.41813 0.50456,2.93839 0.88599,4.36986 0.56684,1.35123 0.52228,2.86867 0.9502,4.24459 0.42038,1.32173 0.73006,2.66758 0.90577,4.04279 0.0857,0.89921 0.51283,1.76196 0.75171,2.69081 0.22403,0.80979 0.29473,1.64374 0.32858,2.47935 -0.0558,-0.33041 0.0598,1.33642 0.008,1.00527 -0.1063,-0.68587 -0.0968,-0.70009 0.20505,-0.0831 0.55154,1.15015 0.65413,2.43212 0.72689,3.68626 0.0817,0.95103 0.48812,1.95658 0.70059,2.98706 0.0951,1.33812 0.53723,2.59278 0.83178,3.89548 0.13879,1.28317 0.38851,2.48551 0.76627,3.71111 0.38906,1.17277 0.5338,2.39733 0.61142,3.62395 0.38796,0.96017 0.61093,1.9862 0.79171,3.00358 0.14973,0.21625 0.12197,2.69679 0.21186,1.70764 0.67595,1.12234 0.64025,2.44771 0.97059,3.66618 0.50262,1.55769 0.5341,3.22036 0.92897,4.79512 0.43161,1.3801 0.72743,2.7863 0.88759,4.22205 0.34358,1.14001 0.67605,2.27385 1.06725,3.39847 0.51305,1.60633 0.70422,3.27637 1.13422,4.90191 0.33378,1.72283 0.80235,3.40774 1.17008,5.12257 0.30822,2.24224 0.65516,4.4713 1.02378,6.70524 0.55985,1.81969 0.84236,3.71755 1.3699,5.5419 0.51957,1.45066 0.82976,2.95589 1.01209,4.48235 0.3903,1.03317 0.64842,2.11263 0.86345,3.19469 0.0127,0.87875 0.32705,1.32935 0.64571,2.12897 0.61194,0.72124 1.0901,2.37503 1.48092,3.50525 0.51362,1.44259 1.14031,2.83148 1.55571,4.31091 0.46157,0.75671 0.61547,1.7025 1.07779,2.44565 0.57033,1.4385 1.20875,2.85033 1.66084,4.33294 0.7324,1.09634 0.73326,2.53517 1.31103,3.67436 0.59695,1.0499 0.68419,2.2895 1.10782,3.39096 0.37066,0.8486 0.66021,1.86154 0.88667,2.65166 0.36318,0.86584 0.67973,1.6679 1.03723,2.34065 0.0736,0.14527 0.15509,0.28678 0.22076,0.4358 0.24511,0.55619 0.45401,1.14166 0.58796,1.7359 0.13267,0.58855 0.12253,0.87091 0.12177,0.46085 0.57458,0.92068 0.61942,2.04617 1.01374,3.02259 0.41049,1.26653 0.84678,2.51885 1.27972,3.77901 0.71593,1.03258 0.7826,2.45083 1.41994,3.49397 0.6789,0.74145 0.62081,1.90252 1.11388,2.70439 0.48336,0.94535 0.70793,1.97978 1.11691,2.95406 0.43943,0.9796 0.62975,2.15185 0.88238,3.11535 0.40001,1.03827 0.86459,2.03856 1.25829,3.082 0.46616,1.33883 0.78635,2.76769 1.37839,4.05829 0.68874,0.94728 0.6793,2.2276 1.18796,3.22966 0.49362,1.08611 0.75616,2.246 1.15587,3.36631 0.3552,1.27676 0.9026,2.48072 1.32452,3.73531 0.23791,1.21218 0.72279,2.33841 1.06058,3.52421 0.19539,1.24119 0.67518,2.39405 0.98599,3.60739 0.56164,1.15429 0.91771,2.39963 1.19043,3.65008 0.36484,0.70313 0.66266,1.48107 1.03922,2.20084 0.66848,1.53238 1.33949,3.06528 2.0937,4.55815 0.73028,1.74814 1.5423,3.46789 2.23322,5.23306 0.544,0.5974 0.72053,1.46617 1.21484,2.08151 0.58034,1.23405 1.23565,2.43229 1.73257,3.70684 0.47322,0.77088 0.83614,1.38704 1.23359,1.92667 0.67982,1.15917 1.26356,2.39349 2.08446,3.46165 0.78921,1.21847 1.67079,2.36685 2.33813,3.65897 0.58854,1.01196 1.011,2.09622 1.70419,3.04593 0.61037,0.94422 1.25228,1.83681 1.8772,2.76628 0.60365,0.36653 1.07481,1.01905 1.50962,1.48081 0.80657,0.75482 1.20623,1.86126 1.9762,2.6276 1.16344,1.55961 2.52867,2.94791 3.75128,4.4576 1.21792,1.47807 2.45794,2.93826 3.67624,4.41849 0.83722,0.94505 1.35611,2.25583 2.3156,3.08519 0.71282,0.79606 1.37813,1.63143 2.07646,2.44027 0.56226,0.81601 1.20729,1.53999 1.6712,2.43108 0.30083,0.58807 0.74495,1.14994 1.13682,1.72221 0.68715,0.92217 1.20686,1.9412 1.79554,2.92332 0.48641,0.85755 1.01818,1.6604 1.5104,2.51162 0.22884,0.55936 0.87139,1.26847 0.7813,1.9024 -0.0222,0.15661 -0.26836,-0.36303 -0.13881,-0.45379 0.12353,-0.0865 0.15497,0.25879 0.23246,0.38819 0.22563,0.38926 0.44009,0.78487 0.64797,1.18385 0,0 -4.26977,2.30555 -4.26977,2.30555 l 0,0 c -0.19206,-0.34148 -0.38504,-0.68244 -0.5797,-1.02244 -0.42845,-0.75183 -0.54669,-1.26864 -0.89532,-1.85526 -0.49568,-0.85135 -1.01367,-1.67801 -1.52436,-2.51875 -0.51193,-0.90931 -0.99393,-1.81674 -1.6233,-2.65561 -0.466,-0.73762 -0.99117,-1.41023 -1.39358,-2.18868 -0.27618,-0.53561 -0.77434,-1.04276 -1.01568,-1.45957 -0.65256,-0.73346 -1.26731,-1.49821 -1.91505,-2.23576 -0.96443,-1.03869 -1.75552,-2.21357 -2.57774,-3.3643 -1.25512,-1.48661 -2.51962,-2.96605 -3.75607,-4.46581 -1.18398,-1.48601 -2.52774,-2.84086 -3.64319,-4.38417 -0.66815,-0.83338 -1.18033,-1.74105 -1.87919,-2.54909 -0.51714,-0.79573 -1.37139,-1.20598 -1.91199,-1.99182 -0.61433,-0.90203 -1.23029,-1.79557 -1.84735,-2.69251 -0.78598,-1.15131 -1.38726,-2.38551 -2.03515,-3.61458 -0.54981,-1.07117 -1.33469,-1.99162 -1.96374,-3.01751 -0.7723,-1.09539 -1.52164,-2.25496 -2.0668,-3.47937 -0.68975,-0.98117 -1.32846,-1.98858 -1.8603,-3.06718 -0.34129,-0.98368 -0.93901,-1.85885 -1.28589,-2.83869 -0.56568,-0.95698 -1.08396,-1.93874 -1.64853,-2.89557 -0.62686,-1.62808 -1.4436,-3.18659 -2.0755,-4.81367 -0.72685,-1.47667 -1.40706,-2.97918 -2.02451,-4.50391 -0.57267,-1.11672 -1.0639,-2.26512 -1.48229,-3.45032 -0.23045,-1.20537 -0.74304,-2.33088 -1.16322,-3.47678 -0.27089,-1.17115 -0.7692,-2.27962 -0.9458,-3.4749 -0.28888,-1.09554 -0.77945,-2.13231 -0.97581,-3.25364 -0.4263,-1.23361 -0.95352,-2.42829 -1.31431,-3.68398 -0.37978,-1.09275 -0.63146,-2.22041 -1.10992,-3.27346 -0.35355,-1.02537 -0.56625,-2.09381 -1.12523,-3.04169 -0.56797,-1.39731 -1.0423,-2.84378 -1.46773,-4.28899 -0.35625,-1.04 -0.82455,-2.03818 -1.23155,-3.057 -0.31004,-0.9745 -0.45549,-1.98116 -0.82345,-2.93828 -0.41338,-0.99847 -0.65415,-2.04843 -1.13512,-3.01811 -0.31093,-0.85535 -0.49471,-1.7255 -1.02744,-2.48739 -0.55493,-1.30663 -0.97297,-2.66931 -1.61189,-3.94496 -0.43616,-1.29156 -0.87119,-2.57821 -1.29976,-3.87088 -0.25508,-0.8721 -0.39748,-1.76736 -0.83099,-2.57853 -0.27051,-0.76587 -0.41887,-1.5704 -0.77868,-2.29956 -0.45789,-0.88864 -0.8322,-1.80127 -1.21624,-2.72439 -0.36607,-1.01434 -0.59556,-2.06693 -1.04686,-3.05466 -0.30287,-1.03336 -0.49582,-2.09286 -0.99089,-3.06347 -0.50245,-1.3598 -0.81333,-2.78605 -1.46843,-4.09323 -0.34363,-1.23081 -0.93749,-2.37218 -1.3454,-3.58093 -0.48898,-1.07291 -0.94496,-2.16011 -1.39632,-3.24979 -0.40158,-1.39266 -1.03342,-2.69177 -1.49673,-4.06283 -0.39075,-1.16515 -0.69024,-2.33824 -1.39381,-3.3634 -0.30061,-0.9488 -0.884,-1.82774 -0.86356,-2.86924 -0.26123,-1.21034 -0.64048,-2.38258 -0.93815,-3.58391 -0.16441,-1.28803 -0.43965,-2.55242 -0.89683,-3.77205 -0.53618,-2.00415 -0.95933,-4.0402 -1.50524,-6.04373 -0.35824,-2.16362 -0.68797,-4.32546 -0.97096,-6.49925 -0.33461,-1.63774 -0.77263,-3.24885 -1.09933,-4.88841 -0.39277,-1.50973 -0.61464,-3.04649 -1.02317,-4.55106 -0.49711,-1.46074 -0.95475,-2.93443 -1.2889,-4.44268 -0.14685,-1.26263 -0.43417,-2.48643 -0.81888,-3.69987 -0.3352,-1.59548 -0.48649,-3.2264 -0.92292,-4.80365 -0.16925,-0.83992 -0.18534,-1.7103 -0.51701,-2.50387 -0.47202,-0.98446 -0.62586,-1.99472 -0.68672,-3.07244 -0.22136,-1.2144 -0.65855,-2.3663 -0.8603,-3.58462 -0.0419,-0.83669 -0.13529,-1.67363 -0.41272,-2.46947 -0.40828,-1.33363 -0.73536,-2.66066 -0.86469,-4.05307 -0.31195,-1.33947 -0.74408,-2.65728 -0.85369,-4.03413 -0.23085,-1.22475 -0.75514,-2.3953 -0.7786,-3.65197 -0.0391,-0.63134 -0.0231,-1.31245 -0.26104,-1.90283 -0.38838,-0.91937 -0.77785,-1.82126 -0.67075,-2.84651 -0.007,-0.47784 -0.0446,-0.94995 -0.18822,-1.40895 -0.28462,-1.09476 -0.80147,-2.13738 -0.86956,-3.27921 -0.15696,-1.16831 -0.44744,-2.30167 -0.8014,-3.4263 -0.35479,-1.45372 -0.47901,-2.95503 -0.98846,-4.37329 -0.32634,-1.49426 -0.4864,-3.02159 -0.90798,-4.49807 -0.25501,-1.39313 -0.25548,-2.8135 -0.59455,-4.19329 -0.23302,-1.03623 -0.55838,-2.0655 -0.49596,-3.13994 -0.0661,-0.83114 -0.16074,-1.65861 -0.34536,-2.4732 -0.27679,-1.39612 -0.69243,-2.7799 -0.6996,-4.21362 -0.0268,-0.64799 0.43829,0.44357 -0.50759,-0.97092 -0.33266,-1.17693 -0.46851,-2.21702 -0.40055,-3.43918 -0.0242,-0.78096 -0.0578,-1.56945 -0.22237,-2.33525 -0.46573,-1.26279 -0.88281,-2.521048 -0.74228,-3.892469 -0.003,-1.657753 -0.0195,-3.315621 0.006,-4.973291 0,0 4.88891,0 4.88891,0 z"
         id="path3049"
         style="fill:#de2d26;fill-opacity:1;fill-rule:nonzero;stroke:none" />
      <path
         inkscape:connector-curvature="0"
         d="m 605.14422,479.90896 c -1.41232,-1.04249 -2.77223,-2.1489 -4.19806,-3.17218 -1.0885,-0.99624 -2.22849,-1.8899 -3.41137,-2.75933 -1.32586,-0.73723 -2.64338,-1.46008 -3.84019,-2.40279 -1.31963,-1.00573 -2.57864,-2.08512 -3.80603,-3.20044 -1.01952,-0.94857 -2.01243,-1.92525 -2.99085,-2.916 -0.71205,-0.71424 -1.42642,-1.42623 -2.1335,-2.1454 0.0831,0.0248 -1.12084,-0.90844 -1.62681,-1.35085 -0.67329,-0.63016 -1.31438,-1.22822 -2.05592,-1.77531 -0.87693,-0.6118 -1.87373,-1.02819 -2.78488,-1.59808 -1.39749,-0.93288 -2.90049,-1.68693 -4.31588,-2.58845 -1.43087,-0.99959 -2.98577,-1.74854 -4.58693,-2.42908 -2.39476,-0.90681 -4.60073,-2.11892 -6.61805,-3.6889 -1.61584,-1.42966 -3.3556,-2.7108 -5.11522,-3.95533 -1.38877,-0.95224 -2.69549,-2.03815 -3.85749,-3.25657 -0.1433,-0.0856 -1.7381,-2.15647 -1.49789,-1.66225 -0.45559,-0.50872 -1.02238,-0.87602 -1.56309,-1.29231 -1.02985,-0.77098 -1.95141,-1.66658 -2.95409,-2.47082 -1.09341,-1.03534 -2.205,-2.04096 -3.37453,-2.99025 -1.07061,-0.9058 -2.18237,-1.7542 -3.30709,-2.59277 -1.29029,-1.00581 -2.63527,-1.93259 -3.86782,-3.01008 -1.21904,-0.97754 -2.22544,-2.18299 -3.39558,-3.21625 -0.88186,-0.84472 -1.63987,-1.87606 -2.47342,-2.72489 -0.71271,-0.65164 -1.33117,-1.39674 -1.97012,-2.119 -0.43547,-0.69984 -0.61034,-0.84558 -1.14597,-1.32624 -0.53481,-0.5144 -0.88143,-0.73514 -1.62642,-1.18881 -1.02325,-0.67755 -1.94738,-1.46855 -2.97264,-2.13973 -1.48918,-0.78374 -2.93493,-1.66013 -4.30364,-2.63777 -1.14497,-0.79041 -2.31647,-1.54248 -3.43926,-2.36039 -0.86664,-0.54118 -1.71868,-1.09575 -2.52425,-1.72542 -0.78022,-0.38713 -1.36867,-1.08339 -1.96437,-1.72498 -0.42437,-0.48611 -0.87569,-0.94626 -1.3232,-1.41072 -0.37293,-0.65866 -0.92461,-1.07172 -1.47747,-1.57599 -0.6719,-0.61005 -1.32451,-1.24093 -1.97066,-1.87805 -0.42433,-0.33889 -0.88905,-0.85923 -1.48384,-1.18951 -0.91303,-0.68846 -1.76113,-1.43423 -2.53105,-2.279 -0.74528,-0.62681 -1.49138,-1.2523 -2.22349,-1.89452 -0.92958,-0.78597 -1.94086,-1.46405 -2.84563,-2.29066 -1.08509,-1.05921 -2.22958,-2.05252 -3.37195,-3.05186 -1.0125,-0.89225 -1.99165,-1.82145 -2.9549,-2.76639 -0.96285,-0.69517 -1.87485,-1.48679 -2.72904,-2.31708 -0.71845,-0.85547 -1.61599,-1.52262 -2.40947,-2.30397 -0.60838,-0.56993 -0.8449,-1.37654 -1.33783,-1.92693 -0.40196,-0.66632 -0.99149,-1.20084 -1.59304,-1.93182 -0.56065,-0.83025 -1.19396,-1.59743 -1.71776,-2.4513 -0.53063,-0.7007 -0.99468,-1.48014 -1.56522,-2.17032 -0.84318,-1.00791 -1.79929,-1.90453 -2.61227,-2.93708 -0.83985,-1.10354 -1.55424,-2.29257 -2.46096,-3.34253 -0.71091,-0.93877 -1.5335,-1.74992 -2.14685,-2.76582 0.35341,1.14605 -1.23925,-2.0752 -1.16414,-1.56296 -0.57877,-0.87941 -1.03702,-1.80676 -1.28582,-2.83105 0.11809,1.01706 -0.43923,-2.43252 -0.16156,-1.48175 0.37415,1.28118 0.16464,0.81826 -0.0134,0.48339 -0.49828,-0.8197 -0.72871,-1.73738 -0.87365,-2.67423 0.15246,1.06798 -0.65102,-0.94745 -0.72825,-1.15609 -0.79244,-2.73588 0.63484,0.88006 -0.62848,-1.55651 0.1434,0.52592 -0.75864,-2.03586 -0.4954,-1.55852 0.72755,1.31928 -0.0613,0.19918 -0.21579,-0.0449 -0.38999,-0.1937 -0.99554,-3.48106 -0.76427,-2.15116 -0.22602,-0.3885 -0.77841,-0.9141 -1.22111,-1.59238 -0.39493,-0.95925 -0.55923,-1.00505 -1.12546,-1.87604 -0.0778,0.10812 -0.87424,-0.6802 -1.11251,-0.89244 -0.21822,-0.19477 -0.43455,-0.39165 -0.64988,-0.58963 0,0 3.21236,-3.63 3.21236,-3.63 l 0,0 c 0.22016,0.18713 0.43953,0.37519 0.65753,0.56484 0.75681,0.65941 1.55602,1.28883 2.11989,2.132 -0.0347,-0.0299 -0.13135,-0.12639 -0.10401,-0.0897 0.41926,0.56303 1.01133,1.31296 1.10823,1.75627 0.43815,0.72645 1.14363,1.29781 1.49912,2.0997 0.16955,0.47286 0.43502,1.16724 0.49325,1.66292 0.37613,0.59309 0.88039,1.26972 0.90519,1.9413 0.32195,0.60217 0.93596,1.62909 0.88602,2.14719 0.20511,0.56921 0.88886,1.31677 0.9919,2.19894 0.008,0.42947 0.15739,0.69059 0.3713,1.07168 0.34181,0.67657 0.54396,1.39979 0.59336,2.14936 0.0351,0.20437 0.3125,0.76383 0.54321,1.13733 0.48736,0.79373 0.45058,0.8695 1.33119,1.82321 0.4696,0.7756 1.17822,1.32661 1.68149,2.08206 0.97878,1.13057 1.78325,2.38338 2.65993,3.5931 0.70292,1.04208 1.80947,1.78548 2.52542,2.82754 0.72447,0.92055 1.34039,1.90545 2.01066,2.86335 0.37701,0.55254 0.89285,1.18679 1.29223,1.79985 0.48001,0.70402 1.01856,1.11852 1.53079,1.84498 0.0295,0.0418 -0.0766,-0.0679 -0.1149,-0.10191 0.59492,0.68339 0.8868,1.27948 1.21157,1.76446 0.55814,0.86615 1.80628,1.30196 2.34468,2.22179 0.7926,0.85907 1.77834,1.52004 2.67032,2.26887 0.91092,0.87931 1.83068,1.75015 2.7855,2.58202 1.18811,1.04891 2.3771,2.09283 3.51647,3.19175 0.79487,0.84611 1.87295,1.3745 2.70494,2.18241 0.8844,0.79613 1.84625,1.50609 2.67828,2.35963 0.44683,0.6591 0.85756,0.74951 1.46197,1.32903 0.0299,0.0287 -0.0791,-0.0251 -0.11864,-0.0376 0.86954,0.53578 1.6165,1.23643 2.39587,1.88793 0.60366,0.59237 1.20489,1.18799 1.83363,1.75391 0.64744,0.5901 1.3248,1.16582 1.82172,1.89606 0.0339,0.0498 -0.0939,-0.0755 -0.14081,-0.11328 0.49226,0.50075 0.97211,1.0133 1.44246,1.5347 0.41696,0.46988 0.73974,0.87706 1.33706,1.13988 0.79906,0.60838 1.6497,1.12278 2.48762,1.67594 1.04792,0.86095 2.30974,1.47018 3.38639,2.29922 1.28432,0.96932 2.73364,1.70959 4.1188,2.52267 0.97113,0.65151 1.87953,1.36839 2.81737,2.06397 0.84141,0.51844 1.64303,1.09117 2.37392,1.75951 0.72551,0.68125 1.31579,1.38201 1.47546,1.66287 0.4827,0.53186 0.94485,1.08218 1.44283,1.59993 0.97362,0.86928 1.76515,1.89345 2.65409,2.84728 1.15059,1.04706 2.17902,2.22042 3.38037,3.20667 1.09666,1.01966 2.39775,1.79208 3.55108,2.74485 1.16855,0.8859 2.32665,1.77977 3.45264,2.71843 1.17378,0.96066 2.31762,1.94931 3.40681,3.00458 0.95627,0.80541 1.84979,1.67106 2.84791,2.42593 0.761,0.62634 1.38393,1.10912 1.87481,1.56722 0.64399,0.68308 1.11323,1.21901 1.78579,1.93099 0.76863,1.04701 2.10205,1.69494 3.07412,2.52069 1.83157,1.29038 3.65786,2.60025 5.32953,4.09662 1.66285,1.32739 3.53257,2.25469 5.50664,3.0439 1.84907,0.79866 3.65185,1.67877 5.31517,2.82365 1.40863,0.93131 2.95224,1.65433 4.33741,2.62822 0.92783,0.70554 2.14351,0.97902 3.01994,1.77506 0.87954,0.66716 1.6611,1.40905 2.47703,2.14037 0.60674,0.5045 1.09685,0.96832 1.73235,1.45485 0.71392,0.70525 1.41962,1.41873 2.13079,2.12674 0.94359,0.92444 1.87425,1.8628 2.84917,2.75455 1.16113,1.06506 2.37378,2.07079 3.61888,3.03634 1.05967,0.97571 2.49862,1.40704 3.64615,2.26155 1.14719,0.87311 2.3108,1.70411 3.35526,2.70589 1.44743,1.04629 2.86321,2.13126 4.26158,3.24332 0,0 -2.93334,3.91112 -2.93334,3.91112 z"
         id="path3051"
         style="fill:#de2d26;fill-opacity:1;fill-rule:nonzero;stroke:none" />
      <path
         inkscape:connector-curvature="0"
         d="m -1.3573615,562.028 c 2.2080909,-0.0349 4.4166467,-0.0251 6.624941,-0.0226 1.5067968,0.006 3.0135706,0.0211 4.5203789,0.0222 1.3779476,-0.12355 2.6834816,0.1813 4.0086176,0.51058 1.217221,0.25385 2.458505,0.3677 3.698877,0.42687 1.00221,0.0438 2.005883,0.0442 3.00888,0.0403 1.098352,-0.005 2.196761,-0.009 3.295127,-0.005 1.176243,0.002 2.352461,-0.006 3.528696,-0.011 1.945846,0.0976 3.854059,-0.31792 5.773069,-0.57529 1.781135,-0.23369 3.574297,-0.33069 5.36865,-0.37748 1.115694,-0.0209 2.231543,-0.0108 3.347327,-0.0111 0.779283,0.004 1.558608,0.0141 2.337902,0.0108 0.927085,0.002 1.854153,-0.005 2.781223,-0.0108 1.719952,-0.01 3.439935,-0.0112 5.159909,-0.0127 1.612409,-0.002 3.224869,-8.4e-4 4.837202,0.0163 1.136839,0.0742 1.175748,0.0105 1.97125,-0.28335 1.3268,-0.46353 2.730288,-0.58298 4.123616,-0.65161 1.426083,-0.48104 2.932822,-0.67574 4.423546,-0.83339 2.152986,-0.13233 4.288253,-0.15101 6.425211,-0.45311 2.7228,-0.4342 5.475705,-0.57012 8.227217,-0.66032 2.842857,0.0664 5.650483,-0.15536 8.469436,-0.48494 2.581982,-0.36972 5.147156,-0.49308 7.739297,-0.21076 2.449369,0.35417 4.883489,0.52031 7.347259,0.3039 1.67589,-0.1673 3.34833,-0.36951 5.02601,-0.51863 1.02996,-0.0801 2.06382,-0.0812 3.09622,-0.0893 2.14174,0.34553 4.28502,0.61762 6.44913,0.77892 2.3949,0.13265 4.79375,0.16195 7.19174,0.17917 1.72259,0.002 3.44515,0.0162 5.16774,0.017 1.78442,-0.0796 3.5354,0.0222 5.29971,0.28773 2.38104,0.33606 4.81693,0.0101 7.21,-0.11532 2.74628,-0.13724 5.49596,-0.17145 8.24513,-0.18863 1.97729,-0.016 3.95458,0.008 5.93185,-3.4e-4 1.90144,0.0249 3.7779,0.0585 5.65626,-0.24598 1.38734,-0.21689 2.76878,-0.47885 4.16634,-0.62221 0.91318,-0.0828 1.8308,-0.0748 2.74665,-0.0878 2.14528,0.10048 4.25755,-0.20113 6.38122,-0.45155 2.14101,-0.25294 4.29194,-0.40316 6.44574,-0.48458 1.08329,-0.0303 2.16712,-0.0369 3.25074,-0.0255 1.0265,0.006 2.05298,-0.003 3.07947,-0.008 1.54895,-6e-4 3.0979,-0.001 4.64685,-0.004 1.81405,-9.6e-4 3.62813,-0.01 5.44217,-2.5e-4 1.45548,0.01 2.91096,0.006 4.36646,0.002 2.41633,-0.037 4.8361,0.0547 7.24598,-0.14021 2.43196,-0.27705 4.86315,-0.55087 7.30547,-0.71822 1.40742,-0.0857 2.81777,-0.10709 4.22748,-0.10538 0.93851,-0.006 1.877,0.01 2.81548,0.009 0.9771,0.0756 1.02756,-0.0726 1.9563,-0.34429 1.03593,-0.27554 2.08887,-0.48321 3.15683,-0.57746 -1.84785,0.22928 2.18548,-0.80459 2.3067,-0.82467 1.06821,-0.45523 2.22183,-0.58326 3.27956,-1.06045 1.12151,-0.3765 2.15852,-0.87355 3.25567,-1.3003 1.21186,-0.30545 2.32846,-0.83153 3.52579,-1.1946 1.29447,-0.38411 2.53626,-0.87842 3.87335,-1.15946 0.91849,-0.0156 1.51161,-0.38612 2.3322,-0.71957 2.92467,-1.02924 -6.74644,2.36688 0.60653,4.21365 0.0736,0.0103 0.14716,0.0207 0.22074,0.031 0,0 0.36329,-4.83212 0.36329,-4.83212 l 0,0 c 0.11108,0.0132 0.22216,0.0263 0.33325,0.0395 2.29711,0.48777 2.89615,4.72026 0.32338,5.05917 -1.03214,0.42685 -2.03591,0.91526 -3.16993,0.99879 -1.19218,0.25209 -2.2982,0.69513 -3.45863,1.04772 -1.09358,0.33456 -2.13315,0.80992 -3.23925,1.0986 -1.01325,0.34664 -1.96394,0.85768 -2.98414,1.19148 -1.46277,0.64172 -3.01665,0.95537 -4.53966,1.42472 -0.94513,0.1097 -1.66698,0.58021 -2.59925,0.83736 -0.74945,0.0668 -1.47948,0.24308 -2.21079,0.41796 -1.09198,0.3209 -2.19344,0.61771 -3.34233,0.52848 -0.92754,-0.005 -1.85513,0.003 -2.78269,4e-5 -1.29887,0.0139 -2.59787,0.0355 -3.89424,0.12534 -2.43676,0.18739 -4.8598,0.50283 -7.28867,0.76873 -2.53739,0.17933 -5.07584,0.0979 -7.61841,0.0914 -1.4555,-0.004 -2.91096,-0.007 -4.36644,0.002 -1.81409,0.01 -3.62822,7.9e-4 -5.44233,-2.1e-4 -1.5501,-0.003 -3.10019,-0.004 -4.65027,-0.006 -1.0278,-0.006 -2.05557,-0.0172 -3.08339,-0.0186 -1.01426,0.008 -2.02905,0.003 -3.04249,0.0509 -2.02871,0.0903 -4.05142,0.28133 -6.06909,0.50811 -2.31277,0.26992 -4.621,0.56094 -6.95468,0.41448 -0.74301,-0.01 -1.4861,-0.006 -2.2275,0.0513 -1.31396,0.15088 -2.60504,0.44787 -3.91385,0.63695 -2.13807,0.33648 -4.27252,0.3574 -6.43425,0.3007 -1.96182,-0.01 -3.92368,0.0105 -5.88546,0.0221 -2.68056,0.0311 -5.36168,0.0761 -8.0397,0.202 -2.73294,0.13192 -5.50684,0.47435 -8.22386,0.0285 -1.50727,-0.24789 -2.99623,-0.3256 -4.52749,-0.25786 -1.73384,0.006 -3.46763,0.028 -5.20152,0.019 -2.51232,-0.009 -5.02658,-0.0227 -7.53477,-0.18266 -2.03492,-0.15297 -4.08504,-0.32718 -6.07155,-0.81455 -0.88777,-0.004 -1.77817,-0.0216 -2.66338,0.0587 -1.68822,0.15737 -3.36368,0.44595 -5.05367,0.59148 -2.78462,0.224 -5.54028,0.0924 -8.304956,-0.33085 -2.215692,-0.25078 -4.401524,-0.11037 -6.608547,0.22222 -2.961476,0.36003 -5.916852,0.58508 -8.903719,0.52527 -2.577476,0.0737 -5.15772,0.18493 -7.707779,0.59555 -2.195916,0.29321 -4.385073,0.36316 -6.596584,0.44655 -1.584092,0.15563 -3.120687,0.49087 -4.673681,0.82859 -0.89957,0.0483 -1.811349,0.0831 -2.680224,0.34393 -1.189751,0.44094 -2.390455,0.69759 -3.665088,0.59358 -1.612325,0.0172 -3.224777,0.0179 -4.837178,0.0163 -1.720001,-0.001 -3.440009,-0.003 -5.159988,-0.0126 -0.928681,-0.006 -1.857353,-0.0129 -2.786048,-0.012 -0.780977,-0.005 -1.562012,0.002 -2.343004,0.001 -1.068045,-0.005 -2.136402,-0.004 -3.204129,0.025 -1.620065,0.0461 -3.237098,0.15323 -4.84458,0.36681 -2.13501,0.28806 -4.264665,0.72162 -6.430206,0.59109 -1.174607,-0.005 -2.349198,-0.0128 -3.523814,-0.009 -1.098101,0.006 -2.196255,0.006 -3.294365,0.006 -1.084382,-0.002 -2.169106,0.006 -3.252939,-0.0362 -1.565655,-0.0777 -3.135028,-0.20534 -4.664369,-0.56866 -0.96549,-0.24922 -1.778894,-0.50728 -2.8048636,-0.36635 -1.5068083,0.001 -3.0135821,0.0165 -4.5203789,0.0222 -2.2082943,0.003 -4.4168501,0.0123 -6.624941,-0.0226 0,0 0,-4.88891 0,-4.88891 z"
         id="path3053"
         style="fill:#de2d26;fill-opacity:1;fill-rule:nonzero;stroke:none" />
      <path
         inkscape:connector-curvature="0"
         d="m 244.63029,550.35085 c 1.88651,-0.84137 3.89799,-1.3282 5.93141,-1.64441 1.20256,-0.17456 2.41581,-0.2227 3.62894,-0.23947 0.48962,-0.0123 0.97906,0.0219 1.46848,0.0176 0.42233,0.006 0.84459,5.8e-4 1.26693,0.003 0.60947,-0.003 1.21899,-0.006 1.82848,-0.002 2.68141,-0.0593 3.67024,2.14501 2.35949,4.35038 0,0 -3.8527,-2.95929 -3.8527,-2.95929 l 0,0 c -1.21721,2.56228 0.38319,2.6533 2.02407,3.46696 0.15846,0.0786 -0.68886,-0.0723 -0.53059,0.007 -0.61091,0.004 -1.22185,9.9e-4 -1.83275,-0.003 -0.43554,0.002 -0.87102,-0.004 -1.30656,-0.005 -0.45611,-0.0107 -0.91239,-7.8e-4 -1.36858,2.9e-4 -0.98492,0.009 -1.96878,0.0768 -2.9435,0.22197 -1.66505,0.24793 -3.29847,0.68528 -4.85605,1.32948 0,0 -1.81707,-4.54266 -1.81707,-4.54266 z"
         id="path3062"
         style="fill:#fee0d2;fill-opacity:1;fill-rule:nonzero;stroke:none" />
      <g
         id="g2"
         inkscape:label="#g3092">
        <path
           inkscape:connector-curvature="0"
           d="m 337.03103,691.93235 c 2.21744,0.40112 4.46474,0.55279 6.71152,0.67042 2.36193,0.24603 4.68586,-0.148 7.02005,-0.44375 2.42484,-0.14955 4.81725,-0.45765 7.21878,-0.81322 2.16361,-0.59549 4.42357,-0.7946 6.5881,-1.3662 1.93463,-0.5953 3.93297,-0.86907 5.94414,-1.02469 2.22918,-0.38356 4.46381,-0.68956 6.67946,-1.14537 1.91882,-0.46856 3.92638,-0.4311 5.81638,-1.0022 1.1796,-0.4776 2.41483,-0.68714 3.67548,-0.79002 2.16187,-0.59177 4.41589,-0.63793 6.61933,-0.9794 2.28074,-0.3852 4.57308,-0.69565 6.87673,-0.90331 1.13658,-0.1034 2.2781,-0.11068 3.41832,-0.11938 1.87109,0.0339 3.71444,-0.36935 5.57028,-0.58741 1.5391,-0.0476 2.97048,-0.2739 4.43145,-0.70271 1.83457,-0.36611 3.67582,-0.6993 5.51913,-1.03201 2.20865,-0.72724 4.50986,-1.01172 6.78194,-1.4459 2.5558,-0.45492 5.05396,-1.1669 7.60706,-1.64302 0.85499,-0.20347 1.74196,-0.21299 2.60569,-0.34793 0.0817,-0.0128 -0.28875,0.0754 -0.24792,0.004 0.0581,-0.10232 0.21644,-0.0924 0.32466,-0.13862 1.28805,-0.5027 2.55311,-1.06094 3.85068,-1.54508 2.31194,-0.76972 4.66603,-1.38787 6.99719,-2.09329 1.95798,-0.77956 3.97316,-1.39956 5.9817,-2.0326 3.18623,-0.95712 6.40538,-1.82343 9.63975,-2.60569 4.20543,-1.12846 8.40444,-2.2817 12.57132,-3.54832 4.78438,-1.61631 9.6754,-2.88641 14.48727,-4.41124 2.07174,-0.80392 4.31005,-1.12262 6.3384,-2.02169 1.03975,-0.5241 2.04119,-1.12969 3.07111,-1.67837 1.16076,-0.75823 2.44613,-1.27663 3.64609,-1.96194 1.60226,-0.77027 3.1615,-1.62068 4.72385,-2.4692 2.51921,-1.30749 5.14893,-2.38646 7.6962,-3.62952 1.41389,-0.69418 2.8839,-1.22778 4.23232,-2.04656 1.80342,-0.96924 3.59146,-1.96557 5.38381,-2.95625 2.57982,-1.57402 5.24837,-3.01417 7.73463,-4.73458 2.74636,-2.01998 5.4545,-4.07882 8.1037,-6.22336 2.85184,-2.18744 5.73253,-4.33539 8.63117,-6.46027 1.286,-1.04641 2.73068,-1.9094 3.95986,-3.02216 0.97447,-0.80004 1.95743,-1.57715 3.0288,-2.24961 1.75079,-0.89859 3.60274,-1.56088 5.46869,-2.1731 1.77334,-0.71831 3.60871,-1.24275 5.38214,-1.95348 1.24429,-0.67803 2.68138,-0.70432 4.00265,-1.09254 2.00172,-0.45273 3.97151,-1.02382 5.98619,-1.42376 1.67366,-0.65765 3.55977,-0.68591 5.23338,-1.29973 1.08783,-0.54284 2.34458,-0.62283 3.46038,-1.05128 1.33965,-0.49952 2.64784,-1.04891 4.02312,-1.45267 1.44311,-0.49428 2.8266,-1.1192 4.25175,-1.65871 0.76845,-0.37246 2.14793,-0.74875 2.76344,-1.30342 1.26972,-0.75159 2.69099,-1.19382 4.00561,-1.85048 1.14243,-0.6766 2.42473,-1.02085 3.63533,-1.5418 1.19806,-0.51341 2.46751,-0.78356 3.75613,-0.93263 -0.0614,-0.003 -0.23106,0.0302 -0.18405,-0.009 0.66179,-0.55663 2.14498,-0.67735 2.96388,-0.82138 0.67165,-0.0995 1.35157,-0.18346 2.03186,-0.18262 0,0 0.33093,4.84198 0.33093,4.84198 l 0,0 c -0.50406,0.0553 -1.01509,0.0485 -1.51381,0.15022 -1.07127,0.19005 -2.07526,0.54907 -3.11278,0.87113 -0.80402,0.0704 -1.5871,0.27755 -2.33619,0.57573 -1.14679,0.49462 -2.36059,0.81641 -3.43822,1.46547 -1.19935,0.56694 -2.45371,1.01662 -3.63101,1.6251 -1.14486,0.63617 -2.33579,1.24008 -3.55799,1.70916 -1.53592,0.55917 -3.01492,1.2613 -4.57447,1.76314 -1.34197,0.40045 -2.62328,0.94319 -3.93989,1.41598 -1.14804,0.33468 -2.32286,0.5646 -3.42556,1.05069 -1.9013,0.58259 -3.88462,0.87538 -5.78639,1.47241 -1.94166,0.38127 -3.84,0.94147 -5.77574,1.34477 -1.12699,0.25276 -2.28494,0.35076 -3.33241,0.887 -1.88323,0.76428 -3.8238,1.35678 -5.71737,2.09846 -1.51199,0.46635 -2.99577,1.01518 -4.43819,1.66358 -0.8292,0.45961 -1.52986,1.10047 -2.27134,1.6786 -1.34624,1.22745 -2.87971,2.2341 -4.28688,3.39131 -2.81765,2.12194 -5.65697,4.21397 -8.45602,6.36073 -2.75801,2.2196 -5.57452,4.35475 -8.43463,6.44236 -2.64281,1.78762 -5.41842,3.36925 -8.17167,4.9795 -1.75467,0.9409 -3.5025,1.89348 -5.2604,2.82698 -1.47071,0.85231 -3.01593,1.52801 -4.54767,2.26066 -2.49277,1.22919 -5.05502,2.31967 -7.54465,3.55966 -1.52933,0.801 -3.05561,1.60743 -4.61562,2.34561 -1.25369,0.72349 -2.58765,1.28616 -3.81345,2.06107 -1.12774,0.57279 -2.20167,1.24871 -3.33751,1.80505 -2.19055,0.99129 -4.55077,1.49309 -6.8038,2.32752 -4.82845,1.57903 -9.7416,2.88801 -14.5699,4.47004 -4.26548,1.27256 -8.561,2.4375 -12.86267,3.578 -3.12794,0.74028 -6.23587,1.57623 -9.32985,2.44402 -2.02449,0.631 -4.04378,1.28082 -6.01813,2.05725 -2.2415,0.68538 -4.50462,1.28644 -6.7401,1.99254 -1.23868,0.44385 -2.45945,0.93992 -3.67859,1.42793 -1.17076,0.47514 -2.3908,0.60561 -3.62873,0.81418 -2.55653,0.49713 -5.05383,1.26206 -7.62723,1.67084 -2.28838,0.41131 -4.58776,0.72346 -6.81296,1.43398 -1.67256,0.29668 -3.34354,0.59428 -5.01639,0.87649 -1.72073,0.49915 -3.43006,0.83648 -5.22938,0.91409 -2.03825,0.23673 -4.07461,0.63394 -6.13262,0.56468 -0.97898,-0.003 -1.9588,0.006 -2.93374,0.10648 -2.21858,0.25333 -4.42847,0.56927 -6.63244,0.92863 -2.33274,0.34521 -4.69775,0.44033 -7.00538,0.96004 -0.91394,0.0539 -1.76992,0.21997 -2.61416,0.60229 -2.0358,0.61344 -4.151,0.7466 -6.23336,1.1518 -2.42015,0.5002 -4.86355,0.83714 -7.3064,1.20823 -1.72937,0.12767 -3.44399,0.36288 -5.10382,0.88852 -2.33638,0.57871 -4.72734,0.93133 -7.07084,1.48672 -2.4325,0.36541 -4.86115,0.67368 -7.31817,0.81667 -2.62514,0.34333 -5.24818,0.76476 -7.90504,0.49196 -2.48485,-0.12672 -4.97533,-0.30118 -7.41528,-0.81653 0,0 0.95898,-4.7949 0.95898,-4.7949 z"
           id="path3058"
           style="fill:#fee0d2;fill-opacity:1;fill-rule:nonzero;stroke:none" />
        <path
           inkscape:connector-curvature="0"
           d="m 251.83688,550.34055 c 1.85682,-0.38226 3.7377,-0.6263 5.62556,-0.78661 1.36066,-0.14655 2.65487,-0.14936 3.98912,0.13296 0.59746,0.24453 1.13724,0.54052 1.75842,0.68899 0.90816,-0.0162 1.75307,0.23044 2.55947,0.6415 0.74993,0.28069 1.53005,0.44849 2.29211,0.7302 1.32719,0.2973 2.62693,0.67231 3.92154,1.0939 1.47598,0.28806 2.94321,0.61292 4.4159,0.93019 2.5468,0.34302 5.07583,0.77768 7.63388,1.03903 3.02026,0.26617 6.05079,0.35615 9.08104,0.40079 2.49876,0.0317 4.99778,0.028 7.49662,0.0105 3.95513,0.11113 7.88902,-0.18979 11.82943,-0.47535 3.49981,-0.2482 7.00596,-0.39234 10.51379,-0.453 1.29772,-0.0183 2.59581,-0.0213 3.89365,-0.0144 1.45011,-0.002 2.90022,-0.005 4.3503,-0.0144 2.80278,-0.0102 5.60551,-0.0269 8.40832,-0.0256 2.7407,-0.008 5.48134,0.0106 8.22196,0.0252 1.68783,0.0164 3.37559,0.008 5.06343,0.002 2.55288,-0.0732 5.08258,-0.009 7.62022,0.27359 3.43019,0.42072 6.88556,0.51627 10.33683,0.58866 4.01827,0.1248 8.00218,-0.50508 12.01775,-0.51037 3.26901,0.12794 6.53179,0.36349 9.80104,0.49122 3.39044,-0.0398 6.75533,0.23716 10.12814,0.54045 3.621,0.32208 7.25627,0.4147 10.88898,0.49441 2.14882,0.035 4.29783,0.0678 6.44696,0.0746 2.03239,-0.01 4.0648,-0.02 6.09722,-0.0288 2.79799,-0.007 5.575,-0.44951 8.36015,-0.69351 2.26596,-0.17983 4.53951,-0.24003 6.81191,-0.25434 1.66211,-0.086 3.252,0.47223 4.87406,0.73247 2.05445,0.24591 4.13207,0.19726 6.19747,0.20329 3.83103,-0.004 7.66203,-0.0186 11.49307,-0.0109 3.02041,-3.9e-4 6.04078,0.0166 9.06117,0.0268 1.70986,0.006 3.41969,0.0175 5.12956,0.0202 2.13806,-0.007 4.27611,-0.022 6.41417,-0.032 3.87851,0.11288 7.73636,-0.16317 11.59979,-0.45656 3.32954,-0.28352 6.66999,-0.27504 9.98224,-0.7277 2.00053,-0.32002 4.00821,-0.55917 6.03108,-0.6678 2.65829,-0.0993 5.31942,-0.0898 7.97918,-0.0977 2.8615,0.16022 5.69023,-0.22845 8.52469,-0.54631 1.74548,-0.19173 3.49763,-0.31269 5.25284,-0.35798 1.28077,-0.21782 2.40609,0.34301 3.58538,0.69646 0.73902,0.23421 1.52584,0.22523 2.29316,0.24231 1.73093,-0.1077 3.48485,-0.43578 5.19268,-0.78004 2.68495,-0.57945 5.4269,-0.73022 8.11511,-1.27821 1.35565,-0.31881 2.71073,-0.62237 4.09782,-0.76125 1.30801,-0.0394 2.57665,-0.0765 3.86055,-0.32455 2.5635,-0.35217 5.1202,-0.73857 7.68273,-1.10444 2.24326,-0.4456 4.46756,-0.97965 6.72952,-1.32477 1.36043,-0.20372 2.73699,-0.22108 4.10941,-0.23513 1.3674,-0.3418 2.76027,-0.57826 4.157,-0.76266 1.37638,-0.16342 2.76419,-0.18887 4.14869,-0.19647 0.98075,0.0247 1.9083,0.0553 2.80685,-0.19358 1.29696,-0.41586 2.64869,-0.58997 4.00096,-0.69755 0.54128,0.0334 0.65918,-0.0506 1.03346,-0.31358 -1.19084,1.07036 -0.11706,0.34178 1.03332,4.15892 0,0 0.54428,-4.83761 0.54428,-4.83761 l 0,0 c 1.59409,3.49857 2.94692,3.28374 1.2424,4.63443 -1.01744,0.71552 -2.1842,1.22047 -3.44982,1.22838 -1.06557,0.0927 -2.13449,0.21037 -3.15322,0.55663 -1.32948,0.34059 -2.64576,0.41336 -4.01363,0.35548 -1.17691,0.0153 -2.35668,0.0199 -3.5276,0.15491 -1.60432,0.22985 -3.18197,0.59946 -4.78896,0.80724 -1.13197,0.004 -2.27079,0.008 -3.39116,0.18953 -2.28402,0.36135 -4.51318,0.99557 -6.79104,1.39234 -2.49046,0.34353 -4.97394,0.71494 -7.46925,1.01656 -1.41871,0.25883 -2.82376,0.35822 -4.26383,0.34954 -1.22169,0.1312 -2.40277,0.44749 -3.594,0.74203 -2.71134,0.57279 -5.46678,0.77232 -8.18726,1.29922 -2.0649,0.3808 -4.1734,0.77131 -6.27082,0.81764 -1.2485,-0.045 -2.50877,-0.10895 -3.7035,-0.51132 -1.34797,-0.47458 -0.57972,-0.47502 -1.86901,-0.43386 -1.61995,0.0656 -3.23561,0.19202 -4.84593,0.38353 -3.02134,0.35904 -6.03955,0.77247 -9.09209,0.60736 -2.57338,-0.008 -5.14749,-0.0291 -7.72041,0.0305 -1.88302,0.097 -3.74439,0.34958 -5.60266,0.6685 -3.41038,0.48759 -6.8472,0.53501 -10.27829,0.81921 -3.99259,0.32114 -7.98258,0.56561 -11.99067,0.42034 -2.13807,-0.01 -4.27611,-0.0249 -6.41418,-0.0321 -1.70952,0.003 -3.419,0.0147 -5.1285,0.0208 -3.01974,0.0115 -6.03946,0.0311 -9.05923,0.0345 -3.84441,0.0123 -7.6889,0.01 -11.53321,-0.0231 -2.32191,-0.0277 -4.65626,-0.0182 -6.96137,-0.33394 -1.33382,-0.22618 -2.6526,-0.67106 -4.00697,-0.65928 -2.14599,0.0448 -4.29189,0.11137 -6.43271,0.27529 -2.93012,0.27296 -5.85583,0.74504 -8.80342,0.71161 -2.03148,-0.007 -4.06299,-0.0152 -6.09447,-0.0179 -2.18051,0.0111 -4.3611,0.0333 -6.5416,0.002 -3.75455,-0.0536 -7.51083,-0.15765 -11.252,-0.50003 -3.28349,-0.30299 -6.55704,-0.59217 -9.85928,-0.55276 -3.20588,-0.11292 -6.40577,-0.33327 -9.61112,-0.45514 -4.05354,0.004 -8.07877,0.70291 -12.13773,0.52231 -3.60209,-0.0885 -7.20824,-0.21647 -10.78629,-0.67115 -2.3488,-0.27665 -4.6912,-0.32694 -7.05661,-0.27778 -1.68783,-0.006 -3.37558,-0.0146 -5.06339,0.002 -2.74067,0.0146 -5.48134,0.0335 -8.22207,0.0252 -2.80365,0.001 -5.60723,-0.0151 -8.41085,-0.0274 -1.45121,-0.0109 -2.90245,-0.016 -4.35366,-0.0251 -1.25043,0.004 -2.50049,0.0124 -3.75024,0.062 -3.4349,0.13308 -6.86908,0.29743 -10.29793,0.54361 -4.05645,0.27692 -8.10751,0.56846 -12.1772,0.41269 -2.5221,-0.012 -5.04423,0.001 -7.56632,-0.013 -3.18345,-0.0357 -6.3699,-0.10876 -9.54146,-0.40643 -2.73467,-0.29934 -5.43856,-0.77627 -8.15692,-1.18574 -1.62504,-0.35825 -3.24393,-0.70887 -4.86607,-1.07022 -1.37374,-0.43509 -2.74512,-0.80995 -4.13753,-1.17761 -0.98585,-0.37378 -2.04044,-0.53969 -2.9759,-1.07246 1.53875,0.0951 -1.19172,-0.0374 -1.28517,-0.14474 -0.7623,-0.18021 -1.49749,-0.43358 -2.18834,-0.8066 1.61425,0.0545 -1.93644,0.0278 -1.99004,0.13205 -1.71297,0.1687 -3.41613,0.4076 -5.11247,0.70034 0,0 -0.95898,-4.7949 -0.95898,-4.7949 z"
           id="path3060"
           style="fill:#fee0d2;fill-opacity:1;fill-rule:nonzero;stroke:none" />
        <path
           inkscape:connector-curvature="0"
           d="m 249.90044,548.40411 c 2.23524,-0.50586 4.43811,-1.10995 6.70423,-1.48264 1.848,-0.47758 3.72814,-0.77276 5.54617,-1.35254 1.45921,-0.4396 2.90987,-0.93838 4.26987,-1.63083 1.06212,-0.42857 2.07488,-0.8599 3.08353,-1.38768 0.8626,-0.31371 1.14027,-0.55991 1.89061,-0.98699 1.00127,-0.43546 1.89735,-1.04479 2.79713,-1.65966 1.16262,-0.68342 2.22252,-1.48931 3.28841,-2.30789 1.04037,-0.88239 2.09489,-1.73176 3.23339,-2.50303 2.15568,-1.24661 4.36917,-2.38804 6.65559,-3.3752 1.61191,-0.67539 3.3043,-1.07876 4.89867,-1.79552 1.61779,-0.77043 3.35038,-1.2195 5.04204,-1.79917 2.9038,-1.03303 5.88183,-1.8147 8.84107,-2.66762 2.44851,-0.54174 4.84911,-1.24688 7.25794,-1.9378 3.55263,-1.0674 7.16816,-1.92998 10.78067,-2.77201 4.09174,-0.8401 8.19641,-1.62231 12.27515,-2.52403 3.24579,-0.69474 6.48209,-1.49214 9.58046,-2.69512 1.30839,-0.82018 3.13097,-0.77432 4.37422,-1.67203 0.63654,-0.45777 1.10497,-0.80816 1.85406,-1.38011 0.694,-0.5059 1.33485,-1.07937 1.95213,-1.67528 0.72446,-0.79942 1.5672,-1.39922 2.58401,-1.76679 0.36686,-0.37461 1.36455,-0.70607 2.00253,-0.91978 0.29828,-0.0971 0.60024,-0.18284 0.90782,-0.24474 0.0576,-0.009 0.11512,-0.0176 0.17268,-0.0264 0,0 0.59327,4.80557 0.59327,4.80557 l 0,0 c 0.0499,-0.008 0.0998,-0.0157 0.14973,-0.0235 -0.0811,0.0341 -0.16364,0.0651 -0.24768,0.0911 -0.69681,0.24647 -1.3358,0.55071 -1.98398,0.91178 0.24196,-0.49832 -0.54794,0.54527 -0.81688,0.7138 -0.7715,0.72244 -1.55165,1.43757 -2.40838,2.05964 -0.71662,0.51927 -1.43408,1.02367 -2.12556,1.56542 -1.61645,1.00255 -3.48609,1.40053 -5.21298,2.18048 -3.33615,1.29734 -6.79368,2.23662 -10.2943,2.97812 -4.06111,0.89363 -8.14917,1.66234 -12.22205,2.50005 -3.53636,0.82015 -7.07701,1.65254 -10.56484,2.65727 -2.40072,0.67145 -4.79014,1.37478 -7.22034,1.93546 -2.89524,0.85339 -5.81486,1.61593 -8.66825,2.60567 -1.53065,0.49425 -3.10228,0.83577 -4.55441,1.53842 -1.62161,0.76307 -3.33366,1.24026 -4.99292,1.90716 -2.01296,0.8589 -3.95417,1.86208 -5.87728,2.90447 -1.06323,0.70377 -2.04762,1.46914 -2.99785,2.31926 -1.15067,0.86659 -2.28732,1.73995 -3.52303,2.48441 -1.05112,0.69537 -2.1074,1.39029 -3.26155,1.90272 -0.6133,0.37668 -1.25941,0.74533 -1.93914,1.01861 -1.017,0.4928 -2.00568,1.01571 -3.07201,1.40395 -1.59458,0.81835 -3.28465,1.43352 -5.00081,1.94558 -2.04747,0.66032 -4.15706,1.03705 -6.24652,1.54473 -2.20871,0.36273 -4.34879,0.99996 -6.54564,1.40761 0,0 -0.95898,-4.7949 -0.95898,-4.7949 z"
           id="path3064"
           style="fill:#fee0d2;fill-opacity:1;fill-rule:nonzero;stroke:none" />
        <path
           style="fill:#fee0d2;fill-opacity:1;fill-rule:nonzero;stroke:none"
           id="path3066"
           d="m 373.11002,32.041619 c -0.31775,1.867638 -0.53485,3.747714 -0.6918,5.634846 -0.11125,1.583978 -0.0991,3.172835 -0.11163,4.759668 -0.003,1.31863 0.002,2.637273 -0.008,3.955876 0.15656,0.323893 -0.18434,0.943705 -0.004,1.250424 -0.0269,-0.488464 0.0143,-0.349905 0.1369,-0.143856 0.63619,1.254199 0.12904,2.339653 -0.0175,3.57916 0.0582,-1.368822 0.63913,2.015324 0.65515,2.117586 0.44455,0.985334 0.73479,2.026412 0.94706,3.083324 0.19305,1.119227 0.21892,2.256714 0.22706,3.389546 0.38284,0.487781 0.58501,1.447944 0.73858,2.132181 0.0369,1.065515 0.3317,1.898519 0.59764,2.905864 0.33316,1.261042 0.47934,2.557634 0.55769,3.856204 -0.33394,0.08784 0.32759,0.836279 0.0322,0.95902 -0.13392,0.05565 -0.0822,-0.300501 -0.0262,-0.434276 0.0335,-0.0799 0.0728,0.157217 0.10935,0.23575 0.23254,0.499583 0.0913,0.172802 0.37167,0.922389 0.37913,1.099272 0.4554,2.261618 0.50463,3.413459 0.0191,0.867052 0.0199,1.734488 0.0154,2.601714 -0.0103,1.137635 -0.50501,2.189444 -0.77198,3.279757 -0.1614,1.043789 -0.16785,2.10559 -0.19289,3.159585 0.0934,0.947963 0.1564,1.942494 0.10357,2.963636 -0.1481,1.047108 -0.0348,1.051121 0.2304,1.888016 0.41824,1.222757 0.53339,2.506298 0.60049,3.787427 0.0404,1.178072 0.0441,2.357107 0.0322,3.535702 -0.0422,0.326016 0.0452,2.182741 -0.0543,0.80228 0.12641,0.144106 0.22962,0.31755 0.34765,0.473151 0.007,0.01303 -0.0153,-0.01631 -0.0229,-0.02446 0,0 -3.55742,3.288938 -3.55742,3.288938 l 0,0 c -0.11657,-0.126641 -0.0575,-0.06079 -0.17679,-0.197809 -0.45378,-0.549874 -0.85255,-1.145498 -1.13743,-1.801788 -0.20323,-0.879885 -0.33734,-1.651208 -0.27574,-2.545805 -0.009,-1.101845 -0.004,-2.204109 -0.046,-3.305381 -0.0327,-0.864318 -0.0724,-1.733039 -0.37119,-2.555075 -0.36598,-1.18936 -0.63751,-2.367515 -0.43945,-3.618194 0.0578,-0.947015 -0.0534,-1.837787 -0.12179,-2.783002 0.0204,-1.411909 0.048,-2.835646 0.33792,-4.222918 0.23725,-0.977463 0.66481,-1.967752 0.6406,-2.136712 -2e-5,-0.80192 0.0113,-1.604074 -0.0189,-2.405665 -0.0204,-0.663782 -0.0361,-1.344261 -0.22866,-1.983999 -0.26455,-0.978782 -0.89639,-1.890415 -0.75025,-2.964938 -0.0772,-0.999007 -0.17077,-2.000738 -0.43551,-2.971015 -0.25603,-1.040539 -0.58251,-2.063124 -0.63218,-3.140506 -0.15621,-1.052248 -0.86603,-1.961307 -0.83949,-3.062674 -0.0116,-0.82697 -0.0157,-1.656505 -0.13374,-2.47695 -0.22862,-1.131641 -0.69514,-2.176411 -0.98879,-3.291217 -0.18986,-1.214866 -0.66991,-2.35384 -0.64777,-3.599498 0.10843,-0.656987 0.16227,-2.098892 0.57229,-0.504826 -0.58127,-1.080702 -0.84473,-2.218915 -0.74812,-3.44549 -0.0155,-1.326594 -0.0165,-2.653299 -0.0169,-3.979969 -0.003,-1.707653 0.0111,-3.416683 0.11909,-5.121485 0.14846,-2.084978 0.3773,-4.16693 0.79514,-6.216974 0,0 4.7949,0.95898 4.7949,0.95898 z"
           inkscape:connector-curvature="0" />
      </g>
    </g>
    <path
       style="fill:#fc9272;fill-opacity:1;stroke:none"
       id="path2999"
       d="m 371.31248,16.733108 c 0.26852,-3.24423 0.81225,-6.452267 1.24409,-9.6762225 0.6103,-3.9182958 1.20948,-7.84641465 1.6252,-11.7897057 0.11971,-1.8371399 0.22358,-3.7920437 0.0402,-5.5723578 -0.0222,-0.07904 -0.14818,-0.228037 -0.0666,-0.23712 0.94412,-0.105099 1.9072,-0.19734 2.84893,-0.07261 0.16544,0.02191 -0.17941,3.1816811 -0.21762,3.4844059 -0.34879,3.2774323 -0.49906,6.56415029 -0.85643,9.8414414 -0.41688,3.6273178 -0.58664,7.2752335 -0.68904,10.9228817 -0.01,0.503802 -0.0199,1.007604 -0.0299,1.511406 -0.0407,2.053502 -2.94477,1.995982 -2.90409,-0.05752 l 0,0 c 0.0102,-0.511844 0.0203,-1.023689 0.0305,-1.535533 0.10494,-3.725595 0.27955,-7.4513795 0.70502,-11.1562286 0.35945,-3.29372978 0.50455,-6.5976568 0.86227,-9.8910964 0.0773,-0.6092497 0.19868,-1.2148671 0.2272,-1.828338 0.0216,-0.4655796 -0.0706,-1.29357 -0.0325,-1.310179 0.89699,-0.390956 1.88888,-0.523703 2.85292,-0.69122 0.0636,-0.01105 0.0346,0.124306 0.0519,0.186459 0.50575,2.1811277 0.10728,4.4995074 0.0655,6.7136349 -0.42767,3.96859366 -1.0125,7.9241968 -1.63458,11.8676485 -0.41552,3.0965466 -0.92744,6.1778746 -1.21833,9.2902536 0,2.053906 -2.90467,2.053906 -2.90467,0 z"
       inkscape:connector-curvature="0" />
  </g>
</svg>
