<?xml version="1.0" encoding="UTF-8" standalone="no"?>
<!-- Created with Inkscape (http://www.inkscape.org/) -->

<svg
   xmlns:dc="http://purl.org/dc/elements/1.1/"
   xmlns:cc="http://creativecommons.org/ns#"
   xmlns:rdf="http://www.w3.org/1999/02/22-rdf-syntax-ns#"
   xmlns:svg="http://www.w3.org/2000/svg"
   xmlns="http://www.w3.org/2000/svg"
   xmlns:xlink="http://www.w3.org/1999/xlink"
   xmlns:sodipodi="http://sodipodi.sourceforge.net/DTD/sodipodi-0.dtd"
   xmlns:inkscape="http://www.inkscape.org/namespaces/inkscape"
   id="svg2"
   version="1.1"
   inkscape:version="0.48.4 r9939"
   width="1252"
   height="2232"
   sodipodi:docname="44491-21.svg">
  <metadata
     id="metadata8">
    <rdf:RDF>
      <cc:Work
         rdf:about="">
        <dc:format>image/svg+xml</dc:format>
        <dc:type
           rdf:resource="http://purl.org/dc/dcmitype/StillImage" />
        <dc:title />
      </cc:Work>
    </rdf:RDF>
  </metadata>
  <defs
     id="defs6" />
  <sodipodi:namedview
     pagecolor="#ffffff"
     bordercolor="#666666"
     borderopacity="1"
     objecttolerance="10"
     gridtolerance="10"
     guidetolerance="10"
     inkscape:pageopacity="0"
     inkscape:pageshadow="2"
     inkscape:window-width="1280"
     inkscape:window-height="732"
     id="namedview4"
     showgrid="false"
     inkscape:zoom="0.75024142"
     inkscape:cx="738.30832"
     inkscape:cy="1958.6168"
     inkscape:window-x="-8"
     inkscape:window-y="-8"
     inkscape:window-maximized="1"
     inkscape:current-layer="layer1" />
  <image
     width="1252"
     height="2232"
     xlink:href="file:///tmp/broken-interfaces/phone_cropped_display/44491-21.png"
     id="image10"
     x="0"
     y="0" />
  <g
     inkscape:groupmode="layer"
     id="layer1"
     inkscape:label="g1">
    <path
       style="fill:#de2d26;fill-opacity:1;stroke:none"
       id="path13410"
       d="m -6.1461477,117.89065 c 3.2523386,-0.41262 6.33039934,0.18535 9.3267425,1.41621 2.048433,0.82329 4.0014931,1.88138 5.9403699,2.93588 1.8177673,0.63475 3.6711323,1.20461 5.5265763,1.74346 2.099869,0.40425 4.253927,-0.17089 6.391094,-0.1392 2.555267,0.11299 5.002664,0.78068 7.473079,1.3717 2.334978,0.43866 4.656331,0.89401 6.980757,1.39048 2.311919,0.48877 4.6751,0.6055 7.029505,0.68779 2.881241,0.37193 5.735709,0.8864 8.547894,1.61205 2.506157,0.45981 4.957064,1.06217 7.418765,1.71476 2.388445,0.60063 4.711163,1.34673 7.159221,1.68055 2.575212,0.63707 5.147673,1.20874 7.787824,1.48615 2.828072,0.43172 5.55301,1.14659 8.155372,2.33404 2.240572,0.77606 3.929388,2.49894 5.956835,3.63126 2.287117,0.67589 4.681715,1.08619 7.032304,1.54614 3.262458,0.50847 6.448879,1.42605 9.538469,2.57873 3.01283,1.13086 5.93661,2.49954 8.80375,3.95838 2.40423,1.14357 4.96245,1.9821 7.52663,2.69485 2.69926,0.52474 5.39634,1.08283 8.03618,1.86063 2.81908,0.71972 5.52671,1.74687 8.22253,2.82679 2.28919,1.11203 4.35689,2.59327 6.78259,3.39943 2.40629,0.68044 4.79075,1.35701 7.27003,1.71536 2.38583,0.23057 4.6661,0.99133 7.03662,1.33701 2.57072,0.7469 5.22769,1.07315 7.833,1.64686 2.73676,0.79688 5.47877,1.6061 8.20262,2.4553 2.84636,0.90945 5.82682,1.21937 8.73965,1.8585 3.19352,0.56344 6.38975,0.92844 9.51372,1.83443 2.93335,1.16543 5.93022,2.03765 8.95856,2.91124 2.92812,0.81859 5.89255,1.55475 8.74132,2.62351 2.21435,0.84822 4.48288,1.5837 6.7719,2.20895 2.41027,0.94455 4.8931,1.55311 7.4564,1.87018 2.90095,0.12062 5.74537,0.71256 8.61887,1.08862 3.07582,0.50758 6.03767,1.45313 9.03744,2.26541 2.60814,0.74884 5.09886,1.80307 7.64885,2.71062 2.56337,0.98139 5.02307,2.19491 7.51572,3.3369 3.01794,1.26182 6.22242,1.84074 9.37613,2.6287 2.99676,0.74021 6.01166,1.47363 8.90695,2.55214 2.28193,0.71808 4.33647,1.8221 6.32598,3.1266 1.63481,1.45707 3.70481,1.8326 5.70223,2.51083 2.19496,0.70017 4.41536,1.34324 6.64927,1.91596 2.8769,1.00668 5.88063,1.53246 8.82509,2.29689 2.52253,0.70574 5.06504,1.46174 7.5258,2.36919 1.44248,0.71128 3.00795,0.41946 4.55892,0.3349 2.44059,-0.12276 4.93012,0.35267 7.26955,1.03031 2.3277,0.82615 4.6661,1.58515 7.01788,2.33752 2.92347,0.87585 5.86585,1.70052 8.75591,2.68335 3.02574,0.88088 5.70891,2.56773 8.47865,4.01828 2.38257,1.00724 4.82084,1.90882 7.34867,2.4767 2.60282,0.80899 5.27036,1.30942 7.85775,2.16303 1.97951,0.8161 3.74767,2.06 5.70171,2.91548 2.09585,0.60337 4.27723,0.76731 6.41372,1.21449 2.73996,0.53492 5.41927,1.35415 8.01154,2.3834 2.43994,0.67516 4.82385,1.34228 7.17396,2.30943 2.24731,1.47188 4.68792,2.31468 7.25811,3.01133 3.29679,0.55865 6.57409,1.10873 9.84361,1.81832 2.68661,0.72475 5.2873,1.71692 7.95195,2.50818 2.22773,0.75646 4.29622,1.88414 6.47483,2.74874 2.18687,0.96708 4.34487,2.01588 6.42951,3.18708 1.69439,0.81042 3.27406,1.85416 5.08407,2.39417 2.55453,1.03366 5.28588,1.44875 7.95052,2.10621 2.94548,0.6664 5.83324,1.57518 8.6986,2.52447 2.52251,1.13139 5.18473,1.84506 7.76225,2.82561 1.99869,0.85025 4.05633,1.55203 6.07171,2.35983 2.38923,0.91261 4.81385,1.72778 7.21561,2.61087 2.61553,0.91859 5.18545,1.87938 7.91947,2.37978 3.38476,0.602 6.64805,1.5232 9.89085,2.64833 3.11964,1.47287 6.4652,2.27646 9.76712,3.21567 3.01514,0.51282 5.78519,1.51906 8.3683,3.15071 2.37941,1.69442 5.22096,2.41613 8.00909,3.12978 4.87397,0.96863 9.75175,1.94163 14.51837,3.35691 3.43805,1.10687 6.91432,2.07789 10.36407,3.14248 3.0742,0.97605 6.19844,1.77258 9.28868,2.69096 2.83558,0.82164 5.71496,1.34721 8.38752,2.63715 1.75718,0.79003 3.32149,1.95017 5.16808,2.52779 2.54027,1.09088 5.2798,1.42983 8.00696,1.67295 2.9896,0.22038 5.98879,0.23489 8.98488,0.24421 2.57085,0.18554 5.02849,0.82471 7.325,1.98654 1.80764,0.63542 2.52014,2.42966 3.68798,3.75298 1.68444,1.24009 3.65396,1.95995 5.57878,2.73798 4.31031,1.38218 8.65309,2.61513 12.93409,4.09074 3.428,1.35712 6.81801,2.80182 10.21419,4.23448 2.59043,1.09467 5.20285,2.12535 7.76092,3.29336 2.32619,0.71109 4.49016,1.58177 6.44469,3.04796 1.59038,1.39318 3.62549,1.65342 5.58809,2.18215 2.5797,0.81316 5.26307,1.03973 7.94626,1.1975 3.05622,-0.0906 5.58519,0.2235 8.51352,1.05922 1.73064,0.61072 3.26993,1.63415 4.95978,2.32286 2.21314,0.73785 4.43483,1.44632 6.64787,2.18899 3.36173,1.57393 6.81666,2.70343 10.3982,3.65904 7.24,1.56245 14.49617,3.05287 21.73005,4.64206 4.3624,0.69868 8.44463,2.27291 12.53499,3.85079 2.97603,1.42211 6.07856,2.50656 9.24496,3.41427 4.8162,1.19768 9.70769,2.0186 14.57864,2.95263 4.70812,1.24008 9.42714,2.42293 14.15766,3.5797 3.59433,0.81566 7.07942,2.03437 10.60164,3.10403 3.05455,1.02263 6.0786,2.15037 9.1651,3.07388 2.62918,0.5244 5.20795,1.26965 7.84632,1.75282 2.73171,0.49472 5.47851,1.02969 8.1717,1.71366 2.87949,0.72342 5.78279,1.35515 8.68772,1.97684 3.03818,0.71579 6.1112,1.28415 9.15456,1.97873 3.00102,0.69041 6.00887,1.42492 8.89816,2.49792 2.21932,1.07924 4.60192,1.35132 7.02761,1.52403 4.37846,-0.0713 8.6423,0.79109 12.87829,1.80368 5.39752,1.30601 10.77577,2.67754 16.18668,3.92941 5.91669,1.191 11.77025,2.66854 17.68655,3.85945 4.46596,0.93058 8.90758,1.94418 13.35457,2.95887 2.66461,0.82046 5.23303,1.74971 8.04017,1.61629 2.68077,-0.40291 5.3253,-0.18997 7.94043,0.46385 3.35784,1.02239 6.81165,1.64062 10.24257,2.35489 4.94482,0.8211 9.85641,1.76527 14.73462,2.91964 4.10977,0.98965 8.28323,1.70972 12.39548,2.67871 2.80227,0.8784 5.73316,1.08596 8.59903,1.62924 3.44194,0.61313 6.80854,1.55451 10.20257,2.38153 4.95306,1.12206 9.98148,1.84457 14.91967,3.02726 4.53229,0.94162 8.83029,2.68517 13.26054,3.9689 3.99893,1.17429 8.07884,2.08768 12.15855,2.94031 2.94935,0.61632 5.95412,0.82043 8.95813,0.91638 2.64776,0.0565 5.29646,0.0391 7.94466,0.0321 3.1843,-0.009 6.3687,-0.0114 9.553,-0.0131 3.1952,-0.18431 6.3241,0.12918 9.471,0.63622 2.6969,0.48313 5.4411,0.48412 8.151,0.83494 4.2674,0.62423 8.5672,0.8907 12.843,1.45454 4.219,0.30253 8.249,1.53103 12.2932,2.66421 2.2776,0.9715 4.551,1.80309 7.0045,2.16037 2.7625,0.10128 5.4767,0.52854 8.2125,0.89502 4.3631,0.72512 8.6318,1.86161 12.9973,2.57482 4.5231,1.07147 9.1563,1.42455 13.7478,2.04652 4.3546,0.51257 8.6437,1.42341 12.9731,2.0968 3.3699,0.44593 6.753,0.50097 10.1114,1.0399 3.1565,0.38235 6.2752,0.906 9.3991,1.49724 3.0731,0.54572 6.1214,1.2448 9.0945,2.19801 2.2566,0.77647 4.6223,1.01458 6.9883,1.15325 3.3136,0.3201 6.5257,1.16765 9.7747,1.84018 3.5796,0.97471 7.2344,1.58601 10.8503,2.39855 3.0523,0.75345 6.1791,0.97905 9.3084,1.10032 3.6016,0.42179 7.1924,0.90605 10.8095,1.17994 2.9534,0.13632 5.8786,0.15645 8.7996,0.64291 3.0706,0.49863 6.1191,1.14805 9.1476,1.86113 4.0137,0.83775 7.8874,2.19894 11.8572,3.2077 3.2106,0.60728 6.4223,1.16474 9.6297,1.79732 2.9216,0.5834 5.9084,0.52615 8.8575,0.85858 3.3021,0.33084 6.5295,1.00565 9.7664,1.70582 2.6946,0.85645 5.4475,1.46181 8.1155,2.39523 2.1325,0.53041 4.2376,1.121 6.3558,1.71338 2.3286,0.4746 4.6856,0.63209 7.0184,1.10192 3.6516,0.64012 7.1797,1.73522 10.6735,2.95153 3.3581,1.13943 6.2742,1.8303 8.3965,4.83458 1.7758,3.32559 -2.9273,5.83698 -4.7031,2.51139 l 0,0 c 0.1264,0.0962 0.2754,0.40904 0.3792,0.28877 0.022,-0.0253 -0.2771,-0.39555 -1.2072,-0.84714 -1.4777,-0.71747 -3.0553,-1.26387 -4.6186,-1.75247 -3.2659,-1.13733 -6.5596,-2.17243 -9.9759,-2.76059 -2.4606,-0.49866 -4.9633,-0.60398 -7.4074,-1.1958 -2.2246,-0.62956 -4.4374,-1.22744 -6.6731,-1.81348 -2.4601,-0.86214 -5.0036,-1.39912 -7.4816,-2.21639 -3.0694,-0.66487 -6.1246,-1.31537 -9.2579,-1.62125 -3.082,-0.37729 -6.2195,-0.25476 -9.2707,-0.92344 -3.3026,-0.6527 -6.6114,-1.21424 -9.9139,-1.86153 -3.9401,-1.00709 -7.789,-2.34621 -11.7716,-3.18662 -2.9112,-0.69736 -5.8464,-1.30938 -8.7999,-1.79076 -2.7587,-0.46853 -5.5298,-0.41963 -8.3202,-0.58451 -3.5516,-0.27104 -7.0821,-0.71551 -10.6144,-1.16871 -3.4521,-0.13715 -6.9007,-0.40105 -10.2683,-1.22595 -3.5872,-0.80624 -7.2141,-1.40967 -10.7644,-2.37999 -2.9976,-0.62327 -5.9572,-1.40582 -9.0094,-1.73848 -2.8111,-0.17059 -5.6185,-0.48376 -8.3001,-1.39893 -2.7637,-0.88841 -5.5985,-1.53351 -8.4568,-2.03593 -3.077,-0.58286 -6.1459,-1.09908 -9.2563,-1.47221 -3.3463,-0.54294 -6.7275,-0.54638 -10.0831,-1.03542 -4.2957,-0.67048 -8.5518,-1.57162 -12.8724,-2.08208 -4.6376,-0.63649 -9.3212,-0.9815 -13.8903,-2.06792 -4.3145,-0.70972 -8.5382,-1.80488 -12.8449,-2.55209 -2.7663,-0.37298 -5.5036,-0.7901 -8.2967,-0.90701 -2.6608,-0.41111 -5.1981,-1.17391 -7.6496,-2.29887 -3.8009,-1.06658 -7.5821,-2.24334 -11.5513,-2.51204 -4.2813,-0.56551 -8.5878,-0.82545 -12.8604,-1.45687 -2.7468,-0.39374 -5.5505,-0.31295 -8.2843,-0.85469 -2.8683,-0.46238 -5.7039,-0.7574 -8.6198,-0.5683 -3.1806,0.002 -6.3612,0.004 -9.5417,0.0131 -2.7104,0.007 -5.4212,0.0249 -8.1311,-0.0348 -3.31314,-0.10826 -6.62615,-0.34513 -9.8783,-1.02671 -4.21403,-0.8835 -8.42847,-1.82698 -12.55958,-3.04063 -4.3451,-1.27555 -8.57026,-2.96059 -13.01431,-3.90339 -4.94062,-1.1947 -9.98258,-1.88746 -14.93655,-3.03135 -3.31372,-0.80991 -6.59991,-1.73249 -9.96136,-2.32856 -2.92563,-0.59588 -5.94662,-0.74379 -8.81006,-1.67495 -4.1046,-0.98741 -8.28575,-1.67372 -12.38944,-2.67727 -4.83188,-1.14363 -9.69778,-2.07091 -14.59501,-2.88857 -3.52443,-0.73605 -7.07175,-1.37556 -10.52284,-2.42128 -2.09405,-0.61643 -4.22605,-0.56562 -6.37619,-0.28881 -3.28164,0.0962 -6.33103,-0.67651 -9.42288,-1.74651 -4.40225,-1.00614 -8.79918,-2.00939 -13.22074,-2.9301 -5.96553,-1.20327 -11.86946,-2.68724 -17.83516,-3.89161 -5.42524,-1.25519 -10.81779,-2.63028 -16.2296,-3.93952 -3.95824,-0.95488 -7.92884,-1.75385 -12.02288,-1.67059 -2.93422,-0.21987 -5.84329,-0.59294 -8.53876,-1.86 -2.63475,-1.04638 -5.45476,-1.60077 -8.19809,-2.28461 -3.01055,-0.70612 -6.0627,-1.25017 -9.07216,-1.96037 -2.978,-0.63987 -5.95449,-1.28873 -8.9075,-2.02887 -2.56151,-0.68206 -5.19986,-1.14863 -7.80315,-1.63193 -2.82817,-0.52702 -5.59929,-1.3016 -8.41357,-1.89018 -3.0898,-0.9345 -6.12605,-2.0428 -9.18264,-3.07919 -3.42596,-1.04698 -6.81938,-2.22655 -10.31566,-3.02551 -4.64227,-1.13827 -9.27804,-2.28455 -13.89373,-3.52212 -5.03013,-0.96457 -10.08198,-1.81286 -15.05198,-3.06602 -3.31167,-0.96015 -6.57543,-2.06932 -9.68925,-3.56386 -3.83681,-1.48489 -7.65803,-2.97828 -11.75806,-3.61676 -7.31112,-1.60847 -14.64704,-3.10656 -21.96217,-4.69857 -3.68332,-0.98637 -7.26666,-2.12228 -10.71822,-3.75543 -2.34689,-0.78825 -4.70447,-1.53157 -7.04442,-2.33994 -1.47635,-0.64714 -2.86838,-1.44254 -4.33848,-2.10194 -0.60382,-0.17442 -1.18203,-0.43401 -1.79101,-0.58942 -1.80173,-0.45976 -3.74066,0.005 -5.56668,-0.27191 -3.04874,-0.183 -6.09694,-0.46546 -9.03028,-1.37531 -2.63174,-0.72561 -5.32456,-1.23768 -7.45067,-3.11002 -1.56932,-1.28778 -3.53668,-1.68375 -5.3964,-2.41462 -2.51202,-1.14717 -5.0777,-2.15944 -7.62293,-3.23269 -3.28203,-1.39184 -6.56704,-2.77395 -9.87499,-4.10447 -4.36866,-1.5059 -8.80861,-2.73971 -13.19536,-4.18851 -2.74445,-1.11021 -5.57236,-2.17818 -7.71122,-4.31038 -0.83105,-1.0546 -1.04737,-1.96997 -2.0278,-2.39894 -1.50526,-0.84345 -3.17582,-1.15077 -4.87072,-1.37939 -3.15066,-0.01 -6.30458,-0.0279 -9.44804,-0.26582 -3.1345,-0.28666 -6.28597,-0.69916 -9.2144,-1.92535 -2.0819,-0.72002 -3.92596,-1.85062 -5.88992,-2.8291 -2.30659,-1.2867 -5.05771,-1.36607 -7.50635,-2.28544 -3.10348,-0.93545 -6.25105,-1.71882 -9.34026,-2.70668 -3.42827,-1.06967 -6.89231,-2.01901 -10.31044,-3.12616 -4.69762,-1.41272 -9.52374,-2.31674 -14.32454,-3.30296 -3.34644,-0.8696 -6.72977,-1.80199 -9.59081,-3.82736 -2.08619,-1.44335 -4.45672,-1.98769 -6.91349,-2.48756 -3.39704,-0.96674 -6.84438,-1.79784 -10.05581,-3.30674 -2.99256,-1.03835 -5.99359,-1.89966 -9.12166,-2.4443 -3.02398,-0.57349 -5.89104,-1.5786 -8.78156,-2.61701 -2.46864,-0.90841 -4.96222,-1.74261 -7.41569,-2.68908 -1.93319,-0.84755 -3.98978,-1.45804 -5.92684,-2.30228 -2.50437,-0.95282 -5.09664,-1.63606 -7.54324,-2.74771 -2.73399,-0.90584 -5.48693,-1.77979 -8.29902,-2.40916 -2.77449,-0.6846 -5.61952,-1.12605 -8.28091,-2.19911 -2.16191,-0.70722 -4.11792,-1.8166 -6.13286,-2.85492 -1.84375,-1.09905 -3.8331,-1.96181 -5.77533,-2.86843 -2.01599,-0.82878 -3.95031,-1.82654 -5.9999,-2.58193 -2.53214,-0.76147 -5.01216,-1.67904 -7.55599,-2.40617 -3.36116,-0.73017 -6.73451,-1.26187 -10.1159,-1.88498 -2.76074,-0.75779 -5.48043,-1.61663 -7.88387,-3.22458 -2.33037,-0.9594 -4.70523,-1.55441 -7.11316,-2.28484 -2.30897,-0.91798 -4.69318,-1.65199 -7.13682,-2.12008 -2.51328,-0.52769 -5.11167,-0.64438 -7.52512,-1.57852 -1.76565,-0.82034 -3.43068,-1.83025 -5.16881,-2.70711 -2.42685,-0.80281 -4.93625,-1.24966 -7.37416,-2.02817 -2.96957,-0.68881 -5.85372,-1.71514 -8.6376,-2.95318 -2.52717,-1.32889 -4.97026,-2.88734 -7.73081,-3.69601 -2.85115,-0.98826 -5.77169,-1.7696 -8.65681,-2.65044 -2.33253,-0.75295 -4.65641,-1.49853 -6.96518,-2.32089 -1.68427,-0.59528 -3.62613,-0.83279 -5.40152,-0.79932 -2.28483,0.12433 -4.61285,0.34225 -6.74936,-0.67721 -2.24205,-0.90469 -4.65284,-1.49956 -6.96516,-2.19007 -2.94155,-0.76375 -5.94486,-1.28581 -8.81776,-2.295 -2.37317,-0.61608 -4.73441,-1.29451 -7.06736,-2.04235 -2.38212,-0.85709 -4.90547,-1.35251 -6.87629,-3.089 -1.67103,-1.09689 -3.36937,-2.02889 -5.3065,-2.60485 -2.67126,-1.06362 -5.53192,-1.62077 -8.30276,-2.3613 -3.46613,-0.87926 -6.99291,-1.5256 -10.29929,-2.9536 -2.35331,-1.08203 -4.67666,-2.22739 -7.09378,-3.16465 -2.41399,-0.87336 -4.77486,-1.86066 -7.2443,-2.58325 -2.76862,-0.75423 -5.49982,-1.62703 -8.33373,-2.12432 -2.86596,-0.37729 -5.69918,-0.9663 -8.59264,-1.08524 -2.81039,-0.36065 -5.56252,-0.97336 -8.20528,-2.01984 -2.45471,-0.68153 -4.89252,-1.46101 -7.26994,-2.37295 -2.68214,-1.07128 -5.54926,-1.64913 -8.3107,-2.47857 -3.03454,-0.88399 -6.05012,-1.74753 -8.98852,-2.92002 -2.9904,-0.91045 -6.0894,-1.12369 -9.14307,-1.73899 -3.06614,-0.67358 -6.20685,-0.99177 -9.19734,-1.98053 -2.57767,-0.82129 -5.189,-1.56239 -7.77676,-2.34036 -2.46617,-0.57689 -5.01203,-0.80802 -7.44056,-1.5735 -2.36835,-0.3565 -4.652,-1.07605 -7.02923,-1.33592 -2.80391,-0.41781 -5.51216,-1.15881 -8.23063,-1.9492 -2.49416,-0.87937 -4.73476,-2.19335 -7.0297,-3.49142 -2.54792,-1.02114 -5.10251,-1.99854 -7.77077,-2.66891 -2.60152,-0.79821 -5.28814,-1.26545 -7.94468,-1.83409 -2.90033,-0.8195 -5.7964,-1.76368 -8.51093,-3.07969 -2.68632,-1.37643 -5.43461,-2.6529 -8.25941,-3.71781 -2.804989,-1.06959 -5.717899,-1.87198 -8.685108,-2.3361 -2.920791,-0.57434 -5.951567,-0.99772 -8.691512,-2.17219 -1.860232,-1.11178 -3.479694,-2.60678 -5.521962,-3.40383 -2.054311,-0.98586 -4.233445,-1.46945 -6.470386,-1.86579 -2.696432,-0.2915 -5.345167,-0.80661 -7.965955,-1.50819 -2.656772,-0.38381 -5.196301,-1.13198 -7.785501,-1.80747 -2.450084,-0.65329 -4.886176,-1.24075 -7.381867,-1.70508 -2.440316,-0.63084 -4.910585,-1.06396 -7.402835,-1.44599 -2.665511,-0.095 -5.338916,-0.2435 -7.954982,-0.80208 -2.368396,-0.50586 -4.73127,-0.97329 -7.11033,-1.41984 -2.120394,-0.50951 -4.206151,-1.11231 -6.399344,-1.22743 -2.567609,-0.16724 -5.190425,0.84198 -7.723325,-0.074 -2.21378,-0.65539 -4.4500213,-1.28514 -6.5755614,-2.17733 -1.7722318,-0.96698 -3.5494221,-1.9479 -5.4266286,-2.69061 -2.06982421,-0.86243 -4.1417187,-1.34496 -6.4132683,-1.08429 -3.7187274,0.61979 -4.5952398,-4.63929 -0.8765124,-5.25908 z"
       inkscape:connector-curvature="0" />
  </g>
</svg>
