<?xml version="1.0" encoding="UTF-8" standalone="no"?>
<!-- Created with Inkscape (http://www.inkscape.org/) -->

<svg
   xmlns:dc="http://purl.org/dc/elements/1.1/"
   xmlns:cc="http://creativecommons.org/ns#"
   xmlns:rdf="http://www.w3.org/1999/02/22-rdf-syntax-ns#"
   xmlns:svg="http://www.w3.org/2000/svg"
   xmlns="http://www.w3.org/2000/svg"
   xmlns:xlink="http://www.w3.org/1999/xlink"
   xmlns:sodipodi="http://sodipodi.sourceforge.net/DTD/sodipodi-0.dtd"
   xmlns:inkscape="http://www.inkscape.org/namespaces/inkscape"
   id="svg2"
   version="1.1"
   inkscape:version="0.48.4 r9939"
   width="587"
   height="978"
   sodipodi:docname="44491-53.svg">
  <metadata
     id="metadata8">
    <rdf:RDF>
      <cc:Work
         rdf:about="">
        <dc:format>image/svg+xml</dc:format>
        <dc:type
           rdf:resource="http://purl.org/dc/dcmitype/StillImage" />
        <dc:title />
      </cc:Work>
    </rdf:RDF>
  </metadata>
  <defs
     id="defs6" />
  <sodipodi:namedview
     pagecolor="#ffffff"
     bordercolor="#666666"
     borderopacity="1"
     objecttolerance="10"
     gridtolerance="10"
     guidetolerance="10"
     inkscape:pageopacity="0"
     inkscape:pageshadow="2"
     inkscape:window-width="1280"
     inkscape:window-height="732"
     id="namedview4"
     showgrid="false"
     inkscape:zoom="0.68252434"
     inkscape:cx="214.47112"
     inkscape:cy="615.19998"
     inkscape:window-x="-8"
     inkscape:window-y="-8"
     inkscape:window-maximized="1"
     inkscape:current-layer="layer1" />
  <image
     width="587"
     height="978"
     xlink:href="file:///C:/Users/Surface/Desktop/CHI2013%20BI%20GitRepo/public-dataset/input/cropped-display/44491-53.png"
     id="image10"
     x="0"
     y="0" />
  <g
     inkscape:groupmode="layer"
     id="layer1"
     inkscape:label="Layer">
    <path
       style="fill:#de2d26;fill-opacity:1;stroke:none"
       id="path16290"
       d="m -10.514971,314.07099 c 3.8120045,-1.68406 7.5012244,-3.63073 11.36444367,-5.19701 3.18562763,-1.36378 6.43884613,-2.60083 9.75073433,-3.62462 2.404801,-0.57975 4.824832,-1.39464 6.940361,-2.69887 2.009875,-1.22716 4.194366,-2.15803 6.205513,-3.37518 1.943455,-1.12524 3.991362,-2.12083 5.721239,-3.56945 2.188289,-1.79779 4.644684,-3.19163 7.084809,-4.60734 2.901162,-1.45319 5.912192,-2.68914 8.897464,-3.96251 2.180115,-1.09178 4.155308,-2.51141 6.066672,-4.01709 2.642456,-1.88571 5.597926,-3.29749 8.531093,-4.67031 2.921524,-1.49661 5.973407,-2.7596 9.088858,-3.7928 2.750981,-0.91094 5.372601,-2.07653 7.926039,-3.43196 2.111211,-0.84901 3.939505,-2.17719 5.765404,-3.50584 2.19648,-1.5009 4.381904,-3.00325 6.642909,-4.41156 2.074416,-1.67498 4.394086,-3.00518 6.928096,-3.83011 2.134668,-0.43476 4.191996,-1.14943 6.182856,-2.01836 2.39752,-0.77025 4.49778,-2.15922 6.60423,-3.49603 2.56946,-1.77033 5.08999,-3.61478 7.69386,-5.33544 2.86094,-1.48868 5.60541,-3.16348 8.32265,-4.89235 2.68386,-1.58569 5.19851,-3.41057 7.76574,-5.17205 2.59514,-2.00264 4.75928,-4.47985 7.20172,-6.65388 2.63923,-2.34588 5.73221,-4.09328 8.55626,-6.19127 2.3478,-1.62706 4.72593,-3.19687 7.07179,-4.82706 2.78633,-1.83818 5.83833,-3.19076 8.68809,-4.9188 2.769,-1.8031 5.12804,-4.1345 7.51092,-6.40095 2.12386,-1.91333 4.38528,-3.67102 6.46502,-5.6362 1.94737,-2.28383 4.61705,-3.59631 7.23551,-4.93659 2.46221,-1.38524 5.04466,-2.53578 7.45354,-4.01534 2.84651,-1.54651 5.48635,-3.4205 8.1458,-5.25758 1.93547,-1.56548 3.7283,-3.27723 5.77191,-4.70678 2.24235,-1.34643 4.3799,-2.82016 6.49244,-4.35705 1.7858,-1.77782 3.53612,-3.58649 5.41335,-5.27027 2.40479,-2.12616 5.21252,-3.73144 8.04701,-5.20839 3.70723,-1.97712 7.07619,-4.50656 10.57838,-6.81363 4.40433,-3.17571 9.43911,-5.28403 14.14209,-7.9486 2.33906,-1.352 5.05168,-2.63197 6.64997,-4.90509 1.25701,-1.53493 2.30995,-3.2969 3.06182,-5.13798 1.08395,-2.31017 2.53672,-4.34563 4.33132,-6.14875 2.79542,-2.79342 5.98261,-5.13008 9.25876,-7.32049 4.37342,-2.61973 8.27747,-5.88046 12.28333,-9.01069 2.52786,-1.94389 4.28465,-4.49276 5.88716,-7.19904 1.41394,-2.23204 3.17966,-4.18718 5.02349,-6.06703 2.50926,-2.2944 4.93692,-4.67777 7.51843,-6.89068 3.66643,-3.082852 7.4053,-6.087984 10.77478,-9.493454 4.88749,-4.741255 8.9015,-10.257469 13.46195,-15.287304 1.98738,-2.450236 4.43535,-4.469592 5.92798,-7.279625 1.31279,-2.498333 3.53701,-4.231668 5.49092,-6.184002 1.55891,-1.443875 3.20429,-2.819704 4.6418,-4.388417 1.455,-1.453546 3.00834,-2.823677 4.38237,-4.356382 1.40213,-1.807657 2.83505,-3.597344 4.236,-5.410031 1.51851,-2.102332 2.97427,-4.220587 4.77278,-6.10021 2.23565,-1.643401 4.03473,-3.733292 5.90594,-5.751828 1.29689,-1.858047 3.24742,-3.216534 4.41314,-5.161552 1.75329,-2.178082 3.53536,-4.327301 5.2857,-6.512133 2.0677,-2.321861 4.29528,-4.483551 6.40668,-6.762974 1.70823,-2.013815 2.83333,-4.388585 4.03147,-6.71857 1.49102,-2.641324 2.78015,-5.3845384 4.35917,-7.9759599 2.50163,-3.2112728 3.90135,-7.0447444 5.74061,-10.6310342 1.53746,-2.9089175 3.08115,-5.7598959 3.86116,-8.9723569 0.31646,-3.548588 1.09155,-6.026609 3.45825,-8.755842 1.73358,-1.750278 3.83507,-2.947367 5.87788,-4.268713 3.49215,-2.231189 6.64753,2.707454 3.15538,4.938643 l 0,0 c -1.61105,1.02 -3.25878,1.932191 -4.66929,3.241892 -1.8112,1.899182 -1.75124,3.700277 -2.13667,6.265667 -0.92951,3.6389979 -2.5418,6.9436 -4.33552,10.2321495 -1.91577,3.709262 -3.35989,7.6878696 -5.95534,11.0125947 -1.51864,2.4588898 -2.70872,5.0941338 -4.14698,7.5993278 -1.44608,2.796626 -2.83679,5.636584 -4.94218,8.016458 -2.01795,2.175234 -4.13934,4.243642 -6.13138,6.4437 -1.63247,2.036313 -3.26844,4.062623 -4.95276,6.05277 -1.46853,2.160411 -3.3924,3.917114 -5.02895,5.948334 -1.90074,2.033284 -3.69457,4.195467 -5.97829,5.828201 -1.67229,1.71491 -2.93523,3.723406 -4.36773,5.633352 -1.51219,1.928946 -3.01735,3.862554 -4.54629,5.776299 -1.42285,1.521805 -2.93637,2.958839 -4.43062,4.408197 -1.52225,1.587364 -3.15172,3.073623 -4.78928,4.539327 -1.57381,1.539832 -3.36764,2.904132 -4.47704,4.845076 -1.79137,3.170216 -4.32862,5.672687 -6.72277,8.390295 -4.63598,5.082437 -8.67525,10.701276 -13.65028,15.484974 -3.50795,3.488071 -7.3066,6.652791 -11.11665,9.809751 -2.46801,2.09846 -4.76126,4.39184 -7.1654,6.56317 -1.53609,1.52005 -2.96332,3.13719 -4.15165,4.94417 -1.99093,3.30814 -4.20516,6.43373 -7.30947,8.81073 -4.12089,3.22008 -8.14696,6.5645 -12.6397,9.26822 -2.96601,1.97335 -5.85136,4.08014 -8.3806,6.60283 -1.28509,1.25566 -2.28431,2.67868 -3.07375,4.29692 -1.00232,2.27918 -2.23911,4.51089 -3.82654,6.43384 -2.26209,2.77388 -5.21591,4.78505 -8.39411,6.40795 -4.59625,2.58195 -9.49022,4.6648 -13.7981,7.73868 -3.67337,2.4176 -7.2065,5.0696 -11.10607,7.12289 -2.40911,1.23851 -4.79959,2.59532 -6.8473,4.38333 -2.04042,1.79468 -3.83275,3.83578 -5.867,5.63509 -2.15702,1.55951 -4.32988,3.07415 -6.61431,4.44311 -2.06793,1.38256 -3.76049,3.22911 -5.76363,4.70108 -2.75279,1.89596 -5.48168,3.83695 -8.42389,5.43802 -2.54582,1.54147 -5.24008,2.79386 -7.84302,4.23281 -2.15356,1.09064 -4.32029,2.08966 -5.89444,3.99662 -2.0874,1.93428 -4.29749,3.72653 -6.43137,5.60451 -2.69356,2.55139 -5.36815,5.16801 -8.51726,7.16794 -2.75057,1.65375 -5.66328,2.99367 -8.37376,4.71508 -2.3024,1.59795 -4.63394,3.14178 -6.94029,4.73302 -2.70019,1.97352 -5.60689,3.67634 -8.14818,5.86172 -2.63831,2.31461 -4.91457,5.03565 -7.77469,7.10049 -2.62629,1.79134 -5.19482,3.65634 -7.93124,5.28123 -2.69193,1.70956 -5.39672,3.39586 -8.24443,4.84175 -2.63822,1.72856 -5.16933,3.61663 -7.77728,5.38934 -2.35834,1.49462 -4.72845,3.03133 -7.39905,3.91828 -2.18463,0.95318 -4.44869,1.75676 -6.78591,2.24297 -2.086067,0.5944 -3.860844,1.91779 -5.571008,3.20888 -2.142467,1.33395 -4.220686,2.74798 -6.296806,4.17853 -2.045813,1.48356 -4.113401,2.96585 -6.461727,3.94056 -2.847896,1.51173 -5.779904,2.80343 -8.844082,3.82309 -2.901216,0.94274 -5.725453,2.15088 -8.441439,3.53649 -2.532137,1.17619 -5.081368,2.39361 -7.390185,3.96941 -2.318741,1.81382 -4.725054,3.52164 -7.388192,4.79855 -2.766416,1.17644 -5.548204,2.33478 -8.253989,3.64041 -2.187903,1.26826 -4.401207,2.49715 -6.361356,4.11198 -2.007381,1.56754 -4.20073,2.84984 -6.438309,4.0611 -2.041037,1.15932 -4.157448,2.18247 -6.187545,3.36469 -2.556618,1.45581 -5.307008,2.60052 -8.18518,3.24594 -3.156366,0.96044 -6.2442814,2.16552 -9.2779172,3.45704 -3.72343824,1.49309 -7.259232,3.40213 -10.9359075,5.00382 -3.7065673,1.85329 -6.3275053,-3.38859 -2.6209383,-5.24188 z"
       inkscape:connector-curvature="0" />
  </g>
</svg>
