<?xml version="1.0" encoding="UTF-8" standalone="no"?>
<!-- Created with Inkscape (http://www.inkscape.org/) -->

<svg
   xmlns:dc="http://purl.org/dc/elements/1.1/"
   xmlns:cc="http://creativecommons.org/ns#"
   xmlns:rdf="http://www.w3.org/1999/02/22-rdf-syntax-ns#"
   xmlns:svg="http://www.w3.org/2000/svg"
   xmlns="http://www.w3.org/2000/svg"
   xmlns:xlink="http://www.w3.org/1999/xlink"
   xmlns:sodipodi="http://sodipodi.sourceforge.net/DTD/sodipodi-0.dtd"
   xmlns:inkscape="http://www.inkscape.org/namespaces/inkscape"
   id="svg2"
   version="1.1"
   inkscape:version="0.48.4 r9939"
   width="1303"
   height="2178"
   sodipodi:docname="44491-37.svg">
  <metadata
     id="metadata8">
    <rdf:RDF>
      <cc:Work
         rdf:about="">
        <dc:format>image/svg+xml</dc:format>
        <dc:type
           rdf:resource="http://purl.org/dc/dcmitype/StillImage" />
        <dc:title></dc:title>
      </cc:Work>
    </rdf:RDF>
  </metadata>
  <defs
     id="defs6" />
  <sodipodi:namedview
     pagecolor="#ffffff"
     bordercolor="#666666"
     borderopacity="1"
     objecttolerance="10"
     gridtolerance="10"
     guidetolerance="10"
     inkscape:pageopacity="0"
     inkscape:pageshadow="2"
     inkscape:window-width="1366"
     inkscape:window-height="744"
     id="namedview4"
     showgrid="false"
     inkscape:zoom="0.61295574"
     inkscape:cx="491.44168"
     inkscape:cy="161.8126"
     inkscape:window-x="0"
     inkscape:window-y="24"
     inkscape:window-maximized="1"
     inkscape:current-layer="layer1" />
  <image
     width="1303"
     height="2178"
     xlink:href="file:///tmp/broken-interfaces/phone_cropped_display/44491-37.png"
     id="image10"
     x="0"
     y="0" />
  <g
     inkscape:groupmode="layer"
     id="layer1"
     inkscape:label="Layer">
    <path
       style="fill:#de2d26;fill-opacity:1;fill-rule:nonzero;stroke:none"
       id="g0"
       d="m 197.89512,2180.2754 c 3.74768,-0.5271 7.44189,-1.2597 11.14955,-2.0126 3.22094,-0.9744 6.45911,-1.8697 9.78829,-2.378 2.2548,-0.3166 4.53322,-0.3655 6.80625,-0.3772 1.66175,0.016 3.24026,-0.7052 4.85201,-1.0943 1.94719,-0.4254 3.94213,-0.4723 5.92611,-0.5129 1.93859,-0.02 3.87732,-0.018 5.81597,-0.01 1.6353,-0 3.27059,0.013 4.90589,0.011 1.22797,0.117 1.32627,-0.2607 2.5383,-0.7915 1.38029,-0.5947 2.86126,-0.7396 4.34474,-0.8133 0.12885,-0.1103 4.02964,0.077 2.97141,-0.079 0.51109,-0.6504 1.28924,-1.0053 2.05728,-1.274 1.52856,-0.3386 3.1061,-0.3096 4.6632,-0.3162 1.63057,-0 3.26117,-4e-4 4.89173,0.01 1.11551,-0.094 2.19104,-0.7809 3.35119,-1.1024 2.4664,-0.4328 4.93626,-0.3783 7.37924,-0.9384 2.41452,-0.5817 4.87731,-0.9046 7.34883,-1.1118 1.47429,-0.3026 3.12484,0.209 4.55107,-0.266 2.77239,-0.7917 5.63717,-1.0962 8.50212,-1.3039 2.54204,-0.4298 5.04297,-1.0605 7.58587,-1.4835 1.64088,-0.2864 3.30871,-0.313 4.96945,-0.3278 1.83573,-0.01 3.67155,-0.01 5.50726,0.01 1.18903,0.017 2.37815,0.012 3.56723,0.01 2.12476,-3e-4 4.24947,-0.014 6.37423,-0.01 2.52996,0.042 5.01476,0.093 7.49829,-0.4184 2.15057,-0.5116 4.32178,-0.8915 6.52312,-1.0886 1.63326,-0.1242 3.27179,-0.1191 4.90852,-0.1238 1.40451,0 2.80902,0 4.21351,0.011 1.57771,-0 3.15541,-0.01 4.73311,5e-4 1.72065,-0.2082 3.23214,0.3047 4.80988,0.9085 1.29071,0.5375 2.69356,0.5891 4.06973,0.6676 2.11775,0.072 4.23722,0.059 6.35583,0.052 3.14471,-0.01 6.28941,-0.019 9.43411,-0.025 3.58844,0.021 7.14645,0.1405 10.69513,-0.4307 2.26892,-0.4284 4.53685,-0.8652 6.8387,-1.0653 2.2782,-0.1466 4.56308,-0.131 6.84487,-0.1364 2.78891,0.2226 5.44621,-0.1313 8.16295,-0.6804 2.47684,-0.664 4.9788,0.019 7.45342,0.3204 2.14292,0.2726 4.3055,0.331 6.46307,0.364 2.1534,0.033 4.30713,0.027 6.46066,0.013 3.2695,-0.5445 6.5395,-1.0402 9.84149,-1.3389 2.83612,-0.2198 5.68139,-0.2822 8.52502,-0.2937 1.59001,-0 3.18007,-7e-4 4.77008,0.01 2.1908,-0.064 4.39919,0.1556 6.56895,-0.1858 3.04168,-0.6174 6.11661,-1.0123 9.2081,-1.2642 2.103,-0.1495 4.21136,-0.1774 6.31871,-0.1897 1.9056,-0 3.81124,-0 5.71682,0.01 1.58665,0.01 3.17332,0 4.75997,0.01 1.7702,0.184 3.36146,1.0497 5.09355,1.3932 2.02387,0.084 3.9696,0.5433 5.92254,1.0547 2.27838,0.3098 4.4435,0.9103 6.62402,1.6201 1.84532,0.4285 3.66744,0.7243 5.43655,1.4179 1.82492,0.5523 3.66873,0.929 5.48161,1.5308 2.35989,0.5454 4.67184,1.2517 7.0187,1.8492 3.02376,0.709 5.979,1.6012 9.05651,2.0726 2.55429,0.6726 5.06494,1.4821 7.68802,1.8402 2.25199,0.044 4.39147,0.5692 6.56905,1.0838 2.2518,0.5247 4.56834,0.5644 6.82728,1.0148 1.84423,0.467 3.66948,0.974 5.5447,1.3008 1.3562,0.1003 2.66095,0.151 3.9915,0.4432 1.57582,0.7682 3.29856,0.9821 4.97147,1.4197 2.64471,0.5564 5.18695,1.4426 7.78004,2.1837 2.75367,0.9086 5.35469,2.2072 8.09873,3.1354 2.71252,1.1598 5.55893,1.9306 8.28406,3.0509 1.6801,0.7744 3.46063,1.1775 5.16018,1.9033 2.25667,0.791 4.40561,1.8592 6.604,2.7979 3.03701,1.4489 6.08278,2.8746 9.03932,4.4842 2.04662,0.8241 3.88455,2.0257 5.7716,3.1504 0.6792,0.4555 0.604,0.3745 1.28341,0.4366 0.084,0.012 0.16888,0.01 0.25316,0.01 0,0 0.0327,4.8997 0.0327,4.8997 l 0,0 c -0.24885,0 -0.49772,-10e-4 -0.74589,-0.023 -1.18186,-0.1128 -2.32519,-0.3947 -3.32028,-1.0735 -1.85547,-1.0748 -3.63119,-2.2482 -5.64263,-3.0271 -2.83322,-1.5247 -5.7373,-2.9005 -8.6332,-4.2997 -2.19217,-0.95 -4.33962,-2.0142 -6.59069,-2.8181 -1.66485,-0.7187 -3.43537,-1.074 -5.08968,-1.8536 -2.63948,-1.0751 -5.40075,-1.7978 -8.01737,-2.9394 -2.66074,-0.9224 -5.20632,-2.1297 -7.86392,-3.0653 -2.57386,-0.7491 -5.09689,-1.6183 -7.72355,-2.1812 -1.66983,-0.5035 -3.45442,-0.6363 -5.0292,-1.4586 -0.99324,-0.176 -2.3228,-0.1418 -3.43256,-0.3174 -1.95647,-0.32 -3.86773,-0.8174 -5.78347,-1.3229 -2.2507,-0.5755 -4.67826,-0.3441 -6.92411,-1.0338 -2.03612,-0.4939 -3.98565,-0.9925 -6.1055,-0.9953 -2.64025,-0.3808 -5.20452,-1.068 -7.75901,-1.8297 -3.23805,-0.5068 -6.35592,-1.414 -9.53338,-2.1821 -2.45803,-0.6401 -4.88109,-1.3719 -7.35138,-1.9643 -1.89021,-0.6387 -3.83567,-0.9748 -5.72525,-1.6313 -1.6595,-0.6623 -3.42809,-0.7957 -5.15686,-1.3078 -2.08914,-0.6842 -4.15045,-1.2192 -6.33616,-1.5315 -1.90221,-0.4925 -3.75411,-0.9166 -5.72352,-1.0277 -1.37549,-0.3143 -2.75423,-0.7083 -4.04607,-1.2786 -1.58925,0 -3.17851,-0 -4.76777,-0 -1.89479,0.01 -3.78953,-0.01 -5.68432,-0.01 -1.98028,0.01 -3.95974,0.066 -5.93592,0.1991 -3.00541,0.2494 -5.99051,0.6629 -8.95111,1.2408 -2.40923,0.2907 -4.81972,0.2134 -7.24435,0.1948 -1.56888,-6e-4 -3.13777,-0.013 -4.70662,0 -2.71141,0.046 -5.4242,0.1055 -8.12905,0.3125 -3.44966,0.3103 -6.85138,0.9112 -10.28513,1.3422 -2.18284,-0.01 -4.36572,-0 -6.54849,-0.024 -2.33461,-0.043 -4.67324,-0.1068 -6.99253,-0.3998 -1.93992,-0.2474 -3.92556,-0.8665 -5.85752,-0.3714 -3.03468,0.6125 -6.03405,1.011 -9.14281,0.7788 -2.14629,-0 -4.29653,-0.038 -6.43964,0.098 -2.1791,0.169 -4.31229,0.6686 -6.45968,1.0573 -3.81212,0.6072 -7.62592,0.5595 -11.47965,0.5015 -3.14412,-0 -6.28824,-0.01 -9.43236,-0.01 -2.21321,-0 -4.42765,0.011 -6.63955,-0.077 -1.9005,-0.1071 -3.81487,-0.2762 -5.5944,-1.0097 -1.17611,-0.4712 -1.57256,-0.7497 -3.00617,-0.5692 -1.5806,0.01 -3.16121,0 -4.7418,-0 -1.39973,0 -2.79941,-0.01 -4.19914,-0.01 -1.48792,-0 -2.97708,0.014 -4.46232,0.1105 -2.02138,0.1908 -4.01013,0.5563 -5.98411,1.0341 -2.815,0.5683 -5.62438,0.5876 -8.48852,0.5108 -2.1253,0 -4.25055,-0.01 -6.37584,-0.01 -1.19248,-0.01 -2.38498,-0.014 -3.57747,-0 -1.81581,0 -3.63157,-0.011 -5.44739,-0 -1.39868,0.015 -2.80779,-0 -4.18784,0.2625 -2.69837,0.4717 -5.34535,1.2002 -8.06269,1.5721 -2.64424,0.1843 -5.28399,0.4624 -7.84524,1.1821 -1.70294,0.2901 -3.39839,0.2568 -5.12197,0.3458 -2.24843,0.214 -4.49145,0.5017 -6.69084,1.0306 -2.40687,0.5409 -4.80751,0.6531 -7.25404,0.8829 -1.55661,0.3252 -2.8945,1.4777 -4.58256,1.2552 -1.61854,3e-4 -3.23706,-0.01 -4.8556,-0.01 -1.07105,0.01 -2.14608,0.02 -3.2134,0.071 1.00782,-1.0865 -1.30249,1.2853 -1.85507,1.2157 -1.47051,0.3641 -2.89166,0.4027 -4.40808,0.3724 -0.91973,0.045 -1.83975,0.062 -2.69641,0.441 -1.45348,0.5245 -2.78459,1.4473 -4.43158,1.1729 -1.63779,-0 -3.27561,0.01 -4.91341,-0 -1.90423,0 -3.80864,-0.015 -5.71275,0.011 -1.62257,0.028 -3.25502,0.047 -4.85246,0.3666 -1.97718,0.4851 -3.91391,1.3299 -5.98245,1.2416 -2.03731,0.019 -4.08077,0.041 -6.10064,0.3421 -3.24864,0.4848 -6.37905,1.4675 -9.5337,2.3598 -3.71261,0.7591 -7.41098,1.5153 -11.17633,1.9705 0,0 -0.96952,-4.8476 -0.96952,-4.8476 z"
       inkscape:connector-curvature="0"
       inkscape:label="#path3004" />
  </g>
</svg>
