<?xml version="1.0" encoding="UTF-8" standalone="no"?>
<!-- Created with Inkscape (http://www.inkscape.org/) -->

<svg
   xmlns:dc="http://purl.org/dc/elements/1.1/"
   xmlns:cc="http://creativecommons.org/ns#"
   xmlns:rdf="http://www.w3.org/1999/02/22-rdf-syntax-ns#"
   xmlns:svg="http://www.w3.org/2000/svg"
   xmlns="http://www.w3.org/2000/svg"
   xmlns:xlink="http://www.w3.org/1999/xlink"
   xmlns:sodipodi="http://sodipodi.sourceforge.net/DTD/sodipodi-0.dtd"
   xmlns:inkscape="http://www.inkscape.org/namespaces/inkscape"
   id="svg2"
   version="1.1"
   inkscape:version="0.48.4 r9939"
   width="1180"
   height="1760"
   sodipodi:docname="44491-33.svg">
  <metadata
     id="metadata8">
    <rdf:RDF>
      <cc:Work
         rdf:about="">
        <dc:format>image/svg+xml</dc:format>
        <dc:type
           rdf:resource="http://purl.org/dc/dcmitype/StillImage" />
        <dc:title />
      </cc:Work>
    </rdf:RDF>
  </metadata>
  <defs
     id="defs6" />
  <sodipodi:namedview
     pagecolor="#ffffff"
     bordercolor="#666666"
     borderopacity="1"
     objecttolerance="10"
     gridtolerance="10"
     guidetolerance="10"
     inkscape:pageopacity="0"
     inkscape:pageshadow="2"
     inkscape:window-width="1280"
     inkscape:window-height="732"
     id="namedview4"
     showgrid="false"
     inkscape:zoom="0.94"
     inkscape:cx="583.53327"
     inkscape:cy="737.97247"
     inkscape:window-x="-8"
     inkscape:window-y="-8"
     inkscape:window-maximized="1"
     inkscape:current-layer="layer1" />
  <image
     width="1180"
     height="1760"
     xlink:href="file:///tmp/broken-interfaces/phone_cropped_display/44491-33.png"
     id="image10"
     x="0"
     y="0" />
  <g
     inkscape:groupmode="layer"
     id="layer1"
     inkscape:label="Layer">
    <g
       id="g2"
       inkscape:label="#g3013">
      <path
         style="fill:#fee0d2;fill-opacity:1;fill-rule:nonzero;stroke:none"
         id="path2996"
         d="m 737.37289,-7.8323148 c -0.0763,2.4172921 0.32435,4.8119405 0.54939,7.21343118 0.0211,3.41526832 0.73521,6.73288882 1.3134,10.07998082 0.63691,3.1760048 1.40304,6.3251228 2.02887,9.5028158 0.79047,2.875109 1.08729,5.840847 1.5895,8.768631 0.3879,2.499249 0.84411,4.978926 1.32475,7.461574 0.56588,1.929781 0.9983,3.889787 1.55155,5.822135 0.34413,1.794515 0.96121,3.513004 1.39862,5.28314 0.3204,1.208299 0.64947,2.448012 1.11019,3.613673 0.71538,2.222575 1.16248,4.517141 1.73971,6.775866 0.75728,2.651932 1.29399,5.359789 1.97321,8.030393 0.53439,2.136567 1.10816,4.263267 1.73479,6.374746 0.55897,2.104841 1.11287,4.21085 1.63468,6.325791 0.571,1.913198 1.25445,3.790807 1.77175,5.718944 0.6841,2.058617 1.12109,4.181078 1.69753,6.269334 0.68472,2.417229 1.12902,4.879396 1.63822,7.335879 0.46379,2.882139 1.0613,5.727981 1.81671,8.547141 0.7367,2.36554 1.23597,4.79231 1.86545,7.18523 0.62009,2.37912 0.96326,4.81317 1.58084,7.19417 0.66471,2.56116 1.27758,5.1362 1.96526,7.69126 0.46009,2.16812 1.11928,4.28068 1.65077,6.42885 0.68247,2.2979 1.29031,4.62065 1.79785,6.96393 0.6683,2.52852 1.13642,5.10035 1.70242,7.652 0.64301,2.77097 0.78185,5.61456 0.87236,8.44651 0.23872,3.22623 0.62296,6.42932 1.29551,9.59434 0.66275,3.44648 1.46317,6.86117 1.95338,10.33836 0.66345,3.5726 1.12673,7.17642 1.78207,10.75058 0.70878,4.22163 1.55829,8.42108 2.55192,12.58492 1.04984,3.53462 2.18629,7.04206 3.15744,10.59958 1.02192,3.66741 2.23974,7.27481 3.37587,10.90707 1.11749,3.47005 2.41485,6.8915 3.85826,10.23974 1.23414,3.02704 2.3686,6.08984 3.58905,9.12231 0.7603,2.44954 1.70763,4.8266 2.63348,7.21481 0.39276,1.55725 0.99191,3.04439 1.4557,4.57993 0.24938,0.86479 0.43357,1.74065 0.49214,2.63884 -0.0723,-0.72194 0.12921,2.08313 0.0144,1.22328 -0.12708,-0.95203 -0.0678,-0.67818 0.0957,-0.22618 0.64351,1.19596 0.41261,2.63439 0.80848,3.87665 0.37122,1.21964 0.65703,2.45528 0.82806,3.71845 0.54102,1.17193 0.60152,2.51464 0.92617,3.75841 0.49162,1.7796 0.78454,3.6027 0.95108,5.43886 0.37066,1.19113 0.58375,2.4117 0.99525,3.5902 0.53902,1.78569 0.92083,3.62192 1.29163,5.45052 0.40713,1.93389 0.76929,3.89765 1.29225,5.80516 0.52591,2.21934 1.05141,4.4405 1.66485,6.63776 0.69784,2.11558 1.24866,4.28313 1.93896,6.40078 0.65263,1.85942 0.93246,3.80923 1.40647,5.71492 0.42705,1.69565 0.53749,3.43431 0.97271,5.12416 0.43496,1.7189 0.57147,3.48022 0.95124,5.20902 0.22829,1.73989 0.80938,3.3904 1.21697,5.08909 0.30613,1.26844 0.57685,2.61554 1.09529,3.82048 0.48555,1.48201 1.17376,2.86495 1.61957,4.36255 0.4686,1.27047 1.0653,2.47671 1.56956,3.73204 0.78976,2.11803 1.59222,4.23189 2.3046,6.37791 0.7553,2.79601 1.65202,5.55227 2.32897,8.3685 0.72078,2.51992 1.38274,5.06217 2.18853,7.55631 0.66984,2.10908 1.01174,4.29425 1.5801,6.42817 0.29452,1.72048 0.8857,3.35977 1.30065,5.05003 0.20181,1.38673 0.64941,2.71021 0.97664,4.0694 0.0516,0.0944 0.49511,2.80588 0.31476,1.6339 0.47302,0.64493 0.68653,1.35872 0.90467,2.11147 0.042,0.14475 -0.26493,-0.43995 -0.11424,-0.43746 0.1639,0.003 0.14744,0.29282 0.22116,0.43923 0.43952,0.93237 1.06053,1.75117 1.60672,2.62379 0.25048,0.45715 0.69494,1.15369 0.81887,1.29404 0.15101,0.17244 0.30995,0.33751 0.47139,0.50008 -1.41081,-1.29602 -0.18507,-0.002 -4.52863,3.04809 -1.73465,-3.5543 3.29189,-6.00746 5.02654,-2.45316 l 0,0 c -3.81871,3.22209 -2.91483,4.82029 -4.41478,3.39785 -0.28085,-0.28028 -0.55455,-0.56773 -0.81415,-0.86799 -0.50811,-0.6058 -0.91296,-1.26977 -1.30297,-1.95561 -0.63624,-1.02096 -1.34761,-1.995 -1.86523,-3.08475 -0.25725,-0.51944 -0.66321,-1.36803 -0.50083,-1.2823 -0.77502,-1.12065 -1.09649,-2.34 -1.2652,-3.67503 -0.31479,-1.35252 -0.77287,-2.67058 -0.97173,-4.04893 -0.38876,-1.65021 -0.99267,-3.24484 -1.2686,-4.9237 -0.54448,-2.04602 -0.88746,-4.13501 -1.50248,-6.16314 -0.83542,-2.63316 -1.56,-5.30298 -2.30211,-7.96395 -0.62829,-2.6654 -1.50482,-5.26422 -2.19979,-7.91283 -0.67082,-2.04965 -1.44969,-4.06127 -2.19807,-6.08298 -0.53997,-1.42572 -1.26668,-2.7767 -1.73946,-4.23226 -0.36364,-1.34821 -1.07295,-2.56581 -1.46665,-3.90608 -0.53874,-1.47408 -0.98299,-3.00504 -1.31605,-4.5359 -0.40139,-1.73029 -1.00858,-3.40993 -1.23772,-5.18016 -0.36409,-1.66664 -0.52793,-3.35498 -0.90567,-5.01718 -0.43569,-1.70716 -0.60531,-3.44425 -0.98253,-5.16306 -0.44421,-1.78709 -0.7091,-3.61308 -1.30557,-5.35968 -0.6936,-2.19677 -1.29336,-4.42532 -2.00337,-6.61695 -0.60736,-2.2194 -1.15809,-4.45451 -1.68039,-6.69524 -0.52316,-2.02455 -0.95033,-4.08243 -1.36793,-6.12991 -0.31865,-1.58773 -0.6514,-3.18041 -1.09734,-4.73572 -0.54744,-1.60558 -0.91505,-3.26276 -1.27827,-4.91809 -0.13372,-1.55908 -0.39555,-3.10405 -0.81514,-4.61324 -0.3374,-1.4511 -0.54759,-2.92494 -1.03514,-4.34038 -0.14159,-1.09434 -0.43193,-2.1507 -0.73648,-3.21033 -0.21784,-1.0745 -0.22986,-2.19003 -0.6163,-3.22199 -0.29977,-0.83109 -0.4809,-1.68383 -0.4329,-2.56661 -0.0206,-0.46889 -0.15813,-0.92688 -0.27264,-1.38418 -0.39647,-1.39429 -0.98743,-2.73039 -1.30856,-4.14775 -0.91203,-2.36591 -1.86669,-4.71435 -2.6055,-7.1439 -1.20411,-2.9926 -2.32511,-6.01408 -3.53922,-9.00251 -1.51122,-3.52819 -2.88822,-7.12438 -4.05806,-10.77989 -1.15376,-3.69878 -2.39736,-7.37034 -3.43378,-11.10525 -0.98209,-3.61659 -2.15906,-7.17432 -3.20182,-10.77351 -1.01254,-4.26099 -1.88927,-8.55566 -2.61296,-12.87524 -0.66498,-3.65157 -1.14842,-7.33087 -1.81926,-10.98128 -0.46434,-3.35171 -1.25878,-6.6387 -1.88745,-9.96144 -0.72741,-3.48757 -1.17264,-7.01416 -1.41254,-10.5692 -0.0775,-2.48382 -0.1794,-4.98078 -0.74244,-7.41194 -0.56845,-2.56277 -1.03974,-5.14533 -1.70966,-7.68517 -0.49196,-2.2974 -1.10303,-4.5681 -1.76523,-6.82155 -0.49926,-2.10906 -1.18074,-4.17423 -1.61813,-6.30111 -0.68786,-2.57538 -1.31368,-5.16717 -1.9802,-7.74817 -0.6062,-2.38022 -0.98243,-4.80316 -1.57813,-7.18366 -0.60928,-2.38314 -1.12333,-4.78786 -1.85351,-7.1399 -0.78335,-2.92583 -1.4121,-5.87913 -1.89301,-8.870012 -0.47531,-2.336616 -0.89329,-4.67579 -1.55073,-6.971835 -0.5827,-2.110998 -1.02744,-4.255074 -1.71572,-6.336906 -0.49931,-1.962116 -1.25698,-3.851986 -1.79374,-5.805466 -0.49712,-2.03463 -1.03534,-4.058886 -1.56935,-6.083409 -0.63681,-2.185519 -1.2459,-4.379114 -1.79316,-6.589086 -0.66393,-2.671512 -1.21715,-5.369872 -1.97049,-8.019666 -0.52038,-2.071035 -0.94955,-4.165423 -1.56488,-6.212206 -0.49412,-1.386097 -0.94326,-2.802344 -1.2979,-4.229191 -0.40331,-1.699534 -1.02554,-3.341866 -1.34083,-5.064721 -0.5982,-2.089446 -1.07707,-4.206664 -1.6658,-6.299405 -0.48803,-2.525281 -0.95057,-5.048695 -1.34804,-7.590003 -0.48286,-2.882956 -0.79087,-5.796771 -1.56358,-8.626689 -0.62765,-3.220191 -1.4186,-6.407719 -2.05185,-9.627547 -0.60116,-3.4884925 -1.33456,-6.9531332 -1.37057,-10.51049983 -0.2399,-2.57393917 -0.65773,-5.14227357 -0.57366,-7.73392297 0,-3.9550042 5.59322,-3.9550042 5.59322,0 z"
         inkscape:connector-curvature="0" />
      <path
         style="fill:#fee0d2;fill-opacity:1;fill-rule:nonzero;stroke:none"
         id="path3000"
         d="m 830.61622,370.53583 c 0.8244,1.85924 1.62108,3.72965 2.37465,5.62035 0.80369,1.82375 1.55696,3.67241 2.27927,5.53036 0.63542,1.36882 1.20808,2.76601 1.58312,4.22907 0.37472,0.79823 0.70537,1.61151 1.06657,2.41585 0.44105,1.38059 1.02568,2.70436 1.45343,4.08971 0.33753,1.34202 0.85003,2.62264 1.15218,3.98156 0.35767,1.30095 0.91812,2.52048 1.36114,3.79128 0.49542,1.42998 1.07242,2.81234 1.41299,4.29303 0.50489,1.35399 0.8572,2.74517 1.08303,4.17103 0.0295,1.1531 0.43706,2.04362 0.6988,3.20032 0.30515,1.50232 0.79806,2.94535 1.05607,4.46739 0.0815,1.4238 0.49923,2.77746 0.80391,4.16217 0.13665,1.23215 0.60428,2.36833 0.90497,3.56332 0.36851,1.80159 0.80478,3.5897 1.29258,5.36427 0.51188,2.01669 1.00377,4.05542 1.6357,6.03875 0.43692,1.72423 1.03898,3.39602 1.49679,5.11248 0.60186,2.06602 1.3658,4.07662 2.09861,6.09878 0.63817,2.1821 1.30095,4.35305 2.09631,6.4821 0.46529,1.71124 1.14968,3.3437 1.59174,5.06156 0.43021,1.3906 0.98804,2.73117 1.50452,4.09047 0.3838,1.44571 0.78445,2.8785 1.17036,4.32438 0.57152,1.30479 1.09551,2.63419 1.60364,3.96648 0.6118,1.31137 1.1041,2.65574 1.81395,3.92043 0.95923,1.7085 1.74408,3.49682 2.48105,5.31033 0.76346,1.59045 1.59794,3.13581 2.36419,4.72618 0.79641,1.77818 1.60238,3.55496 2.48853,5.29079 0.73359,1.75408 1.52322,3.4684 2.38924,5.15982 0.70877,1.59396 1.17657,3.2836 1.86663,4.88581 0.59363,1.54519 1.18157,3.09602 1.6647,4.67985 0.41277,1.39922 0.69363,2.89713 1.29492,4.23268 0.54898,1.09681 0.90088,2.27298 1.30853,3.42565 0.47155,1.90791 1.04746,3.78431 1.59254,5.67273 0.83094,2.42514 1.55604,4.8876 2.41052,7.30449 0.73051,2.26707 1.66674,4.45852 2.43229,6.71234 0.74645,1.89808 1.46626,3.80615 2.2319,5.69635 0.63912,1.88536 1.34913,3.73859 2.09897,5.58226 0.7099,1.96916 1.49141,3.91171 2.28714,5.84765 0.89708,2.36571 1.91597,4.68978 3.05012,6.95164 1.24568,2.43046 2.43037,4.89268 3.67753,7.32252 1.35681,2.58956 2.65168,5.21077 3.98181,7.81399 1.20007,2.61558 2.34821,5.25376 3.56509,7.86167 1.21834,2.7237 2.17562,5.55233 3.33152,8.30101 0.89303,2.23887 1.70127,4.50977 2.51158,6.77995 0.81944,1.73541 1.27634,3.60576 2.0523,5.35588 0.56534,1.01847 0.5666,2.24783 1.08303,3.26659 0.42451,0.65858 0.70381,1.3764 0.86865,2.14131 0.005,0.76335 0.50211,2.93951 -0.24965,0.0882 -0.12184,-0.15001 -0.50459,-0.58424 -0.36554,-0.45002 0.75056,0.7245 1.12317,1.50666 1.45762,2.46847 -0.058,-0.17231 -0.338,-0.43829 -0.17407,-0.51693 0.15665,-0.0751 0.42287,1.11731 0.88819,1.6859 0.55494,0.66288 0.89426,1.47735 1.15912,2.29177 0.10384,0.30847 0.1574,0.62662 0.19024,0.94918 0.25312,3.94689 -5.32863,4.30486 -5.58175,0.35797 l 0,0 c 0.007,0.0651 0.0555,0.37775 0.061,0.38683 -0.13994,-0.44452 -0.0358,-0.32782 -0.39119,-0.75051 -0.64237,-0.93963 -1.06009,-1.96938 -1.56278,-2.98917 0.11052,0.23392 0.6883,0.80893 -0.32616,-0.31823 -0.25829,-0.75391 -0.62577,-1.46034 -0.58672,-2.09216 0.42062,0.55625 -0.34077,-0.54958 -0.45033,-0.87643 -0.50156,-1.10203 -0.72953,-2.26261 -1.14079,-3.39377 -0.8188,-1.87782 -1.35063,-3.85855 -2.19942,-5.72619 -0.77524,-2.17618 -1.55003,-4.35214 -2.40275,-6.49892 -1.11958,-2.68524 -2.07162,-5.4366 -3.2431,-8.10086 -1.18331,-2.54886 -2.31241,-5.12117 -3.47584,-7.67866 -1.32693,-2.60207 -2.62339,-5.21964 -3.9784,-7.80733 -1.25193,-2.44948 -2.44926,-4.92671 -3.70389,-7.37465 -1.18751,-2.38952 -2.27786,-4.83287 -3.22136,-7.32922 -0.79301,-1.94234 -1.58395,-3.88686 -2.29284,-5.86165 -0.75141,-1.85049 -1.47099,-3.70867 -2.10698,-5.60206 -0.79583,-1.9921 -1.57157,-3.99138 -2.34181,-5.99393 -0.74842,-2.23573 -1.69711,-4.40006 -2.41059,-6.64924 -0.87909,-2.52195 -1.65583,-5.07926 -2.50808,-7.61047 -0.51047,-1.78349 -1.07735,-3.55047 -1.49232,-5.35921 -0.37656,-1.07312 -0.70217,-2.16411 -1.21648,-3.18261 -0.59555,-1.53552 -1.06387,-3.13164 -1.46874,-4.72648 -0.41048,-1.4 -0.9559,-2.75808 -1.46526,-4.12395 -0.61212,-1.4834 -1.12123,-3.00632 -1.68973,-4.50498 -0.86522,-1.69717 -1.6769,-3.40849 -2.39596,-5.17301 -0.89734,-1.77572 -1.73479,-3.58237 -2.54255,-5.40016 -0.81391,-1.69772 -1.72607,-3.33678 -2.50758,-5.05051 -0.64874,-1.61132 -1.34009,-3.19739 -2.19604,-4.711 -0.81537,-1.49998 -1.44717,-3.06954 -2.14085,-4.62642 -0.57778,-1.51799 -1.20968,-3.01237 -1.78512,-4.53108 -0.32655,-1.25771 -0.70669,-2.49843 -0.99103,-3.76544 -0.59339,-1.56324 -1.23517,-3.10788 -1.70108,-4.71641 -0.36465,-1.51979 -1.03014,-2.94612 -1.40592,-4.46412 -0.8019,-2.14662 -1.4887,-4.33012 -2.11564,-6.53466 -0.79191,-2.18764 -1.61571,-4.36449 -2.25482,-6.60327 -0.40161,-1.6364 -1.03097,-3.21478 -1.42406,-4.85651 -0.62393,-2.05083 -1.17584,-4.13139 -1.68653,-6.2126 -0.50167,-1.82531 -0.9438,-3.66678 -1.33246,-5.51783 -0.28831,-1.24023 -0.8038,-2.42291 -0.93665,-3.70034 -0.3182,-1.47607 -0.75958,-2.92885 -0.85783,-4.4439 -0.22535,-1.42511 -0.74345,-2.76192 -1.00038,-4.17755 -0.24767,-1.18829 -0.74019,-2.32401 -0.76468,-3.55427 -0.18962,-1.31415 -0.61657,-2.55331 -1.0168,-3.81545 -0.25664,-1.27955 -0.874,-2.4341 -1.24144,-3.68116 -0.49474,-1.48257 -1.18251,-2.8972 -1.53826,-4.42876 -0.24558,-1.2153 -0.76816,-2.33996 -1.03989,-3.54563 -0.33472,-1.16568 -0.88602,-2.25489 -1.20674,-3.42566 -0.48466,-1.10086 -0.98193,-2.19507 -1.38236,-3.33046 -0.30081,-1.24532 -0.87109,-2.40336 -1.37587,-3.57569 -0.70568,-1.84403 -1.46792,-3.66927 -2.25875,-5.478 -0.74937,-1.88874 -1.54932,-3.75286 -2.37057,-5.61014 -1.46885,-3.67212 3.72432,-5.74939 5.19317,-2.07727 z"
         inkscape:connector-curvature="0" />
      <path
         style="fill:#fee0d2;fill-opacity:1;fill-rule:nonzero;stroke:none"
         id="path3002"
         d="m 918.92775,607.49686 c 1.11912,1.61143 2.27952,3.23889 3.60752,4.68794 1.2477,1.32279 2.39609,2.71029 3.43389,4.20516 0.84433,1.02417 1.62468,2.09911 2.47779,3.11798 0.71737,1.08685 1.6057,2.03342 2.38367,3.07463 0.10179,-0.50562 2.01341,3.35986 1.65533,2.36169 0.60376,0.7658 1.01502,1.66095 1.34886,2.54773 0.48525,0.98725 0.75636,1.3073 1.25418,2.36509 0.32685,1.12895 0.85133,2.15971 1.23805,3.27043 0.34172,1.0135 0.81506,1.9638 1.11255,3.00117 0.52867,0.88956 0.83464,2.0425 1.06646,3.09502 0.0301,0.18048 0.0561,0.36169 0.0903,0.54144 0.0324,0.17033 -0.20563,-0.652 -0.10773,-0.50889 0.39552,0.57824 0.60908,1.23765 0.81099,1.90058 0.61027,1.32958 1.21692,2.66624 1.75797,4.02915 0.83616,2.1059 1.89462,4.103 2.90183,6.12959 1.00162,2.26603 2.29883,4.37452 3.34254,6.62101 1.03009,2.05274 2.13302,4.07162 3.24975,6.07915 1.05336,1.84399 2.20448,3.60293 3.54536,5.24978 1.46103,1.92022 2.92171,3.83528 4.18636,5.89227 0.90411,1.7248 2.04722,3.2793 3.17766,4.85818 1.35251,1.73289 2.51578,3.60407 3.56682,5.53199 0.98727,1.49216 1.86939,3.04827 2.80124,4.57492 0.88304,1.41091 1.90292,2.7247 2.78565,4.13662 0.98493,1.61257 1.86492,3.28148 2.82439,4.9085 0.88549,1.3605 1.80072,2.69999 2.70717,4.04728 0.94727,1.39554 1.9204,2.77942 2.83435,4.19759 0.97117,1.49302 2.08606,2.88073 3.10932,4.33776 1.20414,1.61991 2.25766,3.34366 3.34795,5.04019 0.9061,1.42337 1.78956,2.87417 2.58495,4.36356 0.89446,1.10007 1.42279,2.42026 2.12297,3.63455 0.87361,1.62131 1.78855,3.21326 2.50277,4.91343 0.69164,1.80179 1.58726,3.49778 2.54973,5.16709 1.04544,1.87119 1.99982,3.79015 3.00885,5.68055 0.83889,1.44554 1.6628,2.90787 2.63148,4.27258 0.9116,1.36843 1.6555,2.83795 2.569,4.20402 0.9163,1.68733 2.2133,3.10416 3.2984,4.67849 0.8846,1.4425 1.9819,2.73107 2.9637,4.1028 0.659,1.07486 1.4097,2.08284 2.2409,3.02912 0.997,1.42414 2.1933,2.67511 3.2025,4.09136 0.8553,1.49358 2.0909,2.67467 3.0971,4.05133 0.9955,1.20192 1.8392,2.5136 2.639,3.85004 0.8329,1.52601 1.5301,3.12313 2.4638,4.59229 0.9543,1.69242 1.9665,3.34752 2.9602,5.01626 1.1497,1.77491 2.0389,3.69916 3.1566,5.49194 1.0626,1.78625 2.1612,3.55253 3.2781,5.30573 0.823,1.12988 1.4102,2.4158 2.1897,3.56829 0.7254,1.2969 1.5143,2.54608 2.3461,3.77708 0.7963,1.391 1.5901,2.77426 2.4409,4.1303 0.8873,1.27351 1.7682,2.54865 2.6401,3.83348 1.0924,1.37957 1.8773,2.95462 2.7536,4.46959 0.5278,1.14355 1.3397,2.11149 2.0857,3.11281 0.4377,0.68577 0.9258,1.33121 1.4428,1.9583 0.09,0.10776 0.1819,0.21454 0.2739,0.32096 -5.8855,0.46307 -2.6154,5.24828 -4.7764,3.11994 -0.4091,-0.37184 1.0174,0.4334 1.519,0.66575 -0.5804,-0.20882 -1.1608,-0.41764 -1.7412,-0.62645 -3.2259,-2.28803 0.01,-6.85027 3.2358,-4.56224 l 0,0 c -0.4759,-0.13471 -0.9518,-0.26942 -1.4277,-0.40413 0.8486,0.0166 1.7529,0.32179 2.3402,0.94338 1.5465,1.52493 3.5225,5.01149 -3.1811,4.74083 -0.1938,-0.20833 -0.3802,-0.42334 -0.5608,-0.64326 -0.5799,-0.70523 -1.1375,-1.42766 -1.6293,-2.19782 -0.8523,-1.18282 -1.812,-2.30788 -2.4308,-3.6419 -0.7996,-1.39912 -1.5222,-2.84791 -2.532,-4.11518 -0.9109,-1.34251 -1.8342,-2.67174 -2.7538,-4.00789 -0.8134,-1.3052 -1.6014,-2.6197 -2.3375,-3.97123 -0.8634,-1.28463 -1.694,-2.58681 -2.4502,-3.9373 -0.7159,-1.18327 -1.3881,-2.38928 -2.1688,-3.53523 -1.1241,-1.7752 -2.2402,-3.55645 -3.3135,-5.36231 -1.124,-1.82948 -2.0574,-3.76558 -3.2093,-5.57883 -0.966,-1.63423 -1.9656,-3.24634 -2.8919,-4.90411 -0.9358,-1.51181 -1.7149,-3.10499 -2.5219,-4.68739 -0.7261,-1.21401 -1.4955,-2.40025 -2.4042,-3.48971 -0.9365,-1.4223 -2.3146,-2.53967 -3.1138,-4.07509 -0.8648,-1.2722 -1.9956,-2.33021 -2.8347,-3.6216 -0.9519,-1.09571 -1.8402,-2.24367 -2.5983,-3.48399 -0.9715,-1.41283 -2.1363,-2.69461 -3.0147,-4.17649 -1.077,-1.60797 -2.43631,-3.01869 -3.34181,-4.74304 -0.87254,-1.3304 -1.63085,-2.72698 -2.47945,-4.07273 -1.08947,-1.56127 -2.0517,-3.20736 -2.99277,-4.86068 -0.97699,-1.83986 -1.91,-3.7023 -2.92204,-5.5236 -1.07713,-1.8825 -2.08442,-3.7968 -2.87064,-5.82134 -0.60486,-1.51445 -1.48217,-2.89181 -2.22663,-4.33865 -0.68926,-1.27618 -1.31242,-2.57731 -2.18491,-3.74977 -0.68094,-1.35956 -1.54229,-2.64243 -2.33704,-3.93623 -1.04281,-1.63317 -2.06024,-3.28642 -3.21581,-4.84331 -1.07097,-1.52495 -2.24345,-2.97417 -3.24841,-4.54551 -0.87155,-1.38947 -1.84487,-2.72105 -2.75891,-4.08242 -0.96871,-1.44018 -1.94964,-2.87008 -2.886,-4.33113 -0.93832,-1.59609 -1.80629,-3.22855 -2.76588,-4.81141 -0.86308,-1.43164 -1.93871,-2.72389 -2.79906,-4.1585 -0.98197,-1.60985 -1.92029,-3.24436 -2.94636,-4.82728 -0.92606,-1.73033 -1.98944,-3.38874 -3.19558,-4.93785 -1.20877,-1.68979 -2.42252,-3.36752 -3.40533,-5.20249 -1.11709,-1.85498 -2.46472,-3.54561 -3.7551,-5.28082 -1.53855,-1.90474 -2.87997,-3.92867 -4.09059,-6.05706 -1.1807,-2.13029 -2.3555,-4.26773 -3.4377,-6.44944 -1.00949,-2.20332 -2.31224,-4.25146 -3.27396,-6.47783 -1.07644,-2.16899 -2.20287,-4.3105 -3.09537,-6.56495 -0.59619,-1.52341 -1.33438,-2.98149 -1.92217,-4.50772 -0.19161,-0.72615 -0.88306,-1.48575 -0.90348,-2.37347 -0.1668,-0.97665 -0.61898,-1.86685 -0.99046,-2.77544 -0.20062,-0.94281 -0.81916,-1.73537 -1.01639,-2.68198 -0.28384,-0.94935 -0.81882,-1.81521 -1.04954,-2.7832 -0.26334,-0.82175 -0.91277,-1.4805 -1.22034,-2.28995 -0.39294,-0.9372 -0.19824,-0.72275 -0.708,-1.48323 -0.55645,-0.83021 -1.01173,-1.6799 -1.70264,-2.42442 -0.70737,-0.95885 -1.5389,-1.81943 -2.18484,-2.82256 -0.96719,-1.15736 -1.8574,-2.37188 -2.80244,-3.54637 -0.88017,-1.31515 -1.90753,-2.47782 -2.98568,-3.63401 -1.4085,-1.59647 -2.71387,-3.3091 -3.91539,-5.06332 -2.373,-3.16401 2.10157,-6.51994 4.47457,-3.35594 z"
         inkscape:connector-curvature="0" />
    </g>
    <path
       style="fill:#fee0d2;fill-opacity:1;stroke:none"
       id="path13688"
       d="m 827.79659,-9.5851468 c -0.12727,2.3093914 0.27051,4.5863729 0.54792,6.8695537 0.29496,1.93907691 0.88219,3.744194 1.66565,5.5291804 1.0433,2.105302 2.06324,4.2176711 2.98766,6.3794559 0.76685,1.8071788 1.81971,3.4551788 2.49733,5.2996978 0.74468,1.719668 1.1383,3.553513 1.6545,5.347695 0.40571,1.5618 0.67866,3.199251 1.37157,4.669561 0.69451,1.5675 1.34928,3.141033 1.78842,4.800857 0.44637,1.687479 1.12605,3.269943 1.9215,4.815278 0.67572,1.5262 1.6176,2.901904 2.29454,4.42936 0.60016,1.386134 1.65124,2.454235 2.44094,3.724347 1.0488,1.685074 2.17141,3.329903 3.33532,4.938694 1.33593,1.674312 2.88412,3.163807 4.22512,4.837562 1.48466,1.63661 2.52241,3.624522 3.50127,5.59055 0.71699,1.306519 1.51261,2.541894 2.57471,3.590841 1.30455,1.556177 2.69943,3.036167 3.97476,4.615864 1.30916,1.422868 2.43378,3.000263 3.54265,4.57973 1.00786,1.139535 1.94528,2.295922 2.74269,3.594079 1.04454,1.276863 1.9706,2.648152 3.02101,3.919221 1.26227,1.580473 2.35534,3.273884 3.19374,5.11417 0.73938,1.714953 1.47347,3.438586 2.12009,5.191832 0.59878,1.591774 1.32978,3.110203 2.14781,4.597131 0.67479,1.600797 1.58539,3.078848 2.31869,4.648623 0.68501,1.074494 1.70842,1.855916 2.48305,2.873544 0.82,1.62936 1.59056,3.2699 2.44163,4.88419 0.75844,1.33497 1.76443,2.4744 2.74386,3.64296 1.4118,1.54205 2.53249,3.27977 3.52654,5.11028 1.21133,2.41362 2.48974,4.75771 3.23658,7.36424 0.57694,1.56085 1.04057,3.1567 1.71464,4.68019 0.664,1.583 1.5871,3.0509 2.45856,4.52849 0.94348,1.64784 2.16946,3.08554 3.31996,4.58748 1.10942,1.7046 2.2712,3.37024 3.42535,5.04325 1.13131,1.35027 2.1953,2.75259 3.21276,4.19013 0.99647,1.48905 1.92742,3.01068 2.82839,4.55927 1.0064,1.57317 1.74156,3.31263 2.34683,5.07469 0.57057,1.26853 1.19859,2.53214 1.95812,3.7003 0.70249,1.15052 1.15874,2.46622 2.06536,3.48289 1.01636,1.42793 2.30042,2.61058 3.49242,3.88374 1.47068,1.53179 2.80341,3.1829 4.17802,4.79912 1.09643,1.39988 2.19894,2.7932 3.30186,4.18794 1.01767,1.06713 2.02766,2.12853 2.88168,3.335 0.97277,1.47851 1.59983,3.08134 2.20616,4.73033 0.59675,1.76541 1.34546,3.48067 2.17049,5.15108 0.87642,2.00972 1.73002,3.99279 2.84655,5.87957 1.20263,1.75631 2.45841,3.46307 3.4132,5.37139 0.83523,1.86035 1.77887,3.65859 2.80124,5.4229 1.15642,1.85555 2.36097,3.6782 3.55612,5.50907 1.15865,1.85458 2.13717,3.80861 3.16831,5.73399 0.92184,1.82837 1.53972,3.78674 2.52877,5.58183 0.74165,1.55339 1.82163,2.89397 2.86397,4.25057 1.42459,1.57454 2.71811,3.2058 3.84356,5.0072 1.18946,1.55695 2.57047,2.98194 4.06676,4.2454 1.56401,1.35336 2.90047,2.93633 4.17132,4.56081 1.1595,1.56152 1.95432,3.32928 2.81217,5.0619 0.88092,1.64372 1.7604,3.28992 2.58081,4.96514 0.95884,1.65079 2.39497,2.9409 3.62502,4.38081 1.31381,1.58837 2.46081,3.30461 3.7088,4.94456 0.90401,1.49926 2.12241,2.73993 3.25837,4.05318 1.39991,1.61567 2.75762,3.25332 3.92753,5.04498 1.01833,1.31907 1.92255,2.71115 2.88385,4.06788 0.89152,1.09035 1.46212,2.41892 2.33297,3.51674 1.02008,1.44364 2.12924,2.8182 3.18914,4.23143 0.9008,1.10729 1.9156,2.10668 2.8736,3.16173 1.3047,1.36987 1.9812,3.15643 2.7976,4.82838 1.0498,1.87838 2.4877,3.49847 3.78,5.21054 1.3316,1.83999 2.3841,3.84931 3.4707,5.8364 0.9232,1.88355 1.9707,3.71213 3.136,5.45659 1.0365,1.90794 2.3578,3.5537 3.7769,5.17963 1.4031,1.60044 2.6524,3.32417 4.0425,4.93806 1.6112,1.70843 3.1214,3.50859 4.7695,5.18123 1.5973,1.8538 2.693,4.04301 3.8418,6.18288 0.7782,1.74504 1.8903,3.30166 2.9161,4.90277 1.2599,1.83873 2.1833,3.85409 3.5899,5.5896 1.4245,1.73446 2.7154,3.52766 3.8325,5.47305 1.1183,1.78575 2.0154,3.69652 3.2775,5.39037 1.2439,1.43128 2.3512,2.97368 3.446,4.51947 1.2231,1.57181 2.0689,3.35793 2.8928,5.15562 0.9664,1.77718 1.8332,3.60796 2.903,5.32663 0.8392,1.70794 2.0928,3.11529 3.3076,4.55339 1.3044,1.38264 2.3029,2.9871 3.2783,4.60733 0.8482,1.43501 1.7201,2.85284 2.7105,4.19629 1.3147,1.31127 2.4434,2.78851 3.6668,4.17929 1.157,1.45008 2.1791,2.99299 2.8219,4.73762 0.3975,1.15288 1.1117,2.08679 1.8308,3.04701 0.3513,0.63413 0.7799,1.21168 1.1681,1.82249 1.4074,2.22966 -1.7458,4.21996 -3.1532,1.9903 l 0,0 c -0.3315,-0.53018 -0.718,-1.02442 -1.0029,-1.582 -0.9382,-1.2613 -1.8347,-2.53141 -2.358,-4.03393 -0.4324,-1.31812 -1.3001,-2.42299 -2.1147,-3.52809 -1.2844,-1.47819 -2.5078,-3.01008 -3.865,-4.42661 -1.053,-1.44045 -1.9964,-2.95063 -2.9027,-4.48556 -0.8675,-1.45575 -1.7556,-2.88807 -2.9315,-4.12156 -1.3265,-1.57916 -2.6954,-3.13231 -3.6271,-4.9943 -1.1421,-1.8558 -2.0988,-3.81317 -3.1221,-5.7357 -0.7274,-1.58934 -1.4563,-3.17596 -2.5497,-4.5589 -1.076,-1.5329 -2.1858,-3.04512 -3.4079,-4.46649 -1.3175,-1.82344 -2.3418,-3.8141 -3.5022,-5.73609 -1.0208,-1.77839 -2.2017,-3.41173 -3.5074,-4.99647 -1.4756,-1.85456 -2.5254,-3.94115 -3.8238,-5.91553 -1.0715,-1.68338 -2.2389,-3.31731 -3.0594,-5.14701 -0.9812,-1.82974 -1.907,-3.70289 -3.2142,-5.33094 -1.7035,-1.73422 -3.2742,-3.59112 -4.9377,-5.36396 -1.3832,-1.6088 -2.6337,-3.32067 -4.0258,-4.9188 -1.5228,-1.74585 -2.9452,-3.53071 -4.0718,-5.56582 -1.2185,-1.83841 -2.3348,-3.7522 -3.3037,-5.73397 -0.9981,-1.82815 -1.9601,-3.67863 -3.1745,-5.37778 -1.4368,-1.90345 -3.037,-3.70506 -4.1563,-5.82443 -0.6612,-1.36106 -1.1817,-2.84138 -2.2199,-3.96999 -1.016,-1.15097 -2.13677,-2.20823 -3.08598,-3.42077 -1.05407,-1.41686 -2.17192,-2.78417 -3.18801,-4.22999 -0.85257,-1.17636 -1.50801,-2.47474 -2.4077,-3.6203 -0.96557,-1.40487 -1.92854,-2.80327 -2.95276,-4.17048 -1.06502,-1.66107 -2.3485,-3.14567 -3.62751,-4.64373 -1.17077,-1.37832 -2.45735,-2.66295 -3.39787,-4.22586 -1.20456,-1.58773 -2.3182,-3.24391 -3.58097,-4.78554 -1.42209,-1.68356 -3.1077,-3.17506 -4.13465,-5.15989 -0.81311,-1.67189 -1.69916,-3.30777 -2.5726,-4.94844 -0.7436,-1.50677 -1.42313,-3.04529 -2.4069,-4.41745 -1.1171,-1.42929 -2.2811,-2.82874 -3.65483,-4.02164 -1.77208,-1.52549 -3.43982,-3.20509 -4.80883,-5.10672 -1.06096,-1.70058 -2.30228,-3.21528 -3.6379,-4.71075 -1.15999,-1.51104 -2.34701,-3.01686 -3.18247,-4.74046 -0.97593,-1.81308 -1.66523,-3.74486 -2.5411,-5.60468 -0.97803,-1.83119 -1.90897,-3.68752 -3.00283,-5.45456 -1.23136,-1.88726 -2.47286,-3.76587 -3.6615,-5.68049 -1.06018,-1.83716 -2.04724,-3.70717 -2.91803,-5.64131 -0.88544,-1.83609 -2.1795,-3.41234 -3.27753,-5.12068 -1.16591,-1.97079 -2.08182,-4.03151 -2.98421,-6.13431 -0.87627,-1.7921 -1.68658,-3.62391 -2.32577,-5.51475 -0.49251,-1.35363 -0.96458,-2.67371 -1.76862,-3.88643 -0.78045,-1.16561 -1.83076,-2.10002 -2.74788,-3.1539 -1.06623,-1.36462 -2.15312,-2.71279 -3.21424,-4.08071 -1.33188,-1.57365 -2.63115,-3.17362 -4.05743,-4.66383 -1.24387,-1.32976 -2.58178,-2.57072 -3.64604,-4.05851 -0.95043,-1.19655 -1.65492,-2.5281 -2.3524,-3.88164 -0.87482,-1.43549 -1.69807,-2.91425 -2.32608,-4.47681 -0.51201,-1.5345 -1.16524,-3.0397 -2.04155,-4.40233 -0.83986,-1.4548 -1.71212,-2.87928 -2.64612,-4.27533 -1.02694,-1.45101 -2.11155,-2.85589 -3.24043,-4.22976 -1.11514,-1.62341 -2.25375,-3.22902 -3.31421,-4.89027 -1.24188,-1.62124 -2.55254,-3.18572 -3.57303,-4.96308 -0.94538,-1.60808 -1.94134,-3.20647 -2.66301,-4.92924 -0.72748,-1.68538 -1.27462,-3.43172 -1.88628,-5.16095 -0.64563,-2.3486 -1.87656,-4.41954 -2.92785,-6.60211 -0.86876,-1.61747 -1.85988,-3.14044 -3.10984,-4.49487 -1.13855,-1.37454 -2.31111,-2.7185 -3.17919,-4.29328 -0.76574,-1.45549 -1.52813,-2.90555 -2.15665,-4.42671 -0.82262,-1.25733 -2.30759,-2.03245 -2.85579,-3.509004 -0.67547,-1.497341 -1.58339,-2.8818 -2.19885,-4.411062 -0.90944,-1.653458 -1.71643,-3.347066 -2.38321,-5.115156 -0.60385,-1.674678 -1.3211,-3.312379 -2.02102,-4.947688 -0.67723,-1.552306 -1.64025,-2.944752 -2.67775,-4.278126 -1.14314,-1.411051 -2.19891,-2.891379 -3.31132,-4.327756 -0.75756,-1.234797 -1.68668,-2.300422 -2.62126,-3.408837 -1.0545,-1.517173 -2.14288,-3.018022 -3.39417,-4.381629 -1.18169,-1.482533 -2.50836,-2.844489 -3.70578,-4.31559 -1.33245,-1.348251 -2.38689,-2.895973 -3.27693,-4.569681 -0.85473,-1.734691 -1.76109,-3.494085 -3.07894,-4.925649 -1.36167,-1.729783 -2.99924,-3.220358 -4.32928,-4.97497 -1.21889,-1.690508 -2.39889,-3.415418 -3.49866,-5.184857 -0.8361,-1.427504 -2.08324,-2.590083 -2.67395,-4.173829 -0.61878,-1.462358 -1.58305,-2.741462 -2.19065,-4.210304 -0.92134,-1.790049 -1.69574,-3.633294 -2.21521,-5.584593 -0.37308,-1.474162 -0.99445,-2.853902 -1.5966,-4.246018 -0.69162,-1.651207 -1.15924,-3.382968 -1.53776,-5.130697 -0.49408,-1.717638 -0.86568,-3.473706 -1.58068,-5.119076 -0.61751,-1.783402 -1.73882,-3.333061 -2.41726,-5.095682 -0.91625,-2.152021 -1.94177,-4.2470097 -2.97267,-6.3448172 -0.9291,-2.1183254 -1.60751,-4.2812096 -1.95267,-6.5778275 -0.29514,-2.4316915 -0.70284,-4.8598279 -0.57511,-7.3190781 0,-2.6366692 3.72881,-2.6366692 3.72881,0 z"
       inkscape:connector-curvature="0" />
    <path
       style="fill:#fee0d2;fill-opacity:1;stroke:none"
       id="path13690"
       d="m 1075.9972,388.19107 c 2.489,2.20599 4.9716,4.41806 7.2946,6.79988 1.4228,1.46227 2.771,2.99723 4.3045,4.3457 1.4508,1.29169 2.6906,2.73498 3.7968,4.32702 1.1475,1.75732 2.1624,3.57927 2.9404,5.53148 0.6828,1.53685 1.3415,3.04072 2.2589,4.45418 1.1326,1.91167 2.4256,3.71794 3.5462,5.63723 1.1808,1.9183 2.6039,3.69713 4.0548,5.41958 1.6541,1.79605 3.1692,3.71219 4.5956,5.69174 1.5042,1.72993 2.6078,3.72031 3.8182,5.65085 1.0146,1.86979 2.1794,3.65367 3.679,5.16892 1.7709,1.6047 3.5643,3.18309 5.3108,4.81475 1.7237,1.80837 3.6775,3.36301 5.4981,5.06383 1.5821,1.44213 3.0231,2.97345 4.2848,4.70349 0.9314,1.75531 2.176,3.26994 3.4256,4.79945 1.3032,1.40175 2.8813,2.47593 4.4054,3.61384 2.0293,1.54118 3.8813,3.29514 5.7157,5.05867 1.8128,1.46574 3.3983,3.16429 4.836,4.9917 1.2028,1.67784 2.5392,3.24635 3.8014,4.87932 1.2758,1.63079 2.9168,2.93381 4.4407,4.32428 1.9033,1.74726 3.7457,3.55892 5.5834,5.37457 1.8883,1.49153 3.6187,3.12386 5.2448,4.89455 1.4128,1.85845 2.836,3.7009 4.3789,5.45412 1.8965,1.96889 3.6071,4.1014 5.3938,6.16785 1.6036,1.9522 3.6495,3.45194 5.5563,5.08249 1.9853,1.65433 3.659,3.59934 5.2926,5.58781 1.1473,1.73961 2.4536,3.33764 4.0643,4.66517 1.2081,0.9212 2.3841,1.88131 3.5423,2.86413 2.0098,1.70667 -0.4038,4.54896 -2.4136,2.8423 l 0,0 c -1.1519,-0.97886 -2.3256,-1.9297 -3.5252,-2.84968 -1.7619,-1.49692 -3.2975,-3.20463 -4.5491,-5.155 -1.4961,-1.82122 -3.0153,-3.61173 -4.8381,-5.1237 -2.0433,-1.75638 -4.2361,-3.36991 -5.9504,-5.47493 -1.7796,-2.05893 -3.4835,-4.18307 -5.3732,-6.14418 -1.5235,-1.73405 -2.954,-3.53862 -4.3258,-5.39498 -1.5853,-1.72816 -3.2884,-3.29381 -5.1184,-4.7635 -1.8025,-1.78097 -3.6094,-3.55834 -5.4759,-5.27253 -1.683,-1.53578 -3.4837,-2.9828 -4.8777,-4.79848 -1.2559,-1.62505 -2.5822,-3.18963 -3.7832,-4.85597 -1.3291,-1.69426 -2.808,-3.25177 -4.4884,-4.60748 -1.7227,-1.65676 -3.459,-3.30795 -5.3624,-4.75897 -1.7663,-1.31964 -3.5876,-2.58172 -5.0621,-4.24257 -1.2906,-1.58041 -2.5947,-3.1478 -3.5519,-4.96307 -1.1226,-1.54368 -2.4091,-2.89861 -3.8244,-4.18166 -1.8055,-1.70969 -3.7769,-3.24331 -5.49,-5.05632 -1.7903,-1.67301 -3.6358,-3.28336 -5.4396,-4.94108 -1.6566,-1.72844 -3.0431,-3.67111 -4.1655,-5.78934 -1.1648,-1.86506 -2.2234,-3.78422 -3.6826,-5.44894 -1.3726,-1.90555 -2.8331,-3.74741 -4.4268,-5.47484 -1.5814,-1.89148 -3.1406,-3.83358 -4.422,-5.94233 -1.0841,-1.87495 -2.3631,-3.62376 -3.4575,-5.4924 -1.0392,-1.62434 -1.8245,-3.34314 -2.5936,-5.10748 -0.6546,-1.69155 -1.5552,-3.24907 -2.5336,-4.77032 -0.934,-1.34646 -1.9648,-2.56948 -3.1998,-3.65658 -1.602,-1.41559 -3.0272,-3.0072 -4.5115,-4.54291 -2.3042,-2.37661 -4.7966,-4.55275 -7.2583,-6.76299 -1.8644,-1.86441 0.7723,-4.50108 2.6367,-2.63667 z"
       inkscape:connector-curvature="0" />
    <path
       style="fill:#fee0d2;fill-opacity:1;stroke:none"
       id="path2989"
       d="m 1074.7336,857.06657 c -2.1863,-2.76373 -4.0526,-5.75332 -5.7998,-8.80794 -1.3699,-2.42027 -2.8404,-4.76092 -4.4891,-6.99666 -0.709,-0.83057 -1.5845,-1.51368 -2.4747,-2.14221 -1.8328,-1.31675 0.029,-3.90865 1.8621,-2.59191 l 0,0 c 1.1491,0.8359 2.2905,1.72239 3.1813,2.84007 1.7222,2.33594 3.2604,4.78033 4.6917,7.30787 1.6506,2.89455 3.4183,5.72483 5.4803,8.34764 1.4447,1.73366 -1.0071,3.7768 -2.4518,2.04314 z"
       inkscape:connector-curvature="0" />
    <path
       style="fill:#fee0d2;fill-opacity:1;stroke:none"
       id="path2991"
       d="m 1048.6175,817.49668 c 1.4254,2.63164 3.0228,5.14528 4.7518,7.58379 1.6044,2.00607 3.0464,4.11705 4.409,6.29191 0.9268,1.97 2.0121,3.82573 3.1977,5.65109 1.1061,1.72091 2.3803,3.30784 3.6485,4.90722 1.115,1.11605 2.5031,1.9017 3.6963,2.9327 1.1811,1.37344 2.3003,2.79304 3.3969,4.23436 1.1292,1.55653 2.3485,3.03697 3.5514,4.53554 0.9104,1.43339 1.808,2.84541 3.0168,4.04335 1.8812,1.74986 3.7517,3.51066 5.5993,5.29603 1.5681,1.72323 3.1858,3.39642 4.6817,5.18348 1.3339,1.69421 2.2223,3.65072 3.1796,5.56562 0.8513,1.66863 1.8234,3.26431 2.9288,4.77764 1.3274,1.82502 -1.2535,3.70232 -2.581,1.8773 l 0,0 c -1.2028,-1.65965 -2.2734,-3.40286 -3.2033,-5.22948 -0.8446,-1.69448 -1.6179,-3.42768 -2.7719,-4.94314 -1.4229,-1.70163 -2.9653,-3.29078 -4.4517,-4.93641 -1.8607,-1.79816 -3.7463,-3.56951 -5.6384,-5.33449 -1.281,-1.29062 -2.3195,-2.74797 -3.2526,-4.30682 -1.2124,-1.52329 -2.4545,-3.01954 -3.5987,-4.59616 -0.9704,-1.27552 -1.9753,-2.51812 -2.9688,-3.77402 -1.3005,-1.18623 -2.9539,-1.96599 -4.0879,-3.34608 -1.3249,-1.68104 -2.6629,-3.3454 -3.8225,-5.14985 -1.1911,-1.83855 -2.305,-3.70475 -3.2247,-5.69346 -1.3305,-2.12361 -2.7407,-4.18168 -4.308,-6.14039 -1.8231,-2.57135 -3.5052,-5.22519 -5.0028,-8.00245 -1.0092,-2.01847 1.8453,-3.44575 2.8545,-1.42728 z"
       inkscape:connector-curvature="0" />
    <path
       style="fill:#fee0d2;fill-opacity:1;stroke:none"
       id="path2993"
       d="m 1097.6084,875.24052 c 3.9051,2.4432 7.7112,5.01122 11.187,8.03988 3.1538,3.1487 5.8707,6.6982 8.6714,10.15739 1.9901,1.85038 3.1605,4.70972 5.4632,6.22392 -1.7014,-0.58637 -0.5672,-0.50835 -2.3586,1.64208 -0.084,0.10062 -2.253,-1.9153 -2.3538,-2.00556 -2.191,-2.10065 -4.5798,-3.97441 -6.8842,-5.94642 -2.1898,-2.01584 -4.481,-3.92015 -6.6146,-5.99534 -1.5713,-1.64275 -2.9077,-3.4464 -4.1312,-5.35543 -1.2555,-1.73833 -2.979,-2.99503 -4.6448,-4.30332 -1.5415,-1.23272 -2.7213,-2.92463 -4.5236,-3.79029 -1.4938,-0.69979 -2.4477,-2.01356 -3.3387,-3.34332 -1.2418,-1.88434 1.423,-3.64052 2.6648,-1.75619 l 0,0 c 0.5751,0.89443 1.1422,1.78949 2.1296,2.25935 1.9562,1.04059 3.4268,2.62461 5.0391,4.12048 1.9463,1.5286 3.9332,3.03052 5.3607,5.09127 1.092,1.70419 2.2708,3.32033 3.6706,4.79089 2.0822,2.03006 4.3271,3.88413 6.4634,5.85726 2.322,1.98777 4.7293,3.87677 6.9379,5.99344 0.338,0.30268 3.1557,2.71254 3.1135,3.02628 -0.1265,0.94004 -0.4915,1.93221 -1.172,2.59293 -0.2972,0.28853 -0.8072,-0.1863 -1.2108,-0.27945 -2.469,-1.82806 -4.0139,-4.59233 -6.0909,-6.81432 -2.686,-3.3176 -5.2939,-6.71767 -8.2914,-9.76274 -3.3382,-2.92791 -7.0246,-5.37401 -10.778,-7.73641 -1.9137,-1.19606 -0.2223,-3.90244 1.6914,-2.70638 z"
       inkscape:connector-curvature="0" />
  </g>
</svg>
