<?xml version="1.0" encoding="UTF-8" standalone="no"?>
<!-- Created with Inkscape (http://www.inkscape.org/) -->

<svg
   xmlns:dc="http://purl.org/dc/elements/1.1/"
   xmlns:cc="http://creativecommons.org/ns#"
   xmlns:rdf="http://www.w3.org/1999/02/22-rdf-syntax-ns#"
   xmlns:svg="http://www.w3.org/2000/svg"
   xmlns="http://www.w3.org/2000/svg"
   xmlns:xlink="http://www.w3.org/1999/xlink"
   xmlns:sodipodi="http://sodipodi.sourceforge.net/DTD/sodipodi-0.dtd"
   xmlns:inkscape="http://www.inkscape.org/namespaces/inkscape"
   id="svg2"
   version="1.1"
   inkscape:version="0.48.4 r9939"
   width="279"
   height="436"
   sodipodi:docname="44491-44.svg">
  <metadata
     id="metadata8">
    <rdf:RDF>
      <cc:Work
         rdf:about="">
        <dc:format>image/svg+xml</dc:format>
        <dc:type
           rdf:resource="http://purl.org/dc/dcmitype/StillImage" />
        <dc:title />
      </cc:Work>
    </rdf:RDF>
  </metadata>
  <defs
     id="defs6" />
  <sodipodi:namedview
     pagecolor="#ffffff"
     bordercolor="#666666"
     borderopacity="1"
     objecttolerance="10"
     gridtolerance="10"
     guidetolerance="10"
     inkscape:pageopacity="0"
     inkscape:pageshadow="2"
     inkscape:window-width="1280"
     inkscape:window-height="732"
     id="namedview4"
     showgrid="false"
     inkscape:zoom="2.1651376"
     inkscape:cx="220.065"
     inkscape:cy="182.16638"
     inkscape:window-x="-8"
     inkscape:window-y="-8"
     inkscape:window-maximized="1"
     inkscape:current-layer="layer2" />
  <image
     width="279"
     height="436"
     xlink:href="file:///tmp/broken-interfaces/phone_cropped_display/44491-44.png"
     id="image10"
     x="0"
     y="0" />
  <g
     inkscape:groupmode="layer"
     id="layer1"
     inkscape:label="Layer" />
  <g
     inkscape:groupmode="layer"
     id="layer2"
     inkscape:label="Layer#1">
    <path
       style="fill:#de2d26;fill-opacity:1;stroke:none"
       id="path15939"
       d="M 6.9085955,0.2882997 C 7.1040646,1.3584072 7.3102114,2.2380353 7.5492397,3.2759438 7.8813806,4.1976904 6.5778341,4.6674086 6.2456932,3.7456621 l 0,0 C 5.9018026,2.6987548 5.8304254,1.5753161 5.5418547,0.51608982 5.3807828,-0.45034183 6.7475235,-0.67813195 6.9085955,0.2882997 z"
       inkscape:connector-curvature="0" />
    <path
       style="fill:#de2d26;fill-opacity:1;stroke:none"
       id="path15941"
       d="m 7.7788387,4.6970813 c 0.9768385,1.3485202 -1.3591204,0.029004 -1.2299639,0.4454895 0.1647597,0.5312931 1.1447489,0.2900199 1.5106698,0.7089709 0.2737045,0.3133705 0.1407477,0.8206528 0.186535,1.234197 0.024171,0.2183067 0.2103762,0.5438827 0.023025,0.6585198 C 7.8661844,7.9907991 7.3326319,7.8688657 6.8643954,7.9311692 6.2913135,5.9066777 5.8328964,3.8342868 5.6264514,1.7383273 6.082362,1.9348047 5.3394828,0.94239559 5.6119509,0.9177007 6.108416,0.87270403 6.6544185,0.84283319 7.1000562,1.0662371 7.2735152,1.1531943 7.638666,3.5258938 7.6731247,3.7482378 7.9694271,6.3222522 7.9922269,8.9141971 8.2014805,11.495302 8.3704637,12.838245 8.3423763,14.203727 8.5149881,15.54565 8.0407027,15.584945 7.5466414,15.804643 7.0921319,15.663534 6.8970444,15.602966 6.9971687,15.265808 6.9642587,15.064203 6.7726034,13.890133 6.7793173,12.676796 6.7436642,11.49143 6.7409385,9.7413406 6.5652897,7.9681414 6.9172483,6.2397179 7.012526,6.0945573 7.0298886,5.7918376 7.2030813,5.8042361 c 0.4334612,0.03103 0.8654384,0.2476954 1.1862252,0.540863 0.1779562,0.1626344 0.094992,2.8821037 0.083092,3.1755258 -0.060659,1.8923521 -0.3696917,3.7593061 -0.6190995,5.6321321 -0.028994,1.005063 -1.1580169,2.640203 -1.9048327,0.91599 -0.075623,-0.174595 -0.021803,-0.379914 -0.032705,-0.569871 0.104628,-1.394365 0.2017123,-2.784968 0.4005847,-4.169495 0.03319,-0.229 0.064822,-0.458232 0.099569,-0.687001 0.015826,-0.104199 0.097987,-0.6921294 0.1639072,-0.8588044 0.0227,-0.057395 -0.080622,0.1638306 -0.022229,0.1838222 0.4249487,0.1454862 0.9289684,0.043619 1.3219417,0.2611502 0.123131,0.06816 -0.078429,0.270327 -0.117644,0.40549 -0.3170938,1.565167 -0.5985954,3.135982 -0.95909,4.693078 -0.2753173,0.710118 -0.1876139,1.550404 -0.4733412,2.255315 -0.050277,0.124037 -0.064991,0.364527 -0.1979637,0.349324 -0.4447207,-0.05085 -0.8271132,-0.342536 -1.2406697,-0.513804 -0.07414,-1.359996 -0.050165,-2.724262 -0.048458,-4.085968 -0.066515,-0.99723 -0.4968033,-0.995566 0.8709139,-0.490556 0.049783,0.01838 -0.028753,0.333912 -0.080434,0.609795 -0.4774708,1.80417 -0.7632838,3.641837 -1.0866701,5.476903 -0.1526997,0.790452 -0.2824861,1.584677 -0.4043343,2.380322 -0.084197,0.54979 -0.1347726,0.999364 -0.061843,0.749444 -0.4176888,-0.109205 -0.8886189,-0.09617 -1.2530664,-0.327614 -0.045544,-0.02892 0.5402272,-3.514473 0.5853739,-3.770144 0.1232931,-0.769142 0.2415644,-1.533771 0.4112699,-2.293905 0.066065,-0.295915 0.1295686,-0.628239 0.1764181,-0.624761 0.4603519,0.03417 0.8944856,0.228609 1.3417283,0.342914 0.067634,1.992851 -0.1144637,3.982296 -0.2252274,5.970454 -0.2008359,3.151206 -0.3910554,6.293229 -0.3768238,9.451967 -0.032747,1.29257 0.6458219,2.259338 -1.3120207,1.50663 -0.1133265,-0.04357 0.007,-0.242729 0.00937,-0.364119 0.00389,-0.198632 0.00628,-0.39729 0.00941,-0.595935 0.016011,-1.501797 0.016991,-3.003701 0.018145,-4.505567 0.015843,-0.933883 -0.3113353,-1.467621 1.3855551,-0.70958 0.1346047,0.06013 -9.99e-5,0.29485 -1.326e-4,0.442276 -5.08e-5,0.229345 -7.86e-5,0.45869 -1.179e-4,0.688036 0.00123,2.573251 -0.2945425,5.138394 -0.6044737,7.68974 -0.3540946,2.794296 -0.6949107,5.592345 -1.1904079,8.365703 -0.2225957,1.069916 -0.4667353,2.067186 -1.6838259,0.441368 -0.080655,-0.107741 0.073893,-2.045336 0.08532,-2.26736 0.013303,-0.261302 0.026129,-0.522629 0.03991,-0.783906 0.013916,-0.263834 0.039956,-0.760911 0.062634,-1.052633 0.00598,-0.07693 -0.054237,-0.234253 0.022829,-0.230365 1.5734673,0.07939 1.3907703,-0.07426 1.413458,0.85409 0.075763,2.196909 -0.1393386,4.385488 -0.4622532,6.555305 -0.3672909,2.000166 -0.5568657,4.099659 -1.4422702,5.956949 -2.1934301,2.119885 -1.60340034,-2.720356 -1.56608175,-3.370869 0.24521112,-1.814407 0.30009501,-3.665624 0.7539428,-5.444905 0.175599,-0.785121 0.27706368,-0.988573 1.44752255,0.113137 0.00646,0.0061 -0.04329,1.857375 -0.051617,2.275918 -0.081222,2.066376 -0.2222303,4.118684 -0.1804567,6.1885 0.015876,1.115438 0.3476274,1.952577 -1.3754679,1.696503 -0.15529417,-0.02308 -0.41064103,-0.761445 -0.44983707,-0.861193 -0.34085331,-0.91856 0.95818735,-1.4006 1.29904066,-0.482039 l 0,0 c 0.20421321,0.617896 0.13437821,0.36646 -0.89840513,0.78999 -0.0244361,0.01002 0.0291148,-0.04592 0.03295859,-0.07205 0.0174056,-0.118322 0.0294985,-0.237917 0.0302316,-0.357509 0.001402,-0.228773 -0.0158902,-0.457277 -0.0238354,-0.685916 -0.04162688,-2.088218 0.09619,-4.159348 0.18045239,-6.243854 0.0132749,-0.666859 0.007073,-2.247168 0.0514104,-2.262009 1.65358503,-0.553489 1.34847253,-0.151742 1.27949573,0.24732 -0.443367,1.687833 -0.4605433,3.456501 -0.71211841,5.177503 -0.008085,0.140805 -0.10945554,2.527548 -0.14672619,2.534408 -0.98352363,0.181018 -0.72320391,-0.293772 -0.91580499,0.149526 0.86041562,-1.706758 0.93144446,-3.714621 1.31717049,-5.554063 0.313446,-2.091266 0.5204063,-4.201043 0.4474249,-6.318672 -0.018922,-0.877915 -0.1745999,-0.660084 1.3503612,-0.746983 0.061174,-0.0035 -0.014112,0.12176 -0.01886,0.182849 -0.022488,0.289363 -0.047607,0.770064 -0.061397,1.031515 -0.013794,0.261541 -0.026634,0.523131 -0.03995,0.784696 -0.029682,0.576337 -0.061266,2.05033 -0.090101,2.060902 -0.3396102,0.124515 -0.7215895,-0.176465 -1.0786497,-0.118609 -0.1231781,0.01996 -0.395321,1.605435 0.019518,-0.431329 0.4913291,-2.74788 0.8275982,-5.520537 1.1789233,-8.28916 0.3037628,-2.495847 0.5946831,-5.005441 0.5943432,-7.522734 6.45e-5,-0.376101 1.759e-4,-1.131061 2.509e-4,-1.131095 1.6977706,-0.760118 1.3703732,-0.222993 1.3856306,0.711667 -0.00116,1.508865 -0.00214,3.017769 -0.01832,4.526564 -0.0055,0.342944 -0.014775,1.076785 -0.026086,1.08172 C 2.8220542,33.322727 3.4300641,32.0038 3.3540941,30.812959 3.3401262,27.626482 3.5299364,24.456571 3.7330504,21.277747 3.8389334,19.377877 4.0037007,17.479 3.9692589,15.574659 c 0.430981,0.009 1.3974139,-0.413585 1.2932181,0.0047 -0.2154001,0.864722 -0.3429095,1.742821 -0.4856878,2.621724 -0.1921496,1.088007 -0.3637764,2.1763 -0.5251578,3.269089 -0.029872,0.202274 0.089742,0.498969 -0.083416,0.607707 -0.4138868,0.259909 -0.9507699,0.226839 -1.4261549,0.340259 -0.23377,-1.235698 0.3303788,-2.507056 0.4396108,-3.730835 0.3264898,-1.847174 0.6139042,-3.697562 1.0937231,-5.513919 0.027477,-0.126709 0.2034101,-1.186559 0.4246064,-1.277022 1.5257945,-0.624006 1.4355302,0.484494 1.5279591,1.437349 -0.00161,1.280938 -0.012042,2.562477 0.027292,3.842958 -0.3919172,-0.04889 -0.7817014,-0.173408 -1.1757516,-0.146684 -0.084135,0.0057 -0.052672,0.30399 -0.098331,0.233092 -0.024255,-0.03766 0.4558183,-2.095225 0.4717534,-2.248535 0.3665139,-1.58264 0.6449396,-3.180745 0.9790102,-4.769202 0.2101555,-0.7128827 0.071899,-0.6373271 1.5039679,-0.4198567 0.096083,0.014591 0.00151,0.1949847 -0.011159,0.2913407 -0.032024,0.24365 -0.1006613,0.481329 -0.1375607,0.724289 -0.034672,0.228291 -0.066241,0.457043 -0.099361,0.685565 -0.1903522,1.320984 -0.2797597,2.647228 -0.3864736,3.977132 -0.091558,0.354494 0.069365,-0.08834 -0.3900435,-0.07478 -0.8341376,0.02461 -0.7141505,0.57135 -0.5531581,0.03901 0.04949,-0.163645 0.081129,-0.332165 0.1216932,-0.498248 0.2440334,-1.83151 0.5484494,-3.656968 0.6081992,-5.5075834 0.045954,-1.044505 0.053457,-0.7326498 0.017727,-1.7438437 C 7.0981782,7.5037001 7.0866551,7.2891784 7.0754577,7.0746616 7.0691491,6.9538017 6.935179,6.7388559 7.0532469,6.7122682 8.454705,6.3966732 7.9029603,7.3090218 8.2729089,6.5261667 7.9143715,8.1385699 8.1621682,9.8164713 8.1286343,11.44988 c 0.027608,0.922691 0.047234,1.846828 0.1297964,2.76678 0.017681,0.197009 0.042541,0.393326 0.067197,0.589584 0.013929,0.110873 0.1372076,0.263689 0.048543,0.3317 C 8.0137159,15.414434 7.55131,15.523169 7.1398795,15.715782 6.9758652,14.352574 6.9804157,12.97126 6.8204115,11.60718 6.6141465,9.0590356 6.5871792,6.5008136 6.3036525,3.9589851 6.1861918,3.1898255 6.1593636,2.8894494 5.9822367,2.1617546 5.935134,1.9682418 5.6868118,1.7390303 5.8163553,1.5877545 6.1043494,1.2514463 6.5824818,1.1352455 6.9962474,0.97763253 7.1917537,0.90315966 6.3808394,2.1939006 7.0056337,1.6051929 7.1840792,3.4970817 7.6516571,5.3397322 8.0386018,7.1955688 7.6537408,7.3909609 7.3141516,7.7459424 6.8840188,7.7817452 6.7214246,7.795279 6.8940247,7.454497 6.8759761,7.2923419 6.8317303,6.8948241 6.5110457,6.459643 6.6974749,6.1057754 6.9256491,5.6726702 8.0701773,5.7679285 7.9254643,5.3002729 7.7855398,4.8480916 6.9885606,5.6868407 6.5306961,5.5668117 6.3129459,5.5097285 6.4492822,5.1240178 6.4085752,4.9026209 6.2632368,3.9336982 7.6335003,3.7281587 7.7788387,4.6970813 z"
       inkscape:connector-curvature="0" />
    <path
       style="fill:#de2d26;fill-opacity:1;stroke:none"
       id="path15943"
       d="m -0.61947735,11.332961 c 1.5079154,1.821711 3.05005945,3.614345 4.57880685,5.419322 0.6688631,1.023238 2.0446521,1.850851 2.4684686,2.999669 -0.3890045,0.198833 -0.741625,0.496982 -1.1670135,0.596501 C 5.1285663,20.379385 5.0380399,20.191867 4.9374933,20.100604 4.172989,19.406692 3.5451349,18.539886 2.8872575,17.750508 c -1.4999447,-1.725234 -2.79397067,-3.62386 -4.0545914,-5.52827 -0.516967,-0.802525 -1.663617,-1.744442 0.50188882,-1.852052 0.0886998,-0.0044 0.79201087,0.896279 1.0077616,1.164192 1.29388368,1.70545 2.43359238,3.519706 3.66360678,5.270369 0.3890986,0.603447 0.8124091,1.18187 1.2194067,1.772865 0.2067667,0.300243 0.2807351,0.360316 0.2650902,0.366263 C 5.0667083,19.104931 4.6162256,19.184016 4.1791283,19.304086 3.3192005,17.691032 2.4618279,16.075961 1.5909099,14.468445 1.2069101,13.714154 0.80423826,12.964682 0.3563348,12.245719 0.29803493,12.152137 0.23134875,12.064011 0.16624193,11.975031 c -0.016559,-0.02263 -0.08159991,-0.0559 -0.0547222,-0.0639 0.44466531,-0.132292 0.90258296,-0.215076 1.35387446,-0.322615 0.6466907,1.414766 1.4275244,2.755719 2.2044784,4.100449 0.3019493,0.539312 0.6661064,1.041237 1.0276775,1.541478 0.054481,0.07538 0.2663791,0.206261 0.1741206,0.218013 C 4.7660571,17.461914 4.7109288,17.308807 4.6305578,17.238981 4.3574007,17.362058 4.0842436,17.485135 3.8110865,17.608213 3.3101192,16.584791 2.8479215,15.501018 2.3499541,14.461433 2.2469723,14.235805 2.1466694,14.008935 2.0410088,13.784548 1.9629638,13.618808 1.8855584,13.452564 1.7988902,13.291166 1.6346762,12.985357 1.5430998,12.940159 1.5686248,12.933665 c 1.4747537,-0.375214 1.2144375,-0.613211 1.507903,0.266487 0.3056644,1.08758 0.6405668,2.166329 1.1149051,3.192662 0.4083363,0.890615 -0.8511841,1.46809 -1.2595203,0.577474 l 0,0 C 2.4426156,15.895701 2.0747692,14.776119 1.7618402,13.637719 1.4553029,12.714756 1.369572,13.012349 2.7116861,12.150544 c 0.05333,-0.03425 0.073121,0.103622 0.1066849,0.157384 0.2513265,0.402567 0.2612354,0.430183 0.4832331,0.901496 0.1020686,0.216697 0.1987765,0.435879 0.2981647,0.653819 0.6095461,1.274513 1.3468282,2.56627 1.5789593,3.967287 C 4.8847627,18.081615 4.6626816,18.458831 4.2968319,18.583784 3.8550365,18.734675 2.6354749,16.654676 2.4700812,16.382056 1.672527,15.001168 0.87230405,13.623298 0.20809134,12.170807 0.53402412,11.792588 0.81436479,11.369694 1.1858897,11.03615 c 0.047484,-0.04263 0.082043,0.09792 0.1192698,0.149745 0.2856554,0.397699 0.294317,0.43768 0.5694444,0.912389 0.6047506,1.043445 0.3486032,0.58326 0.934636,1.710206 0.9067511,1.674211 1.8152851,3.349393 2.6801229,5.04487 -0.3758525,0.298105 -0.7279585,0.628887 -1.1275575,0.894316 -0.0055,0.0037 -1.4036938,-2.00081 -1.4897187,-2.146511 C 1.6594069,15.874259 0.53338672,14.086461 -0.73847406,12.40142 -0.89536526,12.205008 -1.048522,12.005554 -1.2091477,11.812184 c -0.099724,-0.120052 -0.3767578,-0.209615 -0.3101431,-0.350753 0.81330676,-1.7231696 0.94600715,-0.778129 1.50758292,-0.0037 1.23130098,1.862633 2.49674258,3.719187 3.96336678,5.405644 0.5274056,0.632828 1.0446295,1.272414 1.5990584,1.881813 0.082779,0.09099 0.1629307,0.184542 0.2499477,0.271484 0.048071,0.04803 0.1987595,0.08108 0.1546779,0.132791 -0.2539631,0.297943 -0.6036463,0.498678 -0.9054694,0.748016 0.047726,0.100349 0.1266715,0.19116 0.1431781,0.301048 0.00981,0.06529 -0.076611,-0.108004 -0.1214586,-0.156457 C 4.9563636,19.917625 4.8305461,19.8033 4.713522,19.680492 4.0865994,19.022583 3.5211235,18.312848 2.9019252,17.647696 1.3981933,15.871579 -0.12454958,14.112641 -1.5992397,12.312723 -2.2920363,11.619927 -1.312274,10.640164 -0.61947735,11.332961 z"
       inkscape:connector-curvature="0" />
    <path
       style="fill:#de2d26;fill-opacity:1;stroke:none"
       id="path15945"
       d="m -1.5421451,82.37362 c 0.99943949,-0.91511 2.02651009,-1.799787 3.0239206,-2.717876 0.9505338,-0.869554 1.5945826,-1.983165 2.3671843,-2.997567 0.6409294,-0.803686 1.5300776,-1.329783 2.3041072,-1.984415 0.5582326,-0.364138 0.9151803,-0.923756 1.2905234,-1.459736 0.5220127,-0.727917 0.9959867,-1.481187 1.6743073,-2.074348 0.7231808,-0.482326 1.2598233,-1.167141 1.8333963,-1.805912 0.479349,-0.576692 0.838035,-1.229291 1.174326,-1.895288 0.542754,-0.918746 1.131439,-1.810496 1.782325,-2.656583 0.815654,-1.044169 1.683045,-2.04909 2.489068,-3.100427 0.582688,-0.863117 1.103632,-1.768534 1.794223,-2.5512 0.666759,-0.676922 1.341357,-1.344848 2.029394,-1.999924 0.490343,-0.577052 1.086899,-1.051323 1.598161,-1.606588 0.461842,-0.601457 0.856581,-1.243843 1.244823,-1.894203 0.425821,-0.841717 1.009021,-1.598056 1.652925,-2.283505 0.749949,-0.608173 1.248814,-1.342096 1.681573,-2.187488 0.325845,-0.818021 0.805512,-1.554675 1.305813,-2.274044 0.399978,-0.718073 0.893703,-1.383792 1.259791,-2.119804 0.404322,-0.765501 0.719691,-1.581542 0.976825,-2.407905 0.391945,-0.866753 0.534903,-1.80168 0.758348,-2.716177 0.240255,-0.882288 0.34063,-1.786136 0.589695,-2.665663 0.178527,-0.815367 0.448428,-1.605102 0.616887,-2.422964 0.09624,-0.916409 0.243668,-1.818788 0.41327,-2.724531 0.184843,-0.893221 0.153052,-1.809916 0.295578,-2.706765 0.119771,-0.789363 0.366791,-1.537426 0.600262,-2.296759 0.20218,-0.769469 0.457162,-1.537206 0.929032,-2.181722 0.07069,-0.08735 0.141371,-0.174709 0.212057,-0.262064 0.616433,-0.761541 1.693415,0.110227 1.076982,0.871768 l 0,0 c -0.06701,0.08275 -0.134011,0.165497 -0.201017,0.248245 -0.422488,0.439268 -0.490128,1.178848 -0.693204,1.732784 -0.217636,0.701483 -0.450302,1.388336 -0.558013,2.119356 -0.166779,0.89822 -0.08308,1.835106 -0.299776,2.730295 -0.171529,0.915193 -0.314882,1.826097 -0.4186,2.7515 -0.17819,0.849869 -0.451351,1.672283 -0.640543,2.519282 -0.245796,0.863318 -0.333193,1.754801 -0.577564,2.619985 -0.236016,0.939976 -0.376197,1.906388 -0.781395,2.798383 -0.283825,0.897625 -0.622711,1.786211 -1.06282,2.61918 -0.405151,0.788844 -0.914576,1.518358 -1.358951,2.285696 -0.466446,0.668042 -0.910202,1.350892 -1.209423,2.113591 -0.491252,0.958559 -1.068709,1.811263 -1.90728,2.507008 -0.578908,0.60954 -1.093749,1.288981 -1.470806,2.042678 -0.439091,0.73515 -0.888772,1.460145 -1.423446,2.131314 -0.538828,0.567699 -1.139468,1.073751 -1.65568,1.664452 -0.663652,0.6266 -1.307549,1.272777 -1.951315,1.919633 -0.680866,0.742425 -1.139936,1.656107 -1.727112,2.470395 -0.808707,1.050288 -1.672518,2.058626 -2.490325,3.10206 -0.59942,0.776043 -1.136597,1.59641 -1.642991,2.435425 -0.391572,0.774934 -0.819462,1.530492 -1.381443,2.197763 -0.617819,0.68387 -1.196704,1.417346 -1.970284,1.938363 C 9.399717,72.679853 9.0610117,73.412622 8.5785501,74.008844 8.1353449,74.641708 7.6914283,75.296831 7.0417582,75.736822 6.3395694,76.3186 5.5524154,76.80327 4.9505199,77.498673 4.1272187,78.575568 3.4402125,79.759231 2.4201154,80.675248 1.3990802,81.614914 0.3485701,82.521008 -0.67657192,83.455586 -1.4416378,84.067639 -2.307211,82.985673 -1.5421451,82.37362 z"
       inkscape:connector-curvature="0" />
    <path
       style="fill:#de2d26;fill-opacity:1;stroke:none"
       id="path15947"
       d="m 29.444049,14.667622 c 0.967365,1.227939 1.818742,2.536668 2.588555,3.895671 0.549399,1.016716 0.924269,2.120776 1.483682,3.130669 0.312199,0.679615 0.810477,1.207031 1.348648,1.710213 0.837333,0.580494 1.602936,1.253952 2.414983,1.866681 0.812134,0.730627 1.797735,1.196659 2.690817,1.806349 0.822256,0.664687 1.631497,1.343379 2.302356,2.163988 0.672844,0.814622 1.112671,1.767269 1.541707,2.721947 0.371864,0.94721 0.730312,1.901044 0.968836,2.891638 0.267869,0.924989 0.106098,1.836674 -0.03629,2.761966 -0.06362,0.885449 -0.220496,1.750465 -0.389479,2.620621 -0.129546,0.956485 -0.325926,1.903576 -0.599471,2.82937 -0.270445,0.998231 -0.588193,1.974362 -1.06275,2.894814 -0.494295,1.07911 -1.222868,2.009991 -1.991737,2.903382 -0.71799,0.752756 -1.471349,1.459534 -2.113519,2.281466 -0.455876,0.77369 -0.914591,1.544947 -1.367786,2.320406 -0.705498,0.974118 -1.454151,1.911429 -2.105822,2.924299 -0.839453,1.286776 -1.441867,2.700592 -2.317647,3.965349 -1.025668,1.369989 -1.989727,2.784405 -3.007632,4.15991 -0.958808,1.28921 -1.812919,2.654594 -2.857357,3.877477 -0.804589,0.87433 -1.627071,1.741307 -2.364475,2.673962 -0.609685,0.678901 -1.157433,1.413421 -1.797257,2.064427 -0.609012,0.739146 -1.283047,1.398165 -2.058114,1.96054 -0.912105,0.544879 -1.54034,1.394767 -2.201745,2.201999 -0.93596,1.068415 -1.818208,2.177446 -2.612745,3.35493 -0.96117,1.454046 -1.969044,2.872346 -3.072753,4.221596 -1.143612,1.512625 -2.429975,2.906187 -3.6494115,4.355423 -1.029034,1.201221 -2.0184119,2.43364 -3.0137339,3.662545 -0.7232355,0.959443 -1.3832562,1.966674 -2.0119727,2.990183 -0.5607063,1.04316 -1.4131888,1.846673 -2.2658444,2.646045 -0.93986714,0.929242 -1.74012815,1.964222 -2.47501401,3.058072 -0.78252349,1.11357 -1.68517129,2.14423 -2.59088969,3.15995 -0.6732815,0.80804 -1.2958033,1.66212 -1.7335563,2.62145 -0.412113,0.88888 -1.6691708,0.30606 -1.2570579,-0.58281 l 0,0 c 0.5059457,-1.07782 1.1855479,-2.05448 1.9565852,-2.96095 0.8640802,-0.96846 1.7266652,-1.95018 2.4749103,-3.01053 0.79342561,-1.180171 1.66161271,-2.295542 2.67746421,-3.296124 C 1.7024858,96.798655 2.4750047,96.092047 2.9720998,95.15291 3.634204,94.080088 4.323734,93.021052 5.0872099,92.017145 c 1.000932,-1.235641 1.9959713,-2.474804 3.0305013,-3.682848 1.2162354,-1.443677 2.4969528,-2.833624 3.6372478,-4.340773 1.078074,-1.315526 2.058322,-2.701587 2.996873,-4.119726 0.820057,-1.211461 1.723864,-2.357616 2.688951,-3.457199 0.737642,-0.900252 1.45414,-1.836097 2.465704,-2.44958 0.721011,-0.509956 1.315505,-1.140726 1.88468,-1.813069 0.613382,-0.603033 1.108127,-1.318535 1.693693,-1.948156 0.752659,-0.943131 1.577018,-1.830825 2.397918,-2.71445 1.028971,-1.191744 1.847646,-2.543958 2.795062,-3.799376 1.010762,-1.364982 1.966591,-2.769696 2.985379,-4.128969 0.876694,-1.242136 1.439009,-2.662845 2.288961,-3.922611 0.642277,-0.994643 1.363826,-1.927254 2.074166,-2.872755 0.485391,-0.830427 0.969898,-1.660764 1.475734,-2.47882 0.66039,-0.832355 1.410372,-1.571449 2.152244,-2.32845 0.700777,-0.81188 1.367217,-1.654983 1.81277,-2.639542 0.443411,-0.838001 0.708654,-1.741944 0.964075,-2.652007 0.268558,-0.879717 0.437518,-1.78614 0.566539,-2.695723 0.165816,-0.852995 0.318608,-1.698688 0.380174,-2.567152 0.115824,-0.75219 0.279853,-1.475681 0.05792,-2.229897 -0.213636,-0.907259 -0.551634,-1.776495 -0.88493,-2.645142 -0.380114,-0.846562 -0.758876,-1.697126 -1.356274,-2.419814 -0.575743,-0.726939 -1.306882,-1.29716 -2.011223,-1.893737 -0.900613,-0.631271 -1.918641,-1.090698 -2.739802,-1.84178 -0.848639,-0.644383 -1.658996,-1.3385 -2.52573,-1.960019 -0.643882,-0.60381 -1.233957,-1.251526 -1.617884,-2.057955 -0.54496,-1.010716 -0.946613,-2.091555 -1.473517,-3.11237 -0.726649,-1.28793 -1.534413,-2.525527 -2.446831,-3.690568 -0.627229,-0.752674 0.437214,-1.639709 1.064442,-0.887035 z"
       inkscape:connector-curvature="0" />
    <path
       style="fill:#de2d26;fill-opacity:1;stroke:none"
       id="path15949"
       d="m 40.750479,13.602018 c 0.797846,-1.231933 1.637513,-2.42548 2.60402,-3.532054 0.746869,-0.8044657 1.614352,-1.4846582 2.417129,-2.2304929 0.596853,-0.5487305 1.324934,-0.9045443 2.007862,-1.3234602 0.665723,-0.4195548 1.445951,-0.5444337 2.180544,-0.7915793 0.804743,-0.2296275 1.57973,-0.5574894 2.332516,-0.9210525 0.929866,-0.476866 1.867313,-0.889293 2.886305,-1.1305626 0.962634,-0.1914254 1.946714,-0.2053896 2.924426,-0.2165878 1.034181,-0.069556 2.001186,0.2909576 2.97473,0.5761497 0.850932,0.2778337 1.713577,0.1921337 2.57594,0.01833 1.187808,-0.3001968 2.403378,-0.4391211 3.622825,-0.5220936 1.090992,-0.062572 2.184058,-0.067349 3.276483,-0.069615 0.935604,9.71e-5 1.871207,0.00249 2.80681,0.00368 1.197533,-0.063005 2.379049,0.1390384 3.562735,0.2846941 1.140425,0.048435 2.255096,0.2874621 3.380124,0.4584693 0.81083,0.2644921 1.661355,0.2292649 2.502002,0.2217084 0.998228,-0.013203 1.976036,-0.2534197 2.967036,-0.3647976 1.041065,-0.1501692 2.046924,-0.4415652 3.062798,-0.7020279 0.972618,-0.2443662 1.97356,-0.3103381 2.971675,-0.346857 0.977632,-0.045942 1.94211,-0.03543 2.907936,0.1246971 1.02838,0.1506127 2.003931,0.5286403 2.944686,0.957243 0.955262,0.5067291 1.81911,1.1604964 2.685679,1.8024642 0.73776,0.5924239 1.57797,0.8831493 2.46233,1.1636976 1.13039,0.3009259 2.28431,0.5258862 3.43563,0.7375977 1.05062,0.1886158 2.1166,0.2469463 3.18159,0.2746274 1.31331,0.020513 2.62687,0.014009 3.94029,0.012482 1.77584,-0.038053 3.54503,0.2751375 5.26754,0.6834239 0.953,0.2274639 0.63131,1.5751986 -0.32168,1.3477346 l 0,0 c -1.6152,-0.3885043 -3.27825,-0.680216 -4.94425,-0.6455662 -1.32607,0.00154 -2.65229,0.00815 -3.97824,-0.012958 -1.137,-0.030106 -2.27487,-0.094697 -3.39632,-0.2970863 C 104.78378,8.9392729 103.57277,8.7039149 102.38799,8.3826683 101.35903,8.0560721 100.38013,7.6895104 99.519798,7.0115288 98.730116,6.4261896 97.944608,5.8299158 97.081462,5.355273 96.25395,4.9728009 95.392188,4.63811 94.48579,4.5051749 93.612779,4.357682 92.741172,4.3597058 91.856637,4.3985533 90.957522,4.4308269 90.055175,4.4849232 89.178428,4.7030245 88.100131,4.9786769 87.031225,5.2859336 85.925469,5.4398185 84.887616,5.554458 83.864389,5.8122872 82.817226,5.8130907 81.905555,5.821081 80.97459,5.8545901 80.094317,5.5756431 78.982209,5.405971 77.881068,5.1692825 76.753507,5.1225861 75.625146,4.9836187 74.500002,4.785321 73.358303,4.8482725 c -0.934061,-0.00119 -1.868122,-0.00357 -2.802184,-0.00368 -1.062182,0.00218 -2.12499,0.00641 -3.185817,0.066458 -1.162655,0.078178 -2.320875,0.2119074 -3.452906,0.4999785 -1.078831,0.2023909 -2.16634,0.2981033 -3.229415,-0.049082 -0.841636,-0.2472175 -1.674254,-0.5809609 -2.568994,-0.5202114 -0.877273,0.00984 -1.76048,0.017955 -2.625696,0.1805275 -0.92256,0.2106706 -1.758594,0.6052992 -2.600895,1.0301399 -0.805498,0.384975 -1.631195,0.7390981 -2.490595,0.9853138 -0.640177,0.2153104 -1.320262,0.3216556 -1.908037,0.6655964 -0.608839,0.3612099 -1.245595,0.6820624 -1.781747,1.1537739 -0.770928,0.7092266 -1.592521,1.3669606 -2.315583,2.1262476 -0.930845,1.057506 -1.725666,2.208073 -2.493072,3.387275 -0.543475,0.815211 -1.696358,0.04662 -1.152883,-0.768589 z"
       inkscape:connector-curvature="0" />
    <path
       style="fill:#de2d26;fill-opacity:1;stroke:none"
       id="path15951"
       d="m 70.122054,-2.0407375 c -0.656226,1.3027633 -1.219013,2.65930079 -1.634477,4.0586579 -0.257796,1.0257948 -0.558178,2.0348658 -0.710802,3.0833486 -0.108329,0.8884604 -0.113346,1.7848218 -0.119334,2.6785063 0.01663,0.8683459 0.161937,1.7528055 0.373636,2.5960577 0.224559,0.86463 0.402051,1.760202 0.87321,2.530132 0.0762,0.124799 0.152396,0.249597 0.228594,0.374395 0.510334,0.836357 -0.672455,1.558078 -1.182788,0.72172 l 0,0 C 67.869426,13.8698 67.788759,13.737521 67.708092,13.605241 67.195746,12.702028 66.916684,11.713089 66.685,10.704385 66.456545,9.747382 66.281312,8.7548404 66.271879,7.7704212 c 0.0065,-0.9580183 0.0139,-1.9188704 0.134065,-2.8708719 0.165451,-1.1138109 0.474471,-2.1888447 0.753901,-3.2778549 0.449528,-1.49942327 1.047237,-2.9563373 1.759177,-4.3498786 0.486098,-0.850672 1.68913,-0.1632252 1.203032,0.6874467 z"
       inkscape:connector-curvature="0" />
    <path
       style="fill:#de2d26;fill-opacity:1;stroke:none"
       id="path15955"
       d="m 22.93723,-8.2011622 c 0.445804,1.4542544 0.617213,2.9639573 0.742503,4.4733459 0.09039,1.2024546 0.106894,2.4084567 0.112411,3.61372533 0.130188,0.91636281 0.285094,1.82696487 0.371088,2.74918927 0.0016,0.9208048 0.215492,1.8139831 0.356582,2.7187982 0.06725,0.9282034 0.211862,1.8356576 0.38258,2.7491961 0.215079,0.8192609 0.44571,1.6232882 0.827027,2.3817314 0.343307,0.71137 0.759217,1.406358 1.30912,1.977776 0.444557,0.49993 0.822477,1.054999 1.218272,1.593259 0.478213,0.35502 0.89536,0.776561 1.27678,1.238589 0.06135,0.0623 0.122699,0.1246 0.184049,0.1869 0.680576,0.704805 -0.316169,1.667285 -0.996745,0.96248 l 0,0 C 28.633167,16.351742 28.545438,16.259655 28.457708,16.167569 28.066477,15.672656 27.58833,15.303974 27.136861,14.871688 26.779845,14.375148 26.425786,13.872827 26.027338,13.409879 25.398432,12.725881 24.883355,11.941585 24.487894,11.100031 24.058835,10.224317 23.773251,9.3036695 23.540366,8.3575483 23.367268,7.4307325 23.21809,6.5082346 23.15068,5.566832 23.006043,4.6342354 22.787928,3.7117704 22.783554,2.7629928 22.694874,1.8001796 22.514131,0.85239492 22.406565,-0.10778194 22.401269,-1.2770335 22.385907,-2.4470104 22.298857,-3.6135781 22.183493,-5.0129913 22.03037,-6.413013 21.622741,-7.7629992 c -0.309828,-0.9294842 1.004661,-1.3676472 1.314489,-0.438163 z"
       inkscape:connector-curvature="0" />
    <path
       style="fill:#de2d26;fill-opacity:1;stroke:none"
       id="path15957"
       d="m 67.270446,56.652768 c 0.858309,0.95788 1.593917,2.008865 2.300695,3.08063 0.604592,0.854624 1.048959,1.812134 1.395446,2.796783 0.261517,0.923843 0.529242,1.845097 0.822009,2.759512 0.287759,0.925284 0.374332,1.890038 0.583,2.833068 0.126616,0.927576 0.399835,1.809257 0.716319,2.685973 0.288407,0.9049 0.546206,1.81871 0.846025,2.720248 0.284156,0.966068 0.634156,1.90946 0.865473,2.890495 0.190642,0.949692 0.443814,1.880301 0.581675,2.840973 0.109009,0.933722 0.342001,1.845046 0.465414,2.778205 0.109459,0.947387 0.122095,1.901952 0.131497,2.854457 0.02768,0.972419 0.01842,1.931272 -0.140199,2.891801 -0.159515,0.934872 -0.242238,1.873677 -0.43972,2.801818 -0.112557,0.90546 -0.384129,1.738437 -0.808776,2.541201 -0.08704,0.121045 -0.174078,0.242091 -0.261117,0.363137 -0.586668,0.7847 -1.696402,-0.04497 -1.109734,-0.829675 l 0,0 c 0.04877,-0.0606 0.09754,-0.12121 0.146307,-0.181815 0.365758,-0.690124 0.587445,-1.398901 0.678178,-2.181739 0.193832,-0.907367 0.267368,-1.826794 0.428095,-2.74056 0.147994,-0.880059 0.143118,-1.758826 0.12144,-2.650559 -0.0088,-0.896723 -0.01917,-1.795427 -0.119758,-2.687574 -0.121065,-0.928288 -0.358788,-1.833973 -0.463404,-2.763515 -0.129701,-0.920482 -0.379832,-1.810309 -0.559097,-2.720668 -0.218053,-0.941675 -0.564128,-1.843975 -0.832051,-2.771703 -0.292019,-0.890558 -0.552718,-1.790287 -0.833528,-2.684072 -0.336497,-0.93221 -0.626977,-1.872386 -0.765961,-2.857311 -0.199245,-0.901915 -0.287551,-1.822343 -0.549692,-2.709709 -0.289172,-0.903287 -0.555357,-1.813058 -0.810909,-2.726292 -0.302351,-0.879424 -0.706004,-1.730152 -1.244307,-2.490671 -0.681546,-1.037572 -1.39494,-2.051065 -2.225286,-2.976865 -0.612053,-0.765066 0.469913,-1.630639 1.081966,-0.865573 z"
       inkscape:connector-curvature="0" />
    <path
       style="fill:#de2d26;fill-opacity:1;stroke:none"
       id="path15959"
       d="m 83.119106,36.782891 c 1.161142,0.293909 2.283601,0.714615 3.344942,1.267775 1.010326,0.486493 1.930277,1.128081 2.851918,1.759818 0.736838,0.594813 1.532199,1.080819 2.384029,1.490703 0.87419,0.293624 1.744763,0.569904 2.587136,0.949308 0.738464,0.332946 1.488283,0.657718 2.19579,1.055318 0.88625,0.42491 1.758721,0.872947 2.613659,1.359684 0.825582,0.438121 1.72237,0.743357 2.6198,1.000202 0.91135,0.295896 1.81809,0.576665 2.68013,0.999425 0.9157,0.420253 1.79764,0.894691 2.62404,1.471457 0.79903,0.502618 1.51048,1.124154 2.24491,1.713448 0.78657,0.691272 1.57539,1.36959 2.43177,1.973836 1.13614,0.592887 2.25184,1.22434 3.39589,1.801881 1.04874,0.532082 2.14782,0.946944 3.23839,1.381084 0.94429,0.379209 1.88919,0.753964 2.84208,1.111963 1.03336,0.412385 1.92307,1.094781 2.87648,1.655529 0.85239,0.558567 1.77277,0.9815 2.69991,1.394764 0.94163,0.444817 1.71883,1.138908 2.48567,1.827012 0.53089,0.530975 1.01431,1.111375 1.63114,1.546187 0.60468,0.441848 1.15221,0.950586 1.72518,1.430381 0.64044,0.366214 1.1879,0.846396 1.70513,1.367618 0.65544,0.745346 1.37314,1.441184 1.93287,2.263936 0.57988,0.848997 1.08328,1.743423 1.59163,2.635784 0.60187,0.875038 1.01369,1.856253 1.48233,2.80386 0.48519,0.865305 1.0754,1.662951 1.66033,2.462231 0.45071,0.848014 1.12116,1.506793 1.80115,2.168316 0.80881,0.706499 1.70451,1.296124 2.57355,1.922715 0.98859,0.568326 1.83229,1.314776 2.56854,2.179286 0.53449,0.694476 1.105,1.305915 1.77004,1.87006 0.6931,0.683905 1.49806,1.232414 2.20268,1.902393 0.79994,0.851603 1.58157,1.719871 2.38581,2.567578 0.89062,0.931222 1.80002,1.844199 2.70945,2.756979 0.66103,0.805509 1.4067,1.520291 2.28344,2.083863 1.00069,0.603155 1.9243,1.319317 2.74698,2.147522 0.80207,0.872595 1.53275,1.810775 2.39883,2.622045 0.78449,0.693616 1.56182,1.397313 2.19718,2.232948 0.33139,0.40366 0.56205,0.86424 0.78401,1.33243 0.41377,0.8881 -0.84219,1.47327 -1.25597,0.58517 l 0,0 c -0.17508,-0.38488 -0.36371,-0.75814 -0.63649,-1.08622 -0.57527,-0.78141 -1.32668,-1.405499 -2.03963,-2.056523 -0.87311,-0.828819 -1.63205,-1.762515 -2.43524,-2.657692 -0.74482,-0.764707 -1.60466,-1.403426 -2.51562,-1.958467 -0.95085,-0.625176 -1.79138,-1.380576 -2.50905,-2.26712 -0.91741,-0.920798 -1.83476,-1.841831 -2.73312,-2.781317 -0.78933,-0.832112 -1.55861,-1.682418 -2.34018,-2.521676 -0.67651,-0.657513 -1.4753,-1.1732 -2.14004,-1.845819 -0.72326,-0.615096 -1.34909,-1.282604 -1.93261,-2.033262 -0.65494,-0.787767 -1.43221,-1.433981 -2.3197,-1.948502 -0.92344,-0.666659 -1.87653,-1.293659 -2.72924,-2.053425 -0.73308,-0.713715 -1.46107,-1.433279 -1.95306,-2.343175 -0.63167,-0.863714 -1.26844,-1.727229 -1.78446,-2.666946 -0.45545,-0.923967 -0.85671,-1.87948 -1.44399,-2.731644 -0.49164,-0.863806 -0.97757,-1.730028 -1.53943,-2.551299 -0.49468,-0.758422 -1.18327,-1.369619 -1.76537,-2.058905 -0.48962,-0.495238 -1.01288,-0.928114 -1.61482,-1.284204 -0.54321,-0.461908 -1.06823,-0.942582 -1.64331,-1.366332 -0.64703,-0.476503 -1.19639,-1.053472 -1.7449,-1.638015 -0.65873,-0.592368 -1.31925,-1.200866 -2.12419,-1.59237 -0.97469,-0.435142 -1.94189,-0.882017 -2.83948,-1.466774 -0.88336,-0.522566 -1.71158,-1.150305 -2.66014,-1.551998 -0.96119,-0.361784 -1.91466,-0.739904 -2.86762,-1.121858 -1.12797,-0.450684 -2.26563,-0.87967 -3.35031,-1.431572 -1.20395,-0.609552 -2.38389,-1.265911 -3.57099,-1.907297 -0.87743,-0.622289 -1.69416,-1.311277 -2.49864,-2.024248 -0.71124,-0.570683 -1.39817,-1.174606 -2.1732,-1.659624 -0.76658,-0.540303 -1.59302,-0.971325 -2.44375,-1.364429 -0.78458,-0.393779 -1.61926,-0.630224 -2.44887,-0.909633 -1.00175,-0.290692 -2.002792,-0.631265 -2.922267,-1.127897 -0.853661,-0.487604 -1.72733,-0.929883 -2.61115,-1.358257 -0.666383,-0.38283 -1.382807,-0.680727 -2.081058,-0.997081 -0.853883,-0.384734 -1.74346,-0.644177 -2.621889,-0.965546 -0.911175,-0.443566 -1.773806,-0.957338 -2.563977,-1.595197 -0.876407,-0.601651 -1.750277,-1.214003 -2.712284,-1.675662 -0.928298,-0.491811 -1.916078,-0.849502 -2.928559,-1.127782 -0.966432,-0.161072 -0.738642,-1.527813 0.22779,-1.366741 z"
       inkscape:connector-curvature="0" />
    <path
       style="fill:#de2d26;fill-opacity:1;stroke:none"
       id="path15961"
       d="m 102.97928,87.126111 c 1.37331,0.276303 2.56501,1.031236 3.78298,1.682581 0.96111,0.632254 1.9367,1.221841 2.96204,1.741114 0.94187,0.373489 1.77445,0.955713 2.5741,1.568132 0.81361,0.642193 1.48534,1.434162 2.1518,2.221929 0.55795,0.707924 1.2488,1.263794 1.95795,1.80563 0.70349,0.4163 1.33972,0.877705 1.9337,1.437885 0.0945,0.10792 0.18896,0.215839 0.28344,0.323759 0.63891,0.742778 -0.41153,1.646344 -1.05045,0.903566 l 0,0 c -0.0613,-0.07317 -0.12259,-0.146349 -0.18388,-0.219523 -0.55884,-0.527514 -1.16623,-0.944631 -1.8256,-1.34588 -0.78614,-0.604466 -1.5508,-1.227225 -2.17297,-2.010508 -0.60283,-0.712545 -1.20444,-1.434184 -1.93788,-2.0179 -0.73114,-0.563139 -1.49101,-1.093825 -2.35627,-1.430998 -1.03443,-0.523953 -2.02397,-1.111247 -2.98942,-1.75537 -1.08484,-0.5802 -2.14245,-1.264812 -3.35733,-1.537676 -0.96644,-0.161072 -0.73865,-1.527812 0.22779,-1.366741 z"
       inkscape:connector-curvature="0" />
    <path
       style="fill:#de2d26;fill-opacity:1;stroke:none"
       id="path15963"
       d="m -1.9002704,216.7407 c 1.20710275,-0.8369 2.36868306,-1.7439 3.412911,-2.77784 0.8753361,-1.05535 1.689913,-2.15714 2.5805972,-3.20037 0.7296708,-0.91679 1.5293339,-1.76576 2.3100191,-2.63723 0.6286881,-0.81551 1.2480675,-1.61619 1.9776,-2.34749 0.7832743,-0.81208 1.6567221,-1.52535 2.4634901,-2.31189 0.60313,-0.63362 1.112602,-1.32894 1.584992,-2.06221 0.42566,-0.93359 1.167898,-1.5954 1.935904,-2.24097 0.953886,-0.77595 1.677492,-1.77973 2.505003,-2.68073 1.054782,-1.12302 2.085574,-2.26817 3.113805,-3.41604 0.930981,-1.16496 1.939655,-2.26831 2.777993,-3.50344 0.737689,-1.11577 1.536969,-2.19336 2.385828,-3.22668 0.645587,-0.65944 1.137538,-1.44181 1.65055,-2.20364 0.511935,-0.847 1.155869,-1.57777 1.793489,-2.32801 0.646585,-0.76223 1.160063,-1.62514 1.754875,-2.42634 0.527532,-0.67415 0.916612,-1.42984 1.316973,-2.1819 0.130352,-0.34912 0.324058,-0.66869 0.494433,-0.99888 0.449711,-0.87046 1.680723,-0.23447 1.231012,0.63598 l 0,0 c -0.173723,0.33587 -0.370284,0.65951 -0.502984,1.01517 -0.434461,0.81259 -0.859585,1.62919 -1.429282,2.35875 -0.617615,0.82103 -1.136005,1.71777 -1.810663,2.49621 -0.606304,0.70908 -1.218243,1.39636 -1.698607,2.20304 -0.537826,0.79842 -1.057433,1.61728 -1.73073,2.31108 -0.825813,0.99738 -1.592987,2.04695 -2.309774,3.12533 -0.876908,1.283 -1.915509,2.43991 -2.891043,3.64783 -1.032178,1.15227 -2.067485,2.30128 -3.125718,3.42917 -0.868393,0.94409 -1.62713,1.99632 -2.633826,2.80394 -0.667448,0.56053 -1.30392,1.10953 -1.662451,1.93056 -0.529037,0.82111 -1.10643,1.59678 -1.783099,2.30445 -0.803128,0.78127 -1.669421,1.49249 -2.4498342,2.29841 -0.7137291,0.7136 -1.3058048,1.50298 -1.9276008,2.29474 -0.7760726,0.86032 -1.5643669,1.70266 -2.2868078,2.61074 -0.9169215,1.07285 -1.7456563,2.21414 -2.6615545,3.2873 -1.1115221,1.09088 -2.33350891,2.06149 -3.6169113,2.94385 -0.8152116,0.54347 -1.5838004,-0.60941 -0.7685888,-1.15289 z"
       inkscape:connector-curvature="0" />
    <path
       style="fill:#fc9272;fill-opacity:1;stroke:none"
       id="path15967"
       d="m 14.979894,376.34095 c 1.202073,-0.82655 2.350876,-1.72646 3.524652,-2.59237 0.788458,-0.58161 1.610976,0.53344 0.822517,1.11505 l 0,0 c -1.176341,0.86765 -2.327657,1.76948 -3.532202,2.5979 -0.792369,0.57627 -1.607336,-0.54431 -0.814967,-1.12058 z"
       inkscape:connector-curvature="0" />
    <path
       style="fill:#fc9272;fill-opacity:1;stroke:none"
       id="path15969"
       d="m -6.5189145,392.24918 c 1.8353985,-1.15241 3.7594427,-2.15234 5.64844918,-3.21162 1.69966008,-0.9076 3.30883142,-1.9567 4.87984372,-3.06767 1.4101916,-1.01383 2.8103207,-2.04097 4.2091456,-3.07043 1.1152576,-0.76491 2.067579,-1.69819 2.961338,-2.70389 0.720988,-0.82751 1.354168,-1.72263 2.109296,-2.52149 0.693055,-0.7083 1.565358,-1.19851 2.351932,-1.78963 0.741255,-0.48155 1.397904,-1.07562 2.065427,-1.65266 0.771127,-0.59755 1.591467,-1.12457 2.395543,-1.67613 0.770304,-0.39297 1.409414,-0.96385 2.06614,-1.51354 0.609725,-0.60025 1.131165,-1.2787 1.689331,-1.92412 0.5841,-0.74563 1.453565,-1.14389 2.189153,-1.706 0.592491,-0.39738 1.110028,-0.8876 1.63573,-1.36612 0.695158,-0.64906 1.444611,-1.23343 2.131315,-1.89096 0.726647,-0.70425 1.310346,-1.53928 1.881807,-2.36999 0.700698,-1.02257 1.53623,-1.93984 2.382842,-2.84138 0.861411,-0.81052 1.59569,-1.72062 2.262786,-2.69279 0.661051,-1.0165 1.516388,-1.87944 2.276797,-2.81682 0.69101,-0.78345 1.244968,-1.65946 1.774325,-2.55553 0.53919,-0.86465 1.142512,-1.69233 1.823876,-2.45019 0.775745,-0.83487 1.640776,-1.58194 2.396916,-2.43455 0.82114,-0.9588 1.619256,-1.93817 2.464415,-2.87555 0.978718,-1.0683 1.973558,-2.12166 2.942394,-3.19917 0.604888,-0.8322 1.376828,-1.51289 1.969423,-2.35315 0.617299,-1.06042 1.533596,-1.87029 2.347587,-2.76769 0.624659,-0.68961 1.160425,-1.43926 1.62091,-2.24511 0.52708,-0.93959 1.109807,-1.83239 1.782484,-2.67432 0.737835,-0.90714 1.490539,-1.80808 2.189595,-2.74592 0.583273,-0.8679 1.008477,-1.81718 1.428359,-2.7697 0.549307,-1.27478 1.343336,-2.37385 2.277846,-3.38805 0.691285,-0.71368 1.295796,-1.4942 1.915224,-2.26754 0.554549,-0.82082 1.199032,-1.57099 1.863432,-2.30339 0.786264,-0.71773 1.472964,-1.49684 2.123016,-2.33707 0.599223,-0.94806 1.255425,-1.85252 2.039004,-2.65592 1.009031,-0.91795 2.021721,-1.83139 3.014053,-2.76751 0.801744,-0.78545 1.690084,-1.47349 2.471781,-2.27941 0.601496,-0.79942 1.08249,-1.68784 1.534841,-2.57858 0.543928,-0.97277 1.102969,-1.93735 1.656164,-2.90518 0.79447,-1.34289 1.859716,-2.47923 2.811853,-3.70422 0.801787,-0.96099 1.410352,-2.03889 1.952532,-3.15872 0.503412,-0.95728 1.192772,-1.80642 1.897042,-2.62269 0.772606,-0.82054 1.509813,-1.67584 2.167669,-2.5917 0.676469,-0.91483 1.280648,-1.87764 1.97073,-2.78255 0.763674,-0.99717 1.68874,-1.85229 2.503489,-2.80406 0.805438,-0.90011 1.698354,-1.70891 2.628663,-2.47618 0.954739,-0.76345 1.86253,-1.58258 2.685166,-2.48704 0.470851,-0.58151 0.838753,-1.22122 1.19933,-1.87371 0.33553,-0.65516 0.61892,-1.33687 0.97722,-1.981 0.49906,-0.81853 1.25933,-1.40034 1.90266,-2.09066 0.52274,-0.64914 0.96701,-1.347 1.39713,-2.05907 0.43925,-0.83944 0.96567,-1.62942 1.54966,-2.37454 0.68095,-0.90475 1.3212,-1.82969 1.91756,-2.79186 0.66519,-1.02267 1.39115,-2.00484 2.06111,-3.02416 0.65243,-0.94534 1.26396,-1.91659 1.96065,-2.83062 0.78823,-0.9058 1.507,-1.86741 2.2738,-2.79101 0.58889,-0.91135 1.33911,-1.66569 2.18794,-2.33227 0.98165,-0.6426 1.54281,-1.63395 2.14425,-2.60792 0.85715,-1.60785 1.82824,-3.14648 2.85476,-4.65026 0.8517,-1.20671 1.8472,-2.3002 2.70765,-3.50026 0.67419,-0.88589 1.33714,-1.78343 2.02209,-2.66117 0.4894,-0.67771 0.94957,-1.37369 1.4266,-2.06036 0.3726,-0.65923 0.65847,-1.37804 0.90453,-2.09547 0.31656,-0.76936 0.78122,-1.4716 1.20976,-2.18333 0.54893,-0.80906 1.06062,-1.64143 1.7072,-2.37735 0.64764,-0.73464 1.28742,-1.47091 1.81513,-2.29788 0.43813,-0.90628 0.95792,-1.76892 1.41811,-2.6636 0.47612,-0.88701 1.10444,-1.6682 1.68772,-2.48258 0.62009,-0.77503 0.98915,-1.70089 1.41892,-2.58544 0.41422,-0.83389 0.57605,-1.75498 0.81472,-2.64756 0.2008,-0.94203 0.41831,-1.88223 0.70557,-2.80221 0.26427,-0.90739 0.52324,-1.81769 0.75645,-2.73406 0.28424,-1.06604 0.78784,-2.04475 1.26539,-3.03291 0.64688,-1.08672 1.20014,-2.21919 1.70064,-3.37953 0.43991,-1.04229 0.97707,-2.03305 1.54971,-3.00727 0.75563,-1.04716 1.46484,-2.10301 2.0456,-3.25809 0.58783,-1.30972 1.10979,-2.64788 1.71351,-3.95033 0.37088,-0.8732 0.7417,-1.74548 1.12432,-2.61379 0.28213,-0.58782 0.39505,-1.22545 0.50681,-1.86123 0.1698,-0.96494 1.53442,-0.72482 1.36463,0.24012 l 0,0 c -0.13138,0.74596 -0.27725,1.49131 -0.60425,2.18156 -0.38866,0.87506 -0.75859,1.75677 -1.13486,2.63703 -0.61221,1.31505 -1.13252,2.67044 -1.73317,3.99091 -0.59724,1.17945 -1.3061,2.2723 -2.0885,3.33668 -0.54485,0.92427 -1.05501,1.86409 -1.47189,2.85407 -0.50966,1.17733 -1.065,2.33171 -1.72521,3.43321 -0.43805,0.90478 -0.90458,1.79781 -1.17022,2.77244 -0.2411,0.94102 -0.50557,1.87642 -0.7777,2.80847 -0.28768,0.89837 -0.48487,1.82285 -0.68827,2.74288 -0.26154,0.978 -0.4458,1.98491 -0.90734,2.89582 -0.46516,0.95457 -0.8702,1.95054 -1.53953,2.78762 -0.54597,0.75801 -1.13241,1.48527 -1.58155,2.30923 -0.4822,0.933 -1.01719,1.83733 -1.48442,2.77835 -0.57241,0.88344 -1.24525,1.68468 -1.94542,2.46941 -0.60018,0.66245 -1.0428,1.44291 -1.55575,2.17187 -0.38049,0.62938 -0.79088,1.25005 -1.08725,1.92218 -0.29274,0.83418 -0.61959,1.67392 -1.07561,2.43155 -0.49256,0.7084 -0.9665,1.42723 -1.47422,2.12483 -0.67771,0.85838 -1.3219,1.74691 -1.98721,2.61474 -0.85687,1.18902 -1.83525,2.28123 -2.68846,3.47286 -1.01528,1.48605 -1.97191,3.00845 -2.82023,4.59713 -0.68742,1.11205 -1.36064,2.23217 -2.47228,2.97331 -0.77948,0.59886 -1.43415,1.29744 -1.97282,2.12394 -0.7551,0.90861 -1.46115,1.85627 -2.23836,2.74652 -0.6787,0.88727 -1.26883,1.83455 -1.90489,2.75207 -0.66506,1.00729 -1.37864,1.98226 -2.04045,2.99183 -0.62343,1.00582 -1.29397,1.97253 -2.00588,2.9181 -0.55124,0.69914 -1.04072,1.44533 -1.45307,2.23479 -0.48063,0.79552 -0.98161,1.57337 -1.57407,2.2922 -0.57318,0.60434 -1.23406,1.12232 -1.70374,1.81984 -0.36321,0.63809 -0.63473,1.32433 -0.97375,1.97477 -0.41509,0.7448 -0.84105,1.47745 -1.388278,2.13627 -0.87101,0.94799 -1.817938,1.8198 -2.82621,2.62102 -0.869527,0.71668 -1.704902,1.47058 -2.459271,2.31022 -0.801021,0.92879 -1.698009,1.77248 -2.453168,2.74198 -0.683829,0.89382 -1.277119,1.84937 -1.948399,2.75247 -0.685373,0.94549 -1.439418,1.83892 -2.242588,2.68649 -0.62634,0.72417 -1.243841,1.47543 -1.698492,2.32074 -0.584617,1.20748 -1.246124,2.36775 -2.106355,3.40615 -0.914022,1.17208 -1.933142,2.26013 -2.702363,3.54087 -0.542601,0.94816 -1.089002,1.89425 -1.624298,2.8462 -0.516989,1.01219 -1.061209,2.02789 -1.776021,2.91555 -0.797523,0.8186 -1.694383,1.52633 -2.514482,2.32147 -0.979993,0.92436 -1.978107,1.82857 -2.977542,2.73177 -0.753721,0.75624 -1.347785,1.64039 -1.930373,2.53158 -0.671726,0.86825 -1.382537,1.6783 -2.192938,2.42047 -0.646582,0.71194 -1.269741,1.44324 -1.809953,2.24083 -0.642907,0.79443 -1.263671,1.60302 -1.97682,2.33896 -0.833602,0.90018 -1.54062,1.87088 -2.027877,3.00691 -0.462211,1.04816 -0.936308,2.09114 -1.586601,3.04059 -0.711131,0.94803 -1.468653,1.86409 -2.217577,2.78207 -0.629511,0.78438 -1.169508,1.61871 -1.661108,2.49583 -0.510872,0.89377 -1.108206,1.72493 -1.799367,2.49044 -0.780357,0.85421 -1.654726,1.62583 -2.243563,2.63873 -0.630658,0.87825 -1.419035,1.61096 -2.067701,2.47576 -0.969783,1.07826 -1.965732,2.13219 -2.944779,3.20181 -0.845561,0.93279 -1.636364,1.91476 -2.458299,2.86874 -0.762621,0.85076 -1.616761,1.61111 -2.402313,2.44057 -0.622815,0.68701 -1.166474,1.44405 -1.660459,2.22819 -0.566327,0.95314 -1.157167,1.888 -1.891657,2.72376 -0.739476,0.90611 -1.564357,1.74493 -2.209147,2.7264 -0.707163,1.0298 -1.485198,1.99641 -2.395221,2.85728 -0.798934,0.85028 -1.589532,1.71376 -2.251214,2.67807 -0.625276,0.90883 -1.269355,1.81759 -2.066078,2.5864 -0.696723,0.66458 -1.451906,1.26019 -2.157679,1.91551 -0.559287,0.50521 -1.108655,1.02461 -1.735188,1.44823 -0.66617,0.49309 -1.433814,0.86184 -1.974385,1.50605 -0.609232,0.69827 -1.169137,1.44296 -1.847591,2.07933 -0.691022,0.5751 -1.363491,1.17808 -2.170494,1.5926 -0.761864,0.52226 -1.537348,1.02318 -2.273181,1.58178 -0.692417,0.59816 -1.375919,1.21321 -2.142919,1.71491 -0.728197,0.53988 -1.525117,0.99965 -2.177243,1.6348 -0.751292,0.78067 -1.355158,1.68026 -2.076947,2.48633 -0.958381,1.07751 -1.983433,2.07638 -3.1755849,2.89923 -1.4058968,1.03458 -2.8130969,2.06686 -4.2304001,3.08576 -1.6104454,1.13882 -3.2606524,2.21352 -5.00222657,3.14496 -1.85815963,1.04166 -3.75003693,2.026 -5.55748513,3.1559 -0.8152116,0.54348 -1.5838004,-0.60941 -0.7685888,-1.15288 z"
       inkscape:connector-curvature="0" />
    <path
       style="fill:#fc9272;fill-opacity:1;stroke:none"
       id="path15971"
       d="m 137.49726,105.7886 c 0.49439,1.07751 1.07266,2.11742 1.64898,3.15349 0.4313,0.86781 0.95465,1.68612 1.55366,2.44714 0.63852,0.79609 1.32014,1.53256 2.06761,2.22321 0.76815,0.47573 1.11402,1.26606 1.54509,2.01455 0.40797,0.75989 0.91642,1.49018 1.49855,2.12851 0.7413,0.80468 1.38401,1.67408 1.97858,2.59033 0.65426,1.06525 1.18163,2.20026 1.60336,3.37589 0.35988,0.91762 0.64862,1.86757 1.20555,2.68849 0.46266,0.8245 1.12253,1.49203 1.74604,2.19124 0.81926,0.80566 1.3608,1.77271 1.81549,2.81322 0.44697,0.96282 1.01578,1.85855 1.60986,2.7357 0.57196,0.84075 0.99831,1.75695 1.38862,2.6922 0.34562,1.07548 0.62903,2.17792 0.81679,3.29307 0.14824,1.1323 0.1723,2.26917 0.33799,3.39908 0.19879,1.21478 0.2678,2.44424 0.30994,3.67271 0.0933,1.3415 -0.0129,2.66697 -0.18434,3.996 -0.10625,1.215 -0.35262,2.40943 -0.51932,3.61661 -0.0854,0.95497 -0.38835,1.86796 -0.53268,2.81395 -0.0861,0.89714 -0.10953,1.78777 -0.26645,2.67687 -0.17742,1.02691 -0.25966,2.06168 -0.43082,3.08993 -0.12978,1.15695 -0.42868,2.28165 -0.6088,3.43016 -0.19424,1.28871 -0.37444,2.58324 -0.60008,3.86731 -0.26035,1.41315 -0.3814,2.84363 -0.61659,4.26067 -0.20336,1.1779 -0.28358,2.36743 -0.48773,3.54485 -0.22002,0.98425 -0.21366,1.99901 -0.3859,2.98807 -0.2321,0.78637 -0.27051,1.60841 -0.4459,2.4042 -0.24939,0.61239 -0.16121,1.24975 -0.24847,1.88792 -0.0372,0.75659 -0.30209,1.41959 -0.66621,2.07172 -0.44436,0.55803 -0.87021,1.10313 -1.11121,1.77954 -0.39536,0.67591 -0.5063,1.44112 -0.72375,2.17718 -0.26612,0.70336 -0.35869,1.44401 -0.41509,2.18838 -0.0752,0.97688 -1.45667,0.87059 -1.38151,-0.10629 l 0,0 c 0.0658,-0.84464 0.17492,-1.68639 0.47119,-2.48602 0.24051,-0.75479 0.3324,-1.56021 0.75014,-2.25533 0.27941,-0.73276 0.67313,-1.38928 1.20054,-1.97313 0.28311,-0.50667 0.49101,-0.99227 0.50373,-1.58848 0.0974,-0.67215 -5.9e-4,-1.36233 0.27093,-2.00878 0.1923,-0.76734 0.18588,-1.58121 0.43276,-2.34093 0.19285,-0.97853 0.14115,-2.00038 0.38359,-2.97511 0.20415,-1.17379 0.27909,-2.3608 0.48601,-3.53478 0.23624,-1.42178 0.35519,-2.85765 0.6191,-4.27526 0.22761,-1.27464 0.4022,-2.56155 0.59573,-3.84134 0.18229,-1.15248 0.47881,-2.28128 0.61074,-3.44208 0.17198,-1.03293 0.25147,-2.07309 0.43331,-3.10446 0.15669,-0.87806 0.16087,-1.76043 0.26133,-2.646 0.14614,-0.93888 0.43635,-1.84639 0.52957,-2.79263 0.16673,-1.20308 0.4119,-2.39321 0.51765,-3.60411 0.16206,-1.25489 0.26594,-2.50421 0.17374,-3.77131 -0.0401,-1.1772 -0.10486,-2.3555 -0.29616,-3.5195 -0.16361,-1.12124 -0.19822,-2.24765 -0.33375,-3.37199 -0.16642,-1.01202 -0.43067,-2.00901 -0.72931,-2.98844 -0.35281,-0.85095 -0.73709,-1.68371 -1.25699,-2.44809 -0.64034,-0.94762 -1.25278,-1.91638 -1.73196,-2.95746 -0.39598,-0.90707 -0.85504,-1.74869 -1.57988,-2.44565 -0.66663,-0.74758 -1.36729,-1.46781 -1.86569,-2.34619 -0.606,-0.92501 -0.97448,-1.95705 -1.35683,-2.99026 -0.3812,-1.07607 -0.86739,-2.11137 -1.46066,-3.08719 -0.55554,-0.8564 -1.15321,-1.66932 -1.8483,-2.42001 -0.63659,-0.72023 -1.21684,-1.51452 -1.66822,-2.36333 -0.36882,-0.64472 -0.61485,-1.2841 -1.28411,-1.68695 -0.80093,-0.74148 -1.53276,-1.5321 -2.21699,-2.38525 -0.64151,-0.82018 -1.20969,-1.69639 -1.67461,-2.62926 -0.58534,-1.05408 -1.17336,-2.11158 -1.67717,-3.20692 -0.43816,-0.87633 0.80115,-1.49599 1.23931,-0.61966 z"
       inkscape:connector-curvature="0" />
    <path
       style="fill:#fc9272;fill-opacity:1;stroke:none"
       id="path15975"
       d="m 118.8786,98.385065 c 1.06375,0.5478 2.2377,0.767502 3.38232,1.069125 1.00939,0.231467 2.00965,0.505816 3.02256,0.72126 1.15441,0.13519 2.22282,0.53024 3.27111,1.00885 0.84297,0.47547 1.64029,1.0245 2.48997,1.48807 0.70084,0.51745 1.51449,0.83501 2.26511,1.26535 0.7325,0.38311 1.35382,0.92502 1.9719,1.46427 0.70786,0.55511 1.27708,1.25395 1.91396,1.88247 0.25795,0.21512 0.43885,0.56219 0.71302,0.75877 0.7303,0.65314 -0.19337,1.68595 -0.92368,1.03281 l 0,0 c -0.27003,-0.25453 -0.5182,-0.5329 -0.76638,-0.8091 -0.61187,-0.61225 -1.16754,-1.28176 -1.84897,-1.82186 -0.5505,-0.48227 -1.10013,-0.97186 -1.75656,-1.30967 -0.73323,-0.43502 -1.55049,-0.72651 -2.23456,-1.24809 -0.81825,-0.45057 -1.59717,-0.96473 -2.39937,-1.44263 -0.95779,-0.43745 -1.92853,-0.79879 -2.98618,-0.91447 -1.03376,-0.22344 -2.05597,-0.49819 -3.0864,-0.73654 -1.23539,-0.32845 -2.50126,-0.57195 -3.64751,-1.169302 -0.87632,-0.438163 -0.25667,-1.677476 0.61966,-1.239313 z"
       inkscape:connector-curvature="0" />
    <path
       style="fill:#fc9272;fill-opacity:1;stroke:none"
       id="path15977"
       d="m 72.759869,67.112205 c 0.975713,0.889295 1.83917,1.892111 2.816087,2.779395 0.895467,0.871309 1.999418,1.452582 2.971239,2.227235 0.738454,0.561328 1.45839,1.155358 2.114637,1.811837 0.444307,0.487127 0.933341,0.852254 1.518916,1.150869 0.781138,0.426608 1.615628,0.76205 2.46287,1.033645 1.032174,0.198194 2.045844,0.369409 3.051183,0.69026 1.050923,0.390295 1.952858,1.018828 2.8071,1.730121 0.676419,0.7109 1.400753,1.372241 2.171062,1.979225 0.582041,0.401379 1.198108,0.736069 1.818506,1.073461 0.606242,0.377457 1.110895,0.885666 1.707885,1.275096 0.65758,0.542838 1.400988,0.960939 2.104355,1.438274 0.654152,0.605838 1.416096,1.070967 2.098241,1.640973 0.43353,0.540824 0.87941,1.033175 1.39701,1.487534 0.19083,0.07228 0.30215,0.281293 0.4916,0.351856 0.15986,0.05954 -0.1417,-0.08205 -0.0271,-0.07453 0.10292,0.0068 0.20412,0.02981 0.30617,0.04471 0.96402,0.174915 0.71666,1.538248 -0.24737,1.363333 l 0,0 c -0.26912,-0.09438 0.43989,0.147859 -0.43794,-0.04756 -0.40514,-0.09019 -0.67,-0.378412 -1.00147,-0.598328 -0.50839,-0.450255 -0.980951,-0.913137 -1.376505,-1.469814 -0.635469,-0.54891 -1.377235,-0.96418 -1.981817,-1.552455 -0.697994,-0.47586 -1.439968,-0.888 -2.091692,-1.429764 -0.559037,-0.376121 -1.054732,-0.826444 -1.604987,-1.213015 -0.688223,-0.376591 -1.37324,-0.750889 -2.015672,-1.20403 -0.775601,-0.618072 -1.522464,-1.27362 -2.19824,-2.001338 -0.715374,-0.599038 -1.462973,-1.134457 -2.340846,-1.473908 -1.006874,-0.322167 -2.025968,-0.466866 -3.055745,-0.691727 -0.918855,-0.299305 -1.82643,-0.658795 -2.675205,-1.122392 -0.705005,-0.371126 -1.324331,-0.820486 -1.866038,-1.406783 -0.608967,-0.626787 -1.305347,-1.16883 -1.994342,-1.703511 -0.99134,-0.796016 -2.131186,-1.382576 -3.03932,-2.285394 -0.951841,-0.870846 -1.809065,-1.836643 -2.748105,-2.721314 -0.765066,-0.612053 0.100507,-1.694019 0.865573,-1.081967 z"
       inkscape:connector-curvature="0" />
    <path
       style="fill:#fc9272;fill-opacity:1;stroke:none"
       id="path15979"
       d="m 42.657785,14.76317 c -0.135063,1.062947 -0.139295,2.179288 0.03646,3.239095 0.148443,0.886047 0.483433,1.718995 0.693437,2.590142 0.127136,0.930133 0.364426,1.837922 0.524521,2.762416 0.150138,0.950991 0.176206,1.914616 0.193225,2.875323 -0.0047,0.79599 0.224634,1.568781 0.333607,2.354997 0.08313,0.562807 0.08287,1.118776 0.236567,1.666308 0.289741,0.837198 0.139417,1.70129 0.0459,2.557134 -0.106423,0.973965 -1.483818,0.82346 -1.377395,-0.150505 l 0,0 c 0.07476,-0.684219 0.22922,-1.367235 -0.0037,-2.036238 -0.167594,-0.609928 -0.198213,-1.222565 -0.274062,-1.847868 -0.114645,-0.840551 -0.3631,-1.66618 -0.346321,-2.519435 -0.01557,-0.890038 -0.03711,-1.782951 -0.173312,-2.6644 -0.153483,-0.895426 -0.387884,-1.774139 -0.506659,-2.675505 -0.214871,-0.907294 -0.575247,-1.773001 -0.714902,-2.69902 -0.179683,-1.210463 -0.204663,-2.468173 -0.03413,-3.680234 0.161072,-0.966431 1.527813,-0.738641 1.366741,0.22779 z"
       inkscape:connector-curvature="0" />
    <path
       style="fill:#fc9272;fill-opacity:1;stroke:none"
       id="path3002"
       d="m 42.344431,31.60318 c 0.534737,1.197333 1.027384,2.422007 1.635287,3.585436 0.621944,1.143845 1.444387,2.15171 2.140023,3.24974 0.515885,1.066099 1.196067,2.004581 1.952156,2.90613 0.732659,0.694527 1.487316,1.351502 2.159064,2.107435 0.63004,0.847333 1.230313,1.715488 1.829448,2.584393 0.338239,0.705895 0.838228,1.286727 1.322952,1.889121 0.502263,0.519427 1.159638,0.867177 1.773146,1.240846 0.733001,0.297878 1.32364,0.803769 1.937392,1.283781 0.638478,0.404965 1.409026,0.51161 2.130141,0.70213 1.006515,0.306189 1.861249,0.903695 2.600555,1.636319 0.644586,0.606312 1.354169,1.135774 2.063725,1.662909 0.743971,0.56862 1.534916,1.066285 2.151695,1.778036 0.572055,0.765037 0.97444,1.639384 1.542582,2.407333 0.421303,0.60863 0.911161,1.170649 1.421137,1.706453 0.673366,0.711697 -0.333126,1.66398 -1.006492,0.952283 l 0,0 C 67.449516,60.713686 66.917108,60.109588 66.461978,59.451701 65.923054,58.700753 65.498322,57.879691 64.977219,57.118463 64.465313,56.466176 63.683385,56.098332 63.062018,55.563668 62.298543,54.996471 61.536159,54.424197 60.845291,53.768732 60.285505,53.20369 59.635831,52.735956 58.870035,52.491799 57.964916,52.25256 57.011981,52.102562 56.237347,51.539184 55.66691,51.088485 55.120748,50.623338 54.433986,50.348581 53.684339,49.889123 52.888158,49.460207 52.30165,48.791327 51.800467,48.161229 51.270942,47.556499 50.919058,46.821926 50.353423,45.998561 49.779329,45.181639 49.19445,44.371439 48.51554,43.60472 47.73365,42.957627 47.010214,42.234821 46.214947,41.286444 45.493064,40.29946 44.949189,39.179757 44.232839,38.048475 43.380151,37.012631 42.750014,35.827128 42.10541,34.578903 41.560197,33.275648 41.01215,31.983831 40.742989,31.041766 42.07527,30.661115 42.344431,31.60318 z"
       inkscape:connector-curvature="0" />
    <path
       style="fill:#fc9272;fill-opacity:1;stroke:none"
       id="path3004"
       d="m 73.890356,92.552324 c -0.51266,1.048371 -0.810272,2.173514 -1.000339,3.319512 -0.242278,0.974373 -0.438563,1.954158 -0.537146,2.953491 -0.24437,1.025835 -0.329528,2.078163 -0.521502,3.112233 -0.17199,1.00329 -0.418588,1.98667 -0.652558,2.97627 -0.19263,0.95958 -0.472515,1.90007 -0.771178,2.83143 -0.266985,0.98157 -0.644083,1.92986 -1.072881,2.85101 -0.308378,0.81124 -0.745146,1.5686 -0.993942,2.40168 -0.28852,0.73724 -0.600509,1.46716 -0.838309,2.22284 -0.346414,0.59173 -0.411599,1.1303 -0.392118,1.7917 0.05298,0.9232 -0.168107,1.83295 -0.413336,2.71543 -0.358193,0.95527 -0.68054,1.92239 -1.089279,2.85776 -0.559608,0.9177 -1.120725,1.83375 -1.675872,2.7541 -0.483608,0.9058 -1.09258,1.73577 -1.585464,2.63634 -0.510886,1.04525 -1.132899,2.01785 -1.759952,2.99484 -0.77911,0.96505 -1.51561,1.94938 -2.123907,3.03102 -0.533432,1.06623 -1.23609,2.04217 -1.763718,3.10962 -0.540693,1.00856 -1.043991,2.04234 -1.641414,3.0189 -0.506828,0.79183 -0.959311,1.61423 -1.418911,2.43367 -0.445859,0.82908 -0.720091,1.73322 -1.08764,2.59544 -0.394434,0.90268 -0.85405,1.77527 -1.289457,2.65866 -0.60731,1.18664 -1.402602,2.26077 -2.075596,3.40874 -0.72742,1.3558 -1.311879,2.77959 -2.007329,4.15247 -0.740797,1.3563 -1.510193,2.69494 -2.280988,4.03396 -0.579403,1.07545 -1.104067,2.18179 -1.610495,3.29356 -0.329703,1.09543 -0.985486,2.01305 -1.613644,2.94912 -0.58225,0.83993 -1.101754,1.72505 -1.768257,2.50253 -0.489812,0.59898 -1.064232,1.11751 -1.575797,1.69725 -0.492547,0.60731 -0.906025,1.27101 -1.363268,1.90348 -0.456679,0.68444 -0.906072,1.37135 -1.373047,2.04917 -0.599305,0.72842 -1.034011,1.55165 -1.445879,2.39299 -0.257599,0.68063 -0.573935,1.33788 -0.824411,2.02138 -0.340051,0.91886 -1.639512,0.43796 -1.299462,-0.4809 l 0,0 c 0.270753,-0.72576 0.598704,-1.42808 0.879423,-2.14975 0.441933,-0.90255 0.911517,-1.78598 1.549536,-2.57015 0.474475,-0.68783 0.929163,-1.38576 1.394586,-2.07953 0.488876,-0.66181 0.916346,-1.36954 1.444134,-2.00409 0.510257,-0.57691 1.080219,-1.09504 1.569478,-1.69004 0.642289,-0.72062 1.097921,-1.58563 1.662683,-2.36481 0.587695,-0.87451 1.201936,-1.72389 1.503283,-2.75167 0.525675,-1.15101 1.06757,-2.29756 1.670461,-3.41009 0.759105,-1.31724 1.515039,-2.63505 2.245696,-3.9687 0.70877,-1.39826 1.299349,-2.85115 2.048681,-4.22815 0.658221,-1.11779 1.426441,-2.16858 2.027625,-3.31983 0.425808,-0.86224 0.874535,-1.71431 1.260186,-2.59537 0.396439,-0.90076 0.666133,-1.86047 1.151227,-2.72387 0.469466,-0.83573 0.931492,-1.67472 1.447937,-2.48296 0.583895,-0.93673 1.054055,-1.94416 1.582179,-2.91273 0.549503,-1.08259 1.240844,-2.08783 1.795356,-3.16904 0.623669,-1.10269 1.357862,-2.12251 2.164994,-3.0992 0.610962,-0.95016 1.216981,-1.8953 1.711783,-2.91395 0.505741,-0.9147 1.115969,-1.76478 1.613019,-2.68412 0.524702,-0.86936 1.044274,-1.74146 1.593705,-2.59569 0.38628,-0.87349 0.677816,-1.78178 1.022901,-2.67167 0.208687,-0.74948 0.412568,-1.5216 0.36318,-2.30607 -0.02053,-0.79581 0.05068,-1.54251 0.456697,-2.24948 0.24018,-0.74939 0.536303,-1.48006 0.833738,-2.20818 0.277807,-0.89308 0.719239,-1.716 1.063962,-2.58375 0.407629,-0.86631 0.756855,-1.76245 1.008509,-2.68697 0.287729,-0.89726 0.558989,-1.80266 0.742295,-2.72765 0.229871,-0.96906 0.472293,-1.9314 0.639389,-2.91439 0.191852,-0.9926 0.254656,-2.008634 0.5042,-2.992159 0.103472,-1.02943 0.293913,-2.042111 0.549352,-3.044982 0.216383,-1.281099 0.551525,-2.539051 1.127589,-3.710311 0.438163,-0.876326 1.677476,-0.25667 1.239312,0.619656 z"
       inkscape:connector-curvature="0" />
    <path
       style="fill:#fc9272;fill-opacity:1;stroke:none"
       id="path3006"
       d="m 67.800286,55.770401 c 0.434669,-1.227602 0.995911,-2.402305 1.532254,-3.586936 0.442395,-0.846491 0.997415,-1.624905 1.307145,-2.533229 0.357249,-0.853725 0.545763,-1.759992 0.797464,-2.647267 0.168635,-0.857719 0.370358,-1.700391 0.591542,-2.546113 0.328584,-0.942584 0.825443,-1.821336 1.306285,-2.693997 0.424889,-0.884886 0.809951,-1.790166 1.198008,-2.692313 0.350391,-0.858719 0.67087,-1.714579 0.840519,-2.628241 0.07489,-1.015767 0.267001,-1.988308 0.672232,-2.923795 0.535674,-0.841131 0.922245,-1.755286 1.34522,-2.654113 0.344839,-0.8332 0.741893,-1.651036 1.164636,-2.447878 0.427971,-0.673011 0.501585,-1.45625 0.675166,-2.21306 0.135531,-0.846337 0.488246,-1.628843 0.696966,-2.455205 0.187123,-0.842686 0.42253,-1.668035 0.545974,-2.524399 0.04437,-0.937158 0.264957,-1.848646 0.411032,-2.772251 0.06877,-0.9415 0.21681,-1.864451 0.389389,-2.791652 0.162595,-0.879562 0.205734,-1.773572 0.232588,-2.66563 0.01138,-0.954265 0.24118,-1.888204 0.355316,-2.83362 0.09247,-0.935936 0.335846,-1.8464769 0.459258,-2.7792493 0.122395,-0.9054636 0.06239,-1.8219903 0.185267,-2.7255464 0.08172,-0.3928554 0.159735,-0.7860057 0.228811,-1.1812544 0.169337,-0.9650177 1.534078,-0.7255386 1.364741,0.2394791 l 0,0 c -0.06741,0.3827584 -0.139783,0.7642652 -0.222797,1.1440103 -0.14739,0.8906741 -0.02667,1.8126996 -0.182569,2.7063325 -0.124375,0.9273867 -0.360177,1.8335667 -0.457204,2.7631132 -0.110181,0.904024 -0.327612,1.797513 -0.345866,2.708716 -0.02938,0.963053 -0.07896,1.92791 -0.25536,2.877265 -0.17052,0.915611 -0.313962,1.825255 -0.383107,2.75522 -0.146175,0.918108 -0.364686,1.823143 -0.40839,2.754892 -0.133094,0.904581 -0.374341,1.77853 -0.574826,2.668398 -0.21149,0.816321 -0.550025,1.590518 -0.689796,2.42589 -0.207523,0.873001 -0.305971,1.777126 -0.803675,2.553706 -0.419572,0.770475 -0.792866,1.574319 -1.131995,2.383027 -0.418674,0.888524 -0.795398,1.797701 -1.332017,2.625219 -0.380082,0.831278 -0.490553,1.715723 -0.577459,2.619467 -0.193824,1.012457 -0.535915,1.968063 -0.92946,2.919222 -0.406649,0.94317 -0.80697,1.891127 -1.257518,2.813799 -0.427066,0.772327 -0.863433,1.551251 -1.179062,2.375797 -0.224559,0.854819 -0.423594,1.706326 -0.598857,2.57292 -0.259227,0.913738 -0.455093,1.846873 -0.822471,2.726323 -0.335857,0.943363 -0.860296,1.779883 -1.352984,2.647729 -0.508822,1.12279 -1.039198,2.236461 -1.462119,3.395875 -0.269161,0.942065 -1.601442,0.561414 -1.332281,-0.380651 z"
       inkscape:connector-curvature="0" />
    <path
       style="fill:#fc9272;fill-opacity:1;stroke:none"
       id="path3008"
       d="m 58.442073,20.925764 c 0.865789,0.687556 1.814712,1.257154 2.68715,1.934633 0.816828,0.502547 1.395622,1.264547 2.048407,1.946581 0.650443,0.608343 1.453318,0.998764 2.195956,1.474383 0.689051,0.460279 1.382043,0.925291 2.047838,1.41981 0.61687,0.413683 1.151961,0.930784 1.722549,1.40371 0.625561,0.432747 1.233669,0.896464 1.788979,1.417161 0.503172,0.377507 0.863325,0.923479 1.399464,1.255742 0.650399,0.285317 1.377198,0.267574 2.067524,0.380122 0.843203,0.152829 1.611904,0.532809 2.451285,0.707864 0.892606,0.223661 1.765024,0.476053 2.597671,0.871269 0.838746,0.47957 1.657988,0.987271 2.472332,1.505957 0.642867,0.37064 1.293404,0.721612 1.946097,1.075201 0.770993,0.351452 1.363474,0.914673 1.971133,1.487348 0.328508,0.325436 0.663705,0.638326 1.020701,0.931961 0.753973,0.625667 -0.130854,1.691946 -0.884827,1.066279 l 0,0 C 85.597313,39.488674 85.23511,39.162249 84.888152,38.813904 84.363418,38.319379 83.881886,37.828918 83.206167,37.535874 82.525789,37.165709 81.847048,36.798593 81.176269,36.411288 80.408813,35.921416 79.635134,35.445274 78.848481,34.985786 78.118703,34.62894 77.346001,34.42793 76.562961,34.221046 75.742988,34.043902 74.983523,33.70539 74.169246,33.524159 73.288722,33.368663 72.358567,33.408032 71.562991,32.930109 70.976977,32.523517 70.517913,31.98663 69.977063,31.52511 69.455148,31.015645 68.849045,30.598056 68.259686,30.171608 67.706137,29.71266 67.189103,29.209207 66.589684,28.809357 65.956216,28.327303 65.28132,27.890521 64.622361,27.445633 63.793141,26.90566 62.886214,26.472992 62.176098,25.764475 61.569965,25.129804 61.039187,24.41772 60.277439,23.953253 c -0.874093,-0.684192 -1.833317,-1.251006 -2.70094,-1.945522 -0.765066,-0.612053 0.100508,-1.694019 0.865574,-1.081967 z"
       inkscape:connector-curvature="0" />
    <path
       style="fill:#fc9272;fill-opacity:1;stroke:none"
       id="path3010"
       d="m 167.96265,101.2607 c 0.33452,1.0682 0.7644,2.10591 1.16521,3.1514 0.3265,0.92596 0.6282,1.87477 1.10013,2.73913 0.46853,0.58264 1.02422,1.07492 1.48004,1.66932 0.58242,0.79866 1.04929,1.67739 1.48884,2.56095 0.32271,0.82907 0.57808,1.67527 1.03833,2.44219 0.64153,0.8549 1.32079,1.68254 1.98874,2.51815 0.62152,0.80979 1.2232,1.62713 1.77504,2.48641 0.46135,0.86975 1.00501,1.68827 1.54847,2.50699 0.50817,0.77024 1.1647,1.42568 1.78245,2.10792 0.69454,0.78195 1.14899,1.73385 1.82731,2.52552 0.66886,0.59435 1.53461,0.87963 2.28533,1.35167 0.90624,0.50309 1.61827,1.24286 2.2523,2.04958 0.54685,0.70505 1.12785,1.37686 1.70397,2.0581 0.72926,0.69079 1.51062,1.32011 2.20297,2.04925 0.73001,0.6892 1.30207,1.52069 2.02799,2.21305 0.78483,0.68513 1.52938,1.41178 2.30156,2.11147 0.72604,0.65788 -0.20434,1.68465 -0.93038,1.02677 l 0,0 c -0.7829,-0.7094 -1.53746,-1.4461 -2.33304,-2.1409 -0.73511,-0.71525 -1.33861,-1.54543 -2.07433,-2.25991 -0.70341,-0.75271 -1.52955,-1.3721 -2.25276,-2.10501 -0.58818,-0.69553 -1.17906,-1.38421 -1.73962,-2.10204 -0.53033,-0.69078 -1.13548,-1.31026 -1.90568,-1.73338 -0.85491,-0.56097 -1.89213,-0.84289 -2.59774,-1.62564 -0.65757,-0.78989 -1.1403,-1.6958 -1.79502,-2.48856 -0.66406,-0.7335 -1.36658,-1.44165 -1.91005,-2.2721 -0.54641,-0.82477 -1.09724,-1.64731 -1.55961,-2.52405 -0.52598,-0.81902 -1.09837,-1.59863 -1.69157,-2.37012 -0.70813,-0.88629 -1.43504,-1.7597 -2.09927,-2.67837 -0.46754,-0.80093 -0.78107,-1.65903 -1.08676,-2.53146 -0.39901,-0.80769 -0.8257,-1.61046 -1.3535,-2.34188 -0.48581,-0.65896 -1.1531,-1.15537 -1.59617,-1.85109 -0.48518,-0.92322 -0.83969,-1.90886 -1.17183,-2.89617 -0.40775,-1.06459 -0.84392,-2.12175 -1.18583,-3.20902 -0.30983,-0.92949 1.00466,-1.36765 1.31448,-0.43817 z"
       inkscape:connector-curvature="0" />
    <path
       style="fill:#fc9272;fill-opacity:1;stroke:none"
       id="path3012"
       d="M 57.485894,21.103891 C 56.309821,20.170374 55.118669,19.258431 53.974637,18.284838 53.036469,17.447649 52.100815,16.608749 51.125172,15.815298 50.373807,15.147679 49.456768,14.725834 48.630053,14.162624 47.715755,13.553357 47.072516,12.659674 46.44987,11.774067 45.876892,11.024555 45.209424,10.352939 44.631636,9.6053398 44.03486,8.8282984 45.133763,7.9843305 45.730538,8.7613719 l 0,0 c 0.584401,0.7667756 1.281099,1.4400671 1.852881,2.2158671 0.527215,0.750138 1.055416,1.522571 1.828475,2.041447 0.85611,0.587269 1.813668,1.019024 2.587605,1.721707 0.983493,0.800106 1.927994,1.644753 2.873308,2.489381 1.132984,0.964827 2.313982,1.866919 3.478661,2.79215 0.765065,0.612053 -0.100508,1.69402 -0.865574,1.081967 z"
       inkscape:connector-curvature="0" />
    <path
       style="fill:#fc9272;fill-opacity:1;stroke:none"
       id="path3014"
       d="m 41.247801,5.2952131 c 0.648748,-0.8972866 1.173128,-1.8607243 1.676893,-2.8422393 0.381505,-0.7198086 0.559397,-1.5193432 0.86321,-2.26955569 0.06588,-0.71881873 0.388648,-0.20867754 1.223581,0.45229963 0.03231,0.025578 -0.134657,0.24368404 -0.337262,0.52519366 -0.353056,0.509846 -0.634144,1.0583451 -0.909964,1.6129174 -0.27603,0.7752539 -0.650061,1.5051335 -1.008192,2.2445431 -0.309307,0.7249682 -0.650197,1.4366942 -1.008325,2.1391333 -0.338867,0.6918372 -0.59289,1.397292 -0.734117,2.1543608 -0.183649,0.842882 0.01061,1.675389 0.127634,2.512138 0.192215,0.746082 0.720414,1.342786 1.171996,1.947979 0.343503,0.46702 0.686669,0.933714 1.021842,1.407021 0.565033,0.800419 -0.566931,1.599497 -1.131964,0.799078 l 0,0 C 41.876358,15.51348 41.538646,15.05757 41.202406,14.600164 40.610882,13.806013 39.960919,13.015613 39.769011,12.015847 39.631264,11.030141 39.431036,10.044284 39.652527,9.0524785 c 0.171409,-0.8842657 0.462288,-1.7164606 0.860964,-2.524651 0.354371,-0.6941843 0.691903,-1.3968733 0.996058,-2.1144844 0.361599,-0.7435663 0.733091,-1.4783483 1.014422,-2.2572162 0.31436,-0.6302694 0.640906,-1.25132552 1.044255,-1.82986469 0.09864,-0.11738698 0.09305,-0.38322021 0.246289,-0.38849326 1.788915,-0.06155831 1.440147,0.02784845 1.249694,0.78501481 C 44.713979,1.4878527 44.595453,2.3545498 44.157023,3.0864048 43.609897,4.1491305 43.038313,5.1930951 42.329768,6.1607863 41.717715,6.9258522 40.635749,6.0602789 41.247801,5.2952131 z"
       inkscape:connector-curvature="0" />
    <path
       style="fill:#fc9272;fill-opacity:1;stroke:none"
       id="path3016"
       d="m 33.085515,22.608513 c 0.08738,-1.425507 0.49691,-2.785183 0.857872,-4.157077 0.306568,-1.141358 0.765304,-2.217831 1.400735,-3.212412 0.526183,-0.827498 1.1511,-1.608189 1.822364,-2.324108 0.762566,-0.907267 1.620773,-1.721637 2.438458,-2.577224 0.718472,-0.7667017 1.231012,-1.6734894 1.732719,-2.5874385 0.195101,-0.446011 0.110656,-0.2215595 0.255218,-0.6726431 0.308059,-0.930072 1.62338,-0.4944109 1.315321,0.4356612 l 0,0 c -0.208577,0.6152999 -0.08964,0.3135771 -0.356721,0.905199 -0.561552,1.0174872 -1.140508,2.0255064 -1.944928,2.8766394 -0.816606,0.85414 -1.673084,1.667202 -2.434543,2.573112 -0.620218,0.644734 -1.180181,1.370242 -1.663131,2.121275 -0.564703,0.867301 -0.951821,1.816759 -1.22553,2.814601 -0.347702,1.320743 -0.74696,2.626955 -0.826166,4.000367 -0.13856,0.969915 -1.510227,0.773963 -1.371668,-0.195952 z"
       inkscape:connector-curvature="0" />
    <path
       style="fill:#fc9272;fill-opacity:1;stroke:none"
       id="path3018"
       d="m 115.30955,9.8609074 c 1.01406,-0.7904463 2.1953,-1.2549913 3.4336,-1.5518353 1.29758,-0.1766617 2.54871,0.1401315 3.72538,0.6666641 1.08929,0.4365525 2.17689,0.8756975 3.26024,1.3273988 0.91727,0.280829 1.8132,0.51675 2.68142,0.933908 0.75759,0.461307 1.40229,1.07656 2.08435,1.638566 0.68276,0.529245 1.46407,0.879897 2.25573,1.210533 0.76425,0.285946 1.4876,0.630891 2.29207,0.791074 0.7898,0.215965 1.54987,0.520989 2.33307,0.756377 0.79506,0.25279 1.45703,0.722862 2.11287,1.218395 0.56231,0.553797 1.20232,1.016805 1.80514,1.522541 0.66541,0.567449 1.44409,0.966612 2.17096,1.442975 0.65044,0.456187 1.43319,0.616799 2.18275,0.83827 0.90961,0.16798 1.72722,0.591698 2.57538,0.933512 0.87783,0.275567 1.73468,0.614985 2.56911,1.001926 0.91161,0.551317 1.80704,1.117126 2.76629,1.585568 0.91942,0.459908 1.83565,0.927861 2.76523,1.367233 0.99399,0.524351 1.78796,1.331744 2.58212,2.11063 0.7082,0.80323 1.44697,1.589966 2.26894,2.278076 0.86634,0.720369 1.74833,1.414273 2.68253,2.04465 0.82585,0.59225 1.7135,1.087714 2.5921,1.595198 0.84837,0.490102 0.15526,1.689881 -0.69311,1.199778 l 0,0 c -0.90671,-0.523892 -1.82203,-1.03664 -2.67493,-1.647023 -0.97384,-0.659275 -1.89674,-1.380881 -2.80006,-2.133559 -0.84351,-0.716223 -1.621,-1.512183 -2.34582,-2.348032 -0.68366,-0.670906 -1.36112,-1.376321 -2.2048,-1.847446 -0.93468,-0.443405 -1.85748,-0.912147 -2.78229,-1.375454 -0.94883,-0.467033 -1.84889,-1.009656 -2.74156,-1.573744 -0.81184,-0.380654 -1.65069,-0.700506 -2.50457,-0.973817 -0.80557,-0.328557 -1.58145,-0.730927 -2.44751,-0.888788 -0.88084,-0.260709 -1.79243,-0.469153 -2.55376,-1.011024 -0.76712,-0.512373 -1.60104,-0.928064 -2.30086,-1.540207 -0.58037,-0.493831 -1.21047,-0.932317 -1.74765,-1.476566 -0.52484,-0.398067 -1.04038,-0.789707 -1.67801,-0.996945 -0.74182,-0.226 -1.465,-0.505246 -2.20909,-0.72501 -0.89164,-0.18601 -1.70567,-0.542243 -2.5504,-0.870808 -0.91475,-0.385006 -1.81627,-0.799984 -2.60101,-1.418987 -0.59707,-0.492016 -1.16476,-1.021039 -1.80345,-1.459062 -0.84522,-0.406401 -1.72602,-0.607537 -2.61462,-0.903948 -1.09683,-0.457755 -2.19879,-0.900675 -3.30086,-1.345107 -0.8891,-0.4137538 -1.84388,-0.6650589 -2.83243,-0.5793471 -1.04047,0.2420398 -2.03287,0.6264851 -2.88692,1.2854031 -0.76506,0.612053 -1.63064,-0.469914 -0.86557,-1.0819666 z"
       inkscape:connector-curvature="0" />
    <path
       style="fill:#fc9272;fill-opacity:1;stroke:none"
       id="path3020"
       d="m 120.29945,7.2479587 c -1.10042,-0.6628475 -1.90546,-1.6303327 -2.71556,-2.6008502 -0.43948,-0.5672347 -0.82403,-1.1768228 -1.20203,-1.7864963 -0.5151,-0.8334323 0.66355,-1.5618895 1.17865,-0.7284573 l 0,0 c 0.34193,0.5552646 0.69325,1.1078632 1.08729,1.6272811 0.75147,0.9010513 1.48898,1.7980945 2.51723,2.4065562 0.76506,0.6120527 -0.10051,1.6940192 -0.86558,1.0819665 z"
       inkscape:connector-curvature="0" />
    <path
       style="fill:#fc9272;fill-opacity:1;stroke:none"
       id="path3022"
       d="m 115.32777,-3.2114003 c 0.50301,1.2225587 1.21382,2.34026124 1.90991,3.45883526 0.65441,0.99699474 1.3168,1.98806504 1.97232,2.98437754 0.60483,0.9438358 1.27505,1.8405338 1.91915,2.7569067 0.56902,0.8257632 1.06658,1.6936673 1.74186,2.4405263 0.36454,0.303637 0.74458,0.5852958 1.10657,0.8916969 0.7443,0.6371428 -0.15675,1.6897426 -0.90105,1.0525996 l 0,0 c -0.40455,-0.351723 -0.85073,-0.6519125 -1.24033,-1.0228636 -0.70025,-0.7954866 -1.25592,-1.6865637 -1.8414,-2.5662686 -0.65009,-0.928852 -1.33003,-1.8357804 -1.94236,-2.7910721 -0.66187,-1.0061976 -1.3308,-2.0070282 -1.99133,-3.01409472 -0.71811,-1.15510856 -1.45142,-2.30985008 -1.97265,-3.57098708 -0.43816,-0.8763261 0.80115,-1.4959823 1.23931,-0.6196562 z"
       inkscape:connector-curvature="0" />
    <path
       style="fill:#fc9272;fill-opacity:1;stroke:none"
       id="path3024"
       d="m 82.219814,3.9773314 c 0.567388,-1.1613364 1.066564,-2.3487081 1.496652,-3.56751006 0.33836,-1.05597691 0.705972,-2.09499104 0.897617,-3.18967764 0.04845,-0.569873 0.19944,-1.1246402 0.379051,-1.6653712 0.313437,-0.9282733 1.626214,-0.4850061 1.312777,0.4432672 l 0,0 c -0.163551,0.4735709 -0.286834,0.9631211 -0.32749,1.4638648 -0.209256,1.1687463 -0.5878,2.2831674 -0.955595,3.40975313 -0.450529,1.27218227 -0.970908,2.51275107 -1.5637,3.72532997 -0.438163,0.8763261 -1.677475,0.2566699 -1.239312,-0.6196562 z"
       inkscape:connector-curvature="0" />
    <path
       style="fill:#fc9272;fill-opacity:1;stroke:none"
       id="path3026"
       d="m 79.602436,34.334515 c -0.906719,-1.035075 -1.870682,-2.007911 -2.65075,-3.146976 -0.624544,-1.021786 -1.244665,-2.044985 -1.849459,-3.078663 -0.472653,-0.776126 -1.130898,-1.410782 -1.725766,-2.091114 -0.623587,-0.758798 -1.098438,-1.60955 -1.606778,-2.443033 -0.408092,-0.754544 -0.746931,-1.539617 -1.152805,-2.295446 -0.432693,-0.755374 -0.855136,-1.513334 -1.305497,-2.258017 -0.312862,-0.613905 -0.652212,-1.230547 -1.122103,-1.739684 -0.480663,-0.575178 -0.845369,-1.224787 -1.185441,-1.889148 -0.385304,-0.866124 -0.830707,-1.702968 -1.174524,-2.58703 -0.150472,-0.666111 -0.100645,-0.337089 -0.155898,-0.986075 -0.07072,-0.977206 1.311256,-1.077223 1.381979,-0.100017 l 0,0 c 0.02032,0.392858 -0.0017,0.197091 0.0666,0.587247 0.321455,0.840833 0.755974,1.630209 1.115388,2.454815 0.28684,0.560996 0.584571,1.113314 0.988459,1.600747 0.508402,0.587082 0.934727,1.242042 1.271449,1.942562 0.461937,0.765187 0.896464,1.543341 1.340392,2.319232 0.394447,0.734994 0.729948,1.494842 1.117021,2.232762 0.462857,0.768039 0.899288,1.546829 1.464919,2.249116 0.652104,0.746035 1.369827,1.445365 1.878647,2.303546 0.588631,1.006768 1.192841,2.003 1.799194,2.999055 0.751744,1.114824 1.718276,2.040672 2.586941,3.060548 0.612053,0.765066 -0.469914,1.630639 -1.081967,0.865573 z"
       inkscape:connector-curvature="0" />
  </g>
</svg>
