<?xml version="1.0" encoding="UTF-8" standalone="no"?>
<!-- Created with Inkscape (http://www.inkscape.org/) -->

<svg
   xmlns:dc="http://purl.org/dc/elements/1.1/"
   xmlns:cc="http://creativecommons.org/ns#"
   xmlns:rdf="http://www.w3.org/1999/02/22-rdf-syntax-ns#"
   xmlns:svg="http://www.w3.org/2000/svg"
   xmlns="http://www.w3.org/2000/svg"
   xmlns:xlink="http://www.w3.org/1999/xlink"
   xmlns:sodipodi="http://sodipodi.sourceforge.net/DTD/sodipodi-0.dtd"
   xmlns:inkscape="http://www.inkscape.org/namespaces/inkscape"
   id="svg2"
   version="1.1"
   inkscape:version="0.48.4 r9939"
   width="1244"
   height="1864"
   sodipodi:docname="46693-842.svg">
  <metadata
     id="metadata8">
    <rdf:RDF>
      <cc:Work
         rdf:about="">
        <dc:format>image/svg+xml</dc:format>
        <dc:type
           rdf:resource="http://purl.org/dc/dcmitype/StillImage" />
        <dc:title />
      </cc:Work>
    </rdf:RDF>
  </metadata>
  <defs
     id="defs6" />
  <sodipodi:namedview
     pagecolor="#ffffff"
     bordercolor="#666666"
     borderopacity="1"
     objecttolerance="10"
     gridtolerance="10"
     guidetolerance="10"
     inkscape:pageopacity="0"
     inkscape:pageshadow="2"
     inkscape:window-width="1280"
     inkscape:window-height="732"
     id="namedview4"
     showgrid="false"
     inkscape:zoom="0.53"
     inkscape:cx="882.52315"
     inkscape:cy="1414.2553"
     inkscape:window-x="-8"
     inkscape:window-y="-8"
     inkscape:window-maximized="1"
     inkscape:current-layer="layer1" />
  <image
     width="1244"
     height="1864"
     xlink:href="file:///C:/Users/Surface/Desktop/CHI2013%20BI%20GitRepo/public-dataset/input/cropped-display/46693-842.png"
     id="image10"
     x="0"
     y="0" />
  <g
     inkscape:groupmode="layer"
     id="layer1"
     inkscape:label="Layer">
    <g
       id="g0"
       inkscape:label="#g3033">
      <path
         inkscape:connector-curvature="0"
         d="m 1071.3961,-23.262337 c 2.0889,3.829426 3.9303,7.794399 6.0207,11.618414 1.8299,3.6859494 3.5165,7.4479562 5.1865,11.21041417 2.0409,4.79081823 4.1116,9.57506353 5.9582,14.44619483 1.7898,4.611948 3.9036,9.078829 5.9472,13.579723 2.0769,3.240116 3.687,6.734471 5.5622,10.079435 1.7044,3.147489 3.3957,6.300775 5.0088,9.496583 1.5879,3.123454 3.3537,6.136333 5.4202,8.970332 2.5717,3.782818 5.0554,7.62804 7.7122,11.352267 3.2903,4.927769 7.0212,9.533875 10.6257,14.230489 4.1739,5.182992 8.9631,9.831801 13.2241,14.947574 3.2723,3.828171 6.1206,8.094701 9.8283,11.527941 1.9527,2.00885 3.8646,4.05299 6.121,5.72501 2.3999,1.82485 4.6795,3.77323 7.1125,5.55433 3.7418,2.36891 7.5188,4.68831 11.1775,7.1852 4.1076,2.70717 8.6518,4.63645 13.0484,6.81046 4.7146,2.24189 9.4936,4.34585 14.2987,6.39212 6.0226,2.49616 12.1172,4.81875 18.1974,7.17191 6.5791,2.86079 13.2921,5.40856 19.9804,8.00229 6.1876,2.72459 12.3288,5.56788 18.3681,8.60868 4.5131,2.57639 9.031,5.13981 13.5551,7.69705 5.2828,2.52274 10.1773,5.74392 15.1091,8.87443 6.7026,4.18431 13.7166,7.83452 20.7285,11.46486 5.9031,2.81535 11.8777,5.45183 17.597,8.63267 0.2132,0.17604 1.3925,0.28272 0.3055,0.13589 0,0 -0.4481,10.17273 -0.4481,10.17273 l 0,0 c -1.6706,-0.13452 -3.2537,-0.47027 -4.7724,-1.23363 -5.7369,-3.01701 -11.6824,-5.57315 -17.526,-8.37298 -7.283,-3.78784 -14.5618,-7.60997 -21.496,-12.01603 -4.7683,-3.06567 -9.5035,-6.2099 -14.6364,-8.64884 -4.3441,-2.50014 -8.7262,-4.92814 -13.0745,-7.42033 -5.7544,-2.87469 -11.6274,-5.51425 -17.4951,-8.14687 -6.6863,-2.60003 -13.3965,-5.15454 -19.9754,-8.01714 -6.1808,-2.40937 -12.3808,-4.7764 -18.4975,-7.34337 -4.9797,-2.12912 -9.9115,-4.36851 -14.8147,-6.66403 -4.8351,-2.39399 -9.8324,-4.51641 -14.3124,-7.56272 -3.7423,-2.5864 -7.6462,-4.92838 -11.4461,-7.42878 -2.4217,-1.80577 -4.6956,-3.76574 -7.084,-5.61111 -2.5776,-1.90841 -4.8806,-4.146 -7.1107,-6.44579 -3.9566,-3.77646 -7.283,-8.13364 -10.7332,-12.36652 -4.3677,-5.212545 -9.2955,-9.938481 -13.5,-15.286944 -3.6749,-4.802854 -7.4756,-9.519083 -10.8009,-14.57676 -2.6277,-3.722146 -5.1156,-7.541694 -7.6524,-11.325485 -2.3399,-3.300929 -4.4307,-6.75813 -6.2392,-10.377803 -1.5292,-3.0832 -3.1996,-6.093879 -4.824,-9.12692 -1.9691,-3.601381 -3.8111,-7.264568 -5.9601,-10.773609 -2.1464,-4.703768 -4.367,-9.372745 -6.2377,-14.197525 -1.7689,-4.698184 -3.7688,-9.3044983 -5.6927,-13.9393367 -1.545,-3.50957388 -3.1046,-7.0217741 -4.8171,-10.4504343 -2.2683,-4.185019 -4.4224,-8.447505 -6.4745,-12.742913 0,0 9.5278,-3.811127 9.5278,-3.811127 z"
         id="path2990"
         style="fill:#de2d26;fill-opacity:1;fill-rule:nonzero;stroke:none" />
      <path
         inkscape:connector-curvature="0"
         d="m 1195.0491,144.76675 c 0.058,-5.51885 2.3739,-10.22961 4.9839,-14.93427 2.5089,-3.95798 5.3975,-7.71141 8.3148,-11.38341 2.2833,-2.93686 4.1172,-6.1737 6.2335,-9.22774 2.1034,-3.45058 4.4705,-6.72406 6.4735,-10.236769 2.4374,-4.66026 5.9968,-8.53605 9.1934,-12.657959 2.6697,-3.934695 6.0911,-7.354707 8.7173,-11.301168 3.5106,-4.852398 7.631,-9.169556 12.1424,-13.08779 3.5829,-3.144549 7.6085,-5.721551 11.4185,-8.575472 2.6038,-1.501499 5.067,-3.210544 7.5929,-4.83111 2.3151,-1.348515 4.4374,-2.940287 6.8941,-4.033191 1.013,-0.418341 2.0597,-0.744849 3.1309,-0.972532 0,0 2.116,9.947097 2.116,9.947097 l 0,0 c -0.3332,0.100147 -0.79,0.244804 -1.1386,0.395719 -1.9944,0.845792 -3.5869,2.400389 -5.5337,3.361113 -2.3021,1.398845 -4.4535,3.050135 -6.8287,4.339131 -3.5955,2.766077 -7.4215,5.230775 -10.8499,8.206251 -3.866,3.35221 -7.3777,7.058229 -10.4498,11.161612 -2.8688,4.014167 -6.1354,7.737639 -9.0233,11.747437 -2.9078,3.741795 -6.179,7.235192 -8.4191,11.452931 -2.1745,3.759 -4.6811,7.29412 -6.9778,10.97651 -2.2609,3.22449 -4.162,6.69141 -6.6289,9.77366 -2.5771,3.20482 -5.0457,6.55159 -7.3235,9.96707 -1.7655,3.18419 -3.5631,6.16865 -3.7838,9.91288 0,0 -10.2541,0 -10.2541,0 z"
         id="path2992"
         style="fill:#de2d26;fill-opacity:1;fill-rule:nonzero;stroke:none" />
      <path
         inkscape:connector-curvature="0"
         d="m 1206.8086,149.41523 c 3.1365,3.15051 6.0939,6.49639 8.652,10.1373 2.405,3.56508 4.5377,7.35621 6.1848,11.33142 1.3493,2.53567 2.5893,5.12596 3.3777,7.89234 1.1164,1.80182 1.7492,3.78102 2.1743,5.84559 0.092,2.52266 0.9569,4.82864 1.5428,7.26724 0.5449,2.40211 0.7732,4.85537 0.882,7.31105 0.2548,2.23284 -0.737,4.30847 -2.1801,5.95243 1.706,-1.4486 -2.0926,2.40424 -2.1963,2.51234 -0.111,0.11573 0.2949,-0.16213 0.3756,-0.30072 0.3168,-0.54411 0.5311,-1.14175 0.7967,-1.71262 0.6048,-3.46721 -4.27,-4.6577 0.198,-3.71172 0.6472,0.13703 1.2999,0.24637 1.9499,0.36956 7.2194,0.79584 14.3811,1.98027 21.5526,3.11981 8.9646,1.63042 17.9292,3.32091 26.6006,6.15442 5.1305,1.55512 10.0502,3.7387 14.9256,5.95312 1.3861,0.644 0.6036,0.22646 2.2912,1.35322 0,0 -6.3611,7.95697 -6.3611,7.95697 l 0,0 c 1.0525,0.59237 1.0712,0.56334 -0.034,0.0976 -4.6356,-1.93637 -9.2543,-3.96381 -14.0734,-5.40319 -8.1559,-2.6621 -16.626,-4.09682 -25.036,-5.71647 -7.2999,-1.20958 -14.5945,-2.42561 -21.9306,-3.38759 -4.6941,-1.01276 -10.2348,-1.92493 -10.2107,-8.01107 0.3125,-0.95936 0.4952,-1.97127 0.9377,-2.87809 1.1784,-2.41537 1.9348,-0.96811 2.6038,-3.18089 0.8388,-0.89671 -0.5791,3.95771 -0.4042,1.39144 -0.1237,-1.82519 -0.2699,-3.65212 -0.6588,-5.44385 -0.627,-2.54218 -1.5071,-5.04932 -1.6083,-7.68395 -0.3469,-1.83121 -1.3338,-3.31071 -1.983,-5.07053 -0.6706,-2.40898 -2.0513,-4.54406 -3.0834,-6.80808 -1.2861,-3.29847 -3.2056,-6.35122 -5.1191,-9.3146 -2.1581,-3.17338 -4.8218,-5.95942 -7.4258,-8.76247 0,0 7.26,-7.26002 7.26,-7.26002 z"
         id="path2994"
         style="fill:#de2d26;fill-opacity:1;fill-rule:nonzero;stroke:none" />
      <path
         inkscape:connector-curvature="0"
         d="m 1123.6961,375.47027 c 3.3296,-4.12447 6.6015,-8.28811 9.8703,-12.46245 2.8492,-4.46349 6.2115,-8.48106 9.7599,-12.3881 3.1475,-3.47468 6.2183,-7.03337 9.7282,-10.14858 2.7804,-2.75416 5.7222,-5.3305 8.6425,-7.93285 2.1409,-2.04038 4.2263,-4.15738 6.4853,-6.06867 1.6612,-1.89684 3.6992,-3.48655 5.5523,-5.20935 2.6219,-2.42456 5.1605,-4.93823 7.6881,-7.46042 3.8551,-3.39684 8.0469,-6.3715 12.1093,-9.5079 4.8385,-3.45768 9.5295,-7.11055 14.041,-10.98444 2.4559,-2.38074 5.2396,-4.39667 7.6513,-6.8159 3.3826,-2.70656 6.5645,-5.65387 9.9568,-8.34509 2.3363,-2.20266 4.871,-4.15568 7.3377,-6.19399 2.1527,-1.85332 3.964,-4.03684 5.9786,-6.03782 3.1349,-2.96218 6.3705,-5.7866 9.8248,-8.36731 3.5748,-2.27082 6.8116,-5.00377 10.2922,-7.41969 4.9943,-3.51069 9.5505,-7.58401 14.3685,-11.32877 4.9262,-3.30453 9.4276,-7.18248 14.2373,-10.63923 3.1844,-2.53147 6.975,-4.14278 10.3493,-6.36134 4.2326,-2.1532 4.5168,-4.32273 1.528,2.15597 0,0 10.1079,-1.33865 10.1079,-1.33865 l 0,0 c -2.2233,6.47207 -1.3476,5.0704 -6.0986,7.85196 -3.2594,2.04886 -6.737,3.76755 -9.8293,6.08321 -4.6873,3.40274 -9.0329,7.27778 -13.8951,10.45235 -4.9733,3.89341 -9.6779,8.13403 -14.9223,11.66925 -3.4037,2.28887 -6.5131,4.9639 -9.9751,7.15792 -3.0983,2.29497 -5.956,4.8513 -8.7942,7.46202 -2.2764,2.15381 -4.3006,4.56321 -6.6912,6.60352 -2.5507,2.03338 -4.9839,4.19744 -7.4107,6.3799 -3.1108,2.43176 -5.9847,5.15591 -9.1416,7.53511 -2.6106,2.54592 -5.4787,4.80097 -8.0992,7.34359 -4.6397,4.02611 -9.4374,7.86067 -14.4791,11.37585 -3.7322,2.86082 -7.5867,5.55936 -11.1807,8.59758 -2.6396,2.60063 -5.2702,5.21145 -7.9983,7.71995 -1.9773,1.78939 -4.0911,3.44489 -5.8758,5.43105 -2.1912,1.87136 -4.1788,3.97779 -6.2637,5.96522 -2.9472,2.6148 -5.8954,5.21971 -8.6957,7.99324 -3.2523,2.7869 -5.9019,6.21864 -8.8485,9.31397 -3.3636,3.74813 -6.5539,7.59322 -9.2636,11.86208 -3.227,4.1171 -6.4052,8.26332 -9.8433,12.20924 0,0 -8.2033,-6.15243 -8.2033,-6.15243 z"
         id="path2998"
         style="fill:#de2d26;fill-opacity:1;fill-rule:nonzero;stroke:none" />
      <path
         inkscape:connector-curvature="0"
         d="m 1153.2599,262.94419 c -2.9895,0.67134 -6.0005,1.22524 -9.0406,1.60555 -0.8808,0.10682 -1.7641,0.19146 -2.6499,0.2399 -19.751,0.2613 1.6443,-11.91859 1.9577,-12.11455 4.3354,-2.22556 8.7187,-4.3706 13.1303,-6.44338 5.6483,-2.72756 11.5402,-4.94406 17.48,-6.94929 5.7697,-1.76799 11.5978,-3.30818 17.4363,-4.82938 6.1662,-1.08807 12.0509,-3.26594 17.9798,-5.21038 4.6647,-1.49331 9.5523,-2.33688 14.1228,-4.12077 4.3911,-1.69684 8.9637,-2.82993 13.4761,-4.14178 4.5656,-1.26466 9.1721,-2.43034 13.6562,-3.96766 4.2061,-1.31249 8.4532,-2.51926 12.722,-3.61911 5.3658,-1.1653 10.7527,-2.21311 16.1111,-3.41826 4.2547,-1.15087 8.7108,-1.16983 12.9381,-2.38243 0.6015,-0.14131 2.128,-0.76249 2.4266,-0.88978 -0.4342,0.28051 -0.1724,0.0985 -0.7617,0.57847 0,0 6.9687,7.39071 6.9687,7.39071 l 0,0 c -0.7173,0.59606 -0.3764,0.3467 -1.0066,0.76946 -1.4959,0.87913 -3.1247,1.49812 -4.7707,2.03478 -4.4276,1.28592 -9.02,1.57004 -13.5009,2.63894 -5.2598,1.19618 -10.5586,2.18292 -15.837,3.2807 -4.0209,1.02753 -8.0184,2.17366 -11.9767,3.41244 -4.6483,1.55551 -9.3787,2.85955 -14.1091,4.13898 -4.2401,1.20297 -8.5408,2.23293 -12.6613,3.81456 -4.745,1.78113 -9.6823,2.94844 -14.5389,4.37597 -6.1364,2.02938 -12.248,4.25459 -18.6342,5.37684 -5.609,1.44128 -11.1951,2.95148 -16.7328,4.64659 -5.5853,1.85236 -11.1111,3.9529 -16.4227,6.48786 -4.0816,1.85989 -8.0822,3.90325 -12.1426,5.80933 -6.7928,4.05825 -5.1568,4.83897 -7.8814,-6.81398 0.5424,-0.0694 1.2736,-0.15826 1.8578,-0.24401 2.8161,-0.40783 5.6023,-0.9556 8.3923,-1.51319 0,0 2.0113,10.05687 2.0113,10.05687 z"
         id="path3000"
         style="fill:#de2d26;fill-opacity:1;fill-rule:nonzero;stroke:none" />
      <path
         inkscape:connector-curvature="0"
         d="m 1131.8215,380.70636 c -3.1212,1.09302 -5.5482,3.36555 -7.7544,5.75324 -2.5776,2.69317 -3.9779,6.12818 -4.9821,9.65809 -1.5965,4.68883 -2.319,9.54841 -2.7585,14.45931 -0.08,5.1872 -0.571,10.29798 -1.333,15.42553 -0.5594,3.75097 -0.8616,7.53458 -0.9972,11.32282 -0.081,3.14311 -0.2572,6.24757 0.3997,9.32935 0.6689,2.80185 0.8198,5.66414 1.74,8.38563 0.8915,2.43678 1.2794,4.97691 2.0729,7.43623 1.2722,3.2553 1.0137,6.84312 1.8396,10.17456 1.017,3.10693 1.1485,6.41201 1.9264,9.5592 0.6281,3.20705 1.6016,6.29565 2.5781,9.40666 1.0957,2.36323 2.1683,4.72789 3.2748,7.08371 1.055,2.75789 2.0077,5.54944 2.9217,8.36194 1.0081,3.55476 2.1007,7.06518 2.8006,10.70162 0.1484,2.94118 1.0939,5.69231 1.7793,8.53061 0.5253,2.69993 1.6597,5.20653 2.2733,7.90172 0.9601,2.33172 1.683,4.73632 2.6005,7.08618 1.3742,3.31705 2.1737,6.8502 3.4528,10.19358 1.2261,3.2164 1.9171,6.58266 2.9211,9.86633 1.0002,3.56384 1.5852,7.28992 2.9335,10.74745 1.0987,3.12502 2.1209,6.24048 3.3231,9.3285 0.8916,2.38012 1.201,4.8764 1.9911,7.26703 0.6335,2.87191 1.8149,5.55577 2.6528,8.36871 1.255,1.87534 1.582,4.19599 2.5851,6.16855 0.8634,1.78194 1.4403,3.63675 2.6377,5.23202 1.4928,2.12095 2.859,4.36411 4.0884,6.65154 1.0276,1.74114 2.3022,3.20014 3.4946,4.81918 1.1641,1.94805 2.3329,3.89733 3.6261,5.77002 1.2319,1.43782 1.6563,3.32078 2.6464,4.87343 1.1565,1.89972 2.2332,3.57628 3.1219,5.86319 1.3899,2.57145 2.2457,5.36045 2.8192,8.2126 1.0519,1.61897 1.115,3.71208 2.0026,5.38406 1.0143,1.80839 1.3965,3.96977 2.6765,5.62706 1.3096,2.58187 2.8568,4.96577 4.5177,7.32502 1.553,2.85872 3.1851,5.67815 4.2869,8.74633 1.0611,2.07504 1.8522,4.23845 2.8996,6.30962 1.8198,3.02759 3.3248,6.22525 5.2188,9.20974 2.5627,4.59174 4.6812,9.40618 7.044,14.09847 1.5283,3.37734 3.362,6.57135 5.2061,9.77739 2.2361,4.59707 4.5385,9.13932 7.0821,13.57853 2.8778,6.16479 6.2374,12.07613 9.2405,18.17795 3.4631,6.0062 6.3994,12.27551 9.3496,18.54519 3.6301,7.05737 7.2852,14.10789 11.1234,21.05489 4.2526,7.431 8.2915,14.97906 12.2416,22.57409 4.2368,7.37175 8.6908,14.68644 13.5619,21.6623 4.5055,6.45832 9.4555,12.60737 14.5727,18.58843 1.3545,1.36172 2.5036,2.96149 3.9402,4.24651 0.3183,0.28477 1.4601,0.84672 1.0467,0.73923 -0.8281,-0.21531 -1.5776,-0.66285 -2.3664,-0.99428 0,0 -0.8473,10.14495 -0.8473,10.14495 l 0,0 c -1.0019,-0.34923 -2.0203,-0.6546 -3.0059,-1.04769 -2.7654,-1.10291 -4.435,-4.51506 -6.6555,-6.27017 -5.4154,-6.20878 -10.6086,-12.63476 -15.3183,-19.39908 -5.1083,-7.36328 -9.8186,-15.04423 -14.2622,-22.82186 -3.8991,-7.51649 -7.8792,-14.99065 -12.0877,-22.33957 -3.966,-7.14854 -7.6952,-14.42951 -11.4275,-21.70206 -2.8942,-6.22637 -5.7719,-12.44736 -9.2305,-18.38534 -2.8965,-5.92157 -6.202,-11.62823 -8.9307,-17.63291 -2.5028,-4.44866 -4.8187,-8.97569 -6.9644,-13.60438 -1.9192,-3.37545 -3.8722,-6.71871 -5.5244,-10.23943 -2.2148,-4.41285 -4.2647,-8.90613 -6.5587,-13.2797 -2.0181,-3.2782 -3.7038,-6.73075 -5.6112,-10.07201 -1.2512,-2.50261 -2.2765,-5.08595 -3.4609,-7.6234 -0.6386,-2.19642 -2.107,-4.03529 -2.9768,-6.14405 -1.7327,-2.48597 -3.4054,-4.98299 -4.7572,-7.69928 -1.3898,-2.30944 -2.4111,-4.7633 -3.4906,-7.22586 -0.9358,-2.43643 -1.6749,-4.9424 -2.6074,-7.38382 -0.3926,-2.28248 -1.3068,-4.40211 -2.3159,-6.47669 -0.5593,-1.5041 -1.3607,-2.84037 -2.2443,-4.1395 -0.885,-1.44932 -1.4164,-3.05288 -2.3842,-4.42838 -1.225,-1.76944 -2.3839,-3.64964 -3.4253,-5.51023 -1.5144,-2.03327 -3.0971,-3.99089 -4.37,-6.19496 -0.9118,-1.93872 -2.2118,-3.74774 -3.4119,-5.51384 -1.4781,-2.20721 -2.5556,-4.56028 -3.608,-6.98758 -1.0134,-2.46432 -1.8455,-4.99108 -3.0453,-7.3832 -0.7709,-2.71835 -1.9995,-5.29403 -2.5528,-8.07773 -0.7048,-2.20348 -1.1089,-4.44701 -1.7802,-6.65402 -1.2711,-3.15037 -2.3051,-6.35441 -3.4471,-9.54812 -1.3184,-3.68923 -2.2121,-7.51351 -3.1133,-11.32273 -0.9336,-3.0987 -1.6122,-6.26404 -2.7342,-9.30344 -1.1916,-3.32252 -2.102,-6.74204 -3.3751,-10.0376 -1.0932,-2.85426 -2.0314,-5.74824 -3.0485,-8.63044 -0.509,-2.63001 -1.875,-5.00924 -2.2265,-7.6799 -0.7028,-2.9834 -1.723,-5.90201 -1.8996,-8.98846 -0.61,-3.23516 -1.6489,-6.34485 -2.4865,-9.52038 -0.739,-2.41108 -1.5832,-4.79579 -2.4466,-7.15456 -1.2542,-2.75811 -2.5999,-5.47341 -3.755,-8.2757 -1.1003,-3.39594 -2.1106,-6.8057 -2.835,-10.3048 -0.6682,-3.22094 -0.9842,-6.50566 -1.9407,-9.67081 -0.5871,-3.04862 -0.6995,-6.17624 -1.5571,-9.17404 -0.7614,-2.4227 -1.1788,-4.90496 -2.0211,-7.29453 -1.0376,-3.12544 -1.4456,-6.33484 -2.0814,-9.55735 -0.7922,-3.90586 -0.8044,-7.80888 -0.6108,-11.78225 0.148,-4.16743 0.4228,-8.33284 1.0451,-12.45992 0.7164,-4.93737 1.1611,-9.84895 1.2446,-14.84349 0.4971,-5.58262 1.3421,-11.11876 3.1577,-16.44558 1.52,-5.08817 3.6735,-9.95512 7.4128,-13.83189 3.2748,-3.42129 6.8589,-6.67399 11.4423,-8.19909 0,0 3.8111,9.52781 3.8111,9.52781 z"
         id="path3004"
         style="fill:#de2d26;fill-opacity:1;fill-rule:nonzero;stroke:none" />
      <path
         inkscape:connector-curvature="0"
         d="m 806.00556,982.24234 c -1.0539,-5.64743 -1.40118,-11.39312 -1.67862,-17.12153 -0.45762,-4.30368 -0.079,-8.46299 0.7874,-12.67387 0.78517,-3.09552 1.95768,-6.02604 2.50042,-9.1874 0.20227,-3.71133 0.8064,-7.31225 1.59139,-10.93906 0.68216,-2.6866 0.85007,-5.45768 0.96435,-8.21565 0.0926,-2.55011 0.0783,-5.10304 0.0684,-7.65445 -0.24854,-3.75886 0.59956,-7.4362 1.26252,-11.11052 0.45137,-2.70418 0.6482,-5.44208 0.73403,-8.17973 0.37644,-2.65644 1.29031,-5.17961 1.76849,-7.81693 0.27242,-2.50327 0.20194,-4.99353 0.61982,-7.47814 0.82126,-2.77761 1.22703,-5.63935 1.48386,-8.51667 0.48621,-2.8596 1.53911,-5.56892 1.93027,-8.44575 0.0691,-2.57782 0.58727,-4.97851 1.55847,-7.36426 0.50625,-0.9735 0.66953,-2.04211 0.76043,-3.11972 -0.12609,-1.97207 0.94484,-3.68408 1.46549,-5.50913 0.98723,-2.29212 1.8682,-4.62216 2.29728,-7.08632 0.23965,-2.20059 0.42929,-4.3095 1.21732,-6.40166 0.64404,-1.52542 0.88315,-3.1336 1.04383,-4.76659 0.51528,-1.94252 1.40538,-3.70719 1.92134,-5.64624 0.16197,-1.00539 0.2199,-2.01627 0.23779,-3.0323 -0.11025,-1.96683 1.19758,-3.52289 1.58871,-5.36265 0.323,-1.9885 0.38341,-3.93431 0.8636,-5.89901 0.35863,-1.31096 1.2155,-2.46976 1.4749,-3.7756 0.12802,-1.52675 0.1202,-3.0599 0.11775,-4.5908 -0.29252,-2.65295 0.58731,-5.07992 1.44805,-7.53081 0.39083,-2.09901 0.67085,-4.15786 1.30454,-6.21239 0.74048,-2.46266 0.99323,-5.01796 1.17775,-7.57032 0.2924,-2.22998 1.40063,-4.20942 1.92591,-6.36835 0.25161,-1.70374 0.2732,-3.39592 0.55016,-5.10688 0.93158,-2.83391 1.14451,-5.80979 1.84574,-8.69219 0.75533,-2.46408 1.43562,-4.93339 1.69061,-7.50189 0.68286,-3.28121 1.99571,-6.36805 2.95491,-9.56649 0.86417,-3.80379 2.14367,-7.48583 3.56138,-11.1123 1.08734,-2.16752 1.44849,-4.55113 2.20332,-6.8215 1.00979,-2.64455 2.01302,-5.27907 2.79293,-8.00432 0.18562,-2.43537 1.64157,-4.39718 2.49776,-6.56702 0.37433,-1.62296 0.66642,-3.28174 1.115,-4.91101 0.71144,-3.0175 1.91323,-5.88925 2.85471,-8.84143 0.58664,-1.84428 1.95883,-3.43284 2.30643,-5.36162 0.57533,-3.40968 1.88563,-6.68934 3.11125,-9.91361 1.60779,-3.96176 3.08957,-8.05027 5.15341,-11.80272 1.29143,-2.03733 2.09256,-4.29433 3.19032,-6.43646 1.75074,-3.80859 3.97993,-7.33371 5.6499,-11.18391 1.07218,-2.34132 2.44511,-4.5072 3.27652,-6.95006 0.98253,-1.76441 1.68336,-3.64852 2.59571,-5.44606 0.9553,-1.56929 1.95853,-3.08206 2.89992,-4.66519 1.51551,-2.42836 2.9275,-4.91436 4.5843,-7.25549 1.27389,-1.51272 2.23625,-3.18973 3.33232,-4.82964 1.37924,-1.85954 2.29283,-3.97207 3.34956,-6.02503 0.96943,-2.20841 2.1129,-4.33181 3.19618,-6.49069 0.38042,-1.66709 1.0763,-3.22737 1.7069,-4.81104 0.98306,-3.17188 2.30997,-6.24706 3.90807,-9.15542 1.35322,-2.72621 2.75787,-5.45215 3.99249,-8.23671 1.89139,-3.99888 3.93758,-7.91956 6.13218,-11.76152 3.23078,-5.06702 6.46476,-10.15009 9.97576,-15.02714 1.71855,-2.17275 2.79004,-4.73457 4.44067,-6.93742 1.05713,-1.74726 2.4557,-3.25736 3.73911,-4.83646 0.57029,-1.1912 2.15769,-2.09844 2.51425,-3.35095 1.94317,-2.57018 4.4042,-4.69997 6.70558,-6.94227 5.12192,-4.79125 10.18956,-9.64443 15.31201,-14.43826 5.58306,-5.43455 11.66261,-10.2802 17.88993,-14.94392 3.81699,-3.36116 7.80688,-6.56365 11.40749,-10.16139 1.95187,-1.80369 4.07784,-3.40039 6.12539,-5.09171 1.58052,-1.10667 3.12905,-2.22478 4.73455,-3.31215 1.5689,-0.9368 2.9735,-2.01544 4.4649,-3.05592 1.6608,-1.47667 3.5422,-2.80971 5.4411,-3.97815 1.3287,-1.34905 2.9176,-2.30592 4.4897,-3.3286 1.6935,-1.24982 3.5013,-2.3097 5.2644,-3.45576 2.9655,-2.14122 6.089,-4.05048 9.1641,-6.02912 2.0347,-1.71305 4.3052,-3.10263 6.3991,-4.73722 1.8115,-1.03293 3.4764,-2.15305 5.1485,-3.40759 1.5801,-1.2163 3.3994,-2.18939 4.7957,-3.63772 1.6247,-1.26887 3.3369,-2.4002 4.9539,-3.68013 1.9336,-1.79685 3.908,-3.57068 5.5705,-5.62582 1.9833,-1.93609 3.5045,-4.25698 5.1583,-6.46196 0.9971,-1.43357 1.943,-2.91126 2.9073,-4.38593 1.2999,-1.80869 2.5937,-3.60682 3.7838,-5.49325 0.9178,-1.86425 2.5346,-3.26419 3.6013,-5.01477 1.33,-2.29718 2.8321,-4.47583 4.2352,-6.72938 1.42,-1.77625 2.4846,-3.69427 3.5522,-5.67731 1.412,-2.56576 2.6028,-5.23007 4.1154,-7.74791 3.1295,-5.40724 6.425,-10.70631 9.6999,-16.0252 2.1668,-3.8019 4.246,-7.67163 6.6308,-11.34502 1.734,-3.58095 4.303,-6.62107 6.9007,-9.59513 2.2673,-2.46375 4.6648,-4.76011 6.485,-7.58365 0.8627,-1.85457 2.7351,-3.13462 3.6477,-4.92178 1.7813,-2.41216 3.8613,-4.57459 5.9801,-6.69125 2.0368,-2.37443 4.3049,-4.51066 6.6818,-6.5397 2.7144,-2.23415 5.1978,-4.73103 7.7029,-7.19263 3.2003,-2.90997 6.8272,-5.25421 10.1252,-8.04506 4.7955,-3.32864 1.3951,-4.00423 7.2141,4.32715 -0.5504,0.43792 -1.1008,0.87583 -1.6512,1.31375 0,0 -5.0549,-6.55037 -5.0549,-6.55037 l 0,0 c 0.6563,-0.49333 1.3127,-0.98665 1.969,-1.47997 2.3044,1.6072 4.7832,2.98956 6.9132,4.82162 0.3596,0.30926 -3.676,3.60883 -4.0263,3.79559 -3.1248,2.73314 -6.5619,5.03029 -9.7035,7.74017 -2.6563,2.57969 -5.3125,5.16659 -8.1663,7.53024 -2.2334,1.89042 -4.3127,3.92204 -6.2257,6.13874 -1.7231,1.66731 -3.3885,3.40347 -4.8768,5.27328 -1.1456,1.67258 -2.523,3.15876 -3.6107,4.87746 -2.0174,3.20662 -4.5846,5.91609 -7.1853,8.65532 -2.3506,2.65229 -4.6703,5.3428 -6.2019,8.57352 -2.319,3.64775 -4.3141,7.49567 -6.4402,11.25608 -3.2537,5.32665 -6.558,10.62009 -9.7676,15.97405 -1.4954,2.38568 -2.6036,4.96227 -3.9867,7.40904 -1.1895,2.04688 -2.2057,4.18431 -3.7354,6.02571 -1.4472,2.35727 -3.0341,4.61122 -4.4254,7.00316 -1.1348,1.60992 -2.4836,3.06728 -3.4581,4.78867 -1.2084,1.92545 -2.5366,3.764 -3.8711,5.60142 -1.0836,1.66207 -2.1351,3.16895 -3.2338,4.86568 -1.7604,2.27963 -3.2325,4.80094 -5.3518,6.79207 -2.0686,2.43017 -4.3725,4.64503 -6.7912,6.72815 -1.4682,1.18655 -3.0048,2.27029 -4.5485,3.35465 -1.7391,1.51418 -3.5716,2.90307 -5.4765,4.19599 -1.5936,1.14328 -3.1856,2.32851 -4.9227,3.23608 -2.2873,1.80443 -4.7435,3.37766 -6.998,5.22622 -3.088,1.98664 -6.213,3.91344 -9.221,6.02025 -1.8043,1.12937 -3.6182,2.20436 -5.332,3.47214 -1.6792,1.02355 -3.1261,2.1701 -4.6562,3.44679 -1.8468,0.98578 -3.4482,2.47972 -5.104,3.74644 -1.5829,0.8305 -2.8971,2.23375 -4.4941,3.08274 -1.3674,0.87295 -2.6871,1.75226 -3.9575,2.7263 -1.8423,1.56587 -3.77008,3.02892 -5.55257,4.66435 -3.88256,3.86869 -8.07272,7.42684 -12.21719,11.00918 -5.98059,4.49428 -11.83182,9.14383 -17.18087,14.39171 -5.10263,4.74754 -10.1424,9.56118 -15.3079,14.23805 -1.80778,1.72928 -3.63683,3.43661 -5.41265,5.19883 -1.00504,1.54757 -2.18233,2.96132 -3.28279,4.4443 -1.24065,1.43737 -2.49174,2.86613 -3.48354,4.50349 -1.64281,2.08702 -2.44465,4.785 -4.23048,6.80652 -3.33218,4.66198 -6.32742,9.57389 -9.48889,14.35382 -2.08522,3.59053 -4.06541,7.24021 -5.85329,10.98688 -1.36699,2.99786 -2.7974,5.97509 -4.29814,8.90555 -1.49099,2.54242 -2.53537,5.35281 -3.47949,8.13675 -0.72224,1.81879 -1.42485,3.49467 -1.97486,5.40282 -1.07912,2.22799 -2.28482,4.37411 -3.2413,6.6565 -1.22544,2.34925 -2.33296,4.75914 -3.91614,6.89552 -1.09803,1.55801 -2.05295,3.37329 -3.3871,4.96025 -1.55141,2.12636 -2.767,4.46962 -4.22513,6.65524 -0.89637,1.50681 -1.87385,2.89282 -2.75669,4.40826 -0.89002,1.20426 -0.96044,2.96368 -2.01746,4.10398 -0.8769,2.66819 -2.19705,5.1151 -3.44867,7.62152 -1.73081,4.06552 -4.03969,7.78385 -5.95226,11.75644 -1.19154,2.19783 -1.98777,4.5641 -3.33688,6.68291 -2.02506,3.25227 -2.91781,7.26217 -4.56752,10.70689 -1.14581,2.91646 -2.37523,5.86868 -2.90937,8.96415 -0.56282,2.01504 -1.35164,3.94425 -2.39931,5.76033 -0.87639,2.89852 -2.04646,5.69803 -2.7785,8.63416 -0.59601,2.07655 -0.81762,4.2203 -1.65307,6.22983 -0.87902,1.73807 -1.77743,3.24913 -1.95062,5.27419 -0.83502,2.95947 -1.9445,5.80281 -3.05341,8.6649 -0.85633,1.01485 -0.96643,5.6984 -2.18293,6.91445 -1.34215,3.43117 -2.51848,6.92199 -3.35271,10.51753 -0.83635,2.70165 -1.86792,5.32882 -2.67498,8.03831 -0.3368,2.96438 -0.98926,5.85789 -1.90003,8.70095 -0.79695,2.67155 -0.72066,5.57746 -1.74864,8.21001 -0.56456,1.72952 -0.0178,3.71677 -0.66338,5.46359 -0.42167,1.70347 -1.01491,3.36064 -1.67154,4.98516 -0.21392,3.19217 -0.58783,6.38359 -1.54004,9.452 -0.6737,2.11408 -0.74646,4.3056 -1.40453,6.4446 -0.58455,1.70398 -1.26035,3.01632 -0.97894,4.8792 -0.0191,2.11598 0.007,4.24785 -0.35049,6.34071 -0.36996,1.586 -1.01737,3.04685 -1.66752,4.53417 -0.31079,-1.41267 -0.26541,6.59036 -0.72116,5.44142 -0.56022,1.97948 -1.38796,3.20731 -1.34442,3.42317 -0.029,1.66158 -0.13441,3.32659 -0.4918,4.95443 -0.36869,1.43156 -0.70211,3.41308 -1.62303,4.61258 -0.0491,0.064 -0.0388,-0.15655 -0.0582,-0.23482 -0.23201,2.38467 -0.65548,4.73878 -1.57469,6.96618 -0.63843,1.4609 -0.38142,3.25119 -0.76403,4.89487 -0.5331,2.78777 -1.3233,5.52269 -2.56627,8.08504 -0.86643,2.58716 -1.10234,1.85151 -1.12913,3.73912 -0.1706,1.88166 -0.522,3.75031 -1.31473,5.48053 -0.72726,1.79767 -0.95682,3.40816 -1.01499,5.46876 -0.41417,2.71984 -1.13953,5.35394 -1.86721,8.00385 -0.29056,3.17177 -0.70372,6.33916 -1.62811,9.39822 -0.75484,2.27308 0.13398,4.97429 -0.59945,7.29621 -0.39705,2.24878 -0.96298,4.45433 -1.63278,6.63744 -0.10135,3.12903 -0.29301,6.26003 -0.82343,9.35016 -0.55412,3.20932 -1.38752,6.38735 -1.16019,9.66757 -0.003,2.67041 0.0129,5.34142 -0.0721,8.01091 -0.13773,3.22825 -0.36202,6.46233 -1.12579,9.61387 -0.7661,3.53352 -1.2749,7.02843 -1.52795,10.64274 -0.59208,3.22637 -1.66297,6.26596 -2.54906,9.39838 -0.72507,3.52753 -1.02069,6.95787 -0.56795,10.57282 0.31232,5.33136 0.62965,10.67091 1.44013,15.955 0,0 -8.0455,1.6091 -8.0455,1.6091 z"
         id="path3006"
         style="fill:#de2d26;fill-opacity:1;fill-rule:nonzero;stroke:none" />
      <path
         inkscape:connector-curvature="0"
         d="m 1017.3681,477.81056 c -0.301,-4.97499 1.5128,-9.68616 2.8111,-14.40329 1.177,-3.05011 2.4175,-6.06227 3.9195,-8.9631 1.1288,-2.89593 2.944,-5.46681 4.9671,-7.80146 2.4587,-2.41966 5.0593,-4.68985 7.5701,-7.05573 2.5795,-2.19067 4.715,-4.71813 6.7289,-7.41471 1.7551,-2.48794 4.0714,-4.44698 6.4424,-6.3163 2.297,-1.82982 4.6309,-3.60035 6.9819,-5.36308 1.979,-1.41857 3.8883,-2.93171 5.6771,-4.58417 1.9495,-1.76174 4.0324,-3.35045 6.379,-4.54429 2.534,-0.89771 4.9389,-2.04266 7.5443,-2.75254 2.2996,-0.21507 4.404,-0.96948 6.576,-1.70575 1.5016,-0.45617 3.0461,-0.75861 4.603,-0.94629 4.3618,1.85767 3.1624,0.40761 4.658,3.1896 0,0 -7.653,2.79064 -7.653,2.79064 l 0,0 c 1.2718,1.92439 0.2583,0.79453 4.0433,2.09391 -1.0005,0.1463 -1.9912,0.35572 -2.97,0.60859 -2.3143,0.81841 -4.6419,1.65214 -7.101,1.8758 -2.127,0.58083 -4.0875,1.56436 -6.1714,2.24434 -1.6908,0.64229 -2.9946,2.09331 -4.3768,3.19752 -2.0083,1.82002 -4.0877,3.55707 -6.2916,5.13802 -2.3093,1.70687 -4.5985,3.42421 -6.837,5.21986 -1.8158,1.41304 -3.6172,2.85517 -4.9117,4.78502 -2.3033,3.07479 -4.7431,5.98652 -7.6798,8.49119 -2.3479,2.1979 -4.7486,4.33723 -7.0964,6.53476 -1.6739,1.73043 -2.8825,3.88205 -3.7965,6.09403 -1.2379,2.38302 -2.2032,4.86961 -3.2345,7.35675 -1.0853,4.0175 -2.6886,8.01373 -2.5787,12.23068 0,0 -8.2033,0 -8.2033,0 z"
         id="path3008"
         style="fill:#de2d26;fill-opacity:1;fill-rule:nonzero;stroke:none" />
    </g>
    <path
       style="fill:#fc9272;fill-opacity:1;stroke:none"
       id="path3007"
       d="m 809.14159,371.14159 c 5.35097,-3.25502 10.3717,-7.00628 15.69153,-10.31197 4.26668,-2.46309 8.38112,-5.21943 12.78897,-7.42715 3.97913,-1.99766 8.01023,-3.89479 12.14985,-5.53831 4.60983,-1.87781 9.2495,-3.68144 13.85911,-5.56448 4.69706,-2.17598 9.02564,-5.06069 13.4976,-7.653 5.86398,-3.47337 12.28699,-5.78223 18.4605,-8.62164 7.1954,-2.95309 14.0359,-6.64429 21.17841,-9.72518 7.59929,-2.75266 15.16673,-5.58371 22.79539,-8.25367 7.6361,-2.66096 14.99104,-6.03048 22.29313,-9.48402 7.35559,-3.39327 14.48897,-7.21432 21.59302,-11.09721 6.99452,-3.47127 14.01901,-6.78247 21.3454,-9.48644 6.6888,-2.30934 13.4644,-4.3516 20.1825,-6.57082 5.9471,-2.38863 11.8526,-4.87291 17.6615,-7.58445 5.9064,-2.38857 11.9149,-4.54484 17.9458,-6.60291 4.6377,-1.9268 9.354,-3.59081 14.0866,-5.25863 4.931,-1.98976 10.0707,-3.15896 15.2301,-4.35505 4.8187,-1.2112 9.6198,-2.50156 14.4288,-3.76144 4.7753,-1.13755 9.592,-2.09392 14.4038,-3.07514 4.8138,-0.95804 9.5789,-2.02328 14.4593,-2.60239 4.3267,-0.65171 8.7476,-0.2099 13.0681,-0.79396 4.1749,-0.69386 8.3699,-1.07203 12.5147,-1.9318 4.8848,-1.00992 9.8621,-1.32196 14.8336,-1.51857 4.2647,-0.13562 8.5321,-0.13128 12.7985,-0.12939 3.8344,-0.81399 7.7153,-0.60611 11.5966,-0.3878 2.493,0.13535 1.2498,0.0726 3.7297,0.18843 5.3309,0.24929 4.9783,7.78822 -0.3525,7.53893 l 0,0 c -2.5417,-0.11901 -1.2745,-0.0549 -3.8017,-0.19214 -3.7611,-0.21222 -7.4528,-0.34238 -11.1755,0.39975 -4.1664,-0.002 -8.3338,-0.007 -12.4986,0.12356 -4.5573,0.17803 -9.1214,0.44624 -13.6005,1.36776 -4.3493,0.89834 -8.7471,1.32134 -13.1286,2.03269 -4.3506,0.49398 -8.7468,0.27192 -13.1013,0.79793 -4.6721,0.54537 -9.2258,1.59742 -13.8357,2.50236 -4.6778,0.95135 -9.3596,1.8829 -14.0028,2.98201 -4.879,1.27065 -9.7452,2.58782 -14.6337,3.81191 -4.8903,1.13063 -9.7616,2.2157 -14.4296,4.1225 -4.758,1.6684 -9.488,3.35984 -14.154,5.28193 -5.7753,1.96682 -11.5235,4.04127 -17.1897,6.2987 -6.0775,2.83492 -12.2545,5.44077 -18.4869,7.91192 -6.6366,2.18976 -13.3269,4.21369 -19.937,6.48507 -6.9812,2.5727 -13.66546,5.73594 -20.33722,9.02799 -7.23314,3.95343 -14.49825,7.84046 -21.98636,11.29749 -7.54145,3.56563 -15.13996,7.03822 -23.02633,9.78472 -7.46164,2.61149 -14.86011,5.38806 -22.30032,8.06057 -7.08805,3.05494 -13.87123,6.72871 -21.01434,9.65212 -5.96049,2.73863 -12.15906,4.96675 -17.8309,8.29556 -4.77255,2.76025 -9.38334,5.85127 -14.42653,8.10892 -4.63606,1.89204 -9.30249,3.70324 -13.93628,5.59549 -3.94806,1.5547 -7.77941,3.38394 -11.57219,5.28136 -4.21162,2.06263 -8.08806,4.77123 -12.16539,7.08021 -5.40321,3.34195 -10.47165,7.18662 -15.92411,10.45046 -4.63351,2.64772 -8.37795,-3.90505 -3.74444,-6.55278 z"
       inkscape:connector-curvature="0" />
    <path
       style="fill:#fc9272;fill-opacity:1;stroke:none"
       id="path3009"
       d="m 802.17457,1.8929598 c -3.18956,-2.9062805 -7.13995,-4.9928644 -10.00325,-8.237504 -1.72146,-2.6030871 -1.71798,-2.1723578 6.24531,-4.6977728 0.72983,-0.231452 1.19936,0.952187 1.79067,1.4385781 2.05794,1.6928081 4.13805,3.3151735 6.26468,4.9219916 3.81826,2.7109377 7.72877,5.1965592 11.85813,7.3942802 4.16163,2.240865 7.165,5.2660299 9.63721,9.2474151 2.3738,3.660587 3.37561,8.008971 5.55351,11.74428 1.70391,3.193485 3.93567,6.051354 5.68434,9.21239 1.32952,2.604896 2.09636,5.530952 3.77885,7.93654 1.82263,3.029447 3.95535,5.856613 5.64981,8.959322 1.89755,2.720997 3.07652,5.841735 4.52483,8.80533 1.58806,2.985982 4.03889,5.306207 6.50684,7.558872 2.74993,2.153864 5.52328,4.295256 8.06775,6.692239 1.64007,1.687777 3.07512,3.577381 4.4728,5.469262 3.15286,4.305736 -2.93637,8.764554 -6.08923,4.458819 l 0,0 c -1.12248,-1.551622 -2.30339,-3.07439 -3.60343,-4.477129 -2.45014,-2.407692 -5.29941,-4.380788 -7.93854,-6.571384 -3.16909,-2.89797 -6.21604,-5.96644 -8.20351,-9.830366 -1.39582,-2.882817 -2.54919,-5.898673 -4.39019,-8.541697 -1.51983,-2.923116 -3.64471,-5.491287 -5.28506,-8.349337 -1.71727,-2.663608 -2.8604,-5.611551 -4.12362,-8.509478 -1.66719,-3.161328 -4.02753,-5.920653 -5.63701,-9.12656 -2.02758,-3.717302 -3.25142,-7.795131 -5.39101,-11.467958 -1.9053,-3.112051 -3.50025,-4.710072 -6.76016,-6.5482099 -4.48036,-2.3845243 -8.72514,-5.0890257 -12.86221,-8.0351568 -2.18586,-1.65175531 -4.33248,-3.32051 -6.44571,-5.0631481 -0.53392,-0.4402925 -1.86652,-0.6573419 -1.6166,-1.3026864 2.97003,-7.6690428 5.94035,-3.8809251 4.24603,-5.9812368 2.54263,2.3734891 6.00924,4.5780426 8.78345,7.0069553 4.16723,3.33378196 -0.54745,9.2271315 -4.71468,5.8933495 z"
       inkscape:connector-curvature="0" />
    <path
       style="fill:#fc9272;fill-opacity:1;stroke:none"
       id="path3012"
       d="m 1218.1938,212.69508 c 9.0176,-1.739 18.0084,-3.62171 27.0641,-5.15634 6.8249,-1.25259 13.5818,-2.78835 20.3513,-4.29762 2.46,-0.79992 1.2371,-0.39014 3.6687,-1.22895 5.046,-1.73731 7.5029,5.39875 2.4569,7.13606 l 0,0 c -2.8168,0.96812 -1.3236,0.47697 -4.4843,1.45943 -6.8963,1.53556 -13.78,3.10017 -20.733,4.37241 -8.9299,1.5097 -17.7937,3.374 -26.6865,5.08246 -5.2096,1.15768 -6.8468,-6.20977 -1.6372,-7.36745 z"
       inkscape:connector-curvature="0" />
  </g>
  <g
     inkscape:groupmode="layer"
     id="layer2"
     inkscape:label="Layer#1">
    <g
       id="g1"
       inkscape:label="#g3026">
      <path
         inkscape:connector-curvature="0"
         d="m -41.937592,392.43888 c 5.047967,1.56783 10.159661,2.9396 15.242069,4.40054 4.972136,1.19598 9.804857,2.89751 14.79812,4.00366 3.8329047,0.59094 7.5143515,1.85166 11.33707286,2.4932 3.12174944,0.33191 6.07238014,1.48067 9.15070364,2.06365 3.3715315,1.22909 6.9217485,1.67729 10.3960655,2.47627 2.869358,0.69976 5.725709,1.5084 8.660163,1.89164 1.888575,0.17113 3.732211,0.21361 5.603728,0.54269 2.947193,0.8981 5.980934,1.21659 9.039651,1.4205 4.562207,0.11447 9.07629,0.19662 13.601056,0.83146 5.347396,0.87965 10.78024,0.86057 16.144134,1.54288 4.506358,0.93354 9.113966,1.19197 13.634786,1.99364 3.878173,1.0161 7.895549,1.23332 11.799001,2.08051 3.495472,1.10573 7.158982,1.3179 10.735522,2.0007 3.16359,0.77283 6.34013,1.429 9.58318,1.74506 2.60724,-0.0136 5.02529,0.4614 7.43132,1.45701 1.25023,0.67447 2.6353,0.65803 4.01882,0.71224 3.78469,-0.18716 7.47341,0.39145 11.18806,1.02605 3.65713,0.6178 7.36355,0.84303 11.06489,0.98616 3.63634,-0.19193 7.13416,0.33557 10.67366,1.08824 2.7256,0.58314 5.49599,0.82982 8.27503,0.95464 2.71525,-0.15818 5.24321,0.38898 7.81499,1.19008 2.69311,0.6727 5.49109,0.71602 8.25005,0.83087 3.4336,0.0966 6.86925,0.0726 10.30381,0.0668 3.99136,-0.009 7.98273,-0.013 11.9741,-0.0155 3.38341,-8e-4 6.76681,0.0144 10.15022,0.0172 2.6636,-0.058 5.25226,-0.95477 7.88922,-1.40979 3.10288,-0.48502 6.2488,-0.56772 9.3833,-0.61116 1.98879,-0.0171 3.9776,-0.002 5.96641,-0.003 2.44888,-0.004 4.89777,8e-5 7.34666,-0.002 3.38335,-0.01 6.76672,-0.0161 10.15008,-0.0198 4.02007,-0.004 8.04013,-0.004 12.0602,-0.004 3.5152,0.0189 7.03048,0.01 10.54572,0.006 3.30194,0.0188 6.60392,-0.004 9.90586,0.008 3.22417,-0.003 6.44831,-7.7e-4 9.67246,0.001 2.60141,0.013 5.20285,0.002 7.80427,0.0129 2.69808,-0.27706 5.21043,0.36562 7.78362,1.0661 1.7713,0.51324 3.60063,0.77757 5.4353,0.91837 2.37698,0.076 4.75654,0.0584 7.13452,0.05 3.46379,-0.11006 6.7919,1.005 10.19357,1.49702 3.82061,0.45939 7.66695,0.34992 11.48888,0.76184 4.76173,0.8268 9.56056,1.27546 14.38199,1.54005 5.09343,0.6409 10.15395,1.47077 15.27101,1.91286 4.09303,0.31013 8.1996,0.33907 12.30208,0.36041 3.80886,-0.25182 7.50233,0.30283 11.2318,0.98736 3.84679,0.61667 7.76718,1.07719 11.65791,0.72182 4.81829,-0.72992 9.66071,-1.20367 14.52433,-1.48547 5.28478,-0.24751 10.57706,-0.25948 15.86652,-0.26673 4.99242,-0.52207 9.95964,-1.22465 14.96439,-1.63172 4.22519,-0.30306 8.46271,-0.36086 12.69714,-0.36925 2.97455,0.009 5.94921,0.001 8.92375,0.0154 2.67089,-0.004 5.34175,0.0125 8.01263,0.0116 2.512,0.13851 4.92318,-0.0199 7.37742,-0.51704 4.28809,-0.82043 8.6222,-1.22238 12.92583,-1.95124 6.57191,-0.82418 13.08064,-2.01965 19.6651,-2.75516 7.84662,-0.94927 15.55545,-2.66829 23.27281,-4.32606 7.40208,-1.86549 14.80868,-3.70127 22.20751,-5.5777 6.63268,-1.64019 13.20925,-3.50231 19.75203,-5.47087 6.07077,-1.67599 12.11519,-3.46147 18.29502,-4.69617 3.31282,-0.95532 6.56972,-2.07018 9.96181,-2.71416 1.82419,-0.31913 3.67325,-0.41669 5.52181,-0.42428 1.24865,0.0851 2.3886,9.3e-4 3.07515,-0.30084 3.13039,-1.21637 6.50421,-1.42266 9.8213,-1.60964 3.29058,-0.14641 6.58478,-0.14147 9.87776,-0.14158 2.82749,0.002 5.65496,0.0148 8.48246,0.0168 2.38731,-0.31461 5.05925,0.52533 7.37842,-0.17326 3.66589,-1.02761 7.44339,-1.40253 11.22773,-1.64818 4.68105,-0.36058 9.4192,-0.92731 14.02223,-1.88867 4.97299,-1.07036 9.99055,-1.81126 14.88992,-3.20664 5.04237,-1.40989 10.1264,-2.69939 15.24127,-3.8232 6.0059,-1.5748 12.07012,-2.943 18.18849,-4.00213 7.41463,-1.56008 14.94788,-2.44539 22.31289,-4.2409 6.18671,-1.37991 12.29354,-3.08774 18.52118,-4.27963 4.05576,-0.53259 7.95815,-1.77498 11.9755,-2.51797 0.71723,-0.34302 5.20736,-0.21698 5.27095,-0.76583 1.81304,-0.94447 3.73819,-1.46096 5.75479,-1.71765 2.3075,0.0949 0.38385,-0.15626 0.34355,-0.16206 -0.0174,0.0192 -0.0348,0.0385 -0.0522,0.0577 0,0 6.61462,4.74138 6.61462,4.74138 l 0,0 c -0.10797,0.14557 -0.21593,0.29115 -0.3239,0.43672 -1.45838,1.68422 -3.36101,2.97892 -5.67445,3.05455 -1.09318,0.0829 -2.05342,0.41133 -3.03536,0.91636 -2.36335,1.07988 -4.81851,1.2048 -7.36605,1.52031 -4,0.77912 -7.88602,2.04886 -11.93261,2.58801 -6.0888,1.18849 -12.05712,2.89701 -18.11055,4.24751 -7.55686,1.8528 -15.2702,2.82698 -22.89307,4.36051 -5.99361,1.00565 -11.92944,2.33775 -17.812,3.86076 -4.96055,1.09324 -9.8959,2.33075 -14.78033,3.72234 -5.10133,1.41235 -10.30326,2.2476 -15.47745,3.33004 -4.99059,0.99787 -10.09282,1.66928 -15.165,2.02444 -3.46383,0.20401 -6.90731,0.52937 -10.26326,1.47053 -2.94191,0.43858 -5.89302,0.31072 -8.86419,0.30659 -2.82282,-0.004 -5.64565,-0.003 -8.46847,-0.006 -3.14745,0.004 -6.29709,4.4e-4 -9.44169,0.14961 -2.45728,0.12397 -4.98587,0.18199 -7.32657,1.01841 -1.93809,0.70724 -3.86165,0.97064 -5.91203,0.81785 -1.38071,0.0306 -2.76387,0.0774 -4.12469,0.33647 -3.35975,0.60049 -6.51318,1.96586 -9.82034,2.78241 -5.92432,1.20203 -11.71433,2.95603 -17.53655,4.56651 -6.66223,1.98318 -13.34935,3.88272 -20.09346,5.56761 -7.49921,1.90076 -14.99407,3.8075 -22.49977,5.68336 -7.99608,1.71541 -15.98771,3.47756 -24.12106,4.43212 -6.43516,0.69521 -12.79569,1.85975 -19.22138,2.62517 -4.2275,0.68669 -8.47946,1.0731 -12.69104,1.84769 -2.98362,0.5745 -5.93616,0.77614 -8.97224,0.63873 -2.67448,-0.002 -5.34895,0.0117 -8.02343,-2.7e-4 -2.9521,0.005 -5.90422,-0.021 -8.85627,0.0108 -4.02555,0.0457 -8.05495,0.0692 -12.07148,0.37492 -5.22394,0.43721 -10.40013,1.26349 -15.62508,1.6795 -5.13429,0.0171 -10.2705,0.0162 -15.40108,0.23951 -4.81606,0.28611 -9.60932,0.76972 -14.38315,1.47342 -4.61332,0.30269 -9.22752,-0.0551 -13.78115,-0.86813 -3.26094,-0.60552 -6.43422,-1.1477 -9.77606,-0.83902 -4.3233,-0.0209 -8.6506,-0.0526 -12.96432,-0.37307 -5.03282,-0.42464 -10.02201,-1.15575 -15.01875,-1.88074 -4.99689,-0.2709 -9.97366,-0.73969 -14.90714,-1.60307 -3.88356,-0.52386 -7.83831,-0.21528 -11.7219,-0.83102 -2.99817,-0.45474 -5.94347,-1.39321 -8.97676,-1.42378 -2.58284,-0.005 -5.1681,0.0237 -7.74839,-0.11041 -2.37322,-0.17209 -4.73743,-0.51479 -7.02982,-1.1697 -1.94596,-0.55168 -3.47839,-1.06585 -5.58248,-0.77316 -2.60142,0.0106 -5.20286,-1.3e-4 -7.80427,0.0129 -3.22415,0.002 -6.44829,0.005 -9.67246,0.001 -3.30194,0.012 -6.60392,-0.0103 -9.90586,0.008 -3.51522,-0.004 -7.03049,-0.0125 -10.54569,0.006 -4.02007,-2e-4 -8.04014,-3.1e-4 -12.06021,-0.004 -3.38446,-0.004 -6.76892,-0.01 -10.15337,-0.0212 -2.4544,-0.004 -4.90882,-0.002 -7.36318,-0.0178 -1.93255,-0.0107 -3.86557,-0.0183 -5.79783,0.021 -2.70888,0.0614 -5.4296,0.10836 -8.11529,0.49973 -3.0951,0.55028 -6.14492,1.57145 -9.30575,1.53339 -3.38205,0.003 -6.76408,0.0188 -10.14613,0.0211 -3.99091,0.002 -7.98182,0.005 -11.97273,0.007 -3.54216,-9.7e-4 -7.08514,0.008 -10.62628,-0.0897 -3.48687,-0.12415 -7.01401,-0.26853 -10.38933,-1.23482 -1.93184,-0.611 -3.64448,-1.01528 -5.73427,-0.80573 -3.22879,-0.14998 -6.45124,-0.42798 -9.61759,-1.11106 -3.08432,-0.66058 -6.08,-1.10983 -9.26107,-0.90764 -4.06758,-0.14494 -8.13931,-0.38148 -12.15589,-1.07929 -3.39335,-0.58486 -6.72626,-1.13779 -10.18986,-0.96479 -2.30762,-0.12877 -4.63315,-0.32437 -6.74768,-1.34885 -1.67437,-0.69179 -3.02,-0.85729 -5.11065,-0.83915 -3.50977,-0.34916 -6.96845,-0.97656 -10.39165,-1.83075 -3.63091,-0.77045 -7.401506,-0.87742 -10.955452,-2.06377 -3.750533,-0.93126 -7.729521,-0.86895 -11.460382,-1.98487 -4.360898,-0.84505 -8.859047,-0.9345 -13.211715,-1.89385 -5.383931,-0.72469 -10.867768,-0.58669 -16.231161,-1.56707 -4.327614,-0.61756 -8.649177,-0.65456 -13.014749,-0.7997 -3.48044,-0.2517 -6.949835,-0.64069 -10.301271,-1.6669 -1.105271,-0.85882 -3.559804,0.23436 -4.858788,-0.40586 -3.203016,-0.43797 -6.352326,-1.16108 -9.4767,-1.98623 -3.343144,-0.82943 -6.818206,-1.1477 -10.0471846,-2.43897 -3.0181029,-0.59142 -5.9251438,-1.64187 -8.9755448,-2.01114 -3.9547389,-0.68142 -7.7862836,-1.87751 -11.7436886,-2.5346 -5.166243,-1.14448 -10.182837,-2.8353 -15.322134,-4.09055 -5.334347,-1.55612 -10.735504,-2.92167 -15.977473,-4.76925 0,0 3.048901,-7.62225 3.048901,-7.62225 z"
         id="path3011"
         style="fill:#fc9272;fill-opacity:1;fill-rule:nonzero;stroke:none" />
      <path
         inkscape:connector-curvature="0"
         d="m 1144.5296,357.13972 c 4.0773,-0.0392 8.155,-0.0321 12.2325,-0.0315 4.7156,-0.26187 9.3538,0.65783 14.0095,1.24812 5.85,0.8287 11.4557,2.65745 17.0816,4.37717 5.0502,1.75938 10.0835,3.61606 14.9312,5.88169 3.1314,1.25015 6.103,2.84066 9.2807,3.97619 2.4668,1.01513 4.8052,2.27601 7.1046,3.6125 2.7353,1.24785 5.5364,2.30057 8.2816,3.53193 4.1234,1.78282 8.2679,3.50281 12.2785,5.53341 3.3884,2.00253 6.8747,3.85589 10.1618,6.01899 1.6569,1.37973 3.6104,2.29259 5.3697,3.5254 1.7104,0.84612 2.9296,2.41295 4.4796,3.48957 2.1329,1.9865 4.3396,3.87537 6.5938,5.72653 2.1484,1.86885 4.4576,3.48784 6.4699,5.51178 -0.1181,-0.1167 -0.2362,-0.2334 -0.3543,-0.3501 0,0 -4.0707,7.07343 -4.0707,7.07343 l 0,0 c -0.4518,-0.30873 -0.9036,-0.61746 -1.3553,-0.92619 -1.8389,-1.81167 -3.9791,-3.21561 -5.895,-4.94232 -2.2175,-1.80548 -4.3743,-3.6761 -6.448,-5.63819 -1.3927,-1.14342 -2.4951,-2.44595 -4.1247,-3.24928 -1.702,-1.20078 -3.6363,-2.03008 -5.2399,-3.38176 -2.9566,-2.0327 -6.2588,-3.55913 -9.2946,-5.47389 -3.9159,-1.94846 -7.9471,-3.62578 -11.9402,-5.40432 -3.017,-1.35282 -6.116,-2.47841 -9.068,-3.98008 -1.8369,-1.0904 -3.7258,-2.05917 -5.6932,-2.9289 -3.44,-1.20972 -6.6623,-2.8957 -10.0452,-4.24642 -4.4865,-2.11587 -9.2083,-3.71789 -13.8657,-5.40822 -5.1675,-1.59571 -10.3151,-3.28524 -15.6804,-4.11237 -4.3145,-0.54746 -8.5963,-1.46773 -12.9673,-1.19836 -4.0775,5.7e-4 -8.1552,0.008 -12.2325,-0.0315 0,0 0,-8.20324 0,-8.20324 z"
         id="path3013"
         style="fill:#fc9272;fill-opacity:1;fill-rule:nonzero;stroke:none" />
      <path
         inkscape:connector-curvature="0"
         d="m 1143.6249,266.03131 c -2.5249,1.51222 -5.2644,3.05954 -6.9761,5.52415 -0.9969,1.95497 -2.1942,3.88346 -2.8678,5.99173 -0.547,2.67484 -0.5167,5.42972 -0.5744,8.14814 -0.032,2.77649 -0.015,5.55319 -0.025,8.32978 -0.025,1.10633 0.852,2.41622 1.3202,3.92154 1.0048,1.83017 0,4.39499 0.8589,6.18019 0.9744,2.2261 0.9407,4.76567 1.7545,7.01368 0.7491,2.49523 1.7796,4.85639 2.6591,7.30474 0.4905,2.07058 0.98,3.89359 1.9495,5.73084 0.8346,1.50829 1.318,3.11856 1.5286,4.82326 0.1412,1.62471 0.1019,3.25733 0.104,4.88617 -0.017,-0.80313 0.1495,-0.42475 0.4239,-0.13622 -4.8661,6.99219 -3.4856,7.62681 -7.8088,4.78221 0,0 4.5374,-6.82956 4.5374,-6.82956 l 0,0 c 3.2636,2.19833 1.5398,0.83852 -2.4533,7.83507 -1.5644,-1.57287 -2.6221,-3.42702 -2.875,-5.6774 0.01,-1.292 0.011,-2.58453 -0.025,-3.87612 -0.087,-0.74057 -0.1898,-1.19223 -0.6932,-2.03763 -1.1054,-2.19111 -1.9508,-4.35885 -2.4422,-6.77335 -0.878,-2.57465 -1.9689,-5.06247 -2.767,-7.66658 -0.6886,-2.48785 -0.9937,-5.05812 -1.874,-7.50021 -0.3739,-1.93236 -0.3818,-3.86272 -0.7396,-5.79238 -0.4601,-2.07479 -2.0236,-3.88314 -1.648,-6.15377 -0.034,-2.83724 -0.045,-5.67494 -0.015,-8.51227 0.053,-3.58033 0.077,-7.21903 1.0565,-10.69107 1.0494,-2.90422 2.4936,-5.68533 4.0864,-8.31968 2.8095,-3.49763 6.3889,-6.2127 10.4568,-8.12752 0,0 3.0489,7.62226 3.0489,7.62226 z"
         id="path3015"
         style="fill:#fc9272;fill-opacity:1;fill-rule:nonzero;stroke:none" />
      <path
         inkscape:connector-curvature="0"
         d="m 852.8656,59.200294 c 2.57314,3.276508 5.71424,6.036108 9.04428,8.512451 3.54885,2.411554 6.82865,5.164185 10.23676,7.766882 3.68567,2.828676 7.11548,5.965697 10.48259,9.160719 2.98063,2.576728 6.00539,5.119907 8.80241,7.897731 2.32709,2.11102 4.55099,4.327146 6.85177,6.467846 3.02377,2.683687 5.80688,5.605737 8.76705,8.362247 2.70934,2.18676 5.28936,4.54686 8.2614,6.38363 2.98768,1.70888 5.75924,3.74838 8.75781,5.44206 4.91202,2.70842 10.35001,4.16797 15.56166,6.16001 6.13581,2.24424 12.30073,4.43857 18.36404,6.87457 5.50707,2.20806 11.18522,3.8684 16.89765,5.4488 5.83247,1.16689 11.4831,3.04464 17.2277,4.5543 4.60684,1.03844 9.17268,2.25552 13.58878,3.93048 3.5833,1.16678 7.2253,2.15617 10.7967,3.36215 4.0197,1.32214 8.0745,2.54607 12.0654,3.95412 3.9241,1.23496 7.7535,2.75248 11.7635,3.69582 3.3715,1.15673 6.7687,2.19184 10.1035,3.44861 2.6562,0.84068 5.1959,1.98569 7.8245,2.90551 2.1792,0.35227 4.1367,1.36512 6.0863,2.34856 1.2705,0.45558 2.6019,1.12152 3.8489,1.84475 1.3721,0.60558 2.8746,1.14293 4.3178,1.70256 2.6629,1.21559 5.2621,2.55554 7.9196,3.78192 2.3878,1.4307 4.946,2.51889 7.3436,3.92885 1.3575,1.01444 2.9376,1.48947 4.4139,2.31292 2.1017,1.06106 4.1331,2.34716 6.061,3.70963 1.7847,0.59373 3.0438,2.25166 4.7987,2.85448 2.1676,0.91811 4.2966,1.9625 6.3648,3.09373 2.5091,1.72663 5.162,3.21534 7.6609,4.95901 2.3099,1.29082 4.4441,2.86306 6.8311,4.00821 1.6636,0.57168 2.9546,1.83926 4.5798,2.44924 2.2326,0.76289 4.4341,1.72657 6.6492,2.58529 3.1817,1.35922 6.3799,2.66384 9.6141,3.90113 2.9932,0.95912 5.9736,1.95167 8.9852,2.86479 2.2907,0.77074 4.6798,0.93612 7.0748,0.99767 4.9778,0.83264 9.9756,1.38128 15.0134,1.68224 5.4409,0.0115 10.7954,0.50843 16.1636,1.34472 3.0478,0.4483 6.1054,0.86381 9.183,1.03793 1.5638,0.0985 3.1308,0.0778 4.6966,0.0775 1.711,-0.0111 3.4221,-0.005 5.1332,-0.0145 1.5327,-0.001 3.0654,0.0102 4.5981,0.003 1.8441,-0.0275 0.3702,0.01 3.0115,-0.97128 2.6029,-1.06994 5.5092,-0.56087 8.17,-1.22403 1.2473,-0.31577 2.4718,-0.71622 3.6667,-1.19236 0,0 3.12,7.53544 3.12,7.53544 l 0,0 c -1.6896,0.7167 -3.429,1.31576 -5.2198,1.72735 -2.2915,0.39116 -4.6038,0.41411 -6.89,0.82288 -1.9005,0.70488 -3.7599,1.69734 -5.8579,1.47508 -1.5297,-0.007 -3.0593,0.005 -4.589,0.007 -1.709,-0.005 -3.418,0.01 -5.127,0.009 -1.7239,0.006 -3.4485,0.002 -5.1712,-0.0711 -3.3435,-0.18599 -6.6746,-0.53357 -9.9851,-1.04214 -5.1258,-0.78161 -10.2263,-1.21367 -15.4208,-1.21782 -4.9608,-0.32164 -9.9063,-0.7884 -14.7888,-1.75778 -3.1107,-0.13675 -6.2197,-0.40127 -9.2028,-1.36648 -3.1871,-0.99362 -6.35,-2.00772 -9.5279,-3.0254 -3.249,-1.25734 -6.4591,-2.59546 -9.6664,-3.94343 -2.2271,-0.88889 -4.4007,-1.94745 -6.6371,-2.64137 -1.808,-0.73064 -3.3481,-1.86433 -5.118,-2.65434 -2.805,-1.34154 -5.3582,-3.11001 -8.0329,-4.68694 -2.2209,-1.59317 -4.6436,-2.86847 -6.8551,-4.47604 -1.9024,-1.04019 -3.8366,-2.0463 -5.8458,-2.85371 -2.1513,-1.05996 -3.9644,-2.53307 -6.1094,-3.59746 -1.7109,-1.2069 -3.4735,-2.37882 -5.3495,-3.2813 -1.4864,-0.85286 -3.1501,-1.34045 -4.5492,-2.36873 -2.1592,-1.26668 -4.4821,-2.20593 -6.6126,-3.52986 -2.5149,-1.14515 -4.9677,-2.41648 -7.4581,-3.60942 -1.8439,-0.71405 -3.6649,-1.44836 -5.4544,-2.27449 -0.066,-0.0381 -1.4739,-0.84691 -1.4748,-0.87713 -0.01,-0.26481 1.0308,0.23338 0.7671,0.20773 -0.9346,-0.0909 -1.8371,-0.54108 -2.6768,-0.92471 -1.7248,-0.84114 -3.189,-1.65381 -5.1347,-1.91551 -2.7101,-0.92818 -5.3125,-2.12298 -8.0531,-2.96337 -3.0048,-1.14012 -6.076,-2.03443 -9.1073,-3.10934 -4.2973,-1.03417 -8.4227,-2.59136 -12.6242,-3.94655 -3.9489,-1.42579 -7.9892,-2.59292 -11.969,-3.92846 -3.6357,-1.27184 -7.3782,-2.22396 -11.0273,-3.45566 -4.15124,-1.55479 -8.45471,-2.64219 -12.77996,-3.61023 -5.78588,-1.50444 -11.47347,-3.38487 -17.34202,-4.56819 -6.01409,-1.65671 -11.98235,-3.43536 -17.78116,-5.75017 -6.02744,-2.41488 -12.16711,-4.55778 -18.25896,-6.80308 -5.59503,-2.1603 -11.43259,-3.77433 -16.6643,-6.78501 -3.09159,-1.78239 -5.9691,-3.88232 -9.06358,-5.65371 -3.37257,-2.16687 -6.44826,-4.71863 -9.50683,-7.30171 -2.95298,-2.77264 -5.74655,-5.69065 -8.75551,-8.39865 -2.34962,-2.22099 -4.64427,-4.49398 -7.04616,-6.659545 -2.71047,-2.761238 -5.80121,-5.134944 -8.68026,-7.714811 -3.14178,-3.003036 -6.36039,-5.927473 -9.79741,-8.593254 -3.3742,-2.588971 -6.62732,-5.312904 -10.15142,-7.698663 -3.95797,-2.95158 -7.72911,-6.218527 -10.66942,-10.22025 0,0 6.56259,-4.921943 6.56259,-4.921943 z"
         id="path3017"
         style="fill:#fc9272;fill-opacity:1;fill-rule:nonzero;stroke:none" />
      <path
         inkscape:connector-curvature="0"
         d="m 1230.8416,229.65229 c 0.4108,4.9169 0.1245,9.86401 0.012,14.79008 0.1235,3.87395 -0.1799,7.6115 -1.2438,11.33797 -0.5657,1.9718 -0.8096,3.99119 -1.3625,5.96032 -0.951,2.34867 -2.1879,4.55191 -3.304,6.82759 -1.1698,2.53335 -2.2807,5.07206 -3.4572,7.60773 -0.56,1.08138 -0.8888,2.20893 -0.955,3.42168 -0.382,1.76081 -1.3273,3.28003 -1.9918,4.9388 -0.076,0.20504 -0.1589,0.40761 -0.2394,0.61098 0,0 -7.8381,-2.1429 -7.8381,-2.1429 l 0,0 c 0.14,-0.48527 0.2986,-0.96466 0.4797,-1.43637 0.1852,-0.48326 1.3817,-3.9147 1.4478,-2.67957 0.2173,-2.15418 0.69,-4.25159 1.6706,-6.20071 1.2251,-2.58626 2.305,-5.20095 3.523,-7.789 0.9847,-1.93626 2.0352,-3.80013 2.904,-5.76541 0.406,-1.7688 0.6821,-3.77495 1.2253,-5.58752 0.8572,-3.06631 0.9711,-6.09214 0.8645,-9.28422 0.091,-4.33311 0.2267,-8.66588 0.219,-13.00035 0,0 8.0455,-1.6091 8.0455,-1.6091 z"
         id="path3019"
         style="fill:#fc9272;fill-opacity:1;fill-rule:nonzero;stroke:none" />
    </g>
  </g>
  <g
     inkscape:groupmode="layer"
     id="layer3"
     inkscape:label="Layer#2">
    <path
       style="fill:#fee0d2;fill-opacity:1;fill-rule:nonzero;stroke:none"
       id="g2"
       d="m 808.18899,977.10153 c 2.70247,3.76999 4.26052,8.1555 5.38566,12.61385 0.29033,2.78077 1.25663,5.37998 1.94196,8.07268 0.61533,2.42704 0.77894,4.92634 0.86663,7.41814 0.0419,1.692 0.0159,3.3845 0.0167,5.0768 -0.0164,1.4741 -0.006,2.9483 -0.009,4.4225 0.13976,2.2619 -0.95367,4.2922 -1.73157,6.3468 -0.23312,1.0193 -0.27765,2.0528 -0.29698,3.0939 -0.006,3.004 0.0144,6.0081 0.0233,9.012 -0.26954,3.3969 -1.17924,6.69 -1.72654,10.0452 -0.32438,2.3141 -0.30458,4.6533 -0.31458,6.9842 -6.5e-4,3.7543 0.0112,7.5087 0.017,11.263 0.002,3.0144 -0.0189,6.0288 -0.0216,9.0432 -0.26785,2.9799 0.33739,5.8075 0.87587,8.7135 0.61863,3.0729 0.90918,6.1949 1.0818,9.3204 0.0928,2.2703 0.0852,4.5432 0.093,6.8149 0.81648,3.4267 1.3122,6.909 1.65327,10.4112 -0.0164,3.5935 0.5072,7.0269 1.22276,10.5255 0.71156,3.5838 0.97949,7.229 1.11944,10.8731 0.15603,3.7016 1.06771,7.3303 1.52787,11.0115 0.3498,3.0727 0.29706,6.1237 1.02617,9.1284 1.06873,4.1754 1.28217,8.4917 1.46338,12.7779 0.11501,3.4739 0.1265,6.9504 0.10787,10.4259 -0.27667,2.4018 0.41355,4.5845 0.86124,6.9187 0.77693,5.1723 0.92205,10.3858 1.67302,15.5624 0.55466,4.5465 1.36536,9.0764 2.71633,13.4585 1.69096,5.0969 2.27065,10.4604 3.19257,15.7297 1.00738,5.5612 1.40106,11.2034 1.61987,16.8427 0.5684,3.3067 1.33935,6.5606 1.74263,9.8948 0.49333,5.2422 0.26415,10.5098 0.68026,15.7547 0.75794,7.1767 1.26079,14.3731 1.55232,21.5828 0.0222,6.0469 0.62707,12.079 1.65228,18.0353 0.83915,5.2517 1.86235,10.4397 3.14128,15.5998 0.34505,2.8102 1.4903,5.3439 2.40593,7.9863 0.28911,1.9553 0.96896,3.0016 1.8355,4.7229 1.02456,2.1553 2.18676,4.465 3.09301,6.8729 1.50795,4.7115 2.70446,9.5054 4.05973,14.262 1.57482,4.2468 2.8618,8.59 4.66421,12.7492 1.76303,4.7144 3.42074,9.4806 5.04823,14.2469 1.48482,4.8705 2.83462,9.7746 4.44092,14.6064 0.85813,2.5075 1.70603,5.0085 2.13517,7.6288 0.95048,1.0561 1.74926,4.101 2.28383,5.777 1.74472,4.9867 3.4237,9.9969 5.13072,14.9986 1.25573,4.7294 2.67652,9.3812 4.36708,13.972 1.61473,4.087 2.74446,8.3178 4.04893,12.5036 0.86409,3.4648 1.9003,6.828 3.10607,10.1829 0.63812,1.6079 1.07504,3.584 1.47491,5.0922 1.39389,2.7425 2.14267,5.735 3.16111,8.621 1.27874,3.8347 2.78746,7.6184 4.85668,11.0996 1.96336,3.5451 3.50627,7.2975 5.34048,10.9099 1.93952,3.8743 3.4046,7.9555 5.16363,11.9107 1.79376,4.3168 3.19353,8.8102 4.42712,13.3191 0.73364,3.5855 2.41574,6.8546 3.64285,10.2782 1.53911,3.5318 2.55935,7.2419 3.87284,10.8562 1.91797,3.9399 2.99557,8.2054 4.58711,12.2766 1.46229,4.3356 3.12885,8.583 4.86621,12.8139 1.26683,3.2251 2.82848,6.3221 4.3357,9.4384 1.46729,3.4164 2.68264,6.917 4.15325,10.3289 0.9427,2.7266 2.57442,5.0883 3.56782,7.7999 1.13254,2.798 1.77033,5.7268 2.53677,8.6445 1.02094,5.3985 2.42666,10.689 3.90878,15.9739 1.39561,6.0103 3.34018,11.8708 4.78116,17.8676 1.32766,4.437 2.18554,8.9927 3.8082,13.3309 0.79246,3.0389 2.17484,5.8319 3.46749,8.675 2.1556,4.8594 3.65185,10.0231 5.04749,15.1507 0.8709,3.2995 2.21462,6.3287 3.79562,9.3212 1.18439,2.2642 2.41607,4.5044 3.57241,6.7856 1.42412,2.1286 2.69615,4.3356 4.30479,6.3364 2.71624,3.5574 4.65399,7.5375 6.18175,11.7236 1.37647,3.5662 2.90449,7.1035 4.75006,10.4551 1.28832,2.4722 2.9304,4.7087 4.12152,7.2336 2.22782,5.1248 4.02351,10.4317 5.87004,15.7051 1.51085,4.9923 3.42768,9.8523 4.80468,14.8859 1.6418,3.2729 3.0565,6.6345 4.3996,10.0454 2.1936,6.4286 4.1566,12.9297 5.6333,19.5611 0.5109,2.8069 1.6199,5.4986 2.9195,8.0296 2.6537,5.9362 4.4967,12.1748 6.5954,18.3138 1.3329,3.474 1.8795,7.3022 3.9727,10.4389 1.862,3.717 4.0511,7.2503 6.0325,10.9065 3.2833,6.3154 5.6932,13.0315 8.5712,19.5344 1.1089,2.9142 2.2929,5.7967 4.0574,8.3833 2.6979,2.3095 4.7276,5.271 6.6083,8.2534 2.3911,4.241 4.7931,8.4829 7.0211,12.8156 0.9593,1.4609 -0.3257,-1.1921 1.3608,3.0521 0,0 -8.1147,0.5683 -8.1147,0.5683 l 0,0 c 2.2268,4.9806 0.3378,1.0668 -0.5318,0.2065 -2.2074,-4.1112 -4.5216,-8.161 -6.7558,-12.2548 -1.8421,-2.9767 -3.9435,-5.6423 -6.4362,-8.1195 -1.9351,-2.9894 -3.5544,-6.1517 -4.7896,-9.4961 -2.8788,-6.3062 -5.2457,-12.837 -8.3426,-19.0406 -1.8167,-3.5058 -3.8866,-6.8741 -5.6281,-10.4147 -2.312,-3.7631 -3.5693,-7.9389 -4.9097,-12.1264 -1.9982,-5.7979 -3.7672,-11.6805 -6.1029,-17.3583 -1.5157,-3.1392 -2.8705,-6.4167 -3.5963,-9.8358 -1.4821,-6.2273 -3.3737,-12.3389 -5.33399,-18.4307 -1.38283,-3.6922 -2.94154,-7.2604 -4.56653,-10.8446 -1.34818,-4.8451 -3.35215,-9.4846 -4.75363,-14.3145 -1.76502,-5.0492 -3.43665,-10.1384 -5.45942,-15.0888 -0.96552,-2.3826 -2.81638,-4.3315 -3.88285,-6.6732 -2.01467,-3.7385 -3.8166,-7.6067 -5.30382,-11.5855 -1.18916,-3.3604 -2.70262,-6.5576 -4.83745,-9.4309 -1.92547,-2.4642 -3.56344,-5.1067 -5.2124,-7.7607 -1.09692,-2.2396 -2.30641,-4.4209 -3.47572,-6.6218 -1.86607,-3.5245 -3.51092,-7.0925 -4.53739,-10.977 -1.28709,-4.7083 -2.66608,-9.4441 -4.56106,-13.9403 -1.34612,-3.0047 -2.78362,-5.9732 -3.66321,-9.1605 -1.7695,-4.6587 -2.83207,-9.5198 -4.20485,-14.3071 -1.39082,-5.8988 -3.34287,-11.65 -4.69015,-17.5627 -1.48438,-5.3521 -2.93593,-10.7011 -3.90242,-16.1782 -0.66585,-2.7017 -1.15344,-5.4174 -2.27208,-7.9843 -0.77427,-2.5574 -2.75523,-4.594 -3.38897,-7.222 -1.43387,-3.3082 -2.63676,-6.6923 -4.00798,-10.0268 -1.56432,-3.2677 -3.22026,-6.4979 -4.56766,-9.8649 -1.76199,-4.2819 -3.45097,-8.5828 -4.94158,-12.9679 -1.58857,-4.1376 -2.70234,-8.4425 -4.60729,-12.4531 -1.31986,-3.6339 -2.38478,-7.3495 -3.90382,-10.9096 -1.27127,-3.6251 -3.05062,-7.0779 -3.83991,-10.8651 -1.11669,-4.1134 -2.4066,-8.2077 -4.02935,-12.1478 -1.67684,-3.8215 -3.07399,-7.7578 -4.93066,-11.4974 -1.78455,-3.4614 -3.25388,-7.072 -5.11782,-10.4898 -2.30963,-3.9733 -4.13772,-8.1997 -5.54322,-12.5766 -0.96209,-2.8253 -1.68495,-5.7444 -3.00838,-8.4348 -0.54459,-1.7306 -0.85553,-3.5076 -1.55573,-5.1957 -1.25213,-3.4724 -2.38828,-6.9469 -3.26903,-10.5373 -1.23297,-4.0504 -2.34668,-8.1228 -3.91193,-12.0673 -1.72151,-4.6483 -3.19435,-9.3561 -4.47244,-14.1455 -1.74607,-5.0858 -3.4296,-10.1888 -5.14598,-15.2827 -0.67401,-2.3492 -1.55036,-4.5722 -2.45832,-6.8299 -0.38476,-2.1965 -1.20992,-4.2544 -1.92548,-6.361 -1.6201,-4.818 -2.99683,-9.7044 -4.45645,-14.5724 -1.52648,-4.569 -3.1416,-9.1217 -4.7894,-13.6431 -1.91086,-4.4922 -3.38137,-9.1409 -5.03363,-13.7316 -1.3128,-4.5784 -2.45227,-9.1977 -3.84536,-13.7513 -0.6849,-2.0521 -1.6128,-4.0387 -2.61009,-5.9393 -0.95192,-1.8316 -1.96234,-3.6673 -2.29458,-5.7305 -1.01782,-2.8561 -2.22942,-5.6405 -2.67967,-8.6669 -1.39552,-5.3643 -2.45549,-10.7781 -3.35916,-16.247 -1.04458,-6.3032 -1.70229,-12.67 -1.75206,-19.0635 -0.32765,-7.124 -0.84711,-14.2341 -1.55607,-21.3309 -0.35078,-5.1329 -0.16308,-10.2721 -0.5246,-15.4041 -0.40207,-3.5385 -1.40257,-6.9542 -1.83068,-10.4903 -0.26496,-5.28 -0.60093,-10.57 -1.5553,-15.7789 -0.86005,-4.9431 -1.33146,-9.9887 -2.91289,-14.771 -1.42119,-4.7883 -2.42836,-9.6905 -3.01874,-14.6516 -0.74097,-5.0798 -0.92398,-10.183 -1.56566,-15.2713 -0.48328,-2.7931 -1.1986,-5.5412 -0.95387,-8.403 -0.0205,-3.3612 -0.0487,-6.7226 -0.16792,-10.0821 -0.15597,-3.7575 -0.28208,-7.5529 -1.19944,-11.2186 -0.77721,-3.3131 -0.90486,-6.6406 -1.21808,-10.0194 -0.47986,-3.9159 -1.46775,-7.7742 -1.56386,-11.7236 -0.11163,-3.195 -0.3558,-6.3863 -0.96439,-9.5304 -0.76603,-3.7733 -1.36558,-7.5165 -1.36555,-11.3829 -0.35525,-3.7711 -1.08632,-7.4664 -1.64969,-11.2067 0.0113,-2.1186 0.0399,-4.2391 -0.0674,-6.3558 -0.15284,-2.7776 -0.45544,-5.5529 -1.00612,-8.2814 -0.61647,-3.3846 -1.23279,-6.7424 -0.96409,-10.2017 -0.004,-3.0121 -0.0287,-6.0243 -0.0336,-9.0364 -0.003,-3.7786 -0.0107,-7.5573 0.0128,-11.3359 0.0303,-2.7376 0.0535,-5.4839 0.43702,-8.2003 0.45003,-2.9338 1.14277,-5.82 1.58308,-8.7546 0.001,-3.0825 -0.009,-6.1653 0.0475,-9.2473 0.066,-1.9309 0.20298,-3.864 0.8138,-5.7134 0.48669,-1.3339 1.24968,-2.5011 1.21378,-3.5098 -4.4e-4,-1.4817 0.0142,-2.9634 0.0118,-4.4451 0.0123,-1.5946 0.01,-3.1897 -0.0328,-4.7838 -0.0543,-1.9084 -0.16528,-3.8284 -0.64015,-5.68585 -0.65641,-2.6766 -1.65917,-5.26884 -1.95627,-8.02742 -0.88512,-3.40326 -2.0365,-6.76636 -3.97056,-9.73276 0,0 6.56259,-4.92194 6.56259,-4.92194 z"
       inkscape:connector-curvature="0"
       inkscape:label="#path3024" />
  </g>
</svg>
