<?xml version="1.0" encoding="UTF-8" standalone="no"?>
<!-- Created with Inkscape (http://www.inkscape.org/) -->

<svg
   xmlns:dc="http://purl.org/dc/elements/1.1/"
   xmlns:cc="http://creativecommons.org/ns#"
   xmlns:rdf="http://www.w3.org/1999/02/22-rdf-syntax-ns#"
   xmlns:svg="http://www.w3.org/2000/svg"
   xmlns="http://www.w3.org/2000/svg"
   xmlns:xlink="http://www.w3.org/1999/xlink"
   xmlns:sodipodi="http://sodipodi.sourceforge.net/DTD/sodipodi-0.dtd"
   xmlns:inkscape="http://www.inkscape.org/namespaces/inkscape"
   id="svg2"
   version="1.1"
   inkscape:version="0.48.4 r9939"
   width="1259"
   height="1875"
   sodipodi:docname="46693-686.svg">
  <metadata
     id="metadata8">
    <rdf:RDF>
      <cc:Work
         rdf:about="">
        <dc:format>image/svg+xml</dc:format>
        <dc:type
           rdf:resource="http://purl.org/dc/dcmitype/StillImage" />
        <dc:title />
      </cc:Work>
    </rdf:RDF>
  </metadata>
  <defs
     id="defs6" />
  <sodipodi:namedview
     pagecolor="#ffffff"
     bordercolor="#666666"
     borderopacity="1"
     objecttolerance="10"
     gridtolerance="10"
     guidetolerance="10"
     inkscape:pageopacity="0"
     inkscape:pageshadow="2"
     inkscape:window-width="1280"
     inkscape:window-height="732"
     id="namedview4"
     showgrid="false"
     inkscape:zoom="0.70737049"
     inkscape:cx="730.42783"
     inkscape:cy="309.60834"
     inkscape:window-x="-8"
     inkscape:window-y="-8"
     inkscape:window-maximized="1"
     inkscape:current-layer="svg2" />
  <image
     width="1259"
     height="1875"
     xlink:href="file:///C:/Users/Surface/Desktop/CHI2013%20BI%20GitRepo/public-dataset/input/cropped-display/46693-686.png"
     id="image10"
     x="0"
     y="0"
     style="fill:#ff0000" />
  <path
     style="fill:#de2d26;fill-opacity:1;fill-rule:nonzero;stroke:none"
     id="path3011"
     d="m -0.14492651,180.43388 c -0.78664,-5.60053 1.71122001,-10.64794 4.51634001,-15.3066 2.37063,-3.83727 6.1569995,-6.34106 9.3194395,-9.4207 2.4069,-1.80638 4.07537,-4.28875 5.92166,-6.60527 1.54166,-2.26986 3.08559,-4.52832 4.60466,-6.81212 1.82552,-2.67355 3.29871,-5.54707 5.17331,-8.19393 1.68049,-2.3301 3.16803,-4.78201 4.90441,-7.07951 0.91543,-1.94315 2.15013,-3.77484 2.84426,-5.82366 1.34047,-2.39884 1.88474,-5.069 2.88398,-7.59367 0.80389,-1.45958 1.30115,-2.96154 1.5425,-4.59661 -0.0231,-2.06425 1.04181,-3.87336 1.58635,-5.79894 0.33458,-1.58974 0.44171,-3.212332 0.52633,-4.830982 -0.0518,-1.99829 0.0678,-3.89509 0.4385,-5.86169 0.53546,-1.63051 1.17806,-3.24159 1.40103,-4.95411 0.14606,-0.9892 0.16603,-1.9867 0.17497,-2.98425 10e-4,-1.24257 -0.005,-2.48512 -0.009,-3.72768 -4.6e-4,-0.43615 -0.003,-1.21089 -0.004,-1.57567 14.34418,0.33157 9.33691,-2.56973 9.93046,2.20137 0.0902,0.7252 0.63946,2.36049 0.78906,3.05531 0.88542,4.39087 1.00565,8.88262 1.12982,13.34554 0.0911,4.287742 0.083,8.576732 0.0803,12.865192 -0.044,4.19289 0.16038,8.38471 -0.2841,12.55751 -0.58438,3.07359 -1.23124,6.13107 -1.51302,9.25032 0.0683,2.9581 -0.91905,5.74109 -1.52458,8.59321 -0.39551,1.86011 -0.56591,3.75795 -0.64628,5.65486 -0.0882,2.7006 -1.10263,5.24955 -1.53851,7.9015 -0.38414,2.40613 -0.42574,4.84932 -0.46311,7.28042 0.28072,3.44551 -0.68333,6.75013 -1.28669,10.10113 -0.55376,3.2264 -0.61526,6.49825 -0.67657,9.76197 -0.048,3.53272 -0.0404,7.06583 -0.0355,10.59877 0.28461,3.34317 -0.29801,6.54695 -1.00339,9.79294 -0.60473,2.47029 -0.80292,5.00842 -0.91136,7.54118 -0.0841,2.75837 -0.0762,5.51835 -0.0737,8.27767 0.004,2.01946 0.008,4.03892 0.011,6.05838 0.22329,2.50986 -0.35028,4.87516 -1.19297,7.22027 -0.53295,1.14309 -0.63939,2.38168 -0.74473,3.61935 -0.0753,1.55308 -0.0617,3.10878 -0.0595,4.66319 0.005,1.68733 0.009,3.37466 0.011,5.06199 0.002,2.45008 0.002,4.90016 0.002,7.35024 3e-5,2.4355 -2e-5,4.871 -5e-5,7.3065 0.1324,2.73215 -1.01222,5.27081 -1.54864,7.90037 -0.38678,2.36311 -0.40135,4.76131 -0.43457,7.14893 0.21493,3.58791 -0.25464,7.06666 -1.02975,10.55936 -0.63483,2.76313 -0.78372,5.60154 -0.89876,8.42462 0.1847,2.79314 -0.83807,5.40858 -1.36883,8.10319 -0.53402,3.30154 -0.58997,6.65503 -0.6546,9.99144 -0.0449,2.80941 -0.0394,5.61925 -0.0342,8.42891 0.007,3.17244 0.008,6.3449 0.01,9.51735 0.001,3.32695 0.001,6.6539 0.001,9.98085 -1e-5,2.45417 -6e-5,4.90834 -8e-5,7.36251 -2e-5,3.37175 -2e-5,6.74349 -2e-5,10.11524 0.14248,1.83308 -0.17629,3.71065 0,5.54049 0.009,0.0954 0.0162,-0.33934 0.0866,-0.27424 0.14296,0.13223 0.13828,0.3641 0.20741,0.54615 1.3719,2.52709 1.1565,5.23087 0.53926,7.94095 -0.50597,2.46188 -0.63983,4.98103 -0.75925,7.48567 0.0854,2.54605 -0.97775,4.88241 -1.80687,7.22953 -0.16672,1.4139 -0.38897,2.74776 -0.71868,4.14508 -0.79389,2.87876 -1.62485,5.75304 -2.35986,8.65176 -1.29463,3.28995 -2.26456,6.6853 -3.76037,9.89168 -0.88254,2.09603 -1.33883,4.29053 -2.25577,6.37871 -0.64589,2.24957 -1.38803,4.46695 -2.15755,6.68373 -1.11177,2.33195 -2.09947,4.74204 -2.60844,7.28346 -0.23734,1.09959 -0.30367,2.21316 -0.32081,3.33328 0.053,2.09727 -1.07301,3.92253 -1.60118,5.88824 -1.32962,2.62386 -1.68157,5.51144 -2.37241,8.32716 -0.57542,2.32256 -1.47576,4.60411 -1.8262,6.97984 -0.10992,1.78945 -0.2393,3.47452 -0.60826,5.24414 -0.61893,1.44753 -1.06986,2.93188 -1.42037,4.46324 -0.0633,0.25849 -0.10629,0.5211 -0.15466,0.78246 0,0 -9.7995095,-1.61159 -9.7995095,-1.61159 l 0,0 c 0.079,-0.47014 0.17144,-0.93785 0.27707,-1.40278 0.40549,-1.74832 0.87452,-3.48435 1.59916,-5.1313 0.0827,2.15471 0.0226,-3.69539 0.32072,-4.03671 0.48021,-2.615 1.2398,-5.17162 1.9838795,-7.72165 0.7538,-2.84994 0.98233,-5.90073 2.42637,-8.53142 0.0708,-0.25306 1.88937,-5.87179 1.24329,-2.68632 -0.0485,0.23886 0.002,-0.48746 0.002,-0.73119 0.032,-1.76911 0.17154,-3.53075 0.54388,-5.2651 0.65454,-2.90929 1.55859,-5.78488 2.93328,-8.44093 0.86565,-2.4931 1.64152,-4.98763 2.4763,-7.48717 0.97911,-2.10623 1.21922,-4.47726 2.33409,-6.54919 1.2539,-2.62746 1.9417,-5.45777 3.12336,-8.12016 0.79086,-3.07332 1.67329,-6.11853 2.50935,-9.17612 0.0126,0.13075 0.0124,0.52116 0.0377,0.39226 0.31336,-1.59763 0.10854,-3.32119 0.78932,-4.86157 0.51761,-1.46499 1.31295,-2.84431 1.25113,-4.39807 0.14952,-3.08939 0.34324,-6.19298 0.99793,-9.22384 0.68349,-2.9712 1.04772,2.16253 -0.24621,-2.48669 -0.98299,-2.96919 -0.91552,-5.95515 -0.83714,-9.0518 0,-3.37177 0,-6.74354 2e-5,-10.11531 2e-5,-2.45411 7e-5,-4.90823 8e-5,-7.36235 -3e-5,-3.32565 -1.3e-4,-6.6513 -0.001,-9.97696 -10e-4,-3.1676 -0.003,-6.3352 -0.009,-9.50279 -0.005,-2.88062 -0.0106,-5.76143 0.036,-8.64178 0.0777,-3.93283 0.16627,-7.88535 0.8505,-11.76933 0.47748,-2.31093 1.32601,-4.22741 1.17956,-6.54242 0.14361,-3.41147 0.35733,-6.83592 1.12805,-10.17351 0.63735,-2.84555 1.01897,-5.60306 0.79292,-8.53959 0.0437,-3.03587 0.0926,-6.08513 0.65204,-9.07994 0.42704,-1.94997 1.23908,-3.8663 1.33018,-5.82891 3e-5,-2.43534 8e-5,-4.87069 5e-5,-7.30603 -8e-5,-2.44652 2.3e-4,-4.89303 -0.002,-7.33954 -0.002,-1.68641 -0.005,-3.37282 -0.011,-5.05922 -0.002,-1.84821 -0.0195,-3.69867 0.0975,-5.54418 0.18673,-2.08737 0.47607,-4.17928 1.29764,-6.12656 0.60612,-1.66589 0.73624,-1.60485 0.60213,-3.83301 -0.003,-2.02072 -0.007,-4.04144 -0.011,-6.06216 -0.003,-2.90843 -0.0104,-5.81762 0.0834,-8.72493 0.14015,-3.09473 0.40203,-6.19314 1.12858,-9.21367 0.56101,-2.57729 1.08706,-4.99061 0.77652,-7.6685 -0.005,-3.60038 -0.0126,-7.20095 0.0373,-10.80109 0.0728,-3.79637 0.17475,-7.60057 0.83505,-11.35043 0.5196,-2.83381 1.39642,-5.56614 1.12764,-8.48006 0.0471,-2.93994 0.12173,-5.89179 0.60406,-8.79887 0.39462,-2.24736 1.16019,-4.45492 1.40575,-6.65943 0.10955,-2.45967 0.34543,-4.91814 0.86285,-7.32911 0.54596,-2.47624 1.4277,-4.83631 1.34148,-7.40857 0.3059,-3.20424 0.86728,-6.36707 1.54117,-9.51409 0.54623,-3.75206 0.0222,-7.59845 0.21307,-11.37789 0.003,-4.19502 0.0109,-8.39056 -0.0766,-12.584912 -0.10566,-3.85495 -0.1806,-7.73825 -0.91266,-11.53657 -1.88868,-8.84017 -2.97221,-6.79864 8.92094,-7.47177 0.003,0.55888 0.003,1.11778 0.005,1.67667 0.004,1.28432 0.0112,2.56864 0.009,3.85296 -0.0148,1.48456 -0.0704,2.96892 -0.2961,4.43909 -0.34806,2.0565 -0.87558,4.07294 -1.63009,6.02054 -0.19808,-1.50175 0.0273,3.45379 -0.10181,3.77225 -0.13146,2.448152 -0.32731,4.905182 -0.96906,7.281742 -0.87313,2.66613 -1.11117,2.06262 -1.24827,4.35224 -0.39755,2.47054 -1.09065,4.84132 -2.26413,7.06419 -0.96851,1.2114 -1.32595,5.53806 -2.67027,7.06736 -1.12975,2.90807 -2.64144,5.67542 -4.23196,8.34795 -1.6862,2.22096 -3.1023,4.61382 -4.74472,6.86261 -1.84657,2.54217 -3.16774,5.39826 -5.00253,7.94747 -1.69949,2.51768 -3.36309,5.05381 -5.13228,7.52728 -2.16299,2.60598 -4.03866,5.48858 -6.79619,7.55281 -2.60421,2.44079 -5.59376,4.52377 -7.71121,7.43768 -1.54448,2.41092 -3.2092895,5.20908 -3.2315195,8.1468 0,0 -9.73829001,1.94766 -9.73829001,1.94766 z"
     inkscape:connector-curvature="0" />
  <path
     style="fill:#de2d26;fill-opacity:1;fill-rule:nonzero;stroke:none"
     id="path3013"
     d="m 31.495543,325.68546 c 2.76399,-3.77508 6.05189,-7.11795 8.96977,-10.76299 2.23846,-3.27942 5.10632,-6.00938 7.75786,-8.92907 1.18389,-1.65122 3.88669,-2.61688 4.60187,-4.6094 1.79161,-2.30885 3.05878,-4.9393 4.49556,-7.46653 1.2855,-2.20795 2.33977,-4.5216 3.67869,-6.7051 1.0799,-1.69149 1.94796,-3.51385 2.93568,-5.25958 0.95084,-1.55034 2.09805,-3.07134 2.84577,-4.73388 1.34094,-1.9446 2.46663,-4.01023 3.86108,-5.9179 1.07896,-1.85118 2.49756,-3.30382 3.75232,-4.75531 0.70876,-1.39328 1.77075,-2.61696 2.47337,-4.01481 1.02231,-1.57177 2.10936,-3.14811 3.23427,-4.66098 0.9305,-1.35069 1.86288,-2.80966 2.53524,-4.32141 1.22406,-2.37087 2.5962,-4.64443 3.90819,-6.9668 1.39678,-1.77922 2.24613,-3.8461 3.32481,-5.80753 0.96143,-1.55408 1.91797,-3.09309 3.03396,-4.52705 1.64074,-1.93259 3.29954,-3.83324 4.90013,-5.80402 1.7623,-2.14419 3.646737,-4.18224 5.550117,-6.20064 1.41069,-1.42549 2.56804,-2.99794 4.04344,-4.38612 -0.066,0.0358 -0.24456,0.16626 -0.19799,0.10737 1.02977,-1.3022 2.71661,-2.48143 3.52377,-3.86895 1.06768,-1.36578 2.35333,-2.57084 3.2106,-4.09974 1.71261,-2.29974 3.49687,-4.53457 5.24409,-6.80995 0.81546,-0.94284 1.61938,-1.89799 1.90226,-3.06254 0.41133,-1.467 1.4856,-2.70763 1.89774,-4.09854 0.0965,-1.88018 1.09723,-3.53401 1.59593,-5.30964 0.41383,-1.91036 0.74944,-3.77504 1.5049,-5.59811 0.50259,-1.16722 0.79625,-2.36526 0.96729,-3.61612 0.004,-1.91793 0.31869,-3.76181 0.83212,-5.61405 0.55348,-1.75264 0.93371,-3.55402 1.12625,-5.38039 0.5394,-1.92549 1.47545,-3.55057 1.81835,-5.5058 0.44424,-2.51208 1.38586,-4.86476 1.77924,-7.39744 0.37308,-2.94191 1.40034,-5.74474 2.02726,-8.63744 0.35332,-1.95762 0.43712,-3.90132 0.8398,-5.85333 0.79323,-1.84347 1.16018,-3.78502 1.39964,-5.76331 0.17552,-2.18116 1.2008,-4.15661 1.89135,-6.20572 0.209,-1.09525 0.248,-2.21267 0.27436,-3.32483 0.21708,-2.30274 1.33303,-4.37666 1.73271,-6.63596 0.23097,-1.99765 0.27342,-3.97435 0.58239,-5.96742 0.64554,-3.65834 1.60854,-7.23292 2.4755,-10.84164 0.66435,-2.60233 0.97066,-5.27774 1.12212,-7.954172 0.0805,-1.57978 0.0666,-3.16202 0.0607,-4.7432 -0.008,-1.78293 -0.0126,-3.56587 -0.0152,-5.34881 -0.002,-1.60368 -0.002,-3.20736 -0.002,-4.81104 0,-1.61469 8e-5,-3.22938 1.1e-4,-4.84408 0.42034,-2.59084 1.2374,-5.06776 1.70692,-7.6539 0.20673,-1.3811 0.26328,-2.77453 0.28848,-4.16844 0.0536,-2.42151 1.12422,-4.62166 1.50873,-6.99365 0.66695,-2.41255 1.53219,-4.76445 2.39956,-7.11066 -0.2786,4.58523 -0.90832,1.1231 -1.431,-0.93003 -0.0851,1.14759 -1.84949,-5.07248 -1.99498,-5.30032 -0.78836,-2.10023 -1.95484,-4.01749 -3.06171,-5.96259 -1.45373,-2.51397 -2.70035,-5.14059 -4.03949,-7.71603 -1.29504,-2.86806 -2.36292,-5.84462 -3.91996,-8.5913 -1.27326,-1.792 -2.17095,-3.85881 -2.89658,-5.83959 -1.25619,-1.55762 -1.81984,-3.44039 -2.18972,-5.37136 0.43999,2.40475 -1.7328,-3.7384004 -1.74675,-3.7879804 0.68081,2.8501504 -1.76202,-3.89539 -1.61788,-2.62838 -0.86241,-2.01356 -2.35471,-3.36405 -3.76935,-4.98642 -1.31601,-1.57409 -1.33119,-1.17735 -0.28367,-0.37679 0,0 1.54788,-9.80977 1.54788,-9.80977 l 0,0 c 2.5908,0.78564 4.6132,1.34493 6.22109,3.65987 1.70575,1.95634 3.58077,3.80206 4.67173,6.19574 0.9664,1.74458 1.86502,3.48044 2.81774,5.35601 0.38673,1.60931 1.59821,2.93735 1.93131,4.6074504 0.16895,1.08904 0.66186,1.80714 1.36009,2.82193 0.80294,1.86317 1.37015,3.7391 2.65725,5.37568 1.53844,2.85133 2.81452,5.82873 4.04232,8.821 1.26877,2.47344 2.47305,4.98289 3.86363,7.39024 1.29475,2.30983 2.66982,4.58902 3.602,7.0776 0.84946,2.28679 1.36939,4.67045 2.48876,6.86198 0.11662,2.24696 2.59143,3.99807 1.06199,6.57749 -0.65826,1.77964 -1.26374,3.57863 -1.92779,5.3552 -0.34726,1.93883 -1.13926,4.36094 -1.36578,5.48974 -0.0369,1.92922 -0.13581,3.85816 -0.44799,5.76561 -0.35403,1.93297 -0.67285,4.25215 -1.54568,5.87187 -4e-5,1.61449 -1.1e-4,3.22898 -1.1e-4,4.84347 6e-5,1.59896 1.1e-4,3.19792 0.002,4.79687 0.003,1.77544 0.007,3.55087 0.0152,5.32629 0.007,1.78839 0.0184,3.57793 -0.0778,5.36452 -0.19817,3.263502 -0.57433,6.523972 -1.38186,9.698872 -0.8336,3.44316 -1.76567,6.84594 -2.36831,10.34105 -0.62138,1.92391 0.0606,4.17354 -0.61354,6.12652 -0.3331,1.54355 -0.83036,3.83055 -1.53523,4.9089 -0.059,2.10154 -0.1819,4.21689 -0.79335,6.24301 -0.499,1.47407 -1.27143,2.88232 -1.44402,4.24593 -0.30275,2.41005 -0.69277,4.85106 -1.6584,7.09785 -0.20724,1.33026 -0.2965,3.73441 -0.73393,5.41566 -0.59624,2.72111 -1.54141,5.36089 -1.92807,8.1159 -0.4369,2.60681 -1.30357,5.06932 -1.81366,7.59636 -0.0411,0.21816 -1.87012,7.34144 -1.71357,4.78834 -0.26329,2.36374 -0.72491,4.70198 -1.43359,6.97524 -0.36657,1.30109 -0.50714,2.65327 -0.56441,4.33574 -0.30645,2.11959 -0.83638,4.17806 -1.67953,6.15309 -0.57716,1.20978 -0.58172,3.08435 -1.13754,4.60185 -0.80852,2.51367 -1.234,2.62763 -1.47783,4.89598 -0.0524,0.17458 -1.76466,5.30043 -1.85517,3.93027 -0.71589,2.53251 -1.89587,4.80238 -3.67882,6.76593 -1.55468,2.01796 -3.11987,4.01685 -4.69164,6.01409 -1.22395,1.88606 -2.64637,3.57795 -4.04116,5.24098 -1.38977,1.55288 -2.923,2.92406 -4.14327,4.62166 -1.32212,1.21794 -2.29683,2.69801 -3.59545,3.94043 -1.73563,1.83995 -3.45692,3.69509 -5.06617,5.64793 -1.40372,1.72801 -2.84936,3.44921 -4.35005,5.05819 -0.96085,1.34931 -1.865537,2.46112 -2.672867,3.9437 -1.18898,1.85209 -1.83029,4.06938 -3.30149,5.76654 -1.2262,2.16365 -2.51466,4.26664 -3.65095,6.48138 -1.04516,2.03112 -2.1849,4.06105 -3.51806,5.91063 -1.11614,1.41862 -1.96582,2.64837 -2.62098,3.7505 -1.19877,1.92346 -2.33953,3.86249 -3.71183,5.67188 -1.03514,1.27108 -2.28385,2.40301 -3.04244,3.89518 -1.09212,1.47446 -1.91097,3.1237 -3.02872,4.57263 -0.98008,1.82894 -2.07167,3.61723 -3.19436,5.35666 -1.16418,1.29872 -1.85142,3.8486 -2.96165,5.30205 -1.28995,2.09116 -2.25858,4.33134 -3.51982,6.43739 -1.50588,2.6068 -2.79661,5.35232 -4.6578,7.73974 -1.58162,2.36891 -3.53919,4.34225 -5.75601,6.13303 -2.54067,2.72942 -5.20319,5.33874 -7.32859,8.43121 -2.86827,3.5384 -6.02947,6.83224 -8.7567,10.48901 0,0 -7.94492,-5.95868 -7.94492,-5.95868 z"
     inkscape:connector-curvature="0" />
  <path
     style="fill:#de2d26;fill-opacity:1;fill-rule:nonzero;stroke:none"
     id="path3015"
     d="m 57.716893,9.1760776 c 1.3263,4.3511004 3.15825,8.5109704 4.4139,12.8847904 1.22411,2.74662 1.88499,5.68686 3.15925,8.40658 0.96414,2.53586 2.20329,4.93414 3.08238,7.50425 0.89758,1.94567 2.06592,3.7381 3.08726,5.61889 0.78903,1.91045 1.92947,3.60884 2.7659,5.498 0.2654,0.45572 2.04394,4.37612 1.96725,3.74435 1.08829,1.28414 2.33838,2.39806 3.34716,3.80287 1.4074,1.6769 2.24413,3.7023 3.3683,5.55884 1.02581,1.78001 1.67681,2.73431 2.64239,4.42546 0.60698,1.82619 2.05988,3.02064 3.20109,4.53044 1.53634,1.99171 2.60977,4.24823 3.95986,6.33518 1.03509,1.32027 1.67723,3.18151 2.90199,4.32911 1.51921,2.22112 2.8616,4.57496 3.96375,7.0293 0.788167,2.20056 2.012747,4.17836 2.821607,6.37382 -0.0204,-0.11396 -0.13833,-0.42813 -0.0611,-0.34187 0.9407,1.05097 2.08746,3.68994 2.9447,5.02675 1.86359,3.366002 3.21574,6.977952 4.92927,10.422032 1.74147,3.0913 3.65975,6.07517 5.20817,9.27075 0.63235,1.57476 1.70435,3.06685 2.51025,4.44153 1.20919,1.93742 2.27339,3.93246 3.34258,5.94842 1.032,2.24532 2.24563,4.35199 3.02661,6.7244 0.38426,1.50497 1.29883,2.76877 2.10673,4.0671 1.45234,2.5814 2.71373,5.25347 4.04827,7.90349 1.58265,2.73007 3.13706,5.48496 4.52928,8.31866 1.28477,1.49596 1.57158,3.87853 2.98972,5.18153 0.10447,0.10229 0.23698,0.1713 0.35548,0.25695 0,0 -5.26065,8.42337 -5.26065,8.42337 l 0,0 c -0.93561,-0.60864 -1.80945,-1.29833 -2.56039,-2.13103 -1.86616,-2.22841 -2.94939,-4.88343 -4.44258,-7.36168 -1.37006,-2.80632 -2.93616,-5.51315 -4.48267,-8.22477 -1.2015,-2.3907 -2.28417,-4.83663 -3.62491,-7.14624 -1.21097,-1.97993 -2.48822,-3.97885 -3.1107,-6.24117 -0.56404,-1.81963 -1.60352,-3.38652 -2.35229,-5.12598 -0.84898,-1.60915 -1.70326,-3.20121 -2.60879,-4.76925 -1.25573,-1.90313 -2.47129,-3.86758 -3.41363,-5.95646 -1.51226,-3.16622 -3.49906,-6.07046 -5.15519,-9.1624 -1.554407,-3.13515 -2.854277,-6.38404 -4.414847,-9.51023 -1.37226,-2.17148 -2.58837,-4.40302 -3.84346,-6.639212 -0.70245,-2.01743 -1.98532,-3.77487 -2.60765,-5.8319 -0.653,-1.71553 -1.72588,-3.24594 -2.65221,-4.81742 -1.21407,-1.64402 -2.37582,-3.33098 -3.4393,-5.08435 -1.25597,-1.96734 -2.27988,-4.03767 -3.673,-5.9135 -1.09558,-1.87252 -3.26219,-3.16308 -3.77093,-5.41975 -0.84691,-1.50129 -1.63329,-2.78905 -2.51616,-4.20967 -1.01022,-1.68594 -1.7496,-3.49807 -3.01586,-5.01435 -0.80582,-1.30443 -2.32016,-2.28122 -3.22074,-3.62508 -1.14212,-1.79335 -2.13052,-3.69811 -3.04093,-5.61906 -0.70601,-1.66503 -1.79735,-3.12691 -2.4427,-4.82662 -1.19515,-2.39804 -2.81355,-4.59407 -3.73579,-7.14098 -0.68946,-2.23339 -1.91933,-4.24652 -2.66991,-6.45935 -1.46444,-3.20401 -2.36849,-6.60131 -3.69791,-9.86274 -1.12698,-4.04899 -2.90845,-7.86704 -4.07966,-11.90347 0,0 9.22084,-3.6883304 9.22084,-3.6883304 z"
     inkscape:connector-curvature="0" />
  <path
     style="fill:#de2d26;fill-opacity:1;fill-rule:nonzero;stroke:none"
     id="path3019"
     d="m 44.027283,87.119698 c 0.61763,-2.82253 1.07809,-5.67331 1.47628,-8.53388 -0.0596,-1.97376 1.42684,-3.29114 2.23491,-4.88156 0.0553,-0.10877 -0.15229,0.19067 -0.22844,0.286 0.44496,-1.80426 1.50545,-3.45243 2.49513,-5.00069 1.00939,-1.37528 2.16596,-2.79453 2.87642,-4.35621 0.59654,-1.59721 1.55351,-3.05069 2.38861,-4.49608 0.48833,-1.5047 1.57336,-2.70198 2.08533,-4.17958 0.42102,-1.71162 1.41738,-3.16896 2.46658,-4.55163 -0.67625,1.12226 -0.26553,-1.13394 -0.25159,-1.47804 0.0297,-1.27006 0.0343,-2.54063 0.0239,-3.81097 -0.007,-0.45144 -0.004,-0.32464 -0.0105,-0.78708 -0.34509,-1.81424 1.00282,1.99493 -0.31683,0.11041 -0.12451,-0.16982 -0.25105,-0.33819 -0.37958,-0.50499 0.0369,0.04 0.0738,0.08 0.11077,0.11999 0,0 7.13543,-6.90747 7.13543,-6.90747 l 0,0 c 0.0521,0.0557 0.10423,0.11137 0.15634,0.16705 0.40641,0.47396 0.79208,0.96484 1.14693,1.47913 1.12178,1.63502 2.19667,3.41394 2.07801,5.49732 0.003,0.2476 0.007,0.49717 0.0102,0.7454 0.0115,1.4383 0.006,2.87693 -0.0326,4.31482 -0.11038,2.49074 -0.33744,4.95416 -1.77916,7.08388 -0.92827,1.20005 -0.48155,0.25167 -1.0542,1.99612 -0.67626,1.75823 -1.69445,3.29529 -2.43911,5.00982 -0.85432,1.63864 -1.93807,3.12082 -2.57812,4.86975 -1.04296,1.86373 -2.20751,3.71007 -3.51503,5.39355 -1.03118,1.83344 -0.85565,1.09499 -1.44176,3.08594 -0.12692,0.25988 -2.68062,4.94331 -1.24598,1.41398 0.0952,-0.23422 -0.0664,0.50129 -0.0996,0.75193 -0.42601,3.05355 -0.9185,6.09698 -1.57408,9.11075 0,0 -9.73828,-1.94766 -9.73828,-1.94766 z"
     inkscape:connector-curvature="0" />
  <path
     style="fill:#de2d26;fill-opacity:1;fill-rule:nonzero;stroke:none"
     id="path3023"
     d="m 150.13205,33.007958 c 5.13521,1.49347 10.01947,3.78956 14.81183,6.14298 4.27402,2.10035 8.63686,4.05599 12.75601,6.45064 3.23974,1.63671 6.06924,3.99052 9.29934,5.6248 2.96236,1.66367 6.06659,3.01704 8.96246,4.79975 2.14917,1.39459 4.30698,2.80969 6.65476,3.84945 2.39312,1.11516 4.5409,2.60967 6.56441,4.28901 1.228,0.49987 2.35304,1.47725 3.51134,2.19636 1.46654,0.63714 3.49047,2.18207 4.88864,3.58092 1.14477,0.68584 2.13099,1.66615 3.24754,2.43778 0.29443,0.0193 4.01613,3.28632 2.53792,1.99489 1.72248,1.20154 2.61656,2.03141 4.34875,3.25198 1.25639,0.76126 2.22697,1.96908 3.57068,2.51933 1.67747,0.95658 3.22976,1.95195 4.8907,2.92708 1.87306,0.88224 3.79453,1.63467 5.62401,2.63956 0.28517,0.25645 3.09793,1.68964 2.73614,1.91906 -0.31037,0.1968 -0.58539,-0.44497 -0.88834,-0.65301 -0.0784,-0.0538 -0.28187,-0.0403 -0.25327,-0.13098 0.0313,-0.0993 0.20597,-0.0303 0.30896,-0.0455 2.72298,-0.21121 5.3742,0.66699 8.04441,1.07796 2.11409,0.26586 4.24421,0.35947 6.3729,0.40309 1.43096,0.0236 2.86216,0.0158 4.29324,0.0122 1.76395,-0.004 3.52789,-0.006 5.29184,-0.006 1.23441,-0.14421 3.20668,-0.93038 5.00641,-1.32629 2.03839,-0.0864 3.44967,-0.55801 5.20013,-1.23203 2.11804,-0.79957 4.12604,-1.88091 6.16533,-2.87017 2.33792,-1.45196 5.13895,-2.14009 7.48599,-3.52536 1.98288,-1.0898 4.22064,-1.76386 5.92435,-2.70647 1.60867,-0.91776 3.01458,-2.10007 4.61809,-3.03206 0.9017,-0.68702 2.71555,-1.84854 3.9577,-2.76742 1.5325,-1.47958 3.29253,-2.71811 4.83578,-4.17357 1.9206,-1.14944 3.26351,-2.86545 5.03297,-4.2002 1.53006,-1.06028 3.04297,-2.11357 4.5782,-3.15346 2.16123,-1.47709 3.87345,-3.48879 5.56585,-5.46995 1.6705,-1.74099 3.57961,-3.23778 5.66501,-4.4474 0.57933,-0.35356 1.21002,-0.56309 1.85698,-0.7506 0,0 2.19569,9.68538 2.19569,9.68538 l 0,0 c 0.0489,-0.0147 0.88371,-0.25532 0.87606,-0.31299 -1.09648,0.64496 -2.1162,1.41107 -3.04663,2.28074 -2.28779,2.67185 -4.68188,5.29967 -7.61231,7.28346 -1.44264,0.92673 -2.7898,1.92334 -4.2033,2.89142 -1.54967,1.04798 -2.61753,2.75891 -4.33491,3.63774 -1.8334,1.574 -3.67091,3.13669 -5.50859,4.71744 -1.73144,1.2775 -3.54731,2.40839 -5.32511,3.61547 0.3278,-0.4228 -0.87535,0.61544 -1.30717,0.93128 -0.80964,0.59218 -1.38389,0.99617 -2.25942,1.52925 -0.25269,0.15386 -0.51904,0.28406 -0.77856,0.42609 -2.01107,1.11173 -4.14652,1.80487 -6.18793,2.8471 -2.55436,1.24851 -5.22259,2.25874 -7.71818,3.641 -2.29982,1.0979 -4.55875,2.3037 -6.94531,3.20567 -2.16032,0.80577 -4.28906,1.54194 -6.61763,1.65338 -2.37989,0.51116 -4.64509,1.59963 -7.11483,1.55369 -1.7571,8.2e-4 -3.5142,0.002 -5.2713,0.006 -1.50942,0.004 -3.01898,0.0116 -4.52827,-0.0144 -2.57471,-0.0558 -5.15138,-0.1757 -7.70575,-0.52142 -2.07892,-0.33207 -4.16553,-1.04595 -6.16888,-0.96299 -2.65713,0.0264 -4.96264,-0.63416 -7.03376,-2.31958 -1.9311,-1.0718 -4.01145,-1.73663 -5.93565,-2.81892 -0.70789,-0.4302 -3.75341,-1.78731 -3.86997,-2.42825 -0.0528,-0.29025 1.10354,0.37375 0.80889,0.35915 -0.32194,-0.0159 -0.59741,-0.24232 -0.89612,-0.36347 -2.01597,-0.97002 -3.71112,-2.32286 -5.47554,-3.67787 -0.82419,-0.65805 -4.55209,-3.26666 -2.77103,-2.25238 -1.32376,-0.81925 -2.48784,-1.74675 -3.70968,-2.6963 -1.94377,-1.36005 -2.82539,-2.30069 -4.69242,-3.66406 -0.9938,-1.10655 -1.84365,-1.5441 -3.02225,-2.07679 -2.21589,-1.38507 -2.33054,-1.72298 -4.61326,-2.99282 -1.32839,-1.1111 -2.7099,-2.1193 -4.28521,-2.86443 -2.74633,-1.2492 -5.32409,-2.82594 -7.84122,-4.48331 -2.65669,-1.69877 -5.61438,-2.82806 -8.32626,-4.43423 -3.33727,-1.7971 -6.38722,-4.06254 -9.72794,-5.86412 -3.85468,-2.33795 -8.08344,-4.03794 -12.0917,-6.09122 -4.01834,-1.98865 -8.12158,-3.87345 -12.36927,-5.31276 0,0 1.94766,-9.73829 1.94766,-9.73829 z"
     inkscape:connector-curvature="0" />
  <path
     style="fill:#de2d26;fill-opacity:1;fill-rule:nonzero;stroke:none"
     id="path3025"
     d="m 332.90367,48.422608 c 3.77709,-0.83227 7.49704,-1.51592 11.35443,-0.99912 2.48437,0.34237 4.67562,1.32607 6.81106,2.59519 2.1235,1.02846 3.52708,2.81101 4.20437,5.0536 0.3266,1.01661 0.17214,2.08205 0.28374,3.11786 0.0226,0.20936 -0.18705,-0.70215 0.0113,-0.63161 0.0732,0.026 0.58854,1.79439 0.6828,2.10559 0.32001,0.27697 1.62256,8.02041 0.88598,4.34247 1.1862,1.84235 1.74205,3.91782 2.09396,6.0553 0.26783,2.25936 0.27714,4.53974 0.28721,6.81198 0.27133,1.26967 -0.52819,4.43776 0.13078,5.37187 0.77995,2.1761 1.26763,4.43106 1.57645,6.71721 0.83855,2.10691 1.39999,4.3008 1.81968,6.52457 0.39134,2.17721 1.28444,4.30366 1.7756,6.554592 0.18283,2.06564 1.06248,3.81827 1.64963,5.81614 0.74409,2.60881 0.86637,5.33124 0.9573,8.02598 0.1382,2.24871 0.94793,4.43219 1.38129,6.66666 0.38433,2.68191 0.44709,5.33577 1.06092,7.96955 1.06207,2.78824 0.72888,5.90509 1.54124,8.72089 0.63941,2.48207 1.20897,4.94829 2.0656,7.35773 0.87732,2.17724 1.45907,4.43885 1.76773,6.76172 0.4061,2.64008 0.95026,5.34777 1.67651,7.94009 0.96187,3.2 1.72794,6.44114 2.17666,9.75218 0.37934,0.12482 1.53031,3.8167 1.44635,3.01144 1.06271,2.07976 2.17734,4.08828 3.10466,6.23114 0.57504,2.3109 1.31837,4.5114 2.34467,6.6577 -0.0347,0.0504 0.77503,1.38035 0.39213,0.78111 -0.096,-0.12269 -0.19206,-0.24539 -0.28808,-0.36808 0,0 -7.48475,6.52735 -7.48475,6.52735 l 0,0 c -0.10871,-0.13724 -0.21743,-0.27449 -0.32615,-0.41173 -0.4866,-0.71619 -0.88398,-1.48616 -1.2621,-2.2642 -1.08233,-2.28596 -2.04828,-4.6293 -2.54976,-7.11891 -0.63936,-1.72101 -1.67016,-3.26976 -2.44799,-4.92731 -1.12233,-2.17096 -2.13256,-4.42803 -2.77236,-6.80119 -0.38112,-2.89497 -1.09687,-5.71434 -1.92944,-8.51189 -0.78864,-3.05664 -1.46121,-6.18841 -1.93909,-9.30065 -0.14756,-1.60827 -0.7034,-3.12967 -1.26632,-4.63192 -0.98539,-2.77158 -1.66488,-5.60325 -2.38566,-8.45396 -0.60422,-2.89351 -0.69429,-5.86551 -1.53988,-8.715 -0.63345,-2.75925 -0.87315,-5.51561 -1.13641,-8.32576 -0.52465,-2.74024 -1.53575,-5.40675 -1.55545,-8.21749 -0.0613,-1.88336 -0.0916,-3.79864 -0.58134,-5.62954 -0.586,-2.16985 -1.63175,-4.2207 -1.81707,-6.49158 -0.45917,-2.31099 -1.49299,-4.455822 -1.82201,-6.788392 -0.44072,-2.41728 -1.33223,-4.68789 -1.90595,-7.07305 -0.24391,-2.07176 -0.87021,-4.04688 -1.46549,-6.0407 -0.37166,-2.42258 -0.37956,-4.82388 -0.32295,-7.27355 -0.007,-1.7664 -0.0161,-3.5363 -0.16442,-5.29752 -0.16925,-1.14221 -0.40052,-2.08485 -1.1068,-3.05034 -0.73213,-2.01594 -1.09025,-3.9988 -1.58513,-6.07783 -0.3969,-1.38178 -1.39149,-4.11334 -1.04948,-4.84515 0.93263,1.54285 2.92787,2.42973 0.31315,0.90955 -1.82431,-1.08452 -0.57362,-0.68235 -3.23631,-1.31483 -2.62506,-0.53473 -5.29291,0.58508 -7.9072,0.92013 0,0 -1.94766,-9.73829 -1.94766,-9.73829 z"
     inkscape:connector-curvature="0" />
  <path
     style="fill:#fc9272;fill-opacity:1;fill-rule:nonzero;stroke:none"
     id="path3027"
     d="m 297.42653,178.08715 c 2.8303,2.55398 4.91145,5.83615 7.60151,8.50763 1.90301,2.06768 3.44926,4.43593 4.8573,6.86005 1.20834,1.72369 2.14111,3.57454 3.27753,5.25997 1.31114,1.85863 2.04127,4.06771 3.29469,5.95389 1.57474,2.17625 1.78261,4.96366 3.07758,7.24239 0.96692,1.95992 1.64358,4.29733 2.13164,5.23354 1.1885,2.06836 1.64382,4.4003 1.93823,6.73585 0.43511,-0.39868 1.51695,3.47079 1.67275,4.10611 0.30435,-0.095 1.41867,2.41529 1.89288,3.15507 1.04899,1.24905 1.48193,4.02626 2.16882,4.78947 0.70496,1.14535 1.3762,2.90363 1.87826,3.56715 1.03595,1.73031 2.19358,3.41545 3.40635,5.07587 1.53245,2.29083 3.03287,4.51227 4.03601,7.1039 1.00185,1.38029 2.1032,3.28328 2.97406,4.95789 1.28377,2.43118 2.67497,4.81068 3.93081,7.25733 1.38025,1.5911 1.96384,3.65755 3.2262,5.30914 0.9678,1.7773 2.03774,3.47958 3.00969,5.25089 0.66894,1.54728 1.67392,2.995 2.48386,4.41608 1.2417,2.20657 2.50601,4.40148 3.66815,6.65887 0.63654,1.68909 1.75282,3.10989 2.52869,4.77199 0.48746,1.63336 1.72557,3.35059 2.85104,5.6358 0.91837,2.45252 2.29456,4.69885 3.51231,7.01127 1.20787,2.297 2.52556,4.50535 3.53482,6.9052 1.03696,1.79707 2.1702,3.48071 3.10417,5.34106 1.31529,1.80385 2.22687,4.06882 3.05528,5.97971 1.0002,1.72285 1.77012,3.38083 2.56385,4.78434 1.6127,2.58871 3.26673,5.10332 4.53058,7.89266 0.37801,0.19249 2.45875,4.49745 1.94839,3.04698 1.88582,1.59814 2.81959,3.7322 3.55678,5.03382 1.19689,1.73561 1.86401,5.12191 3.08113,6.58852 0.19918,0.36375 0.39836,0.7275 0.59754,1.09125 0,0 -8.71166,4.76809 -8.71166,4.76809 l 0,0 c -0.18343,-0.33532 -0.36687,-0.67063 -0.5503,-1.00595 -1.12075,-2.16851 -1.93046,-4.4867 -3.10121,-6.62453 -0.55128,-1.04053 -1.13691,-2.12355 -0.9337,-1.98438 -2.24279,-1.8757 -3.52036,-4.34409 -4.95,-6.85312 -1.11405,-2.52782 -2.73037,-4.73237 -4.13336,-7.10242 -0.85446,-1.55204 -1.60084,-3.10589 -2.48433,-4.64494 -1.15809,-2.23002 -1.93248,-4.63271 -3.43211,-6.69334 -0.83842,-2.05497 -2.47383,-3.71222 -3.30423,-5.7884 -0.88899,-2.14627 -2.13254,-4.07325 -3.1777,-6.14314 -1.22945,-2.39262 -2.67315,-4.70147 -3.62133,-7.22673 -0.95974,-1.9634 -2.22173,-3.89228 -2.95044,-5.8444 -0.69398,-1.52647 -1.79721,-2.8064 -2.34583,-4.39731 -0.95638,-1.86178 -2.003,-3.67734 -2.9802,-5.51686 -1.14021,-1.78024 -2.2331,-3.6167 -3.1552,-5.52592 -0.55209,-1.39309 -1.69932,-2.55601 -2.22789,-3.98599 -1.52028,-2.13934 -2.52375,-4.55364 -4.06621,-6.688 -1.17876,-2.43672 -2.63735,-4.75062 -3.87954,-7.15678 -1.05657,-2.06023 -2.39285,-3.94879 -3.44478,-6.01526 -0.63097,-1.76801 -1.78857,-3.17424 -2.77009,-4.75932 -1.20802,-1.66152 -2.34027,-3.40833 -3.4383,-5.12 -0.86167,-1.22047 -1.54601,-2.51583 -2.1064,-3.89783 -0.98431,-1.57134 -1.56007,-3.25627 -2.27318,-4.95085 -1.25592,-2.00034 -2.33107,-4.13324 -3.19899,-6.3245 -0.18679,-1.79032 -1.83554,-3.15612 -1.83184,-5.0324 -0.13918,-1.16626 -0.25002,-2.34251 -0.88813,-3.36102 -0.87507,-1.67855 -1.35711,-3.43832 -2.09358,-5.16125 -1.15608,-2.23873 -1.69835,-4.66628 -2.87775,-6.88465 -1.0129,-1.80992 -1.8833,-3.70016 -2.98013,-5.45201 -1.26832,-1.91755 -2.32891,-3.91802 -3.62481,-5.81811 -0.99849,-1.74538 -2.07211,-3.43947 -3.41213,-4.93853 -2.56031,-2.72437 -4.77459,-5.76726 -7.46793,-8.37147 0,0 7.02238,-7.02237 7.02238,-7.02237 z"
     inkscape:connector-curvature="0" />
  <path
     style="fill:#de2d26;fill-opacity:1;fill-rule:nonzero;stroke:none"
     id="path3031"
     d="m 419.14328,389.03923 c 3.73493,1.82555 7.13121,4.33069 10.15376,7.17166 1.60402,1.80922 3.10546,3.71739 4.32444,5.80481 0.51316,1.0889 1.70848,2.65328 2.54083,5.01117 0.22385,0.57121 1.72883,4.25606 1.58828,3.38318 1.00662,1.12874 1.67508,3.18545 2.4409,3.98875 1.25947,1.60812 1.94801,3.64312 2.50234,5.46524 1.2579,1.6282 1.0056,3.99869 1.94942,5.70368 1.03033,1.89331 1.61916,3.92585 1.98078,6.03987 -0.4285,-3.00277 1.004,5.80799 0.27607,3.23254 -0.71602,-2.5333 -0.20081,-1.36853 0.0629,-0.84258 1.07546,1.78764 1.51386,3.78254 1.76324,5.82742 0.12754,1.41095 0.93161,3.32318 1.4562,5.36944 0.45098,1.93755 0.61519,3.91585 0.68415,5.89819 -0.27802,-2.62758 0.34366,4.86251 0.0166,2.9112 -0.0521,-0.31112 -0.20923,-0.68233 -0.0356,-0.9457 0.12275,-0.18618 0.16664,0.41371 0.24995,0.62056 0.82616,1.4308 0.84643,3.16245 1.41272,4.67211 0.0443,0.11802 -0.0269,-0.25068 -0.0403,-0.37601 0.37272,0.85459 2.0071,2.78224 0.50117,1.11442 -3.70376,-3.14314 2.01124,5.49278 -0.35047,7.9811 0,0 -7.1576,-6.8845 -7.1576,-6.8845 l 0,0 c 1.97762,-1.98925 4.38435,9.94082 0.90084,6.31772 -1.25316,-1.28375 -1.9351,-2.69329 -2.83303,-4.20205 -0.66244,-1.64393 -1.05049,-3.32565 -1.67165,-4.97846 -0.74808,-1.92071 -1.02801,-3.85096 -0.91812,-5.89396 -0.0415,-1.26618 -0.12066,-2.52914 -0.37997,-3.77315 -0.56787,-2.22494 -1.44337,-4.397 -1.69897,-6.67836 -0.10872,-1.00929 -0.1865,-1.6873 -0.79505,-2.56506 -0.81421,-1.65181 -1.14111,-3.37696 -1.24174,-5.18773 -0.23496,-1.52591 -0.80816,-2.8672 -1.51086,-4.25063 -0.59894,-1.80734 -0.89794,-3.69844 -1.82694,-5.38533 -0.50075,-1.40977 -0.51108,-1.84334 -1.03712,-2.96865 -1.13378,-1.46725 -1.80117,-2.98006 -2.82658,-4.50174 -1.12546,-1.85132 -2.138,-3.84321 -2.86171,-5.88745 -0.41017,-1.31894 -1.32473,-2.34001 -1.93312,-3.5977 -0.59903,-0.93606 -1.6392,-2.27158 -2.47721,-3.32357 -1.91326,-2.07992 -4.51703,-3.57741 -6.89695,-5.0496 0,0 3.68834,-9.22083 3.68834,-9.22083 z"
     inkscape:connector-curvature="0" />
  <path
     style="fill:#fee0d2;fill-opacity:1;fill-rule:nonzero;stroke:none"
     id="path3035"
     d="m 254.35355,92.597688 c 1.26537,2.82703 2.67489,5.66461 4.33875,8.290092 1.1378,1.53625 1.94918,3.46698 3.42225,4.74411 1.42163,1.52375 2.1661,3.45034 3.52578,5.00857 1.14458,1.51319 1.92151,3.29616 3.12173,4.76656 1.13724,1.67838 2.48102,3.16594 3.65809,4.82625 1.29235,1.86612 2.51627,3.76537 3.66134,5.72488 0.76398,1.35682 1.77427,2.62834 2.59498,3.89456 1.45361,2.37341 2.89512,4.77624 3.9871,7.34712 1.14297,1.82477 1.96101,3.80501 2.97073,5.69666 0.92574,2.12564 1.84913,4.23851 2.76914,6.36881 0.86246,1.59934 0.82312,3.70928 1.59414,5.1247 1.11668,1.64653 1.56834,3.52532 1.82373,5.46795 -0.0846,0.28739 0.78468,1.91428 1.33604,3.51279 0.43407,0.97477 0.3539,2.08897 0.62962,3.09602 0.0349,0.1275 -0.11262,-0.31546 -0.008,-0.39649 0.19712,-0.15292 0.26046,0.42559 0.3908,0.63832 1.01554,1.86867 1.46953,3.90077 1.69149,5.99539 0.13127,0.81913 0.0657,3.91748 0.12131,1.70048 0.71313,0.41176 1.82019,5.81859 1.56168,3.98498 0.77929,1.14175 1.32811,2.48716 1.83351,3.79715 0.48921,0.86183 0.71859,4.41782 0.42485,1.71708 0.872,1.53028 1.28814,3.27535 1.64604,4.9834 0,0 -9.72958,1.9907 -9.72958,1.9907 l 0,0 c -0.22254,-1.13339 -0.49855,-2.22089 -1.11163,-3.22222 -1.94529,-7.46893 -0.003,-0.27066 -0.50141,-1.91049 -0.40204,-1.05646 -0.83376,-2.09902 -1.49827,-3.02356 -0.49847,-1.29089 -0.79577,-2.62031 -1.47464,-3.80984 -0.78649,-1.65339 -1.20192,-3.36958 -1.15128,-5.19543 -0.0655,-0.68008 -0.12368,-1.32408 -0.36887,-1.96694 -0.92474,-1.59763 -1.70402,-3.28421 -1.84727,-5.15034 -0.6268,-1.83178 -1.60448,-3.56787 -1.79958,-5.51643 -0.11579,-1.06181 -0.11967,-1.16814 -0.88105,-2.31166 -0.86657,-1.8288 -1.26384,-3.72797 -1.83133,-5.64453 -0.75499,-1.87189 -1.6294,-3.70191 -2.38769,-5.56697 -1.16399,-2.19939 -2.16859,-4.45804 -3.40397,-6.6236 -0.6427,-1.7877 -1.83128,-3.33008 -2.65311,-5.02273 -1.14303,-1.6107 -2.28255,-3.23809 -3.31158,-4.96109 -0.98932,-1.71104 -2.03989,-3.36567 -3.17918,-4.97554 -1.10587,-1.56033 -2.33712,-3.01064 -3.45651,-4.55197 -1.00388,-1.3534 -2.07685,-2.96176 -2.77157,-4.33265 -1.26935,-1.50243 -2.22388,-3.15491 -3.31203,-4.7665 -1.68234,-1.9436 -3.21684,-3.99462 -4.52934,-6.20955 -1.91998,-3.14634 -3.65377,-6.452822 -5.11588,-9.829712 0,0 9.22084,-3.68833 9.22084,-3.68833 z"
     inkscape:connector-curvature="0" />
  <path
     style="fill:#fee0d2;fill-opacity:1;fill-rule:nonzero;stroke:none"
     id="path3037"
     d="m 389.43824,190.79324 c 1.66084,4.54726 3.49872,9.0523 5.41951,13.50014 2.49437,4.79316 4.91507,9.61095 7.07552,14.56534 1.69416,4.25985 3.3652,8.54439 5.28014,12.71374 1.86854,3.52064 3.0295,7.41861 4.85346,10.9456 1.23159,2.37045 2.07389,4.89732 3.06995,7.36559 0.85168,3.14173 1.74842,6.26035 2.59762,9.40582 0.5808,2.992 1.22287,5.92136 2.03137,8.8595 0.74983,2.84937 1.08543,5.77144 1.25309,8.70515 0.10066,2.51409 0.0763,5.03097 0.0724,7.54645 -0.006,3.28806 -0.0107,6.57613 -0.0128,9.8642 -0.002,3.10192 -0.002,6.20385 -0.002,9.30578 -1e-5,2.85576 5e-5,5.71152 8e-5,8.56728 3e-5,2.11473 3e-5,4.22946 4e-5,6.34419 0,3.18938 0,6.37876 0,9.56813 0,3.46152 0,6.92303 0,10.38455 -0.27361,2.77389 0.30292,5.37767 0.8132,8.0786 0.6855,4.22394 0.95974,8.4979 1.10461,12.76985 0.86637,2.77286 0.88675,5.78148 1.76703,8.53152 0.21579,-1.34432 1.82625,7.41376 1.79518,5.50612 0.94588,1.59717 1.37922,3.40235 2.25394,5.02426 0.73928,2.04611 1.38132,3.88174 2.39752,5.73739 0.53021,1.04211 1.01608,2.10786 1.4272,3.20272 0.0245,0.0694 0.049,0.13886 0.0736,0.2083 0,0 -9.38231,3.25574 -9.38231,3.25574 l 0,0 c 1.7e-4,-7.3e-4 3.4e-4,-10e-4 5.1e-4,-0.002 -0.25555,-0.67343 -0.55317,-1.33019 -0.87333,-1.97535 -0.96299,-1.88846 -1.93027,-3.72409 -2.42972,-5.79801 -0.90264,-1.73728 -1.46429,-3.57991 -2.39273,-5.29791 -0.95645,-2.36276 -1.48397,-4.85259 -2.44483,-7.22537 -0.91129,-3.55863 -1.43036,-7.22662 -2.11758,-10.8342 -0.12486,-3.76579 -0.35874,-7.53279 -0.93767,-11.25981 -0.62097,-3.28909 -1.23927,-6.55471 -0.98573,-9.92165 0,-3.46152 0,-6.92303 0,-10.38455 0,-3.18937 0,-6.37874 0,-9.56811 0,-2.1147 -10e-6,-4.2294 -3e-5,-6.34409 -4e-5,-2.85587 -1e-4,-5.71174 -9e-5,-8.56761 7e-5,-3.10402 10e-6,-6.20804 0.002,-9.31206 0.002,-3.29107 0.006,-6.58214 0.0129,-9.8732 0.004,-2.32462 0.0261,-4.65039 -0.0568,-6.97399 -0.12279,-2.23348 -0.35491,-4.45885 -0.91404,-6.63172 -0.81042,-2.95655 -1.48696,-5.91251 -2.04856,-8.92294 -0.73058,-2.76223 -1.59005,-5.48373 -2.2189,-8.26975 -0.90199,-2.25647 -1.67097,-4.55612 -2.78411,-6.72135 -1.73535,-3.68008 -3.14564,-7.51881 -4.95913,-11.16967 -1.92113,-4.23183 -3.64683,-8.55664 -5.35249,-12.87612 -2.1557,-4.97153 -4.63338,-9.77128 -7.08997,-14.59875 -2.18243,-5.08225 -4.37543,-10.2062 -6.03622,-15.4799 0,0 9.73828,-1.94765 9.73828,-1.94765 z"
     inkscape:connector-curvature="0" />
  <path
     style="fill:#fee0d2;fill-opacity:1;fill-rule:nonzero;stroke:none"
     id="path3039"
     d="m 387.43088,338.89006 c 1.59671,3.88985 3.73387,7.46318 6.00247,10.98349 1.92279,2.77309 3.52548,5.74146 5.38924,8.55463 1.04497,1.44737 2.26452,2.7478 3.50337,4.02754 1.11225,1.12886 2.24187,2.24048 3.36607,3.3574 1.11375,1.10536 2.22407,2.21415 3.33411,3.32321 1.19796,1.06425 2.00896,2.41726 3.19002,3.49142 0.73437,1.2005 1.75209,1.85966 2.7988,2.74491 1.47673,1.1875 2.74735,2.51768 3.89838,4.01787 1.29996,1.61152 2.80293,3.01172 4.02738,4.70106 0.76448,0.38645 2.27831,2.20338 2.28854,2.21413 1.13191,0.85111 2.25664,1.71171 3.37913,2.57519 0.18656,0.14259 0.37166,0.28705 0.55681,0.43144 0.62161,1.41464 1.24322,2.82928 1.86483,4.24392 -0.002,0.0955 0.0217,0.37831 -0.005,0.28657 -0.25149,-0.86536 -0.3818,-1.76554 -0.67269,-2.61846 -0.0709,-0.20784 -0.54051,-0.69215 -0.3991,-0.52414 1.16605,1.38539 0.8575,0.96191 1.59486,2.19567 0.71086,1.76426 0.38951,1.06479 0.89966,2.1268 0,0 -9.08125,4.01975 -9.08125,4.01975 l 0,0 c -0.6109,-1.42947 -0.92003,-1.7211 -0.43012,-1.20021 0.35686,0.22121 0.21739,0.95123 -0.70314,-0.89878 -0.53007,-1.0653 -2.93431,-9.03189 0.74553,0.13778 -0.004,-0.003 -0.3559,-0.27567 -0.4257,-0.32881 -1.07394,-0.82616 -2.15008,-1.64948 -3.23248,-2.46453 -1.74952,-1.35891 -2.87976,-2.95693 -4.47834,-4.44806 -1.18834,-1.75467 -2.9344,-3.06738 -4.12467,-4.84063 -0.22394,-0.27925 -1.44633,-1.5463 -2.15063,-2.07335 -0.31525,-0.27368 -4.4304,-3.73694 -3.10281,-3.0154 -1.51938,-1.42302 -2.16452,-2.51296 -3.45728,-3.74865 -1.10347,-1.1025 -2.20721,-2.20474 -3.31437,-3.30354 -1.17092,-1.16334 -2.34777,-2.32089 -3.50484,-3.49805 -1.66104,-1.71851 -3.278,-3.48366 -4.64629,-5.45035 -1.88457,-2.84921 -3.51884,-5.84576 -5.45663,-8.65782 -2.61132,-4.05459 -5.03242,-8.2006 -6.8747,-12.67367 0,0 9.22084,-3.68833 9.22084,-3.68833 z"
     inkscape:connector-curvature="0" />
  <path
     style="fill:#fee0d2;fill-opacity:1;fill-rule:nonzero;stroke:none"
     id="path3041"
     d="m 456.82886,465.86664 c 0.66831,3.09837 1.20705,6.21935 1.59061,9.36533 0.0117,2.85744 0.8782,5.54465 1.4852,8.31181 0.50951,3.56536 1.45579,7.02377 2.0143,10.58556 1.05171,5.02708 2.21638,10.02856 3.27304,15.055 1.25319,4.61671 2.82759,9.13275 4.33237,13.67291 1.66944,4.72874 3.25132,9.47789 4.75099,14.26638 1.03784,3.87133 2.56787,7.59328 3.99522,11.3351 1.30116,3.09983 2.49192,6.24958 3.86415,9.32243 1.18366,3.42328 2.44657,6.80527 3.79883,10.16713 1.0624,3.60866 2.47012,7.09292 3.53913,10.70084 0.99919,2.39748 1.76519,4.84963 2.85463,7.19851 0.75863,2.0385 1.83638,3.89303 2.80775,5.83822 1.10709,2.00345 2.31347,3.96274 3.38709,5.98816 1.27691,2.04631 1.96762,4.43373 3.13525,6.51326 1.16094,2.08057 1.64071,4.4252 2.69644,6.54171 0.94475,2.47489 2.48955,4.63594 3.75616,6.94759 1.48954,2.61469 2.23776,5.59649 3.54967,8.27009 1.29883,1.8298 1.30287,4.4326 2.42477,6.2903 1.04459,2.0818 1.66347,4.3343 2.42432,6.5281 1.16721,3.7339 1.12086,7.6712 2.17243,11.4214 0.73864,3.316 1.57535,6.5965 2.36256,9.9028 0.57831,3.3871 1.32193,6.7145 2.06477,10.0687 0.65943,4.5865 1.40543,9.1672 2.50048,13.6737 1.053,4.4238 2.18446,8.8448 3.66164,13.1488 0.98078,3.4463 2.12826,6.7975 3.39255,10.1439 1.0132,3.544 2.60738,6.8625 3.71297,10.3747 1.51103,4.1631 2.7177,8.4751 4.50052,12.532 1.19619,3.0241 2.84455,5.8183 4.01079,8.8542 1.22823,2.2112 2.49102,4.402 3.74271,6.6028 1.3201,2.4618 2.57156,4.9288 4.17976,7.2194 1.50721,2.4985 3.35077,4.7695 4.86092,7.272 1.35121,1.7102 2.3405,3.6573 3.63319,5.4086 1.81917,1.132 1.67142,4.7266 2.62335,5.9611 0.91748,1.465 0.90225,3.3621 1.83534,4.7467 1.05218,1.9006 1.7062,3.9647 2.44885,5.9927 1.09763,3.4529 2.27108,6.8813 3.45499,10.3076 0.83738,3.1325 2.3786,6.0054 3.42368,9.0678 1.21099,3.0205 2.30842,6.1027 3.25136,9.2203 1.23962,3.4776 2.31411,6.9902 3.73375,10.4018 0.51524,0.049 1.99527,7.6699 1.58802,5.1235 0.12754,-0.3186 0.0254,0.1351 -0.0366,-0.1947 -0.28896,-0.2227 -0.62461,-0.356 -0.95551,-0.5016 0,0 -3.44279,9.3153 -3.44279,9.3153 l 0,0 c -0.46069,-0.1985 -0.91867,-0.3948 -1.3241,-0.6969 -1.32482,-0.9726 -2.42069,-2.1922 -3.20473,-3.6466 -0.67577,-1.8447 -1.13858,-3.7322 -1.79596,-5.59 -1.54542,-3.7277 -2.74019,-7.5605 -4.0766,-11.3645 -0.89518,-3.036 -2.0033,-6.0119 -3.16719,-8.9527 -0.9373,-3.0433 -2.66692,-5.8159 -3.38053,-8.9401 -1.16475,-3.375 -2.31232,-6.756 -3.40048,-10.1538 -0.53679,-1.4882 -1.0049,-2.9753 -1.70095,-4.3952 -1.13063,-2.0302 -1.66843,-4.2175 -2.58136,-6.339 -0.41494,-1.2779 -0.46422,-2.4764 -1.30059,-3.4881 -1.48243,-2.0305 -2.68183,-4.2359 -4.18754,-6.251 -1.29233,-2.322 -3.14499,-4.2966 -4.44077,-6.6171 -1.77626,-2.5542 -3.23186,-5.2644 -4.67837,-8.0102 -1.50139,-2.6587 -3.09541,-5.2647 -4.40662,-8.0269 -1.02919,-2.9191 -2.81653,-5.5082 -3.84354,-8.4352 -1.84064,-4.4155 -3.30248,-8.9891 -4.85819,-13.512 -0.97967,-3.3319 -2.63245,-6.4214 -3.51378,-9.7904 -1.29038,-3.4542 -2.49839,-6.9084 -3.50526,-10.4597 -1.53673,-4.604 -2.81463,-9.2951 -3.91282,-14.0223 -1.07417,-4.5667 -1.92806,-9.1878 -2.53838,-13.8387 -0.72601,-3.3028 -1.46513,-6.5866 -2.03068,-9.9196 -0.75268,-3.1964 -1.56524,-6.3708 -2.27865,-9.5738 -0.95571,-3.5605 -1.21277,-7.1963 -1.9781,-10.793 -0.69254,-2.0081 -1.24521,-4.068 -2.21083,-5.9665 -0.77643,-2.0319 -1.33024,-4.1354 -2.33609,-6.0834 -1.05984,-2.5106 -1.93245,-5.0867 -3.18079,-7.5222 -1.3339,-2.4477 -2.9736,-4.734 -3.967,-7.35548 -1.03166,-2.14296 -1.64284,-4.41667 -2.69885,-6.54665 -0.98404,-2.12744 -1.83932,-4.28144 -3.03521,-6.31369 -1.01566,-2.09386 -2.35993,-4.04132 -3.44501,-6.10234 -1.00828,-2.02054 -2.1011,-3.99623 -2.93152,-6.09533 -1.29543,-2.79311 -2.24595,-5.69955 -3.37034,-8.56606 -0.97134,-3.30712 -2.28709,-6.49334 -3.22896,-9.80854 -1.30429,-3.24852 -2.56134,-6.50615 -3.65586,-9.82953 -1.44061,-3.24134 -2.69296,-6.56205 -4.07255,-9.8272 -1.49559,-3.92984 -3.08902,-7.84404 -4.19276,-11.90495 -1.48266,-4.74077 -3.04265,-9.44094 -4.70387,-14.1198 -1.60973,-4.89447 -3.3363,-9.75253 -4.6211,-14.74606 -1.08904,-5.19906 -2.30516,-10.3689 -3.36761,-15.57377 -0.51293,-3.35769 -1.43689,-6.6173 -1.90123,-9.98054 -0.67076,-3.0639 -1.58899,-6.0895 -1.64411,-9.24968 -0.42082,-3.54328 -1.23727,-7.01309 -1.66192,-10.55341 0,0 9.93114,0 9.93114,0 z"
     inkscape:connector-curvature="0" />
  <path
     style="fill:#fee0d2;fill-opacity:1;fill-rule:nonzero;stroke:none"
     id="path3043"
     d="m 727.076,1147.2852 c 2.11858,4.4657 4.73197,8.6609 7.24522,12.9079 2.64094,3.9041 4.82384,8.1695 7.95714,11.7135 2.7724,3.2354 5.29024,6.6567 7.96688,9.9669 2.59013,3.1472 5.10714,6.3472 7.57229,9.5936 2.02442,1.8688 2.78484,5.1075 4.86689,6.881 1.9228,1.9825 3.515,4.2434 5.27187,6.3739 2.73251,2.7529 5.05766,5.8577 7.5057,8.8568 1.73335,1.9328 3.56537,3.7746 5.29809,5.7211 1.66104,1.8492 3.44364,3.564 4.97396,5.5242 1.38886,1.7908 2.8775,3.471 4.25868,5.2663 1.50556,2.2864 0.39125,0.2713 2.56317,2.9222 1.05759,1.9667 2.53024,3.8157 4.02599,6.087 2.36962,3.7626 5.34483,7.0777 8.33979,10.344 3.06494,3.7178 6.03156,7.5125 9.22935,11.1185 2.97578,3.1729 5.99941,6.2677 8.71919,9.6661 2.99673,3.4342 5.55917,7.2031 8.32005,10.8214 2.02439,2.4252 3.97106,4.9398 6.09724,7.2741 2.75194,2.9328 5.21708,6.1201 7.89379,9.1256 3.4888,4.9092 6.77014,9.9672 10.05022,15.0184 4.57192,5.8122 8.8223,11.8617 13.08571,17.9002 4.41247,6.0467 8.28403,12.399 11.74609,19.0277 3.1858,5.6967 6.3168,11.4214 9.4298,17.1595 2.5276,4.7702 4.5993,9.7594 7.0347,14.5757 1.7886,2.865 3.171,5.9373 4.7486,8.9115 0.7694,1.7789 1.6293,3.2986 2.6052,4.9162 1.0591,1.6806 1.8674,3.5054 2.8596,5.2213 1.4044,3.349 3.8708,6.0454 6.0527,8.8934 3.912,4.9769 7.6973,10.044 11.7699,14.8925 4.9195,5.7001 9.754,11.4841 15.0144,16.8769 6.0228,6.7303 12.6906,12.8183 19.2657,18.9943 5.8819,5.5917 11.3994,11.5526 17.4961,16.919 5.1487,4.2306 9.5786,9.2155 14.5525,13.6386 4.264,3.6147 8.3572,7.3772 12.02779,11.5949 2.9013,2.6225 4.989,6.0342 7.8982,8.6338 2.1548,2.1534 4.1645,4.4447 6.2435,6.6702 1.6027,1.9506 3.0316,4.091 4.8797,5.8243 2.1072,2.1777 4.0639,4.4881 6.0458,6.7844 1.9924,2.7916 4.4251,5.2231 6.6353,7.8387 2.4813,2.9748 5.0024,5.8932 7.2948,9.0176 2.53,3.4148 5.3867,6.5691 8.2948,9.662 3.0849,3.5369 5.7811,7.3654 8.4478,11.2186 2.1257,2.993 4.2068,6.0152 6.4582,8.9194 2.421,2.7738 4.4557,5.8432 6.6874,8.7644 2.3123,2.9058 4.5891,5.8373 6.8478,8.7882 2.2345,2.9323 4.7385,5.6229 7.1099,8.4381 3.4198,3.0371 5.9661,6.8022 8.6362,10.4736 3.2015,3.8228 6.0948,7.9345 9.4418,11.6301 3.0807,3.4082 5.7914,7.1003 8.5677,10.7515 2.7545,3.8941 5.3007,7.929 8.0482,11.8267 2.6402,3.9801 5.193,8.0226 7.9416,11.9293 2.9628,3.6177 5.3119,7.6478 7.7408,11.6229 1.954,3.6935 4.301,7.1515 6.3402,10.7972 1.924,3.9676 3.5856,8.0542 5.5252,12.0136 1.8192,3.7182 3.5621,7.5206 5.6627,11.0896 2.199,3.851 4.3955,7.679 7.038,11.248 2.0938,3.342 4.6642,6.336 7.2064,9.3417 3.239,3.7899 6.8681,7.216 10.1343,10.9784 2.4956,2.4672 4.5125,5.3446 6.6911,8.0801 1.1555,1.6117 2.1744,2.3911 3.2987,3.3422 1.4486,1.2393 2.8625,2.6051 4.3921,3.8294 2.8121,2.4113 5.0976,5.31 7.8661,7.7778 3.3169,3.1931 6.6493,6.3993 9.8452,9.7193 2.8799,2.6937 5.3523,5.785 7.9769,8.7214 2.0535,1.831 3.7673,4.1544 5.95,5.8357 1.8006,1.8215 3.5682,3.6389 5.4158,5.3945 1.9185,1.8152 3.4426,3.9807 5.2015,5.9299 2.361,2.4879 4.5796,5.1026 6.7393,7.7695 1.9975,2.4741 4.1866,4.78 6.3949,7.0644 2.4475,2.6787 4.6932,5.5793 7.2531,8.151 2.4877,3.2008 5.7139,5.6502 8.5403,8.5208 2.8389,2.7234 5.8066,5.3065 8.9115,7.7204 1.9102,1.6903 3.9422,3.1332 6.0284,4.5636 1.7245,1.2719 3.354,2.6906 5.2153,3.7756 2.8411,2.0115 5.3619,4.416 8.1329,6.5179 4.1569,2.9078 2.465,1.2933 3.4133,9.4611 -0.5143,0.4316 -1.0286,0.8631 -1.5429,1.2947 0,0 -5.6697,-8.1537 -5.6697,-8.1537 l 0,0 c -0.1458,0.1754 -0.2916,0.3507 -0.4374,0.5261 1.9428,9.286 2.511,7.6181 -1.7787,4.7738 -2.496,-1.9056 -4.8267,-4.0031 -7.2933,-5.9441 -2.0331,-1.272 -3.905,-2.7283 -5.8069,-4.1665 -2.0695,-1.6593 -4.4426,-2.9917 -6.3883,-4.8329 -3.4362,-2.7111 -6.7716,-5.5499 -9.9037,-8.6122 -2.7789,-2.9092 -6.097,-5.2854 -8.5429,-8.5233 -2.5194,-2.6326 -4.8482,-5.455 -7.2725,-8.1711 -2.4092,-2.4937 -4.7925,-5.0155 -6.9716,-7.7161 -2.0836,-2.5737 -4.2154,-5.1011 -6.5056,-7.4914 -1.5317,-1.7897 -2.9608,-3.6587 -4.6335,-5.3308 -1.6233,-1.6457 -3.3664,-3.1698 -4.891,-4.9203 -2.4471,-2.1318 -4.6391,-4.5627 -6.9642,-6.8199 -2.5514,-2.8566 -4.9508,-5.8666 -7.7558,-8.4819 -2.9797,-3.1598 -6.1721,-6.1466 -9.281,-9.173 -2.6839,-2.4072 -4.9735,-5.1554 -7.6246,-7.5688 -1.5511,-1.3291 -3.034,-2.7127 -4.6041,-4.0123 -1.4031,-1.5685 -3.3828,-2.6903 -4.4776,-4.5857 -2.0963,-2.6347 -4.0318,-5.4089 -6.4413,-7.7787 -3.2596,-3.8102 -6.983,-7.2012 -10.1997,-11.055 -2.6796,-3.1738 -5.3934,-6.3455 -7.6169,-9.8618 -2.8455,-3.8794 -5.2779,-7.9975 -7.6465,-12.1791 -2.1608,-3.8044 -4.1039,-7.7488 -5.9858,-11.6983 -1.8459,-3.8055 -3.496,-7.6999 -5.2762,-11.536 -1.9556,-3.5401 -4.271,-6.8647 -6.14,-10.4535 -2.3128,-3.7979 -4.5543,-7.6417 -7.3912,-11.0891 -2.7382,-3.9101 -5.3096,-7.9358 -7.9359,-11.9212 -2.6699,-3.8036 -5.1713,-7.7207 -7.8322,-11.5312 -2.6158,-3.4443 -5.1589,-6.9321 -8.0667,-10.1439 -3.5256,-3.9864 -6.7011,-8.2854 -10.068,-12.4062 -2.5457,-3.5022 -4.9616,-7.0525 -8.2268,-9.9485 -2.4299,-2.9456 -5.0711,-5.7107 -7.3729,-8.7671 -2.263,-2.9564 -4.5353,-5.9005 -6.8607,-8.805 -2.2122,-2.909 -4.2394,-5.9532 -6.6461,-8.7105 -2.3496,-3.0476 -4.5392,-6.2075 -6.7669,-9.3413 -2.3868,-3.4489 -4.785,-6.8806 -7.5188,-10.0694 -3.1817,-3.3878 -6.3012,-6.8471 -9.0657,-10.5894 -2.1645,-2.9524 -4.5613,-5.6963 -6.8994,-8.5134 -2.152,-2.6004 -4.5981,-4.9626 -6.5423,-7.7294 -1.8241,-2.1157 -3.5968,-4.2728 -5.5585,-6.259 -1.836,-1.8964 -3.554,-3.9256 -5.1047,-6.0573 -1.9239,-2.0598 -3.7918,-4.1721 -5.7614,-6.1885 -3.0784,-2.9415 -5.58329,-6.3974 -8.62149,-9.3835 -3.3818,-3.9048 -7.2031,-7.3374 -11.1321,-10.688 -4.9605,-4.4194 -9.4021,-9.3699 -14.522,-13.6116 -6.1586,-5.451 -11.7915,-11.4371 -17.7229,-17.1254 -6.6839,-6.2783 -13.4583,-12.472 -19.5857,-19.3089 -5.4141,-5.5815 -10.4364,-11.5206 -15.5017,-17.4161 -4.1654,-4.9657 -8.0499,-10.1443 -12.05,-15.2419 -2.4822,-3.2474 -5.2504,-6.3564 -6.8757,-10.1571 -0.9043,-1.6937 -1.7077,-3.4156 -2.753,-5.0318 -0.8413,-1.768 -2.0742,-3.3756 -2.7799,-5.2322 -1.6014,-3.0345 -3.029,-6.1516 -4.835,-9.0788 -2.3889,-4.733 -4.4431,-9.6239 -6.9016,-14.3214 -3.1333,-5.7867 -6.29588,-11.5528 -9.50317,-17.2974 -3.25251,-6.2391 -6.89649,-12.2089 -11.05453,-17.8942 -4.33793,-6.1444 -8.68539,-12.2805 -13.30267,-18.2206 -3.00706,-4.6337 -6.06434,-9.2346 -9.13899,-13.8235 -2.67617,-3.0091 -5.14321,-6.197 -7.89741,-9.1297 -2.24749,-2.566 -4.43318,-5.1942 -6.57427,-7.8534 -2.71008,-3.5611 -5.2305,-7.2642 -8.17823,-10.6397 -2.61034,-3.2702 -5.55639,-6.21 -8.39561,-9.2816 -3.15716,-3.5675 -6.12214,-7.2922 -9.11802,-10.9949 -3.35969,-3.6699 -6.6752,-7.4097 -9.33803,-11.6314 -1.22637,-1.9116 -2.6665,-3.6947 -3.78114,-5.6797 -0.0922,-0.1642 0.24382,0.2871 0.36573,0.4307 -0.87178,-1.0932 -2.00049,-1.9409 -2.74164,-3.1486 -1.39227,-1.8364 -2.90509,-3.5696 -4.33817,-5.3718 -1.15888,-1.8385 -3.1424,-3.0903 -4.42466,-4.8496 -1.82552,-2.052 -3.76094,-3.9905 -5.57477,-6.0457 -2.46185,-3.0198 -4.81123,-6.128 -7.54859,-8.9098 -1.63749,-2.0671 -3.15837,-4.2114 -5.02851,-6.083 -1.91808,-2.3489 -3.44103,-4.9817 -5.28102,-7.3904 -2.40665,-3.1693 -4.85891,-6.2956 -7.39257,-9.364 -2.60452,-3.2373 -5.07568,-6.562 -7.76807,-9.7282 -3.43191,-4.0651 -6.11117,-8.6633 -8.9757,-13.1343 -2.76598,-4.685 -5.65482,-9.3128 -7.9168,-14.2731 0,0 9.22083,-3.6883 9.22083,-3.6883 z"
     inkscape:connector-curvature="0" />
  <path
     style="fill:#fc9272;fill-opacity:1;fill-rule:nonzero;stroke:none"
     id="path3045"
     d="m 574.96671,824.89887 c 3.00024,2.0339 5.94408,4.0835 8.37093,6.7978 1.89998,1.693 3.16323,3.7607 4.04034,6.1192 0.33794,1.0104 0.39338,2.0589 0.51819,3.1045 -0.0194,-0.2456 -0.0389,-0.4913 -0.0583,-0.7369 0.004,-0.031 -0.003,-0.1215 0.0122,-0.094 0.19091,0.3458 0.34865,0.7088 0.52298,1.0632 0.90954,1.6633 1.0282,3.5442 1.38279,5.3549 0.0336,0.1717 -0.0151,-0.3497 -0.0226,-0.5245 0.83767,1.7291 1.36023,3.7428 1.8296,5.4618 0.89943,1.8963 1.46572,4.023 1.99547,5.9605 1.29912,2.13 1.11541,4.8459 2.08758,7.052 0.70486,2.1224 1.87236,4.0279 2.78521,6.0588 0.9258,2.108 1.97936,4.1089 2.64983,6.3296 0.59139,2.2714 1.14857,4.6671 2.08887,6.8355 0.99596,2.0589 1.58895,4.2402 2.52778,6.302 1.08902,2.0915 1.38199,4.4338 2.22208,6.6101 0.94645,2.6097 2.19328,5.0674 2.98793,7.7395 0.97597,2.2745 1.80801,4.6 2.37061,7.0108 0.77029,1.0617 1.52697,3.1891 1.95063,4.7761 -0.71954,-2.4092 1.46999,4.8023 0.43099,2.8959 -1.29276,-2.3721 0.24938,-0.2173 0.45685,0.1969 1.0545,2.2853 1.36036,4.7639 1.52681,7.2453 -0.002,0.7366 0.7217,1.7289 1.2603,3.2906 0.70928,2.4204 0.74525,4.9489 0.79317,7.4495 -0.24894,1.9075 0.1463,3.271 0.68433,4.9901 0.78886,2.3165 1.0767,4.746 1.23048,7.1749 0.85394,1.4267 1.36788,4.3922 1.66504,6.4267 0.87019,2.3566 1.39941,4.7835 2.28144,7.1355 0.88786,2.7212 2.13169,5.2875 2.96662,8.0265 1.25004,2.4995 1.92207,5.2046 2.94486,7.7951 0.99884,3.0444 2.38336,5.9425 3.63731,8.8868 1.2286,3.2666 2.69579,6.4395 4.00395,9.6809 1.13805,3.49643 2.35614,6.95663 3.51322,10.44803 0.94472,3.9971 2.3141,7.788 3.99589,11.5202 1.60824,3.7744 3.03801,7.6127 4.44838,11.4649 1.7071,3.3303 3.27559,6.7412 4.53791,10.2653 1.09893,3.4432 2.94186,6.5247 4.61801,9.7004 1.76547,3.3898 4.23796,6.29 6.13385,9.5979 1.92553,3.1018 3.94128,6.2165 6.1604,9.1247 1.82492,2.7431 3.55988,5.5583 5.13026,8.4597 0.65641,0.3749 3.0218,5.5514 2.51057,4.0197 1.03012,1.674 2.0343,3.268 3.08279,4.9164 1.57776,1.6786 2.75507,3.8387 3.9729,5.7961 1.7,2.466 3.3396,4.9622 4.95118,7.4892 1.178,2.2057 2.68351,4.2177 4.077,6.2978 1.06287,2.0258 2.37573,3.872 3.76765,5.6536 1.43815,1.3015 2.50364,2.925 4.0451,4.121 1.85941,1.8707 3.49781,3.9427 5.25971,5.9042 1.68014,1.7346 3.30324,3.4255 4.4808,5.5507 -0.024,-0.085 -0.13014,-0.3215 -0.0719,-0.2551 1.28089,1.4618 1.56819,1.9459 2.79968,3.4934 1.41959,0.9035 2.26417,2.8068 3.45719,4.1657 1.43636,1.5563 1.99235,3.87 3.41274,5.4102 1.15587,1.627 2.58245,2.9816 3.70764,4.6418 0.85579,0.7163 1.97649,2.4424 2.9217,3.603 1.61931,2.4645 1.34613,2.1115 2.72463,3.8312 -0.53763,-0.9048 -1.52548,-1.1352 -2.47317,-1.3779 0,0 -1.08192,9.8721 -1.08192,9.8721 l 0,0 c -1.81818,-0.4086 -3.29116,-1.0879 -4.45289,-2.6206 -0.7688,-0.879 -1.76573,-2.463 -2.42603,-3.4443 -1.17974,-1.4562 -2.19455,-3.0346 -3.49785,-4.3883 -0.9749,-1.5774 -2.50222,-2.773 -3.50858,-4.3519 -1.03425,-1.5393 -2.02009,-3.1263 -2.9052,-4.7576 -1.29571,-1.5567 -2.02833,-3.155 -3.67462,-4.4316 -1.23777,-1.5905 -2.63907,-3.0268 -3.71101,-4.7484 -0.56965,-1.3438 -2.20067,-2.2951 -3.09053,-3.5573 -1.48053,-1.6493 -2.91075,-3.3406 -4.3572,-5.0194 -1.93634,-1.7327 -3.63975,-3.6639 -5.41076,-5.561 -1.51287,-1.9817 -3.00782,-3.9906 -4.16665,-6.2071 -1.4328,-2.1399 -2.95497,-4.2354 -4.19902,-6.4846 -1.63293,-2.5609 -3.29124,-5.0862 -5.01307,-7.5874 -1.25631,-2.0242 -2.49196,-4.0637 -4.03207,-5.8926 -0.68848,-1.4194 -1.79767,-2.6484 -2.50351,-4.0633 -1.13946,-1.7607 -2.09199,-3.583 -3.33228,-5.2962 -1.33695,-2.4786 -2.81229,-4.8808 -4.34746,-7.2349 -2.42898,-3.2938 -4.75378,-6.7054 -6.86486,-10.2073 -1.85936,-3.4206 -4.60448,-6.2848 -6.26487,-9.8389 -1.88718,-3.6037 -3.94042,-7.1226 -5.1939,-11.0195 -1.20968,-3.5062 -2.92741,-6.8067 -4.49982,-10.1591 -1.3238,-3.6275 -2.66304,-7.2415 -4.17526,-10.7947 -1.82216,-4.0438 -3.34189,-8.1562 -4.37007,-12.4809 -1.08796,-3.2937 -2.24663,-6.5564 -3.2983,-9.861 -1.27653,-3.18563 -2.71196,-6.30473 -3.93218,-9.50723 -1.27832,-3.0245 -2.70466,-5.9972 -3.73269,-9.1198 -1.133,-2.8696 -1.92987,-5.8349 -3.23489,-8.6387 -0.69348,-2.5225 -1.99532,-4.8339 -2.73903,-7.3451 -1.13307,-3.0259 -1.91673,-6.1409 -2.81683,-9.2421 -0.32339,-2.475 -1.20719,-4.7772 -1.7431,-7.2069 -0.0911,-1.628 -0.25235,-3.2617 -0.79644,-4.8107 -0.79575,-2.5509 -1.35431,-5.0752 -1.13467,-7.7674 -0.0268,-1.4861 -0.0317,-2.9808 -0.27094,-4.4512 -0.62966,-1.9319 -1.8645,-3.6918 -1.76316,-5.8268 -0.0731,-1.1628 -0.1391,-2.3323 -0.49818,-3.4484 -0.80035,-1.601 -1.4902,-3.2545 -1.62209,-5.0534 -0.42946,-1.7961 -1.52459,-3.3416 -2.03382,-5.124 -0.41943,-2.2366 -1.51992,-4.2724 -2.22162,-6.4208 -0.63275,-2.4258 -2.00511,-4.5531 -2.72606,-6.9491 -0.7436,-1.9902 -1.11532,-4.0717 -1.97248,-6.0107 -1.01742,-2.2349 -1.69725,-4.5686 -2.73619,-6.7945 -0.94461,-2.5256 -1.73626,-5.1554 -2.39931,-7.7588 -0.40999,-1.8266 -1.64065,-3.3006 -2.20271,-5.0751 -0.92964,-2.3347 -2.4131,-4.4518 -3.10517,-6.898 -0.6541,-2.1663 -0.94553,-4.4317 -1.8899,-6.5075 -0.68167,-1.9759 -1.04784,-4.0342 -1.98132,-5.925 -0.63391,-1.8321 -0.97335,-3.7331 -1.83866,-5.4845 -0.43385,-1.4192 -0.68502,-2.8398 -1.10353,-4.2416 -0.63242,-1.492 -1.48142,-2.9235 -1.49312,-4.6025 -0.12293,-0.5359 -1.38132,-2.0581 -2.192,-2.746 -1.4115,-2.4119 -4.80772,-3.3118 -6.70925,-5.2213 0,0 5.95868,-7.9449 5.95868,-7.9449 z"
     inkscape:connector-curvature="0" />
  <path
     style="fill:#ff0000;fill-opacity:1;stroke:none"
     id="path2998"
     d="M 51.409081,18.677054 C 50.293652,13.405648 48.692174,8.2628008 47.539359,2.9994791 c -0.597,-2.31632471 -1.174437,-4.6365456 -1.71972,-6.9655075 -1.592695,-6.8137206 8.043361,-9.0661326 9.636057,-2.252412 l 0,0 c 0.554612,2.3769201 1.153344,4.7420784 1.751992,7.10833089 1.122794,5.16776851 2.721999,10.20941851 3.801734,15.38707851 1.697116,6.788466 -7.903224,9.188551 -9.600341,2.400085 z"
     inkscape:connector-curvature="0" />
  <path
     style="fill:#ff0000;fill-opacity:1;stroke:none"
     id="path3000"
     d="m 15.910435,462.42271 c -3.175795,3.20241 -6.274255,6.45377 -9.248783,9.8449 -2.8767155,3.09365 -5.5938035,6.31628 -8.2989306,9.55881 -0.9850672,1.4609 -2.1259678,2.76796 -3.3580658,4.01896 -5.0261556,4.86839 -11.9111006,-2.23967 -6.8849446,-7.10806 l 0,0 c 1.092468,-0.88168 1.701638,-2.23319 2.6444833,-3.2504 2.7574266,-3.30487 5.5289279,-6.58943 8.45819965,-9.74498 2.87470825,-3.277 5.81841875,-6.4766 8.96071575,-9.50109 4.3712353,-5.46404 12.0985603,0.71782 7.7273253,6.18186 z"
     inkscape:connector-curvature="0" />
</svg>
