<?xml version="1.0" encoding="UTF-8" standalone="no"?>
<!-- Created with Inkscape (http://www.inkscape.org/) -->

<svg
   xmlns:dc="http://purl.org/dc/elements/1.1/"
   xmlns:cc="http://creativecommons.org/ns#"
   xmlns:rdf="http://www.w3.org/1999/02/22-rdf-syntax-ns#"
   xmlns:svg="http://www.w3.org/2000/svg"
   xmlns="http://www.w3.org/2000/svg"
   xmlns:xlink="http://www.w3.org/1999/xlink"
   xmlns:sodipodi="http://sodipodi.sourceforge.net/DTD/sodipodi-0.dtd"
   xmlns:inkscape="http://www.inkscape.org/namespaces/inkscape"
   id="svg2"
   version="1.1"
   inkscape:version="0.48.4 r9939"
   width="732"
   height="1170"
   sodipodi:docname="46693-182.svg">
  <metadata
     id="metadata8">
    <rdf:RDF>
      <cc:Work
         rdf:about="">
        <dc:format>image/svg+xml</dc:format>
        <dc:type
           rdf:resource="http://purl.org/dc/dcmitype/StillImage" />
        <dc:title />
      </cc:Work>
    </rdf:RDF>
  </metadata>
  <defs
     id="defs6" />
  <sodipodi:namedview
     pagecolor="#ffffff"
     bordercolor="#666666"
     borderopacity="1"
     objecttolerance="10"
     gridtolerance="10"
     guidetolerance="10"
     inkscape:pageopacity="0"
     inkscape:pageshadow="2"
     inkscape:window-width="1280"
     inkscape:window-height="732"
     id="namedview4"
     showgrid="false"
     inkscape:zoom="0.56348268"
     inkscape:cx="276.79188"
     inkscape:cy="55.260666"
     inkscape:window-x="-8"
     inkscape:window-y="-8"
     inkscape:window-maximized="1"
     inkscape:current-layer="layer1" />
  <image
     width="732"
     height="1170"
     xlink:href="file:///C:/Users/Surface/Desktop/CHI2013%20BI%20GitRepo/public-dataset/input/cropped-display/46693-182.png"
     id="image10"
     x="0"
     y="0" />
  <g
     inkscape:groupmode="layer"
     id="layer1"
     inkscape:label="g2"
     style="display:inline">
    <path
       style="fill:#fee0d2;fill-opacity:1;fill-rule:nonzero;stroke:none"
       id="g2"
       d="m 236.91944,1193.9581 c 4.06133,-3.7843 7.65235,-8.0115 11.2725,-12.2044 0.84154,-0.9746 2.41346,-2.1352 1.98703,-3.6097 1.07381,-3.2948 0.60011,-3.2043 4.03668,-5.7804 0.75711,-0.5676 1.77772,-0.6794 2.58497,-1.173 0.099,-0.06 -0.21266,-0.1901 -0.17598,-0.3001 0.13491,-0.4047 0.4074,-0.7509 0.64458,-1.1055 0.48203,-0.7205 1.00735,-1.411 1.51102,-2.1166 2.15174,-2.944 5.10677,-5.0883 7.65249,-7.6522 2.99668,-3.0695 -0.28165,0.046 4.40123,-3.3275 0.0929,-0.067 -0.0264,-0.2653 0.0622,-0.3377 1.18929,-0.9712 2.61695,-1.7414 3.86088,-2.6605 1.2549,-2.2618 4.63301,-1.9892 5.98368,-4.0888 0.83389,-0.5181 1.71942,-0.9612 2.50166,-1.5545 0.0981,-0.074 -0.27215,-0.1502 -0.36324,-0.067 -0.30926,0.2813 -1.03503,1.2933 -0.70389,1.0381 1.34155,-1.034 2.21299,-2.7438 3.773,-3.4035 1.03065,-0.4358 2.21435,0.3852 3.33328,0.3985 0.9196,0.011 -1.82074,-0.2609 -2.73112,-0.3914 7.39103,-3.3524 -2.38148,1.2989 3.4372,-2.5336 1.61782,-1.0656 1.63497,-0.1405 1.56686,-0.9482 0.3918,-0.4896 1.43116,-1.7098 2.91889,-3.1673 -0.93148,1.4467 1.24507,-1.4416 1.04526,-1.0022 -3.15597,6.9401 -0.55896,-0.6622 0.5842,-1.7522 0.82933,-0.7907 1.74887,-1.4811 2.62331,-2.2217 0.18577,-1.1124 2.05066,-2.8556 2.66624,-3.7707 0.23688,-0.3521 0.28012,-0.8039 0.47219,-1.1824 1.20481,-2.3738 1.35235,-2.315 3.11377,-4.5614 0.63504,-1.1025 1.92897,-1.4888 2.74149,-2.388 0.31912,-0.3532 -1.12026,0.5163 -1.03436,0.9844 0.20749,1.131 1.27579,2.1525 1.06156,3.2822 -0.15743,0.8302 -0.8451,-1.4636 -1.26765,-2.1954 2.87052,-7.7247 0.43193,-4.1513 4.84399,-7.9478 0.0658,-0.057 -0.23566,-0.091 -0.19771,-0.1695 0.2418,-0.4977 0.60988,-0.9243 0.9436,-1.3656 0.55727,-0.737 1.15194,-1.4449 1.72791,-2.1674 3.06536,-3.3035 6.4437,-6.3081 9.62306,-9.5093 2.18286,-2.7807 4.55264,-3.8834 7.60611,-5.6334 0.33118,-0.2148 1.21575,-0.9707 0.99352,-0.6444 -0.45681,0.6707 -1.20729,2.343 -1.72475,1.718 -0.56121,-0.6779 0.84289,-1.5474 1.20013,-2.3517 0.0192,-0.043 -0.0863,-0.039 -0.12951,-0.059 0.90155,-0.9458 1.71927,-1.9794 2.70464,-2.8376 0.55561,-0.4839 1.25525,-0.7719 1.88287,-1.1578 1.7664,-1.4989 3.27097,-2.0361 5.41642,-3.2346 0.61917,-0.3459 -2.12485,1.5078 -1.96461,0.8169 0.2011,-0.867 1.42948,-1.0609 2.14421,-1.5913 0.50541,-0.214 1.82003,-1.0992 1.51621,-0.6421 -0.98032,1.4749 -3.13579,1.4977 -2.75839,3.5155 0.11749,0.6281 0.33054,2.2216 0.76843,1.7562 6.83963,-7.2691 1.27505,-7.9795 5.94613,-6.9665 3.8548,0.471 2.03822,9.0437 -1.66325,8.9019 0,0 0.83022,-8.8345 0.83022,-8.8345 l 0,0 c -3.32135,0.017 -0.74941,9.7041 -1.3417,8.5353 -2.41248,-1.4228 -2.37189,-1.3275 2.8706,-7.5201 1.9005,-2.245 2.21354,13.3541 -1.56477,8.8401 0.4578,-1.6156 0.11018,-0.1106 -3.03745,1.8886 -0.55688,0.3537 0.90271,-1.1023 1.54974,-1.231 0.50568,-0.1006 -0.67172,0.786 -1.05372,1.1323 -1.58491,1.4366 -1.53989,1.333 -3.02512,2.2011 -0.51675,0.3147 -1.02573,1.2454 -1.55024,0.9439 -0.46191,-0.2655 0.86235,-1.9486 0.65885,-1.4563 -0.28527,0.6903 -0.60282,1.3667 -0.90423,2.05 0.0643,-0.299 0.35996,-1.1532 0.19291,-0.897 -3.22209,4.9413 -0.62535,2.9718 -3.66112,4.888 -0.81351,0.4399 -1.62701,0.8797 -2.44051,1.3196 -0.037,-0.104 -0.0138,-0.3638 -0.11111,-0.3118 -1.23098,0.6575 -1.86096,2.4103 -3.05539,3.1152 -2.96003,2.9789 -6.06748,5.8127 -8.99806,8.8098 -1.58374,1.9566 -2.89196,4.1319 -4.845,5.767 -0.0765,0.064 -0.0943,-0.3141 -0.16834,-0.2473 -0.62399,0.5628 -1.37433,2.6868 -1.66046,1.8967 -0.52626,-1.4531 0.45788,-3.0567 0.68681,-4.5851 -0.24305,-0.2782 -0.82687,-1.1908 -0.72917,-0.8345 0.3566,1.3001 1.30214,2.4158 1.52744,3.745 0.42277,2.4943 -1.83663,4.9607 -3.6777,6.284 -1.58551,1.7974 -2.30854,3.7841 -3.62475,5.791 -1.30581,1.9911 -3.09587,3.7729 -4.65992,5.5477 0.38461,-2.1426 -0.34664,2.3882 -1.24106,1.3872 -0.63763,-0.7137 0.98491,-3.6829 0.59625,-2.8084 -2.08317,4.6872 -0.17162,3.4099 -2.24935,5.3095 -1.29663,1.2602 -2.41617,2.6707 -3.75123,3.8848 -0.69567,0.4595 -1.37979,0.9371 -2.08703,1.3787 -0.0957,0.06 0.17199,-0.397 0.0824,-0.3284 -9.31593,7.1319 1.70701,-1.053 -4.10301,3.1472 -1.64081,0.2696 -3.33142,0.3255 -4.92243,0.8089 -0.74097,0.2251 1.66894,0.3951 2.32319,-0.019 1.13471,-0.7187 1.33298,-2.6066 2.5861,-3.09 0.84428,-0.3257 -0.53941,1.7584 -1.05753,2.5003 -0.60409,0.865 -1.43705,1.553 -2.24604,2.2303 -0.14535,0.1217 -0.37113,0.078 -0.55669,0.1163 -1.01593,0.9002 -4.30089,4.0109 -5.98214,3.6674 -0.6358,-0.1299 0.88415,-1.0103 1.48222,-1.2622 1.07008,-0.4507 -4.45619,3.9311 -2.43562,2.4903 -0.50266,0.3665 -2.70466,1.6667 -2.78506,1.7303 -0.75199,0.5949 -1.37194,1.3509 -2.15092,1.9101 -0.22597,0.1622 -0.5379,0.1419 -0.80684,0.2129 -0.51641,0.5287 -1.03281,1.0574 -1.54922,1.586 -2.21759,2.2115 -4.72897,4.1114 -6.71477,6.5452 -0.68801,0.9598 -5.78348,8.209 -6.99855,7.0067 -0.3392,-0.3357 0.53721,-0.9143 0.40568,-1.373 -0.11325,-0.395 -0.31529,0.7589 -0.47294,1.1384 -0.2769,1.1406 -0.39401,2.3323 -0.83071,3.4217 -0.82738,2.0642 -1.81633,2.9349 -3.17179,4.504 -3.49518,4.0459 -6.92975,8.1635 -10.91097,11.7537 0,0 -7.09871,-5.3241 -7.09871,-5.3241 z"
       inkscape:connector-curvature="0"
       inkscape:label="#path2994" />
    <path
       style="fill:#fc9272;fill-opacity:1;stroke:none"
       id="path2984"
       d="m 422.49667,1033.4799 c -4.3431,2.1332 -8.70019,4.175 -13.30773,5.6716 -7.20233,2.7075 -14.59016,4.8751 -21.96117,7.0836 -4.61475,1.9361 -9.69517,2.7425 -14.23808,4.8569 -0.86357,0.4019 -3.3379,1.8372 -2.50445,1.376 2.17388,-1.2029 4.35052,-2.4008 6.52578,-3.6012 -4.8939,3.5573 -9.09394,7.9554 -13.02395,12.5289 -2.31166,2.852 -4.32267,5.912 -6.39106,8.9364 -1.74387,2.3372 -2.56608,5.1587 -3.98639,7.6806 -1.46241,2.3497 -2.7135,4.7928 -3.8353,7.3186 -0.797,1.8904 -1.45563,3.7755 -2.57376,5.5032 0,0 -9.6468,4.1624 -9.6468,4.1624 l 0,0 c 1.35278,-1.5803 1.94482,-3.3848 2.6768,-5.3132 1.21224,-2.5109 2.21975,-5.0784 3.76,-7.4278 1.67638,-2.4221 2.28383,-5.3467 3.98765,-7.7543 2.21815,-2.9542 4.05317,-6.2024 6.43153,-9.0503 3.93428,-4.6349 8.16243,-9.0481 12.94654,-12.8191 0.0389,-0.023 9.95527,-6.2919 13.78077,-7.9186 4.56695,-1.942 9.53302,-2.874 14.14501,-4.6983 7.40842,-2.2435 14.81512,-4.5052 22.06882,-7.2111 4.61593,-1.6285 8.99205,-3.7675 13.42415,-5.834 0,0 -8.27836,6.5097 -8.27836,6.5097 z"
       inkscape:connector-curvature="0" />
    <path
       style="fill:#fc9272;fill-opacity:1;stroke:none"
       id="path2986"
       d="m 12.401587,1095.0581 c 3.588328,2.3032 7.111155,4.693 10.614679,7.1251 2.377421,1.7681 4.415113,3.9105 6.625535,5.8643 1.750713,1.9877 3.832565,3.6398 5.628138,5.5813 2.206232,2.9733 5.053133,5.2156 8.045836,7.3322 4.478916,2.8373 8.869026,5.8116 13.305299,8.7172 4.123463,2.4969 7.600194,5.8463 11.366279,8.8112 3.862175,2.7692 7.964965,5.2446 12.308426,7.1848 3.220127,0.931 6.344463,2.1827 9.629973,2.8837 2.670116,0.7848 5.123401,2.0654 7.719568,3.0288 3.13296,0.6665 5.62119,2.6159 8.13783,4.4805 2.84002,1.7926 5.4067,3.9598 8.03542,6.0413 2.76709,2.4201 5.73864,4.6043 8.57801,6.9599 1.85702,1.5169 3.75134,2.9947 5.69369,4.4031 0,0 -8.85178,5.6081 -8.85178,5.6081 l 0,0 c -1.93198,-1.4513 -3.84421,-2.9322 -5.70659,-4.4705 -2.81661,-2.3791 -5.82576,-4.4881 -8.58913,-6.916 -2.62691,-2.0578 -5.162523,-4.2398 -7.991848,-6.0233 -2.494996,-1.7918 -4.982422,-3.5196 -8.029467,-4.2239 -2.526225,-1.0146 -4.981939,-2.1896 -7.619619,-2.9138 -3.29912,-0.8032 -6.495874,-2.0051 -9.704524,-3.096 -4.355669,-2.0768 -8.521215,-4.5745 -12.426896,-7.4063 -3.70739,-2.9905 -7.219049,-6.2425 -11.29745,-8.7469 -4.421277,-2.9648 -8.851412,-5.9 -13.370642,-8.7138 -3.045529,-2.1604 -5.891914,-4.516 -8.20118,-7.4815 -1.809729,-1.8874 -3.848693,-3.5461 -5.596419,-5.499 -2.141308,-1.9632 -4.18435,-4.031 -6.507218,-5.7906 -3.489463,-2.4924 -7.0363524,-4.8802 -10.7034182,-7.106 0,0 8.9074982,-5.6339 8.9074982,-5.6339 z"
       inkscape:connector-curvature="0" />
    <path
       style="fill:#fc9272;fill-opacity:1;stroke:none"
       id="path2988"
       d="m 12.268452,1104.7832 c -3.5226386,-2.1006 -7.0716842,-4.1235 -10.7946444,-5.8594 -3.6817686,-1.8245 -7.6453965,-2.6326 -11.5722556,-3.6954 0,0 8.5914694,-5.9105 8.5914694,-5.9105 l 0,0 c 3.9964449,1.0209 7.9651774,2.0075 11.6899646,3.8499 3.734985,1.8034 7.304874,3.8779 10.919291,5.8998 0,0 -8.833825,5.7156 -8.833825,5.7156 z"
       inkscape:connector-curvature="0" />
  </g>
</svg>
