<?xml version="1.0" encoding="UTF-8" standalone="no"?>
<!-- Created with Inkscape (http://www.inkscape.org/) -->

<svg
   xmlns:dc="http://purl.org/dc/elements/1.1/"
   xmlns:cc="http://creativecommons.org/ns#"
   xmlns:rdf="http://www.w3.org/1999/02/22-rdf-syntax-ns#"
   xmlns:svg="http://www.w3.org/2000/svg"
   xmlns="http://www.w3.org/2000/svg"
   xmlns:xlink="http://www.w3.org/1999/xlink"
   xmlns:sodipodi="http://sodipodi.sourceforge.net/DTD/sodipodi-0.dtd"
   xmlns:inkscape="http://www.inkscape.org/namespaces/inkscape"
   id="svg2"
   version="1.1"
   inkscape:version="0.48.4 r9939"
   width="1205"
   height="1768"
   sodipodi:docname="46693-910.svg">
  <metadata
     id="metadata8">
    <rdf:RDF>
      <cc:Work
         rdf:about="">
        <dc:format>image/svg+xml</dc:format>
        <dc:type
           rdf:resource="http://purl.org/dc/dcmitype/StillImage" />
        <dc:title />
      </cc:Work>
    </rdf:RDF>
  </metadata>
  <defs
     id="defs6" />
  <sodipodi:namedview
     pagecolor="#ffffff"
     bordercolor="#666666"
     borderopacity="1"
     objecttolerance="10"
     gridtolerance="10"
     guidetolerance="10"
     inkscape:pageopacity="0"
     inkscape:pageshadow="2"
     inkscape:window-width="1280"
     inkscape:window-height="732"
     id="namedview4"
     showgrid="false"
     inkscape:zoom="0.53393665"
     inkscape:cx="771.56854"
     inkscape:cy="1415.8974"
     inkscape:window-x="-8"
     inkscape:window-y="-8"
     inkscape:window-maximized="1"
     inkscape:current-layer="layer1" />
  <image
     width="1205"
     height="1768"
     xlink:href="file:///C:/Users/Surface/Desktop/CHI2013%20BI%20GitRepo/public-dataset/input/cropped-display/46693-910.png"
     id="image10"
     x="0"
     y="0" />
  <g
     inkscape:groupmode="layer"
     id="layer1"
     inkscape:label="Layer">
    <path
       style="fill:#de2d26;fill-opacity:1;fill-rule:nonzero;stroke:none"
       id="g0"
       d="m 409.98962,39.421256 c 3.00986,2.994736 6.03324,5.972371 9.27284,8.718843 2.35972,2.1912 5.16963,3.75359 7.80082,5.576701 1.84766,1.239138 3.69835,2.458103 5.55739,3.688196 1.23725,0.612363 2.49412,1.248763 3.71564,1.956768 1.26162,0.512012 2.50636,1.154047 3.71648,1.850689 1.27433,0.519372 2.52574,1.166951 3.74513,1.870483 1.841,0.541604 3.5749,1.48184 5.2129,2.464617 1.47617,1.000622 2.95288,2.136853 4.56638,2.908961 1.74668,1.299182 3.67606,2.266702 5.57155,3.317137 2.26431,0.970191 4.3512,2.323902 6.53557,3.460175 2.14303,1.317394 4.41626,2.300631 6.66502,3.393894 2.17805,0.919527 4.15243,2.257479 6.38986,3.035266 2.76718,0.977542 5.36622,2.433397 8.18861,3.235292 3.90644,1.248687 7.80002,2.558052 11.74793,3.672863 3.95373,1.368668 7.92596,2.751751 11.74911,4.45329 2.59973,1.249577 5.38206,1.960346 8.03738,3.068633 1.8417,0.701311 3.6005,1.536857 5.35659,2.431463 1.40361,0.578991 2.847,0.942249 4.20728,1.677393 1.64969,0.55103 3.22603,1.25718 4.80719,1.99041 1.71491,0.56884 3.1513,1.68702 4.78307,2.44957 1.45856,1.1128 3.1401,1.6306 4.77485,2.38248 1.93414,0.83493 3.67731,2.04211 5.67383,2.73249 2.75303,1.21799 5.53559,2.36343 8.24634,3.67537 3.28241,1.23443 6.36717,2.88383 9.50433,4.43751 2.7731,1.38052 5.65404,2.50004 8.48945,3.7428 2.1849,1.00645 4.3801,1.92003 6.44897,3.16168 1.22684,0.62583 2.49133,1.29479 3.78506,1.81345 1.61082,0.51954 3.151,1.17602 4.68595,1.89858 1.86629,0.50552 3.58483,1.4135 5.4437,1.94399 2.85145,1.03505 5.53754,2.5052 8.16369,4.01497 2.79706,1.58976 5.73472,2.86907 8.62148,4.28169 2.38962,0.9523 4.55131,2.34225 6.99717,3.16012 2.04865,0.87525 3.98715,1.94778 6.03976,2.81472 3.07244,1.08296 6.1404,2.1468 9.14237,3.41582 3.40611,1.26179 6.95627,2.03761 10.44075,3.03993 4.03514,1.3814 8.11196,2.61579 12.17832,3.90141 3.81765,1.15697 7.65299,2.27089 11.42394,3.57497 3.20058,0.88324 6.13993,2.46662 9.28288,3.50081 1.94751,0.86499 3.78405,1.99682 5.8998,2.3919 1.7774,0.17034 3.22108,1.25899 4.79689,1.9862 1.44915,0.16002 2.70456,1.06722 4.12552,1.41447 2.75723,1.17585 5.46237,2.49414 8.10213,3.91518 3.05653,1.55062 6.07527,3.16837 9.18317,4.61714 2.73966,1.55185 5.72679,2.56069 8.64683,3.70982 2.44821,1.03385 4.86678,2.17691 7.23599,3.38665 1.86421,1.0343 3.80721,1.9355 5.76153,2.79291 2.52022,1.19556 5.01366,2.49378 7.61846,3.50137 3.29423,1.21158 6.25278,3.08816 9.32743,4.74307 2.6487,1.40653 5.27756,2.85277 7.96807,4.17927 2.44712,1.12181 4.72995,2.54275 7.01592,3.95035 2.03313,1.1375 4.20352,2.01317 6.23033,3.16942 2.25951,1.24007 4.5703,2.35753 6.90387,3.45646 3.21014,1.46436 6.47341,2.77919 9.67501,4.26137 3.11871,1.63544 6.34831,2.99819 9.43085,4.70954 3.02716,1.57814 6.04892,3.16849 9.11833,4.66382 2.7135,1.40019 5.59017,2.35351 8.41,3.49164 2.87223,1.07629 5.72217,2.2102 8.51683,3.47858 2.42177,1.10264 4.86551,2.21387 7.37897,3.10185 2.8827,0.91723 5.77988,1.80139 8.65513,2.74548 3.1969,0.85298 6.33257,1.86415 9.5017,2.81595 2.77937,0.69388 5.50139,1.57844 8.28688,2.25681 2.7693,0.3134 5.3983,1.22855 8.08549,1.92297 2.53124,0.6633 5.06483,1.51996 7.50194,2.49608 2.13538,1.03553 4.47725,1.39828 6.70069,2.15277 1.58072,0.94243 3.35604,1.30025 5.06264,1.91175 1.85166,0.85988 3.78911,1.41168 5.65222,2.25089 2.18369,0.89022 4.36164,1.80237 6.50167,2.80153 3.11894,1.4939 6.31502,2.79278 9.53989,4.04198 3.17044,1.29824 6.44061,2.34063 9.63225,3.57732 2.64151,0.78018 5.00049,2.25685 7.57722,3.18905 1.79175,0.97815 3.63808,1.9189 5.65467,2.32433 2.09456,1.0274 4.37167,1.4937 6.53926,2.30204 2.31834,0.79858 4.57898,1.77758 6.92087,2.51036 2.78474,0.69694 5.49951,1.62708 8.31845,2.19218 3.26068,0.96947 6.44383,2.15246 9.64054,3.31012 2.57194,0.68056 5.03163,1.67472 7.59816,2.3756 2.88088,0.74812 5.70164,1.59909 8.65514,2.0364 3.81083,0.91671 7.64835,1.6606 11.43357,2.67779 2.5678,0.83654 5.26534,1.11393 7.83075,1.92182 1.12795,0.56153 2.23377,1.18668 3.47474,1.41368 1.92046,-0.0225 3.6242,0.93698 5.4502,1.36799 2.3209,0.30677 4.4495,1.30209 6.7239,1.80854 3.279,1.19493 6.6828,1.90998 10.0432,2.83545 3.6405,0.74028 7.2507,1.49105 10.8466,2.4351 3.1106,0.46224 6.1369,1.16296 9.1853,1.93082 2.5356,0.47379 4.9816,1.03746 7.3413,2.10596 1.0181,0.43648 2.0526,0.64449 3.1495,0.70286 2.435,0.62088 4.7971,1.45579 7.1388,2.36243 2.466,0.82955 4.8688,1.86163 7.3775,2.5656 2.3222,0.4115 4.4916,1.33318 6.7501,1.98714 2.1663,0.39981 4.0527,1.60487 6.2078,2.04138 2.6279,1.04508 5.3448,1.73941 7.9823,2.75432 2.8965,0.81344 5.7352,1.8285 8.5361,2.93184 3.6135,1.43896 7.3575,2.43916 11.0996,3.47507 5.3679,1.57844 10.7908,2.92076 16.2282,4.23726 6.7912,1.41232 13.5805,2.8357 20.3491,4.35305 9.1116,1.96257 18.2866,3.60175 27.4286,5.41106 9.8952,1.83977 19.8138,3.57224 29.6638,5.64452 8.6765,1.49713 17.1784,3.80087 25.6036,6.32404 5.1122,1.34282 10.2291,2.775 15.1166,4.8037 1.2757,0.48387 2.4126,1.12383 3.5302,1.89035 0,0 -4.5435,6.00307 -4.5435,6.00307 l 0,0 c 1.1689,0.43114 -2.6091,-1.21248 -1.8746,-0.85201 -4.6653,-1.88631 -9.5569,-3.15397 -14.4174,-4.43058 -8.2436,-2.39787 -16.5433,-4.64187 -25.0142,-6.09772 -9.8264,-2.04564 -19.7199,-3.75624 -29.5834,-5.61159 -9.2102,-1.82318 -18.4454,-3.51579 -27.6191,-5.52066 -6.8002,-1.54964 -13.6196,-3.01378 -20.4459,-4.44258 -5.5301,-1.33377 -11.036,-2.7352 -16.4927,-4.34268 -3.9966,-1.14078 -7.9959,-2.24747 -11.8608,-3.79361 -2.7547,-1.13575 -5.5814,-2.05587 -8.4322,-2.90606 -2.2956,-0.88664 -4.6808,-1.4461 -6.9322,-2.44936 -2.2863,-0.55069 -4.3612,-1.58261 -6.6216,-2.15067 -2.2694,-0.64914 -4.4073,-1.60172 -6.7478,-1.97032 -2.7336,-0.79546 -5.3645,-1.87263 -8.053,-2.79788 -1.5608,-0.61812 -3.7096,-0.95244 -5.1071,-1.82872 -0.057,-0.0357 0.127,-0.044 0.1905,-0.0661 -1.9709,-0.16295 -3.8905,-0.5419 -5.7121,-1.34411 -1.9627,-0.88058 -3.9946,-1.20115 -6.0998,-1.62973 -3.0674,-0.78058 -6.1087,-1.43367 -9.2372,-1.93583 -3.6359,-0.94001 -7.2907,-1.65572 -10.9606,-2.44411 -3.2619,-0.90433 -6.576,-1.60677 -9.7497,-2.79972 -2.3333,-0.56877 -4.502,-1.53345 -6.8837,-1.86485 -1.74605,-0.47483 -3.21189,-1.27233 -5.01724,-1.30137 -1.60376,-0.32877 -3.19874,-0.85644 -4.60545,-1.71088 -2.33983,-0.53483 -4.86173,-0.94734 -7.21608,-1.65786 -3.51239,-0.94558 -7.07434,-1.61964 -10.60044,-2.51623 -3.23496,-0.50426 -6.33629,-1.40615 -9.48945,-2.24001 -2.76677,-0.74326 -5.40477,-1.82283 -8.17719,-2.54145 -2.86986,-1.01561 -5.70898,-2.09594 -8.6129,-3.01264 -3.08784,-0.64769 -6.06534,-1.64738 -9.11995,-2.41883 -2.50901,-0.82904 -4.94468,-1.84991 -7.43655,-2.72554 -1.64014,-0.88294 -3.83743,-0.74078 -5.35926,-1.93906 -2.31855,-0.5538 -4.62498,-1.31572 -6.64863,-2.60523 -2.60793,-1.0017 -5.04201,-2.3767 -7.71342,-3.21889 -3.14045,-1.29332 -6.45373,-2.22438 -9.59439,-3.5336 -3.39686,-1.32505 -6.76176,-2.70934 -10.04276,-4.29916 -2.07693,-1.02014 -4.22836,-1.87473 -6.36275,-2.76019 -1.73353,-0.79244 -3.55772,-1.27428 -5.2908,-2.1049 -1.52722,-0.80961 -3.50562,-0.77453 -4.94768,-1.8612 -2.0954,-1.09542 -4.92549,-0.86359 -6.96868,-2.24424 -2.05176,-0.92259 -4.29595,-1.56823 -6.45592,-2.14628 -2.66502,-0.67053 -5.24096,-1.59748 -7.98817,-1.88616 -2.93429,-0.69707 -5.7804,-1.66658 -8.71268,-2.36293 -3.24124,-0.98593 -6.45695,-1.98322 -9.72273,-2.88538 -2.91561,-1.01118 -5.89927,-1.85076 -8.82978,-2.82087 -2.69668,-1.0019 -5.34212,-2.15173 -7.96232,-3.33151 -2.68637,-1.26313 -5.47268,-2.29299 -8.23857,-3.36258 -2.93056,-1.2612 -6.00362,-2.20167 -8.85154,-3.67671 -3.19202,-1.56804 -6.35648,-3.18801 -9.49545,-4.86008 -2.89401,-1.64322 -5.97408,-2.85505 -8.89741,-4.43798 -3.2333,-1.48701 -6.53071,-2.80461 -9.75729,-4.30969 -2.53489,-1.22572 -5.05315,-2.45238 -7.5171,-3.81142 -1.96443,-1.30917 -4.37331,-1.90526 -6.33944,-3.23338 -2.07898,-1.29571 -4.16981,-2.57975 -6.41023,-3.59137 -2.75978,-1.38544 -5.47955,-2.845 -8.20967,-4.28703 -2.80478,-1.52985 -5.50101,-3.2522 -8.50704,-4.37774 -2.66756,-1.08121 -5.2638,-2.35161 -7.84322,-3.61924 -2.12016,-0.92315 -4.20395,-1.94166 -6.24504,-3.02301 -2.09136,-1.14509 -4.33303,-2.0756 -6.51357,-3.0296 -3.04801,-1.2094 -6.17925,-2.24437 -9.04302,-3.86692 -3.27355,-1.49772 -6.42831,-3.22113 -9.6315,-4.859 -2.13519,-1.18689 -4.38444,-2.16475 -6.54239,-3.30496 -1.79891,-0.54819 -3.35043,-1.41038 -5.16737,-1.83413 -1.23315,-0.55519 -2.15398,-1.36527 -3.26304,-1.44844 -2.36153,-0.53796 -4.6071,-1.39303 -6.71982,-2.58957 -3.1713,-1.07135 -6.17261,-2.56793 -9.39499,-3.49878 -3.69359,-1.30941 -7.47905,-2.35235 -11.22308,-3.50479 -3.99781,-1.286 -8.0308,-2.45815 -11.99867,-3.83526 -3.75647,-1.1106 -7.59389,-1.95803 -11.2583,-3.36945 -3.02923,-1.27452 -6.13448,-2.31803 -9.21216,-3.47257 -1.82843,-0.81276 -3.61752,-1.69921 -5.4108,-2.58659 -2.76947,-0.92291 -5.26224,-2.37282 -7.93918,-3.50643 -3.05377,-1.49008 -6.16173,-2.84714 -9.10524,-4.55553 -2.09455,-1.24428 -4.27773,-2.37762 -6.52225,-3.31973 -2.20253,-0.68225 -4.27686,-1.65036 -6.46777,-2.35625 -1.55127,-0.72323 -2.84079,-1.30276 -4.54846,-1.83234 -1.54583,-0.71621 -3.05376,-1.47715 -4.5801,-2.22607 -1.82542,-1.07296 -3.7526,-1.84827 -5.67761,-2.72325 -2.9088,-1.32882 -5.92753,-2.42228 -8.79028,-3.86014 -3.1218,-1.55987 -6.19904,-3.18066 -9.467,-4.42269 -2.46285,-1.23178 -5.01718,-2.25133 -7.51867,-3.39979 -2.24436,-0.85864 -4.29365,-2.05146 -6.45208,-3.09084 -1.25419,-0.99696 -3.39909,-0.94486 -4.52668,-2.28049 -1.64776,-0.75175 -3.09114,-1.83699 -4.79064,-2.43332 -1.76825,-0.81002 -3.49686,-1.53211 -5.30695,-2.25906 -1.1309,-0.66908 -2.71549,-0.76487 -3.95627,-1.53384 -1.61028,-0.81073 -3.13596,-1.59469 -4.86317,-2.17802 -2.71681,-1.13388 -5.59556,-1.79685 -8.24612,-3.118328 -3.46111,-1.586449 -7.12867,-2.741972 -10.70008,-4.054946 -4.00665,-1.136308 -7.96686,-2.443721 -11.92229,-3.742381 -2.91984,-0.951298 -5.69071,-2.269518 -8.54739,-3.394783 -2.48862,-0.94156 -4.77007,-2.26525 -7.18126,-3.377292 -2.23899,-1.200967 -4.64968,-2.101338 -6.81614,-3.464141 -2.2245,-1.196855 -4.37523,-2.544366 -6.68867,-3.561884 -1.82598,-1.036571 -3.74806,-1.929776 -5.40628,-3.233976 -1.75999,-0.97239 -3.47018,-2.073837 -5.1127,-3.227272 -1.37641,-1.135856 -3.33699,-1.467471 -4.88752,-2.289233 -1.63158,-0.937011 -1.4652,-0.931521 -3.73898,-1.867143 -1.63544,-0.937264 -1.44205,-0.915247 -3.73513,-1.861325 -1.57758,-0.909962 -2.00514,-1.164195 -4.0882,-2.173107 -1.92649,-1.258126 -3.81494,-2.526841 -5.75306,-3.772324 -2.81294,-1.976327 -5.85912,-3.626408 -8.38815,-5.99087 -3.39748,-2.881141 -6.63522,-5.940707 -9.69983,-9.176044 0,0 5.3565,-5.356495 5.3565,-5.356495 z"
       inkscape:connector-curvature="0"
       inkscape:label="#path3007" />
    <path
       style="fill:#de2d26;fill-opacity:1;stroke:none"
       id="path2986"
       d="m 359.30756,-9.5203645 c 4.07627,2.6816222 7.56261,6.1291859 10.82763,9.72683183 2.1807,2.34011937 4.45352,4.59445507 6.60285,6.96259717 2.07847,2.0620868 4.23594,4.0135125 6.17315,6.2176665 2.22696,2.26448 2.80764,5.885302 5.27231,7.913423 1.70149,1.899585 4.05773,2.945233 6.427,3.773161 3.27988,1.063786 6.07154,2.460099 8.74849,4.670921 2.10655,1.947339 3.90528,4.200536 5.99583,6.158254 1.84122,1.881286 3.58637,3.879056 5.54478,5.642117 1.68223,2.019948 4.0189,3.257952 6.04594,4.890434 1.38561,1.015165 0.63707,0.419191 2.20765,1.834588 3.88897,3.596858 -1.19775,9.096692 -5.08672,5.499834 l 0,0 c -1.025,-0.995613 -0.41236,-0.45592 -1.8905,-1.557385 -2.06658,-1.785816 -4.64674,-2.975737 -6.36199,-5.166619 -1.95675,-1.838816 -3.80261,-3.796714 -5.65054,-5.74181 -1.91645,-1.871954 -3.68955,-3.881906 -5.57493,-5.78313 -2.0141,-1.663392 -3.94933,-2.662278 -6.52433,-3.401694 -3.34284,-1.235344 -6.65366,-2.786753 -9.10779,-5.452084 -2.38935,-2.470707 -3.87843,-5.448222 -5.67907,-8.342151 -1.91053,-2.186939 -4.08505,-4.083029 -6.11661,-6.153881 -2.10822,-2.3932696 -4.43964,-4.5906946 -6.58952,-6.9477844 -2.97091,-3.3225593 -6.20598,-6.4361452 -9.94355,-8.8933905 -4.1365,-3.3092024 0.54342,-9.1591011 4.67992,-5.8498986 z"
       inkscape:connector-curvature="0" />
  </g>
</svg>
