<?xml version="1.0" encoding="UTF-8" standalone="no"?>
<!-- Created with Inkscape (http://www.inkscape.org/) -->

<svg
   xmlns:dc="http://purl.org/dc/elements/1.1/"
   xmlns:cc="http://creativecommons.org/ns#"
   xmlns:rdf="http://www.w3.org/1999/02/22-rdf-syntax-ns#"
   xmlns:svg="http://www.w3.org/2000/svg"
   xmlns="http://www.w3.org/2000/svg"
   xmlns:xlink="http://www.w3.org/1999/xlink"
   xmlns:sodipodi="http://sodipodi.sourceforge.net/DTD/sodipodi-0.dtd"
   xmlns:inkscape="http://www.inkscape.org/namespaces/inkscape"
   id="svg2"
   version="1.1"
   inkscape:version="0.48.4 r9939"
   width="656"
   height="1006"
   sodipodi:docname="46693-412.svg">
  <metadata
     id="metadata8">
    <rdf:RDF>
      <cc:Work
         rdf:about="">
        <dc:format>image/svg+xml</dc:format>
        <dc:type
           rdf:resource="http://purl.org/dc/dcmitype/StillImage" />
        <dc:title />
      </cc:Work>
    </rdf:RDF>
  </metadata>
  <defs
     id="defs6" />
  <sodipodi:namedview
     pagecolor="#ffffff"
     bordercolor="#666666"
     borderopacity="1"
     objecttolerance="10"
     gridtolerance="10"
     guidetolerance="10"
     inkscape:pageopacity="0"
     inkscape:pageshadow="2"
     inkscape:window-width="1280"
     inkscape:window-height="732"
     id="namedview4"
     showgrid="false"
     inkscape:zoom="0.93836978"
     inkscape:cx="292.55874"
     inkscape:cy="806.16122"
     inkscape:window-x="-8"
     inkscape:window-y="-8"
     inkscape:window-maximized="1"
     inkscape:current-layer="layer1" />
  <image
     width="656"
     height="1006"
     xlink:href="file:///tmp/broken-interfaces/phone_cropped_display/46693-412.png"
     id="image10"
     x="0"
     y="0" />
  <g
     inkscape:groupmode="layer"
     id="layer1"
     inkscape:label="g1">
    <path
       style="fill:#fc9272;fill-opacity:1;stroke:none"
       id="path2986"
       d="m 392.07102,1017.308 c -0.45141,-2.7614 -0.68752,-5.5501 -0.844,-8.3417 -0.11468,-2.3428 -0.12455,-4.6888 -0.13028,-7.0338 -0.001,-2.13594 0.003,-4.27183 0.005,-6.40773 0.002,-2.12816 0.002,-4.25633 0.002,-6.3845 1.3e-4,-2.13108 9e-5,-4.26216 7e-5,-6.39325 -2e-5,-2.13139 -3e-5,-4.26277 -3e-5,-6.39416 -0.0288,-2.24091 0.51856,-4.43607 0.78803,-6.65286 0.22156,-2.0455 0.25244,-4.10448 0.27588,-6.15975 0.0148,-2.12233 0.009,-4.24473 0.006,-6.36709 -0.003,-2.13201 -0.004,-4.26403 -0.004,-6.39605 -4e-4,-2.13154 -3.6e-4,-4.26308 -3.6e-4,-6.39462 2e-5,-2.13135 4e-5,-4.26271 4e-5,-6.39407 10e-6,-2.13135 10e-6,-4.2627 10e-6,-6.39406 0.16368,-2.1565 0.18362,-4.30477 0.13098,-6.46979 -0.0719,-2.67328 -0.10005,-5.34745 -0.1187,-8.02154 -0.0132,-2.2757 -0.0133,-4.55145 -0.0135,-6.82718 -0.1886,-2.08461 0.31861,-4.0922 0.67531,-6.12417 0.29541,-1.8686 0.34013,-3.76323 0.37793,-5.65084 -0.11657,-2.12767 0.12675,-4.18808 0.54363,-6.2672 0.36231,-1.81162 0.44339,-3.65978 0.50223,-5.50113 -0.10563,-2.23024 0.38031,-4.40618 0.70547,-6.59751 0.14065,-2.17991 0.69197,-4.29346 1.05217,-6.44075 0.3085,-2.01186 0.36155,-4.04916 0.39915,-6.08039 0.0254,-2.11694 0.0175,-4.23411 0.0144,-6.35116 -0.004,-2.13211 -0.005,-4.26422 -0.006,-6.39633 -6.2e-4,-2.13163 -5.9e-4,-4.26326 -5.9e-4,-6.39488 10e-6,-2.13136 4e-5,-4.26273 5e-5,-6.39409 1e-5,-2.13135 1e-5,-4.2627 1e-5,-6.39405 0,-2.13136 0,-4.26271 0,-6.39407 -0.15961,-2.26781 0.33312,-4.48186 0.66535,-6.70922 0.14343,-2.17799 0.69684,-4.28925 1.05802,-6.43466 0.0438,-0.33086 0.0877,-0.66172 0.1315,-0.99258 0.39972,-2.98757 4.62478,-2.42228 4.22507,0.56529 l 0,0 c -0.0512,0.37959 -0.10244,0.75918 -0.15366,1.13877 -0.36046,2.11895 -0.90493,4.20179 -1.04507,6.35348 -0.30282,2.02112 -0.77531,4.02046 -0.61849,6.07892 0,2.13136 0,4.26271 0,6.39407 0,2.13136 -1e-5,4.26272 -2e-5,6.39408 -1e-5,2.13135 -3e-5,4.2627 -5e-5,6.39405 0,2.13108 -3e-5,4.26217 6e-4,6.39325 8.1e-4,2.13059 0.002,4.26118 0.006,6.39177 0.003,2.14563 0.0112,4.29139 -0.0151,6.43692 -0.0422,2.24207 -0.10917,4.49026 -0.45778,6.70979 -0.35942,2.12068 -0.90191,4.20562 -1.0392,6.35909 -0.30295,2.03123 -0.77163,4.0397 -0.66128,6.10774 -0.0677,2.07662 -0.17117,4.15946 -0.58322,6.20169 -0.36805,1.83533 -0.58357,3.63163 -0.46129,5.51516 -0.0429,2.1069 -0.10192,4.22097 -0.44186,6.30517 -0.31758,1.79315 -0.7975,3.54121 -0.61052,5.38336 2.2e-4,2.26597 3.3e-4,4.53196 0.0134,6.7979 0.0184,2.6495 0.0463,5.29907 0.11755,7.94776 0.0533,2.1989 0.0288,4.38467 -0.12973,6.57328 0,2.13136 0,4.26272 0,6.39408 -1e-5,2.13136 -3e-5,4.26271 -5e-5,6.39407 0,2.13117 -4e-5,4.26234 3.7e-4,6.39352 5.4e-4,2.13069 0.001,4.26139 0.004,6.39208 0.003,2.14034 0.009,4.28074 -0.007,6.42105 -0.0255,2.21188 -0.0631,4.42757 -0.30713,6.62839 -0.25158,2.04538 -0.75153,4.0725 -0.7565,6.1353 0,2.13138 10e-6,4.26276 3e-5,6.39414 2e-5,2.13123 6e-5,4.26246 -7e-5,6.39369 -2.1e-4,2.12934 -5e-4,4.25868 -0.002,6.38801 -0.002,2.13113 -0.006,4.26226 -0.005,6.39341 0.005,2.2693 0.0141,4.5395 0.12367,6.8066 0.14653,2.6365 0.36781,5.2704 0.79262,7.8785 0.49553,2.9732 -3.70918,3.674 -4.20471,0.7008 z"
       inkscape:connector-curvature="0" />
    <path
       style="fill:#fc9272;fill-opacity:1;stroke:none"
       id="path2988"
       d="m 403.73548,645.8504 c -0.41885,2.89841 -0.64108,5.8196 -0.79217,8.74263 -0.16326,2.3876 0.0158,4.7888 -0.27071,7.16482 -0.40731,1.79851 -0.66766,3.61385 -0.8001,5.4516 0.0278,2.18315 -0.26523,4.31485 -0.63212,6.46006 -0.35056,2.0167 -0.45137,4.06204 -0.51355,6.10417 -0.0472,2.44294 -0.0403,4.88653 -0.0388,7.32981 0.003,2.47008 0.005,4.94017 0.006,7.41025 9.1e-4,2.17363 9.6e-4,4.34725 10e-4,6.52087 2e-5,2.2896 -10e-6,4.5792 -3e-5,6.8688 -10e-6,2.31316 -10e-6,4.62631 -10e-6,6.93947 0,2.14537 0,4.29075 0,6.43613 0,2.1294 0,4.2588 0,6.3882 0,2.34499 0,4.68997 0,7.03496 0.0116,2.37945 -0.30778,4.74177 -0.63301,7.09549 -0.41995,1.9645 -0.0317,3.89933 0.21543,5.85511 0.27634,2.19359 0.35182,4.40411 0.39737,6.61229 0.0317,2.14603 0.0267,4.29237 0.0252,6.43857 -0.002,2.34509 -0.004,4.69018 -0.004,7.03526 -0.15261,2.1873 0.0993,4.30746 0.45355,6.45637 0.37966,2.21213 0.50368,4.45351 0.57521,6.69309 0.0506,2.15217 0.0445,4.30515 0.0432,6.45776 -0.003,2.13108 -0.005,4.26216 -0.006,6.39324 -9.4e-4,2.131 -9.8e-4,4.26201 -0.001,6.39302 0.12927,1.87245 0.24161,3.70419 0.55338,5.55797 0.3229,2.08782 0.53323,4.19876 0.34319,6.30555 -0.3774,1.80484 -0.64193,3.61999 -0.77677,5.45826 -0.10389,1.72842 -0.11284,3.46052 -0.12295,5.19142 -0.0177,3.01414 -4.28034,2.9891 -4.26263,-0.025 l 0,0 c 0.0108,-1.82794 0.0215,-3.65716 0.13459,-5.48231 0.14184,-1.88688 0.38102,-3.75968 0.79067,-5.60906 0.25752,-1.69273 -0.13477,-3.4462 -0.30979,-5.13189 -0.35085,-2.08641 -0.46631,-4.15856 -0.6124,-6.265 5e-5,-2.13174 9e-5,-4.26347 0.001,-6.3952 0.001,-2.13121 0.003,-4.26242 0.006,-6.39362 0.001,-2.10672 0.007,-4.21379 -0.041,-6.32009 -0.0645,-2.05256 -0.17227,-4.10729 -0.52059,-6.13477 -0.39157,-2.3757 -0.6578,-4.73632 -0.51031,-7.15104 7.4e-4,-2.3456 0.002,-4.6912 0.004,-7.0368 0.001,-2.1161 0.006,-4.23235 -0.0243,-6.34829 -0.042,-2.05883 -0.10829,-4.12013 -0.36468,-6.16556 -0.29305,-2.32102 -0.68618,-4.64232 -0.2089,-6.97278 0.2987,-2.16123 0.61044,-4.32748 0.59288,-6.51195 0,-2.34499 0,-4.68997 0,-7.03496 0,-2.1294 0,-4.2588 0,-6.3882 0,-2.14538 0,-4.29076 0,-6.43613 10e-6,-2.31317 10e-6,-4.62633 2e-5,-6.93949 2e-5,-2.28956 4e-5,-4.57912 3e-5,-6.86869 -5e-5,-2.17295 -1e-4,-4.34591 -0.001,-6.51887 -0.001,-2.46994 -0.003,-4.93988 -0.006,-7.40982 -0.001,-2.48774 -0.009,-4.9758 0.0408,-7.46318 0.0693,-2.2391 0.18726,-4.48101 0.57255,-6.69192 0.34431,-2.0132 0.61873,-4.00091 0.58245,-6.05218 0.14225,-1.92271 0.38829,-3.83055 0.827,-5.71058 0.35921,-2.23916 -0.0168,-4.56059 0.23819,-6.81589 0.16041,-3.08372 0.39626,-6.16569 0.84444,-9.22264 0.49553,-2.97318 4.70025,-2.2724 4.20472,0.70078 z"
       inkscape:connector-curvature="0" />
    <path
       style="fill:#fc9272;fill-opacity:1;stroke:none"
       id="path2990"
       d="m 398.56356,650.3644 c 0,-3.16319 0,-6.32637 0,-9.48956 0,-3.17146 0,-6.34291 0,-9.51437 0.0463,-2.2937 -0.12637,-4.59495 0.14684,-6.87564 0.0827,-1.51049 0.17554,-2.98625 0.0891,-4.49859 -0.13208,-1.97662 -0.1808,-3.95706 -0.21198,-5.93739 -0.0262,-2.13716 -0.0255,-4.27454 -0.0261,-6.41182 2.1e-4,-2.13423 0.001,-4.26846 0.002,-6.40268 4.2e-4,-2.13145 4.7e-4,-4.2629 5.1e-4,-6.39435 2e-5,-2.13132 1e-5,-4.26263 1e-5,-6.39395 0.31026,-2.40336 0.68287,-4.79219 0.87964,-7.20986 0.12435,-2.32329 0.69148,-4.58983 0.9794,-6.8958 0.22546,-2.04864 0.25256,-4.11139 0.27381,-6.17009 0.16687,-2.04866 -0.31085,-4.03787 -0.61496,-6.04873 -0.094,-2.29797 0.2717,-4.58099 0.44055,-6.86891 0.0863,-2.21708 0.13201,-4.40781 0.5059,-6.59828 0.40379,-2.02261 0.57287,-4.07612 0.66882,-6.13277 0.0187,-2.24709 0.58235,-4.4385 0.86064,-6.66084 0.25105,-2.09903 0.16081,-4.21434 0.41408,-6.31039 0.4037,-2.06785 0.66951,-4.15194 0.80988,-6.25302 0.11214,-2.08338 0.11336,-4.17055 0.11799,-6.25631 -0.14564,-2.27786 0.13228,-4.50168 0.50668,-6.74098 0.39636,-2.07522 0.34566,-4.19606 0.67466,-6.2758 0.45742,-1.76328 0.70466,-3.55711 0.83528,-5.37052 0.0619,-1.80912 0.27276,-3.63016 -0.14032,-5.40831 -0.48901,-1.65725 -0.64485,-3.3738 -0.74339,-5.09041 -0.17008,-2.29581 0.0856,-4.61671 -0.19676,-6.90143 -0.39347,-2.21648 -0.66763,-4.44615 -0.82038,-6.69143 -0.49137,-1.93834 -0.55638,-3.97827 -1.06863,-5.90483 -0.78331,-2.06009 -0.79538,-4.13838 -0.57925,-6.29626 0.24686,-2.03083 0.35259,-4.07328 0.41443,-6.11681 0.076,-2.19906 -0.0462,-4.39914 0.19173,-6.58786 0.26409,-2.25054 0.82061,-4.43351 1.33943,-6.6328 0.41144,-2.09869 0.54439,-4.22153 0.9612,-6.32026 0.53402,-2.00998 0.23155,-4.05771 0.35515,-6.1093 0.18309,-2.10354 0.29021,-4.21144 0.34875,-6.32175 0.0813,-2.01491 0.10506,-3.99969 -0.22653,-5.98912 -0.25358,-2.12591 -0.7058,-4.20008 -1.15829,-6.28903 -0.47295,-2.2289 -0.59868,-4.50559 -0.67237,-6.77626 -0.0853,-2.26435 0.47603,-4.48639 0.75117,-6.72409 0.21833,-2.16126 0.78751,-4.26226 1.07413,-6.41635 0.23439,-2.03522 0.2591,-4.08604 0.28004,-6.13217 -0.17493,-2.07382 0.32506,-4.07291 0.67555,-6.09572 0.29227,-1.87246 0.33657,-3.77033 0.37393,-5.66135 0.0158,-1.38456 0.01,-0.69026 0.0179,-2.08291 0.0178,-3.01414 4.28041,-2.989 4.26264,0.0251 l 0,0 c -0.008,1.42835 -0.002,0.71413 -0.0187,2.14266 -0.0423,2.10755 -0.10057,4.2221 -0.43625,6.30754 -0.31489,1.80135 -0.78936,3.55928 -0.61262,5.40857 -0.023,2.22123 -0.055,4.4474 -0.31778,6.65596 -0.28992,2.1392 -0.83544,4.22861 -1.06838,6.37179 -0.251,2.01919 -0.7548,4.02648 -0.72114,6.06405 0.064,2.01368 0.16384,4.03402 0.5782,6.01187 0.46615,2.158 0.929,4.30501 1.19824,6.49911 0.36685,2.25943 0.38459,4.51359 0.28129,6.79902 -0.0604,2.1585 -0.1678,4.31478 -0.35524,6.46637 -0.14271,2.23526 0.19052,4.48644 -0.42916,6.67878 -0.42896,2.14608 -0.52769,4.32678 -0.99336,6.46801 -0.48399,2.04383 -1.01197,4.06719 -1.25546,6.15992 -0.28331,2.05141 -0.0243,4.14518 -0.16336,6.20985 -0.0656,2.14371 -0.17694,4.28634 -0.43417,6.41689 -0.17476,1.70183 -0.18683,3.22065 0.47779,4.84922 0.51074,2.18497 0.73172,4.43516 1.18213,6.63516 0.14613,2.18567 0.43066,4.35238 0.80435,6.51101 0.24025,2.3693 0.10579,4.75026 0.21568,7.12847 0.083,1.49774 0.21618,2.99061 0.65479,4.434 0.44875,2.1892 0.36689,4.39426 0.22435,6.61598 -0.14445,1.94929 -0.39172,3.88537 -0.88541,5.781 -0.40138,2.05257 -0.18771,4.20614 -0.67155,6.25738 -0.3367,2.01362 -0.60034,3.99599 -0.44832,6.04751 -0.005,2.17831 -0.007,4.35812 -0.12765,6.53381 -0.1491,2.18962 -0.41053,4.3655 -0.83638,6.5201 -0.30594,2.07747 -0.0845,4.20783 -0.41143,6.28989 -0.26824,2.11198 -0.79741,4.19542 -0.83184,6.32784 -0.10607,2.23165 -0.29195,4.46003 -0.7259,6.6554 -0.35696,2.05289 -0.35034,4.11088 -0.45575,6.18993 -0.1467,1.97392 -0.40859,3.93963 -0.47662,5.91795 0.3363,2.2336 0.83609,4.45414 0.66245,6.72912 -0.0232,2.22168 -0.0571,4.44757 -0.30691,6.65777 -0.2842,2.24478 -0.82406,4.45258 -0.96028,6.71158 -0.18931,2.30068 -0.48463,4.58543 -0.86543,6.86209 0,2.13134 2e-5,4.26269 -10e-6,6.39404 -4e-5,2.13174 -9e-5,4.26347 -5e-4,6.39521 -4.8e-4,2.13351 -0.001,4.26702 -0.002,6.40053 6e-4,2.11539 -1.1e-4,4.23086 0.0256,6.34612 0.0301,1.92247 0.077,3.84506 0.20572,5.7639 0.0996,1.78241 -0.0112,3.53395 -0.12106,5.31235 -0.34269,2.06809 0.032,4.21585 -0.10811,6.30228 0,3.17146 0,6.34291 0,9.51437 0,3.16319 0,6.32637 0,9.48956 0,3.01419 -4.26271,3.01419 -4.26271,0 z"
       inkscape:connector-curvature="0" />
    <path
       style="fill:#fc9272;fill-opacity:1;stroke:none"
       id="path2992"
       d="m 409.82777,330.77351 c 0.19383,-0.3429 0.38766,-0.6858 0.58149,-1.0287 1.48999,-2.62018 5.19547,-0.51302 3.70548,2.10715 l 0,0 c -0.15809,0.27597 -0.31619,0.55193 -0.47428,0.8279 -1.34799,2.69597 -5.16067,0.78963 -3.81269,-1.90635 z"
       inkscape:connector-curvature="0" />
    <path
       style="fill:#fc9272;fill-opacity:1;stroke:none"
       id="path2994"
       d="m 408.05619,374.7042 c -0.60583,-2.84205 -0.38906,-5.72882 -0.20082,-8.60004 0.16706,-2.26894 0.23992,-4.54265 0.27839,-6.81688 0.0272,-2.12121 0.0247,-4.24266 0.0243,-6.364 0.0362,-2.14299 0.28251,-4.28002 0.3038,-6.42506 -0.0512,-2.18773 -0.27705,-4.36228 -0.10791,-6.54691 0.46371,-2.37316 1.46079,-4.58213 2.20746,-6.868 0.41555,-1.89546 0.19903,-3.80419 0.68711,-5.70995 0.59747,-1.57897 0.90071,-3.22736 1.4464,-4.82305 0.53917,-1.59699 0.64634,-3.28366 0.73281,-4.95355 -0.0729,-2.20714 0.40935,-4.35989 0.7308,-6.52939 0.28253,-2.03121 0.33953,-4.08302 0.37801,-6.13044 0.0269,-2.11753 0.0202,-4.2353 0.0178,-6.35295 0.24644,-2.20666 0.67117,-4.38272 0.87674,-6.59532 0.20095,-2.12168 0.0669,-4.25583 0.33649,-6.36861 0.38254,-1.87588 0.6362,-3.75631 1.19132,-5.59092 0.51877,-1.64101 0.63938,-3.35933 0.72807,-5.06661 0.1589,-3.01 4.41568,-2.78528 4.25678,0.22472 l 0,0 c -0.10983,2.05117 -0.28248,4.11064 -0.9062,6.08096 -0.49559,1.62378 -0.68972,3.29439 -1.04997,4.95372 -0.3444,2.02387 -0.0148,4.12719 -0.31238,6.16453 -0.19629,2.07808 -0.5326,4.13212 -0.85814,6.19273 0.002,2.14614 0.009,4.29241 -0.0186,6.43842 -0.0425,2.2301 -0.11102,4.46453 -0.42354,6.67631 -0.30366,2.03813 -0.77062,4.05279 -0.69041,6.12709 -0.11038,2.06386 -0.27968,4.14052 -0.95665,6.10985 -0.5238,1.52853 -0.79775,3.11523 -1.3842,4.62584 -0.7187,1.84491 0.191,4.02879 -0.73284,5.85808 -0.65467,1.98004 -1.46459,3.90381 -2.0115,5.9203 -0.23238,2.07059 0.17493,4.16118 0.12453,6.24003 -0.0506,2.11913 -0.24261,4.23182 -0.30311,6.34746 3.6e-4,2.1457 0.003,4.2915 -0.0249,6.43707 -0.0399,2.3432 -0.11531,4.68586 -0.28692,7.02363 -0.16718,2.54559 -0.39893,5.10038 0.15196,7.62015 0.49553,2.97318 -3.70918,3.67397 -4.20471,0.70079 z"
       inkscape:connector-curvature="0" />
  </g>
  <g
     inkscape:groupmode="layer"
     id="layer2"
     inkscape:label="g2">
    <path
       style="fill:#fee0d2;fill-opacity:1;fill-rule:nonzero;stroke:none"
       id="g2"
       d="m 461.9714,-16.51801 c -1.9412,1.224928 -3.28317,2.624411 -4.37596,4.567751 -0.16621,0.295573 -0.41933,0.555256 -0.5042,0.883562 -0.0286,0.110716 0.1364,0.18359 0.2046,0.275384 -0.16298,0.621839 -0.32595,1.2436774 -0.48892,1.865516 -1.62692,3.6214078 -2.97944,7.4011984 -3.61621,11.335324 -1.079,3.5591005 -2.5523,6.9319617 -3.20934,10.611174 -2.68987,9.938291 0.92445,-3.6965283 -1.05667,4.574586 -0.31856,1.329983 -0.88338,2.600952 -1.11134,3.949421 -0.66269,3.920018 1.29918,-3.600102 -0.57506,2.985079 -0.87267,1.022314 -0.106,1.791643 -0.28118,2.833828 -0.30598,1.82033 -0.51793,2.123615 -1.15141,3.537866 -0.55351,0.885509 0.42565,1.9858 0.21322,2.85645 -0.21925,0.898603 -0.63062,1.739124 -0.94592,2.608686 -0.8373,1.238996 -0.36915,1.45555 -0.24855,2.453609 0.0732,0.605685 0.105,1.215655 0.15751,1.823482 0.0346,2.819143 -0.0991,5.636297 -0.0708,8.455435 0.0227,1.761492 0.0121,3.523146 0.008,5.284711 0.001,3.118514 0.001,6.237028 0.001,9.355542 -3.3e-4,3.796802 -2e-4,7.593604 -1.3e-4,11.390406 0.0226,1.338332 -0.11491,1.258748 -1.30216,3.072276 -0.16326,0.249377 -0.4814,0.362404 -0.66679,0.595795 -0.12332,0.155249 0.31761,-0.237419 0.47641,-0.356129 0.0535,-0.137534 0.0624,-0.302323 0.16042,-0.412602 0.036,-0.04049 0.074,0.0871 0.0812,0.140801 0.0786,0.586361 0.22512,1.176793 0.17448,1.766231 -0.16009,1.863362 -0.93957,3.4483 -1.37198,5.223723 -1.23304,2.061538 -1.64351,4.355839 -2.09196,6.716311 0.83948,-1.150461 -1.5294,1.747123 -2.15797,2.718411 -0.0554,0.08558 0.62081,-0.158327 0.68085,-0.285559 0.37238,-0.789058 0.38587,-0.888507 0.51925,-1.448163 -1.0992,4.651188 -1.71202,9.367133 -2.85176,14.017673 -0.14354,0.81196 -0.33411,1.61699 -0.43063,2.43586 -0.077,0.65371 -0.005,1.31979 -0.089,1.97269 -0.34975,2.73226 -0.98696,4.57093 -0.9035,7.40435 -1.10218,4.70517 -1.6662,9.4842 -2.83407,14.17804 -0.14845,0.75218 -0.29691,1.50436 -0.44536,2.25655 -0.0284,0.5807 0.009,1.16835 -0.0852,1.74212 -0.18678,1.14105 -0.68882,2.21688 -0.86038,3.36032 -0.13189,0.87903 -0.0638,1.82892 -0.0366,2.71068 0.59144,2.11312 -1.01379,3.98513 -1.17363,6.00422 -0.0747,0.94353 0.0923,1.89074 0.14755,2.83561 -0.14854,0.97343 -0.29709,1.94686 -0.44563,2.92029 -0.15777,0.80463 -0.34661,1.6038 -0.4733,2.41391 -0.10697,0.68401 -0.0814,1.3877 -0.22707,2.06454 -0.33514,1.55756 -1.01169,2.87148 -1.1427,4.46341 0.2438,1.40013 0.43823,2.79804 0.29962,4.21826 -0.11086,0.22131 0.0764,0.50554 -0.0192,0.72908 -1.09931,2.5714 -1.43838,2.12573 -1.30952,4.54294 0.26042,3.93862 -1.24398,7.78742 -2.06746,11.59397 -0.25732,1.55334 -1.31605,3.0879 -1.22368,4.71882 0.005,0.0843 0.0679,0.15465 0.10184,0.23197 0.0567,0.44241 0.22644,0.88475 0.1702,1.32722 -0.10265,0.80758 -0.42568,1.57153 -0.63852,2.35729 -0.2291,0.36995 -0.43702,0.75388 -0.68731,1.10984 -1.29876,1.84711 0.40721,-0.5103 0.0562,-1.21343 -0.25746,-0.51566 -1.22932,-1.91989 -1.05374,-1.37092 0.27369,0.85573 0.9064,1.55148 1.3596,2.32722 0.11535,0.85011 -0.007,1.70108 -0.0496,2.54926 -0.002,0.0373 0.0342,-0.0743 0.0224,-0.1097 -0.20506,-0.61855 -0.44525,-1.22488 -0.66788,-1.83732 0.41898,0.48491 0.9847,0.8746 1.25696,1.45474 1.45784,3.10647 0.51677,8.16473 0.4175,11.57195 0.43625,3.32033 -1.60755,6.21122 -1.14019,9.49592 0.29116,1.56504 0.20646,3.15155 0.12386,4.72925 0.0232,1.18589 0.0236,2.37186 0.0212,3.55794 -0.005,3.38927 -0.002,6.77854 -0.002,10.16781 -1.1e-4,3.17794 -3.4e-4,6.35588 -2.8e-4,9.53382 7e-5,1.4179 5e-5,2.8358 3e-5,4.2537 0,0.8939 10e-6,1.78781 0,2.68171 0,3.45795 0,6.9159 0,10.37385 0,1.27928 0,2.55855 0,3.83783 0.032,1.50743 -0.17449,0.84118 -1.50622,3.13782 -0.12178,0.21001 -0.50437,1.08792 0.17413,-0.16948 0.25505,2.45068 0.45517,4.92167 0.25613,7.3839 -0.0481,1.81928 0.21688,0.80318 -3.53473,3.01216 -0.1892,0.1114 -0.8445,-0.0143 -0.64878,-0.11384 3.07146,-1.56168 2.07943,0.17037 2.86578,-1.60868 -0.0368,-0.28065 -0.30113,-1.05105 -0.11038,-0.84193 0.59957,0.65731 0.41786,2.37368 0.33127,3.14938 -3.62989,1.58767 -7.11619,2.23518 -1.86887,2.1807 0.25392,-0.003 0.42614,-0.27858 0.654,-0.39066 -0.15058,-0.35783 -0.58901,-1.43663 -0.45175,-1.07349 0.46358,1.22639 1.16256,3.09909 0.60223,3.15607 -5.17324,0.52605 -4.89112,1.39323 -5.31035,-0.56043 0.0789,-0.57259 0.15788,-1.14519 0.23682,-1.71779 0,0 4.94945,1.97349 4.94945,1.97349 l 0,0 c 0.0164,-0.41567 0.0327,-0.83133 0.0491,-1.247 -0.008,-0.0311 -0.0166,-0.0622 -0.0249,-0.0934 -1.69184,0.12579 -3.38368,0.25159 -5.07553,0.37738 -0.52418,0.0989 0.61655,1.86341 0.49709,1.54346 -0.18098,-0.48471 -0.47336,-0.92018 -0.71003,-1.38026 -0.16185,-1.23042 -0.41104,-3.91473 1.07457,-4.59699 1.14088,-0.52394 3.66154,-1.94976 3.70163,-0.69497 0.0446,1.39515 -4.06088,4.13474 -3.6335,2.08173 0.20717,-1.90325 0.27693,1.58191 -0.23909,-1.90802 0.1159,-0.60235 -0.0744,-1.36197 0.34772,-1.80706 0.81246,-0.85676 2.00079,-1.26226 3.05922,-1.78558 0.12168,-0.0602 0.48188,-0.0333 0.40025,0.0751 -0.73844,0.98111 -1.6049,1.86451 -2.496,2.70938 -0.21938,0.20801 0.35974,-1.43733 0.0269,-0.90657 0.23982,-2.30259 -0.13601,-4.62169 -0.2767,-6.91612 0.1047,-0.64264 0.13462,-1.30203 0.31412,-1.92791 0.24035,-0.83806 2.45508,-4.03904 1.01797,-0.3991 -0.0785,0.19884 0.0211,-0.53843 0,-0.64133 0,-1.27928 0,-2.55855 0,-3.83783 0,-3.45795 0,-6.9159 0,-10.37385 10e-6,-0.89393 0,-1.78786 0,-2.68178 2e-5,-1.41784 4e-5,-2.83568 -3e-5,-4.25352 -6e-5,-3.17768 1.7e-4,-6.35535 2.8e-4,-9.53302 -5.8e-4,-3.39316 -0.003,-6.78632 0.002,-10.17948 0.003,-1.27548 -0.009,-2.55064 -0.0139,-3.82597 0.067,-1.27782 0.16658,-2.56051 -0.0946,-3.82761 -0.18267,-1.75161 -0.1781,-3.31974 0.23058,-5.05459 0.18589,-0.7891 0.78547,-2.136 0.87449,-2.92959 0.0852,-0.75955 6.3e-4,-1.52862 9.4e-4,-2.29293 0.0308,-1.01879 0.0213,-7.93018 0.73829,-8.4069 -1.79109,-2.60647 -1.86559,-2.0242 -1.65139,-4.21147 0.40429,0.47388 1.64367,1.87159 1.21288,1.42166 -1.86281,-1.94559 -2.13161,-3.12698 -0.46848,-5.35355 0.0647,0.18247 0.1884,0.74092 0.19411,0.54741 0.0277,-0.93838 -0.31274,-1.86348 -0.28529,-2.80186 0.0356,-1.21525 0.35406,-2.2479 0.70199,-3.40757 0.19266,-0.64215 0.41397,-1.27534 0.62095,-1.91301 0.16771,-0.72733 0.33543,-1.45467 0.50314,-2.182 0.15436,-0.42788 0.35587,-0.84159 0.4631,-1.28364 0.31462,-1.29708 0.27076,-2.66788 0.76093,-3.93111 0.0966,-0.37958 0.32396,-0.73059 0.35123,-1.12132 0.0443,-0.63421 -0.0935,-1.26807 -0.14022,-1.90211 0.0481,-1.90902 -0.12275,-2.47022 0.56675,-4.20275 1.54803,-3.88985 0.46075,1.84686 0.79757,-1.69149 0.1783,-1.40741 -0.49994,-2.80722 -0.29848,-4.22788 0.23465,-1.71585 0.15514,-1.70297 0.7081,-3.38339 0.11924,-0.36235 0.35584,-0.68589 0.43222,-1.05963 0.43785,-2.14258 0.43317,-4.3983 1.11958,-6.50322 -0.0798,-1.54622 -0.2143,-2.77671 -0.0205,-4.31862 0.0843,-0.67078 0.5274,-2.12498 0.81173,-2.76871 0.0841,-0.19033 0.31945,-0.31435 0.3438,-0.52099 0.0553,-0.46964 -0.0772,-0.94263 -0.1158,-1.41395 -0.0228,-1.75472 -0.0988,-2.29066 0.19283,-4.10465 0.13289,-0.82659 0.5881,-1.58037 0.71347,-2.40812 1.30964,-8.64661 -1.10595,3.95465 0.68306,-4.97304 1.35484,-5.24575 -0.0459,0.51152 1.10577,-5.47641 0.12583,-0.65426 0.36957,-1.28297 0.48336,-1.93943 0.30991,-1.78784 0.25141,-3.67388 1.08315,-5.34646 -0.0249,-1.80896 -0.0871,-2.18603 0.16129,-4.10542 0.16152,-1.24823 0.59201,-2.45205 0.7492,-3.70083 0.95832,-7.61334 -0.78167,2.6021 0.66726,-5.39386 0.60563,-2.42539 1.18655,-4.90408 1.60456,-7.369426 0.20167,-1.189403 0.27137,-3.739966 0.94841,-4.924011 0.11563,-0.202207 0.17121,0.43326 0.25681,0.64989 -0.16485,-1.291349 -0.13764,-2.538512 0.95055,-3.472424 0.42266,-0.362733 1.38558,-1.500891 1.37871,-0.943965 -0.0119,0.968361 -0.69744,1.878431 -1.39848,2.546573 -0.29531,0.281462 0.007,-0.815894 0.0106,-1.223841 0.26013,-1.322689 0.66221,-2.592092 0.98801,-3.893669 0.26641,-1.064344 0.27103,-2.346164 1.17442,-3.135489 0.31823,-1.196765 0.36878,-1.561809 0.8455,-2.688467 0.10707,-0.253041 0.33949,-0.459666 0.38011,-0.731407 0.18826,-1.259255 -0.71175,-2.538794 -0.11671,-3.792761 0.33642,-0.607108 0.63071,-1.239546 1.00925,-1.821324 0.93255,-1.433241 -0.0207,2.221605 0.16245,0.330526 -7e-5,-3.79694 -2e-4,-7.59388 1.3e-4,-11.39082 1.8e-4,-3.122185 -1.2e-4,-6.24437 -0.001,-9.366554 0.004,-1.740338 0.0143,-3.480764 -0.008,-5.22103 -0.0264,-2.735125 0.0871,-5.468266 0.0793,-8.203321 0.0107,-0.931571 -0.31951,-1.686232 -0.35,-2.621561 -0.0575,-1.764939 0.35914,-3.411764 1.31632,-4.899212 0.0355,0.339153 0.0678,0.678651 0.1064,1.017458 0.01,0.08633 -0.005,-0.174364 -0.02,-0.25991 -0.0514,-0.288432 -0.14082,-0.569983 -0.17965,-0.860377 -0.20959,-1.567739 -0.16575,-3.112005 0.40983,-4.606396 0.15312,-0.339775 0.21009,-0.742271 0.45935,-1.019325 0.0759,-0.08432 0.23872,0.338945 0.25392,0.22654 0.0544,-0.402492 -0.1038,-0.806678 -0.12058,-1.212488 -0.0552,-1.334634 0.0947,-2.616203 0.63879,-3.847857 0.68917,-1.49362 -0.01,0.210145 0.49426,-2.715622 0.141,-0.818777 0.84103,-2.798913 1.01585,-3.53166 1.68986,-7.0829906 -0.69292,1.70739 1.06012,-4.592949 0.43413,-2.1824047 0.9513,-4.3702037 1.72537,-6.4644525 0.11637,-0.314858 0.36728,-0.5696191 0.47718,-0.8867966 2.24352,-6.475072 -0.8197,1.390202 0.9905,-3.1700547 0.73899,-4.0938505 1.96796,-8.1360724 3.74363,-11.8931252 0.56678,-1.701913 0.247,-0.610672 0.78135,-3.3207 0.1104,-0.36035 0.36612,-0.659082 0.56148,-0.981375 1.48798,-2.45473 3.30536,-4.5088 5.74798,-6.089028 0,0 3.19704,4.262711 3.19704,4.262711 z"
       inkscape:connector-curvature="0"
       inkscape:label="#path2991" />
  </g>
</svg>
