<?xml version="1.0" encoding="UTF-8" standalone="no"?>
<!-- Created with Inkscape (http://www.inkscape.org/) -->

<svg
   xmlns:dc="http://purl.org/dc/elements/1.1/"
   xmlns:cc="http://creativecommons.org/ns#"
   xmlns:rdf="http://www.w3.org/1999/02/22-rdf-syntax-ns#"
   xmlns:svg="http://www.w3.org/2000/svg"
   xmlns="http://www.w3.org/2000/svg"
   xmlns:xlink="http://www.w3.org/1999/xlink"
   xmlns:sodipodi="http://sodipodi.sourceforge.net/DTD/sodipodi-0.dtd"
   xmlns:inkscape="http://www.inkscape.org/namespaces/inkscape"
   id="svg2"
   version="1.1"
   inkscape:version="0.48.4 r9939"
   width="879"
   height="1490"
   sodipodi:docname="46693-943.svg"
   inkscape:export-filename="/tmp/brokenInterface/data-analysis/data/display-damages-png/46693-943.png"
   inkscape:export-xdpi="107.76"
   inkscape:export-ydpi="107.76">
  <metadata
     id="metadata8">
    <rdf:RDF>
      <cc:Work
         rdf:about="">
        <dc:format>image/svg+xml</dc:format>
        <dc:type
           rdf:resource="http://purl.org/dc/dcmitype/StillImage" />
        <dc:title />
      </cc:Work>
    </rdf:RDF>
  </metadata>
  <defs
     id="defs6" />
  <sodipodi:namedview
     pagecolor="#ffffff"
     bordercolor="#666666"
     borderopacity="1"
     objecttolerance="10"
     gridtolerance="10"
     guidetolerance="10"
     inkscape:pageopacity="0"
     inkscape:pageshadow="2"
     inkscape:window-width="1280"
     inkscape:window-height="732"
     id="namedview4"
     showgrid="false"
     inkscape:zoom="1.03"
     inkscape:cx="511.43158"
     inkscape:cy="1017.0432"
     inkscape:window-x="-8"
     inkscape:window-y="-8"
     inkscape:window-maximized="1"
     inkscape:current-layer="g1" />
  <image
     width="879"
     height="1490"
     xlink:href="file:///tmp/broken-interfaces/phone_cropped_display/46693-943.png"
     id="image10"
     x="0"
     y="0" />
  <g
     inkscape:groupmode="layer"
     id="layer1"
     inkscape:label="Layer">
    <g
       id="g0"
       inkscape:label="#g3189">
      <path
         inkscape:connector-curvature="0"
         d="m 751.95799,1494.81 c 1.22643,-2.1922 2.69871,-4.2064 4.15651,-6.2444 1.5423,-2.5237 3.32492,-4.8836 5.01832,-7.3051 1.01824,-1.7295 2.20673,-3.3869 2.92637,-5.2718 0.75658,-1.3615 1.27078,-2.8293 1.85078,-4.2704 0.55653,-1.4012 1.29038,-2.7421 2.09707,-4.0125 0.72812,-0.8677 1.50537,-1.6756 2.25692,-2.5106 0.8316,-1.1255 1.97008,-1.9821 3.00298,-2.9144 0.92541,-0.9629 1.85745,-1.92 2.84882,-2.827 1.41941,-1.1683 2.83694,-2.3357 4.25682,-3.5095 1.36664,-1.3569 2.66182,-2.7712 4.25855,-3.8612 0.85213,-0.7204 1.78661,-1.3011 2.65458,-1.9634 1.03961,-0.5566 1.96164,-1.2371 2.90453,-1.9374 1.19484,-0.9871 2.49278,-1.8582 3.66916,-2.8626 0.89219,-0.72 1.92004,-1.2325 2.82108,-1.9356 0.88675,-0.5373 1.64064,-1.2048 2.44903,-1.853 1.50617,-1.1502 3.14911,-2.0926 4.6375,-3.2706 1.72434,-1.2807 3.56052,-2.4201 5.24213,-3.755 1.08017,-0.8308 2.12958,-1.6909 3.22951,-2.4936 0.82537,-0.6651 1.71267,-1.201 2.47325,-1.9431 0.90962,-0.7529 1.87867,-1.4234 2.82776,-2.1312 1.3329,-1.0752 2.61117,-2.1853 3.82057,-3.3995 1.0259,-1.2247 2.23208,-2.1954 3.53826,-3.097 1.31243,-0.9142 2.54884,-1.9169 3.93917,-2.7124 1.19399,-0.7747 2.42517,-1.4779 3.59926,-2.2851 0.98873,-0.4827 1.74386,-0.9479 2.6307,-1.6076 0.96929,-0.7008 1.80361,-1.5532 2.74829,-2.284 0.84296,-0.5969 1.85872,-1.3882 2.54159,-1.9546 1.60645,-1.6794 2.96849,-1.7294 4.97729,-0.7827 1.21746,0.6572 1.72596,1.927 2.5337,2.9564 0.67271,1.1225 1.38444,2.218 1.91794,3.4162 0.73982,0.583 1.15202,1.5558 1.48492,2.4151 0.46176,0.5386 0.93185,1.7437 1.17207,2.6342 0.23091,0.9273 0.25921,1.8867 0.27068,2.8373 0.23326,-0.2493 0.78646,1.8865 0.864,2.2217 0.58021,0.7711 0.68748,1.8661 1.12288,2.7399 0.58879,0.9154 0.66896,2.045 1.24242,2.9491 0.4364,1.1114 1.16915,2.0298 1.81382,3.0189 0.9096,1.2492 1.8768,2.4251 2.90824,3.5703 0.80181,0.9811 1.70564,1.7619 2.39756,2.8407 0.58994,0.6378 1.10966,1.3238 1.62489,2.0165 0.76459,1.0431 1.44619,2.1125 1.96974,3.2985 0.25944,0.8806 0.81897,1.6195 1.18958,2.4795 0.58957,0.7034 0.97359,1.5308 1.27523,2.3905 0.70862,2.3707 0.32885,1.1297 -4.15992,1.0112 0,0 4.49597,0.037 4.49597,0.037 l 0,0 c -5.00341,0.9484 -4.00441,2.2479 -4.57271,0.4316 -0.26571,-0.7682 -0.76915,-1.3584 -1.15605,-2.0818 -0.36583,-0.8332 -0.92923,-1.5669 -1.18078,-2.4422 -0.40627,-0.906 -0.93364,-1.7051 -1.52099,-2.5067 -0.56258,-0.8722 -1.26897,-1.4961 -1.86907,-2.4012 -0.47141,-0.7215 -1.32917,-1.2959 -1.85522,-2.0564 -1.1914,-1.3342 -2.31931,-2.6962 -3.35302,-4.1604 -0.64025,-1.0408 -1.43545,-1.9915 -1.87559,-3.1487 -0.64383,-1.1141 -0.93802,-2.3348 -1.51837,-3.478 -0.47546,-1.1876 -0.84197,-2.4111 -1.37875,-3.5774 -0.17097,-1.0801 -0.93516,-1.9663 -0.95342,-3.0946 -0.008,-0.5846 -8e-4,-1.1801 -0.12648,-1.7532 -0.21102,-0.8498 -0.70676,-1.5783 -1.08953,-2.3633 -0.23142,-0.6319 -0.98602,-1.3155 -1.33828,-2.0067 -0.38086,-0.8697 -0.92769,-1.635 -1.35832,-2.4806 -0.51676,-0.6717 -0.82756,-1.5059 -1.49222,-1.9941 1.08088,0.2663 1.87894,-0.7747 0.84474,0.1091 -0.96425,0.9372 -2.08091,1.7116 -3.14785,2.526 -1.00135,0.695 -1.79558,1.6621 -2.82647,2.3277 -0.85547,0.5988 -1.72249,1.2176 -2.67747,1.6417 -1.29212,0.912 -2.66072,1.6899 -3.98807,2.5468 -1.2919,0.6676 -2.35378,1.6984 -3.57911,2.4763 -1.08179,0.7352 -2.04126,1.5305 -2.87019,2.5645 -1.36081,1.3783 -2.82055,2.6232 -4.34045,3.8207 -0.78341,0.5859 -1.62525,1.129 -2.3747,1.731 -0.91225,0.8984 -1.95265,1.5925 -2.96493,2.3659 -1.05726,0.7762 -2.07349,1.6047 -3.0922,2.4284 -1.69775,1.3179 -3.48968,2.5149 -5.24158,3.7613 -1.49859,1.161 -3.10859,2.1445 -4.64734,3.2428 -0.82928,0.6293 -1.6311,1.3129 -2.47494,1.8578 -0.86844,0.6731 -1.81458,1.2248 -2.70539,1.8669 -1.27134,1.0302 -2.58005,2.0172 -3.87703,3.0189 -0.93811,0.675 -1.8571,1.374 -2.87729,1.9042 -0.97397,0.7006 -1.9401,1.3847 -2.87692,2.1367 -1.51435,0.8887 -2.48602,2.5025 -3.85025,3.5847 -1.36178,1.1146 -2.72251,2.2259 -4.08709,3.3278 -1.00196,0.9248 -1.95091,1.8878 -2.889,2.8723 -0.9423,0.8359 -1.97361,1.6029 -2.7236,2.6247 -0.63706,0.6176 -1.1701,1.3475 -1.81723,1.961 -0.75518,0.8676 -1.11735,2.1809 -1.64013,3.1901 -0.58287,1.4199 -1.07739,2.8816 -1.82917,4.2245 -0.88413,2.2033 -2.14435,4.2154 -3.39407,6.2273 -1.70055,2.4369 -3.48364,4.8151 -5.0576,7.3383 -1.47688,2.0666 -2.92722,4.1317 -4.24964,6.3042 0,0 -3.60675,-2.7051 -3.60675,-2.7051 z"
         id="path3013"
         style="fill:#de2d26;fill-opacity:1;fill-rule:nonzero;stroke:none" />
      <path
         inkscape:connector-curvature="0"
         d="m 837.76418,1492.6352 c 1.06346,-2.2366 2.27729,-4.3865 3.54691,-6.5094 0.85007,-1.4105 1.55049,-2.9014 2.35683,-4.3344 0.65825,-1.5191 1.5214,-2.9041 2.4455,-4.2733 0.82915,-1.5062 1.77207,-2.9585 2.78976,-4.3463 0.97355,-1.3839 1.94237,-2.7796 2.95955,-4.135 0.78568,-1.227 1.63524,-2.422 2.49709,-3.6002 0.92509,-1.2287 1.98837,-2.3425 3.06104,-3.4413 1.43856,-1.5324 2.98926,-2.948 4.60318,-4.292 1.62091,-1.2952 3.20902,-2.6306 4.73691,-4.0345 1.45496,-1.2293 2.98359,-2.3674 4.46113,-3.5702 1.47959,-0.9815 2.77492,-2.1954 4.19435,-3.2563 0.97694,-0.7524 1.94599,-1.4797 3.0025,-2.1175 0.86495,-0.8047 2.25993,-1.1458 3.05658,-1.9841 0.18743,-0.1807 0.35972,-0.3764 0.50274,-0.5937 0,0 3.79985,2.3628 3.79985,2.3628 l 0,0 c -0.42562,0.6774 -0.94294,1.2878 -1.55945,1.8018 -1.13186,0.8123 -2.3594,1.4834 -3.50058,2.2878 -0.92085,0.538 -1.73699,1.1918 -2.58825,1.8496 -1.36843,1.0376 -2.62271,2.2185 -4.05878,3.1661 -1.41084,1.1382 -2.86075,2.227 -4.24899,3.3906 -1.5859,1.4526 -3.21246,2.8597 -4.90463,4.188 -1.49556,1.2325 -2.91288,2.5538 -4.26126,3.9464 -0.91614,0.9468 -1.84109,1.8895 -2.64285,2.9379 -0.86195,1.2069 -1.74527,2.4021 -2.53245,3.6568 -1.00587,1.3584 -1.97736,2.7431 -2.94184,4.1283 -0.99457,1.3277 -1.87283,2.7446 -2.68578,4.188 -0.87015,1.2808 -1.65615,2.5778 -2.27862,4.0036 -0.86627,1.4144 -1.48221,2.9822 -2.36283,4.3929 -1.26366,2.1325 -2.44305,4.3044 -3.57536,6.5109 0,0 -3.87225,-2.3233 -3.87225,-2.3233 z"
         id="path3017"
         style="fill:#de2d26;fill-opacity:1;fill-rule:nonzero;stroke:none" />
      <path
         inkscape:connector-curvature="0"
         d="m 795.66008,1500.9356 c -0.47743,-2.4034 -0.87813,-4.8074 -0.56807,-7.2519 0.17389,-1.7963 0.97687,-3.337 1.89311,-4.8512 1.08346,-1.6951 2.08831,-3.4344 3.14705,-5.1452 0.66956,-1.1163 1.28867,-2.2538 1.90544,-3.401 0.53705,-1.3051 1.11762,-2.6005 1.76576,-3.8565 0.48486,-1.4654 1.34289,-2.7307 2.11632,-4.0473 0.80164,-1.3414 1.56892,-2.7095 2.56056,-3.9205 0.84022,-1.1068 1.67957,-2.2259 2.55563,-3.3096 1.18591,-1.6953 2.31845,-3.4237 3.47096,-5.142 1.00107,-1.5141 2.04484,-2.9895 3.07964,-4.4807 0.69236,-0.8331 1.19577,-1.7491 1.73016,-2.6808 0.79964,-1.1964 1.59164,-2.4003 2.2724,-3.6705 0.69941,-1.3958 1.53253,-2.7122 2.35204,-4.0374 1.01219,-1.2939 1.97275,-2.6191 3.04303,-3.8672 1.30508,-1.3974 2.74352,-2.6806 4.19734,-3.9236 1.0384,-1.0726 2.24251,-1.9715 3.40202,-2.9085 0.81946,-0.4492 1.4678,-1.1386 2.18148,-1.7148 0.8631,-0.8922 1.83957,-1.639 2.93582,-2.2244 0.0398,-0.234 2.34444,-1.4339 1.8559,-1.3037 1.04408,-0.7534 2.16654,-1.4003 3.33878,-1.9323 1.0796,-0.523 2.00183,-1.2253 2.98432,-1.8985 0.63879,-0.4489 1.2665,-1.2907 2.04297,-1.9726 0.50968,-0.4679 1.32901,-0.9459 1.55763,-1.456 1.29892,-1.7888 2.94975,-2.5926 4.8929,-0.9803 1.14669,1.6003 -0.25763,3.5141 -1.07976,4.8828 -1.25452,1.7689 -2.23961,3.7002 -3.31261,5.5783 -0.50283,0.9048 -1.18677,1.6886 -1.49172,2.6849 -0.1028,-0.159 0.003,0.2989 -0.0584,0.243 -2.86341,-2.5947 -3.96044,-2.2671 -1.83541,-3.057 0.41362,-0.1458 0.83549,-0.2655 1.26104,-0.3704 0.9996,-0.3167 -0.1273,0.1946 1.56882,-0.6819 1.16451,-0.5618 2.34225,-1.0498 3.46307,-1.6989 0.44055,-0.3437 0.97371,-0.6087 1.03621,-1.0468 -0.0485,0.082 -0.0729,0.3066 -0.14551,0.2452 -0.15193,-0.1284 -0.4654,-1.3378 -0.56348,-1.5292 -0.25325,-0.494 -0.55318,-0.9629 -0.81746,-1.4511 -0.49117,-1.1214 -1.45297,-1.8763 -2.10323,-2.8985 -1.00813,-1.8994 -0.75703,-1.1514 3.92199,-1.336 0.13508,-0.01 0.0542,0.2659 0.1,0.3931 0.16339,0.4545 0.3724,0.8914 0.54543,1.3424 1.05004,2.1314 2.51432,4.025 3.74153,6.0575 0.99767,1.333 1.94995,2.6877 2.72502,4.1638 0.85949,1.7591 0.7497,1.4418 -3.6232,2.9097 -0.0709,0.024 -2.58724,-2.4351 -2.78083,-2.6252 -1.5577,-1.6743 -3.05484,-3.3889 -4.37235,-5.2603 0.0224,0.038 0.029,0.1361 0.0672,0.1141 1.25981,-0.7267 2.3974,-1.6706 3.71156,-2.2936 0.18343,-0.087 3.24236,4.2578 3.44401,4.5293 2.33888,3.4153 4.97216,6.6115 7.33397,10.0087 0.0978,0.2922 2.68851,3.5093 2.11719,3.9815 -1.07389,0.8878 -2.55025,1.1232 -3.82537,1.6847 -2.58552,-2.3396 -5.02855,-4.8359 -7.495,-7.3001 -1.44176,-1.4389 -2.87307,-2.8883 -4.29871,-4.3432 -0.30484,-0.3111 -1.18102,-1.3915 -1.64221,-1.6143 2.95816,0.727 0.57652,0.6623 3.33818,-2.3724 0.0257,-0.028 0.13004,0.2625 0.86083,1.2853 0.65162,0.912 0.88216,1.1758 1.59929,2.0762 1.49979,1.9375 3.15825,3.7346 4.73572,5.6045 0.93162,1.1531 1.93488,2.2347 2.79443,3.4481 0.92134,2.3435 0.22967,3.0714 -2.35143,3.9179 -0.65398,0.2144 -2.42135,-0.7882 -2.9525,-1.0085 -2.34372,-1.1261 -4.48875,-2.5992 -6.77791,-3.8291 -2.2571,-1.2313 -3.18204,-1.3398 1.94176,-3.8427 0.0297,-0.014 1.0432,1.0631 1.61668,1.6679 1.5169,1.8904 2.99958,3.8084 4.49396,5.7169 0.32531,0.4172 0.65321,0.8323 0.97744,1.2503 -4.02712,2.4892 -3.40634,2.9437 -5.16121,0.3595 -1.15051,-1.7515 -1.25193,-1.5617 2.4295,-4.0213 0.20536,-0.1372 1.26922,0.876 1.47741,1.0634 0.99238,0.8002 1.76768,1.655 1.85969,1.7352 -1.08744,1.0465 -2.17487,2.0929 -3.26231,3.1394 0,0 2.53653,-3.7106 2.53653,-3.7106 l 0,0 c -0.83427,1.2195 -1.66855,2.439 -2.50283,3.6585 1.25204,1.0554 -1.63202,-1.5028 -1.69608,-1.5333 -0.44475,-0.4563 -0.0568,0.011 0.0555,-0.1367 2.74643,-3.603 1.59955,-4.4953 2.81147,-2.7372 2.09966,3.0295 2.6393,1.885 -1.98659,5.0357 -0.36331,-0.422 -0.71548,-0.8533 -1.06883,-1.2836 -1.45561,-1.7878 -2.87546,-3.6032 -4.27946,-5.4317 -0.25884,-0.2802 -0.5172,-0.5608 -0.77652,-0.8406 -0.18242,-0.1968 -0.66021,-0.345 -0.5487,-0.5891 2.09638,-4.5892 1.20997,-4.4405 3.18577,-3.5018 2.20551,1.1359 4.2724,2.4974 6.46352,3.6554 0.50645,0.2253 1.01887,0.437 1.52426,0.6646 0.0361,0.016 0.13342,0.039 0.10131,0.062 -1.76636,1.2731 -2.81077,1.0555 -1.7525,3.1675 -0.81694,-1.1061 -1.7566,-2.0969 -2.6276,-3.157 -1.59736,-1.9122 -3.31283,-3.7238 -4.84098,-5.6971 -1.83109,-2.338 -4.73807,-4.858 -1.50489,-7.8268 0.465,-0.427 1.24401,0.2158 1.86602,0.3237 2.46695,1.8165 4.34772,4.3524 6.63506,6.3761 2.31507,2.3232 4.62128,4.6551 6.92409,6.9904 -1.11493,0.6825 -2.42674,1.1169 -3.34481,2.0475 -0.24938,0.2528 0.26639,0.6645 0.32365,1.015 0.0209,0.128 -0.14006,-0.2184 -0.21122,-0.3269 -0.48529,-0.7394 -0.9868,-1.4682 -1.49572,-2.1916 -2.38927,-3.3417 -5.01147,-6.5098 -7.30863,-9.9194 -0.98859,-1.3635 -1.95569,-2.74 -2.9472,-4.101 -0.26498,-0.3637 -1.01901,-0.7131 -0.78555,-1.0978 0.78102,-1.2871 2.04876,-2.2526 3.31392,-3.0685 0.22409,-0.1445 0.37559,0.3786 0.56339,0.5679 1.20547,1.6384 2.54527,3.1537 3.91922,4.6515 0.79279,0.7916 2.35056,2.3122 2.34921,2.3143 -2.77603,4.225 -2.33421,4.2472 -3.11008,2.7608 -0.76915,-1.3962 -1.73765,-2.6444 -2.66372,-3.938 -1.36077,-2.266 -3.03346,-4.3579 -4.07788,-6.8001 -1.41628,-3.7795 -1.79166,-2.883 3.34369,-4.6587 0.10033,-0.035 0.007,0.3793 0.14057,0.2858 0.63393,1.1012 1.88492,1.8292 2.27196,3.119 1.06912,1.9944 2.19433,3.9417 1.80789,6.3003 -0.60338,1.5496 -1.58996,2.6625 -3.02677,3.5128 -1.21852,0.7214 -2.50469,1.2682 -3.77833,1.8762 -0.10643,0.05 -3.445,1.4982 -2.45815,0.9592 -0.26756,0.077 -0.53424,0.1567 -0.79703,0.2488 -0.27773,0.097 -0.54929,0.505 -0.80567,0.3606 -3.32025,-1.8698 -3.59664,-1.274 -3.12257,-3.0946 0.40959,-1.3097 1.11198,-2.4532 1.84332,-3.6068 1.09813,-1.912 2.08017,-3.8965 3.39082,-5.6799 0.39198,-0.6303 0.74231,-1.2986 1.22959,-1.8623 0.17092,-0.1977 0.49761,-0.8391 0.52818,-0.5795 0.4343,3.6872 -0.9412,1.9744 -0.0953,2.966 0.98786,0.6941 1.45182,0.4539 2.52209,0.048 0.0199,-0.01 -0.32575,0.2649 -0.23834,0.1043 -0.64097,1.0713 -1.50753,1.8796 -2.50173,2.6238 -0.84783,0.7322 -1.50163,1.6645 -2.44542,2.2875 -1.21764,0.8465 -2.41501,1.6946 -3.76071,2.3351 -0.80022,0.3003 -1.50793,0.7878 -2.22915,1.2272 -0.90921,0.6584 -1.83872,1.242 -2.75604,1.9044 -0.76756,0.2483 -1.30565,0.9881 -1.88386,1.4946 -0.73871,0.6321 -1.4659,1.3439 -2.36957,1.8895 -1.1287,0.9371 -2.31713,1.8116 -3.33314,2.8746 -1.28267,1.0725 -2.51767,2.2219 -3.68638,3.4126 -0.92076,1.0782 -1.76037,2.2124 -2.64646,3.3152 -0.78304,1.2491 -1.55937,2.5021 -2.21894,3.8247 -0.72297,1.2969 -1.50633,2.5591 -2.35161,3.7783 -0.61086,1.0006 -1.16151,2.0285 -1.8961,2.9497 -1.00817,1.4843 -2.03794,2.943 -3.02133,4.4451 -1.22153,1.8475 -2.45008,3.6862 -3.74532,5.483 -0.89166,1.0819 -1.74761,2.1979 -2.58124,3.3195 -0.856,1.0265 -1.4558,2.2397 -2.15914,3.3727 -0.74488,1.2302 -1.52637,2.4142 -1.98014,3.797 -0.6567,1.2773 -1.23956,2.5901 -1.80794,3.9084 -0.6551,1.235 -1.33046,2.4497 -2.0235,3.6649 -1.05121,1.7003 -2.04766,3.4315 -3.14111,5.1053 -0.60186,0.9878 -1.19788,1.9053 -1.2733,3.1005 -0.27589,1.938 0.26317,3.8551 0.51039,5.7745 0,0 -4.42175,0.8844 -4.42175,0.8844 z"
         id="path3019"
         style="fill:#de2d26;fill-opacity:1;fill-rule:nonzero;stroke:none" />
      <path
         inkscape:connector-curvature="0"
         d="m 806.51366,1492.6352 c 1.44613,-2.4268 3.17493,-4.6591 4.99322,-6.8143 1.46911,-1.5391 2.84062,-3.1314 4.10664,-4.8388 0.83509,-1.3376 2.09904,-2.3578 2.97435,-3.6551 0.97991,-1.1863 2.07984,-2.2758 3.3444,-3.1519 0.6771,-0.6532 1.30363,-1.3274 2.0375,-1.9196 0.70438,-0.6578 1.39209,-1.2936 2.02812,-2.0206 0.7465,-0.9489 1.4791,-1.9129 2.27834,-2.8239 0.67049,-1.1643 1.46211,-2.2528 2.24097,-3.3526 0.84664,-1.3231 1.50896,-2.7478 2.38726,-4.0524 0.55072,-1.2092 1.38331,-2.2457 2.07528,-3.3678 0.78384,-1.3842 1.68474,-2.6894 2.5275,-4.0376 0.87438,-1.5014 1.94714,-2.8532 3.00141,-4.2278 1.06718,-1.3245 2.09657,-2.6778 3.17011,-3.9934 0.95268,-1.1886 1.90827,-2.3808 2.86224,-3.5723 0.81149,-1 1.68551,-1.9463 2.58385,-2.8682 0.80557,-0.9346 1.85152,-1.5805 2.82005,-2.3095 0.78255,-0.523 1.51698,-1.115 2.25486,-1.6986 1.227,-1.0405 2.17514,-0.755 3.63723,-0.4241 0,0 -2.24005,3.8787 -2.24005,3.8787 l 0,0 c 1.9462,0.2379 0.74533,0.4035 1.60281,-0.1184 0.0667,-0.041 -0.1196,0.1003 -0.1794,0.1505 -0.77817,0.6425 -1.56679,1.276 -2.40706,1.8363 -0.79512,0.5614 -1.59538,1.0838 -2.24997,1.8048 -0.78655,0.8266 -1.56644,1.6588 -2.28524,2.5462 -0.96251,1.2317 -1.96667,2.4288 -2.926,3.6584 -1.06753,1.248 -2.00125,2.618 -3.06744,3.8719 -0.96825,1.2466 -1.94493,2.4739 -2.74051,3.8438 -0.84266,1.3697 -1.76786,2.6802 -2.5553,4.0841 -0.74112,1.1409 -1.55553,2.2266 -2.14263,3.463 -0.90081,1.3369 -1.55584,2.8186 -2.4561,4.159 -0.89301,1.2396 -1.72331,2.5098 -2.59022,3.7649 -0.84919,0.8285 -1.43415,1.8972 -2.22931,2.7722 -0.85195,0.9513 -1.77156,1.8016 -2.72297,2.6488 -0.90257,0.2944 -1.3123,1.8303 -2.29129,2.0952 -0.8535,0.2939 -1.41106,1.451 -2.10409,1.9945 -0.949,1.2817 -2.09505,2.4015 -3.00345,3.7174 -1.32146,1.7816 -2.72442,3.4739 -4.2639,5.0745 -1.66091,1.9724 -3.21713,4.0266 -4.59896,6.206 0,0 -3.87225,-2.3233 -3.87225,-2.3233 z"
         id="path3021"
         style="fill:#de2d26;fill-opacity:1;fill-rule:nonzero;stroke:none" />
      <path
         inkscape:connector-curvature="0"
         d="m 878.47793,1447.436 c -2.29194,2.7639 -4.48057,5.61 -6.7819,8.3666 -1.94066,2.5116 -3.59182,5.2255 -5.51081,7.7546 -1.3858,1.958 -2.75611,3.9331 -4.22042,5.8317 -0.81433,1.1875 -1.47774,2.4048 -2.66086,3.2631 -1.97279,1.9289 -3.6779,-2.6064 -2.0087,-4.0821 1.96466,-2.1092 3.908,-4.2603 5.75944,-6.4784 2.06185,-2.5962 4.13922,-5.1807 6.19498,-7.7816 0.0576,-0.098 1.74517,-2.3757 1.84019,-2.2826 3.39152,3.3234 3.47989,2.7376 2.0004,4.4952 -2.443,2.7314 -5.05446,5.3199 -7.68894,7.8684 -1.95284,2.1473 -4.42076,3.8639 -6.25373,6.1188 -0.12681,0.194 -0.55848,0.8799 -0.66886,0.7583 -3.60041,-3.9673 -2.72004,-3.5831 -0.0162,-5.6612 2.48404,-2.0247 4.82018,-4.2231 7.15298,-6.4179 0,0 3.15481,3.3467 3.15481,3.3467 l 0,0 c -2.44652,2.3106 -4.90061,4.6238 -7.55698,6.695 -0.0399,0.03 -2.45247,1.9238 -2.49977,1.8901 -4.09062,-2.912 -3.72082,-2.4352 -3.0883,-3.4259 1.9296,-2.439 4.43649,-4.3803 6.57824,-6.6231 2.54628,-2.4425 5.06773,-4.9248 7.45906,-7.5167 0.25229,-0.2846 0.40796,-1.0053 0.75688,-0.8539 1.3777,0.5978 2.32507,1.9104 3.5798,2.7357 0.0889,0.059 0.2463,-0.3462 0.19356,-0.2538 -0.0835,0.1463 -0.72848,1.0587 -0.76747,1.1128 -0.19792,0.2745 -0.40109,0.5452 -0.60163,0.8179 -2.06993,2.6561 -4.13334,5.3189 -6.24564,7.9415 -2.12298,2.506 -4.30114,4.9789 -6.7144,7.2116 -2.37668,1.54 -1.57759,0.701 -3.03638,-3.357 -0.34982,0.8719 1.36649,-2.3451 1.55835,-2.2955 1.4651,-1.8765 2.77129,-3.8844 4.17065,-5.8117 1.96206,-2.5837 3.59827,-5.3947 5.61402,-7.9393 2.27762,-2.7362 4.4348,-5.5698 6.77751,-8.2515 0,0 3.53017,2.8242 3.53017,2.8242 z"
         id="path3023"
         style="fill:#de2d26;fill-opacity:1;fill-rule:nonzero;stroke:none" />
      <path
         inkscape:connector-curvature="0"
         d="m 883.27588,1465.4681 c -1.42831,0.018 -2.85683,0.01 -4.28509,-0.01 -1.24001,-0.048 -0.66463,0.3469 1.3992,-1.1439 0.1122,-0.081 0.2196,-0.5073 0.15261,-0.3862 -0.21186,0.3831 -0.39225,0.7827 -0.58837,1.1741 -0.26272,0.4279 -0.29933,0.9265 -0.36885,1.4183 -0.25439,1.0857 -0.79038,2.0541 -1.10186,3.12 -0.0497,0.931 -0.29375,1.7705 -0.82532,2.5686 -0.34944,0.5864 -0.7391,1.0317 -1.00686,1.8287 -0.77224,1.37 -1.45721,2.7982 -2.06114,4.2511 -0.43723,1.2953 -1.08483,2.4989 -1.7203,3.7042 -0.90949,1.7042 -1.57193,3.5149 -2.36619,5.2727 -0.78727,1.682 -1.7544,3.2381 -2.76893,4.7871 -0.40684,0.8105 -1.05221,1.5396 -1.32641,2.4159 -0.71049,1.6003 -1.25435,3.2711 -1.83237,4.9246 -0.26771,0.7738 -0.53433,1.5481 -0.7917,2.3254 -0.004,0.025 -0.0163,0.048 -0.0244,0.072 0,0 -4.29575,-1.2257 -4.29575,-1.2257 l 0,0 c 0.015,-0.054 0.0288,-0.1094 0.0451,-0.1636 0.24194,-0.8359 0.51418,-1.6628 0.78828,-2.4886 0.58786,-1.716 1.17849,-3.4418 1.92271,-5.0948 0.47739,-1.1333 1.13309,-2.1477 1.72996,-3.2149 0.87479,-1.3668 1.7319,-2.7136 2.41878,-4.1924 0.82862,-1.862 1.55324,-3.7656 2.52924,-5.5586 0.59537,-1.0704 1.15348,-2.1527 1.52799,-3.3221 0.6179,-1.4466 1.2747,-2.9035 2.07841,-4.2528 0.49238,-1.0803 0.85534,-1.6094 1.44936,-2.6 0.29089,-0.4176 0.54262,-0.8515 -0.0474,0.6137 -0.23733,0.5894 0.39488,-2.5093 0.26077,-1.8883 0.24632,-0.8709 0.54207,-1.7297 0.96781,-2.5306 0.18794,-1.266 0.50065,-2.5023 1.29538,-3.537 -0.82707,2.2493 -0.019,-1.5731 2.56024,-1.3669 1.42826,-0.017 2.85678,-0.027 4.28509,-0.01 0,0 0,4.5085 0,4.5085 z"
         id="path3025"
         style="fill:#de2d26;fill-opacity:1;fill-rule:nonzero;stroke:none" />
      <path
         inkscape:connector-curvature="0"
         d="m 629.4528,440.20774 c -0.0322,-2.54541 -0.0232,-5.09117 -0.0208,-7.63673 -0.002,-1.9345 0.009,-3.86898 0.0215,-5.80343 0.0531,-1.03025 0.042,-1.97204 -0.23496,-2.92461 -0.53682,-1.87752 -0.6952,-3.82879 -0.81265,-5.76913 -0.0696,-1.34227 -0.0727,-2.68641 -0.0762,-4.03004 0.0395,-1.86868 0.0205,-3.70866 -0.29422,-5.55249 -0.34085,-1.73319 -0.58208,-3.48223 -0.73034,-5.2418 -0.0986,-1.36999 -0.0904,-2.74474 -0.10198,-4.11739 -0.007,-2.07119 -0.003,-4.14247 0.009,-6.21364 -0.006,-2.53018 -0.014,-5.06035 -0.0226,-7.59052 -0.003,-2.70899 0.003,-5.418 0.0219,-8.12693 0.0171,-1.53092 0.006,-3.06201 0.002,-4.59298 -0.001,-1.61591 5.7e-4,-3.23186 0.008,-4.84775 5.3e-4,-1.76193 -0.0123,-3.52382 -0.0175,-5.28573 -0.007,-2.3093 0.001,-4.61858 0.006,-6.92787 -0.11719,-1.85666 -0.59583,-3.6846 -0.80603,-5.55044 -0.43912,-3.05847 0.016,-6.10603 0.36618,-9.14456 0.30495,-1.5568 0.35784,-2.97395 -0.0119,-4.49202 -0.51612,-2.20341 -0.64179,-4.4728 -0.48801,-6.72288 0.3129,-2.22851 0.63119,-4.45493 0.81584,-6.69845 0.14064,-2.15288 0.12013,-4.31211 0.11709,-6.46835 0.005,-3.19761 0.52528,-6.36959 0.80787,-9.55191 0.20227,-2.25485 0.28394,-4.51583 0.31178,-6.7786 0.0262,-2.69843 -0.0767,-5.39182 0.12707,-8.08396 0.26623,-2.77632 0.64687,-5.54049 0.87393,-8.32055 0.005,-1.67236 -0.48783,-3.33632 -0.67963,-5.0175 0.0181,-3.57754 0.37494,-7.14441 0.58175,-10.71498 0.11555,-1.8406 0.20714,-3.68232 0.22468,-5.52657 -0.0784,-2.5666 0.38989,-5.10474 0.66128,-7.64982 0.20434,-1.89574 0.36413,-3.79672 0.44546,-5.70178 0.0314,-1.1793 0.0225,-2.35917 0.0178,-3.53875 -0.007,-1.44351 -0.006,-2.88704 -0.008,-4.33056 -0.007,-1.91008 -0.007,-3.82017 -0.0158,-5.73024 -0.0103,-3.10717 0.51633,-6.18958 0.8092,-9.2793 0.0204,-2.13568 0.54456,-4.35375 0.19629,-6.47915 -0.3602,-1.67668 -0.67061,-3.35699 -0.84922,-5.06327 -0.16985,-2.16454 -0.15805,-4.33837 -0.16429,-6.50806 0.001,-2.30616 -0.002,-4.61236 0.0116,-6.91849 0.009,-2.16965 -7.9e-4,-4.33931 -0.009,-6.50894 -0.008,-2.55769 0.003,-5.11535 0.0106,-7.67302 0.005,-1.20196 0.0217,-2.40394 0.0194,-3.60592 -0.009,-1.87295 -0.0255,-3.74584 -0.0306,-5.6188 0.36277,-2.35888 0.41394,-4.69828 0.26315,-7.07344 -0.11218,-1.26171 -0.18718,-2.52521 -0.21729,-3.79144 -0.16722,-1.63263 0.42501,-3.17954 0.66641,-4.77135 0.61215,-2.4107 1.00841,-4.86275 1.72371,-7.24579 0.41978,-1.39184 0.7315,-2.81632 0.89018,-4.2613 0.093,-0.95673 0.0631,-1.92064 0.0563,-2.88044 0.21103,-1.70131 0.69575,-3.34538 0.92185,-5.04632 0.16801,-1.16211 0.22528,-1.80014 -0.0339,-2.62457 -0.69025,-2.47784 -0.10979,-5.09478 0.30755,-7.57064 0.48194,-3.06286 1.24846,-6.07044 1.76424,-9.12798 0.2705,-1.67712 0.35503,-3.37209 0.38412,-5.06786 -0.0377,-2.69862 0.77884,-5.30519 1.3366,-7.92101 0.43295,-2.18726 0.71825,-4.40217 0.84831,-6.62767 0.0709,-1.36542 0.0576,-2.73376 0.0502,-4.100539 -0.009,-1.889945 -0.0186,-3.779873 -0.0222,-5.669848 -0.003,-2.262739 -0.002,-4.52548 -0.002,-6.788221 0.004,-2.015775 0.0103,-4.031508 5.5e-4,-6.047281 0.0299,-2.991917 0.52755,-5.961027 0.80604,-8.938671 0.17699,-1.823639 0.28681,-3.653312 0.32217,-5.485074 0.11117,-1.269012 -0.0606,-2.494599 -0.17375,-3.741856 -0.0367,-2.307321 0.0616,-4.614616 0.10685,-6.921449 0.0462,-1.705525 0.0551,-3.411561 0.0673,-5.117538 -0.6274,-1.791338 -0.71578,-3.621527 -0.60336,-5.497426 0.15955,-2.95285 0.74019,-5.855325 1.20368,-8.770782 0.28141,-1.854751 0.4443,-3.725259 0.50644,-5.599619 -0.007,-2.445317 0.86009,-4.761336 1.35671,-7.127981 0.87038,-3.255115 1.43609,-6.568858 1.73906,-9.921732 0.17751,-4.3297933 0.54999,-8.6501615 1.03672,-12.9559341 0.55555,-5.3711646 1.17115,-10.7328166 1.78217,-16.0981079 0.36895,-3.251151 0.61402,-6.51457 0.76011,-9.782854 -0.006,-1.048946 0.20295,-3.37114 1.41802,-3.748466 0.71392,-0.221697 1.4792,-0.217426 2.2188,-0.326139 0.22191,0.102472 0.44383,0.204944 0.66574,0.307416 0,0 -2.12947,3.946602 -2.12947,3.946602 l 0,0 c 0.0434,0.0062 0.0868,0.01232 0.13026,0.01848 0.73835,-0.167644 1.68634,0.02002 2.09619,-0.677849 0.1213,-0.206551 0.14439,-0.943064 0.14644,-0.703535 0.003,0.318385 -0.013,1.079553 -0.0176,1.3473 -0.0949,3.386732 -0.3221,6.768722 -0.68552,10.137587 -0.59871,5.3720217 -1.20237,10.7409559 -1.77741,16.1152738 -0.51046,4.2651932 -0.8948,8.5466692 -1.08878,12.8378912 -0.32843,3.536216 -0.88139,7.042103 -1.83306,10.469708 -0.46481,2.092712 -1.25377,4.150691 -1.30742,6.307203 -0.0642,2.057504 -0.20696,4.112977 -0.51401,6.150141 -0.41894,2.793977 -1.00775,5.563868 -1.17781,8.388434 -0.14648,1.800034 0.23063,3.43065 0.58602,5.198608 0.001,1.730718 -0.0143,3.461452 -0.0377,5.191998 -0.0422,2.171838 -0.11722,4.342924 -0.14629,6.514941 0.0343,1.375878 0.33921,2.750606 0.18149,4.142319 -0.0338,1.94282 -0.11374,3.884743 -0.28841,5.82063 -0.25751,2.841427 -0.73473,5.671044 -0.81163,8.520526 -0.01,2.015724 -0.004,4.031409 4e-4,6.047136 2.7e-4,2.261576 8e-4,4.523151 6.4e-4,6.784726 -6e-4,1.887119 -0.007,3.77422 -0.001,5.661321 -5e-5,1.455727 0.0129,2.912117 -0.0506,4.366907 -0.13406,2.46031 -0.40266,4.91369 -0.89713,7.32992 -0.50092,2.32767 -1.27203,4.64348 -1.28731,7.04067 -0.0319,1.91686 -0.11661,3.83424 -0.41219,5.73167 -0.49666,3.07388 -1.23278,6.098 -1.7494,9.16691 -0.31523,1.77431 -0.85918,3.71662 -0.49114,5.50249 0.4353,1.50871 0.43865,2.97386 0.19141,4.52098 -0.20613,1.49505 -0.50095,2.97191 -0.88527,4.43183 -0.004,1.12029 0.007,2.24318 -0.0908,3.36026 -0.17605,1.72213 -0.51947,3.42368 -1.01841,5.08215 -0.64915,2.20619 -0.99482,4.47646 -1.60167,6.69517 -0.23421,1.32428 -0.73549,2.57188 -0.63418,3.91293 0.0333,1.20031 0.0888,2.39871 0.22688,3.59254 0.18624,2.47277 0.19605,4.93412 -0.21992,7.38804 -0.005,1.87296 -0.0214,3.74583 -0.0306,5.61877 -0.002,1.20198 0.0143,2.40396 0.0195,3.60592 0.008,2.5578 0.0183,5.1156 0.0105,7.67342 -0.009,2.17106 -0.0187,4.34212 -0.0141,6.51319 0.009,2.30082 -0.003,4.60165 0.002,6.90248 0.004,2.01861 -0.0228,4.04112 0.11036,6.0563 0.16956,1.67512 0.52975,3.3117 0.85148,4.96215 0.26562,2.4825 0.0178,4.98109 -0.14731,7.46619 -0.26994,2.95187 -0.76807,5.89221 -0.8085,8.8565 -0.009,1.90921 -0.009,3.81845 -0.0145,5.72767 -3.5e-4,1.44161 0.004,2.88322 0.003,4.32483 -3.4e-4,1.23591 0.006,2.47206 -0.0233,3.70772 -0.0589,2.01401 -0.20091,4.02494 -0.40675,6.02924 -0.26008,2.40121 -0.73462,4.78951 -0.68946,7.21004 -0.0226,1.91133 -0.0734,3.82214 -0.17104,5.73128 -0.17636,3.32955 -0.45834,6.65193 -0.62544,9.98147 0.18983,1.95992 0.78206,3.87611 0.67278,5.84975 -0.2073,2.78558 -0.52904,5.56003 -0.83148,8.33652 -0.22473,2.58443 -0.10757,5.1798 -0.1531,7.77203 -0.0293,2.37574 -0.0993,4.75144 -0.29398,7.12026 -0.26271,3.05571 -0.76884,6.09841 -0.802,9.16546 -0.0141,2.27406 -0.0113,4.55065 -0.15981,6.82095 -0.17735,2.24489 -0.46131,4.4763 -0.80001,6.70243 -0.17959,1.75924 -0.0102,3.56069 0.34227,5.29154 0.4913,2.03055 0.51876,4.00423 0.15427,6.0696 -0.30299,2.70851 -0.7435,5.42159 -0.36781,8.14869 0.20153,2.02763 0.73383,4.00093 0.81158,6.03247 0.005,2.30929 0.0133,4.61857 0.006,6.92787 -0.005,1.76191 -0.0181,3.5238 -0.0175,5.28573 0.008,1.61589 0.01,3.23184 0.008,4.84774 -0.004,1.53097 -0.0154,3.06204 0.002,4.59295 0.0192,2.709 0.0254,5.41807 0.0218,8.12713 -0.009,2.5315 -0.0162,5.06299 -0.0259,7.59448 0.008,2.06902 0.006,4.13812 -0.004,6.20713 -0.009,1.23575 -0.034,2.47389 0.0582,3.70738 0.16503,1.64132 0.39293,3.27439 0.71858,4.89242 0.35671,2.09749 0.40508,4.18697 0.3288,6.31078 -0.001,1.25396 3e-4,2.50866 0.084,3.76048 0.0978,1.61891 0.219,3.25023 0.63956,4.8229 0.37547,1.37288 0.47328,2.72496 0.40062,4.14389 0.0127,1.93445 0.0231,3.86893 0.0215,5.80343 0.002,2.54556 0.0114,5.09132 -0.0208,7.63673 0,0 -4.50845,0 -4.50845,0 z"
         id="path3029"
         style="fill:#de2d26;fill-opacity:1;fill-rule:nonzero;stroke:none" />
    </g>
  </g>
  <g
     inkscape:groupmode="layer"
     id="layer2"
     inkscape:label="Layer#1">
    <g
       id="g1"
       inkscape:label="#g3140">
      <path
         inkscape:connector-curvature="0"
         d="m 610.331,1219.7768 c 3.51036,-1.0867 6.91588,-2.4703 10.31196,-3.8661 3.31265,-1.2646 6.63071,-2.5106 10.00406,-3.604 3.07165,-1.1079 6.08873,-2.3457 9.01686,-3.7909 2.69346,-1.2735 5.3754,-2.5693 8.0661,-3.8477 2.34397,-1.3595 4.77948,-2.5538 7.13448,-3.8975 2.12425,-1.2882 4.14959,-2.7226 6.24229,-4.0579 1.16659,-0.6332 2.30565,-1.2786 3.37123,-2.0783 1.75959,-1.001 3.21145,-2.3989 4.72937,-3.7134 1.66911,-1.2945 3.16482,-2.7871 4.77366,-4.1517 2.43175,-1.9422 4.7462,-4.0207 7.03787,-6.1241 1.46145,-1.4763 3.04244,-2.8207 4.5678,-4.2229 1.88902,-1.8536 3.9873,-3.4821 6.0752,-5.1035 2.00223,-1.5342 3.94772,-3.1452 5.97205,-4.6478 1.20123,-1.1079 2.55523,-2.0198 4.03163,-2.7108 1.4136,-0.7851 2.89166,-1.4099 4.28594,-2.2352 2.48883,-1.4359 5.21693,-2.333 7.90332,-3.3087 2.42647,-0.7994 4.75375,-1.8526 7.16851,-2.6861 1.34767,-0.401 2.62138,-1.038 3.92892,-1.5706 1.85179,-0.5351 3.66904,-1.1824 5.48111,-1.8376 0.25264,-0.092 0.50459,-0.185 0.75611,-0.2796 0,0 1.65924,4.157 1.65924,4.157 l 0,0 c -0.27749,0.1161 -0.55598,0.2297 -0.83639,0.3385 -1.76247,0.6818 -3.53925,1.35 -5.37193,1.818 -1.36864,0.5424 -2.70954,1.1703 -4.10463,1.6295 -2.39022,0.8763 -4.70473,1.9418 -7.12556,2.7342 -2.43239,0.8751 -4.91549,1.6462 -7.18266,2.9165 -1.54395,0.8867 -3.15831,1.6048 -4.72175,2.4505 -1.21179,0.4862 -2.20834,1.3774 -3.18791,2.2209 -2.00466,1.4668 -3.85503,3.1539 -5.85775,4.629 -1.99824,1.5394 -4.0202,3.0702 -5.83392,4.8269 -1.5285,1.3808 -3.04608,2.7701 -4.50924,4.2267 -2.32902,2.1762 -4.71311,4.2928 -7.21174,6.274 -1.60935,1.325 -3.09147,2.797 -4.73581,4.0823 -1.61203,1.3916 -3.1484,2.8914 -5.02317,3.9403 -1.14844,0.8227 -2.35854,1.5327 -3.58395,2.2232 -2.14949,1.4106 -4.23522,2.9135 -6.44155,4.2384 -2.45546,1.3854 -4.99381,2.6115 -7.43519,4.0186 -2.67105,1.2804 -5.31909,2.609 -8.00168,3.866 -3.1321,1.5282 -6.35172,2.852 -9.63583,4.0197 -3.26293,1.0454 -6.44823,2.3064 -9.6545,3.5113 -3.40814,1.4047 -6.82637,2.8253 -10.38689,3.802 0,0 -1.67566,-4.1891 -1.67566,-4.1891 z"
         id="path3044"
         style="fill:#fc9272;fill-opacity:1;fill-rule:nonzero;stroke:none" />
      <path
         inkscape:connector-curvature="0"
         d="m 664.09569,835.5226 c -0.10649,2.34419 0.10578,4.63473 0.48908,6.94168 0.20083,1.81823 0.64041,3.57044 1.04971,5.34758 0.48693,1.95798 0.8449,3.98718 1.50199,5.89819 0.64559,2.05502 1.41854,4.05718 1.92818,6.15315 0.40091,2.01376 1.06158,3.94486 1.39986,5.9768 0.129,2.14865 0.4394,4.24556 0.81923,6.36131 0.21917,1.92957 0.64245,3.80171 1.05837,5.69444 0.42195,2.17173 0.51334,4.37 0.94315,6.53884 0.57292,3.28431 0.7582,6.61549 1.14148,9.92545 0.43932,4.22691 1.09907,8.42972 1.89466,12.60342 0.93345,3.74974 1.81273,7.51407 2.78722,11.25291 0.64209,3.11914 1.45611,6.17574 2.49446,9.18401 0.63636,2.29117 1.41257,4.54298 2.00779,6.84617 0.30449,1.39181 0.94091,2.66861 1.31214,4.04601 0.43031,1.82784 0.91221,3.62832 1.18322,5.49401 0.16813,1.82836 0.75449,3.58119 1.09034,5.38466 0.69982,1.79348 0.88009,3.71655 1.3395,5.56842 0.54625,2.00232 0.90815,4.04158 1.10753,6.10554 0.41422,1.26779 0.81398,2.51181 1.02442,3.83329 0.0844,1.64621 0.57808,3.21649 0.86934,4.83407 0.18225,2.17632 0.52945,4.30489 0.93127,6.44923 0.42981,2.94954 0.56305,5.91966 0.94877,8.87528 0.30545,3.3763 1.01359,6.69037 1.43954,10.05062 0.49567,3.77701 0.91242,7.57002 1.45051,11.34202 0.4337,3.9951 1.22768,7.9213 2.12533,11.8326 0.45191,2.8884 1.28803,5.6861 1.93305,8.5309 0.36776,1.5413 0.79393,3.1086 1.37024,4.5889 0.60625,1.8714 1.13551,3.762 1.71651,5.6433 0.70069,1.6073 1.17131,3.2944 1.85449,4.907 0.69619,1.7097 1.07147,3.5452 1.79182,5.2424 0.79566,1.8852 1.44281,3.8263 2.18284,5.7323 0.82514,1.4672 0.95656,3.2007 1.57005,4.7313 0.69922,1.9169 0.98231,3.9481 1.41314,5.9361 0.5312,2.369 0.61174,4.7947 1.1501,7.1592 0.54662,2.07 0.74135,4.1982 0.85228,6.3285 0.41305,2.4015 0.75632,4.8102 0.97922,7.2369 -0.0381,1.5305 0.23389,2.9163 0.62691,4.3699 0.41406,2.2956 0.82018,4.5958 1.1583,6.9062 0.73913,2.7793 0.9372,5.6801 1.60976,8.4663 0.4908,1.7246 0.8728,3.4686 1.38111,5.1867 0.75459,2.4735 1.34279,4.9739 1.73492,7.5306 0.44686,1.8467 0.98874,3.6624 1.27691,5.5431 0.43815,1.8656 1.05807,3.6739 1.5754,5.5173 0.44818,1.4589 0.60207,3.0616 0.8593,4.5101 0.64908,1.0111 0.85834,2.1848 1.00031,3.362 0.507,2.3068 1.04888,4.608 1.53246,6.9213 0.32233,1.9614 1.04226,3.8246 1.53681,5.7448 0.17741,0.8544 0.72688,1.6136 1.08133,2.5022 0.28611,1.3972 0.37722,1.3084 0.82703,2.5603 0.22419,1.084 0.79989,2.01 1.20622,3.0296 0.67985,1.5886 0.68583,3.3392 -1.22466,4.1998 -0.49307,0.2221 -1.07917,0.072 -1.61875,0.1082 0,0 0.53023,-4.4652 0.53023,-4.4652 l 0,0 c -0.73712,0.253 -1.19131,0.2865 -1.5449,1.2642 -0.43983,1.2161 0.33243,2.1311 -0.32194,0.5599 -0.43141,-1.0808 -1.03909,-2.0882 -1.2881,-3.2373 -0.2581,-0.8325 -0.65498,-1.6199 -0.78867,-2.4872 -0.14627,-1.002 -1.29767,-1.8194 -1.22801,-2.9141 -0.50602,-1.9866 -1.31534,-3.897 -1.62982,-5.933 -0.51273,-2.4571 -1.08651,-4.8994 -1.55277,-7.3661 -0.0812,-0.9093 -0.30469,-1.6434 -0.7922,-2.4421 -0.42644,-1.5451 -0.46497,-3.162 -0.95472,-4.6992 -0.55976,-2.0246 -1.24831,-4.0105 -1.67263,-6.0723 -0.26609,-1.8769 -0.93585,-3.6565 -1.30285,-5.5136 -0.36513,-2.3558 -0.90649,-4.6619 -1.58404,-6.9471 -0.52433,-1.7967 -0.92367,-3.6196 -1.45782,-5.4145 -0.68657,-2.9305 -1.00133,-5.9459 -1.71406,-8.8756 -0.28932,-2.1329 -0.64963,-4.256 -0.99451,-6.3785 -0.44561,-1.685 -0.78634,-3.345 -0.78187,-5.101 -0.25289,-2.4928 -0.63376,-4.9641 -0.99131,-7.4433 -0.0915,-1.8659 -0.24655,-3.7313 -0.74406,-5.5407 -0.55419,-2.3874 -0.68541,-4.8245 -1.1769,-7.2245 -0.38071,-1.8005 -0.61052,-3.6438 -1.21976,-5.3846 -0.513,-1.5393 -0.81689,-3.148 -1.55519,-4.6118 -0.71368,-1.8851 -1.35908,-3.7951 -2.14088,-5.6544 -0.66794,-1.6944 -1.13292,-3.4612 -1.75413,-5.1728 -0.74903,-1.7523 -1.28364,-3.5815 -2.02018,-5.3404 -0.55821,-1.803 -1.07622,-3.6115 -1.63181,-5.4127 -0.60259,-1.6841 -1.1434,-3.4081 -1.55423,-5.1477 -0.65195,-2.8401 -1.53761,-5.6235 -1.98704,-8.5109 -0.92915,-4.0393 -1.75632,-8.0946 -2.20642,-12.2208 -0.52635,-3.7983 -0.93697,-7.61521 -1.43872,-11.41639 -0.40984,-3.35701 -1.13069,-6.66486 -1.43432,-10.03647 -0.35928,-2.87114 -0.5036,-5.75167 -0.86933,-8.6205 -0.40333,-2.1577 -0.76252,-4.30536 -0.93013,-6.49574 -0.28629,-1.65611 -0.7789,-3.27493 -0.87183,-4.95919 -0.18433,-1.40086 -0.83293,-2.64926 -1.05746,-4.04662 -0.19396,-1.86253 -0.52879,-3.6993 -1.02439,-5.50745 -0.4453,-1.93568 -0.70037,-3.91225 -1.36922,-5.79531 -0.34158,-1.86509 -0.98454,-3.67221 -1.13588,-5.56834 -0.23467,-1.6983 -0.67735,-3.33697 -1.05687,-5.0029 -0.3309,-1.38466 -1.09486,-2.62712 -1.33391,-4.04039 -0.56578,-2.18298 -1.33208,-4.31075 -1.92764,-6.48516 -1.09002,-3.11664 -1.96395,-6.28322 -2.62935,-9.51941 -1.00445,-3.83378 -1.91835,-7.69219 -2.86035,-11.54227 -0.83711,-4.28688 -1.51928,-8.608 -1.95655,-12.95485 -0.35498,-3.19021 -0.50331,-6.39854 -1.02153,-9.56722 -0.41958,-2.14101 -0.55088,-4.30089 -0.91813,-6.4491 -0.42246,-1.94757 -0.84223,-3.88265 -1.09718,-5.86084 -0.38251,-2.13742 -0.70929,-4.26364 -0.82304,-6.43427 -0.30409,-1.92405 -0.97997,-3.73786 -1.34053,-5.64728 -0.46464,-1.97538 -1.22699,-3.85231 -1.81683,-5.79108 -0.663,-2.0636 -1.136,-4.19842 -1.61838,-6.30878 -0.42114,-1.86135 -0.8577,-3.70744 -1.10872,-5.60185 -0.4363,-2.55349 -0.69337,-5.10078 -0.52176,-7.69619 0,0 4.50845,0 4.50845,0 z"
         id="path3134"
         style="fill:#fc9272;fill-opacity:1;fill-rule:nonzero;stroke:none" />
      <path
         inkscape:connector-curvature="0"
         d="m 660.61317,843.55846 c -0.30478,-2.0676 -0.81278,-4.06604 -1.34346,-6.08296 -0.42265,-1.62121 -1.08388,-3.16033 -1.50499,-4.78639 -0.70376,-1.39544 -0.88761,-2.96327 -1.37036,-4.42818 -0.76934,-1.98213 -0.82876,-4.11998 -1.26058,-6.17369 -0.49373,-1.79687 -0.82716,-3.62543 -1.00789,-5.47856 -0.51417,-1.88575 -0.82439,-3.80972 -1.03771,-5.74978 -0.16889,-1.67606 -0.19161,-3.36131 -0.20522,-5.04425 0.15022,-1.4094 -0.19042,-2.71257 -0.46676,-4.07908 -0.45215,-2.39031 -0.54139,-4.82848 -0.61668,-7.25406 -0.0431,-1.52284 -0.0301,-3.04635 -0.0295,-4.56956 -0.0773,-1.4459 -0.54354,-2.8612 -0.78211,-4.29871 -0.0922,-1.71546 -0.34778,-3.35251 -0.76683,-5.0129 -0.55045,-1.81448 -0.42213,-3.73365 -0.76201,-5.57639 -0.44482,-2.055 -0.74268,-4.13522 -0.91586,-6.22954 0.0242,-1.71248 -0.48102,-3.34418 -0.77509,-5.01835 -0.17698,-2.18426 -0.73424,-4.30061 -1.10103,-6.45591 -0.32797,-2.10483 -0.42454,-4.23438 -0.47295,-6.3609 -0.0834,-2.25226 -0.5474,-4.4793 -0.81284,-6.71975 -0.16624,-1.36628 -0.26255,-2.73985 -0.29411,-4.11556 0.0404,-1.42386 -0.42108,-2.78897 -0.66433,-4.1889 -0.46173,-2.03067 -0.1638,-4.16443 -0.55834,-6.19205 -0.41346,-1.76023 -0.71921,-3.537 -0.89139,-5.33633 0.0723,-1.40504 -0.39543,-2.67506 -0.73868,-4.01117 -0.38099,-1.45815 -0.44648,-2.9681 -0.49395,-4.46652 -0.10797,-1.93463 -0.57181,-3.84176 -0.82023,-5.7692 -0.15946,-1.62685 -0.71977,-3.18017 -1.06265,-4.77643 -0.40729,-1.8975 -0.23426,-3.84909 -0.49669,-5.75944 -0.35028,-2.00607 -0.67207,-4.01316 -0.85508,-6.04198 -0.23568,-2.35789 -0.11408,-4.69536 0.17886,-7.03976 0.39804,-3.12802 0.58877,-6.27734 0.71421,-9.42653 0.0841,-2.34485 0.0963,-4.69088 0.0861,-7.03689 -0.16837,-3.46342 0.10583,-6.89374 0.50144,-10.33007 0.35503,-2.03828 0.47758,-3.97124 0.11386,-5.99417 -0.54948,-2.17157 -0.14874,-4.35914 0.11728,-6.53614 0.38039,-1.35844 0.0477,-2.46964 -0.24465,-3.77563 -0.40806,-2.14488 -0.4985,-4.32929 -0.33203,-6.50073 0.34495,-1.9799 0.61948,-3.87574 0.35113,-5.86757 -0.31329,-1.67976 -0.40113,-3.38448 -0.46311,-5.08818 -0.06,-2.61536 -0.0659,-5.23171 -0.0543,-7.84762 0.001,-1.53878 0.0246,-3.07741 0.0249,-4.61618 -0.42759,-0.64923 -0.69633,-1.8967 -0.87512,-2.8089 -0.22847,-1.54617 -0.24089,-3.1127 -0.25073,-4.67233 -0.008,-1.82478 -0.007,-3.64958 -0.008,-5.47438 0.16312,-1.98884 -0.28647,-3.91313 -0.63086,-5.85567 -0.39456,-2.30638 -0.43219,-4.65027 -0.47838,-6.98335 -0.0297,-2.32196 -0.0251,-4.64431 9e-5,-6.96629 0.0233,-1.19889 0.008,-2.39789 8.8e-4,-3.59684 -0.003,-3.04366 -0.10654,-6.08561 0.11064,-9.12281 0.11284,-2.23659 0.047,-4.47714 -0.0279,-6.71384 -0.0532,-1.39307 -0.0654,-2.78695 -0.0744,-4.18084 0.10976,-1.79066 -0.37958,-3.52094 -0.65957,-5.27699 -0.58009,-2.3471 -1.05705,-4.71602 -1.35198,-7.11582 -0.18392,-1.62033 -0.22472,-3.25148 -0.23249,-4.88066 -0.0553,-1.45238 -0.53553,-2.86754 -0.77749,-4.30702 -0.25618,-1.77556 -0.30778,-3.57017 -0.33007,-5.36114 -0.0299,-1.58038 -0.53245,-3.11581 -0.78833,-4.67574 -0.2555,-1.81784 -0.29442,-3.65558 -0.32452,-5.48809 0.11399,-1.43951 -0.38175,-2.77911 -0.64764,-4.18166 -0.35734,-2.14886 -0.42386,-4.33044 -0.4641,-6.50399 -0.0234,-1.69821 -0.0226,-3.39677 -0.0134,-5.0951 -0.50371,-1.92349 -0.73123,-3.90827 -0.91286,-5.88428 -0.16148,-2.0124 -0.18855,-4.0317 -0.20297,-6.04941 0.005,-1.07474 0.005,-2.14949 0.011,-3.22422 0.0149,-1.737 -0.44461,-3.43771 -0.67713,-5.15894 -0.33343,-3.3744 -0.5336,-6.77355 -0.32169,-10.15977 0.31567,-2.70221 0.64392,-5.40023 0.85712,-8.11284 0.12256,-1.77278 0.1231,-3.55066 0.14403,-5.32667 0.005,-0.942 0.008,-1.88394 0.008,-2.82593 -0.005,-1.17266 -0.013,-2.34532 -0.0181,-3.518 -0.0104,-1.96101 -0.006,-3.92201 -0.003,-5.88303 0.01,-1.04752 0.0112,-2.09508 0.0192,-3.14261 -0.0731,-1.05889 0.0378,-1.99637 0.30313,-3.02516 0.41243,-0.80628 0.59403,-1.69209 0.69673,-2.58471 0.0937,-0.73546 0.11339,-1.47497 0.12452,-2.21509 -0.0235,-0.243 0.0376,-2.0505 -0.0326,-1.03825 -0.44133,-0.62024 -0.70047,-1.34387 -0.91732,-2.06919 0,0 4.28248,-1.30356 4.28248,-1.30356 l 0,0 c 0.13516,0.42915 0.24104,0.81344 0.53967,1.15805 0.54132,1.05787 0.69405,2.12143 0.61291,3.29213 -0.003,0.917 -0.0375,1.83418 -0.14144,2.74592 -0.17345,1.28058 -0.42556,2.56549 -1.0173,3.72778 0.11122,-1.59344 -0.004,1.12236 0.0361,1.31211 0.008,1.04753 0.009,2.0951 0.0192,3.14263 0.003,1.96079 0.007,3.92157 -0.003,5.88236 -0.005,1.16862 -0.0129,2.33723 -0.0132,3.50586 0.005,0.9529 0.0173,1.90575 0.0162,2.8587 0.005,1.87951 -0.0152,3.76008 -0.13269,5.6365 -0.18268,2.70507 -0.5048,5.39431 -0.81525,8.08708 -0.22145,3.08712 0.0236,6.19022 0.26893,9.27063 0.23662,1.91659 0.73012,3.81557 0.66085,5.75543 1.6e-4,1.05809 -0.009,2.11621 0.009,3.17424 0.0189,1.8937 0.0727,3.78797 0.20955,5.67716 0.18999,2.1194 0.54319,4.20715 0.90409,6.30243 0.004,1.66206 -0.005,3.32425 0.0274,4.98611 0.0513,1.93046 0.0864,3.86892 0.38529,5.78087 0.29507,1.63643 0.83454,3.24274 0.70954,4.92663 0.0308,1.61886 0.0859,3.24184 0.27746,4.85056 0.27782,1.77471 0.87408,3.51155 0.84233,5.32276 0.0296,1.56977 0.0524,3.14241 0.27256,4.70014 0.26492,1.66951 0.85379,3.29821 0.82697,5.00248 0.0165,1.45715 0.0372,2.91682 0.22272,4.36468 0.28731,2.34858 0.8237,4.65154 1.33183,6.96028 0.30908,1.97858 0.82379,3.94191 0.69258,5.96034 0.006,1.34583 0.008,2.69259 0.0735,4.0371 0.0984,2.40648 0.21124,4.81585 0.0858,7.22415 -0.23127,2.92149 -0.10528,5.85368 -0.1577,8.78242 -0.008,1.20065 -0.0257,2.40133 -0.01,3.60201 0.0175,2.29542 0.0208,4.59094 0.0418,6.88634 0.0249,2.08985 0.0315,4.19171 0.37924,6.25886 0.39792,2.20381 0.87791,4.4015 0.7071,6.65814 -0.004,1.80995 -0.0148,3.6199 -0.01,5.42985 0.0145,1.29831 0.003,2.6007 0.16309,3.8917 0.20609,1.24556 0.81542,2.36899 0.95053,3.63244 -0.002,1.53712 0.0161,3.07414 0.0174,4.61126 0.0128,2.5709 -0.003,5.14205 0.0425,7.71269 0.0357,1.5492 0.10096,3.10021 0.40909,4.62394 0.31002,2.32243 0.14996,4.57319 -0.30189,6.87341 -0.18709,1.7053 -0.0574,3.43286 0.20716,5.12606 0.38064,1.76673 0.77812,3.48442 0.3424,5.29871 -0.21513,1.73626 -0.61656,3.453 -0.16786,5.18499 0.43779,2.45194 0.3939,4.84189 -0.0195,7.30621 -0.36393,3.26778 -0.63196,6.5241 -0.49698,9.81739 -0.0125,2.40212 -0.008,4.80476 -0.0788,7.20609 -0.11646,3.28594 -0.30127,6.57301 -0.74863,9.833 -0.26398,2.01701 -0.41414,4.02142 -0.20019,6.05467 0.18004,1.9822 0.54001,3.93539 0.8637,5.89771 0.19987,1.78121 0.11926,3.57313 0.39297,5.34607 0.38545,1.72188 0.98671,3.40184 1.15464,5.16525 0.26384,2.07441 0.77563,4.12595 0.83428,6.21827 0.0281,1.16594 0.0559,2.34818 0.35278,3.48274 0.38714,1.54504 0.91925,3.0592 0.86116,4.67839 0.17366,1.69915 0.47877,3.37186 0.86351,5.03661 0.31062,2.04733 0.23371,4.12561 0.55809,6.17469 0.26695,1.60444 0.76102,3.18942 0.69235,4.82877 0.0387,1.23179 0.13646,2.46136 0.30443,3.68272 0.30454,2.38689 0.77979,4.76721 0.83548,7.17461 0.0397,1.90678 0.13627,3.81421 0.42194,5.70237 0.36142,2.14927 0.92072,4.26254 1.08951,6.44114 0.30656,1.80479 0.82408,3.57804 0.82233,5.4222 0.1586,1.9725 0.47658,3.92545 0.87769,5.86297 0.26252,1.72715 0.23729,3.48841 0.66598,5.19089 0.46225,1.78328 0.76614,3.56755 0.85245,5.40997 0.26361,1.67753 0.84674,3.31673 0.82322,5.02721 -0.003,1.47175 0.0202,2.94324 0.0583,4.4145 0.0766,2.17715 0.15534,4.36737 0.52421,6.51787 0.32154,1.63426 0.66534,3.25181 0.53687,4.92899 0.0121,1.52509 0.0495,3.0519 0.19361,4.57101 0.23003,1.96832 0.58954,3.9043 1.03868,5.83453 0.15383,1.70196 0.50979,3.36994 0.95871,5.01825 0.36511,1.9121 0.46237,3.87989 1.13051,5.72745 0.45615,1.54407 0.74966,3.136 1.41307,4.61632 0.43051,1.61983 1.11894,3.15032 1.52616,4.77599 0.55336,2.1033 1.10081,4.18976 1.38142,6.352 0,0 -4.42175,0.88435 -4.42175,0.88435 z"
         id="path3138"
         style="fill:#fc9272;fill-opacity:1;fill-rule:nonzero;stroke:none" />
      <path
         style="fill:#fc9272;fill-opacity:1;fill-rule:nonzero;stroke:none"
         id="path3198"
         d="m 384.2175,1339.1723 c 1.39621,-0.7673 2.75612,-1.5983 4.1921,-2.2912 0.95166,-0.5696 1.93508,-1.0652 3.00014,-1.3792 0.41228,-0.3247 0.92279,-0.533 1.36952,-0.8248 0.35291,-0.3063 0.90079,-0.8447 1.41146,-1.2993 0.48344,-0.5137 1.24359,-0.7968 1.80586,-1.0621 0.4807,-0.314 1.00832,-0.5878 1.39853,-1.0282 1.00741,-0.7766 2.05749,-1.4755 3.06711,-2.2492 1.22327,-0.9518 2.51674,-1.8228 3.90446,-2.5159 1.08097,-0.4572 2.14526,-0.9491 3.23635,-1.3887 1.32145,-0.836 2.78338,-1.3686 4.2241,-1.9504 1.20331,-0.5459 2.45909,-0.9402 3.75666,-1.1799 -0.34023,-0.083 1.6897,-0.7275 1.84112,-0.7846 1.42743,-0.4352 2.82871,-0.9358 4.28455,-1.2734 1.14494,-0.1987 2.21478,-0.6926 3.29125,-1.1172 1.40387,-0.6629 2.85773,-1.2216 4.31596,-1.7543 0.87107,-0.5296 1.91609,-0.7465 2.78935,-1.2565 0.94786,-0.427 1.90838,-0.8281 2.87644,-1.2089 0.79539,-0.5316 1.67778,-0.8951 2.58972,-1.1697 -0.47687,0.09 1.49829,-0.7958 1.71531,-0.916 0.69276,-0.3837 1.24878,-0.6377 1.5429,-0.8265 0.84611,-0.616 1.81732,-1.0047 2.75562,-1.4575 1.29219,-0.7481 2.60973,-1.45 3.90945,-2.1857 1.62896,-0.7902 3.19906,-1.6905 4.75017,-2.6218 1.12311,-0.6718 2.38065,-1.152 3.45314,-1.9054 0.81506,-0.5391 1.59368,-1.1432 2.36732,-1.7457 1.09156,-0.6637 2.16212,-1.367 3.30665,-1.9362 1.04927,-0.472 1.99051,-1.1095 2.88475,-1.8252 0.79651,-0.4009 1.38282,-1.0509 2.11182,-1.5429 0.71009,-0.5469 1.40697,-1.0941 2.15417,-1.5915 1.17492,-0.5771 2.22525,-1.3578 3.34263,-2.0287 0.86709,-0.4587 1.69584,-0.9756 2.52306,-1.4981 1.2624,-0.6557 2.5688,-1.2185 3.83708,-1.862 1.65561,-0.9773 3.42328,-1.746 5.13455,-2.6197 1.13995,-0.4315 2.18125,-1.0644 3.27991,-1.5799 0.67531,-0.2012 1.24733,-0.5871 1.89625,-0.8573 0.80254,-0.4665 1.60625,-0.912 2.42642,-1.3503 1.66503,-0.9319 3.37277,-1.7896 5.03686,-2.7283 1.47308,-0.8001 2.96319,-1.5673 4.43282,-2.3735 1.03586,-0.737 2.15545,-1.3332 3.26085,-1.9552 1.11946,-0.5185 2.18168,-1.1095 3.15209,-1.8605 0.72615,-0.5363 1.51831,-0.9723 2.26491,-1.4806 0.68968,-0.4762 1.38929,-0.9164 2.07632,-1.3974 1.96473,-0.9411 3.92381,-1.89 5.83315,-2.9425 1.86172,-1.1182 3.79747,-2.1507 5.59264,-3.375 1.0472,-0.659 2.14704,-1.2217 3.22951,-1.8208 1.08228,-0.5866 2.09158,-1.2709 3.12131,-1.9383 0.6764,-0.4424 1.28838,-0.9487 2.02599,-1.3112 0.70827,-0.265 1.39732,-0.6067 2.03115,-1.0242 1.77471,-0.9634 3.63024,-1.7655 5.39052,-2.754 1.53265,-0.8238 3.14644,-1.4732 4.72999,-2.1921 0.75136,-0.2673 1.43417,-0.5642 2.14466,-0.9021 0.91051,-0.5122 1.85844,-0.9637 2.80106,-1.4212 0.87606,-0.3484 1.6272,-0.8911 2.51765,-1.2198 1.0408,-0.5836 2.11217,-1.1316 3.1576,-1.715 1.09779,-0.6314 2.2549,-1.1352 3.34713,-1.7772 0.80635,-0.304 1.31474,-0.7398 2.11569,-1.1111 0.96408,-0.6022 2.04511,-1.08 3.08472,-1.5523 1.45391,-0.6534 2.87362,-1.3744 4.31339,-2.0562 1.11893,-0.417 2.19965,-0.9173 3.30545,-1.3727 1.95369,-0.8156 3.84995,-1.7568 5.77869,-2.6276 1.37378,-0.7582 2.92237,-1.2096 4.23549,-2.0727 0.67208,-0.4595 1.50799,-0.7377 2.12737,-1.2699 0.6759,-0.4251 1.36019,-0.8137 1.96795,-1.3344 0.9574,-0.6048 1.85726,-1.2933 2.79757,-1.9222 1.09064,-0.7337 2.08381,-1.5867 3.24139,-2.2164 0.88714,-0.5478 1.79151,-1.0493 2.71212,-1.539 1.46766,-0.828 2.9669,-1.5994 4.41976,-2.4577 0.86304,-0.4719 1.5823,-1.1478 2.41666,-1.6605 0.39851,-0.1619 0.71454,-0.4642 1.34995,-0.8299 0.16507,-0.3047 1.58972,-0.9312 1.19828,-0.8245 0.61482,-0.4985 1.34701,-0.7874 2.04246,-1.1473 1.20562,-0.4353 2.40011,-0.8936 3.58963,-1.3757 1.03148,-0.4436 2.09854,-0.7774 3.20707,-0.9531 0.70743,-0.088 1.42179,-0.084 2.13337,-0.08 0.65387,-0.051 1.31024,-0.3335 1.96347,-0.5082 0.71543,-0.1769 1.44846,-0.2421 2.1828,-0.2658 0.10646,-0 0.21404,0.01 0.31937,-0.01 -0.0758,-0 -0.15158,-0 -0.22738,-0.01 -0.004,-0.01 -0.017,-0.016 -0.0106,-0.019 0.54777,-0.3022 0.89913,-0.3514 1.55004,-0.4499 0,0 0.0164,3.1721 0.0164,3.1721 l 0,0 c 1.247,-0.4079 -1.33959,0.6431 -1.53066,0.4816 -0.49043,0.021 -0.97899,0.052 -1.45934,0.1627 -0.92233,0.2592 -1.84825,0.6289 -2.81643,0.6168 -0.55182,-9e-4 -1.10612,-0.01 -1.65547,0.05 -0.86408,0.1092 -1.67184,0.4604 -2.47354,0.7816 -1.09998,0.4408 -2.19759,0.8858 -3.33072,1.2312 -0.52603,0.27 -1.05498,0.4519 -1.52924,0.8065 -0.58861,0.3958 -1.00971,0.5944 -1.5694,1.0717 -0.46986,0.2801 -0.9254,0.5986 -1.39722,0.8655 -0.75464,0.5363 -1.4943,1.1869 -2.32618,1.6442 -1.49726,0.9004 -3.05087,1.6932 -4.57726,2.5372 -0.91244,0.4715 -1.80444,0.9568 -2.67525,1.504 -1.07696,0.5851 -1.9576,1.4552 -3.00841,2.0866 -0.85135,0.5452 -1.63166,1.1998 -2.51399,1.7009 -0.67434,0.5507 -1.38991,1.0315 -2.1433,1.4679 -0.7203,0.4921 -1.47657,0.9307 -2.24073,1.3543 -1.4586,0.9564 -3.1141,1.562 -4.66221,2.357 -1.96685,0.8755 -3.8924,1.8431 -5.8926,2.6439 -1.05405,0.4247 -2.09286,0.8798 -3.14748,1.2964 -1.45927,0.6893 -2.88442,1.4518 -4.36624,2.0965 -1.06938,0.4725 -2.14648,0.9443 -3.14916,1.5448 -0.62238,0.1726 -1.08223,0.7799 -1.73099,0.9214 -1.11379,0.6758 -2.29814,1.2047 -3.42533,1.8551 -1.21376,0.6671 -2.44064,1.3077 -3.68599,1.9138 -0.78228,0.1971 -1.34567,0.8978 -2.14327,1.0746 -0.94899,0.4689 -1.90972,0.9066 -2.83092,1.4239 -0.72079,0.3473 -1.4483,0.6516 -2.19219,0.9419 -1.501,0.6873 -3.01809,1.3373 -4.48043,2.1028 -1.71691,0.9551 -3.50734,1.7649 -5.26466,2.6419 -0.78051,0.4758 -1.60608,0.9029 -2.46017,1.2284 -0.53928,0.2886 -1.02678,0.7694 -1.57831,1.0858 -1.09831,0.6892 -2.14312,1.4618 -3.30146,2.0597 -0.99801,0.5412 -2.01072,1.0501 -2.96584,1.6623 -1.88357,1.2806 -3.85539,2.4447 -5.83415,3.5717 -1.81816,0.9937 -3.66664,1.9423 -5.58654,2.726 -0.70818,0.4799 -1.42964,0.925 -2.12238,1.4243 -0.69084,0.4504 -1.4108,0.8584 -2.07236,1.3452 -1.0983,0.8538 -2.27118,1.5714 -3.54752,2.1384 -1.11347,0.615 -2.2286,1.2179 -3.268,1.9562 -1.45597,0.8153 -2.9387,1.5815 -4.40236,2.3829 -1.69256,0.9527 -3.42704,1.8238 -5.12936,2.7527 -0.9117,0.4726 -1.79626,0.9718 -2.70258,1.4552 -0.60877,0.2485 -1.1553,0.6239 -1.78909,0.8166 -1.06277,0.4555 -2.02382,1.158 -3.12639,1.5398 -1.71476,0.894 -3.49687,1.6573 -5.16821,2.6314 -1.18381,0.5895 -2.39086,1.1303 -3.58561,1.6957 -0.85379,0.5285 -1.69734,1.069 -2.58429,1.5431 -1.08181,0.6312 -2.06805,1.429 -3.21843,1.9475 -0.74762,0.4867 -1.42533,1.0489 -2.14999,1.5704 -0.65111,0.4195 -1.15043,1.0544 -1.87016,1.3866 -1.07767,0.8697 -2.22465,1.6382 -3.48959,2.2132 -0.95496,0.4452 -1.80675,1.0783 -2.73806,1.5697 -0.8353,0.6567 -1.69109,1.2985 -2.56736,1.8951 -1.14555,0.7387 -2.36624,1.3566 -3.56744,2.0011 -1.57968,0.9442 -3.16554,1.8827 -4.82862,2.6751 -1.36211,0.7538 -2.73438,1.4869 -4.08893,2.2538 -0.83222,0.404 -1.70588,0.7123 -2.45311,1.268 -0.5616,0.3446 -1.14627,0.5816 -1.70142,0.9285 -0.76631,0.4204 -1.58185,0.7043 -2.32523,1.1673 -0.84055,0.2606 -1.60188,0.6627 -2.36345,1.1043 -0.86103,0.3265 -1.70612,0.6958 -2.55311,1.0551 -1.03345,0.5165 -2.12483,0.9127 -3.15444,1.4403 -1.4354,0.5376 -2.87167,1.0795 -4.26042,1.7291 -1.22537,0.4759 -2.44795,1.0118 -3.74261,1.2646 -1.34414,0.3024 -2.63241,0.7812 -3.95501,1.16 -0.79141,0.2611 -1.54326,0.5048 -2.29,0.8963 -1.09223,0.2169 -2.14461,0.5642 -3.15497,1.0374 -1.44671,0.5779 -2.89748,1.1283 -4.23726,1.9397 -1.00909,0.397 -1.99659,0.8355 -2.98641,1.271 -1.20491,0.6102 -2.3217,1.3854 -3.39279,2.2049 -0.93642,0.7149 -1.89154,1.3806 -2.85982,2.048 -0.61321,0.5333 -1.25174,1.0343 -1.96043,1.4325 -0.43271,0.2227 -0.92379,0.361 -1.27935,0.6908 -0.59713,0.5332 -1.18027,1.092 -1.79851,1.5927 -0.7197,0.4643 -1.48758,0.8571 -2.25891,1.2232 -0.88918,0.1922 -1.63054,0.807 -2.43737,1.1886 -1.49857,0.7414 -2.9037,1.6512 -4.41193,2.3759 0,0 -1.18487,-2.9621 -1.18487,-2.9621 z"
         inkscape:connector-curvature="0" />
      <path
         style="fill:#fc9272;fill-opacity:1;fill-rule:nonzero;stroke:none"
         id="path3202"
         d="m 146.49361,1498.9661 c 1.39579,-2.2576 3.02539,-4.3537 4.60747,-6.4805 1.50442,-2.3417 3.3024,-4.4716 4.92261,-6.7276 0.9002,-1.2061 1.9904,-2.2451 3.06731,-3.2888 1.18601,-1.1339 2.35884,-2.2711 3.39175,-3.5475 0.79769,-1.0232 1.65071,-2.017 2.60853,-2.8934 0.90138,-0.6754 1.74231,-1.4276 2.65124,-2.0915 0.89068,-0.8488 1.86897,-1.6033 2.73495,-2.4777 0.93575,-0.8644 2.0484,-1.4989 3.10329,-2.202 0.90961,-0.6944 1.9637,-1.0653 3.07649,-1.2654 0.88171,-0.3619 1.79149,-0.671 2.66028,-1.0783 1.2282,-0.6076 2.55634,-0.9248 3.82984,-1.4089 0.72103,-0.3355 1.51471,-0.4441 2.22128,-0.7974 0.95562,-0.4141 1.80972,-1.0469 2.6807,-1.622 1.1459,-0.8823 2.27357,-1.7829 3.46687,-2.607 1.38511,-0.9054 2.7662,-1.819 4.11039,-2.7845 2.42847,-1.7894 5.07649,-3.2443 7.60496,-4.8792 1.05971,-0.8174 2.27727,-1.3859 3.37753,-2.1382 0.8653,-0.4938 1.64104,-1.1259 2.50154,-1.6344 1.29341,-0.704 2.56128,-1.4496 3.81844,-2.2183 1.76034,-1.0705 3.46274,-2.2333 5.1802,-3.3716 0.81416,-0.5142 1.60248,-1.0675 2.31103,-1.721 0.70354,-0.6705 1.35703,-1.3828 2.11811,-1.9886 0.68108,-0.4856 1.3038,-1.0531 1.95806,-1.5847 1.40383,-1.202 2.80851,-2.3983 4.20661,-3.6066 0.96947,-0.9818 2.04525,-1.8505 3.10404,-2.7328 0.90489,-0.794 1.73613,-1.6614 2.6444,-2.4516 1.8954,-1.5981 3.73512,-3.2592 5.54174,-4.9565 1.087,-0.998 2.21741,-1.936 3.23303,-3.0095 0.57446,-0.5187 1.12449,-1.0452 1.63924,-1.6255 0.41061,-0.4606 0.82946,-0.9136 1.2557,-1.3597 1.60269,-1.4085 3.38929,-2.5856 5.13584,-3.8043 1.71633,-1.1929 3.39844,-2.4613 5.2098,-3.5095 1.07611,-0.5911 2.20057,-1.0727 3.3349,-1.5371 1.59264,-0.7416 3.24754,-1.3356 4.82044,-2.1191 1.57771,-0.6851 3.11686,-1.4675 4.70638,-2.1256 0.91041,-0.2844 1.68954,-0.8449 2.48363,-1.3564 1.28744,-0.7321 2.67689,-1.2636 4.01333,-1.8969 1.10235,-0.3596 2.03873,-1.0316 3.08295,-1.5131 0.76398,-0.391 1.52356,-0.7687 2.26237,-1.1971 1.44599,-0.9296 3.00784,-1.6583 4.58159,-2.3423 2.23277,-1.0341 4.41552,-2.1778 6.69923,-3.0973 0.9987,-0.6231 2.23637,-0.859 3.21394,-1.5103 1.18633,-0.7033 2.41092,-1.359 3.66539,-1.9354 1.70961,-0.7352 3.2783,-1.7439 4.9752,-2.5037 0.70898,-0.5383 1.50937,-0.9083 2.35639,-1.1673 -0.85982,0.4381 0.87605,-0.9297 0.90173,-0.9509 0.64965,-0.8078 1.52855,-1.4137 2.19548,-2.2 0.46831,-0.6277 0.90604,-1.2724 1.33789,-1.9259 0.63921,-0.977 1.30729,-1.9341 1.92407,-2.9273 0.58524,-0.9271 1.40071,-1.6712 2.13885,-2.4758 1.12517,-1.2421 2.35219,-2.3925 3.66671,-3.4318 0.66949,-0.7665 1.45226,-1.3909 2.31389,-1.9259 1.9735,-0.9564 3.74487,-2.269 5.5551,-3.4991 1.70271,-1.194 3.3469,-2.4718 4.91687,-3.8354 1.02285,-0.7886 2.14653,-1.4318 3.29671,-2.0136 1.10685,-0.4566 2.20235,-0.9587 3.2281,-1.5792 0.88162,-0.423 1.68459,-0.9401 2.54862,-1.4039 1.37021,-0.6617 2.75118,-1.3034 4.10343,-2.002 1.49887,-0.7128 2.93956,-1.5347 4.46974,-2.1799 1.66181,-0.7529 3.28898,-1.5894 4.89644,-2.4532 1.50449,-0.7863 3.00427,-1.5619 4.62052,-2.0924 0.80965,-0.3889 1.59007,-0.8157 2.38694,-1.2318 1.22283,-0.4556 2.34665,-1.08 3.4564,-1.7583 1.80761,-1.0084 3.6887,-1.8765 5.42741,-3.0031 1.13673,-0.7377 2.43391,-1.1538 3.63978,-1.7574 1.36255,-0.7775 2.86252,-1.2113 4.30579,-1.7912 0.9479,-0.3644 1.87807,-0.777 2.87296,-0.9944 0.4029,-0.1211 1.06635,-0.4638 1.69446,-0.6451 1.03027,-0.3529 2.01237,-0.8175 3.03772,-1.1835 1.12197,-0.2031 2.15809,-0.6429 3.22388,-1.023 0.76873,-0.2854 1.57511,-0.3797 2.38832,-0.4153 0.41401,0.021 0.36127,-0.033 0.66431,-0.255 0.0135,-0.014 -0.0288,0.027 -0.0431,0.041 0,0 2.34503,2.1182 2.34503,2.1182 l 0,0 c -0.12233,0.1306 -0.24755,0.2581 -0.39076,0.3666 -0.70786,0.5299 -1.52878,0.9312 -2.4366,0.9044 -0.50374,0.022 -0.99733,0.049 -1.47043,0.2459 -1.06819,0.3673 -2.09569,0.8574 -3.22353,1.0375 -1.10511,0.3761 -2.15233,0.9039 -3.27462,1.2374 -0.65109,0.1352 -1.17687,0.5921 -1.846,0.6767 -0.82423,0.1724 -1.56842,0.6028 -2.36411,0.8694 -1.37177,0.5356 -2.7816,0.9575 -4.07536,1.6846 -1.09413,0.5273 -2.25093,0.9317 -3.28613,1.5708 -1.76275,1.1668 -3.6642,2.079 -5.52742,3.0719 -1.16886,0.6953 -2.34965,1.3614 -3.63377,1.8226 -0.94698,0.5026 -1.88728,1.0022 -2.86437,1.4447 -1.43679,0.4837 -2.76024,1.206 -4.10635,1.8959 -1.70595,0.9127 -3.42697,1.809 -5.19827,2.5876 -1.46111,0.5762 -2.7909,1.4245 -4.22235,2.068 -1.34546,0.6857 -2.71273,1.3289 -4.08072,1.9674 -0.80767,0.4193 -1.56579,0.9027 -2.381,1.3074 -1.09855,0.6692 -2.26644,1.2328 -3.45718,1.7156 -0.91059,0.4448 -1.79344,0.9459 -2.60726,1.5522 -1.65311,1.4755 -3.38943,2.8584 -5.2095,4.1231 -1.86423,1.2613 -3.70481,2.6003 -5.75186,3.5495 -0.77713,0.4142 -1.32372,1.0825 -1.94673,1.6884 -1.18151,0.9501 -2.28521,1.9938 -3.31698,3.1042 -0.60655,0.6458 -1.27182,1.2285 -1.76311,1.9607 -0.62729,1.0431 -1.32662,2.0368 -1.99912,3.0492 -0.52654,0.7705 -1.04075,1.5477 -1.61829,2.2831 -0.81553,0.8752 -1.72425,1.6591 -2.54552,2.5307 -0.66828,0.5349 -1.19936,1.1449 -1.98602,1.5167 -0.72301,0.2224 -1.33111,0.6265 -1.96416,1.0405 -1.6914,0.783 -3.24483,1.8362 -4.97742,2.5382 -1.14997,0.4997 -2.27952,1.0823 -3.35349,1.7238 -1.17082,0.6704 -2.43976,1.1512 -3.638,1.7703 -2.25961,0.9155 -4.40705,2.0821 -6.63238,3.0761 -1.46624,0.6209 -2.92226,1.2803 -4.27022,2.1333 -0.83793,0.4753 -1.68585,0.922 -2.55251,1.3461 -1.03716,0.4281 -1.92239,1.1926 -3.02007,1.5017 -1.21863,0.5662 -2.46553,1.0775 -3.6578,1.6965 -0.95592,0.6 -1.90069,1.2462 -2.97804,1.6107 -1.52415,0.628 -2.98023,1.4276 -4.50145,2.0648 -1.6558,0.8083 -3.38383,1.4431 -5.06343,2.1998 -1.00163,0.3811 -1.97809,0.8188 -2.91728,1.3361 -1.73379,0.9963 -3.29692,2.2894 -4.95809,3.3976 -1.58582,1.1006 -3.19666,2.1686 -4.71049,3.3682 -0.40515,0.4044 -0.78922,0.8261 -1.16438,1.2587 -0.53951,0.595 -1.10392,1.1539 -1.69053,1.6934 -1.05762,1.1183 -2.19448,2.1406 -3.33064,3.1766 -1.8423,1.7359 -3.71362,3.4422 -5.67494,5.0438 -0.92797,0.7714 -1.7544,1.6516 -2.67066,2.4373 -1.03555,0.8917 -2.10142,1.7526 -3.05365,2.7356 -1.42769,1.2415 -2.86785,2.4607 -4.32448,3.6683 -0.68408,0.5375 -1.33806,1.0881 -2.018,1.6246 -0.72332,0.4905 -1.22824,1.2628 -1.91009,1.8092 -0.83329,0.7483 -1.71928,1.4299 -2.66109,2.0377 -1.74486,1.1805 -3.49142,2.3644 -5.30051,3.4438 -1.28283,0.7767 -2.57691,1.5301 -3.89728,2.2387 -0.79812,0.4366 -1.48542,1.059 -2.28577,1.4902 -1.11788,0.7753 -2.33891,1.3915 -3.4139,2.2322 -2.48282,1.631 -5.08765,3.0755 -7.50568,4.8071 -1.36947,0.9553 -2.77418,1.8566 -4.16696,2.777 -1.21613,0.8322 -2.33557,1.7766 -3.52006,2.6479 -0.98714,0.646 -1.97125,1.3207 -3.0487,1.8059 -0.80288,0.3847 -1.65846,0.5765 -2.47681,0.9233 -1.20972,0.461 -2.46406,0.773 -3.63511,1.3364 -1.13013,0.5063 -2.29069,0.9323 -3.47118,1.3051 -0.68412,0.093 -1.29382,0.3565 -1.83839,0.7889 -0.88506,0.5795 -1.80512,1.1181 -2.60834,1.8075 -1.00063,0.982 -2.07838,1.8813 -3.13014,2.8074 -0.83916,0.5788 -1.57304,1.3024 -2.40986,1.8879 -0.87287,0.6715 -1.47629,1.699 -2.20601,2.5087 -1.11009,1.3883 -2.37313,2.6229 -3.67026,3.8362 -0.93815,0.9044 -1.89,1.8035 -2.66396,2.8582 -1.61646,2.2887 -3.40242,4.4573 -4.93614,6.807 -1.52331,2.0372 -3.08697,4.0452 -4.48324,6.1739 0,0 -2.73809,-1.6429 -2.73809,-1.6429 z"
         inkscape:connector-curvature="0" />
      <path
         style="fill:#fc9272;fill-opacity:1;stroke:none"
         id="path3041"
         d="m 734.46602,1151.8618 c 0.10005,2.0404 0.8247,3.9182 1.47506,5.8254 0.92213,2.245 1.71972,4.5456 2.79531,6.7236 1.36423,2.5476 2.28731,5.2735 3.17509,8.013 1.04901,2.7651 1.59118,5.6802 2.45602,8.5007 0.73664,2.5555 1.56933,5.0832 2.42581,7.601 0.7362,2.0248 1.26208,4.112 1.89395,6.1677 0.52967,1.9383 1.44801,3.7334 2.14878,5.6105 0.71709,2.1179 1.36686,4.2342 1.74189,6.4418 0.12232,1.9772 0.57824,3.8991 0.88877,5.8504 0.31737,1.2987 0.95289,2.4436 1.61221,3.5889 0.88342,1.7041 1.66367,3.4585 2.53978,5.1659 1.26662,1.6319 2.33243,3.3564 3.11031,5.2707 0.76316,1.5209 1.26999,3.1494 1.98084,4.6937 0.67405,1.6848 1.51696,3.2806 2.47726,4.8175 1.07766,1.7967 2.02032,3.6666 3.01517,5.5088 1.04455,2.1019 1.93275,4.2764 2.53811,6.545 0.55577,1.9299 1.1873,3.8359 1.73412,5.7682 0.56711,1.8518 1.38739,3.6017 2.17133,5.3671 0.91848,1.9225 1.90232,3.8126 2.82728,5.732 0.97655,1.9399 1.97641,3.8689 2.91921,5.8257 0.89016,1.8021 1.79663,3.5856 2.79709,5.3272 0.8462,1.8222 1.92473,3.5187 2.873,5.2872 0.67593,1.0248 1.33104,2.0631 1.95262,3.1218 2.41572,4.1543 -3.45929,7.5706 -5.87502,3.4163 l 0,0 c -0.65231,-1.1378 -1.39544,-2.2199 -2.07515,-3.3418 -0.90427,-1.7105 -1.96968,-3.3352 -2.76947,-5.1001 -1.08268,-1.8874 -2.06683,-3.8191 -3.03028,-5.7704 -0.93562,-1.9597 -1.948,-3.8824 -2.91868,-5.8247 -0.94802,-1.984 -1.97658,-3.9286 -2.91334,-5.9184 -0.91347,-2.0635 -1.85739,-4.1159 -2.50182,-6.2852 -0.54886,-1.9762 -1.21041,-3.9192 -1.76796,-5.8934 -0.43771,-1.7524 -1.17592,-3.4057 -1.94502,-5.0348 -0.92544,-1.7234 -1.80896,-3.4683 -2.80829,-5.1511 -1.10387,-1.7928 -2.10578,-3.6432 -2.89361,-5.599 -0.74131,-1.6618 -1.32819,-3.384 -2.11952,-5.0236 -0.61487,-1.7378 -1.91179,-3.0761 -2.83324,-4.6527 -0.81564,-1.6088 -1.57229,-3.2463 -2.37466,-4.8613 -1.07278,-1.8637 -2.01489,-3.7896 -2.43515,-5.9191 -0.30265,-1.9332 -0.76392,-3.8412 -0.88059,-5.7999 -0.28538,-1.7878 -0.85331,-3.4822 -1.41296,-5.1997 -0.73124,-2.014 -1.74852,-3.9233 -2.28219,-6.0096 -0.58629,-1.9855 -1.1127,-3.9838 -1.81895,-5.9334 -0.88053,-2.5895 -1.73437,-5.1902 -2.49538,-7.8174 -0.83709,-2.786 -1.40248,-5.6495 -2.41859,-8.3811 -0.78724,-2.4396 -1.59091,-4.8667 -2.81903,-7.1292 -1.17757,-2.4437 -2.12155,-4.9885 -3.11894,-7.5097 -0.88634,-2.6114 -1.77785,-5.2199 -1.83729,-8.0145 0,-4.8055 6.79612,-4.8055 6.79612,0 z"
         inkscape:connector-curvature="0" />
      <path
         style="fill:#fc9272;fill-opacity:1;stroke:none"
         id="path3043"
         d="m 783.87441,1278.1323 c 2.071,3.0434 3.92399,6.2082 5.63791,9.4638 1.51327,3.3581 3.08757,6.6805 4.39457,10.1263 1.07288,2.9943 2.16656,5.9771 3.36651,8.9232 1.02338,2.7124 2.38793,5.2588 3.61365,7.8773 0.96822,2.28 1.92833,4.5627 2.90426,6.8397 0.9844,1.5797 2.03173,3.1221 3.02583,4.6988 1.32076,2.2687 2.11467,4.7831 3.22939,7.1443 0.76459,1.7351 1.55349,3.4536 2.35526,5.1723 0.81059,1.9582 1.55185,3.9429 2.06291,6.0016 0.54343,1.4834 0.99233,2.9944 1.64619,4.4352 0.92428,1.6824 1.85794,3.3716 3.00801,4.9127 1.11443,1.489 2.25682,2.9436 3.28624,4.498 1.04714,1.7473 1.72343,3.6891 2.8489,5.3928 1.16841,1.525 2.2511,3.1123 3.34159,4.6928 1.22868,1.727 2.26318,3.586 3.22583,5.4716 0.83391,1.8429 1.70411,3.6608 2.40162,5.5626 0.58632,2.0716 1.25651,4.1219 2.13718,6.0881 0.96369,1.8987 2.11432,3.686 3.26021,5.4776 1.27812,1.8686 2.63807,3.6466 3.57884,5.7146 0.49998,1.885 1.40715,3.6061 2.2329,5.3596 0.91695,1.4488 2.09735,2.7096 3.18322,4.0316 1.27304,1.5412 2.38761,3.1813 3.36234,4.9242 0.81591,1.7385 1.46233,3.5355 2.31596,5.2556 0.70836,1.7885 1.74648,3.4144 2.64508,5.1091 0.94643,1.7256 2.05105,3.3505 3.17826,4.9616 1.22593,1.608 2.39696,3.2335 3.41637,4.9812 0.58684,0.8211 0.71575,1.8713 1.25932,2.7107 0.19338,0.2986 0.78002,0.7175 1.01009,0.9337 1.51305,1.1626 2.97556,2.4071 4.33895,3.7442 1.61938,1.7265 2.72823,3.8141 3.86826,5.8647 1.08537,1.8888 1.62428,4.0253 2.513,5.9953 0.58193,1.4593 1.04321,2.9484 2.14042,4.112 1.79214,1.5677 3.38044,3.2637 4.75419,5.2091 1.11023,1.8815 2.22866,3.7714 3.56756,5.5012 1.11732,1.3746 2.12084,2.8477 3.22958,4.2283 1.07493,1.471 1.93061,3.0733 2.73607,4.7021 2.1254,4.31 -3.96989,7.3158 -6.09529,3.0058 l 0,0 c -0.59893,-1.2173 -1.21119,-2.422 -2.00073,-3.5296 -1.09855,-1.4327 -2.15914,-2.8946 -3.28811,-4.3045 -1.3552,-1.8153 -2.61265,-3.7095 -3.7084,-5.6942 -1.24921,-1.786 -2.80433,-3.2149 -4.37671,-4.721 -1.43458,-1.7623 -2.4792,-3.6806 -3.20625,-5.8346 -0.7431,-1.7856 -1.31822,-3.6444 -2.20627,-5.3695 -0.82578,-1.4876 -1.59978,-3.0143 -2.6991,-4.3259 -1.33015,-1.3212 -2.80123,-2.4907 -4.25924,-3.667 -1.54137,-1.486 -2.74018,-3.1001 -3.44787,-5.1368 -0.92536,-1.5867 -2.00671,-3.0488 -3.11727,-4.5134 -1.28555,-1.843 -2.54329,-3.7067 -3.61799,-5.6828 -0.91561,-1.7477 -1.99721,-3.4166 -2.72163,-5.2586 -0.80451,-1.6211 -1.47647,-3.2869 -2.15983,-4.9595 -0.78122,-1.3969 -1.66183,-2.7139 -2.6947,-3.9428 -1.42475,-1.7586 -3.01911,-3.413 -4.07005,-5.4397 -0.84853,-1.81 -1.81454,-3.5938 -2.31498,-5.5411 -0.68323,-1.7725 -2.14438,-3.124 -3.07333,-4.765 -1.33052,-2.0852 -2.66487,-4.169 -3.75194,-6.3957 -0.92413,-2.1215 -1.71285,-4.3018 -2.3163,-6.5372 -0.56683,-1.6485 -1.37951,-3.1853 -2.06616,-4.7831 -0.81372,-1.6239 -1.71346,-3.2144 -2.7659,-4.6959 -1.13113,-1.6586 -2.2896,-3.2974 -3.48531,-4.9111 -1.04442,-1.6945 -1.89724,-3.4843 -2.76865,-5.2687 -0.97487,-1.4721 -2.06162,-2.846 -3.11952,-4.2577 -1.39584,-1.9547 -2.63653,-4.0138 -3.72393,-6.1568 -0.79146,-1.8194 -1.42303,-3.6955 -2.03534,-5.5819 -0.3824,-1.6355 -1.01572,-3.1911 -1.62698,-4.7514 -0.7912,-1.7226 -1.5927,-3.4372 -2.35538,-5.1726 -0.96271,-2.1127 -1.73458,-4.3095 -2.81014,-6.3726 -1.18305,-1.8779 -2.48622,-3.6858 -3.52424,-5.6483 -0.94547,-2.2128 -1.88448,-4.4275 -2.81733,-6.6451 -1.2605,-2.7256 -2.68773,-5.37 -3.74902,-8.188 -1.21559,-2.9993 -2.33934,-6.0302 -3.42708,-9.0778 -1.2011,-3.189 -2.67629,-6.2504 -4.05227,-9.3656 -1.60256,-3.0489 -3.3352,-6.011 -5.27794,-8.858 -2.66565,-3.9985 2.98906,-7.7683 5.65471,-3.7698 z"
         inkscape:connector-curvature="0" />
    </g>
  </g>
</svg>
