<?xml version="1.0" encoding="UTF-8" standalone="no"?>
<!-- Created with Inkscape (http://www.inkscape.org/) -->

<svg
   xmlns:dc="http://purl.org/dc/elements/1.1/"
   xmlns:cc="http://creativecommons.org/ns#"
   xmlns:rdf="http://www.w3.org/1999/02/22-rdf-syntax-ns#"
   xmlns:svg="http://www.w3.org/2000/svg"
   xmlns="http://www.w3.org/2000/svg"
   xmlns:xlink="http://www.w3.org/1999/xlink"
   xmlns:sodipodi="http://sodipodi.sourceforge.net/DTD/sodipodi-0.dtd"
   xmlns:inkscape="http://www.inkscape.org/namespaces/inkscape"
   id="svg2"
   version="1.1"
   inkscape:version="0.48.4 r9939"
   viewbox="0 0 1120 1701"
   sodipodi:docname="46693-859.svg"
   inkscape:export-filename="/tmp/brokenInterface/data-analysis/data/display-damages-png/46693-859.png"
   inkscape:export-xdpi="107.76"
   inkscape:export-ydpi="107.76"
   width="1120"
   height="1701">
  <metadata
     id="metadata8">
    <rdf:RDF>
      <cc:Work
         rdf:about="">
        <dc:format>image/svg+xml</dc:format>
        <dc:type
           rdf:resource="http://purl.org/dc/dcmitype/StillImage" />
        <dc:title />
      </cc:Work>
    </rdf:RDF>
  </metadata>
  <defs
     id="defs6" />
  <sodipodi:namedview
     pagecolor="#ffffff"
     bordercolor="#666666"
     borderopacity="1"
     objecttolerance="10"
     gridtolerance="10"
     guidetolerance="10"
     inkscape:pageopacity="0"
     inkscape:pageshadow="2"
     inkscape:window-width="1280"
     inkscape:window-height="732"
     id="namedview4"
     showgrid="false"
     inkscape:zoom="0.68"
     inkscape:cx="430.28689"
     inkscape:cy="511.4575"
     inkscape:window-x="-8"
     inkscape:window-y="-8"
     inkscape:window-maximized="1"
     inkscape:current-layer="g3063" />
  <g
     inkscape:groupmode="layer"
     id="layer1"
     inkscape:label="Layer"
     transform="translate(0,648.63782)" />
  <g
     id="g3063"
     transform="translate(0,-661.18442)">
    <image
       style="fill:#fc9272"
       y="660.28265"
       x="0.90343809"
       id="image10"
       xlink:href="file:///tmp/broken-interfaces/phone_cropped_display/46693-859.png"
       height="1701"
       width="1120" />
    <path
       inkscape:connector-curvature="0"
       d="m 1032.3201,1868.7024 c 0,-2.6502 0,-5.3004 0,-7.9507 0,-1.9532 0,-3.9065 0,-5.8597 0,-1.615 0,-3.23 0,-4.845 0,-1.4409 0,-2.8818 0,-4.3227 0,-1.4579 0,-2.9158 0,-4.3737 0,-1.7883 0,-3.5767 0,-5.365 0.209,-1.8145 -0.2989,-3.4915 -0.6906,-5.2351 -0.3307,-1.4183 -0.4897,-2.8677 -0.5628,-4.3197 -0.045,-1.7285 -0.03,-3.4581 -0.027,-5.1871 0,-1.6523 0,-3.3046 0.01,-4.9569 9e-4,-1.4898 7e-4,-2.9795 8e-4,-4.4693 0,-1.9618 -10e-5,-3.9236 -10e-5,-5.8853 0,-1.4236 0,-2.8471 0,-4.2707 0,-1.3287 0,-2.6574 0,-3.9861 -0.4848,-0.9842 -0.7539,-2.0879 -0.9816,-3.1594 -0.2536,-1.2745 -0.2827,-2.5735 -0.2977,-3.868 -0.01,-1.268 0,-2.5361 0,-3.8041 0,-0.7793 0,-1.5585 0,-2.3377 -0.089,-1.485 0.084,-2.9062 0.5016,-4.3352 0.3269,-1.0195 0.5785,-2.0484 0.719,-3.1084 0.081,-0.7479 0.062,-1.5041 0.063,-2.2554 -0.1476,-1.5902 0.2096,-3.0736 0.8213,-4.5317 0.3369,-0.6199 0.3685,-1.3089 0.4089,-1.9992 -0.034,-1.8856 0.089,-3.7169 0.4747,-5.5652 0.3252,-1.8834 0.881,-3.6875 1.5062,-5.4894 0.3732,-1.117 0.503,-2.2782 0.5758,-3.4463 0.05,-0.9645 0.039,-1.9309 0.037,-2.8963 -0.01,-1.5568 -0.01,-3.1136 -0.01,-4.6705 -0.06,-2.0376 0.5425,-4.0168 1.0078,-5.9821 0.2181,-1.0225 0.2437,-2.0676 0.2635,-3.1085 0.016,-1.5546 0.01,-3.1094 0.01,-4.6641 0,-1.2227 0,-2.4454 -0.01,-3.6681 -0.1514,-1.8737 0.3583,-3.6643 0.916,-5.4296 0.2145,-0.7289 0.3009,-1.4736 0.3474,-2.228 -0.093,-1.7539 0.3194,-3.4532 0.6538,-5.1612 0.3676,-2.2753 1.1011,-4.4684 1.584,-6.7208 0.2445,-1.249 0.3004,-2.5193 0.3275,-3.7879 0.1856,-1.5008 0.8213,-2.8709 1.1014,-4.3501 0.1337,-0.9432 0.1607,-1.8947 0.172,-2.8457 0.01,-0.9446 8e-4,-1.8892 0,-2.8338 0,-0.808 0,-1.616 0,-2.4239 -0.1401,-1.2854 0.3678,-2.4793 0.7084,-3.69 0.2979,-1.5958 0.7188,-3.1251 1.383,-4.612 0.3304,-0.9234 0.4822,-1.8684 0.7577,-2.8099 0.3996,-0.8562 0.7347,-1.7384 0.886,-2.6709 0.3141,-1.2031 0.9741,-2.2023 1.2002,-3.4158 0.019,-1.5824 0.6083,-3.041 1.0994,-4.5189 0.2478,-0.9246 0.289,-1.8806 0.3254,-2.8317 0.2173,-1.4758 0.8424,-2.8251 1.1188,-4.2865 0.2913,-1.7564 1.0358,-3.4251 1.6676,-5.0831 1.1746,-2.5598 2.3186,-5.1268 3.3703,-7.7405 0.7004,-2.3871 1.6219,-4.7003 2.3128,-7.0909 0.3908,-1.173 0.4367,-2.3963 0.466,-3.6192 0.091,-2.4385 0.6545,-4.835 0.9505,-7.2582 0.013,-2.0108 0.8867,-3.8443 1.3287,-5.7669 0.2651,-1.9739 0.2228,-3.9617 0.4409,-5.941 0.3302,-2.9176 1.2344,-5.7287 1.9899,-8.5564 0.2472,-0.9588 0.3616,-1.9323 0.3885,-2.9188 0.076,-2.2405 0.7686,-4.4248 1.4299,-6.5509 0.5685,-2.427 1.3598,-4.7933 1.8601,-7.2369 0.4897,-1.8326 1.2898,-3.5708 1.6215,-5.4441 0.2684,-2.3746 1.1649,-4.6249 2.1212,-6.7954 1.0282,-2.3192 2.1577,-4.6005 3.3672,-6.8315 0.7232,-1.1912 1.071,-2.5315 1.636,-3.7983 0.9373,-1.7604 1.7467,-3.5984 2.4866,-5.4515 0.6144,-1.4827 1.5328,-2.8792 1.881,-4.4638 0.6245,-1.86 1.4061,-3.6442 2.4209,-5.3235 1.2079,-1.8472 2.0299,-3.8839 2.9744,-5.8686 0.4152,-1.0813 0.9402,-2.1475 1.1037,-3.3024 0.085,-1.6583 0.7933,-3.1689 1.4047,-4.6835 1.4037,-3.172 3.066,-6.2135 4.4216,-9.4105 0.9907,-2.1941 2.3328,-4.2708 2.9131,-6.6287 0.3288,-2.4194 1.5676,-4.5816 2.5977,-6.7563 1.3395,-2.1898 1.9678,-4.676 3.041,-6.9857 0.5673,-1.3198 0.9773,-2.6991 1.3799,-4.0773 0.6195,-2.2371 1.2835,-4.4728 1.999,-6.6829 0.5244,-1.3417 1.0615,-2.662 1.2871,-4.0885 0.1832,-1.5188 0.9693,-2.8793 1.7455,-4.1611 0.6809,-1.3777 1.5419,-2.6681 2.2684,-4.0273 1.1128,-1.8172 1.8857,-3.7997 2.8214,-5.707 0.6411,-1.036 0.8123,-2.1823 1.1398,-3.3287 0.4497,-1.7422 1.4181,-3.275 2.0269,-4.9558 0.4255,-1.3601 1.2185,-2.5631 2.1018,-3.6648 0.7712,-0.812 0.9461,-1.1857 1.7604,-2.1347 0.7279,-0.9495 1.445,-1.9264 2.1921,-2.8684 1.2284,-1.3385 2.2885,-2.7994 3.3996,-4.2347 0.8294,-1.6257 2.5782,-2.7806 3.4173,-4.3623 0.186,-0.6918 0.8293,-1.331 1.1263,-2.229 0.3124,-0.7584 1.2837,-2.1384 1.484,-2.485 0.05,-0.1906 0.096,-0.3816 0.1273,-0.5762 0,0 6.2854,1.0392 6.2854,1.0392 l 0,0 c -0.1296,0.7494 -0.3231,1.4868 -0.6202,2.189 -0.5128,0.985 -1.178,1.8603 -1.6679,2.8544 -0.5903,1.032 -0.8047,1.5468 -1.5297,2.8808 -1.1616,1.5563 -2.5212,2.9575 -3.5867,4.5912 -1.1264,1.452 -2.2073,2.9344 -3.4458,4.2936 -0.8006,1.0074 -1.5117,1.8721 -1.9939,2.605 -0.6698,0.8658 -1.3501,1.6601 -2.0472,2.5072 -0.4733,0.499 -0.8243,1.1421 -1.0231,1.7923 -0.5861,1.579 -1.4372,3.0397 -1.9239,4.6522 -0.5584,1.3725 -0.6028,2.9831 -1.5044,4.2434 -0.975,1.983 -1.7775,4.0482 -2.9405,5.9376 -0.8511,1.5512 -1.7966,3.0415 -2.6211,4.6022 0.055,-0.6108 -0.9176,1.805 -0.7065,1.5863 -0.2966,1.7461 -0.8375,3.4102 -1.5218,5.0431 -0.7274,2.1518 -1.3404,4.3551 -1.9539,6.5408 -0.5165,1.6602 -0.9762,3.3434 -1.7076,4.9302 -1.0949,2.3059 -1.6773,4.8301 -3.0533,7.0119 -0.8717,1.8342 -1.9521,3.6193 -2.1985,5.6692 -0.7318,2.6309 -1.9604,5.0576 -3.206,7.4795 -1.3481,3.1576 -2.9548,6.1828 -4.3769,9.3026 -0.5298,1.3098 -0.9981,2.059 -1.0208,3.3039 -0.2952,1.753 -0.931,3.4088 -1.6423,5.0338 -1.0451,2.1941 -1.9819,4.4363 -3.3093,6.4828 -0.7252,1.1206 -1.1799,2.3539 -1.6757,3.587 -0.5083,1.8262 -1.282,3.5487 -2.138,5.2376 -0.7827,1.9149 -1.6025,3.8336 -2.5742,5.6575 -0.6268,1.404 -1.0105,2.9197 -1.855,4.2421 -1.1342,2.0854 -2.1901,4.2199 -3.1493,6.3904 -0.7815,1.7152 -1.4892,3.5027 -1.6801,5.3909 -0.3771,1.8988 -0.9991,3.7215 -1.6416,5.5453 -0.5552,2.6427 -1.3774,5.2115 -2.0145,7.8336 -0.4917,1.5807 -1.0755,3.207 -1.1455,4.8595 -0.051,1.4734 -0.227,2.9326 -0.6013,4.3625 -0.6778,2.5365 -1.5046,5.0557 -1.8191,7.6689 -0.299,2.2172 -0.078,4.4855 -0.575,6.6845 -0.4193,1.681 -1.1454,3.2915 -1.1971,5.0439 -0.2745,2.2198 -0.7811,4.4194 -0.9049,6.6436 -0.047,1.7679 -0.1719,3.5348 -0.7165,5.2319 -0.7557,2.595 -1.7389,5.1125 -2.5226,7.698 -1.0406,2.5749 -2.1495,5.1171 -3.3275,7.6312 -0.5145,1.3439 -1.1704,2.6867 -1.3645,4.0221 -0.2166,1.0992 -0.4633,2.4064 -1.0074,3.3251 -0.062,1.5489 -0.1841,3.1012 -0.646,4.5912 -0.4194,1.26 -0.9086,2.3801 -0.8943,3.742 -0.2286,1.1225 -0.5025,2.3641 -1.1733,3.2707 -0.2291,1.2776 -0.5878,2.5365 -1.1573,3.7077 -0.1673,0.7006 -0.4919,2.3529 -0.9579,3.3078 -0.5636,1.2249 -0.7801,2.4874 -1.0812,3.8015 -0.3561,1.1665 -0.4528,1.5046 -0.4877,1.4751 -0.071,-0.06 0.074,-1.6712 0.043,0.398 5e-4,0.8031 0,1.6063 0,2.4095 0,0.9774 0.01,1.9549 0,2.9324 -0.017,1.3307 -0.069,2.663 -0.288,3.9785 -0.2131,1.0816 -0.4514,2.3731 -0.9864,3.2776 -0.038,1.6719 -0.1334,3.3448 -0.4686,4.9879 -0.4781,2.2144 -1.1872,4.3726 -1.5605,6.6062 -0.2861,1.4575 -0.6581,2.8442 -0.5477,4.3431 -0.083,1.2689 -0.2615,2.5251 -0.6323,3.7458 -0.3751,1.1783 -0.7717,2.2451 -0.6181,3.5011 6e-4,1.2191 0,2.4383 0,3.6574 0,1.6017 0.01,3.2035 -0.01,4.8051 -0.031,1.4922 -0.1,2.9879 -0.4336,4.449 -0.3513,1.4836 -0.8597,2.9778 -0.8364,4.509 0,1.5527 0,3.1054 0.01,4.658 0,1.1079 0.013,2.2169 -0.05,3.3236 -0.1148,1.7395 -0.3505,3.467 -0.9147,5.1254 -0.5394,1.5542 -1.0362,3.0833 -1.2917,4.7177 -0.333,1.5516 -0.3469,3.0838 -0.3515,4.6764 -0.1006,1.3876 -0.2784,2.7852 -0.8974,4.0519 -0.1047,0.2449 -0.094,0.8936 -0.3091,0.737 -0.1186,-0.086 0,-0.5859 -0.013,-0.4398 -0.046,0.583 0.039,1.1763 0,1.7601 0,1.0349 0.013,2.0748 -0.1202,3.1032 -0.1919,1.3989 -0.5092,2.7673 -0.9387,4.1133 -0.2652,0.7955 -0.2634,1.5958 -0.2244,2.4793 -4e-4,0.7837 0,1.5674 0,2.3511 0,1.239 -0.01,2.478 0,3.7171 0.01,0.8994 0.01,1.8038 0.1748,2.6915 0.2512,1.4987 1.0967,2.8501 1.1048,4.4064 0,1.3287 0,2.6574 0,3.9861 0,1.4235 0,2.8471 0,4.2706 0,1.9618 10e-5,3.9236 10e-5,5.8854 -10e-5,1.4914 10e-5,2.9828 -8e-4,4.4742 0,1.6537 0,3.3074 -0.01,4.9611 0,1.622 -0.015,3.2444 0.02,4.866 0.052,1.0891 0.1654,2.1772 0.4167,3.2403 0.4873,2.1874 1.0491,4.3594 0.8443,6.6265 0,1.7883 0,3.5767 0,5.365 0,1.4579 0,2.9158 0,4.3737 0,1.4409 0,2.8818 0,4.3227 0,1.615 0,3.23 0,4.845 0,1.9532 0,3.9065 0,5.8597 0,2.6503 0,5.3005 0,7.9507 0,0 -6.3707,0 -6.3707,0 z"
       id="path3017"
       style="fill:#de2d26;fill-opacity:1;fill-rule:nonzero;stroke:none" />
    <path
       inkscape:connector-curvature="0"
       d="m 1139.1318,1988.6736 c -2.0561,0.6927 -4.0234,1.4991 -5.9728,2.4432 -0.9936,0.8762 -2.1874,1.5133 -3.3106,2.2122 -1.1799,0.5401 -1.9635,1.4647 -2.9183,2.2961 -1.1557,0.8917 -2.1093,1.9619 -3.0865,3.0255 -0.9648,1.0176 -1.6611,2.2079 -2.6421,3.2316 -0.9005,0.9331 -1.6443,1.9806 -2.4445,2.9899 -0.9333,0.8725 -1.4124,1.8476 -2.3921,2.7487 0.2664,-0.1525 -0.9746,1.2601 -1.2385,1.6378 0.4676,-0.3184 -0.9281,1.9731 -1.0012,2.2625 -0.3026,0.8782 -1.0495,1.842 -1.3907,2.5767 -0.4869,0.8736 -1.0662,1.6112 -1.4595,2.5243 -0.5185,0.7426 -0.9054,1.4592 -1.2145,2.2971 0.1419,0.7112 -0.5603,1.8471 -0.8596,2.6403 -0.1673,1.2814 -0.7411,2.4262 -1.2082,3.6113 -0.3888,0.9152 -0.4173,1.9139 -0.4693,2.892 0.1242,1.6416 -0.4877,3.157 -0.9292,4.7022 -0.2835,0.8885 -0.3271,1.8232 -0.3606,2.748 -0.031,1.2066 -0.023,2.4139 -0.02,3.6207 0,1.5209 0.01,3.0417 0.01,4.5625 -0.069,1.4564 -0.7723,2.7261 -1.173,4.0948 -0.086,0.6163 -0.098,1.2366 -0.1061,1.8579 -0.01,1.2691 0,2.5382 0,3.8073 0,1.1837 0,2.3675 0,3.5513 3e-4,1.9886 2e-4,3.9771 2e-4,5.9657 0,2.3254 0,4.6508 0,6.9762 0.1059,2.1996 -0.2031,4.4383 0.1284,6.6202 0.4387,2.007 0.7937,4.0266 0.9886,6.0718 0.1496,1.7522 0.1579,3.5122 0.1655,5.2695 0,1.1812 0,2.3624 -0.01,3.5436 -0.04,-1.709 0.9555,2.415 0.9708,2.4854 0.2532,1.4952 0.2852,3.0168 0.3055,4.5298 -0.1057,1.2415 0.335,1.9985 0.6715,3.3238 0.4314,1.6832 0.5176,3.4245 0.579,5.1529 -0.1444,1.3236 0.1471,2.4367 0.489,3.682 0.4826,1.768 0.6286,3.5809 1.0429,5.3633 0.7099,1.9624 0.3912,4.2026 1.022,6.1606 0.4926,1.8066 0.8504,3.631 1.3844,5.4242 0.6708,2.3884 0.8639,4.8565 1.3939,7.2741 0.4881,2.0361 0.6171,4.1201 1.2173,6.1218 0.5785,2.0208 0.9399,4.1392 1.7493,6.0858 0.6953,1.9971 1.5145,3.9483 2.1823,5.9545 0.9241,2.2636 1.7896,4.5488 2.711,6.8134 0.7642,1.9984 1.7421,3.901 2.5226,5.892 0.4942,1.4077 1.0687,2.8098 1.6848,4.176 0.6961,1.9162 1.4418,3.8098 2.2569,5.6813 0.7536,1.9717 1.7196,3.8449 2.7531,5.6783 0.739,1.5382 1.5619,3.0479 2.5087,4.4711 0.8822,1.5156 1.708,3.1007 2.8019,4.4765 0.8608,1.2527 1.6682,2.5319 2.6067,3.7284 0.5331,0.6164 1.089,1.2127 1.6597,1.7942 0.027,0.026 0.051,0.055 0.077,0.082 0,0 -4.1785,4.8089 -4.1785,4.8089 l 0,0 c -0.1529,-0.1396 -0.3042,-0.2808 -0.4473,-0.4307 -0.7357,-0.7509 -1.4537,-1.5203 -2.1274,-2.3276 -0.9601,-1.2286 -1.8194,-2.5209 -2.6781,-3.8213 -1.1169,-1.5231 -2.145,-3.1222 -3.0268,-4.7948 -1.0233,-1.5527 -1.9388,-3.1885 -2.7468,-4.8606 -1.1433,-2.0321 -2.2118,-4.1096 -3.0548,-6.2882 -0.7965,-1.8707 -1.5668,-3.7533 -2.2505,-5.6663 -0.6141,-1.4517 -1.2431,-2.9113 -1.7735,-4.3915 -0.7638,-1.9691 -1.7472,-3.8436 -2.4943,-5.8208 -0.965,-2.4015 -1.9059,-4.8104 -2.8585,-7.2173 -0.6104,-1.9087 -1.4241,-3.7505 -2.0727,-5.6467 -0.7906,-2.1379 -1.3621,-4.351 -1.9114,-6.5616 -0.6374,-2.1598 -0.8676,-4.3751 -1.334,-6.575 -0.4951,-2.2667 -0.7157,-4.5677 -1.2763,-6.8178 -0.5641,-1.8947 -0.9541,-3.8198 -1.4668,-5.7283 -0.4526,-2.0608 -0.5341,-4.1803 -1.0399,-6.2355 -0.3939,-1.7023 -0.5706,-3.424 -0.9805,-5.117 -0.4644,-1.6939 -0.8306,-3.375 -0.7121,-5.1444 -0.044,-1.2827 -0.08,-2.5806 -0.393,-3.8319 -0.3845,-1.5773 -1.007,-3.1276 -0.8608,-4.7838 -0.014,-1.0974 -0.035,-2.1983 -0.1668,-3.2889 -0.2696,-1.3197 -0.9836,-2.4657 -1.1101,-3.8276 0,-1.1664 0.01,-2.3328 0.01,-3.4992 -0.01,-1.5693 -0.01,-3.1411 -0.1382,-4.7062 -0.1788,-1.984 -0.5869,-3.9291 -0.9681,-5.8822 -0.2669,-2.4599 -0.1642,-4.9278 -0.1763,-7.4003 0,-2.3254 0,-4.6508 0,-6.9762 0,-1.9878 10e-5,-3.9757 -2e-4,-5.9636 -4e-4,-1.1794 -9e-4,-2.3589 0,-3.5384 0,-1.3046 -0.01,-2.6091 0,-3.9136 0.018,-1.1994 0.066,-2.4029 0.3664,-3.5714 0.2211,-0.7438 0.4581,-1.7764 0.912,-2.2854 0,-1.5178 0,-3.0356 -0.01,-4.5534 0,-1.2943 -0.012,-2.5889 0.025,-3.8828 0.059,-1.4348 0.1736,-2.8758 0.6025,-4.2554 0.4561,-1.5865 0.7729,-1.7868 0.692,-3.2957 0.095,-1.6877 0.2612,-3.3812 0.9336,-4.9537 0.5097,-1.2222 0.966,-2.3818 1.2448,-3.6989 0.1132,-0.2553 0.2195,-0.5137 0.3396,-0.7658 0.023,-0.047 0.08,-0.1822 0.088,-0.1304 0.021,0.142 -0.085,0.5657 -0.044,0.4283 0.1822,-0.6081 0.043,-1.3269 0.3695,-1.9056 0.3167,-0.8395 0.8245,-2.1608 1.3459,-2.621 0.1865,-0.4218 1.1797,-2.5813 1.3556,-2.2724 0.5815,-1.3312 1.2603,-2.1566 1.4616,-2.7519 0.5309,-1.1717 1.1726,-2.2677 1.6647,-3.4566 1.056,-1.4871 1.2099,-1.4116 2.2728,-2.7802 -0.176,0.7062 1.0772,-1.6888 1.6383,-1.9747 1.0295,-1.1437 1.8185,-2.5209 2.9779,-3.5638 0.7932,-0.9051 1.4326,-2.1252 2.3826,-2.9701 1.1579,-1.193 2.2264,-2.4691 3.5626,-3.4838 1.2051,-1.0402 2.2962,-2.2165 3.7592,-2.9127 1.323,-0.7943 2.6004,-1.6298 3.8679,-2.5172 2.0816,-1.0078 4.1936,-1.8795 6.3832,-2.6244 0,0 2.366,5.9151 2.366,5.9151 z"
       id="path3019"
       style="fill:#de2d26;fill-opacity:1;fill-rule:nonzero;stroke:none" />
    <path
       inkscape:connector-curvature="0"
       d="m 1009.8853,1996.332 c -1.8311,0.7723 -3.7966,1.1535 -5.5536,2.0902 -0.6051,0.6245 -1.9899,1.151 -2.2676,2.0304 -0.9665,1.0664 -1.8676,2.161 -2.74355,3.3041 -1.04643,1.3496 -2.13772,2.6541 -3.1169,4.053 -0.59776,0.9319 -1.1497,1.8789 -1.84344,2.7444 -0.38644,0.4254 -1.04594,1.5366 -1.6827,2.4711 0.0106,0.1136 -1.93603,2.4761 -1.1313,1.5731 -0.30779,0.6167 -0.68309,1.1925 -1.03346,1.7839 -0.0602,0.1016 -0.21323,0.4188 -0.17837,0.306 0.49039,-1.5871 0.38813,-0.6153 0.44784,-1.399 0.33509,0.8436 0.52748,1.8502 0.64971,2.795 -0.51438,-1.8589 0.98718,1.7006 1.18126,2.0803 0.83817,1.6527 0.99743,3.5078 1.59905,5.237 0.65534,1.7841 0.93234,3.65 1.07946,5.5348 0.10994,2.1822 0.0904,4.3685 0.0894,6.5528 -0.17758,2.3304 0.32918,4.5951 0.71394,6.8779 0.40324,2.3602 0.48038,4.7556 0.5315,7.144 0.0336,1.9822 0.0274,3.9648 0.0245,5.9472 -0.19673,1.8484 0.13639,3.5547 0.50529,5.3439 0.44899,2.2661 0.61085,4.574 0.71657,6.8775 0.0627,1.7921 0.0552,3.5858 0.0537,5.3787 0.0493,1.689 0.58493,3.3464 0.87164,5.0203 0.0849,1.766 0.37034,3.4151 0.84844,5.1028 0.45002,1.3619 0.67092,2.7669 0.77522,4.1926 0.073,1.3093 0.055,2.622 0.053,3.9329 0.025,1.2534 0.5629,2.4639 0.8418,3.7001 0.3234,1.7115 0.3889,3.4534 0.4208,5.1901 0.1111,1.2345 -0.1098,2.4993 0.01,3.7312 0.01,0.1007 0.025,-0.2008 0.037,-0.3012 0.497,1.1275 0.8202,2.3137 1.0427,3.5222 0.049,1.3074 0.5715,2.4713 0.879,3.7433 0.13,1.5061 0.7576,2.8345 1.1999,4.2622 0.2937,1.5752 0.9159,3.0407 1.318,4.589 0.6556,1.7463 0.1545,3.771 0.692,5.5102 0.609,1.5682 0.5328,3.3494 1.0899,4.9138 0.5581,1.8471 0.9256,3.7305 1.4756,5.5781 0.835,1.999 0.5514,4.2985 1.1732,6.3234 0.5182,1.6911 0.8654,3.4224 1.1157,5.171 0.186,1.6739 0.1694,3.3625 0.1735,5.0444 0.022,1.918 0.5883,3.7925 0.8797,5.6881 0.2362,1.7016 0.2315,3.3882 0.6503,5.0499 0.5867,1.9052 0.7899,3.8892 0.9239,5.8689 0.555,1.7863 0.8991,3.6095 1.1162,5.4649 0.4288,2.2929 1.1495,4.5021 1.7591,6.7485 0.7668,2.5874 1.6838,5.1249 2.4788,7.7032 0.706,2.1505 1.5946,4.2204 2.4561,6.3099 0.7349,1.8228 1.3678,3.678 2.0534,5.5185 0.6574,1.4822 1.1911,3.0041 1.5045,4.5953 0,-0.072 -0.043,-0.2748 10e-5,-0.2167 0.5882,0.7979 0.9007,2.0972 1.144,3.0275 0.255,1.4879 0.1252,0.7518 0.8164,2.3131 0.7528,1.6989 1.1447,3.5101 1.6969,5.2764 0.7724,2.3165 1.0347,4.7382 1.7189,7.074 0.4959,2.1909 0.9767,4.3628 1.5728,6.5294 0.3318,2.1398 1.0437,4.1797 1.5353,6.2822 0.2091,1.8116 0.8644,3.5016 1.2922,5.2635 0.5898,2.5273 0.9577,5.1118 1.579,7.6302 0.6511,2.98 1.2861,5.9599 1.9352,8.9421 0.7568,2.382 1.4532,4.7688 1.8781,7.2333 0.7025,1.4989 0.7055,3.2738 1.3468,4.7718 0.6659,1.7882 1.0011,3.6576 1.5829,5.4703 0.4554,1.6703 0.9043,3.2973 1.5056,4.9204 0.6656,2.004 0.7733,4.1116 1.2241,6.165 0.3984,2.5428 1.1522,5.0008 1.651,7.5236 0.832,2.7951 1.3387,5.6668 1.9637,8.5122 0.6081,3.2041 1.1545,6.4296 1.9753,9.5883 0.5312,2.3678 1.2673,4.656 2.0543,6.945 0.3125,1.2484 0.9014,2.3559 1.5242,3.4738 1.0491,2.6897 2.2951,5.2886 3.4761,7.9206 1.3262,2.9297 2.3596,5.9769 3.7432,8.8813 0.9734,2.0653 2.121,4.04 2.9004,6.1892 0.6752,1.5082 1.4603,2.9579 2.1641,4.4526 0.5625,1.2021 1.3466,2.2526 1.8744,3.478 0.2782,1.4822 0.9093,2.7901 1.5041,4.1673 1.0326,2.1127 2.085,4.2155 3.1765,6.2987 0.6351,1.4243 1.3538,2.7017 2.2212,3.9715 0.428,0.6837 0.8117,1.3963 1.1173,2.1432 0.09,0.2118 0.1438,0.4344 0.1995,0.657 0,0 -6.2389,1.2891 -6.2389,1.2891 l 0,0 c 0.037,0.1429 0.067,0.2877 0.1258,0.4235 -0.1489,-0.3418 -0.3192,-0.6745 -0.5139,-0.9932 -0.9082,-1.4902 -1.876,-2.9196 -2.5593,-4.5444 -1.1573,-2.2263 -2.293,-4.463 -3.3793,-6.7252 -0.5838,-1.3596 -1.3382,-2.748 -1.5311,-4.2312 -0.4402,-1.1422 -1.3714,-2.044 -1.7621,-3.225 -0.7935,-1.6928 -1.6991,-3.3283 -2.4122,-5.0599 -0.6347,-1.9558 -1.8501,-3.6782 -2.6466,-5.5696 -1.3853,-2.9512 -2.4817,-6.0175 -3.7972,-8.9987 -1.1103,-2.4839 -2.3284,-4.9223 -3.2592,-7.4823 -0.7664,-1.431 -1.5388,-2.8701 -1.9535,-4.4507 -0.8369,-2.4509 -1.6261,-4.9029 -2.2002,-7.4336 -0.8153,-3.2349 -1.4268,-6.5193 -2.0255,-9.7998 -0.6343,-2.8933 -1.1599,-5.8074 -1.9929,-8.6528 -0.4799,-2.4773 -1.2402,-4.8883 -1.6224,-7.3857 -0.3865,-1.7691 -0.5505,-3.562 -0.9752,-5.3156 -0.6318,-1.7069 -1.121,-3.4334 -1.5972,-5.1856 -0.5715,-1.7807 -0.9191,-3.6073 -1.5488,-5.367 -0.5936,-1.8962 -0.9753,-3.8562 -1.5949,-5.7499 -0.4001,-2.373 -1.1503,-4.6459 -1.8236,-6.9529 -0.6373,-2.9387 -1.2618,-5.876 -1.9054,-8.8113 -0.5928,-2.5312 -1.0075,-5.1051 -1.5815,-7.6409 -0.4085,-1.7769 -1.0999,-3.4823 -1.3024,-5.307 -0.4546,-2.0176 -1.1718,-3.9696 -1.47,-6.0236 -0.5852,-2.1335 -1.0789,-4.2719 -1.5453,-6.4321 -0.675,-2.3194 -0.9798,-4.7045 -1.7003,-7.0114 -0.4511,-1.5205 -0.7607,-3.0991 -1.4254,-4.5452 -0.4758,-1.0749 -1.0155,-2.1524 -1.167,-3.3292 -0.2647,-1.1305 -0.9599,-2.1011 -1.2368,-3.238 -0.1656,-1.25 -0.8024,-2.3822 -1.2227,-3.5532 -0.6323,-1.7668 -1.253,-3.5276 -1.9566,-5.2685 -0.9365,-2.2731 -1.8929,-4.5315 -2.6572,-6.8715 -0.805,-2.6486 -1.758,-5.2503 -2.5378,-7.9076 -0.6865,-2.554 -1.5134,-5.0688 -1.9386,-7.6878 -0.2167,-1.9639 -0.7642,-3.8324 -1.1433,-5.7664 -0.1033,-1.6043 -0.2562,-3.2106 -0.7491,-4.7505 -0.4597,-1.864 -0.5786,-3.7299 -0.7669,-5.6334 -0.3295,-2.2068 -1.0015,-4.3814 -0.9518,-6.6286 0,-1.3875 0.011,-2.7795 -0.1101,-4.1628 -0.2198,-1.5576 -0.5455,-3.0926 -1.0073,-4.5982 -0.422,-1.9812 -0.4963,-4.0233 -1.0803,-5.9757 -0.5574,-1.8726 -0.9427,-3.7777 -1.4967,-5.6507 -0.4651,-1.7821 -0.6691,-3.6184 -1.2053,-5.3875 -0.3031,-1.7352 -0.2938,-3.4927 -0.6274,-5.2258 -0.34662,-1.4539 -0.98895,-2.8218 -1.23848,-4.3018 -0.44693,-1.5471 -1.15572,-3.0226 -1.30333,-4.6478 -0.30961,-1.3836 -0.91468,-2.7033 -0.95877,-4.1391 -0.12281,-1.0129 -0.59617,-1.9346 -0.90414,-2.8957 -0.31469,-1.6639 -0.29339,-3.311 -0.27338,-5.0038 -0.0229,-1.3166 -0.0603,-2.6369 -0.27388,-3.9393 -0.35209,-1.6873 -1.10572,-3.3137 -0.98982,-5.0739 0.002,-1.1575 0.0181,-2.3165 -0.0374,-3.473 -0.0674,-0.9938 -0.21846,-1.9619 -0.55018,-2.9078 -0.5383,-1.9018 -0.91323,-3.7954 -1.00012,-5.7754 -0.33757,-2.0255 -0.99448,-4.0212 -0.96097,-6.0886 10e-4,-1.6946 0.009,-3.3897 -0.0471,-5.0835 -0.089,-1.9689 -0.21583,-3.943 -0.59201,-5.8814 -0.45367,-2.2016 -0.81817,-4.3789 -0.63646,-6.6393 0.003,-1.9344 0.009,-3.8689 -0.0231,-5.8031 -0.0435,-2.0787 -0.0971,-4.165 -0.44432,-6.22 -0.44314,-2.6291 -0.97812,-5.2573 -0.80255,-7.9396 9.4e-4,-2.0239 0.0181,-4.0494 -0.0715,-6.0717 -0.0964,-1.3491 -0.27404,-2.6784 -0.75514,-3.9529 -0.49203,-1.458 -0.7374,-2.966 -1.25005,-4.4109 -0.6869,-1.3578 -1.31528,-2.7417 -1.82331,-4.176 -0.0917,-0.7808 -0.31324,-1.5297 -0.56293,-2.276 -0.0523,-0.3824 -0.19224,-0.7628 -0.15702,-1.1472 0.13392,-1.461 0.17897,-1.5436 0.67319,-2.3699 0.0434,-0.072 0.63404,-1.0526 0.66174,-1.0413 0.20709,0.084 -0.1659,0.4151 -0.24885,0.6227 0.43173,-1.2316 1.15475,-2.2373 1.95549,-3.2532 0.74819,-1.0653 1.24193,-1.8926 1.97769,-2.8656 0.62098,-0.7516 1.0247,-1.6572 1.61277,-2.4416 1.04216,-1.4373 2.13474,-2.831 3.24125,-4.2208 0.83816,-1.0938 1.69735,-2.1685 2.64321,-3.1694 1.24738,-1.5883 2.75258,-2.9164 4.49807,-3.9488 2.3022,-1.1692 4.7936,-1.8445 7.2308,-2.6786 0,0 1.2494,6.247 1.2494,6.247 z"
       id="path3021"
       style="fill:#de2d26;fill-opacity:1;fill-rule:nonzero;stroke:none" />
    <path
       inkscape:connector-curvature="0"
       d="m 1034.2039,1864.8251 c 1.7077,1.2199 3.4196,2.4366 5.1989,3.5548 1.0702,0.1947 1.8548,1.2335 2.8864,1.4578 1.1807,0.186 2.277,0.6349 3.3562,1.1461 0.4749,0.2803 1.0117,0.3274 1.551,0.3693 1.3265,-0.023 2.5441,0.5458 3.7366,1.0553 0.6372,0.1573 1.2945,0.202 1.9488,0.2292 1.4678,-0.1035 2.8344,0.2827 4.1669,0.8664 0.6436,0.2354 1.3052,0.33 1.9823,0.3936 1.371,-0.089 2.6139,0.3476 3.8612,0.8602 0.6635,0.3514 1.3578,0.3544 2.0897,0.4085 1.464,-0.086 2.7397,0.3304 3.9631,1.1105 0.5605,0.2486 0.077,0.1443 0.7784,0.1677 1.2712,-0.053 2.3893,0.5784 3.5447,1.0003 0.3103,0.1114 0.6237,0.2134 0.9377,0.3136 0,0 -1.9411,6.0678 -1.9411,6.0678 l 0,0 c -0.4025,-0.1291 -0.8042,-0.2603 -1.2015,-0.4045 -0.2991,-0.1111 -2.2567,-0.6523 -0.9551,-0.583 0.3215,0.017 -1.4334,-0.059 -0.9643,-0.05 -1.2703,-0.1352 -2.5251,-0.4033 -3.6049,-1.1283 -1.3744,-0.9238 -0.4713,-0.2766 -0.1853,-0.2037 0.2888,0.074 0.5986,0.04 0.8865,0.117 1.7716,0.4746 -3.313,-0.558 -1.7412,-0.055 -1.3976,-0.1085 -2.7937,-0.2746 -4.0745,-0.8876 -0.2128,-0.091 -0.4306,-0.1702 -0.6384,-0.2717 -0.1088,-0.053 1.0887,-0.9923 0.358,-0.06 -0.569,-0.07 -1.162,0.037 -1.7308,-0.062 -1.3479,-0.1345 -2.673,-0.3884 -3.9331,-0.9043 -0.2412,-0.1072 -0.9516,-0.1802 -0.7258,-0.3169 0.1535,-0.093 0.7014,-0.062 0.538,0.012 -0.4687,0.2126 -1.2178,-0.1574 -1.7133,-0.028 -1.4092,-0.072 -2.8243,-0.2176 -4.1505,-0.7349 -0.7483,-0.3202 -1.3489,-0.5131 -1.3171,-0.5495 0.1219,-0.1394 0.6139,-0.1453 0.5546,0.03 -0.01,0.022 -0.952,-0.043 -1.0175,-0.047 -1.288,-0.1173 -2.5711,-0.3589 -3.7319,-0.9597 -1.068,-0.5067 -1.3336,-0.5688 -3.0258,-1.0008 -1.4347,-0.631 -2.4434,-1.3844 -3.8805,-1.9675 -1.9254,-1.2126 -3.7766,-2.5333 -5.6288,-3.8505 0,0 3.8224,-5.0966 3.8224,-5.0966 z"
       id="path3023"
       style="fill:#de2d26;fill-opacity:1;fill-rule:nonzero;stroke:none" />
    <path
       inkscape:connector-curvature="0"
       d="m 1048.5606,1809.2113 c 1.7329,1.7293 3.2229,3.6765 4.9962,5.3671 0.957,0.9456 1.8776,2.2274 3.1035,2.8552 1.4684,1.1011 2.9739,2.1438 4.4029,3.2993 1.3167,1.1663 2.7192,2.1989 3.9489,3.4626 0.7431,0.711 1.5175,1.287 2.3785,1.9047 1.6035,1.1958 3.3357,2.211 5.0286,3.2772 1.5747,1.1174 2.9776,2.4371 4.5294,3.5838 0.6246,0.4535 1.0961,0.7378 0.2477,0.2198 0.6002,0.2669 1.2434,0.4529 1.8008,0.8005 1.7099,1.0662 1.5849,3.3511 1.0314,5.0067 -0.1627,0.4865 -0.7404,0.7103 -1.1106,1.0655 0,0 -3.5041,-5.3205 -3.5041,-5.3205 l 0,0 c -1.8294,2.009 -1.4615,4.2886 1.0828,4.78 -1.2488,-0.1578 -2.3718,-0.6243 -3.34,-1.4328 -1.4249,-1.0575 -2.7385,-2.2374 -4.1421,-3.3185 -1.7946,-1.1384 -3.6338,-2.215 -5.3385,-3.486 -1.1451,-0.8222 -2.1859,-1.7324 -3.2438,-2.652 -1.0403,-1.0865 -2.2725,-1.9227 -3.3779,-2.9397 -1.2509,-1.0143 -2.5728,-1.9293 -3.8531,-2.9007 -1.4926,-1.0206 -2.8869,-2.2203 -4.0539,-3.6069 -1.797,-1.7312 -3.3534,-3.6756 -5.0914,-5.4606 0,0 4.5047,-4.5047 4.5047,-4.5047 z"
       id="path3027"
       style="fill:#de2d26;fill-opacity:1;fill-rule:nonzero;stroke:none" />
    <path
       inkscape:connector-curvature="0"
       d="m 1077.5247,1877.5665 c 2.3789,1.5558 5.0999,2.4227 7.7336,3.4281 2.5111,1.1334 5.2528,1.3538 7.9011,1.9509 1.8564,0.5469 3.7558,0.9 5.682,1.0643 1.9887,0.065 3.8829,0.748 5.8309,1.094 1.4112,0.2106 2.8374,0.2608 4.2617,0.2884 1.4483,-0.043 2.839,10e-5 4.2632,0.2604 1.1786,0.5131 2.413,0.7637 3.6845,0.8868 1.8464,0.067 3.6347,0.1298 5.4273,0.6207 1.1467,0.386 2.3227,0.602 3.5232,0.7144 1.6711,0.091 3.3464,0.073 5.0195,0.074 2.0635,-0.1533 4.0377,0.2159 5.9231,1.042 -0.5586,-1.1837 -3.9894,0.7822 -3.619,1.4592 0.8001,1.4621 1.8229,2.7909 2.7343,4.1864 0,0 -0.2971,-6.3638 -0.2971,-6.3638 l 0,0 c 1.2073,1.3817 2.5755,2.6379 3.622,4.145 0.1381,0.1988 -0.1575,0.4608 -0.2781,0.6706 -1.025,1.7838 -2.8655,2.2797 -4.7816,1.7098 -1.0638,-0.5188 -2.1235,-0.5687 -3.3065,-0.4785 -1.8759,-9e-4 -3.7549,0.021 -5.6277,-0.1034 -1.5864,-0.156 -3.1498,-0.437 -4.669,-0.9322 -1.401,-0.4422 -2.8739,-0.219 -4.3288,-0.4077 -1.5714,-0.1707 -3.1849,-0.4038 -4.6378,-1.06 0.8319,-0.1643 -2.6445,0.031 -2.7769,-0.054 -1.7641,-0.035 -3.5306,-0.1097 -5.2757,-0.3899 -1.757,-0.3247 -3.4698,-0.9216 -5.2528,-1.0161 -2.2274,-0.2025 -4.4333,-0.5777 -6.5826,-1.2095 -2.8988,-0.7341 -5.9632,-0.8829 -8.7143,-2.201 -3.1835,-1.2193 -6.46,-2.3074 -9.2809,-4.2821 0,0 3.8224,-5.0966 3.8224,-5.0966 z"
       id="path3033"
       style="fill:#fc9272;fill-opacity:1;fill-rule:nonzero;stroke:none" />
    <path
       inkscape:connector-curvature="0"
       d="m 1077.8659,1834.6941 c 1.6942,1.8779 3.7135,3.3917 5.6893,4.9525 1.4377,1.3406 3.1281,2.3337 4.7132,3.4805 1.3925,0.7815 2.6781,1.7369 4.1264,2.4125 1.0421,0.3376 1.85,1.1968 2.9343,1.4119 1.349,0.1807 2.5808,0.7854 3.9061,1.0736 1.8342,0.4638 3.6193,1.0407 5.4865,1.3809 2.0402,0.5628 4.0632,1.1383 6.0023,1.9883 1.1609,0.5511 2.4215,0.7821 3.6257,1.2089 1.3913,0.5162 2.7727,1.0593 4.1589,1.5982 1.7585,0.7452 3.4057,1.7484 5.1956,2.4137 1.6144,0.9458 3.404,1.4888 5.0683,2.3113 0.5549,0.3309 1.676,0.9136 1.8904,0.9457 0.1292,0.021 0.2591,0.036 0.3892,0.05 1.0506,1.0053 2.1013,2.0106 3.152,3.0159 0,0 -6.3007,0.9422 -6.3007,0.9422 l 0,0 c 1.0206,0.804 2.0412,1.608 3.0617,2.412 -0.6034,-0.015 -1.2029,-0.097 -1.7924,-0.2264 -1.2529,-0.324 -2.3649,-0.9127 -3.4782,-1.562 -1.3936,-0.5718 -2.9366,-1.1576 -4.2895,-1.9477 -1.7812,-0.7059 -3.4727,-1.6043 -5.2061,-2.4178 -1.4559,-0.5668 -2.8959,-1.1467 -4.3624,-1.6814 0.7995,-0.044 -4.6608,-1.0838 -3.6709,-1.2285 -1.4887,-0.6532 -3.0392,-1.0703 -4.5956,-1.557 -1.9628,-0.3633 -3.8501,-0.9434 -5.7724,-1.4402 -1.5308,-0.3672 -2.7608,-0.9385 -4.2645,-1.1677 -1.3763,-0.4384 -2.5977,-1.1148 -3.8716,-1.7696 -1.7951,-0.8626 -3.4384,-1.9841 -5.1395,-3.0145 -1.6455,-1.2042 -3.417,-2.2364 -4.9159,-3.6341 -2.1698,-1.7141 -4.3743,-3.3958 -6.245,-5.4468 0,0 4.5048,-4.5047 4.5048,-4.5047 z"
       id="path3035"
       style="fill:#fc9272;fill-opacity:1;fill-rule:nonzero;stroke:none" />
    <path
       inkscape:connector-curvature="0"
       d="m 990.2397,1961.307 c -1.86198,-0.8595 -3.85565,-1.3745 -5.71576,-2.2203 -0.34311,0.1011 -2.57668,-2.1834 -1.60627,-1.1193 -0.18934,-0.01 0.29011,0.035 0.29059,0.035 2.39847,-0.042 -0.84012,0.1019 1.46373,-6.1432 0.11647,-0.3157 0.65394,0.1593 0.98223,0.2333 1.12478,0.2535 2.23541,0.3802 3.38248,0.4943 3.55594,0.2917 7.06705,0.9341 10.62056,1.2696 2.85564,0.3743 5.69834,0.1055 8.49814,-0.5099 2.9388,-0.7483 5.9568,-1.2982 8.8259,-2.2898 1.8404,-0.5482 3.5414,-1.4223 5.2161,-2.3453 1.8054,-1.0555 3.5149,-2.2644 5.2781,-3.3881 1.867,-1.271 3.6414,-2.6923 5.4024,-4.1119 0.9733,-0.9755 2.3021,-1.3899 3.4305,-2.12 0.8956,-0.5921 1.9081,-0.8802 2.7619,-1.5351 1.8654,-1.2837 3.9205,-2.2191 5.9321,-3.2411 1.1959,-0.7096 2.9898,-1.175 4.0529,-1.5589 1.3515,-0.6817 2.8003,-1.2189 4.224,-1.7512 1.4011,-0.4852 2.7357,-1.1694 4.0358,-1.883 1.5288,-0.8101 3.2089,-1.2009 4.823,-1.784 0.2524,-0.089 0.502,-0.1867 0.7573,-0.2674 0.7974,-0.2518 1.6245,-0.4708 2.4481,-0.6212 0.7996,-0.146 1.0968,-0.075 0.6611,-0.1538 1.742,-0.7796 3.6367,-1.0713 5.5197,-1.2592 1.0724,-0.085 2.1474,-0.1437 3.2233,-0.1568 2.3952,0 0.2724,0.2079 -0.1623,6.3745 0,0 -0.042,-6.3705 -0.042,-6.3705 l 0,0 c 0.1269,2.1224 0.2537,4.2449 0.3805,6.3674 -0.034,-4e-4 -0.069,-0.01 -0.1035,0 -0.8965,0.01 -1.7922,0.061 -2.686,0.1279 -1.3031,0.1186 -2.619,0.2931 -3.8164,0.8537 -1.3284,0.424 -2.7039,0.6187 -4.0174,1.099 -1.3114,0.4726 -2.6593,0.8069 -3.9289,1.3812 -1.5751,0.8585 -3.1981,1.67 -4.8888,2.2708 -1.2535,0.452 -2.5252,0.9015 -3.695,1.5287 -1.2901,0.5365 -2.6647,0.8241 -3.9041,1.4859 -1.7284,0.8744 -3.4938,1.6654 -5.1089,2.7421 -0.9794,0.6796 -2.0478,1.2015 -3.0536,1.7317 -0.9444,0.5923 -2.0038,0.9671 -2.8458,1.7009 -1.9482,1.5693 -3.9171,3.1344 -5.989,4.5322 -1.8884,1.1887 -3.7031,2.4955 -5.6426,3.6026 -2.0105,1.0849 -4.0456,2.136 -6.2446,2.7927 -3.1204,1.0173 -6.3393,1.7209 -9.5306,2.481 -3.4325,0.7007 -6.9163,1.078 -10.41296,0.6182 -3.56899,-0.3402 -7.09668,-0.9732 -10.66701,-1.2742 -0.36787,-0.038 -4.99231,-0.647 -5.02305,-0.8299 -0.3569,-2.1239 -0.30736,-4.3 -0.30807,-6.4537 -3e-5,-0.1021 0.20397,0 0.30595,-0.01 0.56098,0.029 1.11168,0.1342 1.64448,0.3158 0.88393,0.3248 1.72445,0.7501 2.37591,1.4446 0.72239,0.6833 4.23246,1.2326 5.22207,1.9981 0,0 -2.36602,5.915 -2.36602,5.915 z"
       id="path3037"
       style="fill:#fc9272;fill-opacity:1;fill-rule:nonzero;stroke:none" />
    <path
       inkscape:connector-curvature="0"
       d="m 1032.0804,1947.8208 c 1.6306,-0.9784 3.2613,-1.9568 4.8919,-2.9351 0.7418,-0.4451 -0.2123,0.1076 1.2676,-0.5866 0.1348,-0.063 -0.5228,0.2581 -0.4209,0.1495 0.1427,-0.1522 0.9472,-0.5183 1.1522,-0.6573 0.074,-0.05 -0.1658,0.066 -0.2487,0.098 0.09,-0.5282 3.7151,-3.034 1.2485,-1.0858 0.4201,4.1034 -0.077,5.703 3.4169,4.5052 -1.2506,0.789 -2.5325,1.5211 -3.7905,2.3004 -1.3849,0.8276 -2.3795,2.0811 -3.505,3.2067 -1.2718,1.5737 -2.5903,3.1074 -3.94,4.6144 -0.7294,1.1134 -1.5447,2.1717 -2.0922,3.3887 -0.7104,1.4093 -1.5577,2.7307 -2.3497,4.0939 -0.5111,1.0827 -1.1805,2.059 -1.5423,3.2084 -0.3922,1.1319 -1.1614,2.156 -1.3593,3.3561 -0.061,1.2877 -0.7107,2.4291 -1.0526,3.6451 -0.234,0.7395 -0.3149,1.5064 -0.3462,2.2776 -0.025,0.7518 -0.02,1.5042 -0.016,2.2563 0,0.7589 0.01,1.5178 0.01,2.2767 4e-4,0.3009 6e-4,0.6017 7e-4,0.9026 0,0.014 0,0.028 0,0.041 0,0 -6.3707,-0.01 -6.3707,-0.01 l 0,0 c 0,-0.012 0,-0.024 0,-0.036 -10e-5,-0.2983 -3e-4,-0.5967 -7e-4,-0.895 -10e-4,-0.7506 0,-1.5012 -0.01,-2.2518 0,-0.866 -0.01,-1.7324 0.023,-2.5979 0.069,-1.2976 0.2251,-2.5903 0.618,-3.8348 0.4721,-1.4851 0.8287,-1.8513 0.9471,-3.2573 0.3477,-1.3447 0.8304,-2.6478 1.5039,-3.8671 0.5285,-1.572 1.3465,-2.9604 2.0898,-4.4264 0.6966,-1.1932 1.4413,-2.3361 2.0746,-3.5662 0.8363,-1.7743 1.9517,-3.3943 3.1271,-4.9606 1.4404,-1.6073 2.8163,-3.2678 4.2195,-4.907 1.4892,-1.4182 2.7834,-3.0603 4.6175,-4.0801 1.0992,-0.6798 2.2147,-1.337 3.3286,-1.9857 0.5781,-0.2599 1.1291,-0.5914 1.7343,-0.7796 0.2832,-0.088 2.2686,-0.063 2.4292,0.4325 0.5206,1.6062 0.8094,3.2785 1.2141,4.9178 -1.6808,1.4531 -0.3706,0.067 -1.932,1.8163 -0.7868,0.6193 -2.7022,1.787 -2.7686,1.7547 -1.6306,0.9784 -3.2613,1.9568 -4.8919,2.9351 0,0 -3.2777,-5.4628 -3.2777,-5.4628 z"
       id="path3039"
       style="fill:#fc9272;fill-opacity:1;fill-rule:nonzero;stroke:none" />
    <path
       inkscape:connector-curvature="0"
       d="m 1006.3376,1979.5871 c 3.2616,-0.4132 6.3657,-1.5174 9.5106,-2.4179 2.3411,-1.0065 4.7803,-1.7311 7.197,-2.5252 2.7734,-1.0106 5.5664,-1.9716 8.3219,-3.0301 2.8745,-1.1282 5.8861,-1.8341 8.8232,-2.7633 1.8015,-0.5994 3.6051,-1.1033 5.2883,-1.9908 0.99,-0.4113 1.9931,-0.7708 2.8315,-1.4574 1.3791,-1.0456 2.9013,-1.8819 4.3703,-2.7942 2.2179,-1.578 4.7964,-2.489 7.2976,-3.5007 2.0815,-1.1731 4.5217,-1.7435 6.5824,-2.9248 1.9922,-1.0183 4.1544,-1.7089 6.303,-2.3228 2.8204,-0.9079 5.6782,-1.7172 8.4719,-2.7021 2.2625,-0.8566 4.5987,-1.4697 6.9814,-1.8721 1.2247,-0.7358 2.672,-0.8639 4.0093,-1.2782 2.265,-0.7469 4.4828,-1.5969 6.8083,-2.1598 1.1216,-0.1608 2.1277,-0.7187 3.1468,-1.2004 0.16,-0.074 0.3171,-0.155 0.4748,-0.2341 0,0 2.8876,5.6787 2.8876,5.6787 l 0,0 c -0.213,0.108 -0.4269,0.2143 -0.6428,0.3164 -1.4109,0.6654 -2.8438,1.3691 -4.3914,1.637 -2.2323,0.5187 -4.3305,1.4105 -6.5145,2.0824 -1.5976,0.4438 -3.1861,0.8036 -4.7256,1.4412 -2.0323,0.3369 -4.0189,0.8726 -5.9457,1.6077 -2.9217,1.0013 -5.8835,1.8886 -8.8308,2.8148 -1.7429,0.483 -3.4971,1.0373 -5.1115,1.853 -2.3261,1.1465 -4.7967,2.0028 -7.1178,3.1704 -2.1689,0.8744 -4.4185,1.6294 -6.3327,3.012 -1.3113,0.8062 -2.6728,1.5495 -3.8983,2.4723 -1.144,0.831 -2.3564,1.5592 -3.706,2.0084 -2.024,1.049 -4.1637,1.7353 -6.3321,2.4226 -2.8189,0.8755 -5.6957,1.5742 -8.4559,2.6358 -2.8538,1.0831 -5.734,2.0964 -8.6059,3.131 -2.4965,0.8189 -5.0034,1.5889 -7.4334,2.5976 -3.3109,0.9447 -6.5808,2.0964 -10.0121,2.5396 0,0 -1.2494,-6.247 -1.2494,-6.247 z"
       id="path3041"
       style="fill:#fc9272;fill-opacity:1;fill-rule:nonzero;stroke:none" />
    <path
       inkscape:connector-curvature="0"
       d="m 832.80459,1866.0647 c -2.11138,-0.4623 -4.25182,-0.7443 -6.40326,-0.9282 -1.71009,-0.2907 -3.29802,0.2429 -4.95822,0.5685 -2.3656,0.3445 -4.73657,0.3713 -7.07794,0.8529 -2.24974,0.2976 -4.41366,0.8172 -6.60158,1.3925 -2.201,0.545 -4.46069,0.7378 -6.71865,0.8413 -1.89393,0.1314 -3.75481,0.6438 -5.6413,0.9325 -1.56344,0.1528 -3.01714,0.8083 -4.53622,1.1999 -1.56141,0.3633 -3.16331,0.4254 -4.7589,0.454 -1.55582,0.4889 -3.16085,0.7883 -4.77285,1.0163 -1.07499,0.4363 -2.16651,0.8626 -3.28111,1.1928 -0.98822,0.2888 -2.24551,0.2887 -3.10922,0.4091 -1.76814,0.5923 -3.59742,0.8663 -5.44623,1.0476 -1.8856,0.5881 -3.83428,0.9276 -5.7893,1.1805 -1.20331,-0.068 -1.97171,0.3893 -3.02984,0.8115 -1.61886,0.4258 -3.24456,0.8128 -4.88078,1.193 -1.67065,0.5807 -3.25122,1.3098 -4.84609,2.068 -1.30479,0.4657 -2.36093,1.259 -3.6397,1.7997 -1.73121,0.7867 -3.46313,1.5673 -5.2602,2.1922 -1.95466,0.7233 -3.82902,1.6262 -5.74324,2.4428 -1.7227,0.5804 -3.33631,1.3604 -5.09515,1.8454 -2.14832,0.727 -4.33796,1.294 -6.43482,2.1683 -2.06389,0.8774 -4.18023,1.6219 -6.38105,2.0621 -0.90161,0.6863 -2.24814,1.0429 -3.33818,1.4535 -1.85498,0.5841 -3.58458,1.4629 -5.44934,2.0359 -0.93205,0.6652 -2.05356,1.1494 -3.1731,1.4888 -1.1189,0.2167 -2.47246,0.874 -3.90215,1.4302 -1.50255,0.4554 -2.89885,0.9467 -4.29478,1.6341 -1.3209,0.5942 -2.36267,1.169 -3.87485,1.7714 -2.49103,1.2431 -5.04605,2.3304 -7.5994,3.4348 -1.61421,0.9857 -3.59605,1.1644 -5.20978,2.1061 -1.34759,0.4656 -2.51519,1.2403 -3.79852,1.8459 -1.05165,0.7154 -2.23763,1.1719 -3.32585,1.8226 -1.37262,1.0276 -2.93891,1.7308 -4.43722,2.5452 -1.18642,0.5965 -2.3241,1.0777 -3.43493,1.7825 -1.42417,0.8999 -2.61429,2.0988 -3.96489,3.0963 -1.17384,0.8857 -2.26127,1.8516 -3.4242,2.7488 -1.11898,0.8706 -2.1431,1.8419 -3.29422,2.6683 -1.26605,1.0398 -2.59601,2.0343 -4.00814,2.8702 -0.89463,0.6607 -1.67652,1.4183 -2.53266,2.1252 -1.00963,1.0178 -2.12189,1.9335 -3.24469,2.8327 -1.26898,1.1241 -2.62751,2.1522 -3.87859,3.2928 -1.40769,1.0479 -2.80091,2.069 -3.95513,3.3996 -1.06519,1.3613 -2.17338,2.6855 -3.3338,3.9664 -1.20803,1.3338 -2.06952,2.9393 -3.08829,4.4222 -1.97063,2.4543 -4.31345,4.5786 -6.57569,6.7577 -1.39896,1.3519 -2.79981,2.7019 -4.18611,4.0669 -1.42573,1.1435 -2.90473,2.2153 -4.30651,3.3924 -2.03814,1.8039 -4.26886,3.3722 -6.38732,5.0795 -1.27373,1.1966 -2.67593,2.1796 -4.14053,3.1207 -1.2389,0.648 -2.28231,1.5577 -3.48886,2.2608 -0.51153,0.5104 -1.74464,1.3823 -2.52159,2.0531 -1.04916,1.0486 -2.42331,1.6347 -3.63127,2.4604 -1.0071,0.5591 -2.04925,0.9575 -2.99994,1.6035 -2.15854,1.1813 -0.68274,0.3362 -2.36572,1.3766 -1.12071,0.9769 -2.37418,1.638 -3.78374,2.0895 -0.60558,0.5636 -1.62511,0.9076 -2.43824,1.2253 2.79715,-1.2474 -1.95373,1.2685 -2.14472,1.3342 -1.55337,0.4064 0.21434,-0.057 -2.06312,0.9057 -0.58141,0.2298 -1.17105,0.4404 -1.77275,0.6108 0.70943,-0.6475 1.41885,-1.295 2.12827,-1.9425 0,0 -6.07464,-1.9195 -6.07464,-1.9195 l 0,0 c 0.74434,-0.758 1.48868,-1.516 2.23302,-2.274 0.35185,-0.1059 0.70056,-0.2221 1.04222,-0.3581 0.86033,-0.3453 1.62213,-0.9427 2.56242,-1.0891 -0.4623,0.5903 1.70562,-1.4332 1.78166,-1.2055 1.04469,-0.4026 1.97672,-0.9807 3.00795,-1.4164 0.84119,-0.2214 1.42728,-0.9244 2.18152,-1.3852 0.81545,-0.4992 1.78711,-1.0194 2.1473,-1.2359 0.94175,-0.6305 1.91705,-1.1959 2.98235,-1.5916 1.01786,-0.6867 2.15664,-1.1904 3.06117,-2.025 1.13063,-0.9642 2.3329,-1.8271 3.50079,-2.744 1.12365,-0.6224 2.08236,-1.5077 3.22685,-2.1022 1.27566,-0.811 2.47223,-1.6572 3.57285,-2.7126 2.08798,-1.6816 4.28473,-3.228 6.29433,-5.0032 1.26968,-1.0604 2.59573,-2.0868 3.92666,-3.0474 1.4029,-1.3812 2.82029,-2.7475 4.23604,-4.1155 1.95489,-1.8831 3.96038,-3.7281 5.74445,-5.7768 1.18066,-1.7185 2.18599,-3.5703 3.62157,-5.0961 1.16453,-1.2807 2.25236,-2.6235 3.33804,-3.9711 1.34819,-1.4476 2.80455,-2.7702 4.44493,-3.883 1.35817,-1.1826 2.75038,-2.3252 4.12095,-3.4969 1.15244,-0.9221 2.27071,-1.8652 3.32593,-2.8966 0.98838,-0.4418 2.17612,-2.256 3.309,-2.6401 1.31685,-0.6159 2.37627,-1.7861 3.5698,-2.5998 1.12882,-0.5327 1.86411,-1.8479 2.97847,-2.441 1.2235,-0.9311 2.37667,-1.9427 3.59754,-2.8772 1.50896,-0.9969 2.69163,-2.4705 4.31268,-3.328 1.21623,-0.7434 2.47963,-1.3557 3.75975,-1.9709 1.43122,-0.7699 2.91333,-1.4452 4.22129,-2.4228 1.27351,-0.7499 2.62803,-1.321 3.87707,-2.1138 1.16316,-0.5347 2.22966,-1.2621 3.44891,-1.6693 1.84093,-0.9722 3.87202,-1.42 5.7329,-2.3607 2.61082,-1.1232 5.21041,-2.2551 7.76585,-3.5038 1.17355,-0.467 2.29667,-0.9989 3.418,-1.5683 1.55672,-0.766 3.14521,-1.3619 4.80513,-1.8581 1.45696,-0.5626 2.91667,-1.2272 4.42708,-1.6079 1.10453,-0.2826 2.00399,-1.1142 3.09803,-1.4666 1.73698,-0.5202 3.33052,-1.3941 5.06845,-1.9067 1.4828,-0.5511 2.90784,-1.1717 4.37767,-1.7451 1.79262,-0.3104 3.48141,-1.0318 5.16235,-1.7003 2.36145,-0.9536 4.79818,-1.6503 7.21916,-2.4314 1.47336,-0.3586 2.79574,-1.1191 4.24506,-1.555 2.05869,-0.8577 4.05973,-1.8531 6.16487,-2.6036 1.73028,-0.5736 3.36068,-1.394 5.03423,-2.1102 1.00116,-0.139 2.08396,-1.414 3.18764,-1.6058 2.00704,-0.9542 4.02255,-1.8617 6.15018,-2.5223 1.34456,-0.307 2.68323,-0.6629 4.02818,-0.9324 1.47994,-0.5079 2.88584,-1.244 4.51028,-1.1842 2.02549,-0.2518 3.99509,-0.7306 5.9782,-1.2016 1.55599,-0.1487 3.07881,-0.3871 4.56382,-0.899 0.99105,-0.1838 1.94676,-0.2488 2.93662,-0.3647 1.39056,-0.1778 2.64038,-1.2955 4.07768,-1.3554 1.87194,-0.2508 3.66785,-0.8143 5.53619,-1.0755 1.10014,-0.018 2.20568,-0.039 3.28868,-0.2559 1.72061,-0.4363 3.36887,-1.1881 5.15513,-1.326 2.10773,-0.3205 4.1832,-0.8998 6.31397,-0.9989 1.81007,-0.081 3.62338,-0.2161 5.3912,-0.6395 2.2994,-0.601 4.58562,-1.1506 6.94439,-1.4723 2.36329,-0.4785 4.73789,-0.6121 7.13157,-0.8636 2.22611,-0.431 4.43349,-1.0299 6.72339,-0.6629 2.38733,0.2065 4.76313,0.5192 7.10682,1.0286 0,0 -1.24939,6.2469 -1.24939,6.2469 z"
       id="path3049"
       style="fill:#de2d26;fill-opacity:1;fill-rule:nonzero;stroke:none" />
    <path
       inkscape:connector-curvature="0"
       d="m 782.4088,1989.2061 c 1.53582,1.6812 3.0225,3.4361 4.86486,4.7971 1.32799,1.0275 2.63497,2.2138 4.12771,3.0035 1.23119,1.0027 2.68549,1.5982 3.96949,2.515 0.40644,0.3069 1.95941,1.6575 0.633,0.5687 0.84037,-0.1 2.10849,0.6361 3.08447,0.8622 1.42341,0.6605 2.87294,1.1783 4.41263,1.4727 1.21295,0.1803 2.44066,0.1896 3.66405,0.1989 2.26394,0 4.52788,0 6.79181,-0.01 2.43567,0 4.87134,0 7.30701,0 1.29695,-3e-4 2.5939,-2e-4 3.89085,-2e-4 2.14233,-0.4767 4.31763,-0.799 6.45974,-1.3169 2.33967,-0.5732 4.72398,-0.9177 7.11978,-1.1407 1.09464,-0.1431 2.45807,-0.5742 3.75789,-1.0229 2.58693,-0.9238 5.304,-1.4834 7.89308,-2.3838 1.63687,-0.7012 3.29349,-1.3136 5.05075,-1.6115 0.98351,-0.4359 1.89358,-1.1277 2.79966,-1.772 1.45645,-1.0005 3.11404,-1.684 4.50722,-2.7684 1.21987,-0.7636 2.47218,-1.4016 3.71482,-2.1152 1.17034,-0.5754 2.29251,-1.1839 3.36643,-1.894 1.40154,-0.8764 2.86295,-1.6136 4.35051,-2.3393 1.50915,-0.8298 3.16513,-1.2727 4.72613,-1.9656 1.17683,-0.3814 2.0692,-1.1796 3.07372,-1.8623 1.08158,-0.6024 2.0968,-1.2958 3.08002,-2.0457 0.68311,-0.6725 1.60213,-0.8092 2.45595,-1.1002 0.10132,-0.034 -0.21666,0.099 -0.31578,0.058 -0.0648,-0.026 0.11682,-0.077 0.17523,-0.1157 0.0784,-0.052 0.15676,-0.1046 0.23514,-0.1569 0,0 3.48657,5.3319 3.48657,5.3319 l 0,0 c -0.15181,0.098 -0.30363,0.1964 -0.45544,0.2947 -0.27123,0.157 -2.64419,1.2304 -1.42388,0.5237 0.10927,-0.063 -0.19912,0.1553 -0.29867,0.233 -1.0908,0.8293 -2.21193,1.6151 -3.4111,2.2814 -1.31431,0.8382 -2.49849,1.8951 -4.01734,2.3807 -1.50132,0.6662 -3.07704,1.1084 -4.53278,1.8758 -1.23738,0.5964 -2.47073,1.181 -3.62369,1.9262 -1.22375,0.8022 -2.48287,1.505 -3.7941,2.1523 -1.00587,0.4834 -1.93375,1.1379 -2.94481,1.6149 -1.47186,1.0981 -3.09832,1.9367 -4.66774,2.8861 -1.70448,1.2071 -3.43951,2.4168 -5.5161,2.8727 -1.4053,0.1595 -2.67224,0.9234 -4.00075,1.357 -2.62733,0.8557 -5.32637,1.4956 -7.94101,2.3996 -1.67644,0.5275 -3.40328,1.0952 -5.14301,1.3087 -2.09,0.1921 -4.17018,0.4889 -6.21098,0.9897 -2.62728,0.634 -5.28363,1.0922 -7.9556,1.495 -1.29642,0 -2.59284,-10e-5 -3.88926,2e-4 -2.43339,5e-4 -4.86678,0 -7.30017,0 -2.28358,0 -4.56717,0.011 -6.85075,0.01 -1.61641,-0.013 -3.23848,-0.043 -4.83621,-0.3171 -1.65149,-0.3281 -3.35163,-0.7372 -4.82932,-1.5689 -1.92602,-0.5413 -1.41553,-0.7097 -2.94755,-0.8273 -1.09984,-0.2901 -2.07612,-0.8094 -2.88591,-1.6136 -1.0697,-0.8193 -2.41216,-1.2089 -3.41002,-2.15 -1.68914,-1.0156 -3.29659,-2.1948 -4.80744,-3.4585 -2.26064,-1.7703 -4.22726,-3.8473 -6.08568,-6.0307 0,0 5.09657,-3.8225 5.09657,-3.8225 z"
       id="path3051"
       style="fill:#fc9272;fill-opacity:1;fill-rule:nonzero;stroke:none" />
    <path
       inkscape:connector-curvature="0"
       d="m 790.35846,1991.1448 c 3.41536,-0.056 6.83854,0.1398 10.24479,-0.1429 3.39858,-0.4052 6.79626,-0.7921 10.2143,-0.983 3.36243,-0.4183 6.69604,0.1855 10.0428,0.2698 3.27027,-0.053 6.5373,-0.2227 9.80663,-0.3182 2.25263,-0.068 4.50623,-0.091 6.75976,-0.1001 2.13805,-0.091 4.22727,0.021 6.33021,0.4181 1.71185,0.3325 3.43163,0.6379 5.17041,0.7862 0.99229,0.092 2.27901,0.088 3.06961,0 1.42648,-0.4476 2.87951,-0.7997 4.35672,-1.0274 1.38462,-0.1994 2.7889,-0.1839 4.18451,-0.1897 1.12068,-0.4665 2.37323,-0.7104 3.56767,-0.9669 -2.38465,0.9085 -0.0296,-0.1589 0.0896,6.0625 0.003,0.1712 -0.34311,-0.035 -0.51355,-0.018 -0.57686,0.058 -1.13824,0.2223 -1.71112,0.3112 -5.17547,0.8275 -10.3649,1.4445 -15.59449,1.8149 -5.5847,0.233 -11.191,0.6298 -16.77766,0.2979 -3.14883,-0.3314 -6.28278,-0.7671 -9.44304,-0.9788 -2.17418,0.07 -4.46727,-0.463 -6.61647,-0.031 -1.58583,0.3356 -3.14518,0.7585 -4.75198,0.9861 -1.77978,0.3611 -3.68567,-0.1256 -5.44078,0.295 -1.46324,0.1455 -2.60206,0.9591 -3.923,1.533 -1.53279,0.6459 -3.18496,0.8085 -4.82815,0.884 -0.89114,0.033 -1.78288,0.027 -2.67438,0.021 -0.76146,-0.01 -1.52296,-0.01 -2.28444,-0.01 -0.4142,-5e-4 -0.82841,-8e-4 -1.24261,-8e-4 0.30554,-7.6446 -0.99592,-6.3707 4.13419,-6.3706 3.79999,0.4277 7.59296,0.8402 11.41272,1.048 4.11845,-0.021 8.18665,0.5814 12.27084,1.0169 2.70222,0.2799 5.41674,0.4059 8.13159,0.4713 0.29532,0 0.59064,0.01 0.88597,0.013 0.35518,0 1.09065,-0.3455 1.0656,0.01 -0.47176,6.6729 1.59717,6.373 -1.43801,6.3663 -5.67936,-0.045 -11.34531,0.4767 -17.01572,0.7584 -5.57103,0.4466 -11.13406,0.9882 -16.69731,1.5221 -3.43938,0.3134 -3.24727,1.0701 -1.55238,-6.1089 0.0885,-0.375 0.77057,0.01 1.15588,0.012 0.56325,0 1.12652,0 1.68978,0.01 5.51883,0.029 11.03769,-0.1137 16.5516,0.1439 4.73858,0.3177 9.47097,0.7134 14.21328,0.9739 1.13355,0.057 2.26716,0.1168 3.40178,0.1476 -1.57441,7.093 -0.10805,6.3551 -4.34569,5.1642 -3.59686,-0.8526 -7.30433,-1.0816 -10.96035,-1.5997 -2.70246,-0.391 -5.41225,-0.7253 -8.13192,-0.9696 -2.78202,-0.3268 -1.79748,-0.5712 0.49097,-6.433 0.0333,-0.085 3.14409,-0.01 4.42076,-0.01 5.12998,0.078 10.2425,0.026 15.35964,-0.3435 4.93715,-0.2027 9.82097,-0.9002 14.70922,-1.5729 2.10325,-0.2768 4.21201,-0.506 6.33127,-0.6074 3.85682,-0.089 2.08145,-0.5226 1.5028,6.3542 -2.24112,0.043 -4.45823,0.5112 -6.6937,0.7554 -3.74876,0.1548 -7.4502,0.7197 -11.16006,1.2433 -4.97726,0.6667 -2.74075,1.5099 -2.98932,-5.8187 3.21682,0.7118 6.51325,0.4559 9.76848,0.1491 4.47758,-0.4177 8.88159,-1.3724 13.30919,-2.1318 2.69201,-0.2161 2.04339,-0.9095 1.10827,0.1757 0.17182,-0.3562 2.80443,-2.4613 3.44807,-1.957 0.2242,0.1757 -0.55375,0.1337 -0.83063,0.2005 1.04966,-0.5794 2.12427,-1.0532 3.29476,-1.3221 0.0964,-0.013 1.21519,-0.1812 1.40341,-0.1601 0.18239,0.021 -0.40891,0.1785 -0.54754,0.058 -0.0476,-0.041 0.52565,-0.2393 1.20988,-0.5685 0.67138,-0.4546 1.50548,-0.4482 2.24459,-0.6851 0.11006,-0.035 -0.23364,0.083 -0.34352,0.047 -0.0613,-0.02 0.10775,-0.071 0.16163,-0.1062 0.26566,-0.164 0.51813,-0.3474 0.76329,-0.5401 -0.0294,0.022 -0.0554,0.048 -0.0831,0.072 0,0 4.35547,4.6493 4.35547,4.6493 l 0,0 c -0.14805,0.1348 -0.0737,0.069 -0.22295,0.197 -0.52459,0.4275 -1.08336,0.8118 -1.66364,1.1599 -0.8204,0.4488 -1.90209,0.778 -2.4514,0.948 -1.0971,0.5271 -2.23051,1.1431 -3.47763,1.155 -0.33236,0.057 -1.0347,0.3854 -1.55072,0.6656 -2.45907,0.9261 -0.97963,0.5722 -0.28503,-0.4732 -1.3295,1.8631 -3.22142,2.5626 -5.45644,2.7632 -4.59212,0.7873 -9.16017,1.7744 -13.80567,2.197 -3.51624,0.3133 -7.16397,0.6532 -10.64063,-0.1293 -1.76528,-7.7374 -2.79282,-6.0379 2.39081,-6.8535 3.77598,-0.5329 7.54599,-1.1069 11.36107,-1.2683 2.43408,-0.2639 4.85293,-0.763 7.30105,-0.7923 0.48196,7.073 2.38961,6.2896 -1.11966,6.3795 -1.92962,0.09 -3.84879,0.3061 -5.76398,0.5551 -5.02444,0.6913 -10.04581,1.4008 -15.11979,1.6159 -5.27086,0.3786 -10.5374,0.4427 -15.82117,0.3599 -1.4998,-9e-4 -4.29659,0.016 -4.29845,0.01 -0.72758,-4.0377 -0.76568,-6.444 -0.0388,-6.2817 2.82771,0.2548 5.64551,0.6002 8.45538,1.0071 3.94601,0.5596 7.95163,0.7935 11.82173,1.7832 4.58048,1.351 3.78565,0.1945 2.44931,7.3291 -1.20443,-0.027 -2.40747,-0.1 -3.61071,-0.1557 -4.72725,-0.2601 -9.44492,-0.6502 -14.16814,-0.9716 -5.41933,-0.2663 -10.84589,-0.094 -16.27041,-0.1367 -1.09985,0 -3.10435,-0.01 -3.11055,-0.025 -2.56066,-6.9429 -2.37942,-6.2258 1.23216,-6.5969 5.66058,-0.5432 11.32085,-1.0962 16.98995,-1.5434 5.78015,-0.2867 11.55599,-0.8165 17.3456,-0.7661 3.04533,0.01 1.01742,-0.3071 1.41786,6.375 0.023,0.3836 -0.76867,0 -1.15297,-0.01 -0.3156,0 -0.63119,-0.01 -0.94678,-0.014 -2.88915,-0.07 -5.77783,-0.2065 -8.65343,-0.5055 -3.97566,-0.4248 -7.93303,-1.0196 -11.94274,-0.9905 -3.70234,-0.2037 -7.38938,-0.5421 -11.06469,-1.0384 -5.13104,-1e-4 -3.82924,1.2734 -4.1343,-6.3708 0.41725,0 0.8345,3e-4 1.25175,8e-4 0.77386,0 1.54773,0 2.32157,0.01 0.78451,0.01 1.56922,0.012 2.35347,-0.015 0.88838,-0.035 1.80065,-0.065 2.63764,-0.3936 1.77994,-0.6871 3.38968,-1.8359 5.37098,-1.9475 1.86377,-0.2534 3.72755,-0.1933 5.60262,-0.3191 1.59771,-0.1994 3.12559,-0.7351 4.71617,-0.9811 2.63526,-0.3117 5.29011,-0.131 7.93703,-0.018 3.15062,0.2143 6.27813,0.6229 9.41511,0.977 5.29915,0.3591 10.62936,-0.1204 15.92823,-0.2949 5.05378,-0.3547 10.06795,-0.9519 15.06873,-1.7557 0.51652,-0.08 3.8319,-0.5634 3.94018,-0.3246 2.27419,5.0155 3.57215,5.6164 0.50295,6.4943 -1.63323,0.3486 -3.2129,0.909 -4.87587,1.1081 -1.0847,0 -2.17756,-0.018 -3.2555,0.1178 -1.33002,0.1968 -2.62261,0.5663 -3.91176,0.9437 -1.67273,0.2768 -3.341,0.2801 -5.03269,0.1262 -1.95008,-0.1778 -3.88323,-0.4922 -5.80335,-0.8746 -1.69802,-0.3297 -3.37563,-0.3761 -5.10896,-0.3049 -2.19997,0.01 -4.40001,0.031 -6.5991,0.098 -3.4042,0.099 -6.80603,0.2857 -10.21169,0.3171 -3.16123,-0.1296 -6.29673,-0.6397 -9.47183,-0.2758 -3.37166,0.1844 -6.72056,0.5882 -10.07412,0.9738 -3.5738,0.2614 -7.15496,0.1398 -10.7368,0.1619 0,0 0,-6.3707 0,-6.3707 z"
       id="path3053"
       style="fill:#fc9272;fill-opacity:1;fill-rule:nonzero;stroke:none" />
    <path
       inkscape:connector-curvature="0"
       d="m 55.020565,2268.3748 c -1.630638,-0.6523 -3.261275,-1.3045 -4.891913,-1.9568 -1.478464,-0.4432 -2.562552,-1.8668 -2.752972,-3.3925 0.236791,-0.7547 0.281895,-1.5992 0.710373,-2.264 0.820893,-1.2737 4.67955,-2.8286 5.970707,-3.4846 4.836403,-2.2277 9.46751,-4.835 14.051611,-7.5363 3.7995,-2.5656 7.843926,-4.7377 11.646801,-7.296 2.784438,-1.8126 5.585998,-3.6078 8.297634,-5.5288 3.408663,-1.9905 6.87617,-3.8831 10.359572,-5.7391 2.817172,-1.3601 5.413312,-3.0271 7.996062,-4.7744 1.5537,-1.2255 3.31993,-2.1006 5.02393,-3.086 3.73573,-1.7701 7.53684,-3.3954 11.29582,-5.1154 4.19888,-2.0744 8.45972,-4.0379 12.8131,-5.7682 3.01484,-1.0415 5.96937,-2.2393 9.08878,-2.9347 3.36151,-0.7522 6.66678,-1.724 10.00432,-2.5748 4.23893,-1.0235 8.50997,-1.894 12.76515,-2.8459 4.20027,-0.8147 8.43233,-1.4515 12.63923,-2.2279 4.15389,-0.8241 8.29562,-1.7225 12.3954,-2.7863 1.84602,-0.7052 3.94507,-0.6618 5.72479,-1.5215 2.37564,-0.9134 4.71622,-1.906 7.08357,-2.8389 3.04108,-1.3687 6.238,-2.3355 9.30147,-3.6472 2.60193,-1.0814 5.16267,-2.2742 7.668,-3.5648 2.83414,-1.4119 5.79918,-2.5295 8.66628,-3.8686 2.15434,-1.2098 4.23598,-2.5534 6.30076,-3.9112 1.4444,-1.049 2.93634,-2.0276 4.37606,-3.0835 2.4929,-1.6657 5.07679,-3.195 7.73974,-4.5719 2.83529,-1.4709 5.68408,-2.9217 8.56757,-4.2968 3.21696,-1.5052 6.4382,-3.022 9.6857,-4.4667 4.21507,-1.8653 8.40841,-3.7734 12.70239,-5.4523 3.55551,-1.4512 6.95397,-3.2446 10.42726,-4.8728 3.22492,-1.5636 6.49767,-3.0239 9.76187,-4.5037 3.53126,-1.5517 6.91117,-3.3364 10.24803,-5.2633 1.76996,-1.1907 3.56066,-2.4049 5.05575,-3.9399 1.58673,-1.8432 3.69192,-3.0864 5.65149,-4.4797 2.91533,-1.8587 5.60343,-4.0242 8.19744,-6.3015 2.91258,-2.404 6.10912,-4.4174 9.05761,-6.7788 3.05799,-2.052 6.15532,-4.051 9.37606,-5.8391 2.08506,-1.1486 4.12167,-2.3665 6.189,-3.5439 1.49964,-0.7348 2.97176,-1.5138 4.44518,-2.3039 1.79349,-1.1714 3.69787,-2.144 5.63561,-3.0506 3.35865,-1.3283 6.82598,-2.3506 10.18191,-3.6844 2.98457,-1.2013 6.03738,-2.1837 9.09823,-3.1619 3.49081,-1.0393 6.83936,-2.4816 10.27652,-3.6847 3.53449,-1.2044 7.00112,-2.5898 10.57586,-3.6735 1.32992,-0.5902 2.98048,-0.3709 4.17533,-1.2574 2.30444,-1.3404 4.69508,-2.4888 7.10676,-3.6183 2.00891,-0.8187 3.84303,-1.9789 5.83478,-2.8308 1.56007,-0.8929 3.03687,-1.9227 4.53785,-2.9147 2.31818,-1.744 4.88468,-3.106 7.30383,-4.6957 2.55971,-1.4689 5.02003,-3.0767 7.5107,-4.6481 2.21933,-1.6224 4.37575,-3.333 6.63546,-4.9009 1.9671,-1.3926 3.76045,-2.9746 5.59285,-4.5341 2.85666,-1.7418 5.66229,-3.552 8.41325,-5.4587 2.54043,-1.6042 4.88264,-3.495 7.2958,-5.2832 1.48292,-1.211 3.07248,-2.2698 4.61144,-3.4051 2.21541,-1.8754 4.57573,-3.5648 6.8219,-5.4027 3.01019,-2.4793 6.30632,-4.569 9.44953,-6.8639 1.95336,-1.3695 3.99449,-2.6118 6.07874,-3.771 1.51105,-1.0275 2.98938,-2.0854 4.57216,-3.005 2.57186,-1.4997 5.3727,-2.5524 8.04986,-3.8485 2.21051,-1.2576 4.46221,-2.4383 6.66123,-3.7166 1.7863,-0.8387 3.51778,-1.7405 5.20419,-2.7564 2.16742,-1.3473 4.60254,-2.0773 6.93942,-3.0615 3.42269,-1.2159 6.76391,-2.6254 10.08546,-4.0892 2.08116,-1.1122 4.09271,-2.3608 6.30934,-3.1873 1.53683,-0.8682 3.2257,-1.3981 4.84416,-2.0839 2.09287,-0.8961 3.87753,-2.2929 5.81741,-3.4533 0.93197,-0.6268 2.15342,-1.4838 2.89587,-1.9353 1.66146,-1.1526 1.58503,-1.0724 2.09192,-1.4995 0.55352,-0.9391 1.65696,-1.8896 2.55543,-2.6112 1.20299,-0.8995 2.37296,-1.8304 3.58824,-2.7113 0.61869,-0.6625 1.20735,-1.3523 1.805,-2.0337 0.91969,-0.9379 1.25088,-1.4056 1.85085,-2.1698 0.92731,-1.0088 1.94984,-1.9006 3.08385,-2.6634 0.79335,-0.3399 1.51704,-0.6786 2.17107,-1.2429 0.98955,-0.9294 1.97834,-1.8078 3.1471,-2.5108 0.63834,-0.6275 1.54261,-1.1793 2.36282,-1.6765 -2.47477,2.4931 -0.0933,-0.623 1.1384,-1.3559 0.52465,-0.2507 0.27374,-0.142 0.75004,-0.3325 0,0 2.26991,5.9526 2.26991,5.9526 l 0,0 c 0.0167,-0.013 0.0371,-0.021 0.0504,-0.038 0.51849,-0.5102 0.28547,-0.5752 0.85898,-1.3803 0.121,-0.1699 -0.1143,0.4023 -0.19711,0.5937 -0.49483,1.1436 -0.50869,0.9201 -1.57422,2.012 -0.85468,0.5149 -1.67998,1.0782 -2.44251,1.7239 -0.9122,0.4963 -1.54538,1.3515 -2.37719,1.981 -0.88783,0.6931 -1.82431,1.3847 -2.90252,1.7501 0.11022,-0.1795 -1.16808,1.2565 -1.47389,1.3 -0.58568,0.777 -1.23509,1.5417 -1.92635,2.2575 -0.93758,1.069 -1.83473,2.1884 -2.96302,3.0673 -1.16229,0.6889 -2.1432,1.7169 -3.26749,2.4736 -0.99033,0.7611 -1.63367,1.6415 -2.49158,2.56 -0.81183,0.5605 -1.55527,1.0973 -2.30751,1.667 -1.08157,0.7245 -2.21977,1.4693 -3.43473,2.2948 -2.198,1.3041 -4.22934,2.8799 -6.61625,3.8564 -1.71656,0.7136 -3.47408,1.3185 -5.12,2.192 -2.09739,0.7397 -3.91548,2.1041 -5.92775,3.0337 -3.36052,1.4804 -6.739,2.9125 -10.20259,4.1394 -2.05842,0.8513 -4.20635,1.4581 -6.10792,2.641 -1.71562,1.0296 -3.46079,1.9819 -5.28716,2.8054 -2.33877,1.3578 -4.72916,2.6203 -7.08756,3.9432 -2.54505,1.2298 -5.20608,2.2331 -7.65639,3.6409 -1.62395,0.9109 -3.06433,2.0766 -4.64937,3.0485 -1.86116,1.0288 -3.67747,2.138 -5.42277,3.3529 -3.05524,2.2128 -6.23585,4.2552 -9.16416,6.6438 -2.33316,1.9046 -4.77503,3.6663 -7.08112,5.6037 -1.53766,1.1261 -3.11596,2.1817 -4.59232,3.391 -2.46815,1.8265 -4.86457,3.7577 -7.45982,5.4007 -2.57619,1.783 -5.16219,3.563 -7.91145,5.0728 -1.99533,1.6982 -3.96701,3.4065 -6.10495,4.9271 -2.35007,1.6084 -4.54779,3.4286 -6.87995,5.0614 -2.46849,1.5168 -4.8599,3.1551 -7.39403,4.5735 -2.41739,1.5772 -4.96566,2.9499 -7.28193,4.6813 -1.83847,1.2135 -3.6375,2.4925 -5.61025,3.4843 -1.92433,0.7457 -3.63135,1.9969 -5.57403,2.7158 -2.23018,1.0421 -4.4427,2.0935 -6.57157,3.3363 -1.76058,0.9743 -3.61476,1.43 -5.56514,1.8666 -3.48944,1.0533 -6.86697,2.4226 -10.31868,3.5898 -3.49401,1.2193 -6.89533,2.691 -10.44525,3.741 -2.92522,0.9287 -5.8395,1.8693 -8.69053,3.0166 -3.241,1.274 -6.56558,2.3102 -9.82588,3.531 -1.83761,0.8574 -3.62722,1.7925 -5.3299,2.8977 -1.42584,0.7586 -2.85742,1.499 -4.29746,2.2224 -2.09099,1.1883 -4.15089,2.4198 -6.25731,3.5823 -2.91372,1.6023 -5.6884,3.4357 -8.47991,5.2394 -2.8772,2.2966 -5.96559,4.2924 -8.83536,6.5927 -2.76,2.418 -5.61467,4.7262 -8.71055,6.7069 -1.69785,1.2032 -3.53992,2.2503 -4.90233,3.8565 -1.93853,1.8322 -4.03143,3.4837 -6.30714,4.8853 -3.51763,2.0301 -7.08775,3.9014 -10.80292,5.5483 -3.24328,1.4701 -6.4955,2.9197 -9.69896,4.4748 -3.60321,1.671 -7.11241,3.5524 -10.80382,5.0339 -4.20525,1.6386 -8.3046,3.5193 -12.43288,5.3399 -3.19883,1.4185 -6.37132,2.9102 -9.53534,4.3976 -2.82699,1.3407 -5.61272,2.7714 -8.39088,4.2093 -2.37647,1.2137 -4.6653,2.5935 -6.89812,4.0529 -1.53179,1.1128 -3.10551,2.1584 -4.64066,3.2665 -2.32618,1.5181 -4.65387,3.0491 -7.10489,4.3584 -2.79706,1.2956 -5.67413,2.4074 -8.44499,3.7604 -2.6461,1.3521 -5.3392,2.6222 -8.08432,3.7598 -3.12557,1.3193 -6.36387,2.341 -9.46758,3.7149 -2.27197,0.8848 -4.50714,1.8565 -6.78975,2.7152 -2.16025,0.9438 -4.48672,1.2303 -6.7436,1.8804 -4.24798,1.1019 -8.53971,2.0322 -12.84374,2.8856 -4.12805,0.7558 -8.27711,1.3935 -12.39999,2.1791 -4.19518,0.9385 -8.4062,1.7954 -12.58561,2.8031 -3.4093,0.8651 -6.78453,1.8597 -10.21828,2.6252 -2.7875,0.5875 -5.39539,1.7541 -8.09674,2.6321 -4.25448,1.6829 -8.40819,3.6188 -12.51106,5.6394 -3.58074,1.6381 -7.19127,3.2091 -10.77208,4.8458 -1.57587,0.9011 -3.20314,1.6976 -4.6284,2.839 -2.76758,1.8723 -5.56531,3.6484 -8.57257,5.1215 -3.249294,1.7274 -6.467219,3.5155 -9.6757,5.3178 -2.757718,1.9453 -5.594667,3.7795 -8.424978,5.6165 -3.912251,2.6192 -8.052036,4.8709 -11.962447,7.4947 -4.698268,2.7681 -9.446409,5.4387 -14.400236,7.7273 -1.272692,0.6466 -2.545923,1.292 -3.812706,1.95 -0.200987,0.1045 -0.680605,0.5274 -0.602079,0.315 0.132139,-0.3575 0.527258,-0.5505 0.790887,-0.8258 0.137073,-0.611 0.274145,-1.2221 0.411218,-1.8332 -0.280769,-1.317 -3.167492,-2.9072 -1.234877,-2.0597 1.630637,0.6522 3.261275,1.3045 4.891912,1.9567 0,0 -2.366019,5.9151 -2.366019,5.9151 z"
       id="path3057"
       style="fill:#fee0d2;fill-opacity:1;fill-rule:nonzero;stroke:none" />
    <path
       inkscape:connector-curvature="0"
       d="m 1022.7915,1875.0182 c -2.3744,1.8095 -4.5667,3.8436 -6.5975,6.0287 -0.7167,0.7138 -1.2446,1.5644 -1.6502,2.4845 -0.045,0.1021 -0.1419,0.4208 -0.1242,0.3107 0.064,-0.3979 0.1759,-0.7866 0.2639,-1.1798 -0.3005,-0.6577 -0.4242,-1.4299 -0.9016,-1.9729 -0.3507,-0.3989 -0.9515,-0.4731 -1.4375,-0.6875 -0.099,-0.043 -0.3852,-0.01 -0.3118,-0.084 0.1602,-0.1721 2.4626,-1.5669 2.6327,-1.6803 1.4819,-0.9215 2.7763,-2.012 3.8064,-3.4179 -0.1617,0.295 -0.4115,0.5568 -0.4851,0.8851 -0.1693,0.7543 -0.084,1.6715 0.4153,2.3036 0.509,0.6451 1.4346,0.7745 0.5672,0.8037 -0.8936,0.5916 -1.7917,1.0011 -2.3648,1.9544 -1.1073,2.0164 0.5247,0.5656 -1.2297,-1.0996 -0.1383,-0.074 -0.4492,-0.07 -0.415,-0.2227 0.042,-0.1889 0.3492,-0.167 0.5215,-0.2551 0.323,-0.1649 0.646,-0.3298 0.9642,-0.5038 1.0496,-0.574 1.976,-1.1696 2.8624,-1.9707 -0.2175,0.024 1.5425,-1.5182 1.3338,-1.5793 -0.4299,-0.1259 -0.3341,0.8588 -0.3156,1.3064 0.4714,1.4059 -0.3369,-0.8035 0.6209,0.9427 0.1356,0.2472 -0.5631,0.034 -0.8432,0.066 -0.4886,0.056 -0.5202,0.1261 -0.8912,0.36 -0.9637,1.2891 -2.5889,2.5872 -2.6903,4.3218 0,0.1634 -0.062,0.3355 -0.01,0.49 0.089,0.2598 0.074,-0.5617 -0.01,-0.8238 -0.1269,-0.4059 -0.4847,-0.5023 -0.6154,-0.8711 1.7594,-1.1678 3.6123,-2.2807 5.0168,-3.8773 0.4284,-0.568 1.3963,-1.5419 1.2606,-2.4118 -0.03,-0.1904 -0.1396,0.3647 -0.1555,0.5567 0.1265,0.2929 0.2144,0.6057 0.3796,0.8785 0.2587,0.4274 0.3026,0.5167 0.6739,0.6063 0.1692,0.041 0.5027,-0.1149 0.5191,0.058 0.02,0.2154 -0.3143,0.2974 -0.4715,0.446 -1.3883,1.7469 -1.8917,3.4504 -1.7969,5.6303 0.292,1.5971 1.175,1.4871 0.017,0.5671 -0.019,-0.05 -0.096,-0.1142 -0.055,-0.1489 0.2047,-0.1772 0.4809,-0.2525 0.7012,-0.41 0.2,-0.1431 1.4341,-1.4413 0.7599,-0.9648 -0.1702,-0.5067 0.092,0.1275 -0.1667,-0.016 -0.3576,-0.1989 0.023,-0.2928 -0.345,-0.2411 -0.039,0.01 0.011,0.078 0.017,0.117 -0.6652,-0.2183 -1.1287,-0.092 -0.1972,0.1553 -0.815,1.0337 -1.7494,2.7726 -1.2342,4.1435 0.3748,-1.6837 -1.8998,-0.7571 -0.175,-2.2126 0.8033,-0.9552 1.7494,-1.8354 2.4353,-2.8855 0.064,-0.098 0.6706,-1.1981 0.2506,-1.114 -0.3633,0.7577 0.3246,0.8859 -0.5072,0.991 -0.5824,0.2832 -1.5621,0.5557 -1.8485,1.1547 0,0 -4.3217,-4.6808 -4.3217,-4.6808 l 0,0 c 1.7156,-1.4254 3.5362,-2.5605 5.8144,-2.8346 4.1182,-0.1287 6.4954,1.4197 7.2303,5.5807 -0.4644,4.1407 -2.2853,6.0096 -5.1771,8.8443 -4.1063,3.007 -8.1458,3.4153 -10.0328,-2.139 -0.2328,-3.506 0.6296,-6.7939 3.1094,-9.4002 0.5682,-0.4558 1.0756,-0.9997 1.7045,-1.3672 1.9357,-1.1313 4.253,-0.6519 6.1412,0.251 2.557,1.7066 4.0307,4.1769 3.4424,7.3525 -0.2366,0.6114 -0.4007,1.2561 -0.7099,1.8341 -1.2042,2.2506 -3.8046,3.5254 -6.0802,4.3166 -0.726,0.01 -1.4652,0.1622 -2.178,0.024 -3.3232,-0.6432 -4.5629,-3.8189 -4.9633,-6.7752 -0.043,-4.3207 1.1329,-7.5485 4.1427,-10.7117 2.3819,-1.8336 5.4139,-3.0199 7.9205,-0.5592 0.4646,0.456 0.7244,1.0817 1.0866,1.6226 0.7191,3.0987 -0.41,5.7837 -2.5335,8.0895 -2.3947,2.486 -5.2812,4.6654 -8.5644,5.8031 -0.6831,0.062 -1.3667,0.2527 -2.0492,0.185 -3.5377,-0.3505 -5.2378,-3.5358 -4.611,-6.7857 1.074,-3.6464 3.2077,-6.7411 6.5269,-8.7123 3.3735,-1.1732 7.0813,-1.3401 9.2913,1.9864 0.1702,0.6 0.4289,1.1816 0.5107,1.7999 0.3216,2.4325 -1.6432,4.3577 -3.214,5.8776 -2.8305,2.3555 -6.1228,4.4774 -9.9436,4.2064 -0.699,-0.3613 -1.5025,-0.5682 -2.0969,-1.0837 -2.461,-2.1345 -1.4548,-5.4779 0.098,-7.734 1.9266,-2.4027 4.3786,-4.1539 7.5192,-4.4991 3.7653,0.095 6.4412,2.2819 4.5444,6.1928 -1.4844,1.963 -3.2838,3.5969 -5.3756,4.9044 -2.1617,1.4406 -5.6589,4.2553 -8.3671,2.1483 -0.7522,-0.5851 -0.9943,-1.626 -1.4914,-2.439 0.3176,-2.9394 1.2039,-4.3217 3.2061,-6.558 2.3008,-2.4386 4.7419,-4.7478 7.4232,-6.7685 0,0 3.8224,5.0966 3.8224,5.0966 z"
       id="path3059"
       style="fill:#fc9272;fill-opacity:1;fill-rule:nonzero;stroke:none" />
    <path
       inkscape:connector-curvature="0"
       d="m 1017.695,1938.7252 c -1.8295,1.414 -3.6092,2.8882 -5.3515,4.4078 -2.4692,2.154 -1.4547,2.0217 -3.9625,-4.6564 -0.019,-0.049 0.8164,-0.6309 1.8146,-1.345 3.2555,-2.7356 6.306,-5.6867 9.2784,-8.7241 1.5757,-1.5468 3.0101,-3.2584 4.1368,-5.1623 -0.668,1.8761 -0.7904,1.3249 0.6586,3.7727 0.1249,0.211 0.4836,0.1865 0.6261,0.386 0.068,0.095 -0.2347,-10e-5 -0.352,0 -1.0395,-0.019 -0.4843,-0.065 -1.4937,0.1057 -2.426,0.4143 -4.8657,0.7363 -7.3093,1.0256 -2.3463,1.4115 -1.6746,-6.0292 -0.6461,-6.2848 0.3512,-0.087 0.7113,-0.1348 1.0669,-0.2022 1.6597,-0.5582 3.0575,-1.6464 4.4036,-2.7333 0.3333,-0.2628 0.894,-0.7709 1.1269,-1.0041 -1.4594,1.9053 3.9756,5.2075 1.3989,5.2861 -2.9845,-3.024 -3.9071,-3.3512 -2.5376,-5.6779 0.3195,0.017 1.6165,-3.1037 1.144,-2.1132 -0.3063,-0.3408 0.1796,0.3778 -0.3721,0.1665 -0.3714,0.025 -0.9872,-0.024 -1.4445,-0.028 -2.4862,0.015 -0.9726,0.2824 -1.827,-6.1316 -0.029,-0.2171 0.7924,-0.3522 0.3015,-0.2843 0.023,-0.042 0.087,-0.1719 0.07,-0.1268 -0.4276,1.1238 -0.8529,1.9177 0.094,2.8885 -2.7598,-0.4743 -2.9057,-1.6075 -3.687,-4.1241 0.4795,-1.8215 0.9282,-2.3979 2.0922,-3.6497 0,0 4.4909,4.5186 4.4909,4.5186 l 0,0 c -0.63,0.3288 -0.7218,1.7055 -0.2134,-0.7538 -1.0709,-2.3787 -0.3916,-1.4929 -2.0702,-2.3657 -1.8776,-0.9762 3.7162,1.1572 2.0289,0.5774 2.6577,1.4801 4.2581,3.9909 2.2438,6.9196 -2.6815,3.2895 -2.1976,1.5066 -4.0958,-3.8327 -0.071,-0.1986 0.7907,0.2484 0.6323,-0.01 1.405,0.015 2.8043,0.1073 4.1232,0.6469 2.3116,1.1541 3.9063,2.992 4.0026,5.6856 -0.2036,1.9277 -0.7718,3.5975 -1.9698,5.1511 -0.1407,0.2324 -0.2522,0.4852 -0.4222,0.697 -0.09,0.1127 0.2624,-0.2763 0.1795,-0.3946 -2.865,-4.09 -5.0867,-4.0222 -2.9882,-4.1297 2.3128,-0.077 6.0796,1.6315 3.5233,5.3839 -0.5645,0.6035 -1.1994,1.1359 -1.8323,1.6654 -2.1673,1.7375 -4.4706,3.3497 -7.2105,4.0282 -0.2134,0.04 -2.5271,0.4998 -2.5698,0.4038 -2.8498,-6.4112 -2.8853,-6.1391 0.2149,-6.5028 2.4387,-0.2884 4.8723,-0.6163 7.2943,-1.0238 3.6318,-0.3614 8.4493,-0.1465 6.7897,5.3365 -1.4012,2.3213 -3.1122,4.4474 -5.0491,6.3447 -3.2321,3.3016 -6.5518,6.5146 -10.1246,9.4493 -0.034,0.025 -2.586,1.8625 -2.6205,1.8356 -5.4667,-4.2586 -5.2692,-3.9239 -3.1253,-5.8171 1.8605,-1.622 3.7612,-3.1955 5.7161,-4.7029 0,0 3.8225,5.0966 3.8225,5.0966 z"
       id="path3061"
       style="fill:#fc9272;fill-opacity:1;fill-rule:nonzero;stroke:none" />
    <path
       inkscape:connector-curvature="0"
       d="m 968.11343,1992.3284 c 2.96365,-0.5748 5.9728,-0.8345 8.98098,-1.0334 2.33714,-0.1364 4.61448,-0.7456 6.93743,-1.0548 2.07544,-0.2633 4.09075,0.1558 6.16832,-0.014 1.30226,-0.1485 2.68974,-0.1855 3.94086,-0.3771 1.12084,-0.7363 2.72093,-0.488 3.84196,-1.1014 1.45286,-0.573 2.95192,-0.9955 4.49102,-1.2532 0.7528,-0.1012 1.5107,-0.1682 2.2702,-0.1833 0,0 0.1074,6.3698 0.1074,6.3698 l 0,0 c -0.4652,0.011 -0.9293,0.05 -1.3911,0.1074 -1.1974,0.1583 -2.3313,0.5929 -3.4603,1.0022 -1.43208,0.4253 -2.9106,0.6528 -4.3,1.2355 -1.65003,0.3376 -3.31653,0.3886 -4.99282,0.5506 -1.97611,0.1551 -3.88882,-0.097 -5.84391,-0.021 -2.45958,0.3197 -4.86752,0.991 -7.35011,1.0955 -2.72944,0.1794 -5.46055,0.4067 -8.15053,0.9235 0,0 -1.2494,-6.247 -1.2494,-6.247 z"
       id="path3063"
       style="fill:#de2d26;fill-opacity:1;fill-rule:nonzero;stroke:none" />
    <path
       inkscape:connector-curvature="0"
       d="m 1006.6575,2004.5507 c 1.4327,-2.2702 3.4915,-3.9009 5.5417,-5.561 1.6855,-1.3672 3.6064,-2.1824 5.7212,-2.5851 1.738,-0.2096 3.4181,-0.787 5.0833,-1.3218 2.2088,-0.5354 4.3187,-1.3628 6.5094,-1.9633 1.768,-0.4649 3.5745,-0.6408 5.3948,-0.6965 2.2413,-0.1824 4.5708,-0.4101 6.7508,-0.9957 1.6753,-0.5096 3.3616,-0.9714 5.0736,-1.3405 0.8002,-0.1808 1.6237,-0.2207 2.4414,-0.2297 0.2241,0 0.4478,0.01 0.6709,0.025 0,0 -0.6387,6.3386 -0.6387,6.3386 l 0,0 c 0.1211,0.01 0.1988,0.014 0.026,0.01 -0.3878,0.01 -0.7819,0 -1.1607,0.088 -1.6494,0.3535 -3.2671,0.8168 -4.8838,1.2965 -2.6448,0.6217 -5.3852,1.0169 -8.094,1.1793 -1.3165,0.036 -2.6209,0.1438 -3.9023,0.4741 -2.1002,0.5711 -4.1208,1.3792 -6.2401,1.8834 -1.9269,0.6187 -3.8816,1.2478 -5.8905,1.5239 -1.0828,0.179 -2.0103,0.5692 -2.871,1.2832 -1.6484,1.3171 -3.3161,2.5705 -4.4359,4.4175 0,0 -5.0965,-3.8224 -5.0965,-3.8224 z"
       id="path3065"
       style="fill:#de2d26;fill-opacity:1;fill-rule:nonzero;stroke:none" />
    <path
       style="fill:#fc9272;fill-opacity:1;stroke:none"
       id="path3004"
       d="m 887.06093,1315.9322 c 3.63524,-0.3623 7.22459,-0.8748 10.61852,-2.2617 3.38083,-1.4849 6.76228,-2.9679 10.17047,-4.3942 3.81698,-1.6188 7.79802,-2.7435 11.77112,-3.8982 3.29734,-1.3063 6.74521,-2.1039 10.16669,-2.9992 3.56533,-0.6688 7.13873,-1.2872 10.71639,-1.8975 3.45454,-0.5765 6.86291,-1.3497 10.3426,-1.7932 3.18572,-0.5963 6.25656,-1.6299 9.42155,-2.3207 2.89723,-0.7246 5.72616,-1.6702 8.59784,-2.481 2.84411,-0.5433 5.63199,-1.3268 8.47928,-1.8575 2.86176,-0.4828 5.76698,-0.5622 8.66202,-0.6134 2.757,-0.03 5.51424,-0.018 8.27135,-0.013 2.26099,-0.4443 4.51751,-0.8589 6.81084,-1.099 2.6272,-0.6455 5.2827,-1.1019 7.9728,-1.3756 2.7127,-0.065 5.3794,-0.5234 8.0082,-1.177 3.4399,-0.7104 6.6212,-2.2215 9.815,-3.6272 2.9186,-1.3542 5.9792,-2.2596 9.031,-3.2368 2.8123,-0.9029 5.5578,-2.0001 8.3653,-2.9221 3.1712,-0.7466 6.1747,-2.0122 9.2604,-3.0262 2.6997,-1.0707 5.4959,-1.8573 8.1687,-2.9969 2.8132,-1.1116 5.4636,-2.5758 8.2734,-3.6937 2.5067,-0.8857 4.7763,-2.2429 7.1106,-3.4869 2.6878,-1.6139 5.6045,-2.7868 8.6045,-3.6683 3.0243,-0.8419 6.1203,-1.4233 9.149,-2.2376 3.1014,-0.8789 6.2269,-1.6372 9.3454,-2.451 4.3273,-1.0235 8.66,-1.9834 13.0626,-2.6203 3.9677,-0.3235 7.9007,-0.7007 11.8332,-1.3177 3.6224,-0.5386 7.2861,-0.6601 10.9416,-0.7461 2.7507,-0.051 5.5019,-0.047 8.253,-0.046 3.8745,9e-4 3.8733,5.4803 -0,5.4795 l 0,0 c -2.7079,-6e-4 -5.416,-0.01 -8.1235,0.044 -3.4141,0.08 -6.8365,0.1849 -10.2206,0.6815 -3.9545,0.6204 -7.9103,1.0187 -11.901,1.3278 -4.203,0.6031 -8.3356,1.5302 -12.4672,2.5006 -3.1131,0.8045 -6.2294,1.5676 -9.3236,2.4452 -2.994,0.779 -6.0339,1.3891 -9.0208,2.2022 -2.647,0.7558 -5.1984,1.8222 -7.5607,3.2447 -2.5186,1.3332 -4.9736,2.7854 -7.6715,3.7456 -2.7763,1.0821 -5.3687,2.5769 -8.153,3.6446 -2.8203,1.1801 -5.7448,2.054 -8.5949,3.1561 -3.0896,1.0059 -6.0904,2.2887 -9.2652,3.0278 -2.8246,0.914 -5.5747,2.0406 -8.4049,2.9349 -2.8705,0.9065 -5.7431,1.7531 -8.4836,3.0301 -3.4861,1.5337 -6.969,3.1526 -10.7207,3.9345 -2.8772,0.6938 -5.7945,1.2322 -8.7608,1.3062 -2.6883,0.2671 -5.3208,0.7947 -7.9577,1.3741 -2.4857,0.2535 -4.90706,0.8267 -7.38438,1.128 -2.72184,-0 -5.44381,-0.016 -8.16555,0.013 -2.59313,0.045 -5.1962,0.1045 -7.76161,0.5229 -2.68471,0.492 -5.30812,1.2527 -7.99254,1.7443 -2.97913,0.8337 -5.91048,1.8258 -8.91877,2.5608 -3.3221,0.7165 -6.5363,1.848 -9.89516,2.402 -3.4028,0.4283 -6.73183,1.2042 -10.11138,1.7589 -3.42101,0.5816 -6.83542,1.1859 -10.24939,1.7968 -3.37521,0.8829 -6.77182,1.6714 -10.025,2.9602 -3.77438,1.096 -7.55827,2.1531 -11.18441,3.6909 -3.43353,1.4369 -6.83963,2.9309 -10.24645,4.4253 -3.81669,1.5081 -7.79936,2.2337 -11.88292,2.6003 -3.83562,0.5479 -4.61053,-4.8765 -0.77491,-5.4244 z"
       inkscape:connector-curvature="0"
       transform="translate(0,661.18442)" />
    <path
       style="fill:#fc9272;fill-opacity:1;stroke:none"
       id="path3006"
       d="m 1038.4112,1201.4777 c 2.4498,3.5589 3.0569,7.4988 2.2444,11.6682 -0.6954,3.5707 -2.804,6.5529 -4.5815,9.6451 -1.6265,2.4662 -2.6575,5.2446 -3.9014,7.9079 -1.2545,2.6344 -2.382,5.3171 -3.4408,8.0359 -0.9711,2.4663 -1.0323,5.1263 -1.4753,7.7042 -0.6029,2.6067 -0.9259,5.2548 -1.1007,7.9204 -0.3468,2.3063 0.2517,4.493 0.6447,6.7427 0.6442,2.8442 0.099,5.6851 -0.2728,8.5195 -0.6208,3.0235 -1.4394,5.9903 -2.5785,8.8591 -1.1669,2.7245 -2.3341,5.4446 -3.4169,8.2054 -0.9914,2.4466 -2.6692,4.4853 -4.0335,6.7137 -1.3894,2.04 -2.9188,3.9528 -4.7095,5.6524 -2.8184,2.6587 -6.5784,-1.3271 -3.76,-3.9859 l 0,0 c 1.4572,-1.3638 2.6698,-2.9162 3.8109,-4.5513 1.2122,-1.9407 2.6529,-3.7319 3.5922,-5.8327 1.0913,-2.7729 2.26,-5.509 3.433,-8.2462 0.9952,-2.4339 1.6426,-4.9687 2.2295,-7.5282 0.3012,-2.2914 0.8302,-4.5655 0.3073,-6.8658 -0.4633,-2.6701 -1.0981,-5.3121 -0.7139,-8.0453 0.1921,-2.8654 0.5299,-5.7154 1.1737,-8.5186 0.5457,-2.9195 0.5715,-5.9548 1.7653,-8.7354 1.1063,-2.8296 2.2804,-5.6244 3.5835,-8.3689 1.3165,-2.7989 2.4011,-5.7236 4.1152,-8.3179 1.5002,-2.5995 3.3414,-5.0918 3.9758,-8.0773 0.6544,-2.49 0.1733,-4.8804 -1.1694,-7.078 -2.4204,-3.0256 1.8583,-6.4486 4.2787,-3.423 z"
       inkscape:connector-curvature="0"
       transform="translate(0,661.18442)" />
    <path
       style="fill:#fc9272;fill-opacity:1;stroke:none"
       id="path3008"
       d="m 1025.1941,1319.0035 c -3.5578,2.5863 -6.1188,6.2092 -8.8646,9.5875 -3.1392,3.4008 -6.4377,6.683 -9.9723,9.6739 -1.1086,1.0526 -2.3123,1.9842 -3.4268,3.0294 -2.8374,2.6384 -6.56878,-1.3742 -3.73143,-4.0127 l 0,0 c 1.18843,-1.0978 2.44193,-2.1061 3.62793,-3.2074 3.2854,-2.7532 6.3122,-5.823 9.2504,-8.9392 3.0919,-3.8041 6.0164,-7.8432 10.0774,-10.6907 3.2238,-2.1492 6.2632,2.41 3.0394,4.5592 z"
       inkscape:connector-curvature="0"
       transform="translate(0,661.18442)" />
    <path
       style="fill:#fc9272;fill-opacity:1;stroke:none"
       id="path3010"
       d="m 1027.784,1343.4658 c -3.3004,0.2156 -6.445,1.162 -9.5618,2.1972 -2.9346,1.4834 -5.937,2.7206 -9.0012,3.9067 -2.7303,0.8877 -5.227,2.2648 -7.725,3.6467 -2.2278,1.251 -4.43251,2.5006 -6.50778,3.995 -3.14964,2.2566 -6.34086,-2.1977 -3.19122,-4.4542 l 0,0 c 2.25515,-1.6088 4.62973,-2.9891 7.04781,-4.3361 2.71879,-1.5021 5.44539,-2.9846 8.40859,-3.9654 3.1493,-1.2054 6.198,-2.5362 9.2423,-3.9931 3.6719,-1.2185 7.3968,-2.2861 11.2883,-2.4763 3.8745,0 3.8745,5.4795 0,5.4795 z"
       inkscape:connector-curvature="0"
       transform="translate(0,661.18442)" />
    <path
       style="fill:#fc9272;fill-opacity:1;stroke:none"
       id="path3012"
       d="m 1021.6757,1337.784 c 4.4865,-2.1044 9.2888,-3.4034 13.9098,-5.1709 3.5587,-1.3764 7.2413,-2.4419 10.9708,-3.2404 4.0823,-0.588 8.1462,-1.2932 12.2454,-1.7683 3.9927,-0.1626 7.9164,-0.8872 11.8738,-1.3768 4.2065,-0.7336 8.3721,-1.6805 12.5409,-2.606 4.6994,-0.8802 9.3531,-1.9766 14.0794,-2.7082 4.5603,-0.7887 9.0993,-1.6954 13.6664,-2.4445 4.3386,-1.0039 8.7542,-1.5542 13.1116,-2.4569 3.4315,-0.5097 6.5543,-2.0813 9.7759,-3.2811 2.3476,-0.9493 1.1598,-0.4813 3.5639,-1.4028 3.6182,-1.386 5.5782,3.7309 1.96,5.1169 l 0,0 c -2.3617,0.904 -1.1551,0.4305 -3.6184,1.4233 -3.4827,1.2857 -6.8596,2.9699 -10.5704,3.5093 -4.4329,0.9174 -8.923,1.4855 -13.338,2.4989 -4.584,0.7477 -9.1384,1.6645 -13.7157,2.4523 -4.6094,0.7084 -9.1451,1.7919 -13.729,2.6424 -4.339,0.9602 -8.6731,1.9542 -13.0554,2.6946 -3.971,0.4891 -7.9098,1.2177 -11.9159,1.3818 -3.9296,0.4528 -7.8233,1.1376 -11.7385,1.6855 -3.4549,0.7232 -6.8589,1.7347 -10.154,2.9997 -4.4553,1.6951 -9.0703,2.9742 -13.4121,4.9521 -3.4655,1.7328 -5.916,-3.1682 -2.4505,-4.9009 z"
       inkscape:connector-curvature="0"
       transform="translate(0,661.18442)" />
    <path
       style="fill:#fc9272;fill-opacity:1;stroke:none"
       id="path3014"
       d="m 769.9896,1213.8615 c 0.65754,4.5267 0.90559,9.0991 1.08701,13.6655 0.13,4.4102 0.80431,8.7799 1.1497,13.1779 0.0933,4.3918 0.75658,8.7328 1.18883,13.0972 0.41653,4.7374 0.49223,9.4948 0.54491,14.2472 0.0321,3.9492 0.0242,7.8986 0.0203,11.8479 -0.0222,3.1394 -0.13087,6.2529 0.35144,9.3595 0.31106,3.0596 0.79636,5.9785 1.78685,8.887 0.82385,2.5387 1.99164,4.9537 3.01406,7.4196 0.8858,2.716 2.11809,5.2957 3.07529,7.9841 1.10952,2.1155 1.73764,4.4537 2.90426,6.5364 1.31152,2.1331 1.76557,4.6411 2.89141,6.8546 1.04051,2.4371 2.79354,4.4266 4.53347,6.3842 2.46952,1.9996 4.51086,4.4487 6.84551,6.5872 1.54986,1.9111 3.5645,2.895 5.78464,3.7997 2.47548,0.718 4.76271,1.896 6.81432,3.4418 1.79427,1.3131 3.21145,3.0515 4.86494,4.5283 1.82661,1.5614 3.92824,2.7746 5.96067,4.0489 2.25625,1.4342 4.55413,2.8017 6.59456,4.5384 2.86709,2.3459 5.89378,4.4678 8.5953,7.0126 2.28135,2.2686 4.94169,4.078 7.44472,6.0827 2.66761,2.5132 5.71473,4.539 8.5394,6.8579 2.10989,2.2292 4.31714,4.2585 6.88326,5.9332 3.00549,2.028 5.99993,4.0698 8.99452,6.1145 3.28678,1.913 6.44734,4.0499 9.86529,5.7252 3.44679,1.6944 6.89268,3.3482 10.22025,5.2698 3.58873,2.0201 6.47387,4.9217 9.04137,8.0923 1.91995,2.1753 3.67643,4.4441 5.83261,6.3937 2.3403,1.6901 4.67591,3.4122 6.78431,5.3881 1.80988,2.1448 4.14035,3.6835 6.37746,5.3298 2.90048,1.6679 5.3559,3.8869 7.51928,6.4176 1.9078,2.354 3.53087,4.8952 4.9674,7.5566 1.08359,2.3377 2.02056,4.7375 3.04508,7.1022 0.76967,2.3413 2.13126,4.3372 3.823,6.1033 1.96559,1.9351 3.28306,4.355 4.84993,6.5876 1.49581,2.332 2.668,4.8639 3.82091,7.3797 1.23915,2.6017 3.00787,4.8931 4.67886,7.2235 1.82533,2.2306 3.32067,4.6779 4.78338,7.1531 1.3154,2.4577 2.26833,5.0703 3.2261,7.6807 1.02605,2.7117 1.719,5.5197 2.55421,8.2889 0.80911,2.6061 1.38731,5.3135 2.42457,7.842 0.62866,2.072 2.1103,3.5816 3.47831,5.1816 2.02311,1.5839 3.47354,3.5517 4.75677,5.7484 0.76829,1.4641 1.46989,2.9597 2.22989,4.4277 1.77581,3.4436 -3.09425,5.955 -4.87005,2.5114 l 0,0 c -0.71188,-1.3852 -1.38483,-2.788 -2.09145,-4.1757 -1.17641,-2.0147 -2.35942,-3.4432 -4.195,-4.957 -1.74994,-2.0599 -3.57004,-4.0881 -4.40603,-6.7266 -1.03727,-2.7012 -1.77511,-5.5103 -2.57859,-8.2881 -0.78613,-2.6676 -1.46285,-5.3609 -2.4479,-7.9683 -0.84125,-2.3018 -1.6717,-4.6051 -2.80242,-6.7845 -1.37318,-2.3416 -2.78864,-4.6407 -4.51677,-6.7434 -1.87269,-2.6189 -3.84242,-5.2023 -5.20804,-8.1372 -1.0119,-2.224 -2.04937,-4.4596 -3.34036,-6.535 -1.39612,-2.0335 -2.5955,-4.21 -4.35485,-5.9731 -2.06718,-2.258 -3.8706,-4.7368 -4.84806,-7.674 -0.94946,-2.2205 -1.85083,-4.4598 -2.83337,-6.6645 -1.25833,-2.3313 -2.66329,-4.5626 -4.33428,-6.6268 -1.85493,-2.2417 -4.06262,-4.0715 -6.57919,-5.5375 -2.42017,-1.7827 -4.93436,-3.4696 -6.90713,-5.774 -2.0383,-1.9868 -4.44884,-3.5558 -6.68895,-5.2994 -2.35814,-2.148 -4.32478,-4.6046 -6.41207,-7.0076 -2.13711,-2.653 -4.51537,-5.1089 -7.52003,-6.791 -3.22377,-1.8633 -6.567,-3.4564 -9.90582,-5.1015 -3.63827,-1.8088 -7.03924,-4.0385 -10.52915,-6.1133 -2.96423,-2.0254 -5.92941,-4.0465 -8.90495,-6.0546 -2.72584,-1.7889 -5.15773,-3.8773 -7.36354,-6.2864 -2.80096,-2.31 -5.83977,-4.3118 -8.48544,-6.814 -2.61997,-2.1023 -5.4055,-4.0014 -7.79009,-6.3842 -2.62346,-2.5151 -5.65601,-4.5158 -8.42588,-6.8583 -1.76745,-1.6102 -3.9446,-2.6867 -5.90877,-4.0283 -2.29959,-1.4504 -4.67763,-2.8249 -6.72429,-4.6282 -1.5373,-1.4093 -2.90306,-3.012 -4.56239,-4.2733 -1.5764,-1.3416 -3.58848,-2.0468 -5.52605,-2.6906 -2.77678,-1.1572 -5.43429,-2.4936 -7.41421,-4.8415 -2.44994,-2.2817 -4.6578,-4.8125 -7.22456,-6.974 -2.06815,-2.335 -4.10965,-4.7367 -5.36406,-7.628 -1.02969,-2.1832 -1.62596,-4.5348 -2.789,-6.6542 -1.23796,-2.3649 -2.0941,-4.8952 -3.24367,-7.304 -0.91085,-2.6024 -2.13553,-5.0837 -2.97209,-7.7149 -1.06333,-2.5765 -2.28198,-5.0987 -3.13914,-7.752 -1.08885,-3.2131 -1.67341,-6.4473 -2.01482,-9.8198 -0.51262,-3.3865 -0.46562,-6.7746 -0.41459,-10.1944 0.004,-3.9273 0.0118,-7.8547 -0.0199,-11.7819 -0.0507,-4.5927 -0.12071,-9.1903 -0.51868,-13.7688 -0.43407,-4.4011 -1.10269,-8.7796 -1.19865,-13.2081 -0.34942,-4.4682 -1.03991,-8.9073 -1.16215,-13.3891 -0.17122,-4.3375 -0.40319,-8.6805 -1.01675,-12.9816 -0.63698,-3.8218 4.76792,-4.7226 5.4049,-0.9008 z"
       inkscape:connector-curvature="0"
       transform="translate(0,661.18442)" />
    <path
       style="fill:#fc9272;fill-opacity:1;stroke:none"
       id="path3009"
       d="m 1107.9251,1292.9994 c -1.79,0.8081 -3.6401,1.6925 -5.6011,1.9999 -0.4718,0.074 -1.2817,0.535 -1.4302,0.081 -1.0528,-3.2153 -1.2088,-6.6576 -1.8132,-9.9864 6.2148,-2.2569 12.5861,-4.1016 18.8403,-6.2751 7.2672,-2.5946 14.4791,-5.361 21.9121,-7.4526 3.2378,-0.7549 6.4917,-1.4722 9.7764,-1.9868 7.1979,-1.084 8.7309,9.0953 1.533,10.1793 l 0,0 c -2.8723,0.4063 -5.6997,1.1198 -8.5361,1.721 -7.2362,2.0106 -14.2304,4.77 -21.308,7.2634 -5.69,1.9752 -11.4095,3.874 -17.1987,5.5384 -3.7867,-11.5292 -6.5825,-7.6449 0.5703,-10.8481 6.9055,-2.3018 10.1607,7.464 3.2552,9.7658 z"
       inkscape:connector-curvature="0"
       transform="translate(0,661.18442)" />
    <path
       style="fill:#fc9272;fill-opacity:1;stroke:none"
       id="path3011"
       d="m 51.539534,1595.5581 c 0.46029,0.3866 5.367758,-2.939 5.5563,-2.6897 0.909414,1.2029 1.620734,2.5434 2.431101,3.815 -1.498502,2.0253 -3.509765,3.5455 -5.390067,5.1902 -2.99217,2.9639 -6.7492,4.9055 -10.254699,7.1679 -4.155713,2.737 -8.292462,5.4662 -12.629735,7.9071 -3.880304,2.0461 -7.174789,4.9314 -10.574576,7.6541 -3.497159,2.7651 -6.855176,5.6967 -10.294116,8.531 -2.8072646,2.4463 -5.8951113,4.527 -8.8062813,6.8417 -2.9688293,2.4958 -5.7377184,5.1994 -8.7454759,7.6497 -1.9375367,1.7735 -4.1035738,3.2253 -6.2387648,4.7407 -2.544513,1.8048 -5.096878,-1.7937 -2.552365,-3.5985 l 0,0 c 2.057375,-1.4584 4.144586,-2.8465 6.0053397,-4.5632 3.0222625,-2.4601 5.7915274,-5.1909 8.7871008,-7.6832 2.893284,-2.2964 5.9555621,-4.3671 8.7462314,-6.7931 3.4574791,-2.8437 6.8257401,-5.7949 10.3414011,-8.5694 3.587831,-2.8702 7.074811,-5.8974 11.167954,-8.0546 4.260108,-2.397 8.318779,-5.0837 12.402187,-7.7699 3.32705,-2.1442 6.902208,-3.9712 9.741554,-6.7813 1.523386,-1.3319 3.140153,-2.5756 4.481882,-4.0893 1.085244,0.7996 2.256529,1.4941 3.255731,2.3989 0.142892,0.1294 -0.201758,0.026 -1.014239,0.4517 -1.46252,0.767 -2.888275,1.6079 -4.443462,2.1902 -2.790245,1.3951 -4.763246,-2.5509 -1.973001,-3.946 z"
       inkscape:connector-curvature="0"
       transform="translate(0,661.18442)" />
    <path
       style="fill:#fc9272;fill-opacity:1;stroke:none"
       id="path3013"
       d="m 975.95555,1515.2074 c 2.31928,3.5854 4.96275,6.8696 7.98351,9.879 3.24651,3.345 5.95136,7.1572 8.9479,10.7204 2.7561,2.7585 5.73602,5.3132 8.78144,7.7496 2.6427,2.1919 4.8634,4.7751 6.7439,7.6356 1.6622,2.4413 3.3516,4.9356 5.4479,7.0316 2.6701,2.4764 5.4224,4.8514 8.2593,7.1334 2.845,2.5418 5.9346,4.7368 9.1531,6.7719 2.5283,1.5436 4.3491,3.5533 5.799,6.1106 0.1997,0.3024 0.3993,0.6047 0.599,0.9071 1.7056,2.612 -1.9884,5.0241 -3.694,2.4121 l 0,0 c -0.2536,-0.3919 -0.5073,-0.7837 -0.7609,-1.1755 -1.0596,-1.9621 -2.3851,-3.3544 -4.306,-4.5287 -3.3513,-2.1312 -6.5875,-4.4096 -9.5556,-7.06 -2.9697,-2.3893 -5.8525,-4.8762 -8.6397,-7.4776 -2.271,-2.3391 -4.1957,-5.0074 -5.9987,-7.7168 -1.6016,-2.4869 -3.544,-4.6952 -5.81013,-6.6041 -3.25954,-2.6273 -6.47784,-5.3463 -9.3957,-8.3503 -2.91271,-3.4663 -5.55011,-7.1669 -8.68732,-10.4366 -3.13002,-3.129 -5.91902,-6.5129 -8.31201,-10.2457 -1.94879,-2.436 1.49622,-5.192 3.44501,-2.756 z"
       inkscape:connector-curvature="0"
       transform="translate(0,661.18442)" />
    <path
       style="fill:#fc9272;fill-opacity:1;stroke:none"
       id="path3015"
       d="m 1042.1504,1133.7108 c 0.8336,3.7463 2.6977,6.8993 5.0911,9.8337 2.9123,3.0885 5.5116,6.4482 8.7302,9.2294 3.16,2.3976 6.0685,5.0965 8.8696,7.8986 1.5398,1.6382 0.7991,0.7778 2.2171,2.5855 1.9115,2.4654 -1.5751,5.1687 -3.4866,2.7033 l 0,0 c -1.1157,-1.4612 -0.5024,-0.7315 -1.8563,-2.1754 -2.7172,-2.7395 -5.5701,-5.3433 -8.6409,-7.6848 -3.3909,-2.9718 -6.2044,-6.4726 -9.2596,-9.7776 -2.7043,-3.3507 -4.8704,-6.9694 -5.85,-11.2176 -0.9865,-2.9595 3.1989,-4.3546 4.1854,-1.3951 z"
       inkscape:connector-curvature="0"
       transform="translate(0,661.18442)" />
  </g>
</svg>
