<?xml version="1.0" encoding="UTF-8" standalone="no"?>
<!-- Created with Inkscape (http://www.inkscape.org/) -->

<svg
   xmlns:dc="http://purl.org/dc/elements/1.1/"
   xmlns:cc="http://creativecommons.org/ns#"
   xmlns:rdf="http://www.w3.org/1999/02/22-rdf-syntax-ns#"
   xmlns:svg="http://www.w3.org/2000/svg"
   xmlns="http://www.w3.org/2000/svg"
   xmlns:xlink="http://www.w3.org/1999/xlink"
   xmlns:sodipodi="http://sodipodi.sourceforge.net/DTD/sodipodi-0.dtd"
   xmlns:inkscape="http://www.inkscape.org/namespaces/inkscape"
   id="svg2"
   version="1.1"
   inkscape:version="0.48.4 r9939"
   width="640"
   height="1034"
   sodipodi:docname="46693-14.svg"
   inkscape:export-filename="/tmp/brokenInterface/data-analysis/data/display-damages-png/46693-14.png"
   inkscape:export-xdpi="107.76"
   inkscape:export-ydpi="107.76">
  <metadata
     id="metadata8">
    <rdf:RDF>
      <cc:Work
         rdf:about="">
        <dc:format>image/svg+xml</dc:format>
        <dc:type
           rdf:resource="http://purl.org/dc/dcmitype/StillImage" />
        <dc:title />
      </cc:Work>
    </rdf:RDF>
  </metadata>
  <defs
     id="defs6" />
  <sodipodi:namedview
     pagecolor="#ffffff"
     bordercolor="#666666"
     borderopacity="1"
     objecttolerance="10"
     gridtolerance="10"
     guidetolerance="10"
     inkscape:pageopacity="0"
     inkscape:pageshadow="2"
     inkscape:window-width="1280"
     inkscape:window-height="732"
     id="namedview4"
     showgrid="false"
     inkscape:zoom="0.91295938"
     inkscape:cx="337.786"
     inkscape:cy="130.9467"
     inkscape:window-x="-8"
     inkscape:window-y="-8"
     inkscape:window-maximized="1"
     inkscape:current-layer="layer2" />
  <image
     width="640"
     height="1034"
     xlink:href="file:///tmp/broken-interfaces/phone_cropped_display/46693-14.png"
     id="image10"
     x="-1.0953389"
     y="-1.0953389" />
  <g
     inkscape:groupmode="layer"
     id="layer1"
     inkscape:label="Layer">
    <g
       id="g0"
       inkscape:label="#g3017">
      <path
         inkscape:connector-curvature="0"
         d="m -8.8113526,870.8342 c 1.5022724,1.20105 2.9563152,2.45442 4.4849404,3.62229 1.5775167,1.15882 3.0354442,2.4605 4.54943954,3.69575 0.80576396,0.81645 1.72121536,1.48733 2.69424076,2.08443 0.5923191,0.30873 1.2913635,0.80808 1.7398077,1.09956 0.6838319,0.45171 1.3739878,1.03923 1.9150822,1.55056 0.5979466,0.29109 1.0579221,0.79329 1.6255247,1.12505 0.8967526,0.76516 1.8935223,1.39437 2.8421683,2.08694 0.909188,0.55729 1.768148,1.18189 2.584798,1.86679 0.612522,0.52865 1.280318,0.90597 1.992837,1.2671 0.868851,0.53642 1.708305,1.12397 2.555557,1.69089 0.568253,0.42156 1.141505,0.83552 1.724149,1.24371 0.605627,0.25622 1.267452,0.87493 1.884853,1.29016 0.525625,0.31622 0.977705,0.7396 1.529186,1.00024 1.003826,0.44779 1.764873,1.25919 2.662103,1.86122 0.916784,0.5835 1.807609,1.20103 2.725182,1.78421 0.821496,0.45356 1.505265,1.19454 2.379528,1.54756 0.89409,0.60416 1.893685,0.98734 2.785932,1.58966 0.582385,0.27032 1.129724,0.65063 1.664007,0.9699 0.68352,0.4905 1.423594,0.84896 2.159731,1.24661 0.926552,0.47406 1.775743,1.07085 2.654291,1.62555 1.009286,0.61539 1.95348,1.32124 2.854733,2.08444 0.485295,0.46484 1.004815,0.89706 1.548502,1.29854 0.618472,0.42993 1.186669,0.92613 1.737989,1.43776 0.662074,0.41914 1.210866,1.06013 1.751182,1.65038 0.140269,0.14224 1.15716,0.97013 1.692027,1.52513 0.963951,0.74054 1.84556,1.58471 2.822577,2.30675 1.39873,1.11368 2.742597,2.28487 4.184901,3.34607 1.761835,1.27702 3.373365,2.74032 4.955286,4.22964 1.252509,1.1988 2.477891,2.42582 3.693539,3.66189 0.741767,0.60176 1.336172,1.2226 1.916953,1.74486 0.492913,0.54648 0.978359,1.0985 1.480153,1.63727 0.616787,0.64029 1.236846,1.27713 1.868339,1.90295 0.700264,0.70389 1.408207,1.40004 2.104073,2.10831 0.864829,0.85681 1.729028,1.71421 2.594919,2.56996 1.1154,1.11603 2.231828,2.23102 3.347535,3.34674 1.212535,1.06118 2.36623,2.18868 3.566198,3.26531 1.127736,0.87267 2.100093,1.94871 3.250559,2.78873 0.743721,0.62843 1.428311,1.3153 2.219716,1.88448 0.801311,0.60696 1.643224,1.13868 2.41768,1.78305 0.576633,0.60505 1.229714,1.11626 1.893112,1.62362 0.784713,0.52484 1.515634,1.12421 2.271096,1.69408 1.069364,0.78637 2.057987,1.67066 3.030427,2.57177 1.172037,0.94418 2.431342,1.76398 3.653469,2.63939 1.2058,1.02027 2.55927,1.82896 3.84809,2.7313 1.18848,0.77115 2.37033,1.54633 3.541,2.34499 1.34599,0.7732 2.67752,1.56778 4.01874,2.34933 1.45319,0.94396 2.85705,1.98546 4.22715,3.04896 1.02174,0.69752 1.88659,1.58573 2.84815,2.35801 0.93717,0.72282 1.91793,1.39021 2.86165,2.10857 1.25848,1.05133 2.50224,2.12325 3.71887,3.22172 1.07376,0.89619 2.25134,1.64799 3.32832,2.54016 0.92078,0.7619 1.86866,1.50422 2.63488,2.42705 0.48488,0.46729 0.94608,0.96945 1.4787,1.39787 0.68878,0.72665 1.43945,1.38478 2.12767,2.11061 0.63029,0.48915 1.20541,1.00753 1.73682,1.60341 0.73927,0.90849 1.52174,1.79084 2.2877,2.68324 0.93506,1.05427 1.98328,1.99066 2.95529,3.01193 0.75437,1.03132 1.69428,1.90234 2.61019,2.78591 1.0686,1.15913 2.14781,2.29385 3.13748,3.524 0.7704,0.96069 1.59282,1.87554 2.44988,2.75904 0.95643,0.9872 1.9303,1.9575 2.90622,2.9254 1.10361,1.0947 2.19873,2.1979 3.29857,3.2963 1.0024,0.9974 1.99493,2.0045 2.99891,3.0003 1.20684,1.0427 2.3134,2.1834 3.52718,3.2211 1.38454,1.4724 2.88522,2.8236 4.31187,4.2516 1.2118,1.1675 2.35421,2.4124 3.57559,3.5695 1.41141,1.2394 2.79701,2.5066 4.15898,3.8 1.45602,1.3025 2.85293,2.6613 4.21694,4.0609 1.3697,1.4058 2.74105,2.8102 4.1184,4.2085 1.39828,1.617 2.76473,3.259 4.20479,4.8396 1.45643,1.4295 2.70019,3.0428 3.98266,4.6236 0.77861,0.7937 1.36911,1.7837 2.134,2.5816 1.44537,1.4417 1.20124,2.0496 0.54149,3.8477 0,0 -3.84838,-2.6467 -3.84838,-2.6467 l 0,0 c -0.2537,1.0083 -0.45697,1.0472 -0.0178,1.9864 0.0888,0.1899 0.30345,0.3016 0.39282,0.4912 0.12989,0.2757 -0.89851,-1.0363 -0.64584,-0.647 -0.72497,-0.8858 -1.46994,-1.7549 -2.22273,-2.6242 -1.23545,-1.5086 -2.44365,-3.0388 -3.83367,-4.4117 -1.39412,-1.5336 -2.73451,-3.1119 -4.05439,-4.7097 -1.39332,-1.4024 -2.78403,-2.8074 -4.15143,-4.2353 -1.3181,-1.3605 -2.67765,-2.6673 -4.09265,-3.9257 -1.36171,-1.301 -2.74758,-2.5752 -4.15524,-3.8264 -1.23703,-1.1956 -2.42018,-2.4465 -3.65973,-3.6395 -1.33724,-1.3482 -2.78044,-2.5901 -4.05874,-3.9999 -1.29134,-1.1246 -2.46335,-2.3634 -3.76022,-3.4795 -0.99546,-1.0036 -2.0023,-1.9957 -2.99983,-2.9972 -1.09917,-1.0992 -2.20369,-2.193 -3.2998,-3.2951 -0.99222,-0.9992 -1.99119,-1.9916 -2.97093,-3.0031 -0.93571,-0.9863 -1.85571,-1.988 -2.70918,-3.0473 -0.885,-1.0784 -1.81921,-2.09785 -2.76714,-3.11897 -0.94884,-0.93306 -1.9455,-1.83998 -2.7325,-2.91833 -1.02275,-1.07628 -2.15391,-2.0393 -3.11063,-3.17734 -0.8093,-0.93223 -1.59971,-1.88623 -2.37801,-2.84101 0.18771,0.0719 0.10419,0.0503 -0.17378,-0.18457 -0.30991,-0.26186 -0.63878,-0.5014 -0.93885,-0.77491 -0.15846,-0.14443 -0.30869,-0.29765 -0.46303,-0.44647 -0.32557,-0.62183 -1.2324,-0.96091 -1.58227,-1.58912 -0.7787,-0.63405 -1.45298,-1.36664 -2.15695,-2.07851 -0.54888,-0.71092 -1.38643,-1.18054 -2.04218,-1.78951 -1.09145,-0.95697 -2.39711,-1.64608 -3.46243,-2.64055 -1.11925,-1.021 -2.28445,-1.99395 -3.42998,-2.9864 -0.94899,-0.74603 -1.9454,-1.42517 -2.89768,-2.16407 -0.9608,-0.75603 -1.81952,-1.63213 -2.8357,-2.31765 -1.19436,-0.94395 -2.45104,-1.83078 -3.70946,-2.68308 -1.43661,-0.84315 -2.86767,-1.69275 -4.29888,-2.54533 -1.18273,-0.81775 -2.39112,-1.58838 -3.59314,-2.37705 -1.29195,-0.92317 -2.675983,-1.72048 -3.896304,-2.74697 -1.374823,-0.99916 -2.801601,-1.92602 -4.096939,-3.03177 -0.864745,-0.81074 -1.748248,-1.60103 -2.698493,-2.31143 -0.742136,-0.58617 -1.471573,-1.17281 -2.264171,-1.69345 -0.729111,-0.5737 -1.453869,-1.14798 -2.111949,-1.80189 -0.575939,-0.62636 -1.450142,-0.91396 -2.061018,-1.50846 -0.817271,-0.58762 -1.564788,-1.26103 -2.318383,-1.92715 -1.246244,-0.95431 -2.37434,-2.05256 -3.588247,-3.04798 -1.249872,-1.13917 -2.471131,-2.30478 -3.734022,-3.42856 -1.115684,-1.11567 -2.230619,-2.23207 -3.346672,-3.34738 -0.855439,-0.86546 -1.71251,-1.72924 -2.569491,-2.59316 -0.711599,-0.69811 -1.411429,-1.40796 -2.116525,-2.1126 -0.659223,-0.67074 -1.32772,-1.33268 -1.97009,-2.01973 -0.437657,-0.4692 -0.861036,-0.9505 -1.275948,-1.43982 -0.68118,-0.58926 -1.305416,-1.25509 -2.024594,-1.80886 -1.201578,-1.18349 -2.400125,-2.37007 -3.621794,-3.53297 -1.440697,-1.36034 -2.904255,-2.70209 -4.508706,-3.8701 -1.458105,-1.07652 -2.816926,-2.25983 -4.220933,-3.39968 -1.172049,-0.90113 -2.285458,-1.88185 -3.397837,-2.85526 -0.525425,-0.58442 -1.15803,-1.01647 -1.715069,-1.5733 -0.464025,-0.50325 -0.891998,-1.02702 -1.487111,-1.38498 -0.42812,-0.39685 -0.86044,-0.7936 -1.348388,-1.11696 -0.727927,-0.54425 -1.094251,-0.8959 -1.857278,-1.53132 -0.646197,-0.65619 -1.501073,-1.08513 -2.238184,-1.62195 -0.815914,-0.50468 -1.583059,-1.07699 -2.44257,-1.50742 -0.651261,-0.36737 -1.463754,-0.73827 -1.960749,-1.15264 -0.761393,-0.40923 -1.468189,-0.9022 -2.236829,-1.29969 -0.696264,-0.49631 -1.562352,-0.70503 -2.236398,-1.25209 -0.973218,-0.5149 -1.867859,-1.15005 -2.776921,-1.77053 -1.005884,-0.62432 -1.968943,-1.30857 -2.968681,-1.94286 -0.667522,-0.49345 -1.274435,-1.06669 -1.995034,-1.48468 -0.789592,-0.39673 -1.481146,-0.92312 -2.215617,-1.40884 -0.589902,-0.44312 -1.132648,-0.93114 -1.810813,-1.24757 -0.769647,-0.53949 -0.824488,-0.6506 -1.741115,-1.24417 -0.579736,-0.52749 -1.398256,-0.8723 -2.008095,-1.34811 -1.009992,-0.5335 -1.957763,-1.12009 -2.847286,-1.83787 -0.7563374,-0.62824 -1.5555457,-1.1857 -2.3906643,-1.70553 -0.8562259,-0.67588 -1.8487844,-1.1898 -2.6411245,-1.95269 -0.6377943,-0.44762 -1.2279086,-0.95083 -1.9036788,-1.34388 -0.2236886,-0.19098 -1.1250316,-0.9788 -1.2002271,-1.08958 -0.7011014,-0.40636 -1.3401146,-0.89839 -2.06475906,-1.26617 -1.12121845,-0.7161 -2.24315374,-1.44376 -3.18441154,-2.39623 -1.4722426,-1.20416 -2.9102906,-2.44507 -4.4390609,-3.5809 -1.696632,-1.29288 -3.3295188,-2.66161 -4.9247438,-4.07802 0,0 3.3227314,-3.32273 3.3227314,-3.32273 z"
         id="path2994"
         style="fill:#de2d26;fill-opacity:1;fill-rule:nonzero;stroke:none" />
    </g>
  </g>
  <g
     inkscape:groupmode="layer"
     id="layer2"
     inkscape:label="Layer#1"
     style="display:inline">
    <g
       id="g1"
       inkscape:label="#g3009">
      <path
         inkscape:connector-curvature="0"
         d="m -2.8686385,1021.5574 c 1.4386343,1.1499 3.02090776,2.0773 4.7088039,2.8069 2.5962069,0.9299 5.3211934,1.3639 8.0331008,1.8022 3.7005858,0.5363 7.4088198,1.008 11.1097138,1.5416 3.337967,0.6561 6.707772,1.1109 10.067828,1.6327 2.797806,0.3733 5.565064,0.9595 8.257634,1.8051 1.497601,0.4969 2.954087,1.088 4.406648,1.7005 1.004719,0.5142 2.018771,1.0394 2.89264,1.758 0.838843,0.5288 1.531938,1.3004 2.179072,2.0451 0.649239,0.746 1.322858,1.47 1.990609,2.1993 0.362484,0.3704 0.722346,0.7434 1.080668,1.1178 1.088732,1.1395 0.04585,0.265 -1.508191,4.1084 0,0 -0.373725,-4.6491 -0.373725,-4.6491 l 0,0 c -1.291691,4.0248 -0.281022,4.9119 -1.415895,3.8329 -0.405983,-0.3912 -0.805138,-0.7896 -1.191659,-1.2 -0.730511,-0.7553 -1.443683,-1.5272 -2.127067,-2.3257 -0.510302,-0.586 -0.991218,-1.1561 -1.654681,-1.5521 -0.45281,-0.4275 -1.137818,-0.6256 -1.664966,-0.9868 -1.335845,-0.5394 -2.661535,-1.0852 -4.043841,-1.5028 -2.46074,-0.7763 -5.004251,-1.2681 -7.561185,-1.601 -3.342474,-0.514 -6.695797,-0.9541 -10.017209,-1.5979 -3.738061,-0.5288 -7.481027,-1.0147 -11.215147,-1.5711 -3.1065833,-0.5277 -6.2293739,-1.0613 -9.18130586,-2.2056 -1.99315864,-0.9057 -3.91946994,-1.9697 -5.58765914,-3.404 0,0 2.8158135,-3.7544 2.8158135,-3.7544 z"
         id="path2997"
         style="fill:#fc9272;fill-opacity:1;fill-rule:nonzero;stroke:none" />
      <path
         inkscape:connector-curvature="0"
         d="m -0.71479046,1005.0639 c 2.07639846,1.0323 4.07708316,2.2 6.06379326,3.3936 1.8344423,1.2 3.7218281,2.3131 5.5211482,3.5663 1.651155,1.2679 3.393692,2.4122 5.040921,3.684 1.123118,0.7808 2.165676,1.6673 3.3213,2.3996 1.181518,0.7324 2.354901,1.4678 3.414031,2.372 0.980898,0.7133 1.922159,1.4639 2.798397,2.308 0.738855,0.6886 1.441944,1.427 2.236475,2.0536 0.995473,0.8883 1.968584,1.7989 2.972855,2.6789 1.113708,1.0606 2.21121,2.1383 3.342224,3.1836 0.794007,0.8271 1.713311,1.5062 2.531273,2.3041 0.705771,0.6214 1.229586,1.4615 1.996995,2.01 0.181029,0.1672 0.357121,0.34 0.543088,0.5018 0.414906,0.3609 0.842696,0.6379 1.238542,1.0334 0.199404,0.1993 0.57346,0.657 0.328101,0.3585 -0.470441,-0.4116 -0.963459,-0.3856 -1.559927,-0.4043 0,0 0.756951,4.5913 0.756951,4.5913 l 0,0 c -0.829996,0 -1.480068,-0.034 -2.157473,-0.5714 -0.710513,-0.6255 -1.387296,-1.2743 -2.128564,-1.8697 -0.822293,-0.7039 -1.547884,-1.4968 -2.288063,-2.2858 -0.792438,-0.7663 -1.697831,-1.4064 -2.464543,-2.2042 -1.103648,-1.0216 -2.188306,-2.0603 -3.261617,-3.1105 -0.968798,-0.8614 -1.907089,-1.7514 -2.875658,-2.6111 -0.842459,-0.7281 -1.651821,-1.4942 -2.456809,-2.2629 -0.843186,-0.7986 -1.759408,-1.4803 -2.683216,-2.1809 -0.802596,-0.7926 -1.871454,-1.2584 -2.782961,-1.9061 -1.292622,-0.8038 -2.465958,-1.7708 -3.714944,-2.6395 -1.587911,-1.2255 -3.2906883,-2.2991 -4.8738246,-3.5327 -1.7031485,-1.196 -3.4935709,-2.2541 -5.2394518,-3.385 -1.8868334,-1.1268 -3.79687232,-2.2096 -5.7248384,-3.263 0,0 2.10579534,-4.2116 2.10579534,-4.2116 z"
         id="path2999"
         style="fill:#fc9272;fill-opacity:1;fill-rule:nonzero;stroke:none" />
      <path
         inkscape:connector-curvature="0"
         d="m -0.98820534,991.72985 c 1.85779227,0.6221 3.66542524,1.39588 5.43855314,2.2278 1.7652965,0.76512 3.4496388,1.69798 5.1815493,2.53205 1.9729499,0.94821 3.8715509,2.04586 5.8358199,3.00702 1.767826,0.96088 3.601658,1.73948 5.485989,2.42908 1.859519,0.62 3.675008,1.3689 5.445596,2.2083 1.500199,0.5521 2.772346,1.5513 4.215221,2.2098 1.018085,0.4761 2.048774,0.9256 3.061903,1.412 0.733799,0.426 1.539771,0.6708 2.30903,1.0252 0.869179,0.3784 1.669392,0.8891 2.519196,1.3063 1.388196,0.7297 2.778566,1.4591 4.192652,2.1382 1.474051,0.817 3.067899,1.3736 4.602369,2.0614 1.620061,0.6463 3.253694,1.2325 4.799755,2.0467 1.480367,0.7443 2.986728,1.4418 4.498321,2.1216 1.499162,0.7873 3.101132,1.3415 4.645608,2.0291 1.538194,0.5984 3.066343,1.2183 4.589563,1.8552 1.80655,0.901 3.635366,1.7437 5.480751,2.5599 1.987046,0.8074 3.904128,1.7736 5.85212,2.6687 2.048429,0.8761 4.01268,1.8661 5.917043,3.0251 2.323523,1.395 4.605792,2.8593 6.861685,4.361 1.904558,1.3467 3.877523,2.5874 5.805949,3.9 1.414146,1.0186 2.881862,1.9552 4.262562,3.0207 0.77888,0.5549 1.55113,1.1286 2.29493,1.7302 0.14515,0.1687 0.2903,0.3375 0.43544,0.5063 0,0 -3.781907,2.7224 -3.781907,2.7224 l 0,0 c 0.09506,0.099 0.190121,0.1983 0.285182,0.2975 0.03854,0.024 0.154227,0.097 0.115618,0.073 -0.546388,-0.3434 -1.007907,-0.7729 -1.531341,-1.139 -0.219697,-0.1536 -0.449083,-0.2929 -0.673625,-0.4394 -1.325475,-0.9934 -2.725367,-1.8755 -4.068532,-2.8437 -1.92258,-1.2964 -3.898525,-2.5086 -5.79381,-3.8446 -2.208779,-1.4678 -4.439187,-2.9044 -6.70234,-4.287 -1.73191,-1.0726 -3.524435,-1.969 -5.400919,-2.7632 -1.935678,-0.8805 -3.833478,-1.8463 -5.806712,-2.6416 -1.812501,-0.8071 -3.613784,-1.6311 -5.377131,-2.5424 -1.561601,-0.6532 -3.128642,-1.2871 -4.704676,-1.904 -1.539298,-0.701 -3.153843,-1.2309 -4.648472,-2.0304 -1.61152,-0.7267 -3.218667,-1.469 -4.796563,-2.2653 -1.433829,-0.7946 -3.009023,-1.2545 -4.508485,-1.9057 -1.564324,-0.7158 -3.20554,-1.2644 -4.708489,-2.1117 -1.442449,-0.6987 -2.86523,-1.4404 -4.274062,-2.2038 -0.79302,-0.4135 -1.539168,-0.9032 -2.362959,-1.2495 -0.789984,-0.3717 -1.647627,-0.6168 -2.421234,-1.0737 -0.95368,-0.5163 -2.008586,-0.8669 -2.981929,-1.3475 -1.438108,-0.6916 -2.754093,-1.6084 -4.241978,-2.2036 -1.632183,-0.7858 -3.323035,-1.4503 -5.040783,-2.0241 -2.04497,-0.752 -4.043005,-1.5925 -5.965669,-2.6261 -1.941847,-0.9745 -3.8428279,-2.0297 -5.7903749,-2.9955 -1.7130748,-0.83374 -3.3785048,-1.76561 -5.1340675,-2.51173 -1.68592836,-0.79787 -3.41733391,-1.49906 -5.1606047,-2.16048 0,0 1.74425776,-4.36064 1.74425776,-4.36064 z"
         id="path3001"
         style="fill:#fc9272;fill-opacity:1;fill-rule:nonzero;stroke:none" />
      <path
         inkscape:connector-curvature="0"
         d="m -8.7689501,962.24648 c 2.025402,0.77904 4.035286,1.59643 6.0448939,2.41506 1.82096079,0.61974 3.5819031,1.37949 5.3352735,2.16835 2.0980332,1.02826 4.1910775,2.07517 6.3120638,3.05754 2.2262629,0.99017 4.4940299,1.90201 6.7935479,2.70796 2.237855,0.87226 4.454335,1.7968 6.671951,2.71835 1.896518,0.75125 3.764782,1.57775 5.593999,2.48071 1.520395,0.66459 2.953259,1.50914 4.446158,2.22744 1.23922,0.6343 2.511324,1.19822 3.746569,1.84124 1.257247,0.60276 2.461724,1.30331 3.727031,1.89029 1.340779,0.68084 2.725309,1.26301 4.016298,2.0368 1.187845,0.77038 2.430609,1.44391 3.66552,2.13405 1.956128,0.99222 3.902685,1.97662 5.794702,3.09066 1.835602,1.05615 3.719861,2.02081 5.588164,3.01625 1.573265,0.80283 3.164662,1.56984 4.733292,2.38173 1.537397,0.89141 3.057284,1.81531 4.63625,2.63211 1.274705,0.59349 2.471426,1.34378 3.735596,1.95528 1.326938,0.6508 2.636024,1.3195 3.916944,2.057 1.297277,0.8242 2.670841,1.5153 3.998671,2.2875 1.193938,0.7662 2.40692,1.4981 3.641323,2.1959 1.240027,0.6557 2.431882,1.4052 3.641642,2.1176 1.22165,0.8156 2.485714,1.5561 3.757041,2.2903 1.203219,0.6924 2.439101,1.3154 3.64118,2.0112 1.323901,0.9307 2.688195,1.7521 4.128174,2.4849 1.685006,0.907 3.360046,1.8216 5.001576,2.8041 1.58162,0.8646 3.2432,1.5622 4.81243,2.4511 1.55228,0.9113 3.17309,1.7046 4.70634,2.6465 1.27534,0.9475 2.64851,1.7217 3.94643,2.6376 1.74556,1.0815 3.40436,2.2945 5.10843,3.4391 2.46522,1.6287 4.83966,3.3847 7.19282,5.1701 3.00006,2.2019 5.96909,4.4393 8.8151,6.8379 3.25653,2.8914 6.45535,5.8496 9.55465,8.9092 2.55966,2.3333 4.84987,4.935 7.40168,7.2749 0.26596,0.2169 3.11431,2.7593 3.05491,2.916 -0.50323,1.3277 -1.44961,2.4419 -2.17442,3.6628 -1.09714,0.012 -0.55419,0.017 -1.62887,-0.013 0,0 0.17067,-4.7177 0.17067,-4.7177 l 0,0 c 0.82334,0.038 0.45784,0.018 1.09672,0.056 -0.44839,1.1995 -1.03209,2.3569 -1.34517,3.5986 -0.0411,0.1629 0.47817,0.2644 0.34527,0.3672 -0.0117,0.01 -2.5355,-2.1253 -2.72838,-2.331 -2.6275,-2.3582 -5.00883,-4.9639 -7.60857,-7.3526 -3.01206,-2.9715 -6.11609,-5.8497 -9.26795,-8.6722 -2.77495,-2.3577 -5.67906,-4.5472 -8.60348,-6.7154 -2.27024,-1.7454 -4.57052,-3.4513 -6.95199,-5.0426 -1.71688,-1.174 -3.39304,-2.4077 -5.14622,-3.5279 -1.22398,-0.8583 -2.52431,-1.5826 -3.72201,-2.4796 -1.4757,-0.9278 -3.08081,-1.6473 -4.5724,-2.5518 -1.57855,-0.9185 -3.29432,-1.5679 -4.86703,-2.4989 -1.564797,-0.9206 -3.16227,-1.7756 -4.754894,-2.6483 -1.504721,-0.7775 -2.948822,-1.6309 -4.321447,-2.6251 -1.206044,-0.6959 -2.447064,-1.3184 -3.659122,-2.0052 -1.279445,-0.7493 -2.553819,-1.5024 -3.793162,-2.3163 -1.178608,-0.707 -2.341581,-1.4469 -3.560388,-2.0796 -1.236908,-0.7082 -2.471188,-1.4201 -3.66411,-2.2016 -1.334369,-0.7578 -2.697186,-1.4666 -3.993071,-2.2897 -1.192607,-0.6826 -2.410423,-1.3047 -3.641298,-1.9172 -1.293269,-0.6385 -2.535166,-1.3776 -3.844715,-1.9845 -1.577546,-0.8214 -3.111747,-1.7227 -4.639054,-2.6333 -1.578375,-0.82537 -3.189726,-1.58663 -4.776913,-2.39485 -1.934539,-1.02765 -3.895888,-2.00444 -5.79339,-3.10147 -1.853506,-1.10787 -3.775241,-2.06237 -5.681217,-3.07258 -1.286547,-0.73041 -2.58122,-1.44397 -3.824792,-2.24675 -1.101601,-0.73276 -2.405498,-1.10378 -3.544143,-1.77404 -1.326259,-0.62917 -2.609497,-1.3393 -3.924825,-1.98988 -1.174153,-0.63367 -2.405539,-1.14226 -3.587703,-1.75959 -1.510192,-0.72641 -2.971872,-1.55204 -4.504189,-2.23384 -1.732629,-0.86236 -3.517832,-1.61995 -5.318043,-2.32877 -2.137463,-0.88834 -4.277296,-1.77101 -6.430047,-2.62157 -2.438693,-0.86514 -4.8588291,-1.79925 -7.2150817,-2.87024 -2.1087477,-0.97736 -4.1788245,-2.04206 -6.26447971,-3.06563 -1.69411329,-0.77417 -3.39319299,-1.51224 -5.16490649,-2.09271 -1.9170034,-0.77809 -3.8511889,-1.51257 -5.7437381,-2.35057 0,0 1.4879089,-4.46373 1.4879089,-4.46373 z"
         id="path3003"
         style="fill:#fc9272;fill-opacity:1;fill-rule:nonzero;stroke:none" />
      <path
         inkscape:connector-curvature="0"
         d="m -14.233004,933.57045 c 1.490913,1.23657 2.963442,2.45838 4.5798614,3.52655 1.9106664,1.29258 3.9531649,2.35301 5.8535929,3.66381 1.8984942,1.20178 3.75122273,2.46808 5.6147014,3.72289 1.5443879,0.94484 2.9658195,2.0563 4.4185827,3.13256 1.2350692,0.79752 2.486282,1.5853 3.8503076,2.14352 1.456466,0.62264 2.899501,1.286 4.29328,2.03858 1.368738,0.65769 2.776323,1.2332 4.141136,1.90595 1.756248,0.71284 3.48194,1.4962 5.227814,2.23384 1.194852,0.60896 2.438346,1.10319 3.690777,1.57716 1.616109,0.61799 3.088247,1.5206 4.616164,2.31866 1.495357,0.74159 2.9635,1.52416 4.497454,2.18786 1.547237,0.70118 3.061548,1.47092 4.598746,2.19304 1.579153,0.72399 2.980047,1.75021 4.407931,2.7249 1.496328,0.91783 2.992069,1.84111 4.441918,2.83145 1.655343,1.06722 3.330101,2.10166 5.008503,3.13181 1.744928,1.04847 3.38648,2.24341 5.05684,3.40205 1.5275,1.07679 3.039573,2.17919 4.606059,3.19924 1.376322,0.94766 2.784718,1.84745 4.152748,2.80674 1.227292,0.92806 2.455156,1.86011 3.742316,2.70479 1.418459,0.9516 2.800399,1.96635 4.126503,3.04214 0.897748,0.7441 1.816989,1.46323 2.725319,2.19644 0.793516,0.41283 1.509064,0.9666 2.17704,1.55572 0.331671,0.39385 0.694549,0.74719 1.179227,1.11827 0.553049,0.61645 1.222635,1.10844 1.845595,1.65213 0.845776,0.47811 1.583679,1.11943 2.40321,1.63418 1.098152,0.72461 2.147863,1.51364 3.299582,2.15354 1.23919,0.86059 2.411938,1.79803 3.712408,2.56823 1.196334,0.6967 2.363823,1.4391 3.500287,2.2314 1.109896,0.6681 2.281975,1.2198 3.429751,1.8182 1.25036,0.6713 2.52439,1.3039 3.81221,1.9013 1.6378,0.7913 3.32661,1.4829 5.0009,2.1973 1.92322,0.826 3.8042,1.7539 5.66167,2.7184 1.66392,0.7602 3.37634,1.3925 5.05222,2.123 1.33352,0.4942 2.63914,1.055 3.94213,1.6231 1.29655,0.4608 2.56358,0.9949 3.82738,1.5375 1.46943,0.5225 2.90709,1.1342 4.31482,1.8049 1.64648,0.8171 3.3627,1.4755 5.03824,2.2297 1.89285,0.8301 3.71214,1.8294 5.62224,2.6178 1.93738,0.9231 3.88251,1.8289 5.82954,2.7328 2.18639,0.9761 4.32681,2.0441 6.48457,3.0807 2.19847,0.9989 4.41305,1.9627 6.59317,3.0022 1.78546,0.9323 3.51748,1.9631 5.30948,2.8823 1.86651,0.8478 3.57582,1.9882 5.36591,2.9783 1.15346,0.5442 2.26955,1.1642 3.41306,1.7307 0.51413,0.2518 0.15266,0.057 1.00565,0.7112 0,0 -3.40688,3.1749 -3.40688,3.1749 l 0,0 c 0.73081,0.5142 0.89833,0.5679 0.39737,0.3472 -1.25243,-0.5685 -2.45639,-1.2293 -3.70144,-1.8119 -1.74928,-0.9643 -3.42413,-2.0636 -5.23387,-2.9153 -1.75087,-0.8966 -3.4557,-1.8792 -5.19463,-2.7987 -2.18641,-1.0378 -4.41015,-1.9924 -6.60999,-2.9999 -2.14138,-1.0249 -4.25698,-2.1002 -6.42389,-3.0716 -1.89546,-0.8805 -3.79061,-1.7595 -5.67317,-2.666 -1.93742,-0.8296 -3.81804,-1.7879 -5.73118,-2.6718 -1.70784,-0.776 -3.45993,-1.4524 -5.13858,-2.2923 -1.34053,-0.6567 -2.72522,-1.2213 -4.12579,-1.7361 -1.27058,-0.5493 -2.55236,-1.0671 -3.851,-1.5486 -1.29374,-0.5676 -2.59816,-1.107 -3.92256,-1.6015 -1.78719,-0.7609 -3.61834,-1.4081 -5.37031,-2.2543 -1.74877,-0.9102 -3.52975,-1.7638 -5.33055,-2.5649 -1.72644,-0.7331 -3.4641,-1.4529 -5.1466,-2.2805 -1.35145,-0.6367 -2.68716,-1.3089 -4.012179,-1.9982 -1.308053,-0.6972 -2.650617,-1.331 -3.904557,-2.1263 -1.047142,-0.7165 -2.10369,-1.4109 -3.207604,-2.0356 -1.288862,-0.7488 -2.480213,-1.6271 -3.660785,-2.533 -1.227544,-0.708 -2.381279,-1.5215 -3.548188,-2.3235 -0.992119,-0.66612 -1.953622,-1.37995 -2.938188,-2.0571 -0.569943,-0.51635 -1.220839,-0.97415 -1.734485,-1.54819 -0.02639,-0.0295 0.06993,0.037 0.104898,0.0556 -0.814524,-0.65165 -0.75161,-0.69513 -1.570067,-1.45821 0.416785,0.16158 -1.126821,-0.76899 -1.184884,-0.80404 -0.215649,-0.13017 -0.421639,-0.27571 -0.632458,-0.41357 -0.93094,-0.73536 -1.855569,-1.47585 -2.78242,-2.21353 -1.192293,-0.98914 -2.484817,-1.8651 -3.753002,-2.75361 -1.318732,-0.88212 -2.589027,-1.83467 -3.858982,-2.78462 -1.311045,-0.93766 -2.681386,-1.78924 -4.011417,-2.6997 -1.60125,-1.04725 -3.156514,-2.16413 -4.717589,-3.26981 -1.59835,-1.10737 -3.164371,-2.25522 -4.838858,-3.24986 -1.749601,-1.07224 -3.487664,-2.16037 -5.209978,-3.27645 -1.441398,-0.99915 -2.944821,-1.90686 -4.431243,-2.83672 -1.215288,-0.8377 -2.400623,-1.72522 -3.748696,-2.34417 -1.493205,-0.70434 -2.965831,-1.45078 -4.466888,-2.1386 -1.643797,-0.71658 -3.232574,-1.53501 -4.836294,-2.33344 -1.349727,-0.72608 -2.652393,-1.53494 -4.078501,-2.10763 -1.28615,-0.49695 -2.578861,-0.98301 -3.81132,-1.60608 -1.859576,-0.75144 -3.684362,-1.58389 -5.532448,-2.36291 -1.419279,-0.71354 -2.889972,-1.31258 -4.308628,-2.02406 -1.224498,-0.70771 -2.5673999,-1.20997 -3.8482461,-1.80374 -1.7042928,-0.72848 -3.3037054,-1.66434 -4.836452,-2.7056 -1.3909934,-1.03453 -2.75572768,-2.09156 -4.24522089,-2.98422 -1.88735941,-1.2605 -3.76544811,-2.53101 -5.67768781,-3.75352 -1.869926,-1.29802 -3.9016342,-2.32005 -5.7772482,-3.60866 -1.874637,-1.2462 -3.606553,-2.65751 -5.270889,-4.17376 0,0 3.322731,-3.32273 3.322731,-3.32273 z"
         id="path3005"
         style="fill:#fc9272;fill-opacity:1;fill-rule:nonzero;stroke:none" />
      <path
         inkscape:connector-curvature="0"
         d="m -11.388376,903.83014 c 1.6328485,1.22688 3.3716399,2.30176 5.0341921,3.48782 2.2595832,1.57348 4.312051,3.4317 6.39784029,5.22689 1.80576091,1.56521 3.53923951,3.21109 5.23810811,4.89096 1.2123485,1.27208 2.4750304,2.46879 3.9076797,3.48817 1.7945298,1.1357 3.2518948,2.67898 4.8396308,4.06802 1.086748,0.92848 2.144089,1.88954 3.182902,2.87104 0.625438,0.66507 1.304826,1.25417 1.988748,1.84386 0.791086,0.60831 1.497699,1.31396 2.268589,1.94966 1.160514,0.67963 2.196795,1.53911 3.299707,2.30101 1.305482,0.8957 2.557477,1.86238 3.857617,2.7653 0.887918,0.57813 1.774662,1.2136 2.727278,1.6831 1.15659,0.55375 2.209654,1.29017 3.329534,1.91029 1.459815,0.60757 2.810005,1.44018 4.213418,2.16243 1.301883,0.6088 2.415134,1.56563 3.737134,2.12957 1.125725,0.51575 2.055515,1.34439 3.112475,1.97099 1.452074,0.96802 2.989768,1.79545 4.51902,2.63748 1.702399,0.93015 3.37467,1.90838 5.03018,2.91997 1.270767,0.77168 2.516969,1.55419 3.870237,2.17755 1.166434,0.60232 2.228035,1.38245 3.399635,1.97143 0.749002,0.54578 1.473934,0.93755 2.193799,1.35577 0.610841,0.47352 1.247774,0.91452 1.882431,1.37008 0.842006,0.51004 1.612141,1.14134 2.473199,1.62513 1.202267,0.64718 2.314184,1.446 3.501353,2.11921 1.267987,0.73226 2.452424,1.59418 3.736617,2.29871 1.243416,0.73688 2.379855,1.63732 3.591044,2.4199 0.918144,0.53512 1.800646,1.1179 2.689637,1.6978 0.932097,0.54566 1.737617,1.29854 2.650423,1.86345 0.876498,0.5438 1.037071,1.21065 1.714665,1.5438 0.588442,0.51434 1.215378,0.98927 1.82122,1.48675 0.794165,0.609 1.52525,1.28969 2.334407,1.88004 0.853577,0.58787 1.735538,1.13879 2.58835,1.7337 1.093501,0.7704 2.17535,1.54304 3.123749,2.4918 0.732314,0.46368 1.332075,1.0704 1.970664,1.64635 0.877343,0.54333 1.743773,1.19607 2.566873,1.84067 1.16944,0.96995 2.45973,1.78037 3.66506,2.70339 1.1705,0.83873 2.5037,1.40548 3.74187,2.1359 1.66395,0.87015 3.16269,2.00593 4.70093,3.07365 1.31246,1.01402 2.77736,1.79657 4.1878,2.66281 1.34868,0.77671 2.74464,1.46342 4.12069,2.18904 1.1374,0.66773 2.25151,1.36502 3.38856,2.03343 0.88264,0.48921 1.69388,1.1007 2.57868,1.58784 1.11595,0.8194 2.31439,1.5087 3.48396,2.2456 1.22691,0.6798 2.49807,1.2721 3.74527,1.9129 1.43143,0.7384 2.6811,1.7639 4.06198,2.5862 1.40293,0.852 2.85373,1.6301 4.3292,2.3496 1.5865,0.7732 3.00388,1.8313 4.46363,2.8119 1.3385,0.7672 2.66262,1.5509 3.96101,2.385 1.41209,1.0511 2.93962,1.9176 4.4704,2.7786 1.71626,0.7588 3.22634,1.8655 4.78944,2.8815 1.0366,0.897 2.2744,1.4836 3.42176,2.2175 1.0759,0.5212 2.02523,1.2487 3.03635,1.8739 0.85338,0.6604 1.72347,1.3004 2.66734,1.8245 1.01111,0.6405 2.05638,1.2235 3.13914,1.7354 1.60551,0.7787 3.19519,1.5732 4.74667,2.4543 0.86669,0.3839 1.62677,1.0038 2.46956,1.4148 0.53236,0.3292 1.02955,0.724 1.55267,1.0734 0.0722,0.048 0.14531,0.095 0.21824,0.1419 0,0 -2.37487,4.0033 -2.37487,4.0033 l 0,0 c -0.12787,-0.073 -0.25513,-0.1476 -0.37994,-0.226 -0.73372,-0.4643 -1.04702,-0.8011 -1.39834,-0.9605 -0.78559,-0.4841 -1.57334,-0.9198 -2.40636,-1.3314 -1.47348,-0.8242 -2.98404,-1.5655 -4.49594,-2.3179 -1.14525,-0.5685 -2.26277,-1.1961 -3.34594,-1.8754 -1.02685,-0.5668 -2.00409,-1.2291 -2.91764,-1.9645 -1.01053,-0.6534 -1.98977,-1.3491 -3.07058,-1.8897 -1.1384,-0.7489 -2.40283,-1.3078 -3.43743,-2.2106 -1.48049,-0.9619 -2.92133,-1.9909 -4.54595,-2.7093 -1.61144,-0.9111 -3.21322,-1.8397 -4.7003,-2.9479 -1.32021,-0.8585 -2.69118,-1.6219 -4.04095,-2.4322 -1.27632,-0.8636 -2.52506,-1.7814 -3.90262,-2.4804 -1.59721,-0.7844 -3.17252,-1.6221 -4.69047,-2.5509 -1.28718,-0.7834 -2.47237,-1.7205 -3.79658,-2.4385 -1.35211,-0.7094 -2.73915,-1.3505 -4.06586,-2.1087 -1.12846,-0.6974 -2.27563,-1.3699 -3.3372,-2.1674 -0.8918,-0.5271 -1.72169,-1.1372 -2.63234,-1.6282 -1.05958,-0.6429 -2.14201,-1.2507 -3.2021,-1.8927 -1.46131,-0.78097 -2.95027,-1.50933 -4.38048,-2.34822 -1.48116,-0.91632 -3.04071,-1.71242 -4.41553,-2.79012 -1.44949,-1.00836 -2.85726,-2.08669 -4.42602,-2.90802 -1.38387,-0.84574 -2.90934,-1.45376 -4.19888,-2.45407 -1.20188,-0.939 -2.515801,-1.73482 -3.676522,-2.72875 -0.948191,-0.73675 -1.92602,-1.42864 -2.888337,-2.14542 -0.634104,-0.61148 -1.336951,-1.16606 -2.075461,-1.7365 -0.747777,-0.75026 -1.631371,-1.31952 -2.478911,-1.94847 -0.896051,-0.61777 -1.801069,-1.21553 -2.705071,-1.818 -0.863117,-0.64676 -1.662103,-1.36434 -2.50718,-2.03145 -0.638891,-0.52119 -1.218059,-1.03079 -1.720707,-1.41186 -0.517657,-0.42565 -1.032195,-0.85787 -1.481527,-1.36507 -0.870189,-0.60939 -1.718153,-1.23932 -2.607316,-1.82379 -0.880337,-0.58763 -1.764932,-1.1595 -2.689168,-1.68153 -1.104664,-0.73619 -2.168405,-1.53341 -3.298788,-2.23231 -1.296092,-0.73093 -2.519501,-1.5734 -3.796012,-2.33675 -1.192361,-0.69688 -2.327633,-1.4834 -3.533918,-2.15562 -0.978369,-0.59283 -1.89792,-1.26896 -2.854301,-1.89155 -0.609829,-0.46095 -1.112252,-0.82194 -1.662892,-1.23162 0.217537,0.0331 -1.815584,-1.00636 -1.728915,-1.06886 -1.145133,-0.56319 -2.201991,-1.27191 -3.309479,-1.9032 -1.504729,-0.71017 -2.922736,-1.55519 -4.345201,-2.41269 -1.593118,-0.97631 -3.205652,-1.91343 -4.846915,-2.80597 -1.596848,-0.88043 -3.196805,-1.76462 -4.706085,-2.78797 -0.866657,-0.54871 -1.6561,-1.19822 -2.559639,-1.68106 -1.38933,-0.63705 -2.643812,-1.49493 -3.985545,-2.22185 -1.45406,-0.75431 -2.856572,-1.60758 -4.361593,-2.26073 -1.06945,-0.61323 -2.085095,-1.31113 -3.192091,-1.85589 -1.09733,-0.59175 -2.170609,-1.2458 -3.198216,-1.94994 -1.330843,-0.89344 -2.600459,-1.87145 -3.913572,-2.79042 -1.203992,-0.85238 -2.368546,-1.75757 -3.609585,-2.55921 -0.800895,-0.67886 -1.538864,-1.42109 -2.370777,-2.05903 -0.671341,-0.66591 -1.47108,-1.21439 -2.105164,-1.92738 -0.989258,-0.94133 -2.017687,-1.83993 -3.063267,-2.71812 -1.4829219,-1.29455 -2.8474748,-2.72518 -4.5111354,-3.79816 -1.5956109,-1.17877 -3.0607458,-2.49106 -4.4286412,-3.92903 -1.65090317,-1.58485 -3.2967792,-3.17674 -5.0388296,-4.6626 -1.984711,-1.69816 -3.9246193,-3.46947 -6.0583203,-4.97738 -1.6870345,-1.2105 -3.4623805,-2.30223 -5.0769785,-3.60983 0,0 2.815814,-3.75442 2.815814,-3.75442 z"
         id="path3007"
         style="fill:#fc9272;fill-opacity:1;fill-rule:nonzero;stroke:none" />
    </g>
  </g>
</svg>
