<?xml version="1.0" encoding="UTF-8" standalone="no"?>
<!-- Created with Inkscape (http://www.inkscape.org/) -->

<svg
   xmlns:dc="http://purl.org/dc/elements/1.1/"
   xmlns:cc="http://creativecommons.org/ns#"
   xmlns:rdf="http://www.w3.org/1999/02/22-rdf-syntax-ns#"
   xmlns:svg="http://www.w3.org/2000/svg"
   xmlns="http://www.w3.org/2000/svg"
   xmlns:xlink="http://www.w3.org/1999/xlink"
   xmlns:sodipodi="http://sodipodi.sourceforge.net/DTD/sodipodi-0.dtd"
   xmlns:inkscape="http://www.inkscape.org/namespaces/inkscape"
   id="svg2"
   version="1.1"
   inkscape:version="0.48.4 r9939"
   viewbox="0 0 556 986"
   sodipodi:docname="46693-356.svg"
   width="556"
   height="986">
  <metadata
     id="metadata8">
    <rdf:RDF>
      <cc:Work
         rdf:about="">
        <dc:format>image/svg+xml</dc:format>
        <dc:type
           rdf:resource="http://purl.org/dc/dcmitype/StillImage" />
        <dc:title />
      </cc:Work>
    </rdf:RDF>
  </metadata>
  <defs
     id="defs6" />
  <sodipodi:namedview
     pagecolor="#ffffff"
     bordercolor="#666666"
     borderopacity="1"
     objecttolerance="10"
     gridtolerance="10"
     guidetolerance="10"
     inkscape:pageopacity="0"
     inkscape:pageshadow="2"
     inkscape:window-width="1280"
     inkscape:window-height="732"
     id="namedview4"
     showgrid="false"
     inkscape:zoom="1.24"
     inkscape:cx="267.3115"
     inkscape:cy="162.70279"
     inkscape:window-x="-8"
     inkscape:window-y="-8"
     inkscape:window-maximized="1"
     inkscape:current-layer="layer1"
     showguides="true"
     inkscape:guide-bbox="true" />
  <image
     width="556"
     height="986"
     xlink:href="file:///Users/juls/Documents/UUlm/Projects/2013/BrokenInterfaces/GIT%20Repo/brokenInterface/public-dataset/input/cropped-display/46693-356.png"
     id="image10"
     x="0.52286577"
     y="0.63171721" />
  <g
     inkscape:groupmode="layer"
     id="layer1"
     inkscape:label="Layer"
     transform="translate(0,-66.362183)">
    <path
       style="fill:#de2d26;fill-opacity:1;fill-rule:nonzero;stroke:none"
       id="path3011"
       d="m 108.88615,911.32511 c -0.30131,-1.60328 -0.2524,-3.27689 0.0677,-4.8719 0.269,-1.247 0.90328,-2.3278 1.5774,-3.38991 0.72656,-1.14247 1.61906,-2.15921 2.53414,-3.15161 0.83666,-1.09853 1.67448,-2.19431 2.47971,-3.31572 0.72783,-1.019 1.43053,-2.06856 1.97051,-3.20095 0.506,-0.89392 0.97866,-1.8022 1.38447,-2.74631 0.5548,-1.08629 1.02516,-2.22203 1.39331,-3.38546 0.25786,-1.07818 0.49697,-2.13935 0.93378,-3.16361 0.21721,-0.55435 0.26689,-1.13637 0.39546,-1.7141 0.23308,-1.09547 0.60583,-2.14171 0.96861,-3.19783 0.24148,-0.64041 0.3259,-1.31711 0.36493,-1.99562 0.10028,-0.8087 0.49833,-1.52796 0.67462,-2.31405 0.0226,-0.84336 0.38113,-1.61834 0.59422,-2.42126 0.17355,-0.67171 0.21803,-1.35538 0.36019,-2.03377 0.2975,-0.79026 0.45425,-1.61274 0.53165,-2.45032 -0.0195,-1.08986 0.17905,-2.12827 0.48599,-3.16874 0.18562,-0.8222 0.33612,-1.63645 0.63251,-2.42854 0.40867,-0.87814 0.77986,-1.77838 1.18583,-2.66089 0.37829,-0.86967 0.62167,-1.76767 1.04965,-2.61694 0.2151,-0.63479 0.71159,-1.15572 0.96688,-1.75596 0.20029,-0.44759 0.32037,-0.94928 0.56101,-1.45428 0.20992,-0.32919 0.28825,-0.50174 0.33375,-0.8295 0.19219,-0.67887 0.50954,-1.30889 0.79787,-1.94963 0.0434,-0.0964 0.0867,-0.19279 0.1299,-0.28922 -2.1e-4,4.6e-4 -4.2e-4,9.2e-4 -6.2e-4,10e-4 1.17771,0.31357 2.35542,0.62714 3.53313,0.94072 0,0 -3.69274,-0.0261 -3.69274,-0.0261 l 0,0 c 1.17856,0.19394 2.35711,0.38787 3.53567,0.58181 -0.001,0.003 -0.002,0.005 -0.003,0.008 -0.0447,0.0997 -0.0894,0.19936 -0.13427,0.29897 -0.0593,0.13185 -0.73063,1.76647 -0.50721,0.93848 -0.11151,0.68632 -0.29546,1.35228 -0.67362,1.94558 -0.27147,0.52693 -0.34149,1.20306 -0.71053,1.73011 -0.34586,0.54728 -0.56245,0.85918 -0.83816,1.52205 -0.4036,0.80043 -0.59533,1.705 -1.007,2.52947 -0.38883,0.78872 -0.71909,1.6153 -1.07754,2.40703 -0.27639,0.6914 -0.3177,1.44071 -0.54007,2.15578 -0.24571,0.82668 -0.38093,1.59878 -0.35157,2.47933 -0.1029,1.01614 -0.26453,2.03204 -0.62584,2.99279 -0.29394,0.45023 -0.0386,1.60033 -0.3812,2.11346 -0.21834,0.77515 -0.52954,1.46851 -0.55813,2.27937 -0.13288,0.5573 -0.34369,1.29731 -0.58526,1.70578 -0.0667,1.01051 -0.20833,2.01675 -0.56072,2.97239 -0.33314,0.95728 -0.67503,1.90071 -0.87886,2.89784 -0.2786,0.70789 -0.16107,1.58758 -0.58392,2.26852 -0.40036,0.91337 -0.52958,1.88033 -0.81019,2.83474 -0.41515,1.27051 -0.90684,2.52614 -1.51744,3.71558 -0.42827,0.98916 -0.91054,1.9524 -1.44847,2.88651 -0.64294,1.32354 -1.44298,2.56632 -2.30278,3.75883 -0.89678,1.23724 -1.80813,2.46375 -2.76075,3.65947 -0.76655,0.82909 -1.52073,1.67308 -2.13085,2.62751 -0.45093,0.70853 -0.91655,1.3991 -1.09527,2.2375 -0.33593,1.02312 -0.16791,2.27368 -0.0452,3.31916 0,0 -3.62113,0.72422 -3.62113,0.72422 z"
       inkscape:connector-curvature="0" />
    <path
       style="fill:#de2d26;fill-opacity:1;fill-rule:nonzero;stroke:none"
       id="path3021"
       d="m 396.36649,877.7553 c 1.15918,-0.54925 2.44859,-0.73181 3.59587,-1.29661 0.82183,-0.56975 1.88776,-0.49746 2.7689,-0.84998 0.95368,-0.32817 1.93295,-0.54419 2.93167,-0.67359 0.53719,-0.0129 1.01441,-0.31775 1.54731,-0.51557 0.70936,-0.2357 1.44966,-0.29178 2.19091,-0.31209 0.71658,0.0743 0.93292,-0.0515 1.53349,-0.24749 0.71338,-0.258 1.4568,-0.39273 2.2097,-0.46099 0.29875,-0.0324 0.99154,-0.3519 1.63334,-0.51755 0.61368,-0.38519 1.36423,-0.60671 2.07941,-0.79553 0.54813,-0.37403 1.22147,-0.5814 1.86166,-0.75287 0.64133,-0.15151 1.30013,-0.17642 1.95599,-0.18562 0.92632,-0.14034 1.87704,-0.38923 2.8341,-0.51655 1.2922,-0.32006 2.58549,-0.61453 3.90394,-0.80194 0.57705,-0.24606 1.15767,-0.49413 1.75482,-0.68934 0.59478,-0.12432 1.22474,-0.41686 1.90923,-0.70148 2.06516,-0.6488 4.12114,-1.3171 6.22655,-1.8251 1.13499,-0.35474 2.26435,-0.72762 3.38497,-1.12547 0.55601,-0.2211 1.15323,-0.24911 1.74307,-0.2551 0.96876,-0.17539 2.43355,-0.59401 3.6091,-0.82636 2.09949,-0.4845 4.19639,-0.96473 6.28492,-1.49549 -0.79392,-0.0766 3.40497,-0.56836 2.50693,-0.55642 0.80154,-0.50943 1.7448,-0.59342 2.6539,-0.78011 1.79785,-0.36847 3.57429,-0.83584 5.3345,-1.35405 1.34374,-0.37296 2.71424,-0.66661 4.09996,-0.82979 0.31034,-0.29473 1.31051,-0.46557 1.88278,-0.66775 1.40922,-0.38122 2.85539,-0.66309 4.21801,-1.19844 0.93277,-0.42717 1.88726,-0.80175 2.89126,-1.01784 0.80358,-0.097 1.55354,-0.3494 2.34839,-0.59066 1.40824,-0.54041 2.79059,-1.08712 4.26975,-1.41388 1.12095,-0.12634 2.17492,-0.54765 3.26223,-0.82419 0.79861,-0.15662 1.58578,-0.25322 2.37826,-0.42331 1.86674,-0.53019 3.78312,-0.83082 5.66833,-1.28475 1.3328,-0.3168 2.67938,-0.57659 4.04334,-0.71028 0.76432,-0.0161 1.46564,-0.0513 2.19448,-0.28137 1.99496,-0.55394 3.96506,-1.18644 5.99347,-1.61046 1.11467,-0.22677 2.24762,-0.34276 3.38341,-0.37933 0.10211,0.0185 0.9041,-0.33992 1.70038,-0.50051 1.22852,-0.38544 2.48897,-0.63299 3.72911,-0.97695 1.20347,-0.32438 2.42897,-0.55711 3.66902,-0.68027 0.4686,-0.0117 0.86659,-0.29703 1.32701,-0.48127 1.16015,-0.3314 2.33755,-0.59179 3.48792,-0.96396 0.23245,-0.0696 0.46449,-0.14068 0.69735,-0.20896 0.47026,-0.13789 0.94598,-0.28534 1.424,-0.39554 0.44622,-0.10286 0.63871,-0.0913 0.34851,-0.0961 0.11185,-0.19022 2.38799,-0.84779 1.46386,-0.6063 0.33426,-0.37492 1.28427,-0.71714 1.98098,-0.87219 0.30907,-0.0534 1.36985,-0.42361 2.25709,-0.6783 1.43794,-0.39683 2.83006,-0.93088 4.27463,-1.30989 0.70524,-0.22413 1.45325,-0.20297 2.17386,-0.31968 0.0332,-0.005 -0.14671,-0.0204 -0.1656,-0.023 0.49399,-0.29392 1.25134,-0.52183 1.66923,-0.64847 0.53969,-0.32336 1.13641,-0.52254 1.73962,-0.68919 0.14563,-0.0263 0.29041,-0.0578 0.43688,-0.079 0.12539,-0.0181 -0.27022,0.14413 -0.37342,0.0707 -0.034,-0.0242 0.84458,-0.47379 0.4166,-0.30871 0.76967,-0.57238 0.67038,-0.56088 1.268,-1.11922 0.56085,-0.38538 1.09595,-0.79561 1.68305,-1.14014 -0.3396,0.20908 0.90447,-0.45108 0.70957,-0.28652 -0.10453,0.0883 -0.27754,0.26219 -0.3752,0.16638 -10e-4,-10e-4 0.70916,-0.49314 0.78534,-0.54289 0.1452,-0.14985 1.18892,-0.54508 1.12588,-0.46596 -0.11848,0.14871 -0.36484,0.11616 -0.53067,0.20918 0.48257,-0.49865 1.08106,-0.78853 1.73298,-0.98436 0.0393,-0.0103 0.0785,-0.0207 0.11774,-0.031 0,0 0.90469,3.5803 0.90469,3.5803 l 0,0 c 0.004,-10e-4 0.007,-0.003 0.0105,-0.004 -0.20234,0.0592 -0.18776,0.0595 0.0785,-0.20601 -0.48913,0.55738 -1.28142,1.01175 -1.42352,0.99565 -0.45966,0.29873 -0.89683,0.67373 -1.42253,0.84044 -0.17737,0.11437 -0.68337,0.50661 -1.01435,0.69071 -0.22544,0.23546 -0.87961,0.76453 -1.22156,1.07934 -0.55158,0.42463 -0.9669,0.82294 -1.93515,1.09725 -0.46466,0.12456 -0.88852,0.29672 -1.3071,0.5417 -0.51858,0.18399 -0.85838,0.24039 -1.32526,0.48565 -0.90771,0.43551 -1.84586,0.49993 -2.82445,0.66358 -1.41958,0.3692 -2.78281,0.90964 -4.19865,1.28917 -0.83429,0.23525 -1.66718,0.4688 -2.48644,0.73562 -0.41642,0.0845 -0.41261,0.0295 -0.85169,0.42352 -0.61686,0.29599 -1.24596,0.50722 -1.85958,0.8138 -0.93094,0.34576 -1.90491,0.54293 -2.85236,0.84758 -1.10581,0.35432 -2.23939,0.61915 -3.35383,0.91795 -0.70307,0.31463 -1.43957,0.67749 -2.24,0.68799 -1.02656,0.0932 -2.03809,0.30226 -3.03454,0.5628 -1.33781,0.37102 -2.69444,0.64848 -4.02515,1.04607 -0.78063,0.13112 -1.46495,0.58237 -2.27633,0.56393 -0.92273,0.0275 -1.84333,0.12132 -2.74904,0.3043 -1.93507,0.39675 -3.80762,1.02283 -5.71181,1.54044 -0.95389,0.26421 -1.88825,0.41597 -2.87617,0.41165 -1.1914,0.10809 -2.36416,0.35597 -3.52839,0.62429 -1.91553,0.46095 -3.86131,0.77047 -5.75891,1.30535 -0.75344,0.16112 -1.5051,0.2696 -2.26205,0.39644 -1.1268,0.2684 -2.21063,0.73358 -3.37235,0.84975 -1.38867,0.29049 -2.65429,0.87844 -3.98873,1.3415 -0.87277,0.25926 -1.7548,0.53428 -2.6549,0.66845 -0.81744,0.16046 -1.57178,0.53698 -2.33645,0.85588 -1.42961,0.52945 -2.90884,0.90438 -4.39,1.25883 -0.87239,0.27012 -1.73735,0.52875 -2.60309,0.82358 -1.17503,0.12585 -2.33399,0.39997 -3.47384,0.70306 -1.86529,0.54909 -3.74874,1.04139 -5.65369,1.43276 -0.71494,0.13999 -1.35068,0.16644 -1.97202,0.57376 -0.98169,0.32677 -2.00579,0.43793 -3.00295,0.72062 -2.15483,0.54759 -4.31873,1.04269 -6.48535,1.54053 -1.43397,0.27721 -2.83122,0.76939 -4.28624,0.89494 -0.32226,0.002 -0.36359,-0.0287 -0.53993,0.0426 -1.24277,0.44091 -2.49449,0.85752 -3.75774,1.23604 -1.93721,0.46276 -3.8219,1.09104 -5.72716,1.66696 -0.73483,0.28392 -1.47609,0.61367 -2.23094,0.81224 -0.74333,0.27256 -1.4881,0.63884 -2.27872,0.80257 -1.33171,0.18641 -2.62739,0.5245 -3.94097,0.80698 -1.10131,0.14106 -2.16178,0.47317 -3.26591,0.54746 -0.37738,0.004 -0.75769,0.005 -1.12903,0.0809 -0.64939,0.0805 -1.17133,0.59643 -1.80206,0.73782 -0.745,0.19185 -1.42703,0.51219 -2.13597,0.80984 -0.74988,0.1588 -1.42069,0.61025 -2.20728,0.61078 -0.47084,0.0301 -0.92783,0.13099 -1.37148,0.2926 -0.84481,0.27317 -1.68362,0.50494 -2.58162,0.42718 -0.33596,0.008 -0.67,0.019 -1.00066,0.083 -0.77244,0.28593 -1.52406,0.69002 -2.3642,0.71623 -0.80578,0.10034 -1.58962,0.28599 -2.35762,0.5535 -0.75141,0.19988 -1.52539,0.25933 -2.21935,0.63968 -1.23427,0.57802 -2.55829,0.86802 -3.81478,1.3925 0,0 -1.37148,-3.42871 -1.37148,-3.42871 z"
       inkscape:connector-curvature="0" />
    <path
       style="fill:#fc9272;fill-opacity:1;fill-rule:nonzero;stroke:none"
       id="path3025"
       d="m 0.18186171,582.52873 c 1.34636419,1.12288 2.70085699,2.23497 4.09389689,3.29916 0.9404809,0.85181 1.9777024,1.58389 2.9475911,2.40057 1.1603401,0.98686 2.0076232,2.2732 2.8635093,3.51862 0.689521,0.6857 1.157121,1.64187 1.907629,2.26296 0.683363,0.69456 1.1678,1.54148 1.705947,2.3465 0.627123,0.91479 1.289765,1.79985 1.945958,2.69446 0.880684,1.07001 1.598458,2.24829 2.308586,3.43404 0.824104,1.32895 1.651112,2.64871 2.610475,3.88574 1.088446,1.22865 1.949502,2.62657 2.830781,4.00436 0.735768,1.09503 1.41183,2.22432 2.202787,3.28186 0.565706,0.93966 1.207621,1.83023 1.789874,2.75799 0.635961,1.10596 1.371773,2.14847 2.01876,3.24867 0.515247,0.95977 1.085352,1.88429 1.663341,2.8049 0.435486,0.80391 1.062269,1.47195 1.579242,2.21941 0.653076,0.70539 1.162009,1.5126 1.732084,2.28193 0.628151,0.93453 1.210461,1.91485 1.921688,2.7888 0.523191,0.70523 1.100578,1.39486 1.764027,1.97447 0.694036,0.56929 1.00012,1.47913 1.581462,2.1271 0.517626,0.7238 1.06404,1.43323 1.613975,2.1379 0.523591,0.8636 1.064404,1.7092 1.706961,2.48934 0.640216,0.88092 1.339018,1.70788 2.006924,2.56858 0.732785,0.87705 1.46093,1.75438 2.148202,2.66716 0.561674,0.78752 1.111436,1.57842 1.651385,2.37915 0.607335,0.67638 1.194596,1.36943 1.767284,2.07876 0.605092,0.78943 1.17039,1.60876 1.752294,2.41772 0.761914,0.95663 1.353584,2.0332 1.974941,3.0825 0.585164,0.92629 1.212745,1.8476 1.928088,2.67868 0.805498,1.03491 1.433011,2.18057 2.019737,3.34856 0.46955,1.0801 1.076787,2.10441 1.768971,3.05762 0.642877,1.02851 1.27978,2.05527 1.941693,3.07007 0.884895,1.13077 1.581954,2.39184 2.407597,3.56153 0.933447,1.15798 1.768628,2.3904 2.608645,3.61628 0.582674,0.88447 1.182855,1.75309 1.771217,2.6319 0.430415,0.71875 0.929139,1.38074 1.301727,2.13322 0.426965,0.63147 0.770098,1.29704 1.020146,2.01734 0.354045,0.45612 0.554267,1.09622 0.745248,1.61269 0.406299,0.8589 0.875215,1.67446 1.217107,2.564 0.157493,0.73167 0.531195,1.36124 0.802441,2.05215 0.251956,0.77378 0.637872,1.49232 0.877618,2.29115 0.177973,0.76292 0.538194,1.47082 0.754691,2.24453 0.168028,0.69986 0.446625,1.40457 0.74806,2.08013 0.421378,0.93993 0.904275,1.85652 1.35614,2.78745 0.381431,0.71332 0.682683,1.48616 0.987967,1.99411 0.309764,0.44908 0.494065,0.9528 0.664713,1.46583 0.02811,0.0845 -0.155543,-0.29727 -0.07666,-0.25594 0.108628,0.0569 0.126501,0.21013 0.189751,0.3152 0.408513,0.78983 0.799897,1.59356 1.114948,2.42695 0.466497,0.56741 0.747628,1.31624 0.971552,2.03332 0.353992,0.38357 0.437378,0.94155 0.714055,1.36657 0.3392,0.71608 0.717893,1.41075 1.063468,2.12438 0.270723,0.82467 0.682828,1.57401 0.981294,2.39103 0.16406,0.55726 0.553881,1.17908 0.922795,1.83792 0.500124,1.09325 1.030359,2.17086 1.514718,3.27132 0.653951,0.93444 0.858986,2.11953 1.405546,3.09351 0.460302,0.73804 0.728363,1.57238 1.028777,2.38334 0.352033,1.12025 0.709849,2.2433 1.230816,3.29777 0.498173,0.93234 0.810995,1.96706 1.327052,2.88775 0.524559,1.2782 0.893027,2.6154 1.428089,3.89089 0.558992,1.44013 1.211861,2.83781 1.861206,4.23964 0.669057,1.59995 1.565558,3.07193 2.171501,4.70017 0.559604,1.21483 1.026884,2.46697 1.501966,3.71591 0.75668,1.26144 1.28143,2.63875 1.922684,3.95808 0.91294,1.66455 1.41238,3.50992 2.17119,5.23591 0.0326,-0.5883 1.04952,3.14136 0.91546,2.29996 0.44649,0.70038 0.69849,1.48134 0.85486,2.29021 0.13973,0.71579 0.50873,1.63371 0.76895,2.46633 0.58066,1.78676 0.5469,3.67723 0.82843,5.51305 0.28015,1.42578 0.50914,2.85521 0.63555,4.30288 0.0729,1.05196 0.42756,2.05527 0.59955,3.09783 0.0946,1.30612 0.44011,2.56562 0.64368,3.85794 0.31399,2.10369 0.64923,4.1965 0.83698,6.31834 0.16486,2.44899 0.52735,4.87898 0.7478,7.32393 0.12186,1.08456 0.12592,2.28509 0.2457,3.31335 0.34133,1.16017 0.64294,2.33507 0.91031,3.51528 0.19954,1.51918 0.5963,2.99616 0.91456,4.49222 0.0979,0.80137 0.25577,1.41286 0.54318,2.10412 0.5205,1.59277 0.86171,3.23278 1.22933,4.86641 0.34109,2.12254 0.66373,4.24039 1.05581,6.35459 0.15288,1.24849 0.62993,2.42032 0.9413,3.63333 -0.029,0.41366 0.32122,0.94513 0.22199,1.36282 -0.0257,0.108 -0.0924,-0.22552 -0.052,-0.32894 0.0559,-0.14332 0.14527,0.27123 0.21924,0.40612 0.3768,0.57289 0.52083,1.23062 0.59683,1.89996 0.0431,0.57265 0.035,1.14746 0.0337,1.72126 -0.003,1.02442 -0.004,2.04883 -0.004,3.07325 -4.8e-4,0.8804 -6.4e-4,1.76081 -6.7e-4,2.64121 0.0255,0.77473 -0.47997,1.33493 -0.71937,2.00383 0.0181,0.30367 -0.70414,1.36365 -0.71599,1.38274 0.002,0.20529 -0.035,0.61085 -0.0437,0.88727 -0.001,0.0536 0.0111,0.21267 -0.003,0.16093 -0.52292,-1.90488 0.21224,-0.21707 0.40216,0.18121 -0.3381,-0.76803 0.69369,1.74869 0.24988,0.88975 -0.0926,-0.17917 -0.10942,-0.39608 -0.22404,-0.562 -0.14697,-0.21274 -0.35887,-0.37234 -0.53831,-0.5585 -0.3514,-0.26498 1.43185,0.39965 1.65617,0.49073 0.76391,0.16066 1.46689,0.45953 2.13866,0.85352 0.48984,0.24315 1.10604,0.71952 1.63795,1.17523 0.39781,0.43884 0.85595,0.81107 1.35397,1.14831 0.89726,0.74876 1.65588,1.59877 2.3159,2.5632 0.84213,1.26656 1.36981,2.7068 2.04775,4.06458 0.40012,1.09262 0.4346,1.14094 0.82007,1.74706 0.29158,0.67795 0.50389,0.75563 0.91302,1.5052 0.61104,0.89556 1.16121,1.82875 1.72497,2.75426 0.56474,0.93695 1.10968,1.98095 1.85632,2.79296 0.38171,0.38934 0.79034,0.75147 1.20311,1.10736 0.0504,0.0414 0.0987,0.0851 0.14807,0.12769 0,0 -2.14682,3.0047 -2.14682,3.0047 l 0,0 c -0.14315,-0.10559 -0.27878,-0.22068 -0.41372,-0.3365 -0.57695,-0.49815 -1.15074,-1.00474 -1.65753,-1.5756 -0.78758,-1.01076 -1.54397,-2.06539 -2.14392,-3.20066 -0.59998,-0.98651 -1.20081,-1.97034 -1.82999,-2.93852 -0.23742,-0.47616 -0.6515,-0.94784 -0.76987,-1.25963 -0.41835,-0.65826 -0.77791,-1.33145 -1.00802,-2.07951 -0.60861,-1.22039 -1.08589,-2.51274 -1.81499,-3.66338 -0.41701,-0.65471 -0.92882,-1.04623 -1.43349,-1.61092 -0.0258,-0.0288 0.0708,0.0313 0.10616,0.047 -0.64167,-0.4409 -1.24251,-0.93769 -1.78526,-1.4929 -0.67477,-0.53153 -0.24504,-0.30349 -1.00949,-0.70492 -0.51239,-0.31156 -1.05531,-0.43029 -1.64252,-0.60716 -0.7056,-0.28669 -0.90363,-0.33441 -1.83389,-0.56841 -0.72918,-0.35739 -1.22475,-0.92521 -1.34311,-1.72721 0.0269,0.0336 0.0989,0.13974 0.0806,0.10082 -0.29576,-0.6274 -0.91443,-1.14392 -0.7475,-1.95076 0.0262,-0.76785 0.0851,-1.53561 0.35875,-2.26225 0.21936,-0.47159 0.14376,-0.3483 0.48396,-0.86321 0.0151,-0.0228 0.0702,-0.0744 0.0669,-0.0473 -0.01,0.0806 -0.0711,0.31653 -0.0476,0.23882 0.0492,-0.16295 0.0833,-0.33008 0.12503,-0.49512 0.0601,-0.15999 0.53748,-1.54713 0.49002,-0.72288 4e-5,-0.88108 1.9e-4,-1.76215 6.7e-4,-2.64323 6.1e-4,-1.02642 0.001,-2.05285 0.004,-3.07927 10e-4,-0.45572 0.008,-0.91205 -0.0175,-1.36728 -0.0255,-0.31172 0.0774,-0.007 -0.16061,-0.4746 -0.39375,-0.72215 -0.65833,-1.47359 -0.72669,-2.2968 -0.32857,-1.29267 -0.84091,-2.5414 -0.99442,-3.87459 -0.38327,-2.06846 -0.7089,-4.1395 -1.02786,-6.21822 -0.31996,-1.42678 -0.62063,-2.862 -1.03736,-4.26105 -0.36886,-0.89113 -0.62167,-1.79594 -0.74485,-2.75396 -0.31179,-1.4806 -0.7106,-2.94233 -0.90442,-4.44576 -0.25941,-1.15965 -0.55952,-2.31127 -0.89513,-3.45063 -0.24185,-1.272 -0.18928,-2.57141 -0.33627,-3.85848 -0.21973,-2.44731 -0.58495,-4.87944 -0.74842,-7.33095 -0.17865,-2.0395 -0.50297,-4.0504 -0.80696,-6.07225 -0.19876,-1.28471 -0.54728,-2.54155 -0.6409,-3.84049 -0.17618,-1.13106 -0.59632,-2.21483 -0.63278,-3.36627 -0.11838,-1.37598 -0.35017,-2.73127 -0.61045,-4.08728 -0.23336,-1.65313 -0.23568,-3.34344 -0.70309,-4.95859 -0.29542,-0.97341 -0.68654,-1.92724 -0.87934,-2.92704 -0.0328,-0.40842 -0.2303,-0.76492 -0.43556,-1.11008 -0.405504,-0.86947 -0.668744,-1.79417 -1.092944,-2.6606 -0.70497,-1.68832 -1.239189,-3.44975 -2.098242,-5.07546 -0.684186,-1.41967 -1.280817,-2.87888 -2.051262,-4.25674 -0.477814,-1.26392 -0.959775,-2.52526 -1.517377,-3.75727 -0.548589,-1.53805 -1.461863,-2.89498 -2.054118,-4.41637 -0.671709,-1.45018 -1.341767,-2.89914 -1.925467,-4.38667 -0.476055,-1.17309 -0.882193,-2.37338 -1.27988,-3.57417 -0.499307,-0.97607 -0.889996,-2.00487 -1.377553,-2.98717 -0.568433,-1.17116 -1.000442,-2.40007 -1.378965,-3.64453 -0.259925,-0.71207 -0.48994,-1.43243 -0.899908,-2.07662 -0.477702,-1.06773 -0.847071,-2.18257 -1.451864,-3.19512 -0.432309,-0.99467 -0.921522,-1.96185 -1.357365,-2.95415 -0.433015,-0.78159 -0.891442,-1.57175 -1.183233,-2.41744 -0.218046,-0.70112 -0.63732,-1.32979 -0.837066,-2.03803 -0.299634,-0.68086 -0.68305,-1.33002 -1.002723,-2.00119 -0.322921,-0.66225 -0.631732,-1.31504 -0.962971,-1.97664 -0.197501,-0.66197 -0.55301,-1.22337 -0.899668,-1.82225 -0.232324,-0.62824 -0.52817,-1.2338 -0.825877,-1.82668 -0.306079,-0.5165 -0.480669,-1.02896 -0.775829,-1.52179 -0.443373,-0.74148 -0.743269,-1.53297 -1.149573,-2.29419 -0.471282,-0.9886 -0.986176,-1.95653 -1.431598,-2.9551 -0.336456,-0.82505 -0.686311,-1.66818 -0.903904,-2.5299 -0.200681,-0.74479 -0.577562,-1.42681 -0.736851,-2.18198 -0.197966,-0.69229 -0.567667,-1.30998 -0.777015,-1.99634 -0.271038,-0.70614 -0.662796,-1.3633 -0.824373,-2.10995 -0.265563,-0.78278 -0.752854,-1.45864 -1.069561,-2.21986 -0.302131,-0.69085 -0.527434,-1.39763 -0.92498,-2.04745 -0.19089,-0.58291 -0.55036,-1.0589 -0.846872,-1.59582 -0.283365,-0.60882 -0.738906,-1.11161 -1.057144,-1.70467 -0.569722,-0.87205 -1.176876,-1.71549 -1.743537,-2.59075 -0.8295,-1.2213 -1.669849,-2.43726 -2.591757,-3.59175 -0.832441,-1.2126 -1.575634,-2.48543 -2.47106,-3.656 -0.626765,-0.96956 -1.248269,-1.93865 -1.844648,-2.92804 -0.795676,-1.11717 -1.517664,-2.29875 -2.070139,-3.5557 -0.459701,-0.91755 -0.932745,-1.82375 -1.557555,-2.64232 -0.819212,-1.00376 -1.599115,-2.05041 -2.268396,-3.16152 -0.56394,-0.95544 -1.096493,-1.93841 -1.793995,-2.80552 -0.541826,-0.75349 -1.060431,-1.5242 -1.628087,-2.25476 -0.642796,-0.79687 -1.317486,-1.55905 -1.966619,-2.35022 -0.494118,-0.75599 -1.024193,-1.48155 -1.541217,-2.22276 -0.659889,-0.90418 -1.400812,-1.73947 -2.104643,-2.60978 -0.646512,-0.83635 -1.317127,-1.64951 -1.947981,-2.49447 -0.65213,-0.80379 -1.262814,-1.64305 -1.758547,-2.55398 -0.567427,-0.72811 -1.118253,-1.473 -1.669261,-2.21063 -0.365548,-0.51928 -0.702072,-1.05316 -1.073281,-1.57035 -0.814171,-0.73578 -1.555935,-1.57074 -2.210202,-2.44989 -0.720838,-0.93793 -1.386122,-1.92094 -2.020158,-2.92023 -0.573159,-0.81735 -1.144091,-1.62048 -1.799762,-2.37986 -0.488907,-0.80346 -1.234469,-1.44794 -1.63995,-2.31342 -0.593086,-0.95632 -1.191559,-1.90826 -1.722158,-2.90239 -0.620617,-1.07977 -1.355867,-2.08982 -1.97257,-3.17154 -0.502786,-0.84616 -1.128229,-1.61992 -1.604448,-2.4849 -0.84223,-1.13036 -1.572785,-2.32965 -2.354305,-3.50092 -0.822704,-1.28622 -1.620092,-2.59432 -2.642425,-3.73678 -1.043625,-1.35569 -1.959309,-2.79115 -2.856332,-4.24621 -0.651177,-1.08796 -1.30294,-2.17058 -2.118228,-3.14732 -0.688417,-0.93915 -1.380939,-1.87172 -2.041075,-2.83048 -0.398261,-0.59934 -0.7439951,-1.22501 -1.2203801,-1.75947 -0.853779,-0.88033 -1.59605,-1.86363 -2.3693505,-2.81465 -0.6604029,-0.97442 -1.3142356,-1.99225 -2.1967469,-2.78015 -0.9228903,-0.78207 -1.9204939,-1.47176 -2.8117912,-2.29128 -1.51742969,-1.16675 -3.00897065,-2.36759 -4.4583824,-3.61866 0,0 2.61122881,-2.61123 2.61122881,-2.61123 z"
       inkscape:connector-curvature="0" />
    <path
       style="fill:#fc9272;fill-opacity:1;fill-rule:nonzero;stroke:none"
       id="path3027"
       d="m 133.83952,840.58773 c 0.75583,-1.574 1.73123,-3.03036 2.50252,-4.59417 0.63525,-1.31972 1.44469,-2.54243 2.12765,-3.83588 0.78168,-1.48809 1.33026,-3.08027 2.00847,-4.61319 0.46745,-0.88586 0.74761,-1.84202 1.11316,-2.76665 0.25165,-0.76402 0.83923,-1.37656 1.10551,-2.12792 0.33488,-0.74937 0.62621,-1.49904 0.78897,-2.30599 0.27145,-0.93326 0.6579,-1.82479 0.79675,-2.79107 0.38757,-1.06257 0.57245,-2.17659 0.89054,-3.25709 0.29277,-1.09515 0.84167,-2.08747 1.12485,-3.18436 0.436,-1.02679 0.76576,-2.07427 0.93227,-3.17693 0.11281,-1.13291 0.48268,-2.21564 0.68889,-3.33342 0.0756,-1.2 0.30397,-2.37016 0.53359,-3.5487 0.16943,-1.26963 0.58249,-2.48331 0.82755,-3.73755 0.47964,-1.23209 0.7064,-2.52512 1.02639,-3.79955 0.43663,-1.36149 0.51766,-2.79096 0.77693,-4.18678 0.26079,-1.0412 0.50556,-2.08917 0.62991,-3.15659 0.005,-0.84441 0.25031,-1.61297 0.69566,-2.32788 0.0194,-0.14852 0.0938,-0.34737 0.13707,-0.51597 -0.22576,0.7884 3.67447,-0.70732 3.66124,0.76561 -0.42262,1.19099 -0.55588,1.39143 -1.05089,2.27867 -0.49439,0.97493 -0.84602,2.00853 -1.28006,3.01119 -0.30944,0.98044 -0.81445,1.88551 -1.11603,2.8676 -0.42148,0.9906 -0.89888,1.94765 -1.38178,2.90926 -0.42618,0.91589 -0.71789,1.88482 -1.11595,2.81072 -0.27311,0.56739 -0.53701,1.12507 -0.67182,1.74049 -0.26992,1.43643 0.46338,0.32845 -3.73063,-0.19072 0.005,-1.46538 0.005,-2.93078 0.006,-4.39617 7e-4,-1.93007 6.7e-4,-3.86013 6.8e-4,-5.7902 0.004,-1.69605 -0.32134,-3.37605 -0.52225,-5.05777 -0.12963,-1.09387 -0.19052,-2.1933 -0.21463,-3.29398 -0.0713,-0.95846 0.3565,-1.83505 0.59005,-2.74069 0.0633,-0.26025 0.12474,-0.52123 0.17105,-0.78511 -0.18663,1.13758 1.29672,-1.60741 2.31639,-1.58944 1.67351,0.74829 1.09115,0.17254 1.88667,1.5736 0,0 -3.50875,1.15141 -3.50875,1.15141 l 0,0 c 0.65886,0.87641 0.19914,0.47469 1.55531,0.96722 -1.27646,-0.0239 1.75611,-2.74965 1.39157,-1.48732 -0.0636,0.37018 -0.14899,0.73627 -0.23875,1.10086 -0.17466,0.66513 -0.47323,1.26917 -0.47157,1.72957 0.0209,0.98106 0.074,1.96097 0.18945,2.936 0.21806,1.82687 0.56493,3.65156 0.5483,5.49567 -1e-5,1.93065 2e-5,3.86131 -6.9e-4,5.79196 -7.1e-4,1.47067 -0.001,2.94134 -0.006,4.412 -3.6649,0.18577 -3.93517,1.26985 -3.56311,-0.64557 0.19921,-0.85867 0.52071,-1.66676 0.91348,-2.45549 0.49362,-0.915 0.65779,-2.01939 1.17548,-2.93492 0.39893,-0.79365 0.79426,-1.57906 1.16651,-2.38345 0.36074,-1.09072 0.86817,-2.11914 1.24312,-3.20486 0.48463,-1.1151 0.87804,-2.26563 1.4448,-3.34408 0.27822,-0.49628 1.2626,-2.49526 0.5814,-0.50971 0.0135,-1.49595 4.22742,-1.32774 3.61447,0.16155 -0.14187,0.56029 -0.32695,1.11156 -0.61241,1.61691 -0.11869,0.16548 -0.11863,0.14308 -0.0569,-0.21286 0.0143,-0.0823 -0.0102,0.16679 -0.0153,0.25019 -0.0359,0.46562 -0.0147,0.21857 -0.0652,0.74099 -0.14385,1.15185 -0.37436,2.29072 -0.67028,3.41322 -0.30085,1.46232 -0.34046,2.98011 -0.82679,4.40774 -0.32238,1.19935 -0.47962,2.44552 -0.97995,3.59604 -0.25147,1.25029 -0.64993,2.46046 -0.82516,3.7254 -0.22871,1.1706 -0.44347,2.32357 -0.52731,3.51568 -0.20263,1.08529 -0.5529,2.13691 -0.6718,3.23378 -0.19837,1.22482 -0.49388,2.43126 -1.01458,3.56356 -0.3158,1.14051 -0.81861,2.19355 -1.16478,3.32184 -0.31244,0.88984 -0.34312,1.87318 -0.76803,2.73133 -0.16937,1.0279 -0.464,2.01572 -0.83352,2.98959 -0.22848,1.03488 -0.5753,2.01842 -1.00406,2.98454 -0.33126,0.7352 -0.77836,1.37906 -1.09841,2.11117 -0.46278,0.89491 -0.59693,1.97945 -1.14796,2.84663 -0.73296,1.59694 -1.27087,3.28724 -2.11744,4.83552 -0.67589,1.26125 -1.45049,2.4659 -2.08358,3.75043 -0.82805,1.64226 -1.82278,3.19412 -2.63961,4.84403 0,0 -3.16658,-1.89994 -3.16658,-1.89994 z"
       inkscape:connector-curvature="0" />
    <path
       style="fill:#de2d26;fill-opacity:1;stroke:none"
       id="path3010"
       d="m 124.47475,907.74177 c 1.38238,-1.23373 2.69701,-2.5404 4.06632,-3.78792 0.9312,-0.90458 1.82317,-1.8496 2.7718,-2.73581 0.69755,-0.89641 1.32035,-1.83651 2.10298,-2.67117 1.23422,-0.98117 2.32182,-2.12775 3.42922,-3.24562 1.28685,-1.41167 2.8284,-2.56023 4.03905,-4.04088 0.90156,-1.07265 1.89684,-2.07761 2.66266,-3.2565 0.80401,-1.25957 1.84335,-2.26739 3.02862,-3.16249 1.11818,-0.71797 2.18768,-1.49278 3.25139,-2.28748 1.08692,-0.87398 2.29893,-1.55897 3.45559,-2.32728 0.91495,-0.55337 1.79938,-1.20169 2.54215,-1.97582 0.92981,-0.8403 1.74482,-1.77387 2.77284,-2.49881 1.36037,-0.83025 2.62473,-1.8132 3.72679,-2.9641 1.15051,-1.25448 2.56063,-2.22072 3.80188,-3.37324 1.06862,-0.78393 1.78525,-1.90284 2.66371,-2.87455 0.84411,-1.06814 1.7885,-2.04733 2.659,-3.09396 0.78689,-1.23264 1.7524,-2.31351 2.79598,-3.33147 1.0792,-0.94491 2.25523,-1.78786 3.27248,-2.80103 0.83828,-0.77891 1.70932,-1.53818 2.47619,-2.38989 0.93487,-0.82519 1.96757,-1.53885 2.96775,-2.28523 0.92713,-0.87984 1.98342,-1.61298 3.02414,-2.35082 1.20506,-0.67672 2.36945,-1.4165 3.45662,-2.27095 1.29072,-0.91756 2.49346,-1.96806 3.60307,-3.09791 1.14624,-1.42536 2.77983,-2.22576 4.27707,-3.19909 0.84884,-0.57576 2.13301,-1.03643 2.78795,-1.63841 0.61058,-0.83368 1.39185,-1.48655 2.22808,-2.09321 0.78154,-0.79039 1.83876,-1.20688 2.68339,-1.91458 1.00646,-0.57537 1.48036,-1.54637 2.06279,-2.48834 0.62754,-1.05652 0.8249,-2.28361 1.21159,-3.43872 0.37894,-1.40661 0.72195,-2.8279 1.22396,-4.19682 0.53637,-1.24885 0.75765,-2.58571 1.18109,-3.87244 0.31585,-1.3596 0.59993,-2.69715 1.1407,-3.99119 0.25329,-0.65562 0.5973,-1.2617 0.84014,-1.92103 0.81838,-2.12912 3.82941,-0.97175 3.01103,1.15738 l 0,0 c -0.27349,0.69315 -0.59666,1.35155 -0.88735,2.03707 -0.53717,1.19613 -0.67377,2.47634 -1.04063,3.72693 -0.43854,1.33017 -0.65844,2.7189 -1.2288,4.00719 -0.5255,1.31278 -0.76786,2.72756 -1.18123,4.07707 -0.46626,1.39243 -0.71618,2.86868 -1.53224,4.11977 -0.78175,1.24377 -1.50034,2.5233 -2.80053,3.31369 -0.92019,0.70614 -1.96037,1.22609 -2.81585,2.01389 -0.67767,0.46344 -1.21272,0.93222 -1.68777,1.60939 -0.99639,0.97613 -2.24519,1.5276 -3.45138,2.20548 -1.30726,0.83384 -2.73166,1.51139 -3.72439,2.75021 -1.21013,1.22438 -2.51298,2.373 -3.91344,3.37466 -1.13195,0.88163 -2.32531,1.68052 -3.5856,2.36674 -1.02564,0.71729 -2.04476,1.45121 -2.96212,2.30601 -0.84602,0.62066 -1.69198,1.24775 -2.52045,1.88422 -0.82491,0.87664 -1.70433,1.7044 -2.59558,2.51224 -1.03704,0.99215 -2.16239,1.88745 -3.26998,2.79861 -0.96691,0.94011 -1.83554,1.94548 -2.56702,3.08386 -0.90064,1.08194 -1.87632,2.09457 -2.75001,3.19867 -0.94902,1.04059 -1.72057,2.24802 -2.87534,3.08698 -1.21055,1.09524 -2.54029,2.05399 -3.66707,3.24255 -1.27449,1.29419 -2.68141,2.45134 -4.23996,3.39218 -0.89782,0.53275 -1.46326,1.48112 -2.29392,2.1054 -0.92842,0.90361 -1.94141,1.73606 -3.05978,2.39483 -1.11288,0.71464 -2.25049,1.38655 -3.28998,2.21194 -1.06839,0.79083 -2.13502,1.57552 -3.25565,2.29064 -0.91416,0.65763 -1.65382,1.40438 -2.26445,2.35846 -0.85238,1.26048 -1.86983,2.38872 -2.86881,3.53299 -1.29381,1.53462 -2.84437,2.79616 -4.22669,4.24744 -1.08935,1.09961 -2.15317,2.2445 -3.37912,3.1939 -0.84257,0.87642 -1.41426,1.95083 -2.25919,2.82521 -0.96971,0.87399 -1.8389,1.85793 -2.79014,2.75258 -1.42456,1.28521 -2.7741,2.65273 -4.2184,3.91751 -1.78115,1.42492 -3.7963,-1.09401 -2.01515,-2.51893 z"
       inkscape:connector-curvature="0"
       transform="translate(0,66.362183)" />
    <path
       style="fill:#de2d26;fill-opacity:1;stroke:none"
       id="path3012"
       d="m 133.98364,999.61277 c 0.46534,-2.62011 1.26625,-5.15081 2.05093,-7.68646 0.66717,-2.31045 1.82594,-4.42839 2.61037,-6.69162 0.6909,-1.94579 1.37028,-3.90225 1.94023,-5.88771 0.21399,-1.53469 1.00978,-2.84315 1.62956,-4.2251 0.56891,-1.23268 1.16084,-2.46508 1.64083,-3.73664 0.5136,-1.27594 1.39478,-2.33487 2.0975,-3.50125 0.90821,-1.08598 1.53613,-2.33437 2.22434,-3.55597 0.67708,-1.22285 1.12075,-2.54919 1.62341,-3.84763 0.7349,-1.46473 1.65833,-2.81602 2.56709,-4.17404 0.91567,-1.36299 1.78766,-2.75582 2.67145,-4.14065 0.79365,-1.29388 1.57581,-2.58868 2.33116,-3.90593 0.57227,-1.28483 1.22717,-2.5322 1.70914,-3.85523 0.52735,-1.41673 1.38337,-2.62446 2.28522,-3.81708 0.85662,-0.82886 1.43093,-1.87335 2.17566,-2.79518 0.73808,-0.95158 1.55869,-1.84593 2.42638,-2.68147 0.66509,-0.81701 1.02395,-1.83354 1.59542,-2.72615 0.7926,-1.38847 1.91798,-2.53225 2.89261,-3.78573 0.83476,-1.18815 1.55512,-2.43634 2.26054,-3.70368 0.18297,-0.65581 -0.12672,-1.19892 -0.3166,-1.82241 -0.27281,-1.10353 -0.7473,-2.14579 -1.24213,-3.16599 -0.64836,-0.93978 -1.40961,-1.78489 -2.0524,-2.73214 -0.98147,-1.43142 -0.98154,-3.15635 -1.37043,-4.77157 -0.45456,-1.41302 -0.97412,-2.78551 -1.27425,-4.24774 -0.5298,-1.29142 -0.69784,-2.67803 -1.04466,-4.01685 -0.41669,-1.45655 -0.56601,-2.95793 -0.98382,-4.41146 -0.32626,-1.47036 -0.66697,-2.93341 -1.00241,-4.40267 -0.59252,-1.36536 -0.94407,-2.79148 -1.15154,-4.26017 -0.0986,-1.39298 -0.26916,-2.77028 -0.51524,-4.14511 -0.2929,-1.56999 -0.38157,-3.16536 -0.43767,-4.75815 -0.0428,-1.62717 -0.0392,-3.25509 -0.0389,-4.88268 0.0373,-0.30967 0.0747,-0.61934 0.11197,-0.92901 0.30873,-2.26 3.50485,-1.8234 3.19613,0.4366 l 0,0 c -0.0274,0.16434 -0.0549,0.32868 -0.0823,0.49302 -3.1e-4,1.58985 -0.004,3.18001 0.0369,4.76946 0.0499,1.4403 0.12435,2.88356 0.38934,4.30335 0.25243,1.41501 0.43332,2.83756 0.53518,4.27104 0.18567,1.38363 0.58953,2.68718 1.10146,3.98576 0.32017,1.41153 0.65208,2.81699 0.95818,4.23044 0.42551,1.49064 0.6047,3.02037 1.01188,4.51603 0.34053,1.39404 0.56328,2.81342 1.07769,4.16315 0.28365,1.44236 0.86562,2.77024 1.25984,4.17997 0.2643,1.23711 0.28268,2.5514 0.90521,3.68509 0.70365,1.07975 1.64446,1.98187 2.27226,3.11597 0.56728,1.1698 1.09681,2.37432 1.42579,3.63466 0.44778,1.47306 0.7739,2.87188 0.0464,4.33513 -0.79001,1.40878 -1.59526,2.80084 -2.53556,4.11737 -0.92991,1.18307 -1.99004,2.27146 -2.74629,3.58293 -0.75509,1.05461 -1.04792,2.41259 -2.06739,3.28646 -0.79232,0.72441 -1.49456,1.55586 -2.15861,2.39582 -0.74557,0.85581 -1.23186,1.92117 -2.0885,2.68531 -0.71368,0.93854 -1.41216,1.86539 -1.82967,2.98615 -0.55613,1.48769 -1.26463,2.90868 -1.93884,4.34556 -0.78354,1.35779 -1.5905,2.69609 -2.4082,4.03296 -0.89728,1.40495 -1.78404,2.81704 -2.71131,4.20155 -0.78062,1.16174 -1.55828,2.32203 -2.23996,3.54712 -0.56502,1.44316 -1.06151,2.91918 -1.827,4.27503 -0.7178,1.23973 -1.33347,2.5398 -2.27421,3.64045 -0.61423,0.99537 -1.34946,1.90981 -1.83911,2.9766 -0.51712,1.32855 -1.11802,2.62673 -1.71733,3.91884 -0.57104,1.23601 -1.28146,2.39675 -1.46486,3.78019 -0.59207,2.0426 -1.28199,4.05928 -1.99587,6.06183 -0.78785,2.22126 -1.88868,4.31499 -2.57265,6.5774 -0.73529,2.37288 -1.49117,4.7387 -1.93898,7.18846 -0.32258,2.258 -3.51597,1.8018 -3.19339,-0.45623 z"
       inkscape:connector-curvature="0"
       transform="translate(0,66.362183)" />
    <path
       style="fill:#de2d26;fill-opacity:1;stroke:none"
       id="path3014"
       d="m 107.13965,861.0375 c -0.23971,1.97615 -0.62834,3.93871 -1.27066,5.82436 -0.5526,1.44809 -1.06921,2.90882 -1.62515,4.35532 -0.48835,1.45211 -1.04464,2.87986 -1.63769,4.29289 -0.52376,1.41318 -1.08484,2.8134 -1.43497,4.28229 -0.15941,1.42148 -0.63245,2.78881 -0.62205,4.22359 0.16603,1.63584 -0.37468,3.18361 -0.797139,4.73458 -0.254557,1.47898 -0.577905,2.92945 -0.943343,4.38513 -0.310391,1.33922 -0.361355,2.71688 -0.403465,4.0852 -0.02063,1.66747 -0.421956,3.29927 -0.620314,4.95137 -0.164801,1.55006 -0.186674,3.11003 -0.203562,4.66722 0.02545,1.20616 0.189259,2.50566 0.599838,3.64841 0.657177,1.48617 0.384504,2.8929 -0.310166,4.2901 -0.35986,0.71318 -0.197763,0.35702 -0.489584,1.06697 -0.882153,2.10351 -3.856954,0.85595 -2.974801,-1.24755 l 0,0 c 0.395629,-0.93014 0.190745,-0.4927 0.606756,-1.31601 0.396967,-0.67383 0.460593,-1.00521 0.0961,-1.80835 -0.4539,-1.50314 -0.76649,-3.09597 -0.75376,-4.66876 0.01838,-1.67478 0.0451,-3.35244 0.226681,-5.01914 0.18935,-1.5571 0.562124,-3.09613 0.598567,-4.6647 0.0504,-1.59993 0.124926,-3.20874 0.499443,-4.77203 0.372546,-1.47703 0.686017,-2.94777 0.959578,-4.44704 0.350767,-1.28336 0.840782,-2.54564 0.683402,-3.90147 0.02178,-1.68845 0.464033,-3.30388 0.712939,-4.96804 0.402288,-1.63569 1.00063,-3.2061 1.598839,-4.77832 0.589088,-1.37951 1.118248,-2.78101 1.600298,-4.20055 0.55102,-1.41197 1.04509,-2.84539 1.58998,-4.26 0.62297,-1.69489 0.88454,-3.50534 1.13232,-5.28579 0.37499,-2.24995 3.55691,-1.71963 3.18191,0.53032 z"
       inkscape:connector-curvature="0"
       transform="translate(0,66.362183)" />
    <path
       style="fill:#de2d26;fill-opacity:1;stroke:none"
       id="path3016"
       d="m 97.61307,908.0554 c 1.073673,1.6394 2.137072,3.2805 3.25716,4.8894 0.82448,1.01782 1.63127,2.04027 2.60187,2.92483 0.90176,0.92195 1.85192,1.78691 2.7077,2.75402 0.91835,1.1439 1.44849,2.52619 2.16682,3.78722 0.58305,1.02214 1.22532,2.0104 1.83229,3.02252 0.71246,1.24242 1.29388,2.48313 1.61635,3.88599 0.62906,1.63291 0.71278,3.2936 0.60293,5.01792 -0.14259,1.59146 -0.22299,3.18663 -0.26731,4.78353 0.006,1.64865 -0.0685,3.29185 -0.28431,4.92568 -0.27822,1.34829 -0.41829,2.7135 -0.49427,4.0861 -0.0914,1.59372 0.0153,3.19097 -0.1784,4.7761 -0.31167,1.35853 -0.50498,2.73131 -0.60489,4.12018 -0.087,1.54195 -0.0868,3.08704 -0.0905,4.63091 0.10996,1.72474 -0.10037,3.40865 -0.38361,5.10423 -0.26367,1.5285 -0.34324,3.07799 -0.39165,4.62552 -0.0365,1.59534 -0.032,3.19125 -0.031,4.7869 0.002,1.61294 0.004,3.22588 0.004,4.83882 7e-4,1.61318 7.3e-4,3.22635 7.7e-4,4.83953 -0.0617,1.30669 0.12232,2.59622 0.33434,3.88138 0.26669,1.37736 0.3597,2.77692 0.42129,4.17574 0.0389,1.07105 0.0452,2.14287 0.0517,3.21448 0.0137,2.28095 -3.21205,2.30033 -3.22575,0.0194 l 0,0 c -0.006,-1.0312 -0.012,-2.06258 -0.0487,-3.09326 -0.0555,-1.28408 -0.13913,-2.56858 -0.38785,-3.8324 -0.2078,-1.44693 -0.45313,-2.89474 -0.37084,-4.36524 -4e-5,-1.61263 -7e-5,-3.22526 -7.8e-4,-4.83789 -8.6e-4,-1.61285 -0.002,-3.2257 -0.004,-4.83855 -0.001,-1.63023 -0.006,-3.26072 0.0326,-4.89062 0.0538,-1.69152 0.1459,-3.38471 0.43414,-5.05531 0.2548,-1.52514 0.45433,-3.02671 0.33954,-4.5805 0.004,-1.61955 0.005,-3.24041 0.099,-4.85779 0.10753,-1.45644 0.29123,-2.90236 0.62655,-4.32591 0.2476,-1.48308 -0.008,-3.02052 0.15324,-4.51611 0.0827,-1.46139 0.22475,-2.91741 0.52042,-4.35322 0.23017,-1.51205 0.23624,-3.04062 0.25437,-4.56803 0.0458,-1.63699 0.12681,-3.27239 0.27291,-4.90384 0.0966,-1.43792 0.0102,-2.74608 -0.53342,-4.10998 -0.22403,-1.07316 -0.70372,-1.97861 -1.2368,-2.93039 -0.62103,-1.04654 -1.28222,-2.06486 -1.88733,-3.11844 -0.57964,-1.07329 -1.06857,-2.20008 -1.76009,-3.20967 -0.78412,-0.8905 -1.66178,-1.67929 -2.4882,-2.52859 -1.11977,-1.0582 -2.107816,-2.22699 -3.051586,-3.44358 -1.077073,-1.55086 -2.119147,-3.12031 -3.127676,-4.71591 -1.424923,-1.78116 1.094009,-3.7963 2.518932,-2.01515 z"
       inkscape:connector-curvature="0"
       transform="translate(0,66.362183)" />
    <path
       style="fill:#de2d26;fill-opacity:1;stroke:none"
       id="path3018"
       d="m 111.36484,941.95879 c 0.30818,2.01625 0.82527,3.99655 1.39171,5.95425 0.6358,1.57683 1.47214,3.05577 2.14852,4.61529 0.68831,1.39849 1.4462,2.76671 2.06971,4.19547 0.60203,1.46434 0.93432,3.00671 1.37606,4.51912 0.54183,1.66294 0.78066,3.38986 0.9164,5.1264 0.0814,1.62455 0.0361,3.2347 0.30516,4.84143 0.31838,1.62201 0.45792,3.26739 0.53681,4.91585 0.15031,1.48446 0.20255,2.96002 0.15561,4.45418 -0.004,0.91028 -0.14926,2.03767 0.19845,2.84035 0.66608,0.87252 0.64822,1.9473 0.90514,2.94492 -0.0433,0.79408 0.15006,1.57025 0.26776,2.35247 0.22938,0.0692 -0.50519,2.4704 -0.13417,1.19311 -0.13027,2.27726 -3.35081,2.09304 -3.22054,-0.18423 l 0,0 c 0.0817,-0.41533 0.10423,-1.04766 0.16411,-0.53359 -0.11007,-0.74852 -0.30514,-1.54541 -0.2547,-2.27183 -0.11213,-0.7384 -0.14912,-1.42203 -0.64324,-2.12069 -0.54934,-1.38339 -0.60603,-2.84018 -0.50701,-4.32234 0.0448,-1.41019 -0.001,-2.79756 -0.1536,-4.19957 -0.0715,-1.5238 -0.19987,-3.04442 -0.49736,-4.54324 -0.2774,-1.70083 -0.28045,-3.40001 -0.33868,-5.11888 -0.11528,-1.51977 -0.31981,-3.03018 -0.8006,-4.48384 -0.39295,-1.38635 -0.70125,-2.79287 -1.23922,-4.13572 -0.60326,-1.4344 -1.40431,-2.78354 -2.0678,-4.19104 -0.72334,-1.68545 -1.66536,-3.26667 -2.28555,-4.99716 -0.60105,-2.07791 -1.14397,-4.18104 -1.47488,-6.32039 -0.375,-2.24995 2.80692,-2.78027 3.18191,-0.53032 z"
       inkscape:connector-curvature="0"
       transform="translate(0,66.362183)" />
    <path
       style="fill:#de2d26;fill-opacity:1;stroke:none"
       id="path3020"
       d="m 122.73035,948.76379 c -1.08323,1.82675 -1.95235,3.78967 -2.66661,5.78876 -0.38064,1.62948 -1.1828,3.10597 -1.75364,4.66637 -0.79196,2.13909 -3.81709,1.01908 -3.02512,-1.12001 l 0,0 c 0.57849,-1.54796 1.35527,-3.02169 1.74349,-4.6386 0.81133,-2.24104 1.77835,-4.44715 3.01784,-6.48587 1.26527,-1.8979 3.9493,-0.10854 2.68404,1.78935 z"
       inkscape:connector-curvature="0"
       transform="translate(0,66.362183)" />
    <path
       style="fill:#de2d26;fill-opacity:1;stroke:none"
       id="path3022"
       d="m 47.462234,939.26331 c -0.316964,2.19336 -0.485133,4.40398 -0.599474,6.61598 -0.08133,1.76772 -0.08967,3.53755 -0.09393,5.30678 0.120902,1.71591 -0.24906,3.39123 -0.499807,5.07672 -0.215694,1.53198 -0.260737,3.07976 -0.290929,4.62428 -0.135186,1.53999 0.0723,3.02649 0.327937,4.53731 0.254141,1.59954 0.325663,3.2071 0.640243,4.7959 0.129282,1.43345 0.617833,2.72596 1.174119,4.0335 0.816532,1.46264 1.296482,3.06956 1.823926,4.65014 0.642513,1.22768 1.053864,2.54616 1.588589,3.81917 0.650248,1.42492 0.628081,3.00071 0.918032,4.50533 0.416105,1.42006 1.060061,2.74247 1.605954,4.11133 0.48087,0.84157 0.872313,1.73186 1.216688,2.63662 0.795361,2.13783 -2.227987,3.26264 -3.023348,1.12481 l 0,0 c -0.318697,-0.89189 -0.759999,-1.73425 -1.192956,-2.57478 -0.613727,-1.56735 -1.370287,-3.07835 -1.780414,-4.7226 -0.222234,-1.28045 -0.232223,-2.60848 -0.718078,-3.83154 -0.566466,-1.3488 -1.015772,-2.73766 -1.674765,-4.04834 -0.499387,-1.50024 -0.95231,-3.02112 -1.731977,-4.40731 -0.642041,-1.5092 -1.195654,-3.02725 -1.370663,-4.6724 -0.317874,-1.61876 -0.417938,-3.251 -0.655954,-4.8817 -0.288765,-1.70686 -0.505591,-3.40209 -0.372514,-5.13894 0.03336,-1.68249 0.08732,-3.36817 0.325578,-5.03653 0.228997,-1.53246 0.584281,-3.04809 0.464542,-4.60877 0.0044,-1.82234 0.01367,-3.64529 0.09825,-5.46604 0.121394,-2.33362 0.299874,-4.66589 0.639035,-6.97924 0.374993,-2.24996 3.556909,-1.71964 3.181916,0.53032 z"
       inkscape:connector-curvature="0"
       transform="translate(0,66.362183)" />
    <path
       style="fill:#de2d26;fill-opacity:1;stroke:none"
       id="path3024"
       d="m 103.15865,865.15526 c 1.36795,-1.64362 2.58618,-3.40939 4.00932,-5.00669 0.99628,-1.13554 2.03583,-2.24175 3.14029,-3.27325 0.83272,-0.86588 1.6866,-1.71044 2.50757,-2.58869 0.81729,-1.04222 2.01055,-1.75505 2.74996,-2.85634 0.82017,-1.20076 1.84325,-2.21376 2.88608,-3.21954 1.28766,-1.1861 2.64252,-2.29251 3.76381,-3.64586 0.99223,-1.03171 2.06154,-1.95369 2.93581,-3.09465 0.44282,-1.06674 0.97594,-2.07833 1.5724,-3.06918 0.96163,-1.44654 2.09786,-2.7774 3.24094,-4.08297 0.87543,-1.02005 1.50297,-2.20447 2.19011,-3.3484 0.61768,-1.00055 0.56807,-2.20076 0.86745,-3.32702 0.38423,-1.51699 1.49145,-2.66597 2.30838,-3.95771 0.78394,-1.35392 1.67034,-2.63105 2.58773,-3.89601 0.71924,-1.13352 1.19129,-2.38485 1.66785,-3.63335 0.34144,-1.38336 0.90029,-2.69987 1.22786,-4.08655 0.13594,-0.7879 0.0713,-0.40839 0.1943,-1.13847 0.37925,-2.24924 3.56015,-1.71291 3.18091,0.53633 l 0,0 c -0.13878,0.82255 -0.06,0.36925 -0.23954,1.35936 -0.37285,1.51894 -0.95145,2.97186 -1.35117,4.48324 -0.58042,1.51056 -1.16824,3.02277 -2.07141,4.37681 -0.88255,1.21051 -1.72907,2.43511 -2.47828,3.73559 -0.65661,1.01945 -1.54673,1.94139 -1.92311,3.10055 -0.43671,1.3706 -0.28619,2.92189 -1.2169,4.12679 -0.80437,1.28939 -1.50092,2.6558 -2.52327,3.80075 -1.02315,1.15354 -2.02132,2.3476 -2.89887,3.61591 -0.66521,1.10298 -1.16809,2.26985 -1.79535,3.39281 -0.91465,1.15205 -1.95337,2.16504 -3.00723,3.18266 -1.21105,1.42378 -2.60206,2.6505 -3.99327,3.89144 -0.90904,0.87642 -1.81498,1.73848 -2.51726,2.79598 -0.88723,1.17303 -2.02496,2.08828 -3.01244,3.17243 -0.88015,0.92521 -1.77598,1.83219 -2.66731,2.7465 -1.04638,0.94429 -1.98794,2.0098 -2.92737,3.05774 -1.39754,1.53567 -2.54403,3.28406 -3.88905,4.86494 -1.42493,1.78115 -3.94386,-0.234 -2.51894,-2.01515 z"
       inkscape:connector-curvature="0"
       transform="translate(0,66.362183)" />
    <path
       style="fill:#de2d26;fill-opacity:1;stroke:none"
       id="path3026"
       d="m 144.88559,762.08884 c -0.53645,2.0058 -1.21486,3.96952 -1.68362,5.9934 -0.35007,1.61373 -0.42113,3.265 -0.46052,4.9099 0.0284,1.5032 -0.40695,2.95727 -0.60658,4.43806 -0.1669,1.46433 -0.1824,2.93999 -0.19854,4.412 -0.009,1.43668 -0.0936,2.85967 0.1945,4.27137 0.35022,1.49418 0.47868,3.02215 0.55667,4.55061 0.0627,1.61972 0.0595,3.24103 0.0602,4.86169 -0.11665,1.55297 0.0836,3.05358 0.33853,4.57783 0.36641,1.55266 0.20484,3.18282 0.5087,4.73651 0.37364,1.43454 0.56077,2.89969 0.67008,4.37483 0.24059,1.46315 0.56737,2.89963 1.11034,4.28111 0.44274,1.20104 1.06396,2.36813 1.93517,3.31509 0.85667,0.91661 1.61955,1.89622 2.32106,2.93846 0.77969,0.8093 1.19712,1.87817 1.91336,2.73382 0.78219,1.06205 1.40223,2.21925 1.99093,3.3961 0.58996,1.27244 1.10958,2.60177 1.95845,3.72942 0.79586,1.15366 1.59301,2.3015 2.40516,3.44408 0.79709,1.17829 1.54542,2.38051 2.26761,3.60675 0.8101,1.47523 0.97914,3.13871 1.0832,4.78678 0.32538,1.3393 0.56372,2.68919 0.70394,4.06003 0.10309,1.36749 0.51414,2.68397 0.71478,4.04255 0.24803,1.37457 0.73928,2.66248 1.17863,3.97992 0.48999,1.3647 1.12303,2.65401 1.82288,3.91928 0.77563,1.31276 1.50463,2.66861 2.11025,4.06968 0.39849,1.1952 0.87749,2.36001 1.41645,3.49756 0.6769,1.365 0.44734,2.84775 0.33021,4.30245 0.0828,0.79785 0.19461,1.59254 0.32836,2.38333 0.37763,2.24951 -2.80367,2.78356 -3.18129,0.53405 l 0,0 c -0.17529,-1.05097 -0.34516,-2.10859 -0.36247,-3.17632 0.0705,-0.8751 0.3147,-1.83291 -0.03,-2.66248 -0.55711,-1.17618 -1.05756,-2.3819 -1.46976,-3.61622 -0.54261,-1.30685 -1.25393,-2.55035 -1.96454,-3.77082 -0.79591,-1.43923 -1.50783,-2.91253 -2.06174,-4.46473 -0.49343,-1.49652 -1.04252,-2.96799 -1.309,-4.53045 -0.2015,-1.40516 -0.64769,-2.76433 -0.73222,-4.18397 -0.14043,-1.4148 -0.44823,-2.7907 -0.71412,-4.1852 -0.0684,-1.13918 -0.12897,-2.31288 -0.64604,-3.35346 -0.67029,-1.14869 -1.36773,-2.27084 -2.11477,-3.37044 -0.80796,-1.13775 -1.60118,-2.28147 -2.39439,-3.429 -0.90868,-1.29741 -1.60646,-2.71511 -2.22543,-4.17146 -0.48948,-0.98145 -0.99061,-1.95148 -1.63803,-2.83999 -0.73195,-0.95675 -1.27319,-2.03316 -2.06561,-2.94374 -0.61413,-0.93751 -1.29721,-1.79131 -2.06668,-2.60544 -1.07699,-1.27024 -1.96168,-2.69875 -2.51498,-4.27735 -0.637,-1.68238 -1.0697,-3.42068 -1.31687,-5.2041 -0.0988,-1.37228 -0.28594,-2.72975 -0.63213,-4.06409 -0.24909,-1.57421 -0.21081,-3.17957 -0.51104,-4.75034 -0.28385,-1.69701 -0.49471,-3.38234 -0.38274,-5.1086 -6.9e-4,-1.56693 0.003,-3.13447 -0.0561,-4.70054 -0.0684,-1.37197 -0.17953,-2.74352 -0.49879,-4.08391 -0.31896,-1.63547 -0.29315,-3.27467 -0.25628,-4.93625 0.0178,-1.60586 0.0384,-3.21564 0.22795,-4.81241 0.18772,-1.36259 0.58129,-2.70161 0.57792,-4.08032 0.0458,-1.86504 0.13888,-3.736 0.54379,-5.5639 0.49684,-2.1198 1.19283,-4.18173 1.76494,-6.28122 0.72131,-2.16394 3.78158,-1.14385 3.06027,1.02009 z"
       inkscape:connector-curvature="0"
       transform="translate(0,66.362183)" />
    <path
       style="fill:#de2d26;fill-opacity:1;stroke:none"
       id="path3028"
       d="m 132.25651,790.88842 c 2.07199,1.57657 3.62228,3.66935 5.35275,5.5803 1.13818,1.22659 2.19363,2.50257 3.13432,3.88716 0.94965,1.0633 1.58196,2.35892 2.08909,3.67878 0.48877,1.29394 0.7862,2.67183 1.2876,3.95767 0.7847,2.14177 -2.24421,3.2515 -3.02891,1.10973 l 0,0 c -0.45835,-1.29815 -0.81456,-2.63541 -1.27822,-3.93239 -0.40087,-1.10265 -0.95987,-2.13421 -1.7455,-3.01235 -0.84369,-1.26923 -1.82288,-2.4067 -2.85361,-3.52788 -1.62182,-1.80383 -3.0792,-3.77361 -5.02263,-5.26288 -1.75231,-1.46026 0.31281,-3.93839 2.06511,-2.47814 z"
       inkscape:connector-curvature="0"
       transform="translate(0,66.362183)" />
    <path
       style="fill:#de2d26;fill-opacity:1;stroke:none"
       id="path3030"
       d="m 130.57801,787.73591 c 0.765,-1.28425 1.40289,-2.66918 1.93751,-4.06791 0.54175,-1.39955 1.15331,-2.77373 1.66481,-4.18466 0.58668,-1.23424 1.0021,-2.45937 2.00188,-3.42228 0.74902,-0.64205 1.33132,-1.38767 1.8786,-2.2048 0.42363,-1.11993 0.9694,-2.18752 1.4796,-3.27129 0.97458,-2.06231 3.89112,-0.68405 2.91654,1.37826 l 0,0 c -0.58595,1.2359 -1.15643,2.47582 -1.73249,3.7126 -0.70039,1.01199 -1.45348,1.96583 -2.38035,2.7794 -0.57326,0.39529 -0.65331,1.50124 -1.13576,2.14028 -0.52893,1.42576 -1.13331,2.8213 -1.68507,4.23834 -0.66497,1.69732 -1.41815,3.39743 -2.42634,4.9172 -1.42492,1.78116 -3.94385,-0.23399 -2.51893,-2.01514 z"
       inkscape:connector-curvature="0"
       transform="translate(0,66.362183)" />
    <path
       style="fill:#de2d26;fill-opacity:1;stroke:none"
       id="path3032"
       d="m 120.16129,831.74008 c -0.0113,1.60263 -0.10351,3.274 0.65653,4.73131 0.78328,1.34332 1.1797,2.84525 1.73198,4.2859 0.81247,1.17152 1.19777,2.50962 1.43857,3.89606 0.39118,1.25234 0.67401,2.52875 1.04255,3.78729 0.29446,0.58382 0.54356,1.18624 0.78688,1.79253 0.84399,2.1191 -2.15288,3.31268 -2.99687,1.19358 l 0,0 c -0.27688,-0.70195 -0.60039,-1.38081 -0.88582,-2.07957 -0.40424,-1.38048 -0.72807,-2.77783 -1.12803,-4.15979 -0.19143,-1.19934 -0.60903,-2.24706 -1.26934,-3.27541 -0.52326,-1.36497 -0.89201,-2.78767 -1.63506,-4.05937 -0.87463,-1.94423 -1.07091,-3.99045 -0.9672,-6.11253 0,-2.28099 3.22581,-2.28099 3.22581,0 z"
       inkscape:connector-curvature="0"
       transform="translate(0,66.362183)" />
    <path
       style="fill:#de2d26;fill-opacity:1;stroke:none"
       id="path3034"
       d="m 546.63167,771.36475 c 2.10845,-1.16362 4.23442,-2.29354 6.43819,-3.26693 2.11419,-1.00396 4.38263,-1.57874 6.61837,-2.23406 1.40489,-0.45889 2.8765,-0.82066 4.2479,-1.37512 2.13071,-0.81425 3.28224,2.19902 1.15153,3.01327 l 0,0 c -1.47336,0.54423 -2.99242,0.99573 -4.49232,1.45749 -2.10196,0.61576 -4.23768,1.14652 -6.22535,2.09062 -2.15805,0.94724 -4.22965,2.06878 -6.29569,3.19998 -2.04018,1.02009 -3.4828,-1.86516 -1.44263,-2.88525 z"
       inkscape:connector-curvature="0"
       transform="translate(0,66.362183)" />
    <path
       style="fill:#de2d26;fill-opacity:1;stroke:none"
       id="path3036"
       d="m 80.87282,634.3871 c -2.119305,0.10291 -4.094633,-0.48202 -5.767511,-1.76508 -0.837793,-0.96052 -1.768649,-2.32989 -1.220641,-3.68877 0.148856,-0.36912 0.360501,-0.77143 0.711674,-0.95873 0.487293,-0.25989 1.087392,-0.19385 1.631088,-0.29078 1.502676,0.62152 2.746414,1.70214 3.998053,2.71665 1.408459,1.19559 2.691442,2.53972 3.766512,4.04286 0.735584,1.04637 1.155868,2.30715 2.39932,2.82305 2.043096,1.01423 0.608751,3.90361 -1.434345,2.88937 l 0,0 c -1.684607,-0.89444 -2.682493,-2.21387 -3.601837,-3.85425 -0.881057,-1.2775 -1.997775,-2.37887 -3.16252,-3.39638 -0.694694,-0.56469 -1.395516,-1.16372 -2.127758,-1.67757 -0.166077,-0.11655 -0.369134,-0.18039 -0.520577,-0.3154 -0.02956,-0.0264 0.07033,-0.0364 0.105489,-0.0547 0.336827,-0.13458 0.724374,-0.18079 1.010481,-0.40374 0.797133,-0.62117 -0.220466,-1.68232 0.498019,-0.31985 0.932319,0.94712 2.46691,1.03728 3.714553,1.02748 2.280989,0 2.280989,3.22581 0,3.22581 z"
       inkscape:connector-curvature="0"
       transform="translate(0,66.362183)" />
    <path
       style="fill:#de2d26;fill-opacity:1;stroke:none"
       id="path3038"
       d="m 162.30485,714.08839 c -1.2026,1.99772 -2.42499,3.9869 -3.54039,6.03453 -1.09437,2.00132 -3.92466,0.45364 -2.83029,-1.54768 l 0,0 c 1.1314,-2.06198 2.35069,-4.07579 3.5699,-6.0873 1.13169,-1.98046 3.93247,-0.38001 2.80078,1.60045 z"
       inkscape:connector-curvature="0"
       transform="translate(0,66.362183)" />
  </g>
  <path
     style="fill:#de2d26;fill-opacity:1;fill-rule:nonzero;stroke:none"
     id="path3035"
     d="m 81.749338,630.90744 c 1.113354,0.66922 2.179591,1.4223 3.378338,1.93407 1.069292,0.47387 2.105178,1.02564 3.181426,1.48242 1.006682,0.46472 1.970094,1.02437 2.984184,1.47173 0.778922,0.29651 1.547778,0.47169 2.254002,0.94049 0.472463,0.23867 0.863974,0.618 1.300422,0.92071 0.544235,0.40517 1.052775,0.85393 1.54465,1.32032 0.535508,0.70789 0.854822,1.18463 1.386235,1.89529 0.495955,0.70638 0.996155,1.40852 1.441345,2.15092 0.43744,0.6388 0.88635,1.26384 1.29864,1.92003 0.34771,0.67276 0.74602,1.32442 1.15448,1.96546 0.30511,0.50771 0.69925,0.94997 1.10251,1.38061 0.52544,0.63185 0.98385,1.2508 1.44304,1.91669 0.49,0.60948 0.85576,1.28869 1.28654,1.90674 0.64388,0.56754 1.04691,1.36536 1.59311,2.01822 0.62766,0.76678 1.06401,1.69131 1.69237,2.45206 0.42773,0.70667 0.95194,1.321 1.46528,1.9683 0.66141,0.80041 1.29817,1.61788 1.92446,2.44685 0.84564,1.10242 1.67517,2.21674 2.50731,3.33072 0.62417,0.83941 1.36629,1.57862 1.98562,2.41949 0.53106,0.68992 1.13967,1.30954 1.71461,1.96316 0.68721,0.84408 1.40029,1.66517 2.13832,2.46502 0.8044,0.57575 1.5927,1.17198 2.35166,1.80657 0.82339,0.74228 1.68391,1.43577 2.56151,2.11334 1.00568,0.83447 1.81841,1.8587 2.80561,2.70992 0.89494,0.7938 1.86042,1.49103 2.7342,2.3077 0.99607,0.7885 1.99282,1.57466 2.95012,2.41019 0.7755,0.62362 1.52565,1.28237 2.30656,1.90108 0.69066,0.49509 1.24772,1.1488 1.88575,1.70233 0.4645,0.57022 0.97787,1.1222 1.46193,1.64885 0.47254,0.45054 1.00794,0.83495 1.51892,1.24476 0.90253,0.71256 1.66769,1.56839 2.39588,2.45264 0.65823,0.76018 1.42168,1.40933 2.04088,2.20373 0.47934,0.49319 0.74682,1.1531 1.21102,1.64529 0.55095,0.69228 1.07424,1.37921 1.46258,2.18338 0.47112,0.43471 0.72909,1.15509 0.93133,1.7613 -0.0525,0.10661 0.36336,0.64612 0.6579,1.56035 0.13848,0.82895 0.26642,0.66559 0.63031,1.65388 0.13509,0.78598 0.3522,1.50174 0.61408,2.24716 0.33753,0.58403 0.19218,1.44559 0.51822,1.95518 0.34296,0.62502 0.41674,1.34164 0.72575,1.9714 0.35737,1.03631 0.786,2.04681 1.08399,3.10366 0.0957,0.80154 0.45934,1.49257 0.73174,2.23983 0.20586,0.11126 0.42804,2.50825 0.36573,1.61743 0.365,0.52014 0.57004,1.37759 0.68312,2.096 0.0458,0.78998 0.0898,0.53687 0.41571,1.30607 0.1971,0.51446 0.33445,1.4081 0.43433,1.58318 0.85885,1.47329 0.75846,0.0552 -2.58938,2.77088 0.0389,0.0404 0.0778,0.0809 0.11674,0.12132 0,0 1.84392,-3.19952 1.84392,-3.19952 l 0,0 c 0.18417,0.12415 0.36834,0.2483 0.5525,0.37246 -2.67797,2.6474 -2.15345,3.50372 -3.24015,1.55928 -0.27756,-0.59241 -0.43028,-1.20124 -0.54665,-1.83606 -0.21146,-0.71065 -0.70475,-1.36014 -0.64207,-2.15066 -0.0523,-0.47556 -0.20941,-0.87195 -0.46936,-1.28334 -0.16131,-0.57025 -0.24552,-1.13066 -0.39584,-1.6975 -0.30092,-0.83445 -0.69999,-1.63507 -0.82215,-2.52441 -0.22296,-0.8576 -0.61328,-1.65831 -0.86379,-2.50679 -0.29089,-0.63193 -0.45073,-1.29042 -0.70661,-1.93132 -0.34808,-0.76323 -0.46726,-1.55336 -0.6834,-2.3533 -0.25814,-0.7518 -0.51977,-1.49346 -0.62664,-2.28386 -0.10172,-0.59136 -0.65126,-1.08798 -0.6539,-1.7265 -0.16859,-0.57124 -0.55272,-1.04838 -0.68156,-1.63885 -0.12544,-0.40926 -0.54362,-0.8839 -0.77187,-1.31809 -0.20584,-0.40544 -0.54301,-0.84861 -0.8458,-1.21179 -0.50466,-0.58764 -0.86959,-1.25028 -1.37316,-1.84275 -0.57207,-0.77815 -1.385,-1.35382 -1.9768,-2.12234 -0.54764,-0.69492 -1.14842,-1.33956 -1.83753,-1.89695 -0.57545,-0.46186 -1.13585,-0.91911 -1.67125,-1.3739 -0.54417,-0.52862 -1.0553,-1.10166 -1.5193,-1.70131 -0.54706,-0.52564 -1.07951,-1.07185 -1.68971,-1.53175 -0.80611,-0.6619 -1.60313,-1.3321 -2.41249,-1.99024 -0.99009,-0.86719 -2.03643,-1.66372 -3.05088,-2.5016 -0.83076,-0.78985 -1.77823,-1.4354 -2.62535,-2.20923 -0.9295,-0.81262 -1.72798,-1.74453 -2.64003,-2.57424 -0.91652,-0.70769 -1.81473,-1.43599 -2.67819,-2.20727 -0.87685,-0.73882 -1.83431,-1.37121 -2.69261,-2.13186 -0.76404,-0.82864 -1.50492,-1.6772 -2.21597,-2.55194 -0.63996,-0.76059 -1.35514,-1.4563 -1.94587,-2.25957 -0.50282,-0.85686 -1.41736,-1.46241 -1.92078,-2.32991 -0.82807,-1.10857 -1.64959,-2.22076 -2.49523,-3.31464 -0.61054,-0.80813 -1.22586,-1.60777 -1.87568,-2.3837 -0.5256,-0.66732 -1.07459,-1.3193 -1.52186,-2.04181 -0.56259,-0.7784 -1.07742,-1.59101 -1.63381,-2.37606 -0.57258,-0.74309 -1.07621,-1.5405 -1.73785,-2.21405 -0.43485,-0.64268 -0.8106,-1.30683 -1.29251,-1.91542 -0.34753,-0.51222 -0.70314,-1.0229 -1.0993,-1.48742 -0.56815,-0.61274 -1.11601,-1.2478 -1.54791,-1.96662 -0.38616,-0.64216 -0.784937,-1.28245 -1.13741,-1.93789 -0.422149,-0.67935 -0.890999,-1.31955 -1.336799,-1.98242 -0.381633,-0.64008 -0.804657,-1.25156 -1.241605,-1.85121 -0.261071,-0.35582 -0.897492,-1.15833 -0.959129,-1.41227 -0.35723,-0.33951 -0.725082,-0.66659 -1.114379,-0.96944 -0.907784,-0.63527 -0.539296,-0.52187 -1.37361,-0.97308 0.929446,0.1497 -1.501745,-0.33982 -1.592406,-0.5535 -0.989424,-0.45553 -1.9502,-0.97138 -2.929848,-1.44765 -1.077907,-0.47408 -2.130763,-1.00363 -3.20266,-1.4917 -1.44391,-0.65001 -2.775437,-1.50055 -4.103497,-2.35846 0,0 2.215701,-2.95427 2.215701,-2.95427 z"
     inkscape:connector-curvature="0" />
  <path
     style="fill:#fee0d2;fill-opacity:1;fill-rule:nonzero;stroke:none"
     id="path3037"
     d="m 158.33113,717.72804 c 0.46959,-1.32045 0.84193,-2.68198 1.38543,-3.97332 0.25799,-0.82717 0.82205,-1.50739 1.18773,-2.27412 0.26671,-0.76135 0.64798,-1.47458 0.83387,-2.26565 0.37602,-0.87576 0.75163,-1.74579 1.16692,-2.60415 0.27888,-0.74572 0.60786,-1.45859 0.98892,-2.16078 0.15051,-0.64219 0.56635,-1.17391 0.7311,-1.80868 0.13626,-0.80657 0.38768,-1.56982 0.69773,-2.32596 0.31368,-0.92963 0.76035,-1.80982 1.14626,-2.71152 0.37117,-1.298 1.05555,-2.46342 1.57573,-3.69875 0.56834,-1.24512 1.0943,-2.50561 1.71808,-3.72498 0.71508,-1.52129 1.46358,-3.02804 2.14515,-4.56526 0.73863,-1.64413 1.47608,-3.26027 2.45418,-4.77545 0.81578,-1.13274 1.79429,-2.11797 2.72594,-3.15108 1.05016,-1.26161 2.35063,-2.26116 3.47969,-3.4453 1.02849,-0.89796 1.92323,-1.93294 2.91641,-2.8648 0.45622,-0.67133 1.22091,-1.10428 1.63016,-1.7987 0.46875,-0.52123 0.89073,-1.04617 1.19863,-1.67538 0.39816,-0.65861 0.88864,-1.24218 1.31936,-1.87692 0.61078,-0.9301 1.41781,-1.75182 1.91522,-2.75198 0.62259,-0.96989 1.21863,-1.95277 1.79118,-2.95212 0.75147,-1.34942 1.81696,-2.43356 2.88767,-3.52309 0.73103,-0.70104 1.32078,-1.51766 2.01067,-2.25591 0,0 2.69149,2.52842 2.69149,2.52842 l 0,0 c -0.71404,0.75472 -1.30952,1.60878 -2.0724,2.32006 -0.85086,0.86076 -1.71687,1.69661 -2.31446,2.76846 -0.55793,0.97057 -1.12732,1.93299 -1.74416,2.86763 -0.608,1.08666 -1.37334,2.06968 -2.10968,3.07235 -0.33884,0.49914 -0.68317,0.99169 -1.07118,1.45311 -0.40102,0.79418 -0.88951,1.53051 -1.50234,2.17875 -0.64901,0.85481 -1.43873,1.56538 -2.14356,2.3755 -0.96822,0.82379 -1.73462,1.88932 -2.73416,2.68692 -1.1086,1.15626 -2.36681,2.14488 -3.4067,3.36674 -0.80056,0.88693 -1.64271,1.7259 -2.36531,2.68027 -0.87505,1.35531 -1.51802,2.80929 -2.18542,4.27979 -0.7183,1.59573 -1.48446,3.16926 -2.23408,4.75017 -0.5925,1.13757 -1.06609,2.32568 -1.60629,3.48784 -0.5353,1.2332 -1.19427,2.40808 -1.57852,3.70527 -0.38158,0.88055 -0.81795,1.7409 -1.12119,2.65189 -0.27797,0.67681 -0.43719,1.21742 -0.58422,2.00893 -0.27978,0.85823 -0.70355,1.63967 -1.01532,2.48522 -0.36403,0.67073 -0.61888,1.22521 -0.91198,2.01097 -0.30883,0.63534 -0.54691,1.29792 -0.91136,1.90566 -0.28606,1.07679 -0.73283,2.08448 -1.16381,3.10924 -0.37609,0.66791 -0.80878,1.29362 -1.0653,2.02595 -0.52235,0.98773 -0.62891,2.18582 -1.13495,3.18899 0,0 -3.62113,-0.72423 -3.62113,-0.72423 z"
     inkscape:connector-curvature="0" />
  <path
     style="fill:#fee0d2;fill-opacity:1;fill-rule:nonzero;stroke:none"
     id="path3039"
     d="m 193.5539,965.96774 c 0.88465,-1.44776 1.95652,-2.77501 3.02097,-4.094 1.25646,-1.4247 2.47049,-2.88846 3.7932,-4.25247 1.14357,-1.19535 2.25864,-2.42188 3.35043,-3.66675 1.13193,-1.27967 2.30753,-2.51104 3.37298,-3.84718 1.21697,-1.67036 2.89439,-2.8786 4.50218,-4.13811 1.87178,-1.4168 3.68039,-2.8932 5.36515,-4.5299 1.93576,-1.83043 3.82312,-3.73439 5.53887,-5.77485 0.89937,-1.24243 1.941,-2.37899 2.8467,-3.61439 1.01462,-1.79207 2.36277,-3.34586 3.61118,-4.97103 1.0704,-1.35019 2.03304,-2.80217 3.28024,-3.99822 0.94673,-0.76547 2.12221,-1.17149 3.28365,-1.48621 1.24841,-0.17879 2.47904,-0.34759 3.71255,-0.61877 0.92305,-0.1997 1.85441,-0.34441 2.79547,-0.41995 0.10872,0.0105 0.85866,-0.0836 0.11051,0.0166 0,0 0.82825,3.59875 0.82825,3.59875 l 0,0 c -0.2169,0.031 -0.42811,0.0625 -0.64706,0.0659 -0.77304,0.0602 -1.53672,0.18276 -2.29509,0.34554 -1.18236,0.25938 -2.3649,0.46409 -3.56844,0.58407 -0.59536,0.14664 -1.22861,0.36189 -1.72812,0.63952 -1.17412,0.92481 -1.81573,2.46152 -2.84534,3.52482 -1.23942,1.60809 -2.56285,3.15197 -3.57486,4.92303 -0.96661,1.28617 -2.02752,2.50151 -2.98867,3.79338 -1.80454,2.12772 -3.76086,4.13449 -5.79198,6.04565 -1.78283,1.71905 -3.67945,3.29193 -5.65575,4.78309 -1.38197,1.08252 -2.84906,2.09566 -3.89306,3.53448 -1.10249,1.38048 -2.30944,2.66075 -3.48381,3.97957 -1.13381,1.29115 -2.29383,2.56119 -3.4778,3.80466 -1.24735,1.2801 -2.38094,2.66444 -3.56878,3.99933 -1.03901,1.2847 -2.07566,2.57837 -2.9393,3.9891 0,0 -2.95427,-2.21571 -2.95427,-2.21571 z"
     inkscape:connector-curvature="0" />
  <path
     style="fill:#fee0d2;fill-opacity:1;fill-rule:nonzero;stroke:none"
     id="path3041"
     d="m 0.0493349,817.48397 c 1.2194609,1.24689 2.4828016,2.45008 3.7313265,3.6677 1.3552002,1.50316 2.6409403,3.06538 4.0037587,4.56222 1.4882049,1.60345 3.2377609,2.92729 4.7861369,4.4708 1.57879,1.66876 3.134429,3.35499 4.562466,5.15493 1.13464,1.37162 2.110437,2.86119 3.017927,4.38896 0.66884,1.20574 1.200605,2.46979 1.740882,3.7347 0.675546,1.63517 1.227731,3.31616 1.744218,5.00704 0.454607,1.8862 1.129275,3.70753 1.653401,5.57391 0.551836,1.92598 1.128787,3.84724 1.588862,5.79768 0.533655,1.8034 1.115378,3.58747 1.651541,5.39086 0.586731,2.35463 1.320024,4.66578 2.073178,6.97127 0.628591,2.03747 1.293462,4.0714 2.077459,6.05517 0.723987,1.75433 1.38541,3.53691 2.154592,5.27283 0.649094,1.48807 1.362882,2.93983 1.861679,4.488 0.271968,0.81781 0.37204,1.67259 0.398274,2.5295 0.0069,0.51281 -0.0031,1.02567 -0.0076,1.53846 0.03253,0.86787 -0.421224,1.56652 -1.072064,2.07274 -0.01468,0.0114 0.213673,-0.18657 0.301262,-0.26304 0.325774,-2.06633 0.551748,0.73653 0.614098,1.16961 0.04866,0.35242 0.09017,0.70576 0.126881,1.0596 0,0 -3.673266,0.37967 -3.673266,0.37967 l 0,0 c -0.03147,-0.30584 -0.06752,-0.61119 -0.109163,-0.91582 -0.169081,-1.18837 -0.582894,-2.27323 -0.190865,-3.47889 0.343039,-0.57466 0.108004,-0.23401 0.704153,-0.89696 0.03562,-0.0396 -0.07894,0.0728 -0.109437,0.11644 -0.30684,0.43935 -0.105498,0.24667 -0.286066,0.94224 -0.01826,0.0703 0.0012,-0.14533 0.0018,-0.218 0.0041,-0.46717 0.01267,-0.93436 0.009,-1.40155 -0.01272,-0.51083 -0.05683,-1.02233 -0.224352,-1.50942 -0.451392,-1.42608 -1.141835,-2.74798 -1.723234,-4.12279 -0.783589,-1.78483 -1.472284,-3.61006 -2.21273,-5.41236 -0.802821,-2.05406 -1.505623,-4.15029 -2.150624,-6.25875 -0.763384,-2.33703 -1.507257,-4.6799 -2.102849,-7.06643 -0.555657,-1.87222 -1.167261,-3.72225 -1.706786,-5.59887 -0.443245,-1.90093 -1.015815,-3.76985 -1.550033,-5.6466 -0.512467,-1.84118 -1.187974,-3.6342 -1.630492,-5.49537 -0.472732,-1.56718 -0.98989,-3.1216 -1.610053,-4.63734 -0.470858,-1.11504 -0.938146,-2.22514 -1.516552,-3.29165 -0.822957,-1.38551 -1.703308,-2.73943 -2.736601,-3.98054 -1.340134,-1.69136 -2.804847,-3.27124 -4.284044,-4.84201 -1.576389,-1.59338 -3.4038044,-2.91883 -4.9019995,-4.59242 -1.3129351,-1.44314 -2.5637984,-2.93855 -3.8509759,-4.40408 -1.3838438,-1.3496 -2.8043018,-2.66709 -4.1072879,-4.09574 0,0 2.9542682,-2.2157 2.9542682,-2.2157 z"
     inkscape:connector-curvature="0" />
  <path
     style="fill:#de2d26;fill-opacity:1;fill-rule:nonzero;stroke:none"
     id="path3043"
     d="m 35.219615,893.83731 c 1.162974,0.69888 2.310693,1.42336 3.401566,2.23096 0.696043,0.41809 1.163634,1.067 1.73953,1.61142 0.792824,1.02977 0.583134,0.67754 1.145125,1.50922 -0.158609,-0.0666 1.060417,1.48237 0.618217,1.39048 -0.132131,-0.0275 -0.206543,-0.27644 -0.126035,-0.38475 0.07102,-0.0956 0.123242,0.20373 0.184864,0.3056 0.367495,0.72852 0.669548,1.49167 0.970695,2.25208 0.236814,0.95476 0.481574,1.87992 0.795614,2.81088 0.447425,0.93382 0.216323,2.06138 0.540425,3.00644 0.372427,1.00004 0.52288,2.05805 0.629949,3.11388 -0.02699,0.95379 0.133503,1.82975 0.368333,2.74206 0.297289,1.23036 0.38156,2.49721 0.432552,3.75775 0.06423,0.85788 -0.08571,1.72564 0.17121,2.55053 0.282091,0.87481 0.445053,1.77391 0.535822,2.68657 0.06318,0.82497 0.06041,1.65288 0.06102,2.47967 -0.09906,0.87097 0.07927,1.65878 0.279498,2.49437 0.331901,0.89261 0.226992,1.8862 0.47688,2.78712 0.253922,0.85611 0.478189,1.7198 0.615915,2.60238 0.09244,0.61372 0.101551,1.23558 0.105199,1.85492 0.02107,0.29669 -0.04249,1.37831 0.02579,0.68218 0.415021,0.65329 0.635651,1.61532 0.132822,2.31125 -0.518969,0.71827 -1.592922,1.04807 -0.95424,0.84137 -0.14556,0.0804 -0.29112,0.16087 -0.43668,0.2413 0,0 -1.727094,-3.26407 -1.727094,-3.26407 l 0,0 c 0.04078,-0.0182 0.08156,-0.0363 0.122344,-0.0545 1.16068,-0.67023 0.103201,-0.11881 -0.236267,0.44939 -0.496294,0.8307 0.572227,2.51772 -0.232657,1.06785 -0.323437,-0.72828 -0.442647,-1.46449 -0.386789,-2.25399 -0.0023,-0.43909 -0.0019,-0.8807 -0.06265,-1.31638 -0.121045,-0.81192 -0.364331,-1.59682 -0.576679,-2.38856 -0.172038,-0.89802 -0.212839,-1.81425 -0.457061,-2.69975 -0.265223,-1.10685 -0.472138,-2.20762 -0.381156,-3.35227 -4.77e-4,-0.70813 0.003,-1.41708 -0.04361,-2.12406 -0.06621,-0.69877 -0.194814,-1.38261 -0.416922,-2.05071 -0.298009,-1.12256 -0.310147,-2.24296 -0.304624,-3.39823 -0.03874,-0.99952 -0.09511,-2.00563 -0.318908,-2.9837 -0.280095,-1.08843 -0.482719,-2.17016 -0.466998,-3.29952 -0.0859,-0.90216 -0.235403,-1.78888 -0.552367,-2.64262 -0.179781,-0.88694 -0.201534,-1.79148 -0.444356,-2.66682 -0.288373,-0.86709 -0.567312,-1.72681 -0.72856,-2.62718 -0.226526,-0.57429 -0.453849,-1.15957 -0.704564,-1.71225 -0.426915,-0.72547 -0.36818,-0.85917 -0.578202,-1.15528 -0.385176,-0.58601 -0.52923,-0.8503 -0.660373,-0.92498 -0.622007,-0.6193 -0.540012,-0.71327 -1.360929,-1.28752 -1.089142,-0.81788 -2.265495,-1.50501 -3.411346,-2.23826 0,0 2.215701,-2.95427 2.215701,-2.95427 z"
     inkscape:connector-curvature="0" />
  <path
     style="fill:#de2d26;fill-opacity:1;fill-rule:nonzero;stroke:none"
     id="path3045"
     d="m 75.796173,992.15135 c 0.661949,-1.7179 1.213215,-3.46341 1.574043,-5.26898 0.254335,-1.6073 0.678264,-3.1764 0.893206,-4.79113 0.06901,-1.29477 0.267028,-2.55143 0.568385,-3.81119 0.217843,-0.96121 0.286221,-1.94463 0.329222,-2.92631 0.02864,-0.92898 0.02548,-1.85856 0.02413,-2.78787 -0.002,-0.77086 -0.0035,-1.54172 -0.0043,-2.31259 -6.73e-4,-0.77841 -6.49e-4,-1.55683 -6.76e-4,-2.33525 -0.08529,-1.04465 0.100963,-2.03258 0.431337,-3.01938 0.210953,-0.70176 0.248824,-1.43669 0.285265,-2.16376 -0.01,-1.12047 0.02632,-2.20727 0.294639,-3.29958 0.252979,-0.85963 0.359331,-1.74552 0.423813,-2.63572 -0.02677,-0.87542 0.190879,-1.69206 0.522039,-2.49567 0.288713,-0.76673 0.654569,-1.47073 0.809643,-2.27997 0.213686,-0.88757 0.686489,-1.70285 0.826177,-2.60747 0.05237,-0.94892 0.368914,-1.84609 0.616712,-2.75582 0.128757,-0.99087 0.461563,-1.93393 0.725743,-2.89379 0.104776,-0.48498 0.188075,-0.97515 0.239104,-1.46882 -0.04829,-0.81686 1.072044,1.23662 1.615336,1.84852 0,0 0.10917,-3.69122 0.10917,-3.69122 l 0,0 c 1.632261,1.51437 2.068283,1.04057 1.947842,2.23116 -0.07441,0.69352 -0.189059,1.38304 -0.351363,2.06159 -0.264663,0.95903 -0.592282,1.89396 -0.723073,2.88405 -0.222753,0.81611 -0.515515,1.59863 -0.54755,2.4523 -0.18301,0.92895 -0.49719,1.81498 -0.843489,2.69556 -0.225344,1.02894 -0.618909,1.96679 -1.011938,2.93569 -0.06776,0.16294 -0.02504,0.51517 -0.199733,0.49026 -0.08031,-0.0115 0.0067,-0.32406 -0.0015,-0.24335 -0.03723,0.36648 0.0013,0.74188 -0.0502,1.10792 -0.08249,1.10713 -0.222498,2.20909 -0.529003,3.27974 -0.231651,0.84284 -0.144272,1.70166 -0.184298,2.57287 -0.05518,1.06474 -0.142904,2.13499 -0.474168,3.15581 -0.21697,0.63668 -0.31613,1.09608 -0.237633,1.83896 2.7e-5,0.77722 3e-6,1.55445 6.74e-4,2.33168 7.7e-4,0.77032 0.0023,1.54064 0.0043,2.31096 0.0014,0.98565 0.0045,1.97161 -0.02776,2.95687 -0.05455,1.2159 -0.151472,2.43273 -0.426927,3.62178 -0.273093,1.14159 -0.43928,2.26959 -0.500232,3.44597 -0.231258,1.69402 -0.655967,3.34408 -0.933276,5.02908 -0.412884,2.02221 -1.017179,3.98451 -1.764915,5.90859 0,0 -3.428712,-1.37149 -3.428712,-1.37149 z"
     inkscape:connector-curvature="0" />
  <path
     style="fill:#fc9272;fill-opacity:1;fill-rule:nonzero;stroke:none"
     id="path3049"
     d="m 119.18708,949.6381 c 0.26456,-1.41174 0.44021,-2.82429 0.80088,-4.21652 0.28675,-1.04629 0.4557,-2.10218 0.83862,-3.11982 0.25268,-0.93811 0.5605,-1.85966 0.80841,-2.79951 0.27313,-1.34372 0.68428,-2.64846 0.92924,-4.00029 0.14523,-0.74168 0.18247,-1.49645 0.19632,-2.25004 0.007,-0.88496 0.001,-1.76997 -10e-4,-2.65495 -0.002,-0.87039 -0.003,-1.74079 -0.004,-2.61119 0.005,-0.61607 0.0107,-1.37542 -0.0431,-1.88985 -0.2839,-0.7999 -0.47344,-1.62121 -0.59431,-2.4602 -0.0878,-0.74239 -0.10188,-1.48994 -0.10615,-2.23654 -10e-4,-0.63234 0.002,-1.26469 0.003,-1.89703 0.0505,-0.8214 5.1e-4,-0.79779 -0.22406,-1.4183 -0.25957,-0.7581 -0.40315,-1.5415 -0.48022,-2.33675 -0.18822,-0.91469 0.25593,-1.70749 0.52624,-2.53738 0.14174,-0.42303 0.14883,-0.87893 0.17177,-1.32119 -0.0269,-0.79728 0.39439,-1.48348 0.6778,-2.19829 0.27029,-0.72144 0.79147,-1.30316 1.30608,-1.85939 0.18165,-0.0572 0.25341,-0.46834 0.22763,-0.42223 -0.005,-0.56979 0.0731,-1.09089 0.18757,-1.65501 0.20056,-0.53863 0.40588,-1.0629 0.51892,-1.62631 0.0415,-0.38511 0.046,-0.77211 0.0491,-1.15898 3.6e-4,-0.59219 -0.002,-1.18437 -0.003,-1.77656 -0.10443,-0.85896 0.2677,-1.61516 0.58539,-2.38144 -0.23104,1.08603 -0.39585,-0.52078 -0.43702,-0.75032 -0.11938,-0.75236 -0.13508,-1.51559 -0.14878,-2.27566 -0.007,-0.73234 -0.004,-1.46473 -0.003,-2.19709 -0.11202,-0.86386 0.19258,-1.83313 -0.0602,-2.67159 -0.24634,-0.89885 -0.4514,-1.80348 -0.57696,-2.72725 -0.1048,-0.99435 -0.10097,-1.99593 -0.10437,-2.99454 -0.001,-0.82681 0.002,-1.65361 0.003,-2.48042 0.001,-0.72755 0.001,-1.45511 0.002,-2.18267 1e-4,-0.94433 6e-5,-1.88866 5e-5,-2.83299 -1e-5,-0.89437 -2e-5,-1.78874 -2e-5,-2.6831 0,-0.85821 0,-1.71641 0,-2.57462 0,-1.03729 0,-2.07457 0,-3.11186 -0.24329,-0.22727 -0.40512,-0.76486 -0.52371,-1.13827 -0.23087,-0.92919 -0.21014,-1.89237 -0.21787,-2.8427 0.0972,-1.21886 -0.20095,-2.39434 -0.41504,-3.58368 -0.17325,-0.94445 -0.21691,-1.95542 -0.34181,-2.87532 -0.28858,-0.5909 -0.47891,-1.23167 -0.60579,-1.87561 0.005,-0.7922 -0.27988,-1.49786 -0.4931,-2.24723 -0.21233,-0.70735 -0.30564,-1.43805 -0.34637,-2.17294 -0.0216,-0.59716 -0.0164,-1.19492 -0.0146,-1.79237 0.002,-0.40448 0.003,-0.80897 0.004,-1.21346 1.6e-4,-0.0857 2.6e-4,-0.17151 3.7e-4,-0.25727 0,0 3.69283,0.004 3.69283,0.004 l 0,0 c -1.1e-4,0.0865 -2.1e-4,0.17299 -3.7e-4,0.25949 -7.2e-4,0.40618 -0.002,0.81236 -0.004,1.21854 -0.002,0.53142 -0.006,1.06308 0.01,1.59433 0.0193,0.46192 0.0777,0.91876 0.21394,1.36233 0.23084,0.84185 0.56741,1.6687 0.56558,2.55626 0.0998,0.57465 0.37639,1.09668 0.55575,1.65041 0.21343,1.03624 0.22032,2.09087 0.39828,3.13534 0.24978,1.39242 0.5682,2.78173 0.47314,4.20736 0.005,0.59685 0.003,1.19608 0.056,1.79039 0.20252,0.73775 0.73126,1.39807 0.68572,2.22008 0,1.03729 0,2.07457 0,3.11186 0,0.8582 0,1.7164 1e-5,2.5746 0,0.89436 1e-5,1.78872 2e-5,2.68307 1e-5,0.9446 5e-5,1.8892 -5e-5,2.8338 -1.5e-4,0.72967 -3.6e-4,1.45935 -0.002,2.18902 -0.002,0.8203 -0.004,1.6406 -0.003,2.46091 0.003,0.83892 -0.002,1.67989 0.0717,2.51631 0.11592,0.88117 0.34916,1.73318 0.55699,2.59619 0.15167,1.09601 0.11968,2.19238 0.11295,3.29789 -8.9e-4,0.70889 -0.004,1.41781 0.002,2.12668 0.0101,0.57553 0.0157,1.15397 0.0975,1.72472 0.13941,0.94858 0.57463,1.80129 0.20473,2.7876 -0.63506,1.51796 -0.17621,-0.4616 -0.30125,0.95337 0.001,0.60474 0.004,1.20948 0.003,1.81423 -0.005,0.62554 -0.0182,1.25299 -0.12432,1.87128 -0.13944,0.66986 -0.34075,1.31707 -0.60079,1.95005 -0.0309,-0.81897 0.006,1.20321 -0.0983,1.29406 -0.20071,0.82521 -0.52403,1.6202 -1.14533,2.22863 -0.28039,0.30111 -0.52535,0.52997 -0.58183,0.71244 -0.12315,0.30891 -0.23923,0.62996 -0.39422,0.92451 -0.005,0.009 -0.008,-0.0195 -0.0115,-0.0292 -0.002,-0.0745 -0.003,-0.14902 -0.005,-0.22352 -0.014,0.11856 -0.007,0.23865 -0.0106,0.35798 -0.0445,0.82152 -0.11075,1.65146 -0.40419,2.42838 -0.15576,0.39516 -0.11498,0.33413 -0.24803,0.58591 -0.0164,0.031 -0.0339,0.12265 -0.0508,0.092 -0.0363,-0.0654 0.0494,-0.24562 -0.022,-0.22338 -0.004,10e-4 0.015,0.4134 0.0158,0.43044 0.0451,0.48896 0.12364,0.96861 0.2791,1.43679 0.31077,0.86922 0.5252,1.74609 0.4417,2.67602 -0.001,0.6227 -0.004,1.24541 -0.003,1.86812 0.003,0.58055 0.0108,1.16162 0.0698,1.73977 0.10208,0.74195 0.31005,1.45091 0.53986,2.1633 0.15075,0.89933 0.15558,1.79019 0.13397,2.70173 4.8e-4,0.86767 0.001,1.73534 0.004,2.603 0.003,0.91228 0.009,1.82459 4e-4,2.73685 -0.0193,0.95157 -0.0743,1.90387 -0.25547,2.84047 -0.26569,1.45065 -0.69749,2.85241 -0.99516,4.29369 -0.28632,1.05672 -0.61719,2.09761 -0.92092,3.14901 -0.33626,0.88581 -0.43684,1.83062 -0.71897,2.74329 -0.34473,1.32297 -0.48632,2.67168 -0.75397,4.01226 0,0 -3.62112,-0.72422 -3.62112,-0.72422 z"
     inkscape:connector-curvature="0" />
  <path
     style="fill:#fc9272;fill-opacity:1;fill-rule:nonzero;stroke:none"
     id="path3051"
     d="m 182.8884,984.02712 c 0.78379,-1.82553 1.73197,-3.56758 2.72059,-5.28863 0.98583,-1.3564 1.93628,-2.73314 2.87166,-4.12442 0.52672,-1.01142 1.26519,-1.88159 1.91721,-2.81002 0.50919,-0.75164 1.04134,-1.51929 1.44685,-2.33421 0.40071,-0.81277 0.91983,-1.57681 1.52,-2.2527 0.0887,-0.15689 0.2796,-0.27199 0.34912,-0.43935 0.20171,-0.48555 -0.17146,0.40552 -0.0652,-0.0492 0.46625,-0.8185 0.66233,-1.17167 1.02049,-1.79174 -0.47644,0.96048 1.18257,-1.89043 0.71342,-0.80712 -0.6475,1.49511 -0.94896,1.18322 0.19639,2.55962 1.77421,1.07804 3.36307,-2.26253 1.9816,0.16963 -0.38031,0.54139 -0.71828,1.11386 -1.07671,1.67313 -0.78152,1.01018 -1.21161,2.22289 -1.82237,3.33384 -0.48571,0.92897 -0.96891,1.85404 -1.45378,2.78387 -0.60764,0.87916 -0.85605,1.92106 -1.18382,2.92436 -0.17967,1.0645 -0.75099,1.96883 -1.167,2.93763 -0.13671,0.49307 -0.63395,1.08734 -0.76488,1.34641 -0.33537,0.50504 -0.66969,0.99659 -0.76974,1.60119 -0.31007,0.78196 -0.64448,1.56428 -1.03949,2.30892 -0.36647,0.45503 -0.51043,0.93669 -0.76613,1.458 -0.24577,0.34647 -0.39172,0.73246 -0.46092,1.146 -0.0737,0.48872 -0.35518,1.72174 -0.97373,1.78549 -0.21107,0.0217 0.42878,-0.25713 0.43008,-0.46932 0.005,-0.79322 -0.2752,-1.56242 -0.41281,-2.34363 -1.67998,-1.08062 -1.24981,1.02216 -0.70586,3.39754 0.0573,0.25022 0.46203,-0.22386 0.69304,-0.33579 0,0 -2.72033,-2.49736 -2.72033,-2.49736 l 0,0 c 0.35139,-0.24306 0.84147,-1.09972 1.05417,-0.72917 2.20258,3.83714 1.06066,4.04705 -0.49191,3.15213 -0.2048,-0.83004 -0.58517,-1.63568 -0.61439,-2.49012 -0.009,-0.26334 0.34028,-0.40242 0.50853,-0.6052 0.0772,-0.093 -0.1837,0.16659 -0.2353,0.27589 -0.10858,0.23003 -0.13737,0.49136 -0.23731,0.72529 -0.0717,0.16772 0.1623,-0.80929 0.0754,-0.54197 0.15244,-0.78287 0.40283,-1.55229 0.84259,-2.22558 0.2187,-0.49386 0.44588,-1.07959 0.80915,-1.53538 0.20058,-0.41204 0.35312,-0.90504 0.63857,-1.26903 0.19928,-0.83612 0.49404,-1.70418 1.02092,-2.34998 0.88195,-1.69381 0.23301,0.0784 0.78417,-1.38773 0.40208,-0.81788 0.83859,-1.58271 0.99367,-2.50337 0.39077,-1.19102 0.71275,-2.43275 1.41976,-3.48429 0.5035,-0.96339 1.00477,-1.92026 1.50822,-2.88434 0.67323,-1.15443 1.07765,-2.46746 1.93263,-3.51732 0.46522,-0.72546 0.90024,-1.47086 1.43722,-2.14663 -0.10495,0.2325 -0.18578,0.47748 -0.31486,0.6975 -0.13386,0.22818 0.0576,-0.57572 0.25543,-0.75142 1.26371,-1.12268 1.50082,-1.28641 2.80626,-0.76628 0.25228,0.27678 0.58407,0.49807 0.75684,0.83035 0.45384,0.87286 0.13153,1.9501 -0.57235,2.58 0.11316,-0.51106 -1.09309,2.27569 -0.53617,0.73217 -0.24312,0.83932 -0.65961,1.56772 -1.29405,2.17472 0.34733,-0.63782 -0.77915,1.17793 -0.80183,1.30232 -0.51027,0.94179 -1.08037,1.86221 -1.69432,2.73845 -0.63953,0.90605 -1.35894,1.75345 -1.87189,2.74417 -0.88731,1.31976 -1.77428,2.6377 -2.73541,3.90562 -0.90419,1.56875 -1.77186,3.15593 -2.49273,4.8185 0,0 -3.42871,-1.37148 -3.42871,-1.37148 z"
     inkscape:connector-curvature="0" />
  <path
     style="fill:#fc9272;fill-opacity:1;stroke:none"
     id="path3002"
     d="m 235.49664,924.43492 c 1.30908,-0.81409 2.60634,-1.67519 4.01453,-2.31461 0.92734,-0.42108 2.06627,-0.60857 2.94779,-1.12263 -0.14901,0.0806 -0.29802,0.16115 -0.44704,0.24173 2.3869,-2.52195 5.95347,0.85363 3.56658,3.37558 l 0,0 c -0.32547,0.26702 -0.65094,0.53404 -0.97641,0.80106 -2.34343,1.06548 -4.84557,1.76096 -6.90932,3.41113 -3.1058,1.5529 -5.30193,-2.83936 -2.19613,-4.39226 z"
     inkscape:connector-curvature="0" />
  <path
     style="fill:#fc9272;fill-opacity:1;stroke:none"
     id="path3004"
     d="m 239.62236,923.37348 c 2.15483,-2.56215 4.64744,-4.81447 7.21019,-6.95814 1.71342,-1.66745 3.65715,-3.06916 5.60422,-4.44584 1.53955,-1.13867 2.99822,-2.43367 4.2938,-3.8483 1.24455,-1.26805 2.5773,-2.46073 3.76068,-3.78755 1.67863,-1.64749 3.55501,-3.06985 5.31899,-4.61769 1.63521,-1.17347 2.76382,-2.82137 4.23461,-4.14668 1.12755,-1.24889 2.77254,-1.79636 4.05139,-2.8453 1.57985,-1.17593 3.04892,-2.49692 4.64616,-3.65809 1.38818,-1.22787 2.62948,-2.65254 3.79151,-4.09991 1.22129,-1.92353 2.77404,-3.50576 4.40405,-5.0795 1.60355,-1.7613 3.49062,-3.22528 5.17712,-4.89834 1.54377,-1.34576 2.88687,-2.87555 4.57164,-4.0495 1.9462,-0.82135 3.91157,-1.57956 5.85023,-2.43493 1.5628,-0.79102 2.85276,-1.94021 4.18988,-3.04533 1.24366,-1.17307 2.41147,-2.42252 3.65799,-3.59323 1.30261,-1.43777 2.70122,-2.76604 4.28036,-3.89691 1.55283,-1.24452 3.66569,-1.88104 4.92709,-3.4679 1.46952,-1.63968 3.16903,-3.04749 4.89625,-4.40518 1.84973,-1.3561 3.69199,-2.69377 5.57142,-4.00976 2.11257,-1.11392 4.1283,-2.35727 6.14824,-3.63251 2.00571,-1.55849 4.11715,-2.96935 6.32941,-4.21572 2.03096,-1.42456 4.21247,-2.59576 6.39954,-3.75791 2.36005,-1.15358 4.81924,-2.05974 7.28304,-2.96084 2.07418,-0.7149 3.90695,-1.823 5.70638,-3.04402 1.42535,-1.24724 2.78101,-2.55055 4.32909,-3.65119 2.2525,-1.41722 4.48841,-2.88728 6.87102,-4.08033 2.5118,-1.28084 5.32505,-1.29663 8.02694,-1.78728 1.60603,-0.0738 3.13926,-0.46107 4.6088,-1.07488 2.00011,-0.73211 3.95106,-1.60606 5.85611,-2.55879 2.29352,-1.14727 4.6457,-2.15333 6.95913,-3.25616 1.16865,-0.56683 2.42131,-0.86582 3.67865,-1.15185 3.39051,-0.74963 4.45064,4.04528 1.06013,4.79491 l 0,0 c -0.89814,0.19037 -1.79192,0.38923 -2.62629,0.79004 -2.28943,1.09054 -4.6169,2.08389 -6.8853,3.22022 -2.00651,0.99282 -4.05103,1.92467 -6.15357,2.69453 -1.80405,0.75019 -3.69778,1.269 -5.65867,1.38047 -2.24457,0.37596 -4.57516,0.39984 -6.68767,1.34995 -2.17555,1.06012 -4.18375,2.44325 -6.24168,3.70811 -1.59047,1.07267 -2.85481,2.5275 -4.38029,3.68639 -2.13277,1.44573 -4.33343,2.73095 -6.77827,3.59262 -2.25396,0.82177 -4.50328,1.64509 -6.66727,2.68672 -2.1591,1.14181 -4.29366,2.3091 -6.30272,3.70519 -2.14769,1.19015 -4.15098,2.6056 -6.10877,4.08463 -1.96029,1.23226 -3.90389,2.4663 -5.9681,3.5134 -1.81028,1.24554 -3.56504,2.53401 -5.33523,3.83532 -1.5125,1.18803 -3.00866,2.40454 -4.29251,3.84261 -1.66843,1.74625 -3.71992,2.91122 -5.74897,4.19233 -1.42809,0.96147 -2.57472,2.24522 -3.76168,3.47869 -1.33895,1.20885 -2.52628,2.5795 -3.87418,3.78181 -1.6884,1.37832 -3.33823,2.80065 -5.32883,3.74592 -1.67998,0.73855 -3.3464,1.50849 -5.10859,2.02871 -1.49038,0.88815 -2.46175,2.44666 -3.8564,3.4697 -1.71588,1.66534 -3.57924,3.17146 -5.20806,4.9284 -1.49502,1.43515 -2.89961,2.86486 -4.00293,4.64386 -1.4531,1.76425 -2.95241,3.53769 -4.72917,4.98299 -1.57128,1.11589 -2.98223,2.4384 -4.53454,3.57531 -1.27247,0.93917 -2.73236,1.58819 -3.86477,2.69545 -0.62237,0.40782 -0.98658,1.1299 -1.48198,1.66664 -0.82355,0.89228 -1.89025,1.5157 -2.69419,2.42992 -1.63441,1.4155 -3.33638,2.75107 -4.91979,4.22792 -1.22402,1.31884 -2.52496,2.56583 -3.80187,3.83206 -1.55389,1.63422 -3.22165,3.18946 -5.05301,4.50798 -1.84628,1.28875 -3.66638,2.62973 -5.28559,4.20176 -2.45883,2.03801 -4.81676,4.2136 -6.88078,6.65738 -2.45535,2.45535 -5.92774,-1.01703 -3.47239,-3.47238 z"
     inkscape:connector-curvature="0" />
  <path
     style="fill:#fc9272;fill-opacity:1;stroke:none"
     id="path3006"
     d="m 99.021971,916.45241 c -1.206095,2.7681 -2.463741,5.52289 -3.459471,8.37551 -0.490815,2.27189 -1.314652,4.45412 -1.810441,6.72396 -0.705324,2.15738 -1.449953,4.29762 -2.373694,6.37203 -1.077447,2.05125 -1.2717,4.35684 -1.815993,6.56471 -0.860825,3.36399 -5.618234,2.1466 -4.757408,-1.21739 l 0,0 c 0.665965,-2.46141 0.831872,-5.07518 2.095003,-7.362 0.804498,-1.76481 1.399861,-3.60178 2.058514,-5.42345 0.554169,-2.45732 1.403942,-4.83204 1.971178,-7.28628 0.998003,-2.82266 2.194272,-5.57604 3.433613,-8.29999 1.098066,-3.2942 5.756768,-1.7413 4.658699,1.5529 z"
     inkscape:connector-curvature="0" />
  <path
     style="fill:#fc9272;fill-opacity:1;stroke:none"
     id="path3008"
     d="m 117.15703,840.65817 c -1.80947,2.72688 -3.5878,5.45272 -5.08744,8.36711 -1.15219,2.17628 -1.24264,4.63149 -1.72862,6.98698 -0.57706,1.98676 -0.83174,4.02755 -0.97125,6.08442 -0.0165,0.36984 -0.033,0.73967 -0.0495,1.10951 -0.15695,3.46884 -5.06263,3.24688 -4.90568,-0.22196 l 0,0 c 0.0187,-0.40848 0.0374,-0.81696 0.0561,-1.22543 0.16015,-2.28903 0.43714,-4.56624 1.06956,-6.77979 0.63269,-2.76278 0.70448,-5.67391 2.16696,-8.20857 1.49775,-2.88651 3.19542,-5.64378 5.05759,-8.3084 1.5529,-3.1058 5.94517,-0.90967 4.39227,2.19613 z"
     inkscape:connector-curvature="0" />
</svg>
