<?xml version="1.0" encoding="UTF-8" standalone="no"?>
<!-- Created with Inkscape (http://www.inkscape.org/) -->

<svg
   xmlns:dc="http://purl.org/dc/elements/1.1/"
   xmlns:cc="http://creativecommons.org/ns#"
   xmlns:rdf="http://www.w3.org/1999/02/22-rdf-syntax-ns#"
   xmlns:svg="http://www.w3.org/2000/svg"
   xmlns="http://www.w3.org/2000/svg"
   xmlns:xlink="http://www.w3.org/1999/xlink"
   xmlns:sodipodi="http://sodipodi.sourceforge.net/DTD/sodipodi-0.dtd"
   xmlns:inkscape="http://www.inkscape.org/namespaces/inkscape"
   id="svg2"
   version="1.1"
   inkscape:version="0.48.4 r9939"
   viewbox="0 0 565 918"
   sodipodi:docname="46693-473.svg"
   width="565"
   height="918">
  <metadata
     id="metadata8">
    <rdf:RDF>
      <cc:Work
         rdf:about="">
        <dc:format>image/svg+xml</dc:format>
        <dc:type
           rdf:resource="http://purl.org/dc/dcmitype/StillImage" />
        <dc:title />
      </cc:Work>
    </rdf:RDF>
  </metadata>
  <defs
     id="defs6" />
  <sodipodi:namedview
     pagecolor="#ffffff"
     bordercolor="#666666"
     borderopacity="1"
     objecttolerance="10"
     gridtolerance="10"
     guidetolerance="10"
     inkscape:pageopacity="0"
     inkscape:pageshadow="2"
     inkscape:window-width="1280"
     inkscape:window-height="732"
     id="namedview4"
     showgrid="false"
     inkscape:zoom="0.2625"
     inkscape:cx="-41.292515"
     inkscape:cy="-12.079"
     inkscape:window-x="-8"
     inkscape:window-y="-8"
     inkscape:window-maximized="1"
     inkscape:current-layer="layer3" />
  <image
     width="565"
     height="918"
     xlink:href="file:///Users/juls/Documents/UUlm/Projects/2013/BrokenInterfaces/GIT%20Repo/brokenInterface/public-dataset/input/cropped-display/46693-473.png"
     id="image10"
     x="0.07377243"
     y="1.2049129" />
  <g
     inkscape:groupmode="layer"
     id="layer1"
     inkscape:label="damage3"
     transform="translate(0,-134.36218)"
     style="display:inline">
    <path
       style="fill:#756bb1;fill-opacity:1;stroke:none"
       d="m 565.30677,187.15156 -70.1384,56.38577 -48.1342,49.50946 -30.25578,57.76104 -24.75473,64.63735 -27.50526,60.51156 -15.12789,59.1363 -49.50946,90.76734 -86.64155,96.26839 -49.50946,64.63735 -57.76104,71.51367 -52.25998,52.25998 -46.7589337,42.63315 -11.002102,0 0,104.51998 578.9856257,1.3753 z"
       id="path2990"
       inkscape:connector-curvature="0" />
    <path
       style="fill:#bcbddc;fill-opacity:1;stroke:none"
       d="m -3.364382,780.57744 209.039932,-50.88472 1.37526,6.87631 -66.0126,81.1405 -27.50526,34.38157 -35.75683,38.50736 -50.884722,48.1342 -17.878415,16.50315 -11.002103,1.37526 z"
       id="path3760"
       inkscape:connector-curvature="0" />
    <path
       style="fill:#756bb1;fill-opacity:1;fill-rule:nonzero;stroke:none"
       id="path3777"
       d="m 15.880781,786.92823 c -0.08752,1.30349 0.07065,2.65795 0.747641,3.79419 0.176286,0.0804 0.413129,0.23069 0.626569,0.14173 0.143311,-0.0597 0.487617,-0.37992 0.350957,-0.30623 -2.787548,1.50304 -5.529089,3.09025 -8.313277,4.59951 -0.203168,0.11013 0.397167,-0.24248 0.566266,-0.4 0.184089,-0.17149 0.322965,-0.38584 0.484449,-0.57876 0.897057,-1.28985 1.46026,-2.72414 1.235281,-4.29966 -0.335827,-0.94004 -1.340878,-0.82259 -2.06313,-0.40956 -2.8992357,2.37451 0.02628,-0.0629 7.667653,-4.27595 0.210803,-0.11623 -0.381751,0.29627 -0.547883,0.47047 -0.633597,0.66438 -0.983718,1.40388 -1.297912,2.25059 -0.452657,1.83957 -0.170954,3.69575 0.533044,5.42609 0.150299,0.18056 0.425891,0.60769 0.727618,0.62778 0.321679,0.0214 1.105975,-0.66252 0.823094,-0.50788 -8.049297,4.40033 -10.4883787,6.54421 -7.392545,3.92177 1.339385,-1.36823 2.238137,-3.07162 2.616149,-4.9433 0.124537,-0.95272 -0.187906,-1.65436 -1.133583,-1.89528 -2.915879,1.30005 -8.1734745,4.29307 7.627751,-4.26774 0.187494,-0.10158 -0.349077,0.24907 -0.497503,0.40218 -0.485054,0.50036 -0.608056,0.81585 -0.955027,1.42879 -0.742589,1.7566 -0.548653,3.54972 0.147104,5.27615 0.829419,1.63228 1.94262,1.71795 3.331533,0.68547 -12.055599,6.81346 -7.860904,5.9026 -5.497544,0.82788 0.398715,-0.873 0.678542,-1.91301 0.01934,-2.72512 -0.150761,-0.10018 -0.434586,-0.45233 -0.668123,-0.35607 -0.07229,0.0298 -0.219402,0.21675 -0.150347,0.18007 13.44575,-7.14255 11.447712,-6.12113 8.356839,-4.54664 -0.810842,0.78782 -0.99984,1.95829 -1.037091,3.0421 0.06014,0.79775 0.33406,1.62069 0.980955,2.124 0.424664,-0.39199 1.030162,-0.31777 1.437503,-0.71589 -2.834727,1.619 -5.677675,3.2237 -8.50418,4.85702 -0.08649,0.05 0.194127,-0.0552 0.280685,-0.10501 0.407906,-0.235 0.521947,-0.65114 0.622425,-1.07475 0.136285,-0.72334 0.138275,-1.38098 -0.12221,-2.06515 -0.152118,-0.44039 -0.330843,-0.77529 -0.652002,-1.10585 -0.66656,-0.45784 -1.221957,-1.05858 -1.780721,-1.65227 -0.661701,-0.68092 -1.312898,-1.37177 -1.996258,-2.03123 -0.372068,-0.5322 -0.963783,-0.82706 -1.396532,-1.25306 -0.240797,-0.24533 -0.478098,-0.49581 -0.686488,-0.76971 -2.142082,-3.10485 7.107939,-2.74036 8.830765,-5.91919 0.712249,-0.3314 1.52264,-0.55133 2.294739,-0.80526 0.469844,-0.15109 0.935537,-0.31553 1.407676,-0.45949 3.321636,-0.80893 4.764608,-2.57411 -8.578393,5.2566 -0.0184,0.0108 0.03078,-0.26507 0.02471,-0.62746 0.01498,-0.33653 0.07947,-0.54257 -0.225929,-0.70825 -0.100175,0.17031 -0.622453,0.13609 -0.864766,0.14367 -0.375645,0.13845 -0.549979,-0.32426 -0.854331,-0.39265 -0.05355,-0.012 0.02873,0.36056 -0.524739,0.0378 -0.668878,-0.25153 -1.396702,-0.27365 -2.102998,-0.3113 -0.488718,0.094 -1.110894,-0.18167 -1.587041,-0.0237 -0.1940767,0.0644 -0.3280407,0.24785 -0.5105617,0.34002 0.5895737,-0.12865 -1.440135,0.57726 -0.920797,0.27961 2.8443527,-1.6302 5.7172927,-3.21002 8.5780327,-4.81129 0.09525,-0.0533 -0.186956,0.11277 -0.281483,0.16737 -3.002638,1.73425 -6.006658,3.46612 -9.0099877,5.19918 -0.6234145,0.26955 -1.4159741,-8.4e-4 -1.9500636,0.4007 -0.4605086,0.37277 -1.0565448,0.45242 -1.6258824,0.50628 -0.4164488,0.0233 -0.8363452,0.0155 -1.2545093,0.0155 -0.6422096,0.0353 -1.0304291,-0.72632 -0.9523821,-1.30453 0.1146264,-0.55497 0.4318337,-1.03545 0.7121745,-1.51965 0.032637,0.10035 0.056826,-0.20527 0.08654,-0.15433 0.1279215,0.21932 0.09528,0.78468 0.3295277,0.68673 2.9745632,-1.51857 5.9491272,-3.03714 8.9236889,-4.55571 -0.266045,0.087 -0.156906,0.0106 -0.329089,0.22693 -0.268654,0.43286 -0.262581,0.93796 -0.286539,1.43027 -0.0949,0.77313 0.172906,1.48039 0.343435,2.22048 0.407034,1.19189 0.671858,2.41111 0.831252,3.65861 0.02448,1.05923 0.337046,2.06041 0.55162,3.08775 0.103528,1.13533 0.37671,2.22948 0.670709,3.32715 0.212107,0.82387 0.306561,1.6651 0.332417,2.51319 0.04035,0.5711 -0.02058,1.14927 0.06404,1.71635 -10.5875218,5.83697 -9.1620036,6.87222 -9.0610273,0.7605 0.013586,-1.95852 0.021511,-3.91702 -0.0429,-5.87473 0.2141665,0.36899 -0.2068565,-1.19887 -0.2203289,-1.00051 -0.00817,0.12031 -0.052571,0.41105 0.055464,0.35748 2.9678745,-1.47159 5.8300282,-3.14741 8.7450412,-4.72111 -1.217378,0.8876 -1.452228,2.82933 -1.765814,4.21411 -0.489555,2.32983 -0.227298,4.72765 -0.111622,7.08338 0.157023,1.46098 0.480211,2.89714 0.798668,4.32968 0.822615,3.6108 3.216118,-0.67088 -8.9497344,4.70065 -0.1399525,0.0618 0.1352445,-0.27556 0.1829707,-0.42091 0.095525,-0.29093 0.3247091,-1.33033 0.3744672,-1.54744 0.4616553,-1.63102 0.3922146,-3.32182 0.3160182,-4.99443 -0.1470168,-0.61605 -0.2069823,-1.43924 -0.727197,-1.86888 -0.139979,-0.0958 -0.2790268,-0.16786 -0.4400419,-0.12769 2.9428353,-1.62766 5.8856715,-3.25533 8.8285052,-4.883 -0.255825,1.78591 -0.201175,3.61884 -0.23117,5.42209 0.0588,3.34457 0.49533,6.67205 1.005852,9.97381 0.295645,1.90333 0.614059,3.80501 1.426917,5.5639 0.889332,1.66462 0.888864,-0.0689 -8.7191345,5.27082 -0.014847,0.008 -0.072385,-0.32401 -0.1671167,-0.84194 -0.2252319,-2.43586 -0.2152346,-4.88696 -0.2970116,-7.33048 -0.06793,-0.91266 -0.00841,-1.8392 -0.1017235,-2.75068 -0.016781,-0.16392 -0.1538973,-0.63545 -0.1510051,-0.4707 0.00189,0.10779 0.053154,0.20895 0.079731,0.31342 2.9388467,-1.59195 5.8340314,-3.26729 8.8165374,-4.77587 0.130218,-0.0659 -0.136655,0.26116 -0.171116,0.40296 -0.06432,0.26465 -0.09308,0.53704 -0.123115,0.80774 -0.146099,1.31676 -0.157316,2.64861 -0.197673,3.97119 -0.01127,2.79769 -0.293511,5.58389 -0.442162,8.37596 0.09517,0.45879 -0.167556,0.9949 -0.04688,1.45532 0.02815,0.10739 0.241809,0.2549 0.141125,0.30166 -9.6626127,4.48772 -10.652851,7.06278 -9.1742786,3.58578 0.4234615,-1.6283 0.7621867,-3.27216 1.0085452,-4.93604 0.024886,-0.21539 0.051972,-0.43053 0.074658,-0.64615 0.028808,-0.27382 0.053009,-1.05937 0.068292,-1.06677 9.3954244,-4.55014 10.3140654,-7.41203 9.0283294,-3.83714 -0.512993,1.57006 -1.026906,3.1397 -1.539961,4.70973 -0.189652,0.95429 -0.824037,1.89362 -0.848866,2.88158 0.13199,0.43973 -0.137941,-0.0627 -0.181319,0.0814 -0.08925,0.29651 -0.02381,0.45065 -0.186892,0.73219 -0.05,0.0275 -0.116428,0.0363 -0.150001,0.0824 -0.130726,0.31 -0.08418,0.26238 -0.280114,0.508 -0.143272,0.17961 -0.30423,0.21539 -0.456102,0.38102 -0.282204,0.45287 -0.399936,1.02707 -0.5385,1.54804 -12.8443654,5.71698 -10.2479165,6.03336 -8.1441614,1.70066 0.8146539,-1.68909 1.3773034,-3.46272 1.7337419,-5.29945 0.339494,-1.58625 0.2567705,-3.16098 0.050561,-4.75315 -0.1935998,-1.21814 -0.646402,-2.34344 -1.2014335,-3.43419 0.049821,-0.0449 -0.9595528,-1.89059 -0.8196342,-1.09222 11.8092122,-6.45605 8.5474582,-7.05308 7.9690935,-1.56709 -8.2e-5,0.88869 -0.235917,1.83725 0.03773,2.70349 0.204586,0.46813 0.3969527,0.9491 0.5094697,1.44841 0.08048,0.37188 0.08375,0.74997 0.09445,1.12808 -0.0021,0.49097 -0.07376,0.98151 0.08752,1.45152 0.279434,0.78766 0.422785,1.61343 0.50362,2.44269 0.07002,0.69526 0.06245,1.39473 0.08303,2.09241 2.1e-5,0.46685 0.0051,0.93331 0.0059,1.40003 -0.0085,0.50742 -0.0028,1.01471 -0.0037,1.52224 -0.08412,0.40837 -0.361783,0.67937 -0.562544,1.03742 -1.1208967,4.50742 13.13332,-4.87429 -9.2696731,5.09077 -0.2516956,-3.53033 8.8372471,-8.00234 9.1672451,-4.3036 -9.5179875,5.56894 -10.0583671,7.25813 -8.685571,2.44169 0.4525175,-1.35778 0.8484738,-2.73371 1.2972169,-4.09272 0.4507975,-1.07116 0.701048,-2.19529 0.9551228,-3.32227 0.4017217,-1.15243 0.5698853,-2.36174 0.8581965,-3.54339 0.3536901,-1.48346 0.4821025,-3.00352 0.5580881,-4.52238 0.043291,-1.228 -0.00451,-2.45818 0.094438,-3.68319 0.2640465,-1.33279 0.3973284,-2.68453 0.6003769,-4.0261 0.2430465,-1.08547 0.4299274,-2.18099 0.6300812,-3.27458 0.1720589,-0.61388 0.4597348,-1.18797 0.6054075,-1.80827 0.7710154,-4.19161 -4.3181305,1.11485 9.2898361,-5.62292 0.200927,-0.0995 0.399109,0.20637 0.608308,0.28703 0.73475,0.14335 1.343272,0.41717 1.947191,0.86816 0.678849,0.48037 1.095907,1.2334 1.588795,1.88922 0.295492,0.51092 0.510566,1.04864 0.601166,1.63089 0.04618,0.37882 0.04017,0.76227 0.05377,1.14346 -0.002,0.0821 0.0089,0.16345 0.01925,0.24395 -3.952415,4.34855 -10.623283,7.59864 -8.942373,3.2589 0.22015,-0.67432 0.390758,-1.25191 0.880425,-1.78381 2.726028,-2.6655 6.210348,-5.99614 10.061921,-5.6527 0.469902,0.13684 0.458579,-0.19421 0.800655,-0.35778 0.185181,-0.0885 0.395399,-0.11061 0.591402,-0.17156 3.396756,-2.57151 -11.717384,6.88808 -7.450499,4.21352 3.015981,-1.84714 1.479898,-0.90784 9.166534,-5.07885 0.136935,-0.0743 0.602125,-0.0784 0.46739,-1.6e-4 -2.901406,1.68451 -5.824162,3.33197 -8.736243,4.99795 0.271529,-0.46198 0.261209,-1.07388 0.440343,-1.60537 0.308914,-0.73412 0.377989,-1.52479 0.428163,-2.31055 -0.02594,-0.75533 0.145298,-1.55592 -0.103126,-2.28488 -0.170707,-0.45773 -0.444577,-0.71401 -0.881187,-0.89792 -0.547373,-0.20055 -0.835792,-0.82912 -0.987227,-1.35507 -0.156203,-0.58008 -0.136937,-1.10369 0.105391,-1.64644 0.22399,-0.52365 0.504268,-0.99961 0.771554,-1.50598 0.197802,-0.37256 0.341286,-0.50861 0.341285,-0.94248 1.658155,-4.5817 6.585011,-6.70997 10.027548,-4.76355 -1.242683,-3.50684 -0.0264,-0.43574 -8.81162,4.7222 -0.03834,0.0225 0.09479,-0.0113 0.126434,-0.0425 0.0959,-0.0947 0.09563,-0.37142 0.109575,-0.48648 -0.18334,-0.50958 -0.854221,-0.79008 -1.328517,-0.99545 -1.303599,-0.40719 -2.724675,-0.74163 -4.086998,-0.50793 -0.312944,-0.2035 -1.755787,0.83728 -1.589986,0.74427 16.407264,-9.20437 9.813244,-6.21118 7.367947,-4.11251 -0.359514,0.40987 -0.794639,0.73793 -1.210158,1.08629 -1.823014,-3.97295 -0.02913,-1.09642 -9.2834717,3.72302 -0.0828,0.0431 0.102498,-0.1569 0.164649,-0.22657 0.149811,-0.16792 0.2479557,-0.19553 0.4517857,-0.30734 0.746285,-0.45173 1.36123,-1.06913 1.912372,-1.73785 0.291895,-0.37947 0.723229,-0.87517 0.273204,-1.27508 -0.758163,-0.17214 -1.311787,-0.0899 -1.97073,0.31317 14.158164,-7.95878 7.987303,-6.0072 5.96436,-1.70196 -0.229962,0.57597 -0.403641,1.17285 -0.525241,1.78064 -0.01247,0.0623 0.02414,0.16265 -0.03434,0.18751 -0.049,0.0208 -0.0501,-0.094 -0.07515,-0.14096 -0.0091,-0.0735 -0.04645,-0.19912 0.04917,-0.25203 0.07088,-0.0392 0.164697,-0.006 0.240506,-0.0349 0.366888,-0.13821 0.733926,-0.35939 1.055505,-0.57974 -14.7549127,8.65589 -8.8478087,5.7114 -6.062971,2.8701 0.221179,-0.35965 1.111033,-1.19491 0.810528,-1.69146 -0.482084,-0.35461 -1.173516,0.12371 -1.596824,0.3892 -3.0260539,2.24714 0.227177,-0.19617 7.72478,-4.35783 0.196204,-0.10891 -0.348811,0.28321 -0.510836,0.43846 -0.500673,0.47976 -0.889042,1.04823 -1.286487,1.61169 -0.325296,0.46749 -0.623991,0.95224 -0.921142,1.43777 -0.377415,-0.0541 -0.776155,-0.85249 -0.108353,-0.85616 4.598108,-0.24574 -10.5452368,2.51518 -8.0086626,5.1508 0.00589,0.0549 0.050263,0.12015 0.017665,0.16472 -0.037313,0.051 -1.5196308,-0.01 -1.6637427,-0.0131 -0.011476,-5e-5 -0.9408392,-0.005 -0.9464807,-0.004 -0.4720382,0.0723 -0.9259689,0.30829 -1.3221709,0.55617 2.7686656,-1.57408 5.5373312,-3.14817 8.3059969,-4.72226 -0.749302,0.41476 -1.020907,1.06968 -1.206191,1.85867 -9e-4,0.27099 -0.239764,0.87197 0.11486,0.99529 0.467863,0.10898 0.998176,1.42603 0.821529,0.59235 0.813442,-3.43018 0.08308,-0.14158 -8.6307697,4.73703 -0.278721,0.15605 0.1669063,-0.0163 0.4954231,-0.51841 0.2219238,-0.33919 0.2614554,-0.52057 0.4023894,-0.90606 0.3101595,-0.92165 0.2103475,-1.7412 -0.3518637,-2.51753 -0.5063669,-0.48339 -1.0897621,-0.6864 -1.7646823,-0.77629 -0.083643,0.001 -0.1769019,-0.0358 -0.2509274,0.003 -0.149894,0.0789 -0.4602122,0.48416 -0.3130805,0.40024 21.4979831,-11.46074 9.8607751,-7.23056 8.2088804,-4.56189 -0.323554,0.51076 -0.698913,1.01664 -0.643399,1.64224 0.09091,0.75331 0.461255,1.40351 0.740291,2.09264 0.02029,0.0447 0.19505,0.62664 0.365631,0.61194 0.003,-2.6e-4 0.07148,-0.40664 0.147142,-0.47556 3.1550857,-1.52849 0.04109,-0.0245 -8.4721337,4.84359 -0.05479,0.0313 0.1159317,-0.0506 0.1707244,-0.0819 0.2167256,-0.12391 0.2583822,-0.27194 0.3347252,-0.49858 0.9234488,-3.66886 -2.849192,0.61 9.2601338,-4.77512 0.01119,-0.005 0.0074,0.0598 -0.02145,0.8219 -0.06631,1.95672 -0.123541,3.91585 -0.02516,5.87179 0.118661,1.86155 0.580927,3.67616 1.05887,5.47217 0.116918,0.26078 0.313005,0.79854 0.666041,0.7427 -10.6532584,6.44418 -8.3038551,7.21879 -9.1742588,1.16938 -0.06094,-0.30394 -0.1215181,-0.60795 -0.1828215,-0.91181 -0.2438253,-1.20857 -0.5860961,-2.30587 -0.6705585,-2.19838 -0.077258,0.0983 0.032756,0.24794 0.049134,0.37191 2.90079,-1.56467 5.7771241,-3.17555 8.7023698,-4.694 0.147118,-0.0764 -0.267449,0.21095 -0.346561,0.35661 -0.127333,0.23445 -0.190854,0.49941 -0.258529,0.75747 -0.305665,1.16559 -0.373574,2.38375 -0.470457,3.57833 -0.068,2.32123 -0.26744,4.67068 -0.03781,6.98814 -0.115773,0.40282 0.910182,2.45708 0.229916,1.12784 -2.9203848,1.63527 -5.8278362,3.29384 -8.761154,4.90579 -0.081979,0.045 0.1476165,-0.12033 0.1972158,-0.19964 0.081826,-0.13084 0.1427222,-0.27511 0.1912947,-0.42159 0.2286523,-0.68953 0.2746642,-1.44107 0.3463719,-2.1573 0.1439859,-1.19564 0.1055813,-2.36695 -0.2639688,-3.51391 -0.4541412,-1.22712 -0.9578667,-0.35074 8.8843254,-4.86921 0.21248,-0.0976 0.07447,0.46165 0.115028,0.69191 0.04853,0.27547 0.101486,0.55015 0.15223,0.82523 0.302079,1.96656 0.880442,3.86328 1.573053,5.72287 0.07561,0.1917 0.138652,0.38886 0.226844,0.57511 0.184014,0.38862 0.376473,0.54834 0.386554,0.44212 0.372484,-3.92474 -10.639943,8.04155 -8.2883814,3.71981 0.855581,-2.33553 1.2389123,-4.82023 1.6540145,-7.26513 0.085789,-1.52058 0.6415982,-3.13748 0.3036063,-4.65953 -1.6611583,-4.12857 4.3193016,-3.38611 9.0407996,-5.59392 0.410209,0.53 1.022211,0.65527 1.55421,0.99317 0.664893,0.39491 1.389591,0.53934 2.146926,0.61083 0.221451,-0.0539 0.639523,0.13633 0.843467,0.019 0.07481,-0.043 0.06383,-0.1653 0.123725,-0.22743 0.06269,-0.065 0.309832,-0.18587 0.231416,-0.14103 -2.839765,1.624 -5.677033,3.25236 -8.515549,4.87855 0.793513,-0.57394 1.376799,-1.37434 1.841841,-2.22467 0.531967,-0.73895 0.798191,-1.60316 1.157469,-2.42581 1.657863,-4.34939 7.304377,-7.77085 10.474341,-4.48515 0.666731,0.79532 1.416934,1.50086 2.096713,2.28545 0.09614,-0.23748 0.225445,0.52082 0.322018,0.38439 0.05744,-0.0811 -0.04063,-0.196 -0.04104,-0.29542 -2.95e-4,-0.0713 0.101533,-0.24469 0.03895,-0.21044 -8.736216,4.97238 -11.589468,6.52484 -8.466937,4.82407 0.450339,-1.15305 0.381775,-2.4722 0.406017,-3.69622 0.0967,-1.17131 -0.05722,-2.29899 -0.383248,-3.42013 -0.200937,-0.65123 -0.722596,-0.9608 -1.309944,-1.23951 -0.697943,-0.26042 -1.421623,-0.36661 -2.160459,-0.40547 -3.555085,-0.0794 -4.113126,2.07896 8.39133,-4.82542 0.112108,-0.0619 -0.241303,0.14025 -0.280967,0.26202 -0.459889,3.5433 5.004459,-1.79683 -9.156511,4.4431 -0.09702,0.0428 0.08597,-0.19384 0.129835,-0.29036 0.216842,-0.47722 0.101376,-0.18184 0.284538,-0.72455 0.179377,-0.89136 -0.0951,-1.76354 -0.457921,-2.5706 -0.66715,-0.75839 -0.49877,-0.44275 -1.042367,-0.0915 15.885275,-8.62063 9.27067,-6.6103 7.277007,-3.3907 -0.147417,0.0453 -0.14219,0.44633 -0.277171,0.50543 -3.093584,1.35449 -8.367823,7.23027 -9.313341,3.98822 -0.03899,-0.1337 23.143942,-13.50343 0.397216,-0.34839 0.46333,-0.35199 0.966838,-0.73577 1.31227,-1.20843 0.33013,-0.43982 0.265309,-0.81939 0.04166,-1.28171 -0.03447,-0.0951 -0.05008,-0.19929 -0.10341,-0.28522 -0.07338,-0.11824 0.04844,0.27839 0.03037,0.41637 -0.01006,0.0769 -0.199917,0.22899 -0.13209,0.19144 7.990493,-4.42393 11.234929,-6.80706 8.217807,-4.60904 -0.516569,0.43834 -0.860854,0.99372 -1.136883,1.60234 -1.3544,3.31629 -11.8740297,6.96973 -8.872593,3.71856 0.427633,-0.47129 0.989992,-0.81094 1.337863,-1.34669 0.094,-0.64529 0.627329,-0.1019 0.386361,0.33001 -0.880031,0.19259 -1.775235,0.59897 -2.555901,1.0831 -3.3643509,1.6276 -1.2453557,0.61868 7.606106,-4.40208 0.171306,-0.0972 -0.330098,0.21491 -0.495814,0.32133 -0.337283,0.2166 -0.677305,0.42893 -1.017186,0.64142 -0.27403,0.14164 -0.482009,0.10396 -0.664216,0.38265 -0.30537,-0.42474 -0.285855,-0.7391 0.186198,-1.08383 -2.869774,1.65223 -5.740734,3.3024 -8.6093197,4.95669 -0.09819,0.0566 0.243992,-0.25552 0.301249,-0.15771 0.37634,0.64294 0.340403,0.55465 0.393549,1.02135 -0.807767,0.0216 -1.6169296,1.3e-4 -2.4251248,-0.005 -0.5132345,-0.0649 -0.9630237,0.12874 -1.4311916,0.30506 -0.1218554,0.0459 -0.4751175,0.21129 -0.3620116,0.14678 9.4986037,-5.41791 11.2255617,-6.52851 8.2183097,-4.60785 -0.423886,0.25063 -0.835818,0.49531 -1.01989,0.97467 -0.149123,0.34 -0.238179,0.29385 0.282792,0.42163 1.374008,0.26533 2.785246,-0.27962 4.100406,-0.65203 2.33464,-0.66254 4.429166,-1.88592 6.559879,-3.0094 0.253261,-0.15387 1.01696,-0.60885 0.759784,-0.46162 -2.67479,1.53137 -5.338519,3.08199 -8.012863,4.61413 -0.155053,0.0888 0.303833,-0.1882 0.454669,-0.28402 0.18548,-0.11782 0.359057,-0.2549 0.550948,-0.36196 3.000557,-1.67414 6.008056,-3.33581 9.012083,-5.00371 0.726635,0.63062 0.660454,1.46192 0.625446,2.33053 0.161626,1.48545 0.304304,2.98194 0.53517,4.45968 0.227155,1.25495 0.513301,2.49795 0.71521,3.7572 0.272785,0.76452 -0.377104,-0.13477 -0.02368,-0.34872 0.183464,0.40807 0.416188,0.7974 0.550393,1.22421 0.01627,0.0517 -0.120471,-0.0249 -0.162487,0.009 -0.06137,0.0501 -0.08345,0.1364 -0.108207,0.21168 -0.176448,0.53659 -0.330583,1.0268 -0.574793,1.54318 -0.652048,1.45434 -1.622025,2.72005 -2.73675,3.84695 -0.629508,0.55175 -1.313382,1.03235 -1.946683,1.5808 -0.145688,0.50438 -0.581891,-0.83045 -0.537682,-0.79975 0.953533,0.66212 -0.134559,0.13425 0.384031,0.37381 0.535775,0.1626 0.941853,0.54842 1.358489,0.92378 3.031128,2.63126 -5.164257,6.03959 -8.807946,6.05855 -0.755057,-0.0959 -0.837562,0.0882 -1.434129,0.46529 -2.937679,1.96918 -0.197709,0.12731 8.395004,-4.91792 0.09971,-0.0585 -0.211078,0.11845 -0.269772,0.21807 -0.05579,0.0947 -0.08403,0.28935 -0.104316,0.39581 -0.05449,0.18806 -0.04875,0.95433 -0.06486,0.90164 -12.7793327,6.70707 -8.093655,7.36237 -9.33169,3.15101 -0.346104,-0.96901 -0.665517,-1.92922 -0.855829,-2.94352 -0.18061,-1.2164 -0.298631,-2.43453 -0.119389,-3.6552 0.1188,-0.64612 0.330741,-1.27246 0.434019,-1.92151 0.07948,-0.38169 -0.107996,-0.75068 -0.344048,-1.05623 -0.257771,-0.27453 -0.718879,-0.56382 -0.898731,-0.10505 -3.3962878,2.99768 11.486909,-7.47103 7.541284,-4.12907 -0.06028,0.0243 -0.120556,0.0486 -0.180834,0.0729 0,0 -9.3757277,4.13952 -9.3757277,4.13952 l 0,0 c 0.02269,-0.10964 0.04538,-0.21928 0.06808,-0.32892 2.7754507,-2.74594 6.2191677,-5.56197 10.1285257,-5.9236 0.609094,0.23895 1.161015,0.50731 1.533694,1.07591 0.328992,0.48423 0.724147,1.13676 0.71168,1.72328 -0.07194,0.6914 -0.212326,1.37149 -0.460087,2.02463 -0.314445,1.09753 -0.246556,2.1907 -0.0801,3.31785 0.165329,0.98356 0.487159,1.8898 0.849133,2.81172 0.112783,0.36139 0.310902,0.72699 0.39635,1.09298 0.80716,3.45724 -16.7940429,11.25849 -9.123787,5.48806 -0.103048,-0.38081 0.04516,-0.80824 -0.02039,-1.19641 0.319387,-4.23396 3.071947,-4.68049 9.184184,-6.61413 0.553382,-0.18264 1.091995,-0.1081 1.665764,-0.15594 3.846689,-0.49066 -5.935687,8.25734 -8.158041,5.41217 -0.376718,-0.34665 -0.817323,-0.52599 -1.258988,-0.77616 -0.05735,-0.0422 -1.388008,-0.65308 -0.72255,-1.24399 0.641452,-0.60387 1.30808,-1.21055 2.086632,-1.62863 1.162444,-0.97624 2.182894,-2.0853 2.866068,-3.45843 0.241795,-0.56356 0.616115,-1.03647 0.604734,-1.66218 -0.0022,-0.12249 -0.105476,-0.44981 -0.015,-0.36722 0.311418,0.28432 0.492076,0.68494 0.738115,1.0274 -0.56593,-0.036 -0.827072,-0.60984 -0.809152,-1.11619 -0.110137,-1.26867 -0.33473,-2.52389 -0.586294,-3.77139 -0.282884,-1.51696 -0.362486,-3.06661 -0.698374,-4.57722 -0.0063,-0.22373 -0.182322,-1.87873 0.248581,-0.74299 19.559889,-11.11027 1.93191,-0.96619 -2.407839,1.58501 -2.15365,1.10112 -4.309848,2.21933 -6.6712037,2.8174 -1.5446509,0.38571 -3.1804548,0.90371 -4.7033825,0.16283 -0.5419109,-0.37004 -1.1014129,-0.86255 -0.9668911,-1.57896 0.074341,-0.61494 0.1922889,-1.31258 0.7413188,-1.68584 3.4188692,-2.51602 6.9793745,-5.66017 11.3033435,-5.55149 0.864269,-0.006 1.735783,-0.0471 2.595508,0.0554 0.435493,0.34692 1.168083,0.9802 0.491133,1.37192 -2.980128,1.72447 -5.966426,3.43825 -8.9496387,5.15737 -0.60682,0.23185 -1.3537163,-0.0806 -1.4452286,-0.82622 5.775e-4,-0.40159 -0.00267,-1.01778 0.3659159,-1.21802 3.7827364,-2.20209 7.4361354,-4.64213 11.3609584,-6.58911 0.944681,-0.39965 1.976541,-0.84517 3.02049,-0.66254 0.580008,0.3259 0.872627,0.77887 0.574161,1.37452 -0.278477,0.69356 -0.602241,1.21948 -1.222162,1.66958 -2.654567,2.28053 -11.234691,8.38574 -9.898105,4.47299 0.266758,-0.69381 0.562616,-1.41248 1.036293,-1.98725 2.275355,-3.16781 0.39729,-0.65636 9.291847,-5.58623 0.423181,-0.23456 0.95517,0.62546 1.039605,0.92372 0.298267,0.6863 0.574155,1.36597 0.364289,2.1179 -0.24952,0.65777 -0.627091,1.12429 -1.13396,1.61982 -23.953337,14.06826 -0.36739,0.23891 -0.427856,0.18497 -3.902852,-3.48159 -11.372568,7.66776 -9.225176,3.61494 2.258886,-4.11792 3.516913,-3.92425 10.183189,-6.98174 0.83233,-0.006 1.390317,0.66672 1.809396,1.32069 0.411766,1.02026 0.742306,2.03967 0.754201,3.15442 -0.04647,0.27811 -0.08781,0.59524 -0.174452,0.86721 -1.083954,3.40239 -9.58889,8.5927 -9.458379,4.67256 -0.08927,-3.9381 5.556923,-6.639 9.428845,-5.91766 0.814018,0.14837 1.610838,0.37431 2.34897,0.75767 0.789101,0.48827 1.429017,1.03272 1.736765,1.94517 0.286545,1.22155 0.550427,2.43903 0.434153,3.70403 -0.01422,1.33728 -0.04826,2.67361 -0.123202,4.00898 -0.325612,3.97903 -7.574431,8.36815 -9.914212,4.81274 -0.603837,-0.78187 -1.31964,-1.46415 -1.994205,-2.18295 -0.276947,-0.21577 -0.318261,-0.28679 -0.649596,-0.3987 -0.07645,-0.0258 -0.308236,5.7e-4 -0.238689,-0.0403 2.884788,-1.69736 5.821558,-3.30478 8.732337,-4.95717 -0.300581,0.0621 -0.159003,-0.0163 -0.363753,0.32158 -0.463891,0.81598 -0.670628,1.71912 -1.158349,2.5271 -0.575082,0.8224 -0.908483,1.79756 -1.647075,2.52082 -5.089774,2.97951 -6.303459,5.99577 -10.534091,5.15477 -0.824667,-0.1821 -1.599421,-0.48894 -2.3306387,-0.91489 -0.660466,-0.30232 -1.251866,-0.68586 -1.7572681,-1.21322 3.0086188,-1.55916 6.0463268,-3.06343 9.0258558,-4.67748 0.08549,-0.0463 -0.967538,-0.7247 -0.334013,0.0935 0.374688,1.69889 -0.195197,3.42092 -0.357057,5.11922 -0.397838,2.4587 -0.831391,4.92632 -1.415474,7.34481 -0.91331,4.44074 -9.0349707,9.71079 -10.3319521,4.42769 -0.6055803,-1.92387 -1.2216838,-3.84552 -1.6143718,-5.82738 -0.1256367,-0.47927 -0.376017,-1.39673 -0.3400356,-1.42331 3.2861466,-2.42751 7.7988248,-9.0394 9.0338695,-4.88746 0.333171,1.28451 0.485411,2.57302 0.315457,3.89913 -0.348051,5.81404 -0.587329,4.07525 -9.3216006,8.44034 -0.5406084,-0.765 -0.750101,-1.58828 -0.8387169,-2.52999 -0.2141968,-2.38968 0.097782,-4.80003 0.095394,-7.19466 0.071449,-1.5263 0.1763062,-3.02184 0.3921517,-4.53402 0.034787,-0.24371 -0.1108159,-0.60063 0.097318,-0.7321 2.9530057,-1.86532 6.0992231,-3.4056 9.1488348,-5.1084 1.020186,1.08313 0.990611,2.56103 1.281913,3.95846 0.17117,0.90154 0.2642,1.80506 0.423558,2.70762 0.803803,4.55256 2.418263,0.53128 -8.7166242,6.47165 -0.4641291,-0.44033 -0.8061474,-0.96674 -1.0000042,-1.58266 -0.3501543,-1.88966 -0.8242997,-3.76347 -0.9901239,-5.68095 -0.1718219,-1.94493 -0.085666,-3.89592 -0.1759319,-5.846 -0.00962,-0.22403 -0.033642,-0.75518 -0.028917,-0.75782 7.9297995,-4.44041 9.6782852,-8.22642 9.1025302,-4.34735 -0.699072,4.07576 -3.2337486,5.55168 -9.4198172,6.41577 -0.6568669,-0.045 -1.1046361,-0.84551 -1.2874786,-1.40882 -0.2818841,-0.75632 -0.7032557,-1.46007 -0.8369683,-2.26647 -0.2002267,-0.82302 -0.1932722,-1.57994 0.3106043,-2.30555 0.055187,-0.0914 0.1224543,-0.17648 0.1655611,-0.27414 0.043105,-0.0977 6.877e-4,-0.25009 0.090971,-0.30705 4.3663187,-2.75448 6.0134884,-6.24825 9.876912,-5.20927 0.8205367,0.29169 1.5298567,0.75425 2.1082287,1.41451 0.69827,0.99322 1.011679,2.1192 0.753534,3.33151 -0.819933,3.93099 -5.1065773,8.89542 -9.838817,6.96595 -0.3829423,-0.37746 -0.6813657,-0.81906 -1.1328836,-1.12392 -0.5058639,-0.57545 -0.7144411,-1.11284 -0.573109,-1.87764 0.07386,-0.92119 0.2692538,-1.92611 0.9136089,-2.61967 4.7318805,-2.75569 6.978408,-5.79549 11.6770627,-5.5218 0.913257,0.0469 1.848926,0.0603 2.413375,0.88858 1.505654,3.66002 -5.66621,5.86434 -9.3049982,5.80729 -0.4962802,0.0148 -1.2962925,-0.35399 -1.0087292,-1.02927 0.3248901,-0.53425 0.6973711,-1.03831 1.0428208,-1.55902 2.9290189,-4.25399 4.6789136,-5.6989 11.3713386,-8.0122 0.961793,-0.1913 1.856598,-0.0844 2.453403,0.79228 0.611448,1.12807 0.265345,1.78007 -0.327573,2.8306 -2.740647,3.64068 -7.459585,5.26763 -11.2597077,7.42295 -0.838889,0.24162 -1.7720829,0.42441 -2.3232375,-0.42392 -0.066053,-0.13884 -0.1623219,-0.26701 -0.1981601,-0.41653 -0.1308035,-0.54572 0.5955622,-1.68371 0.6145549,-2.2264 1.8425517,-5.08752 5.8173254,-6.11545 11.2185934,-8.77687 0.974115,-0.16038 1.964554,-0.0441 2.718442,0.6516 0.608245,0.7913 0.792272,1.60434 0.328265,2.52181 -0.509411,0.75222 -1.072577,1.43682 -1.756313,2.03657 -0.253971,0.2161 -0.403857,0.18775 -0.670268,0.33318 -6.864169,3.74691 -7.813648,8.15041 -9.7759457,3.92588 0.510653,-0.22023 0.9519047,-0.57447 1.4009367,-0.89525 2.943498,-3.42586 7.30349,-6.03128 11.79005,-6.53196 1.501856,0.0755 3.004509,0.31584 4.388254,0.93084 0.863308,0.46634 1.671408,0.96526 2.004757,1.93946 0.0071,0.11883 0.08574,1.01788 0.03226,1.05215 -8.758894,5.61176 -6.329142,7.64762 -9.180465,5.04098 -0.351997,-0.13962 -0.570558,-0.0337 -0.558472,-0.0407 8.681949,-5.00787 11.98853,-5.40849 8.515424,-4.9654 -0.06364,-0.0217 -0.135638,-0.10323 -0.190913,-0.065 -0.135133,0.0935 0.115133,0.79467 -0.218109,0.92168 -0.274758,0.53 -0.572889,0.95683 -0.780312,1.48221 -0.305172,0.56319 -0.480072,0.34067 -0.400837,1.01796 0.04358,0.36287 0.20105,0.47689 0.53605,0.63346 0.560583,0.38749 1.00766,0.87158 1.240855,1.52223 0.32863,0.87514 0.298161,1.72615 0.239168,2.65682 -0.01161,0.86304 -0.006,1.73067 -0.24104,2.56894 -0.262574,0.68059 -0.460184,0.9253 -0.351196,1.70288 -25.1748349,15.06062 0.860244,-0.71287 -0.688543,0.54192 -3.104964,2.36985 -6.482537,4.60463 -10.173644,5.85337 -0.523575,0.22439 -0.954107,0.37258 -1.529305,0.37778 -4.197947,2.07481 11.244957,-7.171 7.591322,-4.38773 -0.525418,0.43652 -1.00648,0.63011 -1.046772,1.38631 -0.07829,0.18172 -0.110341,0.3904 -0.232173,0.54631 -0.0356,0.0456 -0.130649,0.0233 -0.156368,0.0751 -0.03326,0.067 0.0052,0.14947 0.0077,0.2242 -3.064691,1.59605 -6.129383,3.1921 -9.194074,4.78816 0.0037,0.006 0.0074,0.0118 0.01105,0.0177 0.01564,-0.0566 0.035,-0.14399 0.03158,-0.21221 0.02235,-0.34968 0.02699,-0.69971 0.02275,-1.05004 -0.01305,-0.41834 -0.09734,-0.81408 -0.313205,-1.18182 -0.390244,-0.57402 -0.760063,-1.20074 -1.364572,-1.57034 -0.5851567,-0.30064 -1.2088937,-0.4263 -1.8311807,-0.63414 -0.334138,-0.0882 -0.185432,-0.0947 -0.444985,-0.0372 2.8869777,-1.63191 5.7739557,-3.26382 8.6609337,-4.89573 0.05334,-0.031 -0.122777,-0.0183 -0.181081,-0.0385 -0.07253,-0.0251 -0.13756,-0.12485 -0.208997,-0.0967 -0.06051,0.0238 -0.02235,0.12811 -0.03352,0.19216 -0.129401,0.6728 -0.304784,1.30706 -0.608381,1.9269 -0.498467,0.94965 -0.34603,2.18955 -0.752253,3.19154 -0.301423,1.30298 -0.271278,2.66511 -0.609492,3.96688 -0.228049,1.18984 -0.03478,2.41499 -0.158826,3.6197 -0.06512,1.56808 -0.179045,3.13657 -0.483943,4.67914 -0.236588,1.19788 -0.441313,2.40294 -0.766136,3.58054 -0.42409,1.09636 -0.425239,2.33755 -0.983525,3.40205 -0.525624,1.31461 -0.865735,2.69574 -1.28018,4.04795 -1.7928257,4.7694 2.01795,1.27434 -9.6779618,6.56094 0.2605843,-3.53117 9.4023448,-8.7393 9.1588078,-5.04667 -3.1106203,1.49425 -6.2747138,2.88194 -9.3318602,4.48275 -0.1056077,0.0553 0.085837,0.22937 0.1680569,0.31568 0.1754347,0.18419 -0.099295,-0.96198 0.056586,-0.76098 0.013004,-0.44006 0.077471,-0.9692 0.4934954,-1.18457 0.3345608,-0.0859 0.1219277,-0.87499 0.1628619,-1.18141 0.00299,-0.46872 0.012902,-0.93709 0.013613,-1.40595 0.018239,-0.67767 0.01109,-1.35586 -0.015664,-2.03324 -0.049472,-0.74005 -0.1208646,-1.48778 -0.3890072,-2.1861 -0.2318617,-0.58692 -0.3509803,-1.11825 -0.296412,-1.75217 0.00799,-0.32853 0.0095,-0.65784 -0.00831,-0.98603 -0.027302,-0.46082 -0.2285648,-0.90111 -0.3965054,-1.32418 -0.3575787,-1.02765 -0.2403665,-2.0473 -0.1399417,-3.1235 0.4566637,-6.09441 0.8313197,-3.85076 9.5555263,-8.768 0.502701,0.55753 0.966056,1.17194 1.203568,1.89308 0.550067,1.21663 1.038982,2.43677 1.268289,3.76377 0.22378,1.68965 0.445667,3.34972 0.07288,5.0431 -0.331509,1.90117 -0.855151,3.73674 -1.584893,5.52365 -2.3396847,4.97421 -0.42771,2.15049 -10.5850643,6.31546 0.6021862,0.0742 0.6944111,-0.74518 0.715265,-1.18711 0.1318738,-0.39774 0.1533832,-0.58698 0.5344305,-0.79535 0.064339,-0.0352 0.1609963,-0.0271 0.2015317,-0.0882 0.053964,-0.0814 0.032375,-0.19255 0.048563,-0.28882 0.036158,-0.0264 0.2269711,-0.17201 0.2727718,-0.181 0.055752,-0.0109 0.1482288,0.0775 0.1686774,0.0245 0.034407,-0.0892 -0.2600218,-0.57801 0.0088,-0.44491 0.4280603,-0.16253 0.8328722,-2.39087 1.0988396,-2.81914 0.5582085,-1.50073 0.9721203,-3.0534 1.4775584,-4.5696 0.5167292,-3.88045 -0.052312,-0.55575 9.3653099,-5.10567 0.05892,-0.0285 -0.04506,0.12347 -0.05745,0.18772 -0.102454,0.53141 -0.125036,1.07849 -0.231961,1.60932 -0.250415,1.66849 -0.632794,3.31603 -0.875879,4.98024 -0.412016,3.93756 0.132281,0.0308 -9.5245911,4.7977 -0.094157,0.0465 0.078409,0.25791 0.1833977,0.25612 0.040337,-6.9e-4 0.2331007,-1.38963 0.2381589,-1.50911 0.3326315,-2.7791 0.6268909,-5.57674 0.6073336,-8.37812 -0.00283,-1.31457 -2.858e-4,-2.62908 0.00319,-3.94364 7.469e-4,-0.28242 0.00479,-0.56483 0.00491,-0.84726 8.52e-5,-0.20191 -0.173735,-0.49591 -0.00429,-0.60572 2.9179492,-1.89099 6.0140429,-3.49175 9.0210629,-5.23762 0.923965,1.18338 0.437141,2.71291 0.514756,4.11733 0.0081,2.35733 0.04007,4.73136 0.4013,7.06521 0.03446,0.14579 0.06079,0.29374 0.103369,0.43736 0.02905,0.098 0.195817,0.22875 0.111031,0.28585 -4.619032,3.11053 -7.6284874,8.68418 -9.1943279,4.61753 -0.6609559,-1.91952 -0.9878776,-3.91223 -1.243897,-5.92204 -0.5108658,-3.34014 -0.9089493,-6.70286 -1.1356085,-10.07448 -0.037408,-1.81801 -0.063393,-3.63705 -0.1435141,-5.45373 5.6627788,-3.40237 6.6707938,-7.75829 9.5778545,-4.78537 0.594469,0.7329 0.809732,1.64303 0.983618,2.55934 0.04759,1.74762 0.133384,3.5297 -0.25524,5.2454 -0.09583,0.47276 -0.214186,2.00389 -0.325328,2.06784 -7.1046494,4.08765 -8.8658485,8.30926 -9.3504625,4.36682 -0.2052254,-1.51785 -0.5104074,-3.02091 -0.6637797,-4.54588 -0.1153099,-2.42363 -0.3948617,-4.88413 -0.039315,-7.29444 0.3194684,-1.6278 0.6752737,-3.25327 1.2538891,-4.81019 0.7191821,-0.39372 10.1840291,-8.87574 9.9682561,-2.99592 -0.0629,1.97224 -0.05778,3.9452 -0.04285,5.91823 0.110482,6.46215 1.253243,3.02679 -9.052874,8.45131 0.087094,-0.56777 0.033584,-1.14674 0.045227,-1.71952 -0.023516,-0.78154 -0.05024,-1.56586 -0.2169298,-2.33312 -0.2473496,-1.12049 -0.5944145,-2.21828 -0.6781277,-3.36816 -0.2092401,-1.0614 -0.5979695,-2.08123 -0.5576708,-3.17982 -0.1307797,-1.21312 -0.352373,-2.4072 -0.8296634,-3.5383 -0.1794738,-0.80676 -0.5558899,-1.57879 -0.4914995,-2.41814 -0.00907,-0.59447 -0.031665,-1.2067 0.088427,-1.78944 0.9786438,-3.98017 7.8027982,-8.95464 9.8326512,-4.72757 0.02625,0.0547 -0.180793,0.076 -0.117054,0.13929 -0.299086,0.39297 -0.541507,0.83033 -0.873768,1.19391 -0.120631,0.28809 -0.759835,-0.36041 0.01309,-0.30415 0.377899,-0.009 0.753709,-0.0318 1.118947,-0.13868 0.525477,-0.15597 0.990854,-0.47695 1.52671,-0.5964 0.654321,-0.028 1.293325,-0.17214 1.82792,-0.57162 -21.3196237,12.30883 -0.559487,0.43147 0.864623,-0.36021 0.264149,-0.14684 0.598658,-0.20518 0.875186,-0.32623 0.754171,-0.17479 1.567417,0.0467 2.337668,0.0423 0.758092,0.0812 1.502409,0.21226 2.239522,0.40818 0.385404,-0.23274 0.800054,0.44896 1.247197,0.16878 0.4875,0.0266 0.947532,0.0438 1.287741,0.44862 0.383026,0.41737 0.685508,0.87717 0.632717,1.4653 0.03414,3.85661 -3.625837,4.76879 -8.723601,6.33321 -0.433171,0.13272 -0.866987,0.26352 -1.295879,0.40974 -0.789062,0.27259 -1.576044,0.55028 -2.341425,0.86496 -4.0072957,-0.59292 9.016691,-4.41175 8.118335,-5.61507 0.141337,0.21436 0.305701,0.41315 0.502381,0.57983 0.551662,0.36054 0.931645,0.90907 1.415548,1.34925 0.646164,0.69427 1.320098,1.36152 1.972913,2.04943 0.583321,0.57612 1.194287,1.10421 1.824503,1.62479 0.42223,0.43034 0.693006,0.89607 0.861833,1.47348 0.314489,0.84478 0.493892,1.62352 0.328639,2.53399 -0.297203,4.64143 -4.473375,4.58274 -9.545286,7.18225 -0.772686,0.11588 -1.486537,0.29494 -2.133938,-0.28343 -0.725885,-0.78561 -1.183195,-1.79378 -1.291333,-2.86149 -0.104363,-1.27504 0.109627,-2.55688 0.630745,-3.73161 1.871203,-3.69798 7.800924,-7.873 10.656438,-4.39458 0.753302,1.13368 0.916729,2.44032 0.383728,3.71645 -2.661633,5.85445 -3.704194,5.45308 -11.579306,9.64172 -2.071824,0.5367 -3.256347,-0.18342 -4.237863,-2.05567 -0.753928,-1.94948 -1.0798917,-3.97371 -0.492904,-6.02332 1.662607,-4.231 6.807635,-8.87851 11.455331,-7.36302 1.139015,0.66215 1.826465,1.71717 1.719574,3.07731 -0.207693,2.01468 -1.160308,3.94803 -2.405188,5.52672 -2.729097,3.55283 -0.80322,1.24624 -9.91647,6.15357 -0.93508,0.50352 -1.9584647,-0.75964 -2.3315827,-1.39925 -0.768929,-1.91385 -1.07096,-3.98306 -0.790056,-6.03621 1.036391,-5.11581 6.5102847,-7.46876 11.3186677,-8.93452 1.346959,-0.0288 2.502367,0.48959 2.95868,1.84097 0.291053,1.77979 -0.04297,3.42914 -0.951638,5.00332 -2.200895,4.00445 -3.379296,3.12448 -10.108751,6.54391 -0.544073,0.27646 -1.372383,-0.58112 -1.6581637,-0.89185 -0.700311,-1.29699 -0.982255,-2.7647 -1.036275,-4.23141 0,0 9.0885887,-4.63087 9.0885887,-4.63087 z"
       inkscape:connector-curvature="0" />
  </g>
  <g
     inkscape:groupmode="layer"
     id="layer2"
     inkscape:label="Ebene"
     style="display:inline">
    <rect
       style="fill:#bcbddc;fill-opacity:1;stroke:none"
       id="rect2987"
       width="2.4793389"
       height="339.66943"
       x="260.33057"
       y="583.28925" />
    <rect
       style="fill:#bcbddc;fill-opacity:1;stroke:none"
       id="rect2991"
       width="4.9586778"
       height="342.97522"
       x="267.76859"
       y="579.15704" />
    <rect
       style="fill:#bcbddc;fill-opacity:1;stroke:none"
       id="rect2993"
       width="4.1322312"
       height="256.19833"
       x="152.06612"
       y="665.10742" />
    <rect
       style="fill:#bcbddc;fill-opacity:1;stroke:none"
       id="rect2998"
       width="9.5238094"
       height="472.38095"
       x="507.61905"
       y="454.19049" />
    <rect
       style="fill:#bcbddc;fill-opacity:1;stroke:none"
       id="rect3000"
       width="8.5714283"
       height="460"
       x="460.95239"
       y="465.61905" />
  </g>
  <g
     inkscape:groupmode="layer"
     id="layer3"
     inkscape:label="Ebene#1"
     style="display:inline">
    <path
       style="fill:#756bb1;fill-opacity:1;stroke:none"
       id="path3003"
       d="m 500.07693,437.24367 c 0.59769,1.83834 0.95636,3.75964 1.88184,5.47266 0.51128,1.23357 1.41813,2.04309 2.41471,2.8541 1.31832,0.62058 2.42623,1.59842 3.72032,2.25697 1.35152,0.55858 2.69145,1.1459 4.00799,1.78553 1.218,0.57356 2.35779,1.1774 3.68517,1.45089 1.65346,0.26083 3.33336,0.26321 5.00302,0.27969 2.08992,0.008 4.17987,-7.2e-4 6.26979,-0.005 0.57505,-9e-4 1.19918,0.0486 1.76918,-0.10244 0.13815,-0.0366 0.45462,-0.34664 0.34152,-0.25925 -0.75434,0.5829 -0.50059,0.46202 -0.65278,1.56993 1.06462,0.31459 2.18288,0.48517 3.19385,0.94376 0.009,0.004 -0.28559,0.39575 -0.44908,0.85293 -0.3225,0.90183 -0.48278,1.75952 -0.8479,2.66758 -0.89739,2.04245 -2.20879,3.71249 -4.13352,4.83853 -2.34369,0.82757 -4.41457,-0.0489 -6.28994,-1.4621 -1.38943,-0.86201 -2.68153,-1.89854 -4.13986,-2.64304 -1.50208,-0.5429 -3.11143,-0.66409 -4.67013,-0.99737 -2.01323,-0.32725 -4.01915,-0.72822 -5.94566,-1.40794 -2.2838,-0.68496 -3.41786,-2.36604 -3.99886,-4.56925 -0.0104,-1.52457 -0.97471,-3.37863 -0.31938,-4.86625 0.21741,-0.49353 0.68094,-0.83647 1.02142,-1.2547 2.47071,-1.26746 3.96853,-0.25489 5.8257,1.37652 1.52259,1.18972 2.80152,2.59863 4.0902,4.02689 1.13415,0.95316 2.50642,1.54193 3.71963,2.37581 1.20871,0.97129 2.52852,1.76025 4.00737,2.23004 1.99604,0.55806 2.16376,0.1765 3.59294,-0.94986 3.07841,-2.10734 4.89596,-0.0404 5.15371,3.046 -0.45343,2.98204 -3.28482,3.75727 -5.89297,3.86064 -2.17769,0.007 -3.9448,-0.82587 -5.69755,-2.02871 -1.29444,-1.08915 -2.47086,-2.25789 -3.88567,-3.1863 -1.44383,-0.73936 -3.03793,-1.19535 -4.60428,-1.61105 -2.59578,-0.36872 -3.45399,-1.36213 -5.2456,-3.02935 -1.67754,-1.51561 -2.39997,-3.51022 -2.78728,-5.67444 -0.31878,-1.95279 0.0458,-4.19432 1.99993,-5.19124 0.41785,-0.21317 0.89449,-0.28295 1.34173,-0.42443 2.20718,-0.0734 4.16314,0.95297 6.02688,2.0186 1.32601,0.9679 2.84063,1.4849 4.33012,2.11549 1.34024,0.66075 2.8,0.85469 4.26923,0.97749 1.54137,0.17783 2.97592,-0.31345 4.20961,-1.21306 1.26733,-0.79576 2.53391,-2.5597 4.29276,-1.87306 0.526,0.20534 0.86066,0.7312 1.29098,1.09681 0.59881,1.55027 0.94184,3.52501 0.13232,5.08962 -0.23206,0.44852 -0.5834,0.82446 -0.87511,1.23669 -1.87105,1.74342 -4.31072,2.13482 -6.75858,2.352 -2.65094,0.27433 -4.46245,-0.006 -6.43149,-1.89901 -0.22248,-0.34563 -0.44496,-0.69127 -0.66744,-1.03691 -1.36873,-2.32008 1.91237,-4.25576 3.2811,-1.93568 l 0,0 c 0.051,0.11796 0.10203,0.23591 0.15305,0.35386 0.72525,1.12416 2.19264,0.75983 3.33712,0.72233 1.42448,-0.11881 2.89844,-0.2514 4.15718,-0.99238 0.78125,-0.26253 0.26108,-1.27123 0.3859,-1.82835 0.009,-0.0403 0.0762,0.0321 0.11431,0.0481 0.29051,0.15545 0.54671,0.41109 0.87153,0.46637 0.31712,0.054 1.21174,-0.39841 0.93694,-0.23118 -0.73687,0.44842 -1.27531,1.175 -2.05597,1.56561 -2.0024,1.33985 -4.25299,2.1414 -6.70021,1.87381 -1.87382,-0.16451 -3.73637,-0.45033 -5.45039,-1.27433 -1.6188,-0.71492 -3.29482,-1.27767 -4.74977,-2.32789 -1.03491,-0.63248 -2.20195,-1.12051 -3.29473,-1.58149 -0.26096,-0.8365 -0.92238,1.29093 -0.39265,1.24626 0.22212,1.37025 0.57727,2.60906 1.66047,3.56207 1.21547,1.17595 1.74213,1.92967 3.60414,2.10802 1.95453,0.52797 3.94517,1.10061 5.71079,2.10741 1.43615,0.94552 2.68674,2.06877 3.9503,3.22974 1.10782,0.76206 2.08444,1.37084 3.49632,1.35934 0.62538,0.0358 1.14987,-0.10368 1.75333,-0.25033 0.0882,-0.0214 0.20008,-0.11341 0.26719,-0.0523 0.69998,0.6371 -0.32848,0.15827 0.10812,0.3465 0.0494,-0.12406 -0.0778,-0.3643 0.0516,-0.39725 0.11891,-0.0303 0.21345,0.13367 0.33452,0.15361 0.26272,0.0433 0.53629,0.0814 0.79812,0.0329 0.13061,-0.0242 0.44324,-0.28507 0.31848,-0.2395 -0.18118,0.0662 -0.32859,0.20214 -0.49288,0.30321 -2.49179,1.95657 -4.00777,2.45632 -7.14548,1.57208 -1.85153,-0.62965 -3.55417,-1.55114 -5.07857,-2.78609 -1.07061,-0.99039 -3.33417,-1.5755 -4.28469,-2.89003 -1.18537,-1.32373 -2.35665,-2.62805 -3.77617,-3.71578 -0.45134,-0.39985 -1.33402,-0.86019 -0.82731,-1.34109 0.0445,-0.16457 0.13364,-0.32324 0.13334,-0.4937 -2.7e-4,-0.15359 -0.15611,-0.59269 -0.13499,-0.44056 0.15072,1.08571 0.49936,2.14916 0.52114,3.257 0.22155,1.07096 0.44666,1.58709 1.60931,1.89781 1.7362,0.67687 3.61321,0.90893 5.43199,1.25966 1.89544,0.40593 3.8688,0.52222 5.6477,1.35167 1.62725,0.87378 3.12358,1.96743 4.66745,2.97882 0.72862,0.55741 1.27092,0.93692 2.15896,1.1553 1.23148,-0.55874 1.87791,-1.84577 2.46318,-3.00304 0.57143,-1.16204 0.67566,-2.45383 1.30984,-3.6112 0.1084,-0.19784 0.13158,-0.56026 0.35668,-0.57516 1.21279,-0.0803 2.42202,0.20736 3.63303,0.31104 -0.0265,0.46471 0.0733,0.95446 -0.0795,1.39414 -0.69599,2.00307 -3.34587,2.14213 -5.06864,2.12461 -2.10497,0.004 -4.20998,0.0129 -6.31495,0.004 -1.92831,-0.0194 -3.86908,-0.0302 -5.77404,-0.36639 -1.61767,-0.36373 -3.06216,-1.02546 -4.54169,-1.74739 -1.35542,-0.65929 -2.7362,-1.25509 -4.12412,-1.84445 -1.4975,-0.81104 -2.8548,-1.84745 -4.34747,-2.67291 -1.39908,-1.14599 -2.63373,-2.3777 -3.3925,-4.06087 -1.02873,-2.05695 -1.61056,-4.26302 -2.23076,-6.47005 -0.52829,-2.64143 3.20726,-3.38854 3.73554,-0.74711 z"
       inkscape:connector-curvature="0" />
    <path
       style="fill:#756bb1;fill-opacity:1;stroke:none"
       id="path3005"
       d="m 472.51876,461.90113 c -1.60773,0.7782 -3.04287,1.81715 -4.48164,2.86108 -1.47006,0.68212 -2.48392,1.85485 -3.69468,2.87031 -1.62813,0.95526 -3.27563,2.54146 -5.24184,2.75947 -0.5103,0.0566 -1.02608,-0.0399 -1.53913,-0.0599 -3.49958,-1.49411 -2.66504,-4.03349 -0.15416,-5.96144 1.27193,-1.21927 2.77091,-2.1429 4.17124,-3.19512 1.56204,-1.04254 3.05516,-2.17797 4.5753,-3.27787 0.24502,-0.17994 0.49003,-0.35988 0.73505,-0.53982 2.17126,-1.59432 4.42597,1.4763 2.25471,3.07062 l 0,0 c -0.25366,0.18624 -0.50733,0.37248 -0.761,0.55871 -1.5088,1.08463 -2.98102,2.21845 -4.5314,3.24573 -1.41779,1.04526 -2.90145,1.99727 -4.19099,3.2097 -0.12432,0.0818 -0.2561,0.15316 -0.37295,0.24527 -0.11434,0.0901 -0.25153,0.42893 -0.31802,0.2994 -0.20731,-0.40384 0.44267,-1.52178 -0.83417,-1.42127 -0.20882,0.42858 0.95537,-0.16035 1.37921,-0.37863 0.84298,-0.43412 1.60939,-0.98867 2.40737,-1.49634 1.28342,-1.02448 2.3468,-2.31655 3.88006,-3.01355 1.6929,-1.22511 3.39509,-2.43242 5.30222,-3.31342 2.50107,-1.00043 3.91589,2.53662 1.41482,3.53705 z"
       inkscape:connector-curvature="0" />
    <path
       style="fill:#756bb1;fill-opacity:1;stroke:none"
       id="path3007"
       d="m -0.95238095,649.99818 c 0,2.17218 0,4.34437 0,6.51656 0,2.06166 0,4.12332 0,6.18498 0,2.15188 0,4.30375 0,6.45563 0,1.94094 0,3.88187 0,5.82281 0,1.90319 0,3.80638 0,5.70957 -0.0306839,2.1327 0.0973224,4.2687 -0.12664235,6.39182 -0.3416828,1.74358 -0.5970411,3.49453 -0.7235433,5.26651 0.1797586,1.0416 0.1711495,-0.52565 -0.6854672,-0.67901 -2.7087296,-0.48494 -2.6907515,1.33399 -1.9533063,-0.19276 0.3688832,-1.44168 0.7117665,-2.89724 1.0545982,-4.35071 0.3779004,-1.70915 0.4548018,-3.46099 0.508728,-5.20433 0.040001,-1.88228 0.03142,-3.76517 0.028569,-5.64776 -0.00379,-1.90594 -0.00576,-3.81189 -0.00687,-5.71785 -0.043068,-2.27521 -0.044716,-4.52654 0.2916048,-6.77957 0.3433227,-1.88303 0.5104961,-3.78736 0.6004744,-5.69707 0.068508,-1.87369 0.065394,-3.749 0.066221,-5.62365 -0.079784,-0.81672 0.1483222,-1.67995 -0.098975,-2.48122 -0.042682,-0.13829 -0.3567978,-0.46745 -0.2269002,-0.074 -0.061631,0.19081 0.3106326,0.0975 0.2840892,0.21277 -0.021506,0.0934 -0.8893725,0.59221 -1.0555834,0.76351 -0.1224501,-5.31 -4.1240923,-1.71485 -0.5840455,-3.98174 0.381066,-0.24402 0.6835772,-0.59342 1.0362788,-0.87689 -0.3669296,1.1695 0.5063878,-0.72805 0.452101,-0.50797 -0.4428196,1.79517 -1.1611041,2.7615 1.8709313,2.97839 -0.66072066,1.04693 -1.1406606,2.09364 -1.4004766,3.30787 -0.2771268,1.67975 -0.2802216,3.38856 -0.2968106,5.08629 -0.00759,1.93855 0.00252,3.87713 0.00668,5.81568 0.00416,2.15112 0.00517,4.30223 0.00579,6.45335 3.89e-4,1.94281 2.982e-4,3.88563 2.629e-4,5.82844 -4.72e-5,2.04708 -6.33e-5,4.09416 -7.37e-5,6.14124 -9e-6,2.29734 -8.6e-6,4.59468 -8.8e-6,6.89203 -0.2092997,0.0659 0.2367974,3.00749 3e-7,2.75133 -1.8009866,-1.94827 4.811151,-0.71856 -3.3453664,-0.98628 1.1814608,-2.42082 4.60502219,-0.74998 3.4235614,1.67084 l 0,0 c -1.1517471,0.18045 -2.3071072,0.74351 -3.4552413,0.54134 -0.8051555,-0.14177 -0.3330446,-3.53086 -0.4324778,-3.97723 2e-7,-2.29735 -2e-7,-4.5947 8.8e-6,-6.89205 1.04e-5,-2.0471 2.65e-5,-4.09419 7.37e-5,-6.14129 3.53e-5,-1.94243 1.261e-4,-3.88485 -2.627e-4,-5.82728 -6.148e-4,-2.14876 -0.00162,-4.29752 -0.00578,-6.44628 -0.00418,-1.95383 -0.014446,-3.90769 -0.0065,-5.86153 0.01968,-1.96659 0.032512,-3.94654 0.390077,-5.88722 0.422096,-1.80779 1.1530301,-3.42595 2.223032,-4.94716 0.3544633,-0.36194 1.2894341,-1.50269 1.9533154,-1.33387 3.438204,0.87431 2.7986295,2.69193 1.0035461,4.31081 -0.71848207,0.57735 -1.4178352,1.11235 -2.2208743,1.55992 -0.1629139,0.0908 -0.3133727,0.39634 -0.4726934,0.29937 -1.1042713,-0.67207 -2.1331677,-1.49118 -3.0242781,-2.42767 -0.1192917,-0.12537 0.2304456,-0.25823 0.3456684,-0.38735 1.5075671,-1.28128 3.1978589,-2.22709 5.20334351,-1.43425 2.31504829,1.65791 2.29692839,3.22322 2.23711569,5.85977 -8.703e-4,1.93441 0.00192,3.86952 -0.07052,5.80288 -0.097764,2.03924 -0.2751311,4.07332 -0.6388249,6.0846 -0.31514381,2.06224 -0.27556238,4.12491 -0.24895644,6.20891 0.001108,1.90477 0.003082,3.80953 0.006867,5.7143 0.002912,1.92422 0.011617,3.84876 -0.0304285,5.77266 -0.0631998,1.99868 -0.16608927,4.00533 -0.60928551,5.96261 -0.42074257,1.77217 -0.76216483,3.58209 -1.40880425,5.28176 -1.7590348,3.12738 -4.6429385,2.04567 -4.5137398,-1.21127 0.1333689,-1.82608 0.3733579,-3.63641 0.7390784,-5.43149 0.2615744,-1.96694 0.018632,-3.97293 0.1012,-5.95227 0,-1.90319 0,-3.80638 0,-5.70957 0,-1.94094 0,-3.88187 0,-5.82281 0,-2.15188 0,-4.30375 0,-6.45563 0,-2.06166 0,-4.12332 0,-6.18498 0,-2.17219 0,-4.34438 0,-6.51656 0,-2.69374 3.80952381,-2.69374 3.80952381,0 z"
       inkscape:connector-curvature="0" />
  </g>
</svg>
