<?xml version="1.0" encoding="UTF-8" standalone="no"?>
<!-- Created with Inkscape (http://www.inkscape.org/) -->

<svg
   xmlns:dc="http://purl.org/dc/elements/1.1/"
   xmlns:cc="http://creativecommons.org/ns#"
   xmlns:rdf="http://www.w3.org/1999/02/22-rdf-syntax-ns#"
   xmlns:svg="http://www.w3.org/2000/svg"
   xmlns="http://www.w3.org/2000/svg"
   xmlns:xlink="http://www.w3.org/1999/xlink"
   xmlns:sodipodi="http://sodipodi.sourceforge.net/DTD/sodipodi-0.dtd"
   xmlns:inkscape="http://www.inkscape.org/namespaces/inkscape"
   id="svg2"
   version="1.1"
   inkscape:version="0.48.4 r9939"
   width="984"
   height="1617"
   sodipodi:docname="46693-28.svg">
  <metadata
     id="metadata8">
    <rdf:RDF>
      <cc:Work
         rdf:about="">
        <dc:format>image/svg+xml</dc:format>
        <dc:type
           rdf:resource="http://purl.org/dc/dcmitype/StillImage" />
        <dc:title />
      </cc:Work>
    </rdf:RDF>
  </metadata>
  <defs
     id="defs6" />
  <sodipodi:namedview
     pagecolor="#ffffff"
     bordercolor="#666666"
     borderopacity="1"
     objecttolerance="10"
     gridtolerance="10"
     guidetolerance="10"
     inkscape:pageopacity="0"
     inkscape:pageshadow="2"
     inkscape:window-width="1366"
     inkscape:window-height="744"
     id="namedview4"
     showgrid="false"
     inkscape:zoom="0.54776593"
     inkscape:cx="680.38512"
     inkscape:cy="724.4025"
     inkscape:window-x="0"
     inkscape:window-y="24"
     inkscape:window-maximized="1"
     inkscape:current-layer="svg2" />
  <image
     width="984"
     height="1617"
     xlink:href="file:///tmp/broken-interfaces/phone_cropped_display/46693-28.png"
     id="image10"
     x="0"
     y="0" />
  <g
     inkscape:groupmode="layer"
     id="layer1"
     inkscape:label="Layer">
    <path
       style="fill:#de2d26;fill-opacity:1;fill-rule:nonzero;stroke:none"
       id="g0"
       d="m -12.072023,498.17722 c 2.8194025,1.96961 5.7565881,3.75387 8.5309864,5.79508 2.2931651,1.8474 4.8340166,3.33831 7.1728437,5.12777 1.8344473,1.3775 3.6515529,2.77224 5.3551937,4.31118 1.2833642,1.27727 2.6129552,2.50012 3.8905462,3.78371 1.699731,1.21513 2.889677,3.01155 4.470757,4.34176 1.690011,1.56213 3.188927,3.28941 4.66795,5.0535 1.431316,1.70009 3.05238,3.22447 4.375441,5.0098 1.408769,1.69281 2.724072,3.5071 3.85388,5.40089 1.113077,1.33509 2.064128,2.76051 3.130252,4.11675 1.045059,1.46233 2.146454,2.8411 2.961319,4.45125 0.845892,1.65886 1.950287,3.1093 2.980075,4.64675 1.540376,1.56309 2.728803,3.37808 4.031711,5.1322 1.581324,2.16623 3.061919,4.38577 4.46917,6.6751 1.144809,1.81314 2.129512,3.74837 3.516584,5.38977 1.213527,1.50664 2.281553,3.12514 3.447823,4.67175 1.388991,2.21529 3.005423,4.28994 4.638389,6.33523 2.500259,2.74909 4.698526,5.74556 7.006586,8.65447 2.11346,2.52627 4.058972,5.18001 6.022532,7.82357 1.589602,1.5875 2.977194,3.34212 4.722065,4.76793 2.142608,2.15626 4.265491,4.31392 6.320841,6.55792 2.102155,2.38983 4.474778,4.49515 6.656035,6.81339 2.264708,2.06224 4.496358,4.17312 6.606815,6.39746 2.440714,2.71366 4.735148,5.55869 7.245798,8.21245 1.68086,2.16505 3.82473,3.89155 5.86015,5.70469 2.47584,2.17323 4.6991,4.618 7.23017,6.72555 3.42397,2.58842 6.59183,5.47242 9.51363,8.61203 1.68394,1.78648 3.24697,3.65905 4.79632,5.56375 0.9916,1.24655 2.10198,2.3689 3.01677,3.67198 1.246,1.49729 2.26318,3.16599 3.50354,4.67578 1.54375,2.30562 3.00752,4.65317 4.52431,6.97451 1.90456,2.41427 3.40511,5.0598 5.01726,7.66021 2.43186,3.26148 4.44115,6.8181 6.33553,10.41122 2.77496,4.85239 5.83184,9.51358 8.54538,14.40327 2.65316,5.06264 5.3026,10.12401 7.86506,15.23358 2.45399,4.45057 4.87635,8.9146 7.27619,13.39417 1.74862,3.41567 3.60419,6.77336 5.45914,10.13281 1.30365,1.70102 1.89502,4.12375 3.31369,5.70677 1.15161,1.46265 2.30149,2.94701 3.47525,4.40703 1.1661,1.20709 1.84169,2.78132 3.03219,3.95873 2.03086,2.51754 3.8086,5.24045 5.53438,7.97468 1.8622,3.33725 4.1735,6.35128 6.42544,9.4282 1.45369,2.09902 2.98996,4.12773 4.43964,6.22401 0.79393,1.24306 1.76304,2.36694 2.56921,3.62806 0.84904,0.87283 1.38223,1.95467 2.23162,2.81422 1.40692,1.75663 2.85336,3.47385 4.04584,5.39579 1.51405,2.90297 3.35754,5.60863 5.01034,8.43057 1.57419,2.31289 3.16124,4.60533 4.91565,6.78664 1.83666,2.12653 3.50304,4.38536 5.18874,6.6332 1.17289,1.68451 2.6478,3.11444 3.79241,4.81368 0.82718,1.37678 1.80756,2.62988 2.47411,4.14088 0.71013,0.59214 1.55502,2.06046 1.73714,2.35654 0.9562,1.09626 1.80648,1.99963 2.68469,3.15407 0.96742,1.13301 1.12572,2.63492 1.85716,3.86976 0.56704,0.53229 1.21703,2.97266 1.30318,2.32254 0.82638,0.94686 1.41794,2.05794 1.90188,3.20975 0.0274,0.0704 0.0548,0.14069 0.0822,0.21104 0,0 -5.10361,2.00781 -5.10361,2.00781 l 0,0 c -0.01,-0.0243 -0.0197,-0.0487 -0.0295,-0.073 -0.21923,-0.48513 -0.48059,-0.95088 -0.7071,-1.42881 -1.00951,-1.0664 -1.45338,-2.31239 -2.228,-3.50467 -0.60446,-1.07216 -0.92539,-2.24278 -1.47447,-3.29051 -0.75874,-1.01378 -1.56053,-1.98982 -2.44328,-2.86506 -0.95939,-1.28672 -1.79834,-2.59346 -2.70338,-3.93723 -0.21255,-1.24003 -1.68918,-2.03997 -2.01946,-3.23187 -0.81156,-1.66813 -2.70291,-2.76471 -3.56384,-4.43767 -1.63654,-2.1978 -3.27582,-4.38832 -5.06068,-6.46639 -1.94053,-2.39135 -3.67738,-4.92068 -5.40402,-7.4685 -1.62916,-2.80193 -3.47174,-5.47772 -4.94846,-8.36864 -0.92653,-1.60246 -2.18998,-2.98677 -3.29369,-4.45313 -1.07037,-1.14069 -1.8496,-2.43711 -2.86532,-3.63263 -0.7975,-1.21524 -1.72251,-2.33221 -2.53094,-3.53043 -1.32983,-2.07813 -2.99399,-3.95831 -4.35748,-6.02282 -2.32284,-3.18488 -4.71402,-6.30715 -6.64482,-9.75341 -1.5389,-2.46738 -3.13462,-4.91481 -4.90547,-7.22009 -1.18237,-1.36163 -2.09641,-2.87983 -3.26871,-4.24185 -1.20408,-1.53295 -2.40761,-3.07063 -3.61509,-4.59188 -1.36351,-2.00015 -2.4221,-4.20959 -3.70644,-6.26614 -1.87415,-3.37757 -3.76609,-6.744 -5.53777,-10.17587 -2.42488,-4.52305 -4.86855,-9.033 -7.35389,-13.52373 -2.5298,-5.03867 -5.15439,-10.02396 -7.76494,-15.02133 -2.73696,-4.92755 -5.82414,-9.62523 -8.58995,-14.53548 -1.81489,-3.49268 -3.76422,-6.93371 -6.10683,-10.10374 -1.56732,-2.57272 -3.07278,-5.14962 -4.93391,-7.53784 -1.40503,-2.16624 -2.79831,-4.3299 -4.1769,-6.51447 -1.34322,-1.67446 -2.48277,-3.48497 -3.82756,-5.15348 -0.57466,-1.236 -2.00965,-2.01659 -2.68937,-3.20998 -1.45865,-1.81681 -2.96762,-3.56466 -4.58169,-5.24471 -2.75835,-2.97992 -5.80184,-5.66237 -9.01954,-8.13898 -2.55418,-2.16849 -4.84445,-4.61585 -7.33537,-6.85715 -2.14618,-1.92585 -4.42432,-3.74196 -6.215882,-6.02108 -2.499107,-2.66148 -4.826906,-5.474 -7.238795,-8.20998 -2.103147,-2.23835 -4.348146,-4.33854 -6.607552,-6.4156 -2.197436,-2.34133 -4.616468,-4.44276 -6.72737,-6.86441 -1.883366,-2.07839 -3.833483,-4.07108 -5.781711,-6.08359 -2.020787,-1.74756 -3.798669,-3.71818 -5.602024,-5.68692 -1.921253,-2.59483 -3.855735,-5.17466 -5.922399,-7.65484 -2.320273,-2.89608 -4.492917,-5.90668 -6.988696,-8.65717 -1.679953,-2.09594 -3.310552,-4.2528 -4.74176,-6.52177 -1.075717,-1.47578 -2.093438,-2.99394 -3.244195,-4.40771 -1.551279,-1.86438 -2.740372,-3.9844 -4.009248,-6.04662 -1.317834,-2.17192 -2.709293,-4.26655 -4.217382,-6.30634 -1.330555,-1.85392 -2.633805,-3.68079 -4.180741,-5.37453 -1.078875,-1.74163 -2.400182,-3.32944 -3.289561,-5.19834 -0.632509,-1.2945 -1.582986,-2.35176 -2.393099,-3.54075 -1.186672,-1.57809 -2.357524,-3.14248 -3.548043,-4.72048 -0.976412,-1.78006 -2.32148,-3.38694 -3.575917,-4.97477 -1.108138,-1.73129 -2.902676,-2.97139 -4.099711,-4.64788 -1.320779,-1.56487 -2.614339,-3.13782 -4.138197,-4.5084 -1.613821,-1.50461 -3.006651,-3.23326 -4.7414715,-4.61218 -1.1495017,-1.26802 -2.4898699,-2.34969 -3.6825984,-3.57317 -1.5110432,-1.49207 -3.3204729,-2.64323 -4.97353274,-3.9638 -2.29005326,-1.77823 -4.83070296,-3.19169 -7.07044126,-5.03582 -2.801727,-2.0375 -5.7715101,-3.81679 -8.5685631,-5.85487 0,0 3.318527,-4.4247 3.318527,-4.4247 z"
       inkscape:connector-curvature="0"
       inkscape:label="#path3011" />
  </g>
  <g
     inkscape:groupmode="layer"
     id="layer2"
     inkscape:label="Layer#1">
    <path
       style="fill:#fc9272;fill-opacity:1;fill-rule:nonzero;stroke:none"
       id="g1"
       d="m 243.84631,831.20739 c 2.25781,2.71884 4.11796,5.721 6.11843,8.62629 1.6392,2.38921 2.99212,4.92082 4.34763,7.4805 1.52261,2.52018 2.83383,5.16638 4.15198,7.80179 1.00189,1.9422 2.30492,3.65197 3.5321,5.44208 0.64872,1.26136 1.45392,2.40886 2.31097,3.53463 1.001,1.28894 1.52373,2.95335 2.47526,4.27608 1.14466,1.94522 2.13231,3.97745 3.27455,5.92268 1.14829,1.86996 1.93448,3.90289 3.22812,5.68533 1.49895,2.24141 2.67979,4.66482 4.03456,6.9884 1.29754,2.03257 2.34798,4.21465 3.64479,6.24384 1.52908,2.24399 2.89747,4.57247 4.23268,6.94701 1.23576,2.72902 2.63261,5.35447 4.22675,7.89007 1.9395,3.25064 3.63353,6.63368 5.42706,9.96426 1.83254,3.10218 3.64483,6.21517 5.44483,9.33791 1.67003,3.25691 3.82412,6.20948 5.37314,9.53202 1.28914,2.69429 3.12256,5.04867 4.67144,7.58948 1.65582,2.64852 2.93827,5.52253 4.62114,8.14971 1.66992,2.47683 3.08237,5.09269 4.57334,7.67363 1.11004,1.5581 1.73998,3.35975 2.68654,5.00568 0.7776,1.84517 1.50653,3.6607 2.33205,5.48559 0.42937,1.75185 1.15611,3.30326 1.88832,4.92881 0.7833,1.79555 1.74776,3.52199 2.71718,5.22913 1.06774,2.30996 2.65091,4.32898 3.90685,6.53729 1.15455,1.98052 2.42025,3.76136 3.12625,5.97855 1.19825,2.36922 2.21249,4.81157 3.27595,7.24365 1.31431,2.9909 2.74186,5.945 4.20447,8.8733 1.35991,2.5286 2.2696,5.2722 3.50336,7.8475 1.13554,2.3006 2.07098,4.714 3.28292,6.9716 1.28965,2.6599 2.38996,5.4098 3.67334,8.0737 1.0913,2.5268 1.93972,5.105 3.30012,7.5056 1.78188,3.1342 3.21632,6.4284 4.57046,9.7657 1.29001,3.3458 3.20364,6.3642 4.92576,9.4904 1.30345,2.7917 2.85908,5.4249 3.85001,8.3542 0.72378,2.7287 1.60539,5.4131 2.50136,8.0916 1.20788,3.2237 2.85622,6.2447 4.1814,9.417 0.83114,2.1718 1.73978,4.3349 2.6946,6.4606 1.2703,3.1631 2.89306,6.1603 4.12669,9.3398 1.27917,3.1599 2.84834,6.1989 4.71895,9.0483 2.09957,3.26 3.88881,6.7071 6.04386,9.9312 1.85348,3.2809 3.55544,6.6425 5.44378,9.9096 1.78837,2.9788 3.2757,6.1208 4.94467,9.1663 1.32982,2.3849 2.84967,4.6117 4.36196,6.8777 0.82662,1.353 1.61023,2.6742 2.36484,4.0635 0.5926,1.4661 1.41198,2.7865 2.12099,4.2089 1.29057,1.9695 2.00039,4.262 2.87981,6.4366 1.71083,3.3711 3.06917,6.8991 4.79868,10.2602 2.36116,4.9855 4.54455,10.0565 6.94913,15.0207 2.3818,5.167 4.39101,10.4892 6.57938,15.7363 1.64703,4.9113 3.77706,9.6191 5.8475,14.3577 1.76487,3.9157 3.62827,7.8006 5.22171,11.7902 1.41379,2.8408 3.02685,5.5728 4.46881,8.399 1.56972,2.9015 3.20154,5.7789 4.61424,8.7611 1.57179,2.5132 3.10624,5.0491 4.48888,7.6725 1.98492,2.7327 3.40979,5.7792 5.04924,8.7081 1.15774,2.3278 2.29234,4.6463 3.45295,6.972 1.24191,1.9839 2.45793,3.9937 3.50082,6.0906 0.89672,1.8843 2.0215,3.6612 3.07514,5.4743 1.86048,2.9887 3.57035,6.0803 5.01279,9.2921 2.03421,4.499 3.87505,9.0926 5.55139,13.7362 1.85176,4.7374 3.60348,9.5117 5.64016,14.1742 2.14993,4.938 0.15279,9.9354 2.16265,14.9327 1.56117,4.558 3.69001,8.8887 5.35629,13.4036 1.35012,3.1336 2.71874,6.2978 4.34603,9.298 1.16366,1.7427 1.57881,3.9082 2.814,5.5844 1.07869,1.0112 1.1787,2.5388 1.98325,3.6742 0.60567,1.4371 1.55152,2.4824 2.401,3.7981 0.59995,1.7265 1.39978,2.5848 2.16493,4.3453 1.42849,2.9014 2.53344,5.9377 3.99642,8.8241 2.21303,4.824 3.95001,9.8433 6.08582,14.6997 1.76278,4.5033 4.01746,8.7827 6.10858,13.1355 1.44952,3.5222 3.04754,6.9784 4.53883,10.482 1.317,2.8043 2.81024,5.5235 4.11115,8.3342 0.89116,1.6412 1.64382,3.5211 2.74108,5.0411 0.97127,1.2062 1.52903,2.6512 2.40775,3.9163 1.80242,2.0395 2.82585,4.5594 4.00375,6.9784 2.53546,4.6051 4.54771,9.4809 6.65829,14.2911 2.67362,5.2003 5.20216,10.4706 7.95893,15.6282 2.76029,5.392 4.94088,11.0414 7.40657,16.5706 1.42216,4.3308 3.32183,8.4587 5.14682,12.6248 0.56636,2.1091 1.99375,3.7681 2.8923,5.7192 0.54344,2.0087 0.56572,1.9569 1.30201,3.3548 0.73951,1.5508 0.83444,3.2544 1.51333,4.7038 0.96179,1.852 1.41457,3.9037 1.95412,5.9077 1.70512,5.2341 3.39081,10.4684 4.97317,15.7425 1.95312,6.6654 3.72182,13.3867 5.83839,20.003 1.63094,5.1014 3.51292,10.1225 5.44893,15.1166 1.78259,5.0815 3.81486,10.0713 5.32965,15.2412 1.38755,3.4615 1.90219,7.2391 3.52544,10.5994 0.76215,1.6383 1.48713,3.2806 1.79762,5.067 -0.19335,-1.6174 1.49948,2.9436 1.53949,3.0837 0.88929,1.2134 1.06313,2.7942 1.82806,4.0549 1.1061,1.7894 1.70421,3.8285 2.41573,5.795 1.08003,2.6312 2.13501,5.2382 2.80813,8.0138 0.99459,2.5661 2.04298,5.1131 2.88942,7.7334 0.73629,3.1752 1.90275,6.2222 3.06511,9.2585 1.23057,2.9508 2.54802,5.8261 3.95857,8.6918 1.13702,1.6905 1.13822,3.774 1.78946,5.6114 0.69272,1.7147 1.16279,3.4047 1.1873,5.2461 l -5.45582,-0.6731 0,0 c 0.40509,2.2463 -0.78655,-2.9237 -1.0402,-3.0337 -0.42267,-1.6061 -0.57113,-3.2458 -1.45301,-4.7027 -1.48654,-3.0186 -2.90885,-6.0356 -4.17909,-9.1564 -1.19415,-3.1341 -2.41024,-6.2773 -3.16743,-9.5526 -0.86661,-2.7585 -2.02596,-5.4103 -2.98666,-8.1366 -0.60285,-2.5849 -1.66515,-4.9769 -2.63371,-7.4357 -0.6119,-1.7379 -1.10378,-3.545 -2.09499,-5.1128 -0.8204,-1.6784 -1.40194,-3.4581 -2.23914,-5.1309 -0.34164,-1.3121 -1.24809,-2.3451 -1.66135,-3.6523 -0.19017,-1.2663 -0.87862,-2.3845 -1.3576,-3.5635 -1.75377,-3.6443 -2.50492,-7.6485 -3.91575,-11.4307 -1.46612,-5.0203 -3.46454,-9.8562 -5.18001,-14.7946 -1.96364,-5.1007 -3.89843,-10.2171 -5.58429,-15.416 -2.13871,-6.6507 -3.93749,-13.4039 -5.89709,-20.1087 -1.57888,-5.3418 -3.25327,-10.6462 -4.92224,-15.9594 -0.42416,-1.7007 -0.74799,-3.4359 -1.58664,-4.9844 -0.66687,-1.4503 -1.00213,-2.9206 -1.38098,-4.454 -0.61773,-1.1686 -1.17652,-2.3544 -1.44294,-3.6392 -0.88226,-1.9671 -2.45295,-3.596 -2.9614,-5.7524 -1.85902,-4.142 -3.77343,-8.2579 -5.18558,-12.5833 -2.43363,-5.4042 -4.56194,-10.9342 -7.25151,-16.2178 -2.81278,-5.2898 -5.4139,-10.6841 -8.13923,-16.0188 -2.08171,-4.7488 -4.0444,-9.5701 -6.52789,-14.1258 -1.04251,-2.1758 -1.88885,-4.4557 -3.52743,-6.2716 -0.91265,-1.3318 -1.54087,-2.8134 -2.53126,-4.0883 -1.10941,-1.8433 -2.15383,-3.7603 -3.11455,-5.6821 -1.30719,-2.8664 -2.88596,-5.607 -4.19126,-8.4767 -1.45216,-3.4257 -3.04495,-6.7882 -4.45812,-10.2309 -2.12674,-4.4069 -4.40734,-8.7444 -6.19731,-13.3061 -2.09908,-4.7717 -3.85273,-9.6822 -5.9549,-14.4526 -1.50307,-3.032 -2.66868,-6.1969 -4.11444,-9.2541 -0.39347,-1.2106 -1.44902,-2.1339 -1.66916,-3.4125 -0.81746,-1.2451 -1.79875,-2.3969 -2.38651,-3.7717 -0.74081,-1.1604 -1.01437,-2.4739 -1.88406,-3.5197 -1.32721,-1.9153 -2.05161,-4.1319 -3.20932,-6.1534 -1.71397,-3.2453 -3.26606,-6.5965 -4.68332,-9.9827 -1.64686,-4.4661 -3.79498,-8.7342 -5.32685,-13.2478 -1.97963,-4.9526 0.0245,-9.8953 -2.10376,-14.785 -2.06504,-4.7829 -3.87346,-9.6658 -5.76829,-14.5174 -1.61131,-4.5264 -3.42599,-8.9899 -5.38228,-13.3782 -1.31093,-3.0492 -2.9853,-5.9373 -4.69956,-8.7758 -1.10378,-1.9292 -2.26345,-3.8273 -3.25609,-5.8103 -0.99718,-2.0964 -2.29159,-4.0394 -3.46559,-6.0376 -1.14054,-2.2506 -2.23908,-4.5047 -3.3719,-6.7578 -1.64457,-2.9807 -3.13769,-6.0359 -5.11966,-8.8266 -1.40189,-2.7022 -3.01359,-5.2804 -4.57885,-7.8895 -1.37196,-2.9397 -3.04255,-5.7372 -4.55744,-8.6042 -1.50519,-2.9822 -3.22214,-5.8504 -4.67449,-8.8605 -1.5608,-3.9353 -3.46964,-7.7355 -5.18897,-11.6033 -2.08385,-4.7656 -4.2293,-9.5027 -5.88686,-14.4418 -2.15271,-5.1508 -4.13879,-10.3713 -6.46584,-15.4497 -2.38028,-4.9317 -4.55123,-9.9649 -6.86926,-14.9262 -1.78364,-3.5218 -3.21553,-7.1968 -4.96282,-10.7373 -0.81082,-2.0389 -1.46008,-4.1741 -2.65856,-6.023 -0.68779,-1.3527 -1.43796,-2.676 -2.0443,-4.0565 -0.67025,-1.2365 -1.32809,-2.4464 -2.10611,-3.6079 -1.6202,-2.3892 -3.22399,-4.7609 -4.64072,-7.281 -1.66646,-3.0074 -3.1135,-6.1321 -4.90949,-9.0665 -1.81745,-3.1674 -3.48213,-6.4132 -5.24335,-9.6053 -2.1595,-3.2487 -4.00345,-6.6852 -6.08455,-9.9832 -2.05343,-3.19 -3.83154,-6.5589 -5.24414,-10.0833 -1.18407,-3.1089 -2.80649,-6.0208 -4.0036,-9.1248 -0.92539,-2.1655 -1.88005,-4.3273 -2.73018,-6.5192 -1.40526,-3.2937 -3.14041,-6.4357 -4.34775,-9.8162 -0.88523,-2.6712 -1.74292,-5.3544 -2.46306,-8.0726 -0.89015,-2.6177 -2.36175,-4.9368 -3.48907,-7.4513 -1.81839,-3.3214 -3.85398,-6.5257 -5.21214,-10.0806 -1.26193,-3.1304 -2.5935,-6.2205 -4.25625,-9.162 -1.37583,-2.517 -2.38919,-5.1576 -3.46316,-7.811 -1.23432,-2.617 -2.35039,-5.2887 -3.58154,-7.9052 -1.20167,-2.3648 -2.24034,-4.8129 -3.39379,-7.2049 -1.15176,-2.5557 -2.13315,-5.1811 -3.43381,-7.6767 -1.52298,-3.0146 -2.97154,-6.0784 -4.34601,-9.157 -1.13517,-2.6456 -2.29117,-5.26726 -3.47626,-7.89083 -0.44733,-1.84257 -1.88552,-3.12686 -2.65579,-4.83118 -1.21556,-2.21423 -2.85107,-4.19629 -3.88537,-6.51209 -1.06387,-1.87064 -2.08009,-3.78279 -2.96024,-5.74302 -0.67668,-1.60562 -1.49383,-3.13904 -1.86153,-4.86312 -0.75921,-1.66059 -1.46016,-3.32198 -2.09516,-5.02869 -0.94333,-1.65308 -1.58295,-3.44181 -2.70299,-4.99546 -1.43628,-2.52537 -2.85346,-5.04361 -4.46821,-7.46465 -1.66869,-2.68128 -3.02014,-5.54595 -4.67355,-8.23964 -1.63125,-2.73098 -3.62305,-5.23745 -4.97087,-8.1375 -1.43899,-3.1861 -3.60651,-5.94861 -5.14952,-9.08144 -1.81797,-3.1746 -3.65573,-6.33391 -5.52718,-9.47644 -1.72742,-3.22915 -3.36869,-6.50306 -5.22855,-9.65995 -1.61848,-2.61228 -3.10124,-5.29059 -4.34133,-8.1047 -1.30792,-2.30774 -2.58671,-4.60018 -4.11649,-6.76491 -1.27463,-2.11143 -2.4214,-4.29333 -3.73487,-6.38452 -1.24989,-2.18963 -2.38412,-4.4405 -3.75298,-6.56255 -1.35027,-1.94785 -2.32159,-4.06854 -3.50458,-6.11048 -1.09647,-1.92594 -2.0933,-3.90423 -3.19706,-5.82648 -0.71007,-1.24497 -1.32304,-2.66835 -2.11395,-3.78071 -0.94195,-1.20934 -1.8257,-2.4586 -2.54058,-3.81777 -1.2935,-2.00703 -2.83631,-3.85434 -3.89048,-6.02466 -1.31815,-2.59228 -2.59393,-5.20626 -4.10007,-7.69219 -1.26302,-2.36424 -2.45359,-4.73442 -4.01712,-6.91905 -1.97984,-2.83588 -3.80465,-5.77693 -5.97814,-8.47326 z"
       inkscape:connector-curvature="0"
       inkscape:label="#path3018"
       sodipodi:nodetypes="cccccccccccccccccccccccccccccccccccccccccccccccccccccccccccccccccccccccccccccccccccccccccccccccccccccccccccccccccccccccccccccccccccccccccccccccccccccccccccccccccccccccccccccccccccccccccccccccccccccccc" />
  </g>
</svg>
