<?xml version="1.0" encoding="UTF-8" standalone="no"?>
<!-- Created with Inkscape (http://www.inkscape.org/) -->

<svg
   xmlns:dc="http://purl.org/dc/elements/1.1/"
   xmlns:cc="http://creativecommons.org/ns#"
   xmlns:rdf="http://www.w3.org/1999/02/22-rdf-syntax-ns#"
   xmlns:svg="http://www.w3.org/2000/svg"
   xmlns="http://www.w3.org/2000/svg"
   xmlns:xlink="http://www.w3.org/1999/xlink"
   xmlns:sodipodi="http://sodipodi.sourceforge.net/DTD/sodipodi-0.dtd"
   xmlns:inkscape="http://www.inkscape.org/namespaces/inkscape"
   id="svg2"
   version="1.1"
   inkscape:version="0.48.4 r9939"
   width="136"
   height="182"
   sodipodi:docname="46693-88.svg">
  <metadata
     id="metadata8">
    <rdf:RDF>
      <cc:Work
         rdf:about="">
        <dc:format>image/svg+xml</dc:format>
        <dc:type
           rdf:resource="http://purl.org/dc/dcmitype/StillImage" />
        <dc:title />
      </cc:Work>
    </rdf:RDF>
  </metadata>
  <defs
     id="defs6" />
  <sodipodi:namedview
     pagecolor="#ffffff"
     bordercolor="#666666"
     borderopacity="1"
     objecttolerance="10"
     gridtolerance="10"
     guidetolerance="10"
     inkscape:pageopacity="0"
     inkscape:pageshadow="2"
     inkscape:window-width="1280"
     inkscape:window-height="732"
     id="namedview4"
     showgrid="false"
     inkscape:zoom="2.5934066"
     inkscape:cx="4.146418"
     inkscape:cy="95.691766"
     inkscape:window-x="-8"
     inkscape:window-y="-8"
     inkscape:window-maximized="1"
     inkscape:current-layer="layer4" />
  <image
     width="136"
     height="182"
     xlink:href="file:///tmp/broken-interfaces/phone_cropped_display/46693-88.png"
     id="image10"
     x="0"
     y="0" />
  <g
     inkscape:groupmode="layer"
     id="layer3"
     inkscape:label="Ebene#1"
     style="display:inline">
    <path
       style="fill:#bcbddc;stroke:none"
       d="m -0.77118644,-1.1567791 0.38559322,60.1525421 67.86440622,-1.15678 10.79661,21.978814 11.567797,15.423729 12.72458,13.495764 19.27966,29.69068 0.77118,45.5 15.80933,0.38559 -0.77119,-185.08474588 z"
       id="path3850"
       inkscape:connector-curvature="0" />
    <path
       style="fill:#756bb1;fill-opacity:1;stroke:none"
       d="m 124.20658,183.74192 -1.20891,-0.15221 -0.22825,-3.54561 c -0.12554,-1.95009 -0.34129,-12.11932 -0.47945,-22.59829 l -0.25121,-19.05268 -9.66228,-14.87952 -9.66227,-14.87953 -6.330119,-6.74017 C 89.911805,95.002363 89.472757,94.47277 82.433286,85.066154 78.735748,80.125251 77.859337,78.598128 72.967485,68.572269 L 67.576503,57.523427 63.334977,57.725898 C 55.870051,58.082236 0.2768025,58.814609 0.02215963,58.559963 -0.11270942,58.425094 -0.3050107,44.925071 -0.40517652,28.559911 L -0.58729621,-1.1949256 26.939518,-0.93855785 c 15.139749,0.14100222 46.201897,0.25650139 69.026995,0.2566648 l 41.500177,2.971e-4 0.24146,65.45444895 c 0.1328,35.999947 0.34891,77.557257 0.48026,92.349577 l 0.23881,26.89513 -6.50587,-0.0617 c -3.57822,-0.0339 -7.04987,-0.13021 -7.71477,-0.21393 z"
       id="path3853"
       inkscape:connector-curvature="0" />
  </g>
  <g
     inkscape:groupmode="layer"
     id="layer4"
     inkscape:label="Ebene#2"
     style="display:inline">
    <path
       style="fill:#756bb1;stroke:none"
       d="M -0.77118644,58.995763 0,183.54237 122.61864,183.15678 123.00424,139.19915 102.1822,108.73729 83.673729,88.686441 67.864407,57.838983 z"
       id="path3855"
       inkscape:connector-curvature="0" />
  </g>
  <g
     inkscape:groupmode="layer"
     id="layer2"
     inkscape:label="Ebene"
     style="display:inline">
    <path
       style="fill:#756bb1;stroke:none"
       d="M 25.449152,28.533899 36.245763,42.800848 49.355932,45.114407 57.838983,45.5 66.322034,41.644068 68.25,26.605933 64.394068,13.11017 l -16.966102,0 0,6.940678 -6.169492,4.627119 z"
       id="path3079"
       inkscape:connector-curvature="0" />
  </g>
  <g
     inkscape:groupmode="layer"
     id="layer1"
     inkscape:label="damage5"
     style="display:inline">
    <g
       id="g0"
       inkscape:label="#g3019" />
    <path
       style="fill:#de2d26;fill-opacity:1;stroke:none"
       id="path3044"
       d="m 2.5917768,57.437524 c -0.8114281,0.677954 -1.67179843,1.290995 -2.5389951,1.894726 -0.95278132,0.660701 -1.8909792,1.341373 -2.8405703,2.006936 -0.3081758,0.271396 -0.6481125,0.501853 -0.9436838,0.787602 -0.031469,0.03042 -0.1037204,0.137587 -0.089324,0.09625 0.3133177,-0.899599 0.5620316,-0.190067 -0.8310316,-1.216326 0.6616383,-0.414074 1.229755,-0.9529 1.8338733,-1.442434 0.8325517,-0.583759 1.5790713,-1.26993 2.36135767,-1.915687 C 0.38241008,57.023035 1.2683994,56.466082 2.125006,55.866174 2.8569502,55.287068 3.6278397,54.762171 4.2963786,54.108763 4.9582848,53.464364 5.6486219,52.862851 6.3918697,52.313572 7.1622484,51.718317 7.940187,51.131079 8.7468785,50.58558 c 0.7532893,-0.43485 1.4372985,-0.973972 2.1765985,-1.428517 0.521531,-0.387042 1.101719,-0.67924 1.60143,-1.094754 0.568703,-0.447283 1.13314,-0.90301 1.680863,-1.377018 0.63287,-0.565695 1.323481,-1.059624 1.92574,-1.659895 0.529005,-0.527992 1.061383,-1.019673 1.719268,-1.382524 0.671504,-0.255726 1.336627,-0.508353 1.965593,-0.857886 0.68351,-0.461576 1.315618,-1.004394 1.928311,-1.555767 0.628011,-0.51236 1.263402,-1.026345 1.967734,-1.430044 0.499707,-0.334769 1.046691,-0.58291 1.561808,-0.893291 0.552884,-0.319958 1.099007,-0.649643 1.652826,-0.969612 0.44211,-0.328621 0.863894,-0.682895 1.286233,-1.037957 0.617976,-0.521411 1.232421,-1.049494 1.904677,-1.500869 0.675937,-0.49794 1.420985,-0.89137 2.114589,-1.360651 0.518203,-0.524634 1.096378,-0.976613 1.719034,-1.369334 0.671972,-0.394194 1.36527,-0.727689 2.031848,-1.131947 0.600973,-0.417792 1.154917,-0.896209 1.738152,-1.336935 0.734537,-0.572705 1.484232,-1.124071 2.226657,-1.686485 0.763639,-0.561168 1.651375,-0.922082 2.548275,-1.210294 0.563851,-0.197831 1.065669,-0.507357 1.542895,-0.862304 0.735155,-0.586663 1.383909,-1.269618 2.089551,-1.889626 0.940931,-0.800617 1.936591,-1.535236 2.946727,-2.245637 0.553993,-0.415847 1.034676,-0.916483 1.616513,-1.292564 0.929222,-0.570966 1.736691,0.743153 0.807469,1.314119 l 0,0 c -0.575218,0.310348 -0.974503,0.902109 -1.536738,1.240076 -0.965475,0.678952 -1.917788,1.380026 -2.817839,2.144347 -0.740209,0.645734 -1.412008,1.36842 -2.19052,1.970813 -0.615167,0.450301 -1.265374,0.844 -1.991252,1.090812 -0.731665,0.228805 -1.458579,0.520734 -2.084109,0.969975 -0.744212,0.563083 -1.495167,1.115555 -2.230925,1.689705 -0.626581,0.467866 -1.214269,0.987361 -1.865712,1.423195 -0.661774,0.400391 -1.346732,0.736617 -2.015452,1.121876 -0.616069,0.377225 -1.143843,0.858553 -1.677461,1.342499 -0.69994,0.463545 -1.437765,0.869138 -2.118484,1.363247 -0.62907,0.411434 -1.188165,0.918953 -1.76589,1.397015 -0.491473,0.412471 -0.981092,0.827815 -1.508524,1.193507 -0.547217,0.313915 -1.086238,0.63782 -1.630062,0.956243 -0.529536,0.315593 -1.087523,0.574658 -1.60085,0.915903 -0.614808,0.331047 -1.142292,0.809235 -1.692866,1.233785 -0.702734,0.625495 -1.41805,1.252116 -2.213413,1.757704 -0.636,0.346897 -1.296278,0.636333 -1.983258,0.867451 -0.53859,0.26948 -0.925405,0.718271 -1.363102,1.120924 -0.632541,0.616369 -1.333692,1.148154 -1.998676,1.727174 -0.558386,0.482357 -1.133972,0.945928 -1.712053,1.403274 -0.561314,0.455112 -1.189809,0.802639 -1.778649,1.220211 -0.723629,0.431474 -1.380311,0.972691 -2.1152521,1.389267 -0.7902756,0.529949 -1.5459324,1.110219 -2.3003377,1.689414 -0.68755,0.507565 -1.3258872,1.062706 -1.9366887,1.660409 -0.7312799,0.707895 -1.5598222,1.292165 -2.362537,1.915457 -0.8246222,0.576092 -1.6742018,1.115134 -2.48609038,1.709924 -0.78801079,0.644792 -1.53500772,1.338005 -2.37103502,1.923577 -0.6326131,0.510422 -1.2260026,1.074203 -1.9184827,1.506178 -0.461451,-0.176317 -1.0263723,-0.188547 -1.3843531,-0.52895 -0.3562862,-0.338791 1.3525297,-1.548833 1.4779092,-1.664651 0.9509254,-0.666482 1.8909094,-1.347456 2.84456513,-2.009726 0.85238416,-0.593415 1.6973711,-1.196278 2.49482027,-1.862799 0.8724978,-0.654373 1.7979216,0.579525 0.9254237,1.233899 z"
       inkscape:connector-curvature="0" />
    <path
       style="fill:#de2d26;fill-opacity:1;stroke:none"
       id="path3046"
       d="m 51.280165,23.196693 c 0.83314,0.273453 1.647239,0.603851 2.460501,0.931442 0.711848,0.277805 1.395666,0.626702 2.070164,0.984935 0.530007,0.252634 1.05229,0.521344 1.57175,0.796164 0.65997,0.445462 1.102186,0.904048 1.046085,1.738609 0.279845,-0.261936 -0.21108,0.345286 -0.112567,0.33181 0.04462,-0.0061 0.03329,-0.157192 0.02703,-0.165019 -0.13068,-0.16346 -0.2886,-0.303144 -0.4329,-0.454716 0.508995,0.203672 0.655405,0.749485 0.817511,1.197755 0.236965,0.655222 0.154024,1.365972 0.291258,2.035724 0.119049,0.355333 0.117695,0.810479 0.332604,1.129193 0.466377,0.985875 -0.927861,1.645431 -1.394238,0.659556 l 0,0 c -0.211007,-0.486349 -0.36112,-0.995063 -0.456711,-1.517561 -0.09817,-0.597857 -0.08321,-1.208717 -0.229376,-1.799342 -0.196728,-0.608507 -0.521259,-0.763178 0.190697,-0.228911 0.0132,0.0099 -0.03131,-0.01047 -0.04697,-0.01571 -0.174593,-0.161842 -0.379068,-0.296491 -0.523779,-0.485526 -0.215556,-0.28158 -0.0873,-0.867217 0.06678,-1.154223 0.01582,-0.02946 -0.01774,0.06449 -0.02662,0.09673 0.01637,0.640849 0.251801,0.375818 -0.271236,-0.0056 -0.519602,-0.275955 -1.041085,-0.546614 -1.573204,-0.796936 -0.627165,-0.333571 -1.261406,-0.660737 -1.924433,-0.91697 -0.723944,-0.293971 -1.454153,-0.572893 -2.184834,-0.848936 -1.069443,-0.213888 -0.766959,-1.726309 0.302484,-1.512421 z"
       inkscape:connector-curvature="0" />
    <path
       style="fill:#de2d26;fill-opacity:1;stroke:none"
       id="path3048"
       d="m 139.60061,164.15534 c -0.55017,-0.85921 -1.12808,-1.70104 -1.73413,-2.5218 -0.74184,-0.95707 -1.4829,-1.91422 -2.19022,-2.89711 -0.55889,-0.76748 -0.94656,-1.63903 -1.44472,-2.4419 -0.51903,-0.66737 -1.09065,-1.28571 -1.57323,-1.98232 -0.41465,-0.60333 -0.88469,-1.15642 -1.35358,-1.71717 -0.45628,-0.65193 -0.91929,-1.30633 -1.29108,-2.01087 -0.38846,-0.65904 -0.72599,-1.35273 -1.144,-1.99364 -0.37967,-0.56388 -0.80678,-1.09269 -1.21196,-1.64081 -0.46271,-0.61978 -0.78589,-1.31637 -1.0855,-2.02502 -0.23256,-0.77534 -0.57573,-1.49733 -0.94384,-2.2142 -0.35135,-0.72937 -0.79752,-1.38788 -1.27949,-2.03483 -0.54258,-0.47249 -1.07793,-0.93169 -1.54356,-1.48728 -0.56811,-0.69251 -1.06143,-1.44397 -1.5536,-2.19154 -0.49217,-0.76214 -1.10726,-1.43097 -1.63476,-2.16478 -0.53889,-0.79862 -0.98633,-1.65695 -1.40752,-2.52239 -0.34927,-0.61699 -0.71333,-1.23041 -1.00764,-1.87598 -0.26691,-0.63892 -0.68616,-1.17617 -1.09259,-1.72751 -0.56158,-0.57026 -1.06841,-1.17181 -1.45986,-1.87151 -0.30388,-0.67362 -0.58462,-1.35497 -0.84879,-2.04525 -0.19584,-0.47483 -0.48413,-0.80701 -0.88978,-1.11021 -0.54216,-0.47077 -1.01032,-1.02791 -1.38196,-1.64114 -0.38849,-0.66688 -0.67674,-1.38427 -1.0708,-2.04799 -0.43474,-0.7734 -0.90697,-1.52838 -1.41345,-2.25707 -0.53308,-0.74203 -1.27661,-1.29047 -1.90912,-1.94183 -0.55305,-0.64133 -1.01654,-1.34228 -1.45442,-2.06444 -0.40679,-0.64943 -0.79974,-1.30257 -1.32317,-1.86649 -0.47136,-0.47594 -0.87105,-1.00916 -1.29504,-1.52541 -0.39692,-0.56709 -0.77297,-1.13256 -1.24156,-1.64363 -0.51207,-0.40471 -1.05868,-0.76953 -1.59511,-1.14371 -0.655786,-0.33555 -1.203414,-0.84967 -1.684853,-1.39936 -0.345151,-0.56319 -0.756072,-1.03743 -1.2196,-1.501 -0.478598,-0.40694 -0.937159,-0.83463 -1.404335,-1.25454 -0.495632,-0.45017 -0.900474,-0.96961 -1.271709,-1.52423 -0.373518,-0.39263 -0.57222,-0.90916 -0.916716,-1.32258 -0.503272,-0.36564 -0.892061,-0.861297 -1.314251,-1.312025 -0.409458,-0.565938 -0.999354,-0.939676 -1.467317,-1.4484 -0.48178,-0.450511 -0.732629,-1.061479 -1.166099,-1.550909 -0.428281,-0.555172 -0.948274,-1.024913 -1.3473,-1.602183 -0.370483,-0.475513 -0.710119,-0.961607 -1.008234,-1.4861 -0.20964,-0.264619 -0.09573,-0.114754 -0.336993,-0.453154 -0.632548,-0.888448 0.623908,-1.783005 1.256456,-0.894557 l 0,0 c 0.256722,0.361141 0.116552,0.165731 0.421446,0.585558 0.279769,0.49222 0.603187,0.943945 0.950294,1.392154 0.334016,0.537758 0.871261,0.920796 1.227403,1.445277 0.425047,0.493824 0.701703,1.072815 1.154802,1.538084 0.433651,0.518163 1.071812,0.841727 1.444639,1.42349 0.450521,0.486647 0.886049,0.985053 1.398741,1.410864 0.351573,0.462161 0.610421,0.981911 0.989395,1.423341 0.295118,0.45353 0.61803,0.86689 1.020216,1.23162 0.484114,0.44026 0.966602,0.88005 1.461415,1.3089 0.488816,0.49116 0.940175,0.99125 1.299073,1.58694 0.385467,0.46688 0.861307,0.85998 1.398887,1.13986 0.62616,0.44075 1.27866,0.85446 1.84871,1.36662 0.48656,0.53466 0.89761,1.11336 1.30046,1.71205 0.40089,0.49877 0.78585,1.00576 1.23919,1.46034 0.57816,0.64655 1.05152,1.36283 1.50004,2.10352 0.37875,0.6247 0.77416,1.23328 1.24592,1.79359 0.68394,0.71586 1.50795,1.30251 2.06635,2.13365 0.52644,0.76126 1.02179,1.54675 1.47514,2.35353 0.38988,0.66731 0.69376,1.37657 1.0719,2.04986 0.25276,0.45859 0.62594,0.84786 1.00238,1.20707 0.60501,0.48577 1.09351,1.0411 1.37989,1.77451 0.23833,0.62593 0.49337,1.24292 0.76149,1.85605 0.34147,0.64971 0.8665,1.15235 1.34885,1.69716 0.46966,0.64063 0.94673,1.27269 1.25804,2.01169 0.27569,0.63567 0.66014,1.22254 0.98728,1.83228 0.38244,0.79126 0.7923,1.57477 1.28011,2.30646 0.51957,0.75719 1.17855,1.41895 1.66272,2.2058 0.46014,0.69896 0.91917,1.40307 1.44934,2.0512 0.48186,0.57988 1.08042,1.01015 1.597,1.55504 0.53148,0.71515 1.02207,1.44853 1.41418,2.25111 0.38562,0.75133 0.74983,1.50846 0.99342,2.32057 0.25074,0.59971 0.51699,1.18869 0.90849,1.71221 0.41915,0.57718 0.87239,1.1247 1.26567,1.71917 0.43503,0.68701 0.81052,1.4117 1.21519,2.11683 0.30757,0.61126 0.73089,1.15941 1.1047,1.73078 0.49987,0.59779 0.9974,1.19217 1.44173,1.83333 0.49151,0.72359 1.1136,1.33697 1.61754,2.05062 0.4698,0.7761 0.85744,1.6013 1.38097,2.34594 0.70373,0.97797 1.44192,1.92963 2.17947,2.88235 0.60283,0.81785 1.18361,1.65337 1.72685,2.51202 0.65437,0.8725 -0.57952,1.79792 -1.2339,0.92543 z"
       inkscape:connector-curvature="0" />
    <path
       style="fill:#de2d26;fill-opacity:1;stroke:none"
       id="path3050"
       d="M 87.653641,91.864172 C 87.003139,91.313587 86.522476,90.613315 86.027702,89.929925 85.647123,89.394281 85.404418,88.77734 85.074864,88.213806 84.801101,87.697468 84.431766,87.234129 84.055907,86.787516 83.480704,86.122008 82.841934,85.522483 82.245229,84.877954 81.793099,84.330486 81.417744,83.727492 81.018607,83.14138 80.556753,82.557425 80.136977,81.93711 79.633378,81.387584 79.17952,80.860569 78.831355,80.263719 78.515241,79.647844 78.19128,78.980802 77.919645,78.293245 77.610381,77.619967 77.47619,77.086484 77.094567,76.770411 76.730946,76.393148 76.294486,76.046678 75.945041,75.607216 75.531971,75.236711 75.02784,74.768129 74.69796,74.168202 74.327317,73.600377 74.045689,73.043373 73.727323,72.506186 73.434407,71.9544 73.106483,71.429878 72.704888,70.960848 72.366397,70.442918 71.951382,69.787615 71.587846,69.103033 71.192681,68.435875 70.763057,67.754958 70.371872,67.04925 70.009483,66.330365 69.6611,65.58948 69.50422,64.775468 69.20174,64.018916 68.931479,63.356067 68.604401,62.715107 68.267415,62.0835 c -0.443627,-0.630729 -0.915689,-1.239032 -1.362938,-1.867183 -0.44272,-0.690272 -0.935461,-1.340143 -1.295098,-2.079881 -0.23745,-0.686627 -0.492288,-1.359478 -0.845296,-1.995343 -0.317611,-0.679454 -0.740799,-1.299395 -1.077783,-1.967475 -0.370517,-0.64941 -0.709107,-1.314115 -1.058417,-1.975095 -0.372079,-0.689627 -0.5799,-1.43552 -0.817878,-2.175644 -0.228839,-0.757457 -0.436451,-1.522921 -0.698462,-2.26991 -0.203616,-0.735657 -0.598591,-1.387126 -0.914481,-2.074442 -0.249152,-0.376749 -0.425441,-0.873084 -0.825349,-1.120452 -0.600725,-0.385018 -0.993574,-0.879865 -1.319669,-1.5088 -0.316039,-0.735731 -0.519025,-1.520492 -0.714983,-2.29653 -0.09428,-0.720412 -0.32673,-1.406524 -0.477946,-2.114785 -0.05334,-0.664137 -0.260087,-1.293765 -0.392294,-1.943333 -0.136858,-0.543751 -0.154343,-1.104113 -0.167293,-1.661504 -0.131874,-0.671272 0.193922,-1.322249 0.18151,-1.979307 0.0065,-0.67535 -0.158708,-1.320054 -0.302874,-1.973441 -0.208466,-0.507108 -0.328449,-1.061651 -0.659901,-1.50785 -0.310662,-0.449647 -0.754625,-0.755134 -1.102002,-1.187574 -0.433281,-0.588737 -0.789078,-1.216576 -1.095363,-1.879668 -0.202835,-0.541394 -0.424076,-1.099413 -0.806617,-1.541648 -0.318204,-0.400661 -0.663816,-0.790214 -1.045816,-1.132544 -0.3634,-0.349938 -0.698262,-0.674476 -0.913908,-1.134711 -0.279228,-1.054272 1.211737,-1.44916 1.490965,-0.394888 l 0,0 c -0.351083,-0.644859 0.299561,0.33536 0.469681,0.396792 0.429156,0.403834 0.838858,0.834707 1.201414,1.299276 0.436045,0.56237 0.780167,1.18832 1.006432,1.865161 0.25029,0.551718 0.541994,1.070243 0.8987,1.56009 0.366066,0.462544 0.875903,0.770971 1.17604,1.288478 0.405309,0.629581 0.662394,1.324451 0.886572,2.036995 0.171952,0.780485 0.354139,1.556952 0.337976,2.363071 -0.03916,0.636398 -0.24841,1.243182 -0.180837,1.886601 0.01043,0.467135 0.01862,0.936992 0.137346,1.392215 0.128031,0.644412 0.338406,1.270534 0.389379,1.929197 0.143466,0.689256 0.376971,1.356573 0.464764,2.057727 0.165109,0.661772 0.341674,1.328124 0.588775,1.96311 0.228341,0.441865 0.440207,0.731255 0.890799,0.995694 0.564014,0.464 0.958529,1.053745 1.288225,1.703514 0.329713,0.733177 0.755334,1.424875 0.968094,2.208503 0.261202,0.761051 0.48217,1.535614 0.71074,2.30684 0.206964,0.654794 0.38342,1.314267 0.712283,1.923797 0.354531,0.672584 0.699761,1.347602 1.075593,2.00862 0.317845,0.653355 0.749138,1.247061 1.048608,1.911661 0.361015,0.663269 0.656607,1.353866 0.885616,2.074056 0.307412,0.664802 0.781611,1.224721 1.159189,1.848838 0.485857,0.682377 1.007627,1.33733 1.468353,2.037699 0.364294,0.687244 0.720488,1.382819 1.011498,2.104395 0.26996,0.717043 0.451728,1.466255 0.747137,2.174528 0.343972,0.688477 0.72219,1.360943 1.132216,2.012138 0.38438,0.65045 0.740209,1.316469 1.142195,1.956055 0.354837,0.559782 0.809123,1.049271 1.136339,1.628302 0.269542,0.515245 0.572828,1.012814 0.82815,1.534713 0.291593,0.462482 0.556045,0.945384 0.95036,1.332915 0.428966,0.402085 0.814108,0.847817 1.267943,1.224106 0.469833,0.495326 0.974298,0.966748 1.16692,1.649714 0.29989,0.653194 0.563584,1.319636 0.875519,1.967488 0.255301,0.497814 0.526084,0.98431 0.891999,1.411704 0.541788,0.6091 1.019501,1.270921 1.514191,1.918155 0.355933,0.523377 0.692878,1.059142 1.08382,1.557051 0.612631,0.66299 1.272696,1.27694 1.859829,1.965343 0.435986,0.520813 0.859446,1.062763 1.182062,1.662112 0.287122,0.523163 0.532363,1.070138 0.86008,1.570746 0.401256,0.560131 0.787906,1.131788 1.299543,1.601382 0.872498,0.654373 -0.05293,1.888271 -0.925424,1.233898 z"
       inkscape:connector-curvature="0" />
    <path
       style="fill:#de2d26;fill-opacity:1;stroke:none"
       id="path3052"
       d="m 55.123964,24.399749 c 0.444288,0.712988 1.012322,1.348265 1.634138,1.910495 0.0449,0.06685 0.94682,0.891118 1.019171,0.802707 0.03337,-0.04077 -0.08904,-0.08348 -0.140533,-0.07233 -0.210601,0.04562 -0.401909,0.155578 -0.602864,0.233366 -0.05377,0.141489 -0.08545,0.293492 -0.161322,0.424468 -0.0571,0.09858 -0.153313,-0.169394 -0.218317,-0.26295 -0.22024,-0.316979 -0.433343,-0.595471 -0.692807,-0.881409 -0.277347,-0.293933 -0.581252,-0.565241 -0.887447,-0.829 -0.130914,-0.11277 -0.308004,-0.181842 -0.18105,-0.115053 1.133357,-0.411273 0.596749,0.0376 0.863989,-0.914867 0.0101,-0.036 0.03431,0.06657 0.05431,0.09816 0.113219,0.178869 0.283098,0.330118 0.420828,0.489144 0.522004,0.492857 1.072478,0.949171 1.645734,1.380411 0.650123,0.470045 1.372143,0.80393 2.1095,1.110011 0.649638,0.341769 1.32446,0.622997 1.931996,1.038195 0.530354,0.453196 0.970135,1.008995 1.406322,1.552022 0.358287,0.415763 0.844789,0.660913 1.31697,0.923708 0.71349,0.261921 1.304141,0.747323 1.865136,1.246136 0.556046,0.458364 1.111634,0.916274 1.687326,1.349522 0.450641,0.408358 0.891478,0.803707 1.407333,1.124535 0.658597,0.336421 1.274529,0.74834 1.857806,1.201784 0.677197,0.576615 1.345824,1.161638 2.038888,1.719323 0.521755,0.534234 1.086451,0.95467 1.715188,1.344232 0.692155,0.338378 1.278745,0.83262 1.819663,1.373502 0.59297,0.528761 1.179168,1.064476 1.755049,1.611847 0.633343,0.561698 1.410179,0.915549 2.127306,1.353199 0.696623,0.462659 1.252215,1.084625 1.876541,1.632232 0.587839,0.51553 1.219696,0.977536 1.832784,1.462764 0.634543,0.511861 1.117377,1.153479 1.624015,1.781705 0.468758,0.583459 0.781454,1.271971 1.275677,1.834224 0.576254,0.632477 1.291712,1.10779 1.956499,1.6394 0.671435,0.595061 1.297102,1.226632 2.015161,1.767401 0.651238,0.504812 1.357091,0.933751 2.051958,1.374964 0.659061,0.423554 1.16697,0.973062 1.617589,1.606236 0.382885,0.594963 0.720452,1.232868 1.209321,1.749607 0.590763,0.38602 1.248406,0.572926 1.81997,1.007827 0.518305,0.496482 1.090188,0.904304 1.676788,1.310875 0.59656,0.376755 1.20888,0.724879 1.76644,1.158871 0.51515,0.480716 0.95957,1.037694 1.40038,1.586984 0.42879,0.462238 0.92491,0.84613 1.46054,1.175481 0.0969,0.04636 0.19376,0.09271 0.29064,0.139069 0.97813,0.482403 0.29591,1.865692 -0.68222,1.383289 l 0,0 c -0.14165,-0.07128 -0.28329,-0.142561 -0.42494,-0.213842 -0.67939,-0.428588 -1.31841,-0.917029 -1.85078,-1.523448 -0.36409,-0.462548 -0.74406,-0.920398 -1.15416,-1.340772 -0.51904,-0.428982 -1.133509,-0.720263 -1.687525,-1.100068 -0.613122,-0.429805 -1.218581,-0.854891 -1.762097,-1.374793 -0.572148,-0.5256 -1.488492,-0.521565 -1.991605,-1.169004 C 94.720399,58.921865 94.305599,58.267674 93.908959,57.602863 93.574067,57.1301 93.218162,56.718495 92.720764,56.404783 91.992449,55.940287 91.251245,55.4912 90.568432,54.960207 89.838948,54.409668 89.192343,53.778931 88.518133,53.16551 87.777631,52.572545 86.98167,52.040231 86.3515,51.322399 c -0.491192,-0.587884 -0.856243,-1.25267 -1.305967,-1.870888 -0.430527,-0.540951 -0.837188,-1.094023 -1.377591,-1.536553 -0.633081,-0.501875 -1.285549,-0.9798 -1.892811,-1.512837 -0.558352,-0.490775 -1.056393,-1.043092 -1.664223,-1.475803 -0.807874,-0.496472 -1.685105,-0.895075 -2.384616,-1.550737 -0.588132,-0.559175 -1.189402,-1.103449 -1.791379,-1.647544 -0.448225,-0.465979 -0.953301,-0.860199 -1.535961,-1.146403 -0.678649,-0.425245 -1.303081,-0.878202 -1.866889,-1.451915 -0.686987,-0.55294 -1.35148,-1.131257 -2.020913,-1.705076 -0.538929,-0.422701 -1.114094,-0.795916 -1.723968,-1.108277 -0.555528,-0.346205 -1.046183,-0.756284 -1.522861,-1.203971 -0.608685,-0.462698 -1.202719,-0.943404 -1.7895,-1.433984 -0.47363,-0.43598 -0.976213,-0.822863 -1.586494,-1.046213 -0.643771,-0.363004 -1.296472,-0.722984 -1.769376,-1.308403 -0.341617,-0.434411 -0.700014,-0.865386 -1.090781,-1.253796 -0.495171,-0.375991 -1.105809,-0.55202 -1.634626,-0.873585 -0.854585,-0.357914 -1.691554,-0.751731 -2.443174,-1.301122 -0.660251,-0.49703 -1.297858,-1.023221 -1.885943,-1.605062 -0.342679,-0.39874 -1.148344,-1.154522 -0.703079,-1.790417 0.178758,-0.255288 0.563395,-0.266631 0.845092,-0.399946 0.786087,0.216423 1.336457,0.868955 1.900879,1.421827 0.336808,0.375987 1.223745,1.350554 1.273458,1.853995 0.02584,0.261638 -0.05622,0.522807 -0.08434,0.78421 -0.244904,0.140423 -0.462528,0.34635 -0.734711,0.421269 -0.566661,0.155974 -1.484615,-0.797787 -1.84482,-1.133016 -0.685638,-0.633158 -1.331804,-1.327928 -1.826845,-2.122979 -0.654374,-0.872498 0.579524,-1.797922 1.233898,-0.925424 z"
       inkscape:connector-curvature="0" />
    <path
       style="fill:#de2d26;fill-opacity:1;stroke:none"
       id="path3054"
       d="m 53.378018,20.850506 c -0.296792,0.201268 -0.607948,0.377248 -0.897369,0.589096 -0.03624,0.02652 -0.09202,0.122294 -0.108124,0.08037 -0.53775,-1.399853 -0.82625,-1.201687 -0.25077,-1.476331 1.0875,-0.462842 2.099038,-1.086587 3.096487,-1.715863 0.905872,-0.654337 1.828326,-1.279691 2.776645,-1.870756 0.570653,-0.399374 0.31909,-0.70346 0.955737,1.085056 0.0439,0.123339 -0.240205,0.108758 -0.345969,0.185921 -0.608133,0.373116 -1.179836,0.81128 -1.72474,1.27103 -1.360137,1.005646 -0.773978,1.434844 -1.632869,-0.518674 1.073613,-0.599916 2.14785,-1.195971 3.229226,-1.783719 0.630989,-0.34506 1.288753,-0.643419 1.914217,-0.998419 0.01436,-0.0081 -0.05226,0.0069 -0.04461,0.02153 0.236561,0.452289 0.502123,0.888808 0.753185,1.333212 -0.922748,0.562812 -1.86234,1.097949 -2.792759,1.648293 -0.966594,0.610168 -1.945698,1.198269 -2.912542,1.807316 -0.654976,0.496975 -0.395602,0.61585 -0.800851,-0.95053 -0.01476,-0.05706 0.110694,-0.04058 0.165546,-0.06215 0.112866,-0.0444 0.225052,-0.0905 0.337577,-0.135751 0.607329,-0.312882 1.252226,-0.651572 1.748001,-1.119834 0.211024,0.429979 0.422049,0.859959 0.633074,1.289938 -0.002,0.01337 0.0051,0.03248 -0.0061,0.04012 -0.504528,0.345597 -1.091347,0.588162 -1.615056,0.907098 -0.550469,0.168103 -1.138189,0.875841 -1.654584,1.060923 -0.148681,0.05329 -0.308147,0.06949 -0.462221,0.104227 -0.119733,-0.495119 -0.377013,-0.976277 -0.3592,-1.485356 0.0058,-0.16512 0.277779,-0.17916 0.420364,-0.262632 0.566051,-0.331376 1.159623,-0.629438 1.73985,-0.935277 0.852768,-0.507417 1.059727,-1.063105 1.242447,0.958455 0.0119,0.131603 -0.247207,0.0937 -0.368525,0.146074 -0.136406,0.05889 -0.269557,0.125043 -0.404336,0.187565 -0.662031,0.319513 -1.305031,0.677458 -1.945994,1.036831 -0.306034,0.171587 -0.201025,0.07765 -0.311076,0.18129 -0.167522,-0.480643 -0.46631,-0.934222 -0.502564,-1.441929 -0.0099,-0.138204 0.259687,-0.09672 0.38917,-0.146035 0.656147,-0.249908 1.296972,-0.539671 1.929938,-0.843208 0.08635,-0.0261 1.445633,-0.754668 1.513618,-0.572347 0.538849,1.445073 0.51435,1.351614 -0.148666,1.644154 -0.902371,0.438876 -1.761794,0.957298 -2.521343,1.614391 -0.752297,0.60429 -0.592449,0.905446 -1.420943,-0.751838 -0.0087,-0.01731 0.388015,-0.204702 0.760185,-0.383927 0.899863,-0.503097 1.838676,-0.931931 2.748546,-1.415223 -0.525882,0.148551 0.720876,0.770148 0.910591,1.249255 0.05302,0.133903 -0.214368,0.192728 -0.327851,0.281401 -0.46468,0.36309 -0.931541,0.720978 -1.39298,1.089449 -0.639153,0.656113 -1.71954,1.15963 -2.196093,1.961687 -0.187487,-0.407533 -0.374973,-0.815065 -0.56246,-1.222597 -0.04087,-0.01511 -0.151546,-0.01273 -0.122611,-0.04531 0.242266,-0.272776 0.614103,-0.394055 0.920307,-0.592394 0.572821,-0.371036 0.541925,-0.35672 1.102615,-0.748174 0.186767,-0.123084 0.375198,-0.243679 0.560301,-0.369252 0.224921,-0.152585 0.439676,-0.320012 0.666983,-0.46902 0.0555,-0.03638 0.132186,-0.154109 0.171693,-0.100787 0.994917,1.3428 1.152081,1.106179 0.451681,1.538824 -0.869024,0.685479 -1.765052,1.339693 -2.559609,2.112749 -0.60233,0.545013 -0.54647,0.798368 -1.049931,-0.975464 -0.0027,-0.0094 1.181412,-0.792848 1.317328,-0.878432 0.464818,-0.20687 1.8314,-1.26912 2.280943,-1.300292 0.236309,-0.01639 0.471989,0.04083 0.707984,0.06125 0.02371,0.439633 0.149129,0.885589 0.07114,1.318899 -0.02046,0.113678 -1.728577,1.302371 -1.931065,1.460388 -0.689118,0.542619 0.08939,0.170035 -0.20735,-0.605558 -0.08332,-0.21778 -0.458935,-0.181648 -0.591473,-0.373493 -0.05324,-0.07707 0.174991,-0.0672 0.260328,-0.105831 0.13018,-0.05893 0.257269,-0.124454 0.385904,-0.186681 0.04978,0.07221 1.958886,-1.168745 1.96892,-1.153793 0.291615,0.434558 0.469579,0.935421 0.704369,1.403132 -0.827001,0.664327 -1.706702,1.266473 -2.505044,1.966045 -0.06014,0.05776 -0.190881,0.256027 -0.18043,0.173294 0.167055,-1.322411 1.184818,2.236439 -0.56585,-1.2735 -0.03612,-0.07243 0.146723,-0.06837 0.220036,-0.102661 0.605744,-0.283319 0.305074,-0.134307 0.936388,-0.469234 0.629689,-0.309382 1.231945,-0.67468 1.882797,-0.940753 0.08498,-0.03474 0.20418,-0.161522 0.260605,-0.0891 0.316229,0.405869 0.48649,0.90678 0.729736,1.36017 -0.704286,0.697113 -1.626696,1.118004 -2.345111,1.793845 -0.334048,0.400455 0.261635,-0.274741 0.03331,-0.723961 -0.129877,-0.255527 -0.545344,-0.214608 -0.757037,-0.407864 -0.05695,-0.05199 0.143176,-0.05735 0.213972,-0.0879 0.748121,-0.322884 -0.111382,0.03271 0.782663,-0.331536 0.151673,-0.08874 1.328308,-0.682581 1.413734,-0.584152 1.034664,1.192159 0.952604,1.029468 0.308692,1.653148 -0.594674,0.548394 -1.389322,0.904936 -1.93117,1.50706 0.900735,-0.88586 -0.354177,-0.906612 -0.572436,-1.121635 -0.06117,-0.06027 0.166071,-0.04452 0.246936,-0.07343 0.233266,-0.08337 0.459895,-0.18429 0.690902,-0.273727 1.09858,-0.696104 2.444217,0.206901 1.272549,1.428854 -0.252326,0.314833 0.06227,0.04974 -0.0081,-0.187055 -0.06153,-0.207157 -0.220791,-0.371833 -0.341694,-0.550949 -0.05457,-0.08085 -0.09508,-0.01501 -0.02727,-0.08475 1.100529,-0.428968 1.614286,0.466984 1.140976,1.468078 -0.511391,0.799679 0.0063,0.686775 -0.419657,0.104681 0.701864,0.333077 0.877334,0.824468 0.822232,1.559036 -0.07786,0.21195 -0.07658,0.367933 -0.06467,0.581981 0.0025,0.04458 0.01896,0.177504 0.01175,0.133438 -0.0455,-0.278031 0.04532,-0.06601 -0.15457,-0.37578 -0.0099,-0.01573 -0.04674,-0.03965 -0.02974,-0.04718 0.356059,-0.157839 0.676133,1.149204 0.684136,1.19196 0.03312,0.176944 -0.410407,0.431347 -0.50595,0.495986 -0.19102,0.0096 -0.389109,0.08113 -0.57306,0.02876 -0.505275,-0.143851 -0.78843,-0.810963 -1.045398,-1.215483 -0.155809,-0.241606 -0.314575,-0.480737 -0.521612,-0.681929 -0.02598,-0.02525 -0.116674,-0.08384 -0.08326,-0.06984 0.124544,0.05219 0.263782,0.280547 0.359989,0.185792 0.338501,-0.333391 0.471745,-0.824855 0.707617,-1.237283 0.476175,0.465882 0.780317,1.063108 0.917699,1.710508 -0.02853,0.879305 -0.501731,1.242033 -1.370242,0.884577 -0.189614,-0.07804 -0.4174,-0.430059 -0.608593,-0.568081 -0.436195,-0.310018 -0.896858,-0.585337 -1.345287,-0.876843 0.143712,-0.474873 0.287425,-0.949747 0.431138,-1.42462 0.10483,-0.005 0.20966,-0.01009 0.314491,-0.01514 0.003,-0.0068 0.01634,-0.02094 0.0089,-0.02037 -0.320932,0.02473 -0.350857,0.291893 -0.416384,0.549731 -0.344207,-0.374212 -0.755722,-0.845662 -1.150519,-1.23244 -0.571932,-0.643507 -1.086847,-1.347206 -1.490553,-2.108368 -0.326929,-0.728664 -0.615027,-1.460738 -0.825799,-2.231367 -0.01141,-0.03011 -0.05573,-0.114314 -0.03423,-0.09034 0.610122,0.6804 0.232648,0.890874 1.128126,-0.935434 0.128226,-0.261513 -0.734182,0.164246 0.09523,-0.22098 0.303496,-0.18618 0.631242,-0.327711 0.933026,-0.517056 0.19782,-0.124115 0.390611,-0.403203 0.09356,0.0056 -1.200829,0.496773 0.59245,0.880949 0.535406,0.926683 -0.110357,0.08848 -0.407405,0.227136 -0.524407,0.299835 -0.842495,0.426669 -0.974854,0.803074 -1.366309,-1.047525 -0.01628,-0.07695 0.743137,-0.435139 0.758228,-0.442689 1.052955,-0.468844 2.076579,-1.002755 3.058834,-1.605483 0.981705,-0.59468 1.966926,-1.189255 2.974122,-1.73929 0.700206,-0.405255 0.638645,-0.364968 0.826643,1.308921 0.0077,0.06893 -0.859612,0.372584 -0.948774,0.411413 -0.530171,0.162944 -0.967333,0.522263 -1.481202,0.71867 -0.181385,-0.483602 -0.460394,-0.941144 -0.544156,-1.450806 -0.01675,-0.101905 0.190625,-0.07952 0.286238,-0.118545 0.517727,-0.211328 1.023398,-0.452229 1.523626,-0.702289 0.696296,-0.301421 1.355333,-0.647675 1.968181,-1.088986 -0.03087,0.02402 -0.06173,0.04803 -0.09259,0.07205 1.17343,1.295256 1.282761,1.01917 0.308666,1.641009 -0.65585,0.30817 -0.868851,0.235381 -1.316893,0.20224 0.147635,0.0027 0.29527,0.0054 0.442905,0.0081 -1.032922,0.350041 -1.527956,-1.110731 -0.495034,-1.460773 l 0,0 c 0.172796,-0.0058 0.345591,-0.01167 0.518386,-0.01751 -0.77664,0.0026 -0.03151,0.01478 0.06575,-0.05976 0.208974,-0.119652 0.1829,-0.05511 0.30651,-0.166773 0.07361,-0.0665 0.129506,-0.259103 0.213874,-0.206928 1.432449,0.885856 1.467216,0.719982 0.946393,1.242399 -0.682995,0.485321 -1.404908,0.884852 -2.178189,1.215407 -0.173969,0.08646 -1.737482,0.840872 -1.765367,0.797749 -0.277868,-0.429717 -0.486063,-0.900673 -0.729094,-1.35101 0.492292,-0.137414 0.891357,-0.591425 1.409111,-0.689588 0.121275,-0.05227 0.24255,-0.104532 0.363825,-0.156798 0.08076,-0.0301 0.162815,-0.05695 0.242285,-0.09032 0.07258,-0.03048 0.16105,-0.159778 0.213458,-0.101038 1.116077,1.250943 1.213527,1.07353 0.650495,1.39915 -0.98697,0.530005 -1.942671,1.123648 -2.903981,1.698851 -1.025621,0.626308 -2.090064,1.188381 -3.188609,1.676591 -0.08329,0.03881 -0.167099,0.07651 -0.249861,0.116431 -0.04454,0.02148 -0.09729,0.102984 -0.131984,0.06775 -1.177656,-1.195926 -1.312715,-0.981862 -0.499469,-1.390684 0.386062,-0.239857 1.448059,-0.882822 1.880828,-0.436182 0.227853,0.235157 0.279946,0.592024 0.419919,0.888037 -0.07471,0.15944 -0.126054,0.332081 -0.224115,0.478322 -0.366272,0.546229 -1.143082,0.706045 -1.653755,1.065232 -0.104855,0.04817 -1.303747,0.541425 -1.305949,0.25609 -0.01642,-2.128836 0.617316,-1.626639 0.958086,-0.816544 0.182399,0.667067 0.42828,1.300101 0.709318,1.932143 0.306631,0.625512 0.760199,1.177371 1.199258,1.713274 0.600222,0.589243 1.207868,1.202077 1.569802,1.971451 -0.0032,0.220502 0.05012,0.449207 -0.0095,0.661506 -0.09272,0.329892 -0.419696,0.53523 -0.709406,0.649753 -0.195162,0.07715 -0.434234,0.06657 -0.433792,0.05807 0.02411,-0.463165 0.112994,-0.920676 0.16949,-1.381013 0.471765,0.334654 0.995434,0.595184 1.451227,0.953992 1.319959,1.093991 -0.655852,-0.3035 -0.494091,1.191175 -0.05335,-0.317339 -0.205521,-0.605046 -0.416871,-0.847115 0.149609,-0.487426 0.137166,-1.058751 0.448827,-1.462278 0.290446,-0.376058 1.325811,1.155282 1.404628,1.278192 0.10428,0.166521 0.220139,0.325617 0.323952,0.492428 0.04514,0.07253 0.211956,0.243274 0.129426,0.221208 -0.745344,-0.19928 0.141017,-0.232043 -0.776937,-0.107862 -1.021822,0.780619 1.361969,1.672157 -0.35715,1.052875 -0.130935,-0.127116 -0.290807,-0.230025 -0.392804,-0.381349 -0.282447,-0.41904 -0.166417,-1.068679 -0.07141,-1.519441 0.08044,0.184078 0.295626,0.26111 7.56e-4,0.08959 -0.158339,-0.125805 -0.355804,-0.214055 -0.475018,-0.377415 -0.399435,-0.547349 -0.119176,-1.274634 0.199454,-1.771535 0.02275,-0.04626 0.04084,-0.182425 0.06825,-0.138772 0.04638,0.07385 -0.03198,0.184383 0.0088,0.261462 0.291326,0.550584 0.311388,0.428237 0.824216,0.488151 0.01567,0.0018 -0.03155,3.97e-4 -0.04733,5.96e-4 -0.10684,0.03466 -0.213681,0.06932 -0.320521,0.103974 -1.422198,0.174169 -1.915093,-0.730479 -1.000963,-1.780443 0.03859,-0.03583 0.107016,-0.159406 0.115757,-0.107483 0.08079,0.479898 -0.371832,1.169217 0.77,1.012334 0.179161,-0.02462 -1.217161,0.244324 -0.507479,0.191853 -0.305297,0.118157 -0.795508,0.425435 -1.130299,0.40751 -1.075029,-0.05756 -1.540746,-0.401543 -0.894128,-1.45597 0.622836,-0.61281 1.381308,-1.069921 2.056952,-1.622099 1.866203,1.026129 0.636303,1.128548 -0.165151,1.553755 -0.149475,0.06061 -0.958461,0.467458 -1.082469,0.451397 -1.05479,-0.136614 -1.769543,-0.41482 -0.812455,-1.466862 0.660713,-0.593655 1.419004,-1.070321 2.147234,-1.574423 0.325189,0.342842 0.668207,0.669614 0.975568,1.028526 0.01757,0.02052 -0.05396,0.0081 -0.07888,0.01855 -0.109196,0.04566 -0.214714,0.09966 -0.322221,0.149166 -0.506402,0.233185 -0.989975,0.505 -1.487974,0.755633 -0.118515,0.0624 -1.419273,0.748812 -1.510476,0.706376 -1.274034,-0.592794 -1.350067,-0.877865 -0.632585,-1.561618 0.815755,-0.70558 1.698627,-1.329577 2.543781,-1.998646 0.347897,0.37565 0.739154,0.715366 1.043692,1.126951 0.0065,0.0087 -0.131739,0.06417 -0.462926,0.275451 -0.526067,0.335603 -1.046023,0.6811 -1.61816,0.937439 -0.525428,0.2465 -1.468547,0.821704 -2.002345,0.125619 -0.513912,-0.670154 0.156803,-1.155226 0.546637,-1.465177 0.405589,-0.313689 0.822503,-0.608524 1.230979,-0.918386 0.115695,-0.08776 0.231668,-0.175189 0.349169,-0.260519 0.05573,-0.04047 0.140304,-0.178749 0.170428,-0.116813 0.16295,0.33504 0.197893,0.718371 0.29684,1.077556 0.212733,0.0073 0.428145,-0.01259 0.638201,0.02183 0.05367,0.0088 -0.103893,0.03354 -0.152594,0.05775 -0.122018,0.06065 -0.240331,0.128559 -0.358553,0.196307 -0.33453,0.191705 -0.668724,0.384155 -0.998153,0.584498 -0.181676,0.110486 -0.359126,0.227775 -0.538689,0.341662 -0.370651,0.232349 -1.391939,0.967126 -1.43603,0.945882 -1.652315,-0.796108 -1.378445,-0.905827 -0.723563,-1.507266 0.881519,-0.846531 1.856826,-1.584366 2.830168,-2.321477 0.632682,-0.374861 0.195219,-0.20451 1.105026,1.123798 0.0089,0.01304 -0.02989,0.01113 -0.04304,0.0199 -0.08867,0.05907 -0.174678,0.122046 -0.261883,0.18326 -0.147163,0.1033 -0.292438,0.20933 -0.441221,0.310283 -0.173687,0.117851 -0.350715,0.2307 -0.526073,0.34605 -0.673125,0.469168 -1.365182,1.010293 -2.095598,1.388277 -0.206323,0.106771 -0.448962,0.405441 -0.640701,0.274271 -0.391613,-0.267906 -0.491868,-0.811544 -0.737802,-1.217316 0.677904,-0.903115 1.636312,-1.544364 2.487576,-2.268772 0.09012,-0.07194 1.507608,-1.223819 1.539734,-1.200638 0.412205,0.297436 0.783372,0.656595 1.107995,1.047748 0.0393,0.04735 -0.102764,0.06773 -0.154147,0.101589 -0.928888,0.489363 -1.881888,0.932882 -2.80094,1.441665 -0.08587,0.04126 -0.542142,0.262208 -0.546757,0.259285 -1.590526,-1.007758 -1.430686,-0.870307 -0.462513,-1.686499 0.881619,-0.744885 1.855976,-1.35907 2.900462,-1.852592 0.769179,-0.338952 -0.10343,-0.05579 0.61892,1.301965 0.05695,0.107048 0.23733,-0.07757 0.357924,-0.06492 0.06844,0.0072 -0.127106,0.05293 -0.189188,0.08262 -0.132217,0.06322 -0.261194,0.133083 -0.393547,0.196015 -0.155961,0.07416 -0.314183,0.143466 -0.471275,0.215199 -0.674767,0.321953 -1.356751,0.631344 -2.055944,0.896738 -0.109199,0.04145 -0.239174,0.197156 -0.32851,0.121913 -0.403967,-0.340242 -0.661903,-0.823225 -0.992854,-1.234838 0.786834,-0.531716 1.673352,-0.913424 2.506891,-1.363001 0.248624,-0.11391 0.833572,-0.388814 0.857391,-0.369576 1.599672,1.291955 1.014162,1.219654 0.03696,1.843115 -0.45849,0.241024 -0.910396,0.492894 -1.368286,0.734989 -0.249153,0.131732 -0.442117,0.247765 -0.457923,0.225586 -0.264346,-0.370963 -0.454365,-0.789634 -0.681548,-1.184451 -0.108564,0.03509 -0.214389,0.08018 -0.325691,0.105265 -0.03861,0.0087 0.07229,-0.03319 0.104968,-0.05552 0.103022,-0.0704 0.198549,-0.151339 0.301318,-0.222105 0.260427,-0.179331 0.523708,-0.354785 0.792397,-0.521481 0.141001,-0.08748 0.287924,-0.165027 0.431886,-0.247541 0.549486,-0.332447 1.112523,-0.657207 1.685663,-0.94744 0.139292,-0.07054 0.307874,-0.293274 0.427056,-0.192412 0.381126,0.322543 0.549196,0.833995 0.823794,1.250993 -0.644418,0.671614 -1.514503,1.111914 -2.334397,1.526476 -0.02899,0.01112 -0.860821,0.351459 -0.933093,0.298238 -1.442821,-1.0625 -1.014304,-1.232975 -0.152682,-1.891508 0.979403,-0.615963 1.969857,-1.212871 2.949143,-1.829651 0.946072,-0.559202 1.90046,-1.104549 2.839653,-1.674925 0.314396,0.409885 0.68685,0.781168 0.94319,1.229655 0.0094,0.01639 -0.165143,0.126969 -0.469111,0.284866 -0.540174,0.280593 -1.081718,0.558704 -1.62233,0.838655 -1.122647,0.609898 -2.233746,1.236021 -3.355669,1.845137 -0.364825,-0.383454 -0.786355,-0.720017 -1.094474,-1.150361 -0.02693,-0.03761 1.153532,-0.869285 1.128417,-0.931187 0.600184,-0.497709 1.21887,-0.982711 1.885655,-1.388695 0.189065,-0.113942 0.525666,-0.329292 0.561233,-0.30009 1.264273,1.038013 1.358325,1.018199 0.471586,1.64011 -0.947128,0.587568 -1.862319,1.217359 -2.768771,1.865826 -1.093752,0.688782 -2.203638,1.371313 -3.402094,1.864259 -0.903683,0.286063 -0.555382,0.344115 -1.185135,-1.215501 -0.0073,-0.01796 0.680569,-0.461871 0.742779,-0.501419 0.130208,-0.08278 0.258841,-0.168001 0.388262,-0.252002 0.935201,-0.561121 1.728745,0.761453 0.793544,1.322574 z"
       inkscape:connector-curvature="0" />
    <path
       style="fill:#de2d26;fill-opacity:1;stroke:none"
       id="path3056"
       d="m 59.130217,16.179412 c 0.827429,-0.585502 1.673329,-1.142231 2.508019,-1.717403 0.742874,-0.544971 1.574939,-0.881112 2.430128,-1.197483 0.759029,-0.331261 1.488305,-0.723426 2.232249,-1.086005 0.757613,-0.415863 1.623416,-0.425009 2.440265,-0.616165 0.637863,-0.200757 1.303748,-0.107989 1.956622,-0.06234 0.611902,0.09259 1.189243,0.01857 1.787644,-0.09692 0.71656,-0.149957 1.414433,-0.360468 2.139802,-0.4772 0.656984,-0.22125 1.329882,-0.360436 2.017168,-0.441557 0.551953,-0.150198 1.120431,-0.264399 1.629533,-0.5334827 0.537808,-0.2808076 1.107034,-0.5104819 1.628708,-0.820851 C 80.403975,8.8438365 80.953208,8.638113 81.452103,8.3448422 82.018415,8.0042 82.672094,7.8954352 83.289493,7.685677 83.962225,7.4937654 84.644828,7.3312753 85.307998,7.1066273 86.083659,6.8707627 86.865495,6.6507697 87.651221,6.4491964 88.373346,6.2977546 89.08489,6.1023925 89.77355,5.8387328 90.447007,5.5263343 91.200954,5.557027 91.905894,5.3911421 c 0.426966,-0.049212 0.869298,-0.1286385 1.277363,-0.1692707 0.207838,-0.02369 0.319742,-0.2447467 0.504775,-0.4691399 0.323419,-0.458742 0.68845,-0.8910237 1.081334,-1.2921412 0.415846,-0.4812225 0.817299,-0.9737593 1.199117,-1.4822573 0.327969,-0.5539574 0.936269,-0.8529988 1.328822,-1.33554673 0.393151,-0.4730258 0.873566,-0.86450442 1.279694,-1.324875 0.359348,-0.39793847 0.765855,-0.73588117 1.213619,-1.02812527 0.919412,-0.5866299 1.749032,0.7136181 0.829622,1.30024801 l 0,0 c -0.33807,0.20719377 -0.626423,0.47049956 -0.897031,0.75992307 -0.415572,0.45513555 -0.884602,0.85636802 -1.282398,1.32786922 -0.40403,0.4270897 -0.900797,0.7402132 -1.241849,1.2304715 -0.427665,0.5629273 -0.868137,1.1162307 -1.339656,1.6435961 -0.370472,0.355775 -0.681144,0.7732003 -0.984361,1.1858004 -0.387373,0.4628134 -0.781381,0.8961944 -1.411077,1.0008088 -0.386181,0.05333 -0.795767,0.098263 -1.23733,0.1613144 -0.634381,0.126615 -1.29399,0.133453 -1.901936,0.3794903 -0.744134,0.2844138 -1.512026,0.4997166 -2.291654,0.6642774 -0.750656,0.1908042 -1.496886,0.4026401 -2.237844,0.6264769 -0.662169,0.2174376 -1.337163,0.3944252 -2.00956,0.5760418 -0.529541,0.1798226 -1.089517,0.271458 -1.581131,0.5451946 -0.505838,0.2746867 -1.032421,0.5100355 -1.541186,0.7792065 -0.557709,0.309284 -1.136584,0.579877 -1.708001,0.86297 -0.678887,0.323299 -1.399385,0.531625 -2.135523,0.682979 -0.667713,0.07566 -1.309593,0.239556 -1.952724,0.432706 -0.708913,0.110899 -1.387476,0.329954 -2.089669,0.468384 -0.72769,0.140329 -1.446256,0.219318 -2.18743,0.121082 -0.508283,-0.03557 -1.024766,-0.131638 -1.519826,0.03056 -0.703442,0.146786 -1.438015,0.170317 -2.094875,0.496366 -0.790213,0.383391 -1.562528,0.803752 -2.37253,1.145845 -0.735569,0.271168 -1.452793,0.544786 -2.089412,1.020758 -0.804577,0.554122 -1.617917,1.093445 -2.419507,1.651641 -0.851633,0.681307 -1.815146,-0.523084 -0.963513,-1.204391 z"
       inkscape:connector-curvature="0" />
    <path
       style="fill:#de2d26;fill-opacity:1;stroke:none"
       id="path3058"
       d="m 58.765145,25.06356 c -0.956563,-0.119741 -1.845483,-0.237231 -1.309539,-1.616072 0.06445,-0.165812 0.324302,-0.14635 0.486452,-0.219525 0.732037,-0.0027 1.451115,0.16011 2.180651,0.224802 0.664715,-0.119491 1.334866,-0.05847 2.003388,-0.01282 0.757294,0.03676 1.505183,0.04535 2.248926,0.202617 0.635667,0.158081 1.288059,0.209 1.93998,0.241183 0.699754,0.03421 1.390192,-0.04698 2.091262,-0.03154 0.759419,-0.02592 1.497438,0.09757 2.240354,0.234985 0.751199,0.148281 1.518825,0.139748 2.274181,0.247682 0.826448,0.135194 1.644455,0.340381 2.429603,0.631654 1.451843,0.617538 1.324039,-0.213234 0.557444,1.712548 -0.517999,-0.234911 -1.064251,-0.421154 -1.610378,-0.583416 -0.844635,-0.195489 -1.679218,-0.416668 -2.538726,-0.539437 -0.806789,-0.215389 -1.636721,-0.314817 -2.450758,-0.490479 -0.720845,-0.198026 -1.458975,-0.2966 -2.202727,-0.350048 -0.801951,-0.162793 -1.617859,-0.253756 -2.418257,-0.420603 -0.761858,-0.09243 -1.466787,-0.488403 -2.230868,-0.53764 -0.67221,-0.05215 -1.345383,-0.107555 -2.019222,-0.163936 -0.813561,-0.08636 -1.523891,-0.418815 -2.208294,-0.843648 -0.529653,-0.484016 -1.048646,-0.954695 -1.616355,-1.393449 -0.433153,-0.317854 -0.958641,-0.459675 -1.44236,-0.679459 0.0081,0.0036 -0.01203,0.165035 0.06842,0.03077 0.79032,-1.318999 0.332612,-1.458884 1.308935,-1.063213 0.389653,0.135289 0.764335,0.298692 1.138874,0.471568 0.990215,0.45709 0.343792,1.857466 -0.646423,1.400376 l 0,0 c -0.357576,-0.165071 -0.712467,-0.32037 -1.085722,-0.448236 -0.121592,-0.05304 -0.918554,-0.265238 -0.917523,-0.382632 0.01432,-1.628967 0.01114,-1.648315 0.799454,-1.399797 0.558152,0.306708 1.233982,0.40715 1.721828,0.852027 0.5226,0.407396 1.035596,0.810726 1.484339,1.301631 0.477645,0.296526 0.951134,0.553349 1.523768,0.617088 0.683596,0.05749 1.366186,0.118617 2.049066,0.166732 0.821135,0.101522 1.584719,0.406712 2.396095,0.563862 0.72786,0.162958 1.478633,0.218884 2.20632,0.390263 0.817895,0.06031 1.630708,0.167089 2.424074,0.382441 0.773821,0.177289 1.571402,0.250153 2.337677,0.469829 0.934517,0.136108 1.844108,0.37017 2.761683,0.588695 0.685221,0.207285 1.380429,0.432657 2.012273,0.770532 -0.119095,0.491874 -0.143837,1.016751 -0.357286,1.475623 -0.04435,0.09535 -0.210297,-0.01414 -0.31374,-0.03306 -0.441746,-0.08079 -0.865099,-0.267687 -1.282817,-0.424418 -0.673668,-0.270472 -1.397868,-0.416244 -2.109538,-0.547215 -0.767972,-0.126447 -1.559762,-0.08179 -2.323591,-0.255994 -0.66308,-0.122669 -1.315681,-0.240495 -1.994743,-0.209651 -0.714321,-0.01669 -1.419549,0.07414 -2.133345,0.03001 -0.734714,-0.03716 -1.469718,-0.09794 -2.186505,-0.273576 -0.669646,-0.146334 -1.347934,-0.125453 -2.030455,-0.171884 -0.683688,-0.04669 -1.353727,-0.08273 -2.035665,0.01028 -0.148569,-0.01338 -1.747916,-0.158109 -1.673548,-0.263649 1.558893,-1.189579 -1.048936,-1.503622 0.453338,-1.204173 1.090622,0 1.090622,1.542373 0,1.542373 z"
       inkscape:connector-curvature="0" />
    <path
       style="fill:#de2d26;fill-opacity:1;stroke:none"
       id="path3060"
       d="m 18.536946,-5.5644587 c 0.636209,0.8445174 1.381564,1.5990836 2.114487,2.3585618 0.757911,0.8283144 1.421387,1.7415062 2.231225,2.52114668 0.757029,0.67849532 1.543426,1.32330742 2.243145,2.06205502 0.639993,0.7306574 1.159725,1.5529293 1.772665,2.3066179 0.596142,0.7203163 1.252295,1.387667 1.960006,1.9979272 0.568969,0.4920663 1.070887,1.048157 1.577693,1.6025354 0.569083,0.5828109 1.143389,1.1628919 1.765788,1.6898513 0.756199,0.5491177 1.310678,1.3051904 1.971943,1.9522994 0.540999,0.466369 1.260711,0.553807 1.89696,0.836634 0.653934,0.295795 1.221812,0.746797 1.73323,1.24411 0.502852,0.438511 0.884148,0.991591 1.374164,1.44349 0.670483,0.668808 1.4026,1.272934 2.102106,1.911436 0.631582,0.689959 1.261247,1.381386 1.997184,1.962722 0.579388,0.440431 1.224629,0.817128 1.896785,1.099531 0.59944,0.26107 1.106012,0.676188 1.66268,1.009582 0.558826,0.388787 1.092344,0.811586 1.619615,1.242391 0.411198,0.25208 0.728029,0.655198 1.193852,0.812961 1.008205,0.415908 0.420023,1.841725 -0.588182,1.425817 l 0,0 C 48.47178,23.655325 47.988917,23.259665 47.48004,22.870251 47.008597,22.48408 46.531532,22.10633 46.03627,21.752272 45.543055,21.449598 45.088595,21.08948 44.563915,20.840902 43.770038,20.492811 42.999054,20.062635 42.314646,19.529812 41.558984,18.920496 40.880751,18.230001 40.240442,17.501279 39.535601,16.857679 38.798058,16.248496 38.122034,15.574743 37.627958,15.104249 37.219069,14.558428 36.715312,14.099746 36.347053,13.715851 35.904534,13.390308 35.424002,13.163345 34.64352,12.778165 33.712983,12.714311 33.089797,12.023641 32.461328,11.397871 31.923592,10.6823 31.204481,10.150655 30.533147,9.5806897 29.911586,8.9553269 29.297782,8.325055 28.830817,7.8142299 28.373332,7.2976366 27.847053,6.8462989 27.076158,6.1727949 26.35061,5.4488796 25.701093,4.6561405 25.112572,3.9302732 24.604042,3.146453 24.001814,2.4335066 23.324747,1.7057099 22.536995,1.0946307 21.807596,0.4212137 c -0.815018,-0.7983603 -1.510701,-1.7026839 -2.266072,-2.5561222 -0.813369,-0.8430153 -1.644839,-1.6801063 -2.327152,-2.6360059 -0.561121,-0.9352009 0.761453,-1.7287452 1.322574,-0.7935443 z"
       inkscape:connector-curvature="0" />
    <path
       style="fill:#de2d26;fill-opacity:1;stroke:none"
       id="path3062"
       d="m 43.957627,16.811127 c 0.01622,0.376225 -0.04126,0.758297 0.04144,1.130282 0.02558,0.115043 0.04908,0.377259 0.151718,0.319348 0.03608,-0.02036 -0.03491,-0.07515 -0.05237,-0.112718 -1.039526,-0.253002 -0.401066,-0.304553 -1.188534,0.317502 -0.09975,0.07879 -0.0093,-0.254294 -0.02343,-0.380627 -0.02721,-0.243938 -0.09354,-0.42962 -0.162012,-0.669018 -0.310313,-0.951358 -0.506842,-1.928817 -0.618757,-2.921577 -0.175663,-0.794077 -0.315232,-1.59222 -0.394099,-2.401695 -0.05032,-0.98708 -0.05615,-1.968471 -0.174887,-2.9504357 C 41.402035,8.0932337 41.32516,7.0386746 41.282835,5.9823545 41.202322,5.210265 41.011071,4.4664796 40.760315,3.7342984 40.458512,2.7782667 40.009034,1.8775146 39.601111,0.96394983 39.180814,0.136983 38.715774,-0.66800084 38.255125,-1.4734469 37.808246,-2.114825 37.504726,-2.8387125 37.080676,-3.4935601 c -0.139965,-0.2978901 -0.0909,-0.173428 -0.162033,-0.3671885 -0.358345,-1.0300712 1.098396,-1.5368463 1.45674,-0.5067751 l 0,0 c -3.8e-4,7.894e-4 -7.6e-4,0.00158 -0.0011,0.00237 0.0023,0.014148 0.0047,0.028296 0.007,0.042444 0.429552,0.6811163 0.761782,1.4161272 1.213112,2.0841297 0.48525,0.8501387 0.97796,1.69832953 1.415282,2.57402046 0.426709,0.95692384 0.895361,1.90090184 1.210967,2.90234344 0.294953,0.8728138 0.521516,1.7622296 0.603398,2.6830944 0.04031,1.0153103 0.114436,2.0288818 0.244052,3.0370755 0.119062,0.9942178 0.137163,1.9871502 0.178809,2.9866322 0.07646,0.80244 0.230509,1.589639 0.391727,2.378874 0.100453,0.913157 0.287187,1.809935 0.573275,2.68432 0.176297,0.662372 0.596661,2.021734 -0.315103,2.434699 -0.248601,0.112599 -0.539013,-0.08595 -0.808519,-0.12893 -0.646771,-0.707054 -0.723676,-1.572513 -0.672969,-2.502421 0,-1.090622 1.542373,-1.090622 1.542373,0 z"
       inkscape:connector-curvature="0" />
    <path
       style="fill:#de2d26;fill-opacity:1;stroke:none"
       id="path3064"
       d="M 33.515462,11.874015 C 33.245635,10.911161 33.056339,9.9305942 32.803891,8.9634326 32.601308,8.0152138 32.437183,7.0602766 32.250388,6.1080754 32.020128,5.1252524 31.771836,4.1473667 31.542062,3.1643595 31.348181,2.3644532 31.340267,1.541219 31.151586,0.74228678 30.964931,0.02041152 30.905284,-0.72239424 30.869279,-1.4643211 c -0.166605,-0.6874542 -0.185356,-1.4094698 -0.365008,-2.0916875 -0.07386,-0.1651111 -0.07486,-0.1761948 -0.02088,-0.026052 -0.688949,-0.845462 0.506715,-1.8197833 1.195664,-0.9743213 l 0,0 c 0.267474,0.4055118 0.160762,0.1926571 0.324072,0.6365764 0.18068,0.7838427 0.257597,1.5908543 0.406757,2.3816301 0.03066,0.64844876 0.07846,1.29813412 0.243457,1.92882659 0.186255,0.80122111 0.217237,1.61909161 0.390737,2.42318621 0.233207,1.0010464 0.487224,1.9964541 0.71989,2.9976014 0.180334,0.9210827 0.341083,1.8445222 0.532305,2.7624911 0.259919,0.9959772 0.457181,2.0051721 0.731611,2.9976001 0.213889,1.069443 -1.298532,1.371928 -1.512421,0.302485 z"
       inkscape:connector-curvature="0" />
    <path
       style="fill:#de2d26;fill-opacity:1;stroke:none"
       id="path3066"
       d="m 35.243958,13.11017 c -0.96903,-0.167374 -1.943218,-0.127348 -2.920112,-0.08419 -0.850427,0.0439 -1.701642,0.06586 -2.553047,0.0774 -0.755697,-0.06946 -1.496698,-0.238963 -2.224625,-0.447748 -0.875586,-0.287665 -1.617257,-0.846636 -2.361296,-1.371594 -0.600727,-0.404021 -1.16912,-0.858317 -1.789,-1.233826 C 22.665375,9.6097521 21.998244,9.0767252 21.312441,8.5723803 20.661005,8.1340897 20.032209,7.6710783 19.412607,7.1878327 18.795679,6.7746763 18.163327,6.3880993 17.544587,5.9772305 16.895308,5.6058272 16.251975,5.228235 15.62391,4.8215303 14.927888,4.3118359 14.266882,3.7385341 13.750772,3.0446068 13.375413,2.5197644 13.0419,1.9922648 12.525097,1.5950158 11.907854,1.1370234 11.221094,0.77614797 10.531986,0.43862161 9.7946718,0.10204746 9.11755,-0.34267687 8.4111779,-0.73585096 7.8049411,-1.1196394 7.2381862,-1.5599445 6.6812292,-2.0116263 6.3127264,-2.2829139 5.9008525,-2.4908094 5.4893661,-2.6884998 4.5080832,-3.1644629 5.1811966,-4.5522066 6.1624796,-4.0762435 l 0,0 c 0.5164232,0.2523904 1.0338837,0.5155985 1.4911886,0.8674219 0.4880453,0.397127 0.984007,0.7833552 1.5108145,1.127071 0.6812847,0.3830687 1.3364073,0.8103867 2.0486673,1.13656264 0.788322,0.38967887 1.574117,0.80337415 2.276196,1.33640193 0.610396,0.50109295 1.073862,1.09867573 1.512291,1.75103423 0.379568,0.5557608 0.941046,0.9698936 1.461715,1.3853539 0.632367,0.4111126 1.283577,0.7854836 1.935072,1.1651529 0.650788,0.4330965 1.31935,0.8351346 1.962877,1.2789801 0.608783,0.4750374 1.224713,0.9300224 1.866444,1.3592218 0.64953,0.4799773 1.283131,0.9845159 1.974673,1.4045664 0.644661,0.3992379 1.246671,0.861257 1.872182,1.2886307 0.602849,0.426085 1.198047,0.890638 1.89698,1.148932 0.584726,0.167856 1.17552,0.30032 1.778368,0.388062 0.835698,-0.01127 1.671207,-0.03287 2.505941,-0.07605 0.997205,-0.04391 1.999748,-0.0966 2.988069,0.0827 1.090623,0 1.090623,1.542373 0,1.542373 z"
       inkscape:connector-curvature="0" />
    <path
       style="fill:#de2d26;fill-opacity:1;stroke:none"
       id="path3068"
       d="M 0.00373316,4.5660197 C -0.55878152,4.634209 -1.114888,4.4109472 -1.6721515,4.4757109 c 0.2583221,-0.039703 0.4372632,-0.021837 0.5389432,-0.4115686 0.05057,-0.1938309 -0.031149,-0.4010923 -0.077834,-0.5958954 -0.011991,-0.050035 -0.1453097,-0.1157702 -0.094265,-0.12223 0.1653509,-0.020926 0.3040141,0.13713 0.45950885,0.1971316 C 0.09687149,3.9547876 0.93533412,4.516372 1.7438993,5.143525 2.3329938,5.572198 2.9314402,5.9808114 3.5510011,6.3642432 4.196681,6.730284 4.9099187,6.9467165 5.5891621,7.236334 c 0.6985091,0.2845789 1.4198004,0.5226823 2.157211,0.6858631 0.7997038,0.1696883 1.6068531,0.3247797 2.3995819,0.5261789 0.821197,0.1938978 1.634381,0.4217582 2.430644,0.7024776 0.771802,0.2829335 1.524907,0.6131104 2.304831,0.8749054 0.8887,0.214883 1.730197,0.575098 2.597024,0.857522 0.805437,0.255327 1.589451,0.401509 2.43219,0.395703 0.853033,-0.02143 1.716459,0.08821 2.55091,0.263248 0.827237,0.202981 1.671295,0.308063 2.519395,0.368636 0.816096,0.03533 1.612929,0.23262 2.422679,0.331621 0.656903,0.209721 1.338964,0.185626 2.010016,0.301584 0.595564,0.116051 1.202339,0.143351 1.80715,0.164369 0.750405,0.01931 1.501143,0.01794 2.251738,0.01809 0.792523,0.01289 1.586617,-0.04241 2.374606,0.0515 0.650329,0.148413 1.307016,0.242494 1.971722,0.290841 0.487542,0.07188 0.972782,0.188497 1.397299,0.267644 1.063876,0.240051 0.724393,1.744599 -0.339483,1.504548 l 0,0 c -0.390056,-0.06135 -0.774397,-0.177278 -1.171265,-0.233997 -0.695227,-0.0519 -1.385243,-0.140678 -2.064823,-0.300556 -0.711976,-0.11755 -1.449905,0.0073 -2.168354,-0.03761 -0.768528,-1.5e-4 -1.537206,0.0012 -2.305531,-0.01903 -0.676023,-0.02394 -1.353814,-0.05787 -2.019567,-0.186619 -0.642622,-0.114927 -1.303705,-0.07972 -1.932056,-0.289953 -0.783998,-0.0972 -1.555931,-0.284356 -2.345073,-0.324049 -0.92102,-0.067 -1.837936,-0.180958 -2.736671,-0.399967 -0.720315,-0.165366 -1.478194,-0.241428 -2.215943,-0.227936 -1.006574,0.0023 -1.958763,-0.168944 -2.918962,-0.472288 -0.871249,-0.286592 -1.71909,-0.643617 -2.612289,-0.862608 C 13.60011,11.217707 12.835967,10.894008 12.058483,10.603599 11.307535,10.331796 10.534847,10.128041 9.7593374,9.9415071 8.9856274,9.7361431 8.1907114,9.5972442 7.4088361,9.427183 6.5776447,9.2387173 5.7628462,8.975231 4.9750086,8.6511587 4.2335816,8.321043 3.4379394,8.1027148 2.7392557,7.6757243 2.0735572,7.2636348 1.4317558,6.8224381 0.79859496,6.3622591 0.10561791,5.8247495 -0.60361374,5.3350665 -1.4111884,4.9781564 -1.6658917,4.8763338 -2.2524495,4.6924425 -2.398926,4.4520385 -2.8522104,3.7080876 -2.5424648,3.161436 -1.794624,2.9382082 -1.0902741,2.8929015 -0.3993227,3.0620056 0.30621737,3.0535986 1.3756605,3.2674873 1.0731763,4.7799083 0.00373316,4.5660197 z"
       inkscape:connector-curvature="0" />
    <path
       style="fill:#de2d26;fill-opacity:1;stroke:none"
       id="path3070"
       d="m 37.943111,32.775424 c -1.066161,0.01033 -2.12288,-0.199393 -3.12771,-0.543909 C 33.949674,31.941967 33.207114,31.400109 32.421092,30.952173 31.675619,30.515974 30.965004,30.026561 30.259779,29.5288 29.736937,29.151323 29.126874,29.03275 28.500781,28.961659 27.826718,28.775666 27.129482,28.694158 26.453705,28.522433 25.928212,28.410209 25.4382,28.292116 24.959868,28.03293 24.466603,27.647532 23.947461,27.304049 23.477342,26.890229 22.790214,26.380108 22.143965,25.820648 21.51225,25.24426 c -0.655247,-0.588577 -1.408592,-1.036784 -2.16371,-1.480834 -0.888171,-0.356797 -1.522504,-0.984609 -2.11663,-1.708914 -0.432507,-0.459211 -0.970677,-0.811051 -1.488805,-1.16697 -0.89825,-0.61855 -0.02349,-1.888868 0.874762,-1.270318 l 0,0 c 0.636492,0.439254 1.292138,0.876908 1.8073,1.46002 0.48618,0.594667 0.962782,1.076221 1.705233,1.356667 0.847381,0.49835 1.688132,1.009387 2.421722,1.671235 0.626179,0.571931 1.270385,1.121537 1.948709,1.631227 0.379658,0.340198 0.816358,0.601649 1.194171,0.940647 0.361236,0.195977 0.743833,0.261909 1.159546,0.356038 0.594674,0.176772 1.234439,0.196945 1.826923,0.396849 0.880553,0.106899 1.734836,0.310582 2.468082,0.839045 0.665044,0.470002 1.334451,0.932338 2.03742,1.344438 0.703936,0.404035 1.369994,0.891378 2.140476,1.163229 0.833539,0.304237 1.728295,0.457539 2.615662,0.456432 1.090622,0 1.090622,1.542373 0,1.542373 z"
       inkscape:connector-curvature="0" />
    <path
       style="fill:#de2d26;fill-opacity:1;stroke:none"
       id="path3072"
       d="m 94.893021,6.1136986 c 0.28269,0.7583714 0.618588,1.5118424 1.039116,2.2049943 0.282575,0.5788901 0.748033,1.0134123 1.16991,1.4851893 0.463276,0.4898538 0.916725,0.9865938 1.382554,1.4740848 0.401148,0.485247 0.889597,0.882023 1.335156,1.323461 0.425453,0.391709 0.850473,0.786697 1.248533,1.206768 0.44721,0.369574 0.79057,0.822605 1.1431,1.27677 0.29154,0.496643 0.58383,0.985244 0.90952,1.460273 0.24878,0.431599 0.49681,0.880579 0.84075,1.245706 0.72249,0.816985 -0.4329,1.838741 -1.1554,1.021757 l 0,0 c -0.36836,-0.428596 -0.6959,-0.896685 -0.95875,-1.397199 -0.30842,-0.453068 -0.60195,-0.91091 -0.86097,-1.393172 -0.31754,-0.419054 -0.63568,-0.824155 -1.046458,-1.16244 -0.37698,-0.415353 -0.805717,-0.783496 -1.212171,-1.169066 C 98.280432,13.234752 97.771163,12.839814 97.366854,12.340773 96.891411,11.837605 96.422955,11.3299 95.947673,10.826787 95.467812,10.278438 94.933739,9.7728946 94.606541,9.1071775 94.155534,8.338036 93.767299,7.5237413 93.460964,6.6865215 93.055917,5.6739041 94.487974,5.1010812 94.893021,6.1136986 z"
       inkscape:connector-curvature="0" />
    <path
       style="fill:#de2d26;fill-opacity:1;stroke:none"
       id="path3074"
       d="m 37.361161,13.134946 c 0.681162,0.632793 1.463756,1.111021 2.275368,1.552438 0.921737,0.40049 1.761248,0.961213 2.670122,1.38528 0.821818,0.397195 1.674939,0.739964 2.546178,1.013412 0.744601,0.206108 1.476795,0.43368 2.242106,0.550885 0.788608,0.118443 1.587014,0.249068 2.357366,0.459141 0.550326,0.267142 1.135177,0.347878 1.719739,0.487969 0.447482,0.286973 0.957302,0.449609 1.416005,0.710776 -0.07025,0.469077 -0.01712,0.974241 -0.210741,1.40723 -0.132423,0.296139 -1.771015,-0.09547 -2.05137,-0.175927 -0.824674,-0.180211 -1.566486,-0.573589 -2.341649,-0.888469 -0.334553,-0.124252 -0.646998,-0.338348 -1.003182,-0.404244 -0.02588,-0.0048 0.04453,0.04229 0.07016,0.03626 0.166314,-0.03914 0.352556,-0.05847 0.484667,-0.166819 0.115397,-0.09464 0.136287,-0.265554 0.204431,-0.398331 0.0047,-0.03816 -0.02431,-0.11312 0.01412,-0.114476 0.118407,-0.0042 0.16891,0.168542 0.268026,0.233456 0.260401,0.170545 0.545446,0.309871 0.825212,0.444686 0.955445,0.38254 1.405581,0.237293 0.0289,1.669149 -0.01831,0.01904 -0.435102,-0.232304 -0.722956,-0.401725 -0.790691,-0.512194 -1.489463,-1.134478 -2.313532,-1.593292 1.419303,-0.365816 0.524477,0.136996 0.954053,-0.936559 0.02259,-0.05646 0.08358,0.08863 0.129367,0.128664 0.161956,0.141602 0.337423,0.266968 0.506877,0.399507 0.348414,0.275843 0.706962,0.548294 1.084504,0.783976 0.14954,0.09335 0.403167,0.192629 0.534941,0.318887 0.109862,0.105263 0.193295,0.235027 0.289943,0.35254 -0.110655,0.355557 -0.08921,0.7843 -0.331965,1.066672 -0.476542,0.554304 -1.750278,-0.381688 -2.193752,-0.589266 -0.342351,-0.09631 -0.73595,-0.590953 -1.126033,-0.537619 -0.05353,0.0073 0.105215,0.03519 0.159089,0.03107 0.935392,-0.605705 -0.319839,-1.078503 0.753057,-0.621261 0.624427,0.248465 1.227752,0.593207 1.871264,0.789642 -0.81245,-0.09669 -0.125188,-0.121494 -0.72342,1.271002 -0.0068,0.01572 -0.09508,-0.0652 -0.399337,-0.271836 -0.111464,-0.0757 -0.224845,-0.148538 -0.337268,-0.222807 C 46.8713,20.808737 46.73115,20.712524 46.590999,20.616308 45.505824,19.874819 44.395274,19.172655 43.280633,18.476532 42.271998,17.847911 41.333427,17.104433 40.267069,16.573 c -0.667608,-0.322451 -1.260392,-0.750408 -1.845485,-1.198678 -0.498371,-0.221359 -0.969746,-0.485283 -1.432628,-0.774893 -0.31869,-0.268375 -0.607157,-0.55154 -1.036328,-0.514789 -0.0066,0.0124 -0.02957,0.02693 -0.01995,0.03719 0.256319,0.273423 0.297725,-0.506163 0.333677,-0.526362 0.03944,-0.02216 0.06252,0.06539 0.09378,0.09809 0.478621,0.514138 1.081086,0.901685 1.660685,1.293259 0.625655,0.426221 1.28739,0.795035 1.934564,1.187374 0.610599,0.336016 1.260734,0.580331 1.912046,0.823832 0.695696,0.192483 1.384928,0.40898 2.060758,0.664082 0.736718,0.248516 1.398749,0.679618 2.044034,1.10612 0.502686,0.317295 1.081407,0.50866 1.650422,0.673473 0.608008,0.152545 1.236293,0.190836 1.860224,0.218883 0.562929,-0.02333 1.119166,0.04451 1.678131,0.07385 0.0296,-5.25e-4 0.117814,-0.0075 0.08881,-0.0016 -0.720266,0.148142 0.346051,-0.628623 -0.409162,1.437568 -0.0066,0.01817 -0.926021,-0.270533 -0.926105,-0.27056 -0.824332,-0.285154 -1.656131,-0.540741 -2.468727,-0.858007 -0.06742,-0.01853 -0.132865,-0.04708 -0.202269,-0.05558 -0.02939,-0.0036 0.04971,0.04437 0.07906,0.04049 0.116166,-0.01536 0.266007,-0.0034 0.338263,-0.09566 0.164298,-0.209752 0.241736,-0.47878 0.312829,-0.73556 0.05177,-0.186996 -0.158722,-0.195519 0.0013,-0.175053 0.645514,0.330728 1.296522,0.645078 1.932186,0.995712 0.248528,0.141539 0.529045,0.201774 0.792316,0.306798 0.06998,0.02792 0.280323,0.08115 0.205942,0.09312 -0.105394,0.01696 -0.260076,-0.169996 -0.311052,-0.0762 -0.235655,0.433582 -0.279487,0.946568 -0.419231,1.419852 -0.595097,-0.273877 -1.238987,-0.378307 -1.879926,-0.480104 -0.06721,-0.01268 -0.266392,-0.016 -0.201642,-0.03804 0.980343,-0.333748 0.07222,0.836728 0.612683,-1.313482 0.01183,-0.04708 0.08405,0.04871 0.124714,0.07523 0.282977,0.184543 0.300604,0.205111 0.590662,0.42042 0.21563,0.16664 0.460743,0.286404 0.714833,0.381848 0.03589,0.01348 -0.06479,-0.05469 -0.102974,-0.05122 -0.16032,0.01457 -0.340949,0.0096 -0.471734,0.10344 -0.13486,0.09679 -0.174842,0.282221 -0.262263,0.423331 0.06941,0.502637 -0.480823,0.07184 -0.715697,-0.05261 0.06708,0.02576 0.156068,0.133179 0.201233,0.07729 1.25297,-1.550397 0.202268,-1.326311 1.472862,-1.030175 0.102305,0.01728 0.204611,0.03456 0.306916,0.05184 1.074398,0.187416 0.809353,1.706845 -0.265046,1.519429 l 0,0 c -0.135451,-0.02419 -0.270902,-0.04839 -0.406352,-0.07258 -0.378709,-0.09474 -0.749722,-0.189852 -1.093664,-0.382264 -0.686276,-0.383925 -0.401045,-0.453018 0.297957,-1.596598 0.04319,-0.07066 0.155862,0.05602 0.233792,0.08403 0.766857,0.493653 1.293264,0.385627 1.507062,1.502624 -0.09239,0.216749 -0.108529,0.485686 -0.277154,0.650249 -0.636827,0.621488 -1.514138,-0.01304 -2.061438,-0.371929 -0.0438,-0.0328 -0.681062,-0.42311 -0.686936,-0.474955 -0.119221,-1.05224 -0.275692,-1.6168 0.724259,-1.429136 0.746366,0.118678 1.494512,0.25118 2.189379,0.562968 -0.01706,0.52026 0.108692,1.065397 -0.05117,1.56078 -0.04532,0.140452 -1.479227,-0.492628 -1.513528,-0.513552 -0.648462,-0.357988 -1.31531,-0.673713 -1.970999,-1.017869 -0.207147,-0.138062 -0.670207,-0.385857 -0.688468,-0.68989 -0.06811,-1.133872 0.660625,-1.332889 1.504266,-1.05372 0.787585,0.307568 1.59437,0.553847 2.393336,0.830805 0.104524,0.03563 0.861193,0.179932 0.883501,0.257109 0.412257,1.426241 0.623717,1.588088 -0.229804,1.580035 -0.546607,-0.04334 -1.089622,-0.08401 -1.641327,-0.07173 -0.747417,-0.03458 -1.499113,-0.087 -2.225181,-0.279978 -0.718048,-0.21378 -1.44401,-0.461291 -2.074847,-0.8726 -0.541571,-0.372174 -1.111868,-0.732043 -1.735173,-0.946017 -0.670626,-0.26086 -1.361986,-0.4575 -2.05121,-0.660467 -0.740759,-0.278257 -1.480024,-0.560254 -2.171333,-0.949779 -0.668749,-0.40675 -1.353929,-0.786911 -2.000186,-1.229533 -0.710881,-0.484415 -1.447469,-0.962621 -2.011081,-1.621385 -0.753792,-1.034475 -0.469534,-1.858656 0.79481,-2.099257 0.717055,0.01246 1.352388,0.235321 1.869679,0.75017 0.50451,0.316645 1.033697,0.570535 1.553938,0.859273 0.507075,0.391313 1.01734,0.766327 1.599943,1.044224 1.103631,0.562342 2.095901,1.303823 3.135818,1.972369 1.133543,0.708101 2.262844,1.422495 3.366522,2.176573 0.335097,0.230279 0.67258,0.456628 1.007291,0.687351 0.07544,0.052 0.230011,0.06183 0.228072,0.153438 -0.03334,1.575826 0.139785,1.431828 -0.713422,1.406902 -0.684065,-0.236106 -1.34055,-0.557701 -2.005705,-0.841291 -0.667905,-0.298711 -1.632401,-0.788867 -1.224051,-1.71805 0.08172,-0.185942 0.270294,-0.303231 0.405441,-0.454847 0.920797,-0.326831 1.529407,0.01069 2.311173,0.493793 0.401246,0.191025 0.381581,0.172509 0.751603,0.382019 0.08986,0.05088 0.341909,0.112384 0.257624,0.172042 -0.654436,0.463224 -0.20166,-0.513631 -0.495334,1.103749 0.06577,0.06111 0.144631,0.110622 0.197299,0.183323 0.03171,0.04377 -0.08595,-0.06594 -0.132342,-0.09366 -0.418801,-0.250266 -0.824329,-0.499527 -1.217509,-0.791071 -0.121342,-0.08998 -0.23708,-0.187274 -0.355621,-0.280911 -0.201772,-0.158539 -0.903051,-0.647591 -0.969919,-0.889416 -0.250456,-0.905761 -0.157845,-1.757637 1.082201,-1.263204 0.836363,0.466619 1.560638,1.073364 2.348462,1.613362 0.108917,0.06497 0.216342,0.13251 0.326753,0.194907 0.0803,0.04538 0.260643,0.03738 0.245158,0.1283 -0.319308,1.874993 -0.306317,1.514976 -1.341105,1.122187 -0.839583,-0.414926 -1.681397,-0.861274 -1.966966,-1.820973 0.05837,-0.249801 0.02151,-0.543943 0.175116,-0.749405 0.571749,-0.764783 1.57074,-0.139932 2.189404,0.126487 0.727539,0.298933 1.421392,0.671021 2.19758,0.837751 1.125713,0.352955 1.073658,-0.13569 0.997009,1.54993 -0.225458,-0.104756 -0.753934,-0.262181 -0.975514,-0.52006 -0.581125,-0.17317 -1.205041,-0.213948 -1.756784,-0.498014 C 48.32873,19.366129 47.578676,19.282194 46.857509,19.160937 46.0155,19.027961 45.205945,18.788484 44.387297,18.556509 43.451112,18.25803 42.531226,17.896083 41.64727,17.466984 40.715755,17.02186 39.843033,16.464402 38.899296,16.042156 37.958372,15.529931 37.054941,14.963827 36.270498,14.225549 35.499312,13.454362 36.589934,12.36374 37.36112,13.134926 z"
       inkscape:connector-curvature="0" />
    <path
       style="fill:#de2d26;fill-opacity:1;stroke:none"
       id="path3076"
       d="m 50.258555,20.969439 c 0.876087,0.372828 1.690176,0.867785 2.553876,1.266328 0.770776,0.245659 0.425703,-0.163509 -0.02588,0.331612 -0.603995,-0.807317 -0.415332,-0.316991 1.111959,-1.042326 0.181635,0.318961 0.345897,0.643093 0.557139,0.9444 0.01351,0.01927 -0.01106,-0.05721 -0.03415,-0.06182 -0.294508,-0.05873 -0.594992,-0.08199 -0.892488,-0.122979 -0.531487,1.041489 -0.263517,0.490271 -0.833079,0.188453 0.205567,0.0116 0.432012,0.125814 0.616703,0.03481 0.210602,-0.103773 0.294793,-0.365616 0.43573,-0.55339 0.01441,-0.0192 0.01564,-0.08576 0.02907,-0.06587 0.105101,0.155613 0.258792,0.523052 0.354719,0.69459 0.372083,0.735459 0.623543,1.706858 -0.474363,2.025259 -0.195847,0.0568 -0.400174,-0.07867 -0.600261,-0.118006 -0.861153,-0.45441 -1.658253,-1.034742 -2.396347,-1.668108 -0.107168,-0.08483 -0.212467,-0.172067 -0.321503,-0.254478 -0.587635,-0.444143 -0.332747,0.02561 0.197941,-0.238884 0.103455,-0.05156 0.153281,-0.173065 0.229922,-0.259598 0.01685,-0.02816 0.02331,-0.06618 0.05054,-0.0845 0.06572,-0.04419 0.118768,0.105413 0.170998,0.164943 0.228459,0.260389 0.490173,0.476301 0.742788,0.713286 0.111705,0.07925 1.005518,0.840518 0.933567,0.981505 -0.668115,1.30915 -0.575984,1.188505 -1.370036,0.972465 -0.415004,-0.110288 -0.73931,-0.349096 -1.066544,-0.61421 -0.292053,-0.236613 -0.261553,-0.144838 0.247491,-0.04522 0.725341,-0.595016 0.481922,-0.161821 0.47252,-1.042424 -5.84e-4,-0.05469 0.09987,0.04464 0.149734,0.06712 0.17911,0.08075 0.211685,0.08272 0.411961,0.143263 0.223567,0.115893 0.440538,0.185021 0.685705,0.214804 0.04317,0.0052 0.171444,0.0023 0.129658,0.01432 -0.143609,0.04134 -0.360724,-0.04991 -0.441907,0.07556 -0.191037,0.295242 -0.178217,0.680361 -0.267325,1.020541 -0.02354,0.110284 -1.010416,-0.661645 -1.130621,-0.749316 -0.459821,-0.375656 -0.860767,-0.81795 -1.355598,-1.149297 -0.619758,-0.395408 -1.274165,-0.722841 -1.761314,-1.286591 -0.290913,-1.020571 0.147882,-1.321111 1.0911,-1.354658 1.088464,0.06858 0.991474,1.607903 -0.09699,1.539321 l 0,0 c 0.475646,-0.471271 0.433276,-0.480198 0.238649,-1.111604 -0.160167,-0.05553 0.250023,0.231192 0.391451,0.324655 0.05467,0.03613 0.67096,0.389942 0.708874,0.413591 0.104132,0.06495 0.2033,0.137547 0.30495,0.20632 0.498951,0.351485 0.939618,0.766292 1.391141,1.174603 0.501908,0.369853 1.033303,0.706475 1.492744,1.124153 -0.05976,0.383232 0.01323,0.812974 -0.179272,1.149697 -0.254987,0.446031 -1.38193,-0.0222 -1.676193,-0.138668 -0.619143,-0.208242 -1.771663,-0.635775 -1.501794,-1.563645 0.07451,-0.256198 0.376559,-0.378105 0.564839,-0.567158 0.212406,0.01039 0.429352,-0.01373 0.637219,0.03116 0.417564,0.09019 0.599907,0.640832 1.05352,0.662558 0.326978,0.352042 -0.0461,-0.07664 -0.513473,1.158117 -0.01608,0.04249 0.127132,0.129835 0.0943,0.09842 -0.212556,-0.203397 -0.0959,-0.119104 -0.364566,-0.353099 -0.107537,-0.09366 -0.219986,-0.181521 -0.329979,-0.272281 -0.686385,-0.646154 -1.452152,-1.249184 -1.406053,-2.285407 0.102895,-0.193493 0.141586,-0.438685 0.308684,-0.580477 0.73284,-0.62186 1.536404,0.08452 2.089801,0.532776 0.606268,0.525242 1.264601,0.990892 1.953774,1.401026 -0.545752,0.08035 -0.658154,0.274148 -0.688459,0.769718 -5.23e-4,0.0086 -0.112898,-0.552109 -0.147471,-0.488775 -0.357397,-0.639158 -1.014585,-1.602955 -0.138779,-2.219541 0.201242,-0.141679 0.491981,-0.01546 0.737972,-0.02319 0.406753,0.230254 1.381921,1.097382 1.309233,1.620622 -0.04281,0.30819 -0.223829,0.580652 -0.335744,0.870979 -0.332245,-0.01882 -0.672369,0.01788 -0.996734,-0.05647 -0.259561,-0.0595 -0.639844,-1.04078 -0.816639,-1.263338 0.392212,-0.346636 0.748299,-0.739052 1.176636,-1.039908 0.04765,-0.03347 0.06537,0.0964 0.09805,0.144594 -0.001,0.0044 -0.0055,0.0094 -0.0031,0.01311 0.05694,0.08629 0.124217,0.165613 0.178901,0.253349 0.161151,0.258556 0.19334,0.389571 0.315082,0.695797 0.135378,1.48068 -0.964391,1.768468 -2.147194,1.303021 -0.837665,-0.389971 -1.631886,-0.861684 -2.477935,-1.233562 -1.012618,-0.405047 -0.439795,-1.837105 0.572823,-1.432058 z"
       inkscape:connector-curvature="0" />
  </g>
</svg>
