<?xml version="1.0" encoding="UTF-8" standalone="no"?>
<!-- Created with Inkscape (http://www.inkscape.org/) -->

<svg
   xmlns:dc="http://purl.org/dc/elements/1.1/"
   xmlns:cc="http://creativecommons.org/ns#"
   xmlns:rdf="http://www.w3.org/1999/02/22-rdf-syntax-ns#"
   xmlns:svg="http://www.w3.org/2000/svg"
   xmlns="http://www.w3.org/2000/svg"
   xmlns:xlink="http://www.w3.org/1999/xlink"
   xmlns:sodipodi="http://sodipodi.sourceforge.net/DTD/sodipodi-0.dtd"
   xmlns:inkscape="http://www.inkscape.org/namespaces/inkscape"
   id="svg2"
   version="1.1"
   inkscape:version="0.48.4 r9939"
   width="357"
   height="634"
   sodipodi:docname="46693-908.svg">
  <metadata
     id="metadata8">
    <rdf:RDF>
      <cc:Work
         rdf:about="">
        <dc:format>image/svg+xml</dc:format>
        <dc:type
           rdf:resource="http://purl.org/dc/dcmitype/StillImage" />
        <dc:title />
      </cc:Work>
    </rdf:RDF>
  </metadata>
  <defs
     id="defs6" />
  <sodipodi:namedview
     pagecolor="#ffffff"
     bordercolor="#666666"
     borderopacity="1"
     objecttolerance="10"
     gridtolerance="10"
     guidetolerance="10"
     inkscape:pageopacity="0"
     inkscape:pageshadow="2"
     inkscape:window-width="1280"
     inkscape:window-height="732"
     id="namedview4"
     showgrid="false"
     inkscape:zoom="1.61"
     inkscape:cx="228.91314"
     inkscape:cy="140.05701"
     inkscape:window-x="-8"
     inkscape:window-y="-8"
     inkscape:window-maximized="1"
     inkscape:current-layer="layer1" />
  <image
     width="357"
     height="634"
     xlink:href="file:///tmp/broken-interfaces/phone_cropped_display/46693-908.png"
     id="image10"
     x="0"
     y="0" />
  <g
     inkscape:groupmode="layer"
     id="layer1"
     inkscape:label="g0">
    <g
       id="g0"
       inkscape:label="#g3076">
      <path
         inkscape:connector-curvature="0"
         d="m 366.29747,26.877671 c -1.13938,-0.01173 -2.24972,0.276678 -3.32643,0.620983 -0.79345,0.352509 -1.37852,1.001239 -2.04437,1.535333 -1.00752,0.78453 -1.85091,1.779485 -2.65076,2.770334 -0.97545,1.276312 -2.16408,2.380622 -3.09208,3.694304 -0.56012,0.600684 -1.02911,1.256487 -1.53652,1.893075 -0.31704,0.488813 -0.59067,1.004275 -0.90521,1.50368 -0.61174,1.07276 -1.15742,2.180386 -1.73573,3.271242 -0.58286,1.189421 -1.0957,2.397511 -1.55623,3.637782 -0.35755,1.284111 -0.89786,2.511039 -1.24736,3.796471 -0.2117,0.900852 -0.6072,1.731653 -0.81856,2.632715 -0.34028,0.982455 -0.61806,1.978413 -0.97153,2.956285 -0.28219,0.8969 -0.53777,1.791629 -0.87274,2.673334 -0.38203,0.896955 -0.90397,1.730244 -1.24748,2.642317 -0.37676,1.006481 -0.75347,2.009343 -1.19374,2.990056 -0.32873,1.082983 -0.98716,2.013164 -1.42431,3.046412 -0.57346,1.362897 -1.09481,2.738889 -1.73837,4.072909 -0.41655,0.877404 -1.06504,1.669114 -1.33529,2.613626 -0.40335,0.649484 -0.57677,1.370377 -0.83686,2.07451 -0.50608,1.307082 -1.15825,2.55481 -1.88313,3.752641 -0.68315,1.139339 -1.38048,2.264906 -1.85214,3.510619 -0.11622,0.630198 -0.66749,1.080738 -0.77242,1.704775 -0.18506,1.100499 -0.67062,2.138696 -1.09681,3.164926 -0.5111,1.415626 -1.22663,2.741093 -1.85282,4.105158 -0.54454,1.008932 -0.94354,2.082945 -1.3435,3.15431 -0.32421,1.215905 -0.58396,2.453451 -0.81702,3.691625 -0.41716,1.836577 -0.9807,3.631267 -1.56838,5.418977 -0.41498,1.48452 -0.7713,2.9869 -1.11767,4.48973 -0.26721,1.14327 -0.32023,2.30754 -0.60289,3.44794 -0.17825,0.68073 -0.34142,1.3612 -0.43387,2.05886 -0.0446,0.63236 -0.0276,1.26721 -0.0247,1.90062 0.006,1.23515 0.009,2.47032 0.0102,3.70549 -0.11361,1.25433 -0.40007,2.4811 -0.56547,3.72867 -0.098,0.92816 -0.10753,1.8631 -0.11347,2.79555 8.2e-4,1.09171 -3e-4,2.18343 0.002,3.27514 -3.6e-4,1.2726 -0.31173,2.52327 -0.4972,3.77919 -0.11675,0.88014 -0.1505,1.76792 -0.17812,2.6544 -0.003,0.48199 -0.066,0.96718 0.10379,1.37309 0.27384,0.70204 0.42405,1.43828 0.51357,2.18379 0.0636,0.71762 0.058,1.4392 0.0619,2.15898 0.006,1.09281 -4.2e-4,2.18562 -6.4e-4,3.27843 -0.002,0.84608 -0.007,1.69216 -0.006,2.53825 0.31312,0.98804 0.44432,2.02523 0.55111,3.05282 0.11515,1.32421 0.43871,2.61811 0.60887,3.93809 0.13626,1.16692 0.17106,2.34134 0.18732,3.51491 0.01,1.27205 0.01,2.54416 0.0136,3.81624 0.002,1.83835 0.002,3.6767 8.2e-4,5.51505 -0.003,1.42603 -0.005,2.85208 -0.0134,4.27808 -2.4e-4,1.0371 -6e-4,2.0742 -0.001,3.11129 3.1e-4,0.93792 -0.002,1.87584 -0.002,2.81376 -0.001,0.9597 0.001,1.91939 0.003,2.87909 0.006,1.28751 0.003,2.57506 0.003,3.8626 -0.096,1.27171 0.0756,2.49923 0.2862,3.74673 0.22948,1.32622 0.3105,2.67014 0.35945,4.0131 -0.0756,0.88638 0.071,1.67699 0.28673,2.52099 0.12984,0.82177 0.4871,1.56258 0.7274,2.35577 0.21704,0.82057 0.59369,1.57401 0.79562,2.40594 0.32732,0.77998 0.57135,1.58621 0.87871,2.37433 0.27392,0.77613 0.70343,1.47935 1.13061,2.17672 0.33664,0.61798 0.67527,1.22092 1.00483,1.84135 0.48684,0.79469 0.83971,1.65485 1.3116,2.46124 0.57945,1.04867 1.06994,2.13309 1.55686,3.22582 0.51995,1.31867 1.18443,2.57151 1.69432,3.89411 0.52087,1.34373 1.13608,2.64522 1.72812,3.95803 0.56567,1.19625 1.30376,2.2959 1.93922,3.4542 0.73923,1.31973 1.46481,2.65186 2.07581,4.03626 0.6712,1.47684 1.23422,3.00191 2.03428,4.41617 0.75028,1.46283 1.55097,2.90507 2.22648,4.40448 0.44123,0.99738 0.95321,1.95052 1.46261,2.91276 0.51884,0.84691 1.07525,1.65167 1.48416,2.56165 0.30181,0.5743 0.71171,1.03585 1.09625,1.54984 0.39123,0.54998 0.92022,0.95233 1.45227,1.36049 0.77591,0.53062 1.57453,1.04695 2.3855,1.52654 1.15223,0.56743 2.33372,1.06149 3.56012,1.44408 1.35773,0.48794 2.73899,0.90738 4.12063,1.32035 1.44496,0.51044 2.88695,1.03482 4.37193,1.41717 1.30303,0.50487 2.67575,0.76495 4.00679,1.16509 1.07949,0.37976 2.21076,0.54705 3.31698,0.83087 1.35507,0.33812 2.70306,0.73195 4.00735,1.23443 0.10751,0.0839 1.81294,0.69625 0.82416,0.41353 0,0 -0.17811,2.68754 -0.17811,2.68754 l 0,0 c -0.57266,-0.1173 -1.08774,-0.30781 -1.6206,-0.55292 -1.211,-0.45924 -2.45821,-0.82833 -3.7141,-1.14043 -1.14673,-0.29721 -2.31965,-0.4757 -3.43992,-0.87048 -1.27985,-0.41364 -2.63868,-0.59926 -3.89322,-1.11451 -1.51872,-0.39904 -3.00112,-0.92181 -4.47683,-1.45654 -1.38683,-0.42861 -2.78542,-0.81913 -4.14873,-1.32165 -1.42842,-0.45429 -2.80659,-1.0343 -4.13859,-1.72288 -0.89777,-0.54572 -1.79126,-1.11107 -2.65057,-1.7135 -0.7119,-0.55911 -1.41769,-1.14044 -1.94982,-1.88101 -0.5047,-0.66841 -1.0294,-1.3116 -1.41036,-2.06489 -0.37984,-0.85042 -0.93905,-1.58285 -1.3985,-2.39054 -0.54938,-1.01248 -1.0892,-2.02407 -1.56258,-3.07553 -0.63814,-1.42729 -1.42684,-2.78672 -2.12494,-4.18522 -0.83365,-1.50207 -1.46712,-3.09543 -2.15719,-4.66647 -0.55566,-1.31739 -1.2745,-2.56271 -1.95842,-3.81666 -0.66247,-1.22213 -1.45366,-2.37217 -2.0356,-3.63816 -0.61337,-1.36123 -1.24884,-2.71186 -1.78766,-4.10544 -0.48581,-1.2825 -1.14862,-2.4881 -1.63692,-3.77028 -0.44053,-1.00812 -0.89027,-2.00382 -1.42205,-2.96925 -0.47485,-0.83768 -0.85047,-1.71892 -1.34021,-2.54449 -0.30659,-0.57266 -0.60916,-1.14054 -0.93372,-1.70148 -0.50772,-0.83723 -1.01529,-1.68253 -1.34841,-2.6088 -0.34971,-0.91113 -0.64704,-1.83569 -0.98859,-2.74995 -0.15755,-0.77298 -0.5921,-1.44694 -0.74584,-2.22141 -0.25401,-0.82921 -0.61647,-1.62109 -0.76483,-2.47974 -0.25564,-1.02106 -0.43932,-2.02396 -0.3746,-3.0844 -0.0483,-1.22512 -0.12577,-2.45159 -0.33111,-3.66193 -0.23521,-1.39531 -0.41442,-2.78113 -0.32208,-4.20102 4e-4,-1.28754 -0.003,-2.57509 0.003,-3.8626 0.002,-0.9597 0.005,-1.91939 0.003,-2.87909 3.3e-4,-0.93791 -0.002,-1.87583 -0.002,-2.81374 -4.7e-4,-1.0371 -8.5e-4,-2.07419 -0.001,-3.11129 -0.008,-1.42617 -0.0103,-2.85239 -0.013,-4.27859 -6e-4,-1.83919 5.1e-4,-3.67838 0.006,-5.51757 0.007,-1.25788 0.0169,-2.51581 0.01,-3.77371 -0.0164,-1.07124 -0.0558,-2.14256 -0.17867,-3.2077 -0.17051,-1.34339 -0.50964,-2.65938 -0.61358,-4.00953 -0.11083,-1.12466 -0.34563,-2.21894 -0.54867,-3.32837 9.4e-4,-0.84681 -0.004,-1.69361 -0.004,-2.54042 0.002,-1.09141 -10e-4,-2.18281 0.007,-3.2742 0.003,-0.62031 0.0158,-1.2425 -0.035,-1.86132 -0.0508,-0.53042 -0.18021,-1.04846 -0.36553,-1.54771 -0.27261,-0.77924 -0.31981,-1.55218 -0.27059,-2.37102 0.0154,-0.99532 0.0586,-1.99154 0.18907,-2.9793 0.15782,-1.12914 0.44826,-2.2496 0.47222,-3.38817 -7.3e-4,-1.10023 -0.008,-2.20045 5.6e-4,-3.30066 0.01,-1.04066 0.0183,-2.08379 0.13556,-3.11916 0.14054,-1.13368 0.36975,-2.25104 0.53242,-3.38127 -3.2e-4,-1.23566 -0.001,-2.47133 0.001,-3.70699 0.003,-0.74535 -0.006,-1.49284 0.0614,-2.2359 0.0957,-0.80534 0.27064,-1.59479 0.47381,-2.37964 0.279,-1.12291 0.30057,-2.28018 0.58065,-3.40528 0.36368,-1.58377 0.73141,-3.16821 1.16958,-4.73235 0.54735,-1.67781 1.08816,-3.357092 1.49126,-5.076689 0.26826,-1.388857 0.56335,-2.77959 0.95628,-4.137172 0.42676,-1.128288 0.83989,-2.265876 1.41221,-3.331234 0.61191,-1.340561 1.30307,-2.646365 1.81492,-4.031402 0.38693,-0.902447 0.83683,-1.807549 0.9927,-2.781936 0.2056,-0.714205 0.58449,-1.306403 0.84783,-1.979361 0.52381,-1.412647 1.27572,-2.703769 2.06202,-3.985195 0.65489,-1.06044 1.23337,-2.173594 1.70182,-3.3289 0.29942,-0.606616 0.33471,-1.354043 0.77763,-1.903605 0.35529,-1.04791 0.89529,-2.00844 1.45053,-2.962389 0.62274,-1.304636 1.12763,-2.651874 1.70273,-3.976871 0.45895,-1.036944 1.08657,-1.990005 1.4407,-3.07456 0.42215,-0.94084 0.787,-1.902533 1.14287,-2.870377 0.35968,-0.892578 0.8225,-1.735356 1.24013,-2.601537 0.32481,-0.876238 0.57897,-1.757564 0.85637,-2.64926 0.32003,-0.875406 0.55846,-1.770756 0.88604,-2.643681 0.21821,-0.937582 0.60417,-1.808128 0.83338,-2.739519 0.37901,-1.362215 0.91465,-2.674856 1.31431,-4.031147 0.50937,-1.349086 1.06957,-2.669614 1.70421,-3.965345 0.61803,-1.15257 1.19397,-2.327323 1.86345,-3.451849 0.40037,-0.6086 0.71647,-1.256099 1.16693,-1.829951 0.34849,-0.516266 0.87746,-1.152735 1.33745,-1.683229 0.97327,-1.35851 2.14627,-2.550903 3.19239,-3.850784 0.93974,-1.131985 1.91913,-2.269636 3.09068,-3.167673 0.93622,-0.715391 1.73571,-1.619458 2.89708,-1.997305 1.34391,-0.428548 2.73428,-0.772437 4.15634,-0.734879 0,0 0,2.712971 0,2.712971 z"
         id="path3000"
         style="fill:#de2d26;fill-opacity:1;fill-rule:nonzero;stroke:none" />
      <path
         inkscape:connector-curvature="0"
         d="m 369.65552,363.35437 c -1.35301,0.0234 -2.68494,0.32409 -4.02711,0.48621 -1.06203,0.25591 -2.13085,0.48202 -3.16041,0.84996 -1.00283,0.37139 -1.70927,1.12742 -2.51551,1.79115 -0.99619,0.85763 -1.98479,1.72786 -2.97267,2.59761 -0.8003,0.68685 -1.61794,1.35784 -2.55625,1.84652 -0.55577,0.4447 -1.17731,0.7608 -1.84902,0.9847 -0.44366,0.27872 -1.09517,0.63454 -1.63846,0.89985 -0.84046,0.43528 -1.61951,0.96944 -2.39791,1.50762 -0.89058,0.56906 -1.65106,1.27519 -2.39111,2.02399 -0.56337,0.64893 -1.12961,1.28762 -1.75136,1.88555 -0.50613,0.47889 -0.99184,0.9668 -1.55992,1.37101 -0.49479,0.31485 -1.10465,0.70328 -1.66687,1.14788 -0.71748,0.67775 -1.65623,1.0636 -2.43067,1.64788 -0.55081,0.32938 -1.0889,0.66188 -1.59579,1.05521 -0.56229,0.56055 -1.28581,0.90464 -1.84282,1.46953 -0.81844,0.8711 -1.66799,1.71132 -2.60123,2.46021 -0.45864,0.44543 -1.19379,0.93496 -1.61278,1.17514 -0.45613,0.29263 -0.89888,0.58954 -1.32179,0.92809 -0.67365,0.33506 -0.61102,0.35514 -1.10722,0.79391 -0.62785,0.50778 -1.26819,0.99316 -1.86534,1.53838 -0.88507,0.72778 -1.58991,1.61454 -2.29211,2.51099 -0.65001,0.64633 -1.20279,1.3783 -1.79653,2.07414 -0.28115,0.38605 -0.7641,0.67217 -0.86306,1.16506 -0.36979,0.63986 -0.69048,1.30557 -1.08583,1.93142 -0.31024,0.49103 -0.53021,1.04193 -0.75633,1.57948 -0.17549,0.63878 -0.56699,1.19511 -0.76923,1.82251 -0.39984,0.60477 -0.67397,1.25749 -0.99555,1.89938 -0.24433,0.33372 -0.43656,0.69148 -0.51226,1.09494 -0.0756,0.58135 -0.45607,1.04772 -0.57649,1.61424 -0.24474,0.90604 -0.81596,1.65403 -1.22403,2.48405 -0.21174,0.54849 -0.70543,0.96783 -0.88034,1.52094 -0.0301,0.59933 -0.0583,1.18351 -0.15957,1.777 -0.19372,1.02134 -0.51248,2.00055 -0.85759,2.97882 -0.22191,0.64459 -0.30731,1.31437 -0.35455,1.99026 -0.0267,0.87173 -0.0178,1.74433 -0.0156,2.6164 0.0319,1.10275 -0.30766,2.16892 -0.50322,3.24562 -0.10972,0.55437 -0.15108,1.11854 -0.16954,1.68228 -0.006,0.75073 1.4e-4,1.50149 0.004,2.25222 0.001,1.03168 0.006,2.06339 0.003,3.09507 -0.002,0.82025 -0.002,1.64052 -0.005,2.46077 0.0545,0.55611 -0.11386,1.16791 0.0606,1.70429 0.32624,1.01718 0.45367,2.07468 0.5395,3.13451 0.0667,1.04303 0.0784,2.08857 0.0776,3.13341 -0.0814,0.76768 0.19082,1.46023 0.36539,2.19808 0.22121,0.97757 0.56468,1.91696 0.75913,2.90422 0.27067,0.7259 0.54631,1.4488 0.72641,2.20315 0.27028,0.69729 0.6065,1.36496 0.90642,2.05138 0.4789,0.89158 0.99086,1.75625 1.46452,2.65274 0.39612,0.84274 0.88079,1.63426 1.31405,2.45845 0.2326,0.53495 0.54673,1.0445 0.86915,1.53572 0.55744,0.61899 0.84424,1.41208 1.28492,2.10064 0.40125,0.66392 0.71244,1.41339 1.19782,2.0217 0.43948,0.56273 0.89107,1.11156 1.28339,1.71133 0.37902,0.51983 0.82172,0.98054 1.19452,1.50411 0.35183,0.68609 0.86505,1.26198 1.28506,1.90297 0.3872,0.68869 0.8075,1.35275 1.23044,2.01799 0.44261,0.76355 0.82474,1.5523 1.21002,2.34723 0.44074,0.97367 0.95379,1.91418 1.46435,2.85424 0.44065,0.99459 1.03547,1.90765 1.51859,2.88249 0.50239,0.93245 0.99826,1.87157 1.44256,2.83372 0.46466,0.7582 0.85421,1.55024 1.11231,2.40143 0.29679,0.59959 0.58737,1.21441 0.9428,1.79624 0.5531,1.09828 1.28356,2.08468 1.8278,3.18626 0.46464,0.83885 0.99079,1.64052 1.54895,2.42102 0.48387,0.76903 1.01137,1.53249 1.6594,2.17426 0.59885,0.72811 1.2954,1.35548 2.0119,1.9651 0.78891,0.611 1.4482,1.37889 2.24721,1.97403 0.68782,0.56495 1.36742,1.19489 2.14461,1.63729 1.07776,0.59508 2.14253,1.21285 3.19676,1.85128 1.2808,0.73873 2.60374,1.39765 3.90941,2.09002 1.50529,0.60262 3.03972,1.14143 4.57714,1.65925 1.82543,0.75233 3.66416,1.47695 5.48176,2.24841 2.1398,0.80745 4.28559,1.59076 6.47994,2.23786 2.85526,0.72999 5.66884,1.59843 8.49883,2.4189 2.6361,0.79187 5.24425,1.72833 7.77634,2.80981 0.76823,0.34646 1.51305,0.71846 2.16367,1.25431 0,0 -1.82293,1.99352 -1.82293,1.99352 l 0,0 c 0.86696,0.36259 -2.15056,-1.13284 -1.41338,-0.71209 -2.4406,-1.02068 -4.95578,-1.89546 -7.48489,-2.66704 -2.83162,-0.83048 -5.65001,-1.69639 -8.50636,-2.4394 -2.29187,-0.68396 -4.53334,-1.50708 -6.76591,-2.36324 -1.75395,-0.74408 -3.52943,-1.43972 -5.28501,-2.17975 -1.67709,-0.56711 -3.3565,-1.1494 -4.98414,-1.84413 -1.3506,-0.72041 -2.7232,-1.39885 -4.04633,-2.17041 -1.04953,-0.64235 -2.10951,-1.26343 -3.18158,-1.86522 -0.84892,-0.52988 -1.65153,-1.14833 -2.40344,-1.80747 -0.81386,-0.64427 -1.53928,-1.3891 -2.33957,-2.05108 -0.78684,-0.66405 -1.54285,-1.36351 -2.20829,-2.15033 -0.72086,-0.7633 -1.38111,-1.59343 -1.92327,-2.49362 -0.6372,-0.90732 -1.26051,-1.82515 -1.78487,-2.80293 -0.48831,-1.04007 -1.22835,-1.93613 -1.71038,-2.98263 -0.46275,-0.79125 -0.85387,-1.60873 -1.21149,-2.45161 -0.16299,-0.72583 -0.65986,-1.33058 -0.97175,-1.99162 -0.4396,-0.93738 -0.92081,-1.85555 -1.41312,-2.76588 -0.47362,-0.94336 -1.04386,-1.83556 -1.475,-2.79872 -0.53293,-0.98277 -1.06801,-1.96773 -1.5296,-2.98507 -0.32852,-0.70289 -0.65313,-1.40301 -1.04992,-2.0691 -0.41416,-0.66757 -0.84114,-1.32335 -1.22488,-2.00991 -0.37726,-0.63816 -0.93338,-1.16679 -1.2454,-1.85024 -0.29,-0.56369 -0.91352,-0.94116 -1.20048,-1.51913 -0.37833,-0.56579 -0.80553,-1.08987 -1.22952,-1.61997 -0.48868,-0.70975 -0.92577,-1.45664 -1.32856,-2.21956 -0.40103,-0.70052 -0.73211,-1.43517 -1.2551,-2.0624 -0.3302,-0.55235 -0.68421,-1.10045 -0.9533,-1.68057 -0.44921,-0.82403 -0.92824,-1.6292 -1.33903,-2.47264 -0.4954,-0.95397 -1.05089,-1.86557 -1.53717,-2.82416 -0.36779,-0.8321 -0.77263,-1.64639 -1.05225,-2.51483 -0.19007,-0.79454 -0.5555,-1.53128 -0.76574,-2.32142 -0.17342,-0.94757 -0.54171,-1.83912 -0.72769,-2.78293 -0.22499,-0.92852 -0.52262,-1.85014 -0.43772,-2.81862 -0.009,-0.97802 -0.0222,-1.95626 -0.0824,-2.93279 -0.0721,-0.96687 -0.19658,-1.92248 -0.49192,-2.85049 -0.10859,-0.73355 -0.11314,-1.45925 -0.10002,-2.20037 -0.003,-0.81994 -0.003,-1.63989 -0.005,-2.45983 -0.004,-1.03052 4e-5,-2.06106 -0.002,-3.09158 0.002,-0.77927 -0.002,-1.55864 0.0122,-2.3378 0.0193,-0.69587 0.0723,-1.39142 0.1965,-2.07727 0.16067,-0.91973 0.45994,-1.82848 0.45993,-2.76373 -0.002,-0.93472 -0.0117,-1.87013 0.0313,-2.80416 0.06,-0.91845 0.19267,-1.82923 0.4911,-2.70414 0.30152,-0.87287 0.60115,-1.73336 0.76981,-2.64484 0.26239,-0.63766 -0.0728,-1.47864 0.26846,-2.12275 0.24189,-0.65316 0.62944,-1.21404 0.98978,-1.80612 0.32932,-0.67439 0.766,-1.28418 1.04157,-1.98259 0.15332,-0.53928 0.44122,-1.1079 0.54778,-1.46855 0.14153,-0.65994 0.38359,-1.29894 0.78367,-1.84926 0.35778,-0.41131 0.36283,-1.1472 0.82237,-1.52053 0.25334,-0.66828 0.61387,-1.26855 0.81815,-1.95225 0.28399,-0.67581 0.59057,-1.35135 0.96813,-1.97864 0.2963,-0.46539 0.51155,-0.97287 0.83371,-1.42159 0.31089,-0.76122 0.75326,-1.39813 1.33658,-1.97747 0.5648,-0.67034 1.08441,-1.38124 1.71041,-1.99757 0.79573,-1.02772 1.62449,-2.02116 2.62572,-2.85858 0.55954,-0.49627 1.13143,-0.97857 1.74795,-1.40365 0.3928,-0.37297 0.82388,-0.83734 1.3454,-1.00826 0.43144,-0.35078 0.88131,-0.6725 1.35873,-0.95801 0.53805,-0.37039 1.0985,-0.66717 1.56175,-1.14796 0.86946,-0.71805 1.65886,-1.51902 2.43965,-2.33086 0.65208,-0.59678 1.3937,-1.0344 2.04794,-1.62089 0.54666,-0.43228 1.12709,-0.80861 1.72662,-1.16331 0.78745,-0.52147 1.62673,-0.94513 2.33516,-1.58432 0.59792,-0.43724 1.22888,-0.83691 1.8393,-1.25203 0.38009,-0.30189 0.7716,-0.70505 1.14937,-1.05414 0.60923,-0.5772 1.13248,-1.21931 1.68908,-1.84433 0.85859,-0.86233 1.74884,-1.67562 2.77244,-2.34001 0.88878,-0.62022 1.79436,-1.21594 2.75918,-1.7107 0.69511,-0.33993 1.35369,-0.745 2.06405,-1.05537 0.51723,-0.1837 0.94516,-0.52833 1.41258,-0.82346 0.74851,-0.31812 1.31972,-0.9778 1.95676,-1.46207 1.01312,-0.89085 2.02068,-1.78966 3.04594,-2.66403 1.04895,-0.85017 2.01663,-1.78703 3.32498,-2.23941 1.21921,-0.4384 2.48789,-0.72155 3.75172,-0.99971 1.4495,-0.175 2.88913,-0.52061 4.35462,-0.48718 0,0 0,2.71297 0,2.71297 z"
         id="path3012"
         style="fill:#de2d26;fill-opacity:1;fill-rule:nonzero;stroke:none" />
      <path
         inkscape:connector-curvature="0"
         d="m 347.51982,240.4993 c -1.16071,0.66857 -2.23989,1.42513 -3.16469,2.39372 -1.05896,1.32415 -1.96361,2.76266 -2.89429,4.17819 -0.82426,1.30607 -1.63382,2.60685 -2.28991,4.00747 -0.5388,1.11716 -0.81859,2.32315 -1.17586,3.50336 -0.46876,1.43907 -0.95117,2.88039 -1.53179,4.27946 -0.29888,0.96335 -0.77446,1.8481 -1.32085,2.69111 -0.53426,0.92472 -1.07786,1.84429 -1.4765,2.83738 -0.48355,1.01397 -0.97633,2.01549 -1.59072,2.95725 -0.52223,0.67829 -1.00148,1.38249 -1.57179,2.02224 -0.5245,0.64606 -1.12203,1.22838 -1.67105,1.85256 -0.59615,0.57918 -1.13267,1.1848 -1.82993,1.64982 0.13664,-0.0768 0.0223,0.0988 0.0135,0.11996 -0.69811,-1.77999 -1.15029,-1.64163 -0.008,-1.65455 1.25325,-0.0178 2.50201,-0.0593 3.75062,0.0588 1.63432,0.14839 3.21306,0.58931 4.8088,0.94416 0.91894,0.3094 1.79022,0.70499 2.74403,0.89012 0.83151,0.036 1.61763,0.21615 2.40125,0.49103 0.73483,0.17808 1.37981,0.58288 2.09167,0.82326 0.56446,0.12777 1.14642,0.12549 1.7221,0.13419 1.11832,0.003 2.23668,-0.003 3.35498,-0.0104 1.53187,-0.17454 3.0456,-0.54184 4.52082,-0.98571 1.53411,-0.55996 3.13395,-0.95197 4.63336,-1.60346 1.47201,-0.63207 2.88588,-1.38801 4.33148,-2.07757 1.371,-0.7066 2.77075,-1.35237 4.16544,-2.01152 0.76023,-0.23404 1.23415,-0.45041 1.78586,-0.78014 0,0 1.16397,2.43085 1.16397,2.43085 l 0,0 c 0.0619,-0.0464 0.24473,-0.18931 0.18572,-0.13926 -0.12043,0.10216 -0.2365,0.21159 -0.37015,0.29571 -0.49423,0.31104 -1.05514,0.42172 -1.58574,0.64904 -1.39132,0.67934 -2.7938,1.32871 -4.17191,2.03395 -1.48135,0.69552 -2.92081,1.4777 -4.42623,2.12107 -1.60376,0.6772 -3.29087,1.12569 -4.92911,1.71024 -1.72862,0.5102 -3.4973,0.9539 -5.29911,1.09032 -1.13608,-0.004 -2.27222,0.002 -3.40825,-0.0108 -0.85331,-0.0176 -1.71499,-0.0355 -2.53993,-0.28141 -0.722,-0.24405 -1.38448,-0.62223 -2.11735,-0.82991 -0.67094,-0.23242 -1.30467,-0.34843 -2.02489,-0.38541 -0.97395,-0.18836 -1.89451,-0.51616 -2.81353,-0.88611 -1.49766,-0.32466 -2.9775,-0.73837 -4.50715,-0.89042 -1.14748,-0.13618 -2.30531,-0.0512 -3.45914,-0.0718 -1.71375,-0.008 -1.65771,0.10032 -2.55009,-1.91332 0.20616,-0.59385 0.54138,-1.11468 1.03871,-1.51126 0.5113,-0.33937 0.85844,-0.81693 1.31792,-1.22011 0.57053,-0.61945 1.14844,-1.23103 1.6912,-1.87652 0.49869,-0.48971 0.82144,-1.1228 1.28271,-1.64623 0.51366,-0.80925 0.92944,-1.66192 1.34408,-2.5255 0.4808,-1.15257 1.09267,-2.23603 1.74256,-3.30125 0.47514,-0.68594 0.80604,-1.43349 1.05584,-2.22833 0.53902,-1.3252 0.99925,-2.6838 1.44097,-4.04327 0.40465,-1.30066 0.73335,-2.62678 1.31823,-3.8649 0.71602,-1.51715 1.57234,-2.94567 2.46941,-4.36144 1.03053,-1.5489 2.01133,-3.14028 3.21992,-4.55937 1.10026,-1.13153 2.34602,-2.06812 3.7348,-2.82537 0,0 1.39808,2.33014 1.39808,2.33014 z"
         id="path3016"
         style="fill:#de2d26;fill-opacity:1;fill-rule:nonzero;stroke:none" />
      <path
         inkscape:connector-curvature="0"
         d="m 254.11212,304.00517 c 0.44016,-1.51242 1.20806,-2.88892 1.82681,-4.32757 0.61919,-1.35865 1.26862,-2.70301 1.81672,-4.09273 0.56235,-1.49317 1.30264,-2.89365 2.06456,-4.29007 0.69245,-1.28867 1.44006,-2.53386 2.31556,-3.7072 0.56731,-0.99136 1.42693,-1.75439 2.13422,-2.63076 0.53783,-0.74208 1.02382,-1.52413 1.4973,-2.31004 0.72235,-1.27961 1.71306,-2.3677 2.5876,-3.53734 0.66247,-0.83752 1.37745,-1.62936 2.04277,-2.46369 0.38623,-0.68216 0.7102,-1.3949 1.07828,-2.08759 0.39464,-0.83299 0.86927,-1.63796 1.39091,-2.39936 0.51278,-0.62997 0.95981,-1.2983 1.43276,-1.95724 0.30565,-0.44197 0.55622,-0.91023 0.81479,-1.38628 0.53582,-0.78359 1.27172,-1.37523 1.8884,-2.08952 0.76547,-0.71377 1.42741,-1.52725 2.11589,-2.31315 0.40946,-0.32881 0.77246,-0.70842 1.10271,-1.11534 0.0873,-0.12358 -0.0954,0.28738 -0.15196,0.42772 0.0202,-0.54827 0.46553,-0.9695 0.58587,-1.45217 0.036,-0.14364 0.063,-0.28918 0.0855,-0.43544 -0.012,0.16098 -0.009,-0.25275 -0.009,-0.31272 -3.4e-4,-0.0831 3.5e-4,-0.16615 9.3e-4,-0.24922 -1.3e-4,-0.003 1.9e-4,-0.006 2.8e-4,-0.009 0.89733,0.051 1.79466,0.10196 2.69199,0.15294 0,0 -2.69751,6.4e-4 -2.69751,6.4e-4 l 0,0 c 0.8973,-0.0608 1.7946,-0.1216 2.6919,-0.18239 1.7e-4,0.005 3.7e-4,0.0103 5.2e-4,0.0154 0.002,0.0841 0.004,0.16825 0.005,0.2524 0.002,0.19762 0.006,0.3957 -0.008,0.59299 -0.0284,0.30211 -0.0842,0.60107 -0.15805,0.89531 -0.0676,0.2348 -0.98961,2.4455 -0.49593,0.76641 -0.0114,0.4452 -0.1417,0.87142 -0.42749,1.20974 -0.34236,0.43999 -0.71116,0.88882 -1.1638,1.21578 -0.6805,0.79969 -1.3477,1.619 -2.11865,2.33395 -0.49141,0.55565 -1.05557,1.08823 -1.55989,1.58727 -0.31507,0.58079 -0.64247,1.14234 -1.0067,1.69556 -0.46417,0.62642 -0.87032,1.29096 -1.37993,1.88804 -0.46344,0.67964 -0.88837,1.39276 -1.23009,2.13978 -0.44224,0.83772 -0.82825,1.70391 -1.35134,2.49732 -0.64525,0.82235 -1.3397,1.60253 -1.98594,2.42512 -0.8274,1.095 -1.74967,2.12225 -2.44247,3.31521 -0.55062,0.89404 -1.11577,1.78311 -1.74065,2.62673 -0.70013,0.82645 -1.47573,1.59089 -2.03483,2.53057 -0.80129,1.06464 -1.46699,2.20695 -2.10306,3.37597 -0.70723,1.30083 -1.39013,2.60659 -1.91509,3.99593 -0.56397,1.41114 -1.22315,2.77937 -1.85268,4.16169 -0.61022,1.41724 -1.34089,2.78141 -1.81773,4.25498 0,0 -2.52083,-1.00833 -2.52083,-1.00833 z"
         id="path3030"
         style="fill:#de2d26;fill-opacity:1;fill-rule:nonzero;stroke:none" />
      <path
         inkscape:connector-curvature="0"
         d="m 100.30415,45.91297 c 1.21044,0.547375 2.43849,1.063602 3.64093,1.62772 1.21682,0.532231 2.34628,1.225285 3.48986,1.893536 1.50335,0.953902 3.09788,1.747752 4.63156,2.650477 1.85556,0.91944 3.5882,2.02815 5.29808,3.189458 1.63807,1.067828 2.9824,2.497337 4.31985,3.906391 0.79809,0.73108 1.58389,1.474619 2.40467,2.179567 0.5706,0.567917 1.14238,1.134153 1.75142,1.661808 0.91969,0.754078 1.73884,1.619974 2.65651,2.37489 1.0964,0.851875 2.058,1.855334 3.10638,2.762962 0.82647,0.730687 1.69943,1.402086 2.58265,2.062681 1.067,0.70977 2.06661,1.525741 3.07513,2.318896 1.23923,0.896136 2.52295,1.726367 3.77129,2.609032 1.01352,0.701897 2.03751,1.392582 3.04444,2.105422 0.49734,0.381133 0.87002,0.687439 1.3802,0.989525 0.6979,0.43025 1.34482,0.930767 2.02533,1.387996 0.80333,0.534254 1.63022,1.032964 2.43642,1.565208 0.75743,0.451537 1.44239,0.997277 2.14267,1.530556 0.98846,0.727096 2.0344,1.377623 3.06764,2.041017 1.01802,0.684306 1.87826,1.615032 2.92404,2.255136 0.56302,0.44564 1.12089,0.882465 1.69862,1.3077 0.60677,0.361695 1.06458,0.932486 1.65991,1.302458 0.78852,0.536741 1.57846,1.074461 2.33712,1.650749 0.89483,0.579259 1.72067,1.249552 2.51884,1.953618 0.85291,0.714026 1.6765,1.464906 2.53353,2.174504 0.64327,0.454524 1.30205,0.888083 1.9171,1.384206 0.53883,0.462759 1.04459,0.968529 1.59481,1.420774 0.60959,0.435387 1.27221,0.792187 1.86546,1.256627 0.54834,0.282482 0.85359,0.853576 1.33136,1.202496 0.47629,0.32221 0.91333,0.69764 1.33801,1.08404 0.54235,0.38636 1.07679,0.80455 1.66247,1.13304 1.0015,0.72289 1.92992,1.53333 2.86254,2.341 1.06929,0.83376 1.92044,1.89705 2.99527,2.72241 0.8557,0.73922 1.71016,1.49657 2.38808,2.40519 0.35536,0.40573 0.76358,0.7604 1.15727,1.12775 0.6364,0.45711 0.93129,1.28654 1.51447,1.77956 0.47061,0.61536 0.96928,1.18271 1.56737,1.67662 0.7822,0.7854 1.56555,1.56082 2.30446,2.38829 0.52592,0.58472 1.12066,1.10259 1.68554,1.64886 0.4586,0.58731 1.02867,1.04898 1.53292,1.59075 0.55475,0.62108 1.12654,1.22612 1.7023,1.82766 0.75488,0.93661 1.58757,1.79199 2.40458,2.6753 0.91367,1.38361 2.03211,2.57902 3.12994,3.80969 0.99648,1.10881 2.0523,2.16031 2.97186,3.33719 0.99312,1.25784 1.92921,2.55649 2.89265,3.83676 1.01871,1.32631 1.98092,2.68856 3.0627,3.96611 1.2186,1.27922 2.28777,2.68508 3.42436,4.03505 0.92396,1.30111 1.96094,2.51813 2.89614,3.80957 0.68263,1.02331 1.44695,1.98204 2.26656,2.89788 0.751,0.90312 1.45726,1.84294 2.20036,2.75323 0.75245,1.09004 1.52927,2.16044 2.29131,3.24296 0.62143,0.93035 1.23739,1.86035 1.84798,2.79814 0.27685,0.58565 0.68639,1.07703 0.99039,1.64783 0.39399,0.54166 0.63976,1.16421 0.98125,1.73705 0.32305,0.74128 0.74268,1.42914 1.05574,2.17496 0.40651,0.81359 0.72658,1.65403 1.17712,2.4478 0.64182,1.19407 1.2427,2.40956 1.88079,3.60566 0.6253,1.24958 1.24185,2.50271 1.84604,3.76245 0.59449,0.83593 0.94536,1.80144 1.42784,2.69907 0.34358,0.50627 0.44573,1.12044 0.76077,1.63288 0.3474,0.72936 0.40579,0.74686 0.76423,1.32013 0.40288,0.94864 0.91405,1.83346 1.41587,2.731 0.71325,1.22949 1.38784,2.47715 2.11264,3.69951 0.66917,0.97102 1.09239,2.07175 1.67189,3.09159 0.78739,1.43024 1.39384,2.94787 2.10005,4.41761 0.56758,1.03145 0.94735,2.1777 1.57868,3.17286 0.63443,1.05902 1.35993,2.06009 2.02851,3.09926 0.82401,1.50492 1.65204,3.0041 2.49463,4.49831 0.70287,1.11784 1.2138,2.34023 1.96683,3.42689 0.63024,0.90368 1.22512,1.84417 1.89066,2.72335 0.70831,1.05557 1.4844,2.06071 2.23053,3.08862 0.73511,0.89208 1.26868,1.92027 1.92847,2.86406 0.71675,1.16371 1.50521,2.2776 2.18826,3.46249 0.65181,1.22557 1.42597,2.37804 2.11714,3.58079 0.56824,0.71551 0.77133,1.78638 1.37226,2.46139 0.37023,0.53718 0.64486,0.8058 1.01826,1.30275 0.30798,0.6561 0.67938,1.28003 0.98234,1.93925 0.45253,0.73532 0.85848,1.52844 1.2789,2.29366 0.91508,1.47338 1.76125,2.98458 2.62364,4.48881 0.90092,1.92626 1.96466,3.76589 2.90702,5.67126 0.80954,1.54526 1.5408,3.12887 2.28372,4.70721 0.30163,0.69863 0.77403,1.28943 1.07741,1.9878 0.11055,0.32267 0.31293,0.62397 0.54721,0.87479 0.28929,0.23783 0.75768,1.10031 0.77804,1.02689 0.40549,0.50475 0.76644,1.05204 1.09093,1.6128 0.39712,0.71152 0.82582,1.39832 1.22835,2.10679 0.43327,0.6816 0.8973,1.33854 1.32065,2.0264 0.26567,0.63604 0.73968,1.1242 1.04337,1.74137 0.3271,0.47852 0.62346,0.9586 0.81547,1.50821 0.0771,0.45788 0.37551,0.8601 0.5805,1.37465 0.17654,0.11277 0.28398,1.84533 0.26079,1.18939 0.4719,0.68311 0.54535,1.46624 0.39754,2.29118 -0.16164,0.62183 -0.34348,1.22076 -0.60358,1.8058 -0.19987,0.35171 -0.0768,0.14653 -0.38192,0.60764 0,0 -2.23692,-1.53095 -2.23692,-1.53095 l 0,0 c 0.2094,-0.28828 0.11026,-0.13706 0.29598,-0.45461 -0.17738,0.81165 0.19478,-0.86822 0.27632,-0.98279 0.0758,-0.23032 0.008,-0.10982 0.11072,0.0756 0.011,0.0199 -0.36875,-0.81981 -0.36586,-0.80609 -0.11367,-0.40379 -0.18272,-0.79532 -0.2592,-1.18663 -0.20846,-0.51097 -0.53687,-0.98785 -0.63708,-1.53026 -0.10206,-0.37028 -0.52084,-0.77589 -0.69068,-1.19461 -0.23316,-0.52801 -0.75206,-0.90367 -0.9118,-1.48187 -0.44301,-0.71247 -0.9242,-1.39514 -1.36925,-2.10611 -0.41743,-0.725 -0.85146,-1.43494 -1.25518,-2.16729 -0.12736,-0.32888 -0.46343,-0.59054 -0.55267,-0.9243 -0.44111,-0.43489 -0.60106,-0.86185 -0.99457,-1.25043 -0.38909,-0.47545 -0.76292,-0.98153 -0.97449,-1.56452 -0.27091,-0.66137 -0.8099,-1.18609 -1.04905,-1.87063 -0.76078,-1.55902 -1.49251,-3.12999 -2.29844,-4.66619 -0.91227,-1.85751 -1.95788,-3.64381 -2.82274,-5.52495 -0.86754,-1.52253 -1.72183,-3.05029 -2.62966,-4.54959 -0.45518,-0.84418 -0.87674,-1.70008 -1.3669,-2.52211 -0.1697,-0.48255 -0.57505,-0.88032 -0.66418,-1.39496 -0.35141,-0.47234 -0.7297,-0.91779 -1.08536,-1.38547 -0.54981,-0.85106 -0.97898,-1.77912 -1.5099,-2.64438 -0.68451,-1.20506 -1.47319,-2.34851 -2.11962,-3.57584 -0.63822,-1.12135 -1.38995,-2.16808 -2.05429,-3.27319 -0.64077,-0.93333 -1.18198,-1.93027 -1.8979,-2.81135 -0.73939,-1.01977 -1.51266,-2.0141 -2.2092,-3.06509 -0.67414,-0.91819 -1.30051,-1.87624 -1.95132,-2.81019 -0.78637,-1.15888 -1.38731,-2.41806 -2.10617,-3.61778 -0.82091,-1.4516 -1.6331,-2.90496 -2.41977,-4.37578 -0.66836,-1.06424 -1.40209,-2.0843 -2.0443,-3.16363 -0.64376,-1.09392 -1.14427,-2.26492 -1.72326,-3.394 -0.67949,-1.42129 -1.27218,-2.88355 -2.01354,-4.27478 -0.55157,-1.00713 -0.96943,-2.07726 -1.63199,-3.02316 -0.74282,-1.24335 -1.43515,-2.51142 -2.15398,-3.76892 -0.47273,-0.85654 -0.98858,-1.70073 -1.32132,-2.623 -0.28241,-0.45085 -0.5475,-0.90638 -0.79547,-1.36969 -0.32715,-0.55786 -0.50552,-1.16756 -0.82604,-1.72576 -0.50843,-0.93527 -0.88555,-1.93492 -1.49867,-2.81293 -0.58659,-1.22651 -1.20148,-2.4391 -1.80227,-3.65871 -0.62498,-1.18357 -1.22011,-2.38255 -1.84542,-3.56582 -0.48442,-0.88692 -0.85988,-1.81287 -1.29505,-2.72156 -0.26372,-0.62934 -0.63428,-1.20249 -0.88671,-1.83771 -0.3655,-0.61579 -0.63556,-1.27506 -1.04512,-1.8644 -0.25205,-0.49243 -0.61811,-0.91824 -0.8641,-1.41415 -0.60437,-0.90784 -1.20731,-1.81219 -1.81183,-2.71892 -0.72618,-1.03113 -1.47497,-2.04472 -2.17378,-3.09561 -0.71339,-0.88076 -1.39871,-1.78397 -2.12151,-2.65588 -0.87941,-0.98811 -1.71022,-2.01488 -2.44737,-3.11494 -0.89041,-1.23983 -1.90953,-2.38642 -2.78126,-3.64191 -1.13367,-1.35009 -2.20588,-2.75053 -3.42084,-4.0306 -1.11191,-1.32042 -2.10942,-2.72168 -3.15792,-4.09096 -0.95227,-1.27139 -1.88147,-2.5578 -2.86183,-3.80805 -0.86997,-1.13583 -1.90846,-2.11921 -2.85367,-3.18885 -1.09074,-1.22259 -2.22465,-2.39746 -3.10949,-3.78884 -0.7854,-0.87743 -1.60574,-1.71755 -2.33913,-2.6372 -0.58879,-0.60985 -1.16632,-1.23028 -1.7288,-1.86456 -0.47813,-0.5148 -1.02858,-0.95264 -1.45957,-1.51275 -0.57818,-0.60896 -1.26289,-1.11853 -1.80687,-1.76259 -0.65645,-0.7395 -1.36215,-1.42244 -2.04401,-2.137 -0.64401,-0.56639 -1.25451,-1.16759 -1.75688,-1.86604 -0.4918,-0.54541 -0.88836,-1.17134 -1.41576,-1.68061 -0.51935,-0.49783 -1.07146,-0.96738 -1.51291,-1.53942 -0.40444,-0.74075 -1.30074,-1.19526 -1.8531,-1.81192 -1.09967,-0.87121 -2.02135,-1.91952 -3.10025,-2.81406 -0.80624,-0.70107 -1.61214,-1.39572 -2.45072,-2.05859 -0.73715,-0.44475 -1.42576,-0.95323 -2.10863,-1.4739 -0.37459,-0.34129 -0.75734,-0.6752 -1.18084,-0.95563 -0.50513,-0.40452 -0.85111,-0.9265 -1.41253,-1.26043 -0.45433,-0.56855 -1.4135,-0.69201 -1.88362,-1.26667 -0.5333,-0.466686 -1.03929,-0.959308 -1.58135,-1.414515 -0.55683,-0.549097 -1.328,-0.845894 -1.91062,-1.364107 -0.86945,-0.731012 -1.72183,-1.482196 -2.58729,-2.217639 -0.76018,-0.666035 -1.53994,-1.303994 -2.38897,-1.855887 -0.69395,-0.566402 -1.48141,-1.024486 -2.20342,-1.556189 -0.61635,-0.439891 -1.15807,-0.968299 -1.78206,-1.399073 -0.48971,-0.388347 -1.01665,-0.738077 -1.5042,-1.158884 -1.03352,-0.674661 -1.96244,-1.4983 -2.94359,-2.245443 -1.09576,-0.709004 -2.20318,-1.407525 -3.24633,-2.191492 -0.64498,-0.503608 -1.27682,-1.009625 -1.98949,-1.419076 -0.80671,-0.545178 -1.65023,-1.031451 -2.45834,-1.57311 -0.6578,-0.45149 -1.28364,-0.945295 -1.96133,-1.364986 -0.49966,-0.333283 -1.00404,-0.66757 -1.48919,-1.051514 -1.00191,-0.716952 -2.04994,-1.372891 -3.0558,-2.083853 -1.28396,-0.914347 -2.61119,-1.765445 -3.88168,-2.699599 -0.98671,-0.785175 -1.96347,-1.592418 -3.01633,-2.284864 -0.93094,-0.703063 -1.85468,-1.413594 -2.73369,-2.180995 -1.03192,-0.897953 -1.99319,-1.873332 -3.06826,-2.720693 -0.92922,-0.780631 -1.769,-1.657048 -2.69914,-2.437355 -0.59895,-0.532818 -1.17148,-1.091107 -1.74074,-1.653529 -0.87717,-0.769734 -1.75603,-1.535789 -2.60456,-2.339697 -1.20848,-1.263885 -2.41784,-2.553494 -3.89013,-3.516789 -1.65757,-1.133553 -3.34374,-2.203011 -5.1461,-3.097261 -1.52783,-0.906559 -3.11904,-1.700737 -4.61413,-2.662056 -1.07333,-0.631333 -2.12855,-1.295316 -3.27589,-1.78953 -1.14352,-0.55241 -2.33987,-1.006193 -3.48035,-1.569207 0,0 1.00833,-2.520827 1.00833,-2.520827 z"
         id="path3051"
         style="fill:#de2d26;fill-opacity:1;fill-rule:nonzero;stroke:none" />
    </g>
    <path
       style="fill:#fee0d2;fill-opacity:1;fill-rule:nonzero;stroke:none"
       id="path2999"
       d="m 39.32872,-8.3424225 c 1.113225,1.6589776 2.355231,3.2253384 3.561052,4.8169296 1.083574,1.6437019 2.249034,3.22215384 3.532433,4.7145035 1.23365,1.4298486 2.573187,2.749674 4.00282,3.9804564 1.415184,1.2076477 2.798802,2.4512625 4.249609,3.6158309 0.822022,0.74615 1.642122,1.4875031 2.502369,2.1895511 0.616948,0.502541 1.29336,0.925377 1.948916,1.377411 0.79965,0.556588 1.630565,1.034565 2.517102,1.442945 1.297891,0.536031 2.35985,1.436819 3.479785,2.253808 1.262968,0.990581 2.637761,1.821323 3.845459,2.880444 1.096641,0.978364 2.269415,1.862819 3.343109,2.865834 0.907274,0.820301 1.859344,1.587215 2.796636,2.373524 0.796523,0.752221 1.48352,1.611116 2.273543,2.367875 0.534957,0.683567 1.179997,1.256054 1.775179,1.882472 0.655349,0.625449 1.319091,1.246371 1.939747,1.907633 0.754157,0.753865 1.500609,1.519044 2.21627,2.31179 0.791883,0.818356 1.671684,1.53659 2.538108,2.273603 0.795211,0.708546 1.627502,1.369257 2.47357,2.016188 1.007681,0.752155 1.975524,1.564705 3.041005,2.236565 1.113529,0.633621 2.165617,1.348967 3.204887,2.095592 0.954435,0.633422 1.853352,1.336285 2.760529,2.034097 0.605518,0.435253 1.189069,0.900267 1.767453,1.370712 0.119382,0.06094 0.858885,0.828884 0.675657,0.608004 0.394642,0.108809 0.731012,0.407091 1.075322,0.629231 0.4403,0.466903 0.94828,0.86149 1.42414,1.291168 0.69079,0.686819 1.42695,1.318337 2.14942,1.968181 0.3283,0.308364 0.63548,0.637739 0.93096,0.9773 0.93396,1.075865 -0.58754,2.396688 -1.5215,1.320823 l 0,0 c -0.24232,-0.279976 -0.49505,-0.550861 -0.76352,-0.806123 -0.71431,-0.656046 -1.46198,-1.274785 -2.14645,-1.965495 -0.40266,-0.364421 -0.933702,-0.705556 -1.265409,-1.137476 -0.02188,-0.02849 0.06567,0.02911 0.09851,0.04367 C 98.990986,47.099629 99.557655,47.309378 98.84296,47.060182 98.465127,46.817311 98.149237,46.539263 97.826834,46.228325 97.26156,45.768418 96.690926,45.31428 96.098957,44.888991 95.212378,44.2014 94.329901,43.515822 93.3932,42.895749 92.386126,42.169504 91.364905,41.478061 90.283101,40.864383 89.174349,40.152628 88.150226,39.322304 87.10058,38.528921 86.226945,37.860892 85.368275,37.176203 84.545223,36.446744 83.611594,35.652214 82.667915,34.87276 81.816706,33.988176 81.107424,33.201315 80.369816,32.440229 79.618181,31.695802 79.010708,31.026896 78.329475,30.426286 77.684541,29.794732 77.12544,29.180407 76.47667,28.649546 75.975799,27.980089 75.231424,27.246492 74.550776,26.452213 73.812719,25.712111 72.847873,24.90192 71.869543,24.109782 70.934262,23.266041 69.87655,22.273094 68.710736,21.407875 67.631838,20.437272 66.484603,19.406538 65.132014,18.643527 63.933018,17.675035 62.921571,16.932952 61.96892,16.108363 60.79431,15.622561 59.807041,15.160932 58.875958,14.623774 57.979163,14.008911 57.281993,13.52405 56.562242,13.071352 55.90305,12.535806 55.046416,11.836646 54.226942,11.101018 53.411415,10.354954 51.945934,9.172853 50.53972,7.9213695 49.110067,6.6960407 47.604822,5.3987764 46.193115,4.0083311 44.893994,2.5020654 43.585188,0.97750537 42.386366,-0.62816388 41.283787,-2.3087951 40.076069,-3.902963 38.831342,-5.4715682 37.716856,-7.1335242 36.862035,-8.2732845 38.4739,-9.4821828 39.32872,-8.3424225 z"
       inkscape:connector-curvature="0" />
    <path
       style="fill:#fee0d2;fill-opacity:1;fill-rule:nonzero;stroke:none"
       id="path3003"
       d="m 255.54767,340.23643 c 0.0299,1.52762 -0.0747,3.06033 0.076,4.58216 0.1629,1.72054 0.48101,3.41051 0.80617,5.10534 0.20044,1.35274 0.66981,2.6376 0.91418,3.98208 0.0661,1.08409 0.37587,2.11926 0.60481,3.17525 0.16785,0.82547 0.24571,1.6645 0.2791,2.50505 0.10306,0.82826 0.37161,1.63742 0.48778,2.48166 0.13162,1.31493 0.10256,2.62537 0.36127,3.92293 0.27674,1.25224 0.39649,2.52789 0.45854,3.80622 0.0671,1.42095 0.38046,2.81542 0.5281,4.23194 0.18715,1.80806 0.0905,3.63048 0.26127,5.4376 0.17094,1.97259 0.51118,3.91767 0.81511,5.87179 0.14515,1.77525 0.56485,3.50529 0.82819,5.26266 0.34022,1.51442 0.61077,3.03916 1.0012,4.54124 0.26581,0.9524 0.48455,1.91846 0.59508,2.90152 0.27528,-0.0125 0.41817,0.45225 0.51952,0.67255 0.1297,0.40564 0.16701,0.87891 0.27838,1.07694 0.0983,0.17075 0.20587,0.3363 0.3272,0.49156 -2.4211,0.18156 -0.92783,1.91652 -1.95361,0.88426 -1.0042,-1.01062 0.42502,-2.43077 1.42923,-1.42015 l 0,0 c 0.11372,0.11445 0.42781,0.20833 0.34051,0.34402 -1.06677,1.6581 -0.8453,2.08048 -1.39246,1.44675 -0.20434,-0.25903 -0.3834,-0.53731 -0.54311,-0.82589 -0.18945,-0.38333 -0.33504,-0.78629 -0.34083,-1.2103 0.0368,0.0232 0.14018,0.10127 0.1103,0.0697 -0.36627,-0.38742 -0.68347,-0.75158 -0.77768,-1.30728 -0.0968,-0.88737 -0.30512,-1.75739 -0.5426,-2.61693 -0.40815,-1.57121 -0.69497,-3.16581 -1.04398,-4.75119 -0.2593,-1.75339 -0.68375,-3.47903 -0.82629,-5.25015 -0.30969,-1.9961 -0.65551,-3.98353 -0.83068,-5.99827 -0.15883,-1.80044 -0.0914,-3.61124 -0.25883,-5.41256 -0.14992,-1.45331 -0.47831,-2.88327 -0.53653,-4.34309 -0.056,-1.17973 -0.16537,-2.35694 -0.42263,-3.51227 -0.26294,-1.3407 -0.27296,-2.68775 -0.38175,-4.04677 -0.11647,-0.90646 -0.44264,-1.76229 -0.50403,-2.67067 -0.027,-0.72337 -0.0934,-1.44541 -0.23492,-2.15623 -0.2334,-1.07809 -0.54755,-2.13968 -0.61877,-3.24577 -0.23658,-1.33707 -0.72642,-2.61054 -0.90983,-3.95863 -0.33717,-1.75831 -0.66348,-3.51304 -0.83353,-5.2977 -0.14073,-1.58622 -0.0705,-3.17789 -0.0847,-4.76934 0,-1.4247 2.01483,-1.4247 2.01483,0 z"
       inkscape:connector-curvature="0" />
    <path
       style="fill:#fee0d2;fill-opacity:1;fill-rule:nonzero;stroke:none"
       id="path3005"
       d="m 268.02122,400.03128 c 0.81884,-1.51652 1.92234,-2.80519 3.23065,-3.91467 1.29721,-1.00511 2.71977,-1.83899 4.11359,-2.70236 1.26718,-0.81039 2.40216,-1.8027 3.51064,-2.81375 0.69171,-0.75318 1.55646,-1.31466 2.28409,-2.02543 0.72675,-0.66907 1.48762,-1.29967 2.23963,-1.94228 0.47527,-0.51561 1.061,-1.00631 1.46922,-1.57809 0.25446,-0.3927 0.57404,-0.76861 0.80698,-1.1578 0.16437,-0.53427 0.61347,-0.91588 1.07063,-1.20114 -0.0854,0.0742 0.37968,-0.23347 0.30568,-0.14782 -0.2003,0.20908 -0.40061,0.41816 -0.60091,0.62724 -0.0247,0.033 -0.004,-0.0377 -0.006,-0.0565 -0.0622,-0.55717 0.16624,-1.05241 0.43756,-1.52393 0.21915,-0.40225 0.34632,-0.81029 0.6838,-1.18984 0.23892,-0.22715 0.51298,-0.411 0.81689,-0.53768 0.12378,-0.0426 0.0587,-0.0229 0.19564,-0.0578 1.39435,-0.29251 1.80802,1.6794 0.41367,1.9719 l 0,0 c 0.30598,-0.0821 -0.0711,0.0218 0.12959,-0.0397 -0.0371,0.0211 -0.0737,0.0432 -0.10966,0.0662 0.0364,-0.49761 -0.18307,0.64931 -0.38365,0.79192 -0.0777,0.135 -0.37607,0.77709 -0.16708,0.0292 0.17877,-0.63977 -0.20838,1.11169 -0.005,0.60524 -0.0297,0.46033 -0.35375,1.09567 -0.66408,1.18346 -0.28294,0.16841 -0.13354,-0.0669 -0.2966,0.34293 -0.30027,0.56418 -0.70876,1.05044 -1.07242,1.57548 -0.54602,0.63094 -1.11152,1.25447 -1.71562,1.82887 -0.72539,0.61922 -1.46431,1.22192 -2.16108,1.87155 -0.75509,0.70371 -1.59716,1.3052 -2.31366,2.05294 -1.20058,1.09425 -2.43298,2.16403 -3.8073,3.03782 -1.3124,0.8126 -2.65167,1.59691 -3.87981,2.53328 -1.15088,0.95122 -2.08425,2.09153 -2.79755,3.40742 -0.73301,1.22167 -2.46071,0.18505 -1.72771,-1.03662 z"
       inkscape:connector-curvature="0" />
    <path
       style="fill:#fee0d2;fill-opacity:1;fill-rule:nonzero;stroke:none"
       id="path3007"
       d="m 321.45408,374.78601 c 0.69983,1.61285 1.83196,2.96749 2.85024,4.38108 0.98915,1.19427 1.77175,2.55974 2.7731,3.73997 0.53594,0.75473 1.19586,1.39648 1.76773,2.122 0.37821,0.25325 0.67387,0.66986 0.94368,1.03847 -0.23856,-0.24329 -0.26832,-0.23806 -0.0585,-0.21722 -0.25494,2.05721 0.42637,2.01539 -0.38702,2.01089 -1.42467,-0.008 -1.41316,-2.02294 0.0115,-2.0148 l 0,0 c 0.79483,0.005 0.12202,-0.0405 0.21055,2.01198 -0.53992,-0.0491 -1.01083,-0.1993 -1.40465,-0.60396 -0.26117,-0.36043 -0.55204,-0.69767 -0.899,-0.97949 -0.55837,-0.71116 -1.20942,-1.33789 -1.73221,-2.07811 -1.01457,-1.23401 -1.85738,-2.60664 -2.86049,-3.85276 -1.11248,-1.54712 -2.34103,-3.03496 -3.08564,-4.80976 -0.52912,-1.3228 1.3416,-2.07109 1.87072,-0.74829 z"
       inkscape:connector-curvature="0" />
    <path
       style="fill:#fee0d2;fill-opacity:1;stroke:none"
       id="path3002"
       d="M 55.817154,83.061576 C 54.981899,81.917353 54.265586,80.696056 53.428314,79.553363 52.62624,78.427496 51.675128,77.428007 50.789598,76.369649 49.797857,75.205586 49.074405,73.838012 48.293718,72.528634 47.593297,71.076917 46.75884,69.710316 45.903055,68.34812 45.091994,67.021747 44.317307,65.672115 43.64991,64.267527 42.980006,62.754518 42.146074,61.3279 41.294622,59.912478 40.33664,58.543322 39.56164,57.059628 38.599044,55.69447 37.510289,54.380646 36.493519,53.020823 35.562497,51.590691 34.690487,50.295693 33.993115,48.900635 33.107371,47.614251 32.202274,46.524321 31.172394,45.551799 30.136292,44.5888 28.910835,43.533088 27.821881,42.348342 26.758219,41.134237 25.704966,39.930296 24.73462,38.658372 23.686497,37.449451 22.588222,36.223749 21.687464,34.863913 20.790548,33.490887 19.943132,32.101912 18.958208,30.805064 18.067335,29.444988 17.276129,28.184294 16.6025,26.856938 15.752361,25.634023 14.938798,24.590298 14.097701,23.566793 13.331439,22.487054 12.66089,21.474789 12.035661,20.443742 11.278713,19.491513 10.361023,18.444294 9.3964262,17.439317 8.4279246,16.437358 7.4478129,15.441288 6.4522404,14.460584 5.4607583,13.475869 4.4530769,12.62202 3.43629,11.780873 2.4565362,10.894588 1.3269111,9.8235447 -0.0607434,9.129505 -1.4107956,8.3849329 -3.1354794,7.466099 -4.9672215,6.775897 -6.7274068,5.9267522 -8.1977096,5.2722402 -9.7578857,4.8313261 -11.327116,4.4860319 -12.728849,4.1753511 -12.28948,2.1930015 -10.887747,2.5036823 l 0,0 c 1.7210133,0.3839183 3.4325652,0.8672263 5.0429403,1.5944716 1.7928477,0.865806 3.6616871,1.5636863 5.41467974,2.5088465 1.48678686,0.820173 3.00548986,1.6027201 4.24907176,2.7820651 1.0027512,0.9077885 2.0499895,1.7614855 3.0726384,2.6461455 1.0013661,0.994532 2.0069114,1.984969 2.9965157,2.991244 1.0141191,1.0499 2.0251331,2.102453 2.9818341,3.203799 0.777489,0.983378 1.436036,2.037112 2.119723,3.085018 0.765211,1.088362 1.624934,2.105944 2.431921,3.162693 0.856519,1.240762 1.555443,2.572886 2.345213,3.855894 0.888606,1.36186 1.878883,2.65569 2.723744,4.046712 0.846804,1.296735 1.689756,2.58372 2.730392,3.739112 1.045269,1.206634 2.015776,2.473679 3.064578,3.676587 1.018025,1.162132 2.057615,2.297289 3.233172,3.305328 1.144603,1.064018 2.283581,2.141193 3.262603,3.363399 0.892193,1.30284 1.61052,2.704296 2.483437,4.018804 0.916667,1.411416 1.928635,2.743513 2.996137,4.043988 0.984925,1.408273 1.795009,2.925003 2.773697,4.338072 0.886464,1.473744 1.752229,2.960646 2.451545,4.534959 0.625114,1.334854 1.373968,2.607221 2.136511,3.867532 0.863343,1.375586 1.710999,2.753526 2.41514,4.220512 0.725426,1.216851 1.392244,2.493513 2.309209,3.577945 0.91353,1.092168 1.892531,2.126281 2.72031,3.287974 0.8181,1.120633 1.531247,2.308221 2.335409,3.438376 0.896906,1.121133 -0.688614,2.389549 -1.58552,1.268417 z"
       inkscape:connector-curvature="0" />
    <path
       style="fill:#de2d26;fill-opacity:1;stroke:none"
       id="path3004"
       d="m 161.51103,66.054673 c -1.46508,0.792653 -2.76298,1.854363 -4.0285,2.927966 -1.22579,1.114847 -2.57096,2.089791 -3.74479,3.261056 -1.21991,1.287334 -2.57543,2.386227 -4.05981,3.349673 -1.37649,0.9093 -2.85429,1.647709 -4.26912,2.494157 -0.65108,0.39632 -1.34402,0.714765 -2.02384,1.057038 -1.28242,0.645587 -2.19541,-1.168026 -0.913,-1.813613 l 0,0 c 0.63618,-0.320223 1.28546,-0.616293 1.8952,-0.986333 1.39476,-0.832768 2.84873,-1.563708 4.20725,-2.455656 1.3702,-0.884689 2.61134,-1.898527 3.73392,-3.08734 1.21873,-1.201288 2.58712,-2.227433 3.86127,-3.367849 1.39,-1.177373 2.81904,-2.335881 4.43337,-3.195195 1.28417,-0.642087 2.19222,1.174009 0.90805,1.816096 z"
       inkscape:connector-curvature="0" />
    <path
       style="fill:#de2d26;fill-opacity:1;stroke:none"
       id="path3006"
       d="m 284.81384,263.3642 c -1.13804,1.4177 -2.31628,2.80618 -3.42859,4.24431 -0.97807,1.25261 -1.89566,2.5497 -2.89098,3.78887 -1.21238,1.30954 -2.33755,2.6874 -3.48178,4.05471 -1.3448,1.47193 -2.67989,2.94688 -3.85483,4.55979 -1.15232,1.81812 -2.36083,3.59937 -3.6024,5.35826 -1.13244,1.55822 -2.42714,2.97951 -3.45728,4.61026 -0.9535,1.55505 -1.91637,3.10381 -2.81945,4.69034 -0.73546,1.4747 -1.4457,2.96494 -2.12348,4.467 -0.53232,1.299 -0.95487,2.63834 -1.4795,3.94018 -0.41587,1.1351 -0.86334,2.25917 -1.26879,3.39838 -0.43685,1.23996 -1.03563,2.40285 -1.68559,3.54199 -0.52996,0.83524 -0.97128,1.68636 -1.35016,2.59694 -0.27775,0.85526 -0.54829,1.71339 -0.80601,2.57609 -0.32034,0.93359 -0.76673,1.81249 -1.03111,2.76487 -0.19698,0.92896 -0.51876,1.8282 -0.83537,2.7222 -0.35294,0.93809 -0.60133,1.9055 -0.88756,2.86409 -0.0217,0.11652 -0.0434,0.23305 -0.065,0.34958 -0.28115,1.40795 -2.2723,1.01035 -1.99115,-0.39761 l 0,0 c 0.0374,-0.17951 0.0749,-0.35903 0.1123,-0.53854 0.30171,-0.98696 0.55422,-1.98747 0.91755,-2.95557 0.30237,-0.85318 0.61223,-1.70946 0.79562,-2.59732 0.27627,-0.96121 0.68876,-1.86288 1.04052,-2.79708 0.28124,-0.9281 0.56414,-1.85412 0.87594,-2.77156 0.4123,-0.98826 0.89439,-1.91576 1.46195,-2.82421 0.5931,-1.03406 1.13889,-2.0886 1.53562,-3.21589 0.4164,-1.16553 0.87218,-2.31674 1.29914,-3.47812 0.53914,-1.32556 0.9583,-2.69615 1.51216,-4.01638 0.70798,-1.55699 1.43552,-3.10776 2.20848,-4.6337 0.91942,-1.61431 1.90006,-3.18981 2.86917,-4.77304 1.05373,-1.65611 2.34618,-3.11962 3.51348,-4.6942 1.24863,-1.76718 2.45876,-3.5598 3.62109,-5.38427 1.20491,-1.64685 2.55729,-3.16631 3.93847,-4.66666 1.13721,-1.35492 2.24878,-2.72675 3.45544,-4.02263 0.9886,-1.22892 1.89622,-2.51848 2.8684,-3.76026 1.12099,-1.4449 2.30241,-2.84411 3.44822,-4.26924 0.89691,-1.12113 2.48243,0.14729 1.58552,1.26842 z"
       inkscape:connector-curvature="0" />
    <path
       style="fill:#de2d26;fill-opacity:1;stroke:none"
       id="path3008"
       d="m 345.39594,242.94017 c -0.86779,1.59319 -1.82366,3.13526 -2.71879,4.71307 -1.11684,1.82975 -2.3439,3.57006 -3.31641,5.48441 -1.05666,1.78147 -2.21518,3.5014 -3.32832,5.24886 -0.93871,1.71335 -1.77031,3.48706 -2.55667,5.27506 -0.69909,1.88801 -1.86787,3.52836 -3.03349,5.15036 -1.25052,1.58552 -2.42123,3.22623 -3.55335,4.89717 -1.00308,1.56537 -2.01348,3.12383 -2.9329,4.73974 -0.73838,1.42018 -1.19063,2.95275 -1.6017,4.49206 -0.45918,1.57687 -0.86149,3.165 -1.34364,4.7357 -0.49094,1.56642 -1.06135,3.10567 -1.58563,4.66035 -0.5207,1.40609 -1.05146,2.80863 -1.53544,4.2279 -0.42752,1.33573 -0.53957,2.74211 -0.75957,4.12139 -0.2977,1.61677 -0.95467,3.12116 -1.59376,4.62351 -0.60363,1.38203 -1.26496,2.74037 -1.96045,4.07859 -0.64295,0.99889 -1.11138,2.09075 -1.6355,3.15254 -0.4471,1.02712 -0.81713,2.08038 -1.34558,3.07055 -0.7064,1.20365 -1.3882,2.40857 -2.2194,3.5335 -0.8038,1.1558 -1.33171,2.46037 -1.92191,3.72976 -0.47527,1.17647 -1.06869,2.29141 -1.68013,3.40015 -0.62168,1.01045 -1.36241,1.93858 -1.98039,2.95399 -0.5674,0.92018 -1.12086,1.84302 -1.62316,2.8 -0.42156,1.00218 -0.983,1.93392 -1.46031,2.90718 -0.66286,1.38103 -1.52512,2.64663 -2.38266,3.91051 -0.8066,1.15819 -1.12233,2.53714 -1.46115,3.88379 -0.27627,1.25927 -0.62944,2.50101 -0.96717,3.74512 -0.22308,1.12226 -0.56016,2.2171 -0.77975,3.33997 -0.1051,1.03105 -0.26696,2.0466 -0.45677,3.06545 -0.11311,1.02821 -0.2964,2.03862 -0.49689,3.05291 -0.0669,0.53897 -0.22299,1.06085 -0.36114,1.58439 -0.36651,1.38818 -2.3297,0.86986 -1.96319,-0.51832 l 0,0 c 0.12752,-0.48274 0.27644,-0.96187 0.33248,-1.46014 0.19948,-1.00747 0.37855,-2.0094 0.49267,-3.03091 0.19142,-1.02639 0.34738,-2.04808 0.46075,-3.08625 0.23224,-1.16912 0.57476,-2.31117 0.81234,-3.47918 0.3347,-1.23226 0.68534,-2.46188 0.95784,-3.70946 0.39827,-1.5764 0.80023,-3.17565 1.74978,-4.5274 0.806,-1.18789 1.62145,-2.37443 2.24396,-3.6729 0.49249,-0.9836 1.04649,-1.93545 1.4815,-2.9487 0.52335,-0.99629 1.0992,-1.95731 1.6889,-2.91581 0.60652,-0.98679 1.31055,-1.9036 1.93464,-2.87531 0.58964,-1.06773 1.16084,-2.14149 1.61698,-3.2758 0.64882,-1.39273 1.23617,-2.82149 2.13147,-4.082 0.77682,-1.04464 1.40332,-2.17044 2.06381,-3.28876 0.52724,-0.96316 0.85048,-2.0128 1.31254,-3.00665 0.53215,-1.07307 1.00298,-2.18002 1.65443,-3.18983 0.67311,-1.29054 1.3088,-2.60295 1.89308,-3.93589 0.57459,-1.35034 1.17691,-2.69779 1.45703,-4.14844 0.23822,-1.49338 0.36328,-3.01515 0.84312,-4.45756 0.48428,-1.41701 1.01112,-2.81882 1.53348,-4.22213 0.52038,-1.53595 1.08055,-3.05844 1.56809,-4.60595 0.47499,-1.54739 0.87127,-3.11195 1.32347,-4.66554 0.45863,-1.70539 0.96694,-3.40263 1.79817,-4.97056 0.94568,-1.66183 1.98392,-3.2654 3.0167,-4.87446 1.14278,-1.68669 2.32322,-3.34405 3.58608,-4.94405 1.08536,-1.50686 2.17985,-3.02408 2.82337,-4.78268 0.82915,-1.88171 1.70145,-3.75106 2.70254,-5.54792 1.07829,-1.69244 2.19548,-3.36105 3.23125,-5.07894 0.98939,-1.94036 2.21551,-3.71689 3.36,-5.56543 0.87786,-1.54681 1.81209,-3.06029 2.66865,-4.61906 0.64209,-1.28417 2.45819,-0.37613 1.8161,0.90805 z"
       inkscape:connector-curvature="0" />
    <path
       style="fill:#de2d26;fill-opacity:1;stroke:none"
       id="path3010"
       d="m 250.78183,323.5171 c 1.07387,1.29865 1.84073,2.82048 2.66334,4.28364 0.76951,1.52698 1.38924,3.12379 1.98989,4.72313 0.52758,1.60859 1.04957,3.21903 1.44486,4.86577 0.24869,1.41771 0.57283,2.82039 0.77015,4.24694 0.16982,1.40603 0.1987,2.82381 0.21778,4.23836 0.01,1.33067 0.005,2.6614 0.003,3.99209 -0.002,1.3734 -0.003,2.74682 -0.003,4.12023 -2.2e-4,1.11866 -2.3e-4,2.23733 -2.5e-4,3.35599 -2e-5,1.43575 -2.03048,1.43572 -2.03045,-3e-5 l 0,0 c 2e-5,-1.11883 2e-5,-2.23766 2.4e-4,-3.35649 3.6e-4,-1.37427 9.2e-4,-2.74854 0.003,-4.1228 0.002,-1.32057 0.007,-2.64118 -0.003,-3.96173 -0.0178,-1.33143 -0.0428,-2.66598 -0.19913,-3.98975 -0.18482,-1.36097 -0.50252,-2.69734 -0.73329,-4.05051 -0.37305,-1.56607 -0.87575,-3.0949 -1.3715,-4.62578 -0.56152,-1.50311 -1.14682,-3.00129 -1.85845,-4.44045 -0.76848,-1.36724 -1.47796,-2.7955 -2.47889,-4.01019 -0.89691,-1.12113 0.68861,-2.38955 1.58552,-1.26842 z"
       inkscape:connector-curvature="0" />
    <path
       style="fill:#de2d26;fill-opacity:1;stroke:none"
       id="path3013"
       d="m 293.83771,356.39602 c -0.0152,1.67985 -0.043,3.36582 0.0936,5.04114 0.20087,1.65801 0.34782,3.32017 0.42549,4.98836 0.0966,1.42944 -0.12724,2.84609 -0.48113,4.22553 -0.38349,1.24233 -0.82583,2.45313 -1.30019,3.66252 -0.54499,1.42691 -1.08286,2.85875 -1.57615,4.30438 -0.51207,1.51913 -1.13174,2.98464 -1.89597,4.39344 -0.90667,1.40704 -2.13887,2.55105 -3.22522,3.81324 -0.92569,1.07434 -1.85534,2.14928 -2.8996,3.11047 -0.94035,0.78196 -1.88014,1.56395 -2.83523,2.32758 -0.98771,0.79815 -1.94331,1.6112 -3.00603,2.30919 -1.16444,0.61994 -2.25476,1.35976 -3.35382,2.0859 -0.97377,0.74869 -1.99533,1.45452 -2.91136,2.27438 -0.78336,0.75111 -1.54953,1.51935 -2.42875,2.15919 -0.91178,0.65768 -1.87212,1.23953 -2.76791,1.9196 -1.07367,0.84186 -2.01959,1.82792 -3.04397,2.72568 -1.14053,0.88553 -2.15951,1.88626 -3.12202,2.95782 -0.95962,1.06795 -2.46993,-0.28916 -1.51031,-1.3571 l 0,0 c 1.01718,-1.13161 2.09385,-2.19194 3.29627,-3.12967 1.06278,-0.92561 2.03483,-1.9544 3.15443,-2.81557 0.9118,-0.68863 1.88148,-1.28736 2.81074,-1.95115 0.83352,-0.58397 1.51894,-1.34527 2.26677,-2.03012 0.99676,-0.87273 2.07736,-1.65369 3.13708,-2.44733 1.10082,-0.72684 2.19134,-1.47174 3.35917,-2.08941 1.01146,-0.66255 1.91222,-1.44488 2.85548,-2.20028 0.92266,-0.72984 1.82015,-1.49148 2.72982,-2.23765 0.99185,-0.89806 1.85065,-1.93095 2.73053,-2.93635 0.99373,-1.15378 2.10718,-2.20715 2.98061,-3.45924 0.71403,-1.30639 1.28086,-2.67003 1.75827,-4.08022 0.50585,-1.47346 1.04968,-2.93521 1.60754,-4.3898 0.44592,-1.13151 0.86151,-2.26324 1.22341,-3.42545 0.30547,-1.18337 0.50787,-2.39806 0.41926,-3.62557 -0.0759,-1.64618 -0.22511,-3.28584 -0.42134,-4.92211 -0.14062,-1.82396 -0.13447,-3.66072 -0.0795,-5.48855 0.20304,-1.42132 2.21309,-1.13417 2.01005,0.28715 z"
       inkscape:connector-curvature="0" />
    <path
       style="fill:#de2d26;fill-opacity:1;stroke:none"
       id="path3015"
       d="m 303.47588,366.95266 c 0.96571,0.92774 2.15811,1.59143 3.30708,2.26746 1.17594,0.65295 2.32057,1.33259 3.38657,2.15564 1.03112,0.66217 1.82379,1.60632 2.73719,2.40689 0.88324,0.61488 1.77877,1.21166 2.72255,1.72992 1.02867,0.57717 1.92111,1.37132 2.82924,2.11958 0.92853,0.70601 1.90434,1.34337 2.85324,2.02047 0.86384,0.74953 1.72794,1.49436 2.64442,2.17846 0.88347,0.56282 1.7874,1.08817 2.66761,1.65666 0.81273,0.45874 1.57527,1.00731 2.26626,1.63397 0.64237,0.48357 1.12383,1.10314 1.61067,1.73102 0.5628,0.73038 0.76555,1.56687 0.81313,2.46767 0.0246,1.43554 -2.00558,1.4703 -2.03016,0.0348 l 0,0 c 0.0403,-0.45817 -0.13431,-0.89546 -0.39506,-1.26795 -0.41172,-0.54247 -0.82063,-1.06868 -1.37984,-1.47725 -0.58575,-0.56625 -1.28949,-1.00481 -1.98769,-1.41728 -0.9177,-0.59446 -1.86591,-1.1342 -2.77971,-1.73463 -0.90475,-0.67573 -1.76816,-1.40045 -2.61,-2.15331 -0.98596,-0.70539 -2.00304,-1.36575 -2.96444,-2.10588 -0.81147,-0.66934 -1.60582,-1.38551 -2.51968,-1.9091 -1.06998,-0.59429 -2.09777,-1.26177 -3.08491,-1.98546 -0.87543,-0.77841 -1.64755,-1.67892 -2.6363,-2.32338 -0.99583,-0.77444 -2.07551,-1.39639 -3.17461,-2.01187 -1.22957,-0.72677 -2.50451,-1.44289 -3.54398,-2.43087 -1.12113,-0.89691 0.14728,-2.48243 1.26842,-1.58552 z"
       inkscape:connector-curvature="0" />
    <path
       style="fill:#fee0d2;fill-opacity:1;stroke:none"
       id="path3009"
       d="m 288.74975,260.80548 c 1.6474,1.65681 3.32893,3.33584 5.42966,4.40132 1.5148,1.03935 3.1673,1.54213 4.96329,1.78586 1.98084,0.14908 3.96598,0.20029 5.92844,0.51837 1.51284,0.29868 3.0006,0.69284 4.45194,1.21149 1.64028,0.52447 3.25725,1.10936 4.83918,1.79173 1.78049,0.57804 3.61144,1.02633 5.43592,1.45813 1.72413,0.59391 3.472,1.06697 5.26931,1.37015 2.27287,0.38818 1.72391,3.60251 -0.54897,3.21433 l 0,0 c -1.86349,-0.32163 -3.69014,-0.77756 -5.4742,-1.41195 -2.00679,-0.47857 -4.02596,-0.96193 -5.97363,-1.63647 -1.51814,-0.65487 -3.06877,-1.21693 -4.64516,-1.71531 -1.27681,-0.45649 -2.57898,-0.80565 -3.91069,-1.06903 -1.91836,-0.36652 -3.88748,-0.2838 -5.82506,-0.50218 -2.15198,-0.30961 -4.19232,-0.89957 -6.02,-2.12474 -2.47687,-1.32064 -4.55258,-3.21476 -6.46634,-5.25465 -1.44041,-1.80051 1.1059,-3.83756 2.54631,-2.03705 z"
       inkscape:connector-curvature="0" />
  </g>
  <g
     inkscape:groupmode="layer"
     id="layer2"
     inkscape:label="Layer">
    <g
       id="g1"
       inkscape:label="#g3068">
      <path
         inkscape:connector-curvature="0"
         d="m 5.2003117,642.26731 c 1.1358207,-1.61445 2.5746667,-2.95541 4.0214025,-4.28243 1.3357648,-1.15844 2.5891028,-2.39593 3.8258428,-3.65511 0.739178,-0.82105 1.472932,-1.65101 2.265491,-2.42138 0.831999,-0.71471 1.472822,-1.6216 2.10538,-2.51034 0.453242,-0.66751 1.024648,-1.22303 1.502887,-1.87176 0.59621,-0.77511 1.245445,-1.50446 1.844031,-2.27752 0.723657,-0.76129 1.375935,-1.58995 2.123005,-2.32769 0.557443,-0.69987 1.360588,-1.11845 2.043279,-1.66971 0.885609,-0.5685 1.678353,-1.26399 2.549055,-1.85117 0.807391,-0.52183 1.618018,-1.03672 2.450268,-1.51836 0.702059,-0.37439 1.445633,-0.68025 2.107839,-1.12556 0.594515,-0.31441 1.015654,-0.82471 1.596321,-1.16865 -0.02405,0.006 -0.09008,0.0351 -0.07215,0.018 0.401167,-0.38298 0.902031,-0.67556 1.322559,-1.04122 0.742725,-0.55865 1.500234,-1.11919 2.150593,-1.78675 0.962046,-0.83709 1.978102,-1.62109 3.048606,-2.31505 1.459772,-0.92306 2.873408,-1.91393 4.256179,-2.94813 0.95585,-0.69507 1.761576,-1.55455 2.626986,-2.35374 0.585604,-0.56181 1.068198,-1.21314 1.668251,-1.76655 0.664823,-0.56731 1.345399,-1.07788 1.963498,-1.69876 1.373973,-1.50602 2.901488,-2.85084 4.42146,-4.20494 1.401809,-1.2566 2.796374,-2.52142 4.168657,-3.81023 0.568488,-0.64186 1.128269,-1.29272 1.746477,-1.88766 1.268315,-1.16835 2.487372,-2.3881 3.70964,-3.60405 2.058052,-2.14819 4.124636,-4.28348 6.133876,-6.47839 1.160654,-1.26393 2.323289,-2.52644 3.516335,-3.75998 0.670753,-0.5476 1.319496,-1.11324 1.997344,-1.65236 1.839727,-1.5204 3.671062,-3.0522 5.497909,-4.58899 2.701634,-2.35071 5.380683,-4.72889 8.145088,-7.00619 1.674172,-1.35763 3.349789,-2.71381 5.075264,-4.0051 1.191134,-0.6645 2.147956,-1.636 3.264076,-2.4091 1.392281,-0.9288 2.741289,-1.93178 4.029799,-2.99955 0.86357,-0.62666 1.67161,-1.31604 2.49832,-1.98969 0.77702,-0.66327 1.54027,-1.33971 2.33906,-1.97712 0.62869,-0.57596 1.20561,-1.20491 1.84058,-1.77231 0.78466,-0.73701 1.62345,-1.42963 2.4664,-2.10174 1.46265,-1.32302 2.83122,-2.74575 4.21452,-4.15037 1.41497,-1.41548 2.78078,-2.88126 4.26587,-4.22386 1.41782,-1.10819 2.64976,-2.40697 3.85472,-3.73574 0.78412,-0.88333 1.59257,-1.74375 2.41462,-2.59172 1.66182,-1.51364 3.27076,-3.08277 4.91977,-4.61105 1.83153,-1.92629 3.87967,-3.63227 5.71406,-5.55402 1.17654,-1.35025 2.51726,-2.54476 3.83329,-3.75558 1.01671,-0.94123 2.00805,-1.909 2.99086,-2.88539 1.08476,-1.17335 2.3667,-2.12433 3.48184,-3.2649 1.0064,-1.08434 2.17118,-2.00262 3.19245,-3.07252 0.85439,-0.86216 1.73429,-1.68706 2.70941,-2.41291 1.35035,-0.98961 2.65665,-2.04681 3.89917,-3.16842 1.38468,-1.39396 2.95494,-2.57785 4.45776,-3.83501 1.00005,-0.73741 1.95654,-1.53765 2.98168,-2.23949 0.66888,-0.48067 1.28423,-1.01783 1.93812,-1.51665 0.58413,-0.52542 1.238,-0.97394 1.82117,-1.49653 0.79472,-0.65021 1.52654,-1.36933 2.32733,-2.0203 1.01245,-0.87235 2.0062,-1.76378 3.04594,-2.60363 0.59925,-0.73341 1.56364,-1.11283 2.15023,-1.84753 0.77545,-0.862 1.81567,-1.4003 2.65223,-2.1907 1.0017,-1.0402 2.1239,-1.95588 3.19629,-2.92146 1.17116,-1.11375 2.32123,-2.23815 3.5719,-3.26319 1.22429,-1.20514 2.47276,-2.38426 3.73132,-3.55313 0.67052,-0.67716 1.25305,-1.43249 1.87803,-2.1503 0.81975,-0.90796 1.68306,-1.77538 2.54266,-2.64531 1.41605,-1.43449 2.842,-2.85912 4.26839,-4.28331 1.38515,-1.32416 2.68988,-2.72393 4.01093,-4.10917 0.67422,-0.85474 1.53117,-1.53843 2.22236,-2.37604 0.82897,-0.78955 1.72522,-1.51142 2.62195,-2.22484 1.28533,-0.90862 2.51033,-1.88754 3.73662,-2.87389 1.18647,-0.90385 2.29108,-1.90261 3.45503,-2.83475 0.72453,-0.71847 1.77523,-1.08209 2.49387,-1.79572 0.60223,-0.58513 1.30308,-1.04093 1.95062,-1.57485 0.45832,-0.49673 1.02698,-0.86627 1.49671,-1.34655 0.44103,-0.49706 0.89401,-0.98291 1.35211,-1.46424 0.97954,-0.80327 1.79874,-1.77253 2.73134,-2.62789 1.32227,-1.05281 2.79983,-1.91691 4.02163,-3.09183 0.68849,-0.63288 1.41979,-1.21573 2.10343,-1.85389 0.55076,-0.56617 1.01661,-1.20318 1.59657,-1.74916 0.4706,-0.46118 0.87889,-0.96631 1.32804,-1.44677 0.36571,-0.57729 0.86599,-1.02686 1.33209,-1.51591 0.37334,-0.69397 0.99864,-1.21 1.45973,-1.83665 0.66118,-0.68676 1.25214,-1.43496 1.92951,-2.1063 1.0585,-0.8458 1.9147,-1.89225 2.8048,-2.90488 0.69718,-0.82022 1.40161,-1.67999 1.93091,-2.62225 0.50402,-0.74075 1.04904,-1.45551 1.45247,-2.25733 0.47375,-0.92948 1.03786,-1.80632 1.63083,-2.66456 0.42606,-0.89196 1.07505,-1.64864 1.57222,-2.49447 0.45884,-0.90789 0.825,-1.85622 1.3618,-2.72296 0.67324,-1.19374 1.65325,-2.14533 2.56444,-3.15128 0.94683,-1.04814 1.92114,-2.07087 2.91114,-3.07816 1.1336,-1.19856 2.31811,-2.33557 3.57366,-3.40499 1.46634,-1.16535 2.79305,-2.47721 4.11953,-3.79284 0.81319,-0.98502 1.73883,-1.82619 2.72623,-2.62553 0.48371,-0.38956 0.92292,-0.82901 1.36359,-1.26547 0.36933,-0.43624 0.892,-0.65944 1.45097,-0.72134 0.33873,0.10585 0.67747,0.2117 1.0162,0.31755 0,0 -1.56164,2.19638 -1.56164,2.19638 l 0,0 c 0.26866,0.056 0.53733,0.11206 0.80599,0.16809 0.13314,-0.0959 0.80366,-0.63418 0.20743,-0.0595 -0.50265,0.51621 -1.01938,1.01945 -1.57366,1.48061 -0.91517,0.73753 -1.75047,1.53297 -2.49927,2.45074 -1.37163,1.37552 -2.75041,2.73919 -4.27693,3.9484 -1.19472,1.00856 -2.32473,2.07809 -3.39799,3.21642 -0.96063,0.98988 -1.92239,1.97859 -2.84312,3.00613 -0.8149,0.89498 -1.7,1.73224 -2.30191,2.79629 -0.57105,0.79867 -0.81266,1.80588 -1.32095,2.64725 -0.54271,0.88281 -1.17959,1.70602 -1.6569,2.63075 -0.52022,0.75925 -1.03304,1.52029 -1.44752,2.34229 -0.42825,0.85104 -0.96848,1.63247 -1.52637,2.40306 -0.64073,1.08173 -1.39105,2.11241 -2.22264,3.05431 -0.93388,1.07636 -1.85418,2.17396 -2.97358,3.0658 -0.61026,0.56143 -1.09441,1.24713 -1.68797,1.8251 -0.55716,0.68724 -1.16924,1.32404 -1.66209,2.06461 -0.48797,0.48427 -0.94724,0.97501 -1.35958,1.53557 -0.4242,0.51636 -0.9222,0.99435 -1.37469,1.49984 -0.58564,0.54585 -1.02525,1.21553 -1.60873,1.76342 -0.67933,0.62323 -1.38383,1.21775 -2.06174,1.84257 -1.25104,1.1811 -2.67959,2.13762 -4.06914,3.14639 -0.89954,0.79522 -1.66823,1.72935 -2.61116,2.47407 -0.47276,0.48634 -0.9346,0.98274 -1.38718,1.48792 -0.53919,0.53976 -1.15659,0.98329 -1.69142,1.53265 -0.63128,0.52194 -1.32669,0.94146 -1.89994,1.53266 -0.81706,0.67728 -1.74405,1.20785 -2.56476,1.88178 -1.16322,0.92814 -2.26147,1.93046 -3.44491,2.8334 -1.23374,0.99311 -2.46268,1.98383 -3.76754,2.88216 -0.76418,0.59281 -1.50161,1.22128 -2.24042,1.84237 -0.74301,0.85785 -1.57853,1.62747 -2.302,2.50346 -1.33092,1.40939 -2.64801,2.83021 -4.05052,4.17155 -1.42294,1.42353 -2.84762,2.84529 -4.2764,4.26294 -0.82499,0.82469 -1.65483,1.64524 -2.44222,2.50635 -0.6916,0.7816 -1.30538,1.63085 -2.05307,2.36261 -1.29731,1.21325 -2.57363,2.44748 -3.86098,3.67159 -1.2181,0.99578 -2.33044,2.09846 -3.47947,3.17218 -1.06636,0.961 -2.17857,1.87511 -3.17991,2.90485 -0.8006,0.71927 -1.7194,1.26683 -2.49516,2.01011 -0.7525,0.78429 -1.66559,1.37493 -2.43888,2.13945 -1.03683,0.83443 -2.01731,1.73337 -3.03708,2.5887 -0.78211,0.6413 -1.51607,1.32822 -2.2886,1.97511 -0.64003,0.53237 -1.29374,1.04753 -1.9342,1.58272 -0.69508,0.53563 -1.35685,1.10722 -2.06848,1.62224 -0.95768,0.62579 -1.80025,1.42295 -2.7362,2.08114 -1.47682,1.24598 -3.01678,2.42285 -4.38569,3.79337 -1.32187,1.16813 -2.69391,2.28687 -4.12808,3.31527 -0.86211,0.61007 -1.60046,1.3557 -2.34593,2.09868 -1.03285,1.07324 -2.1797,2.02356 -3.20741,3.10058 -1.12875,1.1479 -2.40286,2.12508 -3.5134,3.2922 -1.00761,0.99238 -2.01734,1.98291 -3.05259,2.94658 -1.26338,1.18304 -2.57163,2.32785 -3.69331,3.65103 -1.86789,1.97522 -3.94208,3.74203 -5.83322,5.69549 -1.62214,1.48647 -3.20033,3.01947 -4.84749,4.47739 -0.80365,0.81673 -1.59797,1.64177 -2.33856,2.51694 -1.26363,1.40463 -2.55042,2.78578 -4.04633,3.95098 -1.453,1.29279 -2.76159,2.73708 -4.14188,4.10597 -1.46358,1.489 -2.90772,3.00387 -4.48604,4.37316 -0.82475,0.63596 -1.64524,1.29393 -2.40001,2.00966 -0.70514,0.51334 -1.19598,1.32761 -1.90697,1.84502 -0.79583,0.62467 -1.54576,1.3008 -2.32076,1.95104 -0.82176,0.66333 -1.60708,1.36619 -2.46015,1.98988 -1.35353,1.12208 -2.76229,2.18541 -4.231927,3.1517 -1.091153,0.73324 -2.010291,1.69055 -3.165284,2.33162 -1.683875,1.27781 -3.300547,2.64112 -4.93945,3.97634 -2.753349,2.28213 -5.418092,4.6688 -8.130767,6.9986 -1.857262,1.54264 -3.722435,3.07548 -5.612001,4.57769 -0.579733,0.45114 -1.12989,0.93329 -1.705753,1.38555 -1.15525,1.24471 -2.293167,2.50498 -3.433498,3.76336 -2.033093,2.24178 -4.13626,4.41019 -6.243157,6.58177 -1.24725,1.21602 -2.495815,2.43133 -3.788499,3.59936 -0.627481,0.58142 -1.156063,1.25842 -1.732285,1.89033 -1.376448,1.3307 -2.779538,2.63388 -4.209409,3.90705 -1.486116,1.31779 -2.988739,2.61507 -4.345571,4.06952 -0.649561,0.63533 -1.351044,1.18029 -2.045016,1.75969 -0.599819,0.54851 -1.057686,1.2224 -1.660661,1.76812 -0.932558,0.85884 -1.783205,1.80391 -2.817145,2.54752 -1.431981,1.08779 -2.914277,2.10361 -4.437183,3.06007 -0.918892,0.57511 -1.773078,1.25137 -2.605905,1.94261 -0.716946,0.69641 -1.488643,1.34389 -2.30433,1.92049 -0.542148,0.45521 -1.119988,0.85838 -1.668749,1.3042 -0.520964,0.26235 -0.843488,0.88854 -1.435511,1.08077 -0.711196,0.47027 -1.490521,0.82011 -2.244231,1.21192 -0.785366,0.46153 -1.553366,0.94606 -2.317319,1.44128 -0.826798,0.52824 -1.537163,1.23197 -2.386131,1.73343 -0.62757,0.47373 -1.328639,0.86553 -1.832928,1.48424 -0.686585,0.59975 -1.177285,1.42132 -1.849765,2.04093 -0.59178,0.75174 -1.221643,1.4702 -1.816495,2.2189 -0.474309,0.62947 -1.014518,1.19281 -1.459652,1.83972 -0.735444,1.02298 -1.477786,2.06555 -2.442308,2.88795 -0.785879,0.73299 -1.463207,1.57943 -2.191495,2.368 -1.265832,1.30046 -2.539006,2.58955 -3.915587,3.77758 -1.3233535,1.21235 -2.6444685,2.42558 -3.7148598,3.87699 0,0 -2.1703765,-1.62778 -2.1703765,-1.62778 z"
         id="path3056"
         style="fill:#fc9272;fill-opacity:1;fill-rule:nonzero;stroke:none" />
      <path
         inkscape:connector-curvature="0"
         d="m 303.7034,367.30325 c 1.45748,-0.51005 2.87083,-1.15311 4.255,-1.83701 1.49651,-0.59234 2.7852,-1.51776 4.01041,-2.54109 1.24118,-1.17544 2.65379,-2.13393 4.07486,-3.07339 0.857,-0.5434 1.59893,-1.24027 2.42737,-1.81944 1.02644,-0.69951 2.04994,-1.4056 3.09758,-2.07369 1.29613,-0.90806 2.64095,-1.73532 3.99921,-2.54594 1.34602,-0.75995 2.73942,-1.42853 4.10692,-2.14735 1.75215,-0.8893 3.51129,-1.76009 5.24776,-2.68188 2.39508,-1.03198 4.7694,-2.09462 7.10111,-3.26385 2.18234,-1.05721 4.39976,-2.03562 6.59393,-3.06718 2.27853,-1.16581 4.65359,-2.10873 6.93879,-3.26302 2.43397,-1.17328 4.83709,-2.42961 7.31225,-3.51633 0.81366,-0.21984 1.48149,-0.69348 2.16971,-1.14404 0.29418,0.83263 0.58835,1.66526 0.88253,2.49788 0,0 -0.9657,-2.53822 -0.9657,-2.53822 l 0,0 c 0.57043,0.72752 1.14086,1.45505 1.71129,2.18257 -0.80027,0.6569 -1.7088,1.1633 -2.68228,1.52151 -2.42669,1.08436 -4.77703,2.3437 -7.17639,3.48559 -2.31215,1.15737 -4.71811,2.09179 -7.0162,3.27535 -2.17447,1.01896 -4.36611,1.99706 -6.52576,3.04777 -2.31585,1.15692 -4.66588,2.22702 -7.05413,3.2259 -1.74357,0.91393 -3.50757,1.78103 -5.26691,2.662 -1.32486,0.69207 -2.67002,1.34431 -3.97457,2.07518 -1.33728,0.79668 -2.65742,1.6153 -3.93671,2.50334 -1.02886,0.64851 -2.03174,1.33791 -3.04345,2.01218 -0.85685,0.53429 -1.53706,1.34946 -2.42859,1.84487 -1.33314,0.89913 -2.67177,1.79418 -3.83793,2.91123 -1.39427,1.154 -2.8647,2.20254 -4.55211,2.8913 -1.59512,0.78438 -3.2214,1.55408 -4.93583,2.03656 0,0 -0.53216,-2.6608 -0.53216,-2.6608 z"
         id="path3058"
         style="fill:#fc9272;fill-opacity:1;fill-rule:nonzero;stroke:none" />
      <path
         inkscape:connector-curvature="0"
         d="m 305.48014,318.93696 c 2.00982,-0.62408 4.04882,-1.15754 6.08209,-1.70214 2.31247,-0.5566 4.54012,-1.38052 6.80531,-2.09262 1.50651,-0.41299 2.94468,-0.99543 4.48194,-1.29485 1.30643,-0.10978 2.58711,-0.29005 3.87714,-0.52067 1.12155,-0.1643 2.18484,-0.57275 3.29341,-0.81104 1.14869,-0.25107 2.32885,-0.17618 3.48893,-0.31854 2.20149,-0.21582 4.36397,-0.67019 6.52861,-1.10908 2.18292,-0.40988 4.33729,-0.94038 6.5372,-1.25791 1.53953,-0.30952 3.06498,-0.67128 4.5663,-1.13218 1.66348,-0.441 3.28631,-1.0157 4.9636,-1.40403 1.57326,-0.27963 3.12657,-0.64072 4.71022,-0.86439 0.7175,-0.0488 1.32026,-0.10692 1.94778,-0.38034 0.10136,-0.18853 2.20944,-0.47808 1.50109,-0.40396 0.6525,-0.50411 1.25691,-0.67907 2.27921,-0.27369 0,0 -1.42005,2.29008 -1.42005,2.29008 l 0,0 c 1.08747,0.31482 1.42904,-0.36009 0.30393,0.42231 -0.52617,0.18696 -1.0469,0.28407 -1.57981,0.44451 -0.84971,0.37266 -1.71385,0.53753 -2.63755,0.60261 -1.50661,0.22792 -2.98786,0.5709 -4.48836,0.82887 -1.61839,0.37366 -3.17824,0.9518 -4.78597,1.36727 -1.634,0.48632 -3.29044,0.88323 -4.96194,1.21902 -2.1496,0.32094 -4.25175,0.86512 -6.3878,1.25926 -2.24582,0.45017 -4.49129,0.90766 -6.77607,1.11424 -1.07478,0.1089 -2.15969,0.0523 -3.22342,0.25516 -1.13828,0.23899 -2.22263,0.69248 -3.3795,0.84009 -1.27748,0.22763 -2.54911,0.41795 -3.84356,0.51189 -1.43408,0.2688 -2.75486,0.87226 -4.16182,1.24389 -2.30216,0.73672 -4.57038,1.57366 -6.92598,2.1348 -1.93018,0.5133 -3.85632,1.03961 -5.7866,1.55227 0,0 -1.00833,-2.52083 -1.00833,-2.52083 z"
         id="path3060"
         style="fill:#fc9272;fill-opacity:1;fill-rule:nonzero;stroke:none" />
      <path
         inkscape:connector-curvature="0"
         d="m 57.069841,80.100673 c 0.766622,0.970938 1.520562,1.949196 2.244809,2.951658 0.492241,0.807384 1.138034,1.50055 1.673496,2.275415 0.580465,0.841831 1.086078,1.737926 1.528518,2.659474 0.522886,0.726687 0.79349,1.584419 1.20431,2.372107 0.414462,0.896495 0.882039,1.765998 1.294482,2.664016 0.52962,1.106679 1.100049,2.19853 1.547809,3.341628 0.450663,0.91292 0.83807,1.843272 1.356151,2.721927 0.588514,1.145972 1.209908,2.272722 1.821293,3.406892 0.914887,1.56061 1.964111,3.03422 2.975389,4.53246 1.001593,1.34192 1.845971,2.78792 2.710678,4.21889 0.620511,0.98374 1.253789,1.96778 1.81321,2.98824 0.423788,0.62147 0.818431,1.25867 1.261558,1.86782 0.404719,0.66728 0.859409,1.30272 1.253077,1.98017 0.560527,0.68604 0.946403,1.49635 1.485856,2.19552 0.695154,0.84182 1.239086,1.78113 1.839397,2.69148 0.760123,1.26248 1.53912,2.51738 2.380934,3.72756 0.776788,1.07711 1.442762,2.22669 2.143116,3.35322 0.576132,0.76686 1.172674,1.52695 1.683589,2.33946 0.411786,0.71696 0.804438,1.44329 1.213819,2.16213 0.381176,0.68925 0.599336,1.50437 1.077839,2.13709 0.514598,0.66916 0.928396,1.41339 1.251174,2.19138 0.261867,0.88979 0.703862,1.69343 1.195729,2.47376 0.606995,1.13198 1.106693,2.31168 1.706985,3.44754 0.683046,1.08222 1.212106,2.2492 1.826766,3.36841 0.821905,1.30711 1.487381,2.71327 2.139597,4.11201 0.592888,1.23045 1.199838,2.45576 1.755778,3.70365 0.44091,0.73424 0.7586,1.52935 1.19037,2.26731 0.40781,0.75055 0.84368,1.48544 1.2673,2.23072 0.45091,0.86005 0.86556,1.73351 1.27935,2.61267 0.54122,0.90821 0.93352,1.89351 1.45959,2.81027 0.67351,1.20967 1.28349,2.45692 2.03968,3.61849 0.64418,1.05219 1.39349,2.02778 1.99983,3.10547 0.48271,0.72605 0.84899,1.50952 1.32182,2.23523 0.29293,0.61931 0.72078,1.14608 1.04296,1.74955 0.34052,0.51104 0.65761,1.02773 0.9882,1.54103 0.53093,0.82149 1.10188,1.62235 1.68575,2.4092 0.81492,1.3701 1.8621,2.5703 2.81814,3.83767 1.05965,1.4694 2.29771,2.78949 3.33396,4.27536 0.87266,1.32787 1.69908,2.68459 2.5761,4.01061 0.53703,0.99827 1.18909,1.9246 1.73804,2.91504 0.5497,0.89281 0.99692,1.84256 1.51006,2.75653 0.52838,0.97636 1.03033,1.96044 1.58692,2.92066 0.7695,1.18666 1.61508,2.32293 2.33385,3.54136 1.00737,1.76616 2.00916,3.53322 2.98758,5.31545 0.9715,1.85841 2.21333,3.54564 3.29393,5.33872 0.88769,1.28789 1.63581,2.69538 2.64024,3.89813 0.76984,0.99248 1.49829,1.99925 2.3578,2.91698 0.54404,0.4544 1.0955,1.51148 1.63483,1.90587 0.54262,0.61801 1.14633,1.17398 1.69093,1.79492 1.00152,1.06312 1.83929,2.26073 2.76327,3.38921 1.09343,1.29582 2.27081,2.51767 3.45254,3.73244 1.22193,1.13962 2.30212,2.40056 3.36439,3.68601 1.16649,1.29273 2.26206,2.63906 3.35028,3.99744 0.96285,1.21071 2.01597,2.34173 3.09068,3.45248 1.10633,1.29673 2.18584,2.61315 3.19896,3.98381 0.99851,1.32253 1.91918,2.70291 2.83183,4.08578 0.96068,1.22009 1.59937,2.65725 2.53008,3.89322 0.86128,1.14322 1.61107,2.36072 2.48656,3.49346 1.01642,1.48788 1.98033,3.01167 2.9523,4.52925 0.99585,1.42385 2.01892,2.82845 3.02592,4.24476 1.03141,1.53811 2.11532,3.03952 3.16878,4.56239 0.87118,1.20142 1.83349,2.33296 2.72445,3.51839 0.94944,1.34853 2.04357,2.58185 3.163,3.78932 1.45728,1.3606 2.98249,2.64264 4.54289,3.88224 1.65623,1.41062 3.39442,2.71357 5.15035,3.99581 1.82093,1.37382 3.82714,2.45279 5.83634,3.51971 1.98864,1.07754 3.97251,2.16985 5.98901,3.19496 1.94133,0.97012 3.89767,1.90859 5.81523,2.92553 1.84472,1.14518 3.76715,2.1574 5.57883,3.3563 1.70431,1.07126 3.41755,2.10737 5.01381,3.33834 1.37724,1.08611 2.72916,2.21196 4.13593,3.25991 0.96749,0.86871 2.05283,1.58513 3.08959,2.36138 0.72904,0.54887 1.46475,1.09511 2.18453,1.65889 0.72813,0.59865 1.49226,1.14968 2.25408,1.70617 0.71443,0.49384 1.40902,1.02586 2.16505,1.45894 0.96041,0.69528 1.95771,1.3368 3.00417,1.89453 1.04538,0.57404 2.07321,1.19287 3.15573,1.69559 0.79436,0.50578 1.68824,0.77896 2.53999,1.15351 0.67327,0.31698 1.36754,0.5515 1.9833,0.97442 0.46447,0.17017 0.84215,0.52295 1.28975,0.71436 0.55033,0.28849 1.01979,0.69414 1.53354,1.04512 0.78264,0.39801 1.55899,0.80787 2.318,1.25004 0.95049,0.47894 1.90668,0.9461 2.8711,1.39666 1.07904,0.67087 2.18559,1.2955 3.24445,1.99794 1.41416,1.0267 2.90942,1.93564 4.36985,2.89605 1.87496,1.24299 3.71001,2.54258 5.53495,3.85759 1.61926,1.03358 3.15382,2.18741 4.72528,3.29002 1.24366,0.91337 2.45459,1.87654 3.619,2.88824 0.76235,0.70994 1.47405,1.47192 2.18401,2.23359 0.53862,0.57544 1.06331,1.16818 1.54831,1.7897 0.45021,0.40891 0.80354,0.8961 1.18697,1.35169 0.45933,0.52888 0.94514,1.06711 1.42164,1.60419 0.5186,0.60527 1.07485,1.17581 1.63063,1.74651 0.75392,0.84929 1.48439,1.72141 2.21548,2.59358 0.72479,0.90239 1.51968,1.74471 2.31444,2.58495 0.62113,0.79602 1.29753,1.54141 1.93352,2.32554 0.80371,0.87489 1.50083,1.82384 2.18429,2.79235 0.52928,0.66954 0.98292,1.40095 1.56095,2.02942 0.60676,0.51568 1.03682,1.1975 1.60648,1.74627 0.52785,0.42074 0.8274,1.04475 1.35447,1.46104 0.74532,0.72294 1.51331,1.42074 2.26598,2.13958 0.88498,0.80326 1.79194,1.56795 2.504,2.53368 0.31892,0.46365 0.69873,0.87996 1.01246,1.35857 0.20364,0.28349 0.25863,0.53242 0.37246,0.88631 0,0 -2.65972,0.42875 -2.65972,0.42875 l 0,0 c 0.28161,0.65987 0.14932,0.3196 0.0405,0.17892 -0.29568,-0.43581 -0.64441,-0.82452 -0.9547,-1.24717 -0.61149,-0.84115 -1.46721,-1.44582 -2.20393,-2.17221 -0.73138,-0.7056 -1.47148,-1.40027 -2.20248,-2.10354 -0.5211,-0.49788 -0.95078,-1.06975 -1.46902,-1.56551 -0.56721,-0.5966 -1.05603,-1.25599 -1.66537,-1.81261 -0.65515,-0.7164 -1.19315,-1.52784 -1.78843,-2.29411 -0.64818,-0.92272 -1.31977,-1.81561 -2.07751,-2.65361 -0.58266,-0.72966 -1.21266,-1.41582 -1.7845,-2.15315 -0.843,-0.87769 -1.67065,-1.77104 -2.43853,-2.71595 -0.6814,-0.82074 -1.36352,-1.64135 -2.06076,-2.44393 -0.59205,-0.60295 -1.17458,-1.21536 -1.73238,-1.85034 -0.49124,-0.56441 -0.97321,-1.13934 -1.47851,-1.68754 -0.389,-0.51636 -0.81822,-0.9791 -1.26317,-1.4468 -0.35591,-0.57005 -0.91938,-1.02265 -1.34419,-1.54187 -0.65986,-0.68826 -1.30546,-1.39214 -2.0079,-2.03774 -1.0877,-0.95224 -2.23544,-1.8403 -3.39836,-2.69918 -1.5837,-1.10674 -3.13252,-2.26184 -4.76566,-3.29678 -1.79553,-1.29308 -3.59928,-2.57346 -5.43996,-3.80176 -1.45956,-0.97105 -2.95694,-1.88745 -4.37167,-2.922 -0.93931,-0.63656 -1.93393,-1.18266 -2.88287,-1.80433 -1.03308,-0.48896 -2.06421,-0.98033 -3.07842,-1.50801 -0.82534,-0.47791 -1.67078,-0.91492 -2.50102,-1.3829 -0.42533,-0.3067 -0.81715,-0.65723 -1.23495,-0.86455 -0.54136,-0.29862 -1.05351,-0.63323 -1.60735,-0.91206 -0.43496,-0.3494 -1.08112,-0.40724 -1.56143,-0.71937 -0.80539,-0.44214 -1.79113,-0.58658 -2.55031,-1.1487 -1.12391,-0.53255 -2.21092,-1.14357 -3.29379,-1.75431 -1.07206,-0.5826 -2.1118,-1.226 -3.09167,-1.95417 -0.82553,-0.49645 -1.59835,-1.07001 -2.39156,-1.61319 -0.77879,-0.57612 -1.56804,-1.13642 -2.3125,-1.75582 -0.71262,-0.55201 -1.42969,-1.09915 -2.1567,-1.6286 -1.02285,-0.78323 -2.13326,-1.4598 -3.0888,-2.33423 -1.41834,-1.0587 -2.78675,-2.18816 -4.1773,-3.28266 -1.54152,-1.19336 -3.21291,-2.17083 -4.85342,-3.21827 -1.73727,-1.15155 -3.59044,-2.10897 -5.35527,-3.21603 -1.89847,-1.0146 -3.84275,-1.93626 -5.76674,-2.90081 -2.03476,-1.03019 -4.03373,-2.13439 -6.0424,-3.21394 -2.11973,-1.13433 -4.24036,-2.27711 -6.1635,-3.73078 -1.78634,-1.30445 -3.54923,-2.63726 -5.23791,-4.06742 -1.66836,-1.32738 -3.30199,-2.70035 -4.84257,-4.17568 -1.18164,-1.27943 -2.334,-2.58812 -3.33798,-4.01449 -0.90579,-1.21587 -1.89229,-2.37244 -2.78936,-3.59604 -1.05053,-1.51455 -2.13231,-3.00698 -3.15733,-4.53927 -1.02175,-1.4562 -2.07917,-2.88705 -3.09287,-4.34863 -0.93158,-1.4519 -1.85643,-2.90878 -2.81328,-4.34339 -0.87855,-1.15131 -1.64186,-2.37865 -2.51339,-3.53488 -0.94242,-1.29059 -1.65399,-2.73166 -2.61778,-4.01064 -0.88551,-1.34262 -1.77952,-2.68223 -2.74943,-3.96552 -0.94173,-1.27472 -1.94651,-2.49733 -2.96696,-3.71004 -1.12968,-1.17439 -2.23967,-2.3686 -3.25981,-3.64081 -1.07889,-1.34859 -2.1706,-2.68009 -3.32311,-3.96716 -1.01224,-1.22853 -2.0422,-2.43132 -3.21003,-3.51824 -1.24242,-1.26955 -2.48155,-2.54535 -3.61727,-3.91285 -0.90198,-1.111 -1.7229,-2.28528 -2.69288,-3.33947 -0.50341,-0.588 -1.066,-1.11231 -1.57824,-1.68974 -0.57303,-0.62839 -1.10408,-1.29358 -1.67652,-1.92434 -0.90816,-0.95903 -1.68228,-2.0107 -2.48871,-3.05392 -1.06836,-1.32173 -1.94239,-2.79451 -2.88427,-4.20721 -1.10081,-1.82332 -2.37065,-3.53665 -3.34979,-5.43318 -0.97206,-1.7636 -1.96006,-3.51689 -2.94699,-5.27225 -0.6909,-1.23151 -1.58266,-2.34021 -2.3165,-3.54686 -0.56558,-0.9758 -1.07424,-1.97602 -1.61417,-2.96551 -0.50257,-0.9168 -0.95597,-1.86093 -1.50148,-2.75322 -0.51857,-0.9235 -1.13078,-1.78845 -1.63116,-2.72324 -0.8808,-1.30457 -1.70249,-2.64602 -2.56756,-3.95992 -1.00643,-1.46175 -2.23832,-2.74346 -3.26446,-4.19221 -0.96099,-1.27756 -2.01633,-2.48702 -2.83056,-3.8708 -0.6137,-0.84396 -1.2081,-1.70466 -1.7746,-2.57961 -0.35479,-0.58138 -0.7336,-1.13832 -1.08803,-1.72165 -0.27757,-0.5324 -0.66567,-0.99819 -0.92615,-1.53967 -0.50101,-0.7763 -0.9156,-1.59312 -1.41749,-2.37031 -0.58443,-1.02673 -1.30565,-1.95691 -1.92213,-2.9624 -0.7819,-1.21385 -1.44333,-2.49614 -2.12859,-3.76573 -0.54598,-0.9894 -0.97584,-2.03334 -1.54732,-3.00922 -0.37048,-0.81751 -0.76093,-1.6198 -1.1766,-2.41456 -0.41131,-0.73519 -0.82749,-1.46361 -1.24126,-2.19499 -0.48146,-0.82071 -0.851267,-1.69769 -1.332254,-2.51939 -0.563016,-1.23246 -1.165839,-2.44659 -1.756545,-3.66583 -0.62711,-1.34672 -1.264401,-2.70153 -2.049989,-3.96281 -0.614918,-1.13236 -1.166263,-2.29933 -1.843053,-3.398 -0.574225,-1.08099 -1.06646,-2.19489 -1.612254,-3.28858 -0.564865,-0.92245 -1.09195,-1.86999 -1.408085,-2.91048 -0.222206,-0.62254 -0.597659,-1.1823 -0.995162,-1.70623 -0.449238,-0.72417 -0.830769,-1.48959 -1.164707,-2.27454 -0.397972,-0.6952 -0.763294,-1.4053 -1.172514,-2.09387 -0.472874,-0.82284 -1.151754,-1.52796 -1.681043,-2.31458 -0.677669,-1.08841 -1.323953,-2.19858 -2.0822,-3.23398 -0.85086,-1.23568 -1.649846,-2.50909 -2.414897,-3.79919 -0.561455,-0.87351 -1.060131,-1.77302 -1.73983,-2.5635 -0.580571,-0.80585 -1.068758,-1.67413 -1.661539,-2.4732 -0.320297,-0.5921 -0.729493,-1.13459 -1.070369,-1.7109 -0.525755,-0.70546 -0.983947,-1.45195 -1.472015,-2.18309 -0.519585,-0.9852 -1.174024,-1.9058 -1.754586,-2.85538 -0.855844,-1.3869 -1.670849,-2.80119 -2.65468,-4.1043 -1.066112,-1.5744 -2.171649,-3.12392 -3.112019,-4.77904 -0.591044,-1.11006 -1.187682,-2.21604 -1.764506,-3.33348 -0.5768,-1.008118 -1.043624,-2.061025 -1.54368,-3.107706 -0.41354,-1.098941 -0.997049,-2.128761 -1.483508,-3.196369 -0.38285,-0.856411 -0.831669,-1.678328 -1.220523,-2.531223 -0.430596,-0.821463 -0.722876,-1.705283 -1.25718,-2.471117 -0.368838,-0.805286 -0.832179,-1.569841 -1.323981,-2.304921 -0.485817,-0.767379 -1.178712,-1.399491 -1.629592,-2.196505 -0.711495,-0.990457 -1.4773,-1.937741 -2.205335,-2.916403 0,0 2.170377,-1.627783 2.170377,-1.627783 z"
         id="path3062"
         style="fill:#fc9272;fill-opacity:1;fill-rule:nonzero;stroke:none" />
      <path
         inkscape:connector-curvature="0"
         d="m 232.94624,48.278066 c 1.16083,-0.625235 2.2766,-1.327428 3.34222,-2.105079 1.35104,-0.995976 2.30183,-2.396442 3.30173,-3.719101 0.9705,-1.392332 2.23612,-2.520678 3.41278,-3.726885 0.72412,-0.796462 1.44049,-1.599209 2.18044,-2.381157 1.08018,-1.135431 2.08516,-2.339913 3.10188,-3.533029 0.94242,-1.095838 2.14421,-1.893745 3.2327,-2.823491 0.61194,-0.557236 1.15708,-1.176017 1.80653,-1.689297 0.63252,-0.556291 1.27904,-1.097104 1.9409,-1.621829 0.36631,-0.367777 1.62137,-0.97172 1.86236,-1.351847 0.63704,-0.60374 1.30077,-1.203952 1.90537,-1.848053 0.76861,-0.860255 1.61252,-1.650076 2.40029,-2.491612 0.60972,-0.719095 1.23945,-1.419445 1.88625,-2.105292 0.92572,-0.965765 1.87145,-1.911895 2.81613,-2.858996 0.7834,-0.966825 1.64272,-1.85816 2.54927,-2.709448 1.25275,-1.211595 2.34974,-2.577024 3.51733,-3.8710037 1.1006,-1.4352661 2.29617,-2.7937118 3.42199,-4.2079259 1.51045,-1.8238684 2.94721,-3.7035408 4.35916,-5.60405123 0.85373,-1.42877287 2.23135,-2.46451597 3.13859,-3.84314107 0.64591,-0.916385 1.35364,-1.7888006 2.00677,-2.6999215 0.16157,-0.1946057 0.32314,-0.3892115 0.48471,-0.5838173 0.14221,-0.1556979 0.29022,-0.3062808 0.42661,-0.4670937 0.78557,-0.9262345 -0.73062,-1.2368682 2.08623,1.3896331 0,0 -1.68333,-2.1171624 -1.68333,-2.1171624 l 0,0 c 0.76907,0.4664121 1.60369,0.8388189 2.30721,1.3992365 0.15882,0.1265171 -1.23024,1.7996897 -1.40979,1.9823893 -0.64553,0.8827278 -1.34535,1.7246799 -1.96709,2.6249134 -0.96268,1.3941802 -2.23088,2.54530213 -3.16573,3.9653106 -1.43041,1.9301803 -2.89537,3.8313673 -4.43704,5.6744089 -1.16893,1.4488085 -2.38997,2.8552751 -3.52646,4.330861 -1.22049,1.350753 -2.36946,2.775349 -3.69707,4.022813 -0.88958,0.824597 -1.71022,1.702911 -2.47785,2.643251 -0.93008,0.931797 -1.86225,1.861833 -2.77476,2.81089 -0.6518,0.677058 -1.28392,1.370392 -1.88681,2.091671 -0.80131,0.84115 -1.62136,1.663944 -2.41236,2.515663 -0.66959,0.682497 -1.38727,1.320302 -2.0721,1.982768 -0.62848,0.515572 -1.30572,0.979959 -1.96593,1.452682 -0.68363,0.5456 -1.36056,1.094234 -2.01704,1.670423 -0.64628,0.369557 -1.01531,1.165121 -1.64478,1.570346 -0.9748,0.850626 -2.0553,1.576018 -2.92381,2.547838 -1.05166,1.229728 -2.09286,2.469606 -3.21424,3.635652 -0.75313,0.78234 -1.47793,1.589096 -2.19845,2.401469 -1.09508,1.126983 -2.2652,2.188112 -3.17757,3.479336 -1.16435,1.540325 -2.29374,3.142671 -3.88717,4.278709 -1.25067,0.900794 -2.54864,1.74085 -3.93973,2.409796 0,0 -1.00834,-2.520827 -1.00834,-2.520827 z"
         id="path3064"
         style="fill:#fc9272;fill-opacity:1;fill-rule:nonzero;stroke:none" />
      <path
         inkscape:connector-curvature="0"
         d="m 153.97779,68.52126 c 0.98904,-0.6878 1.83214,-1.539366 2.72079,-2.344864 0.86113,-0.602769 1.60286,-1.348229 2.33486,-2.096824 0.79854,-0.915487 1.74628,-1.661327 2.68664,-2.421847 1.05953,-0.903526 2.13792,-1.774801 3.25784,-2.602993 0.45943,-0.72461 1.67836,-1.137911 2.19165,-1.641253 0.74615,-0.499641 1.50528,-0.97488 2.29795,-1.397937 1.23406,-0.67354 2.48367,-1.322307 3.75005,-1.933724 1.25746,-0.583269 2.44897,-1.279788 3.64797,-1.970155 1.26628,-0.662601 2.42524,-1.483404 3.60962,-2.276321 1.15534,-0.782365 2.16881,-1.750153 3.31823,-2.542296 0.86209,-0.70151 1.87578,-1.083472 2.88712,-1.496851 0.94187,-0.401062 1.93737,-0.635873 2.8799,-1.038126 1.28287,-0.50738 2.50506,-1.150396 3.76685,-1.706819 0.88926,-0.43206 1.84151,-0.644876 2.81925,-0.733593 0.4487,-0.298673 1.0152,-0.429628 1.53912,-0.544334 0.60387,-0.304942 1.24436,-0.501843 1.86203,-0.77663 0.76344,-0.280467 1.47632,-0.682463 2.21484,-1.025685 0.43825,-0.157715 0.86044,-0.43519 1.29263,-0.725053 0.65986,-0.344031 1.24971,-0.745025 1.82564,-1.205814 0.71224,-0.509613 1.43854,-1.002283 2.23905,-1.364385 0.97712,-0.667554 2.08951,-1.091242 3.17098,-1.557815 2.66789,-0.953013 5.40488,-1.691041 8.18392,-2.232927 2.32301,-0.345126 4.62864,-0.790838 6.95221,-1.133265 2.07754,-0.413363 3.02967,1.065725 1.63857,2.878029 0,0 -2.11123,-1.714575 -2.11123,-1.714575 l 0,0 c 0.58791,-0.644335 -0.17541,0.06826 0.38008,0.91438 0.51217,0.780134 1.64506,0.437072 0.5176,0.62266 -2.28386,0.382869 -4.55674,0.829667 -6.84754,1.168868 -2.59169,0.497818 -5.13772,1.18806 -7.64036,2.027127 -1.0902,0.454597 -2.18526,0.871044 -3.1785,1.520312 -0.59477,0.215486 -1.08899,0.659607 -1.61456,0.995561 -0.66261,0.523715 -1.34049,0.9861 -2.08556,1.38089 -0.50766,0.304448 -1.01862,0.642629 -1.55975,0.867578 -0.7531,0.367975 -1.49424,0.776246 -2.27952,1.067412 -0.78594,0.345594 -1.58959,0.626738 -2.38909,0.937797 -0.653,0.138118 -1.22541,0.476755 -1.88451,0.600211 -0.67712,0.04902 -1.32612,0.21278 -1.93382,0.5257 -1.27886,0.577087 -2.52752,1.222042 -3.83445,1.734639 -0.96137,0.38953 -1.96157,0.648468 -2.9185,1.042595 -0.83572,0.326376 -1.65306,0.635538 -2.35652,1.222726 -1.16454,0.783041 -2.14444,1.81636 -3.33259,2.56815 -1.23652,0.82491 -2.45335,1.669571 -3.77029,2.365558 -1.25738,0.722502 -2.50232,1.46063 -3.82207,2.068699 -1.23957,0.595244 -2.4604,1.231397 -3.67188,1.881094 -0.68155,0.348909 -1.32736,0.752479 -1.96586,1.173757 -0.7504,0.513945 -1.54695,0.936867 -2.15767,1.642745 -1.08688,0.816127 -2.14817,1.655298 -3.17634,2.544812 -0.86209,0.688637 -1.73778,1.352177 -2.45879,2.196337 -0.77214,0.783252 -1.54081,1.583471 -2.44675,2.215057 -0.9523,0.857717 -1.84738,1.779175 -2.92146,2.491769 0,0 -1.62778,-2.170377 -1.62778,-2.170377 z"
         id="path3066"
         style="fill:#fc9272;fill-opacity:1;fill-rule:nonzero;stroke:none" />
    </g>
  </g>
</svg>
