<?xml version="1.0" encoding="UTF-8" standalone="no"?>
<!-- Created with Inkscape (http://www.inkscape.org/) -->

<svg
   xmlns:dc="http://purl.org/dc/elements/1.1/"
   xmlns:cc="http://creativecommons.org/ns#"
   xmlns:rdf="http://www.w3.org/1999/02/22-rdf-syntax-ns#"
   xmlns:svg="http://www.w3.org/2000/svg"
   xmlns="http://www.w3.org/2000/svg"
   xmlns:xlink="http://www.w3.org/1999/xlink"
   xmlns:sodipodi="http://sodipodi.sourceforge.net/DTD/sodipodi-0.dtd"
   xmlns:inkscape="http://www.inkscape.org/namespaces/inkscape"
   id="svg2"
   version="1.1"
   inkscape:version="0.48.4 r9939"
   width="903"
   height="1224"
   sodipodi:docname="46693-590.svg">
  <metadata
     id="metadata8">
    <rdf:RDF>
      <cc:Work
         rdf:about="">
        <dc:format>image/svg+xml</dc:format>
        <dc:type
           rdf:resource="http://purl.org/dc/dcmitype/StillImage" />
        <dc:title />
      </cc:Work>
    </rdf:RDF>
  </metadata>
  <defs
     id="defs6" />
  <sodipodi:namedview
     pagecolor="#ffffff"
     bordercolor="#666666"
     borderopacity="1"
     objecttolerance="10"
     gridtolerance="10"
     guidetolerance="10"
     inkscape:pageopacity="0"
     inkscape:pageshadow="2"
     inkscape:window-width="1280"
     inkscape:window-height="732"
     id="namedview4"
     showgrid="false"
     inkscape:zoom="0.29524101"
     inkscape:cx="520.10552"
     inkscape:cy="596.02939"
     inkscape:window-x="-8"
     inkscape:window-y="-8"
     inkscape:window-maximized="1"
     inkscape:current-layer="layer1" />
  <image
     width="903"
     height="1224"
     xlink:href="file:///Users/juls/Documents/UUlm/Projects/2013/BrokenInterfaces/GIT%20Repo/brokenInterface/public-dataset/input/cropped-display/46693-590.png"
     id="image10"
     x="0"
     y="0" />
  <g
     inkscape:groupmode="layer"
     id="layer1"
     inkscape:label="g0">
    <path
       style="fill:#de2d26;fill-opacity:1;stroke:none"
       id="path2995"
       d="m -32.712705,1222.814 c 3.582476,-9.4098 8.548161,-18.1692 13.438958,-26.9356 3.276242,-6.951 6.050302,-14.1394 8.955643,-21.2563 2.1320514,-5.9308 4.6949429,-11.7111 7.4845836,-17.3609 2.19898132,-5.5764 5.0156439,-10.8802 7.0681276,-16.5145 2.8653738,-6.3666 5.9909368,-12.6153 9.6867928,-18.5407 3.226362,-5.7457 7.646527,-10.7024 10.497188,-16.6623 2.604261,-6.0715 5.898952,-11.6978 9.561152,-17.1753 4.256646,-5.3127 8.11422,-10.826 11.928601,-16.45 3.429046,-4.951 5.973307,-10.3729 8.693005,-15.723 2.511244,-5.5962 4.710148,-11.3124 6.570463,-17.1581 2.876998,-8.3213 6.30648,-16.4314 9.150051,-24.7634 3.263924,-8.4029 6.182121,-16.96692 9.78416,-25.22976 2.897075,-6.35309 6.116145,-12.56803 9.419524,-18.72069 4.353329,-5.99812 6.502163,-13.0708 9.709096,-19.65593 3.27625,-7.62423 8.21148,-14.32673 12.85395,-21.14954 4.6446,-6.27674 8.8804,-12.8589 12.57502,-19.73805 3.60622,-6.58786 7.08658,-13.25737 10.32888,-20.03369 2.73988,-6.06691 5.18922,-12.29656 8.33829,-18.1696 3.07759,-6.64113 6.40289,-13.14087 10.01795,-19.51167 4.18042,-6.58367 8.30318,-13.21492 11.93598,-20.11955 3.66647,-5.80419 5.59779,-12.37757 8.1097,-18.7049 2.69161,-5.66007 7.51871,-9.81193 12.27487,-13.72141 3.3175,-2.64498 5.81667,-5.78342 8.14999,-9.29881 3.61595,-5.05327 7.28263,-10.06841 9.8836,-15.73462 1.61157,-5.59396 3.78901,-11.02581 5.06604,-16.7168 1.74954,-7.02741 4.70928,-13.61892 7.57086,-20.23829 3.46125,-5.72711 5.92611,-11.96194 9.20736,-17.77703 3.13239,-5.91846 7.19951,-11.2499 11.06202,-16.69263 2.03796,-3.44944 4.54594,-6.07463 4.59311,-10.14104 0.64061,-7.13227 2.9531,-13.71625 6.69549,-19.7753 4.26993,-4.50895 7.84365,-9.58568 11.97995,-14.20293 3.64074,-4.47117 6.84299,-9.3057 9.90105,-14.19273 3.96408,-5.39101 6.01783,-11.74467 8.56681,-17.84992 1.67042,-5.39926 3.50361,-10.75255 5.57109,-16.01845 2.28296,-5.61659 5.1674,-10.96574 7.58382,-16.53742 2.60669,-6.28947 6.34242,-11.97185 9.6288,-17.90254 3.23785,-5.58007 6.5069,-11.10096 9.49176,-16.82007 2.76701,-5.84149 4.54852,-12.08012 6.99311,-18.04693 1.27599,-6.11212 5.4486,-10.19641 10.24419,-13.78984 3.1515,-3.03368 5.29566,-7.08806 7.59461,-10.80007 2.79349,-4.79617 6.41942,-9.10658 8.33295,-14.3578 2.678,-4.94031 4.08442,-10.36221 5.77478,-15.68359 1.65845,-6.54233 3.12878,-13.156 5.37919,-19.52614 2.08366,-5.40637 5.13565,-10.40354 8.03406,-15.40853 2.42041,-4.88465 5.22737,-9.59336 7.94649,-14.32475 2.91791,-5.25389 5.93458,-10.44314 8.88756,-15.68229 2.01589,-4.40592 4.33814,-6.66278 4.26079,-11.55643 0.0553,-6.98595 2.23551,-13.22679 5.54322,-19.27025 3.64502,-5.19457 6.95223,-10.56792 10.15992,-16.04311 3.45954,-5.03872 7.25305,-9.71289 10.12214,-15.14504 2.69966,-5.02907 4.44066,-10.40593 6.53187,-15.68233 2.22444,-5.47469 4.05286,-11.0944 6.11569,-16.62913 2.00256,-6.13903 4.33142,-12.1638 6.82138,-18.1232 2.1416,-5.73998 4.2829,-11.5048 6.97001,-17.01623 2.63564,-5.35257 5.86127,-10.38563 8.11524,-15.92142 2.73185,-6.68072 5.73495,-13.19396 9.17198,-19.53737 2.54518,-5.85147 5.49963,-11.47806 8.81742,-16.92582 3.76804,-5.31218 7.30043,-10.75448 10.91532,-16.16073 3.49299,-4.42913 5.14816,-9.64074 7.27205,-14.74676 2.3208,-5.58485 4.17229,-11.34352 6.2745,-17.00995 1.86832,-6.02463 3.83128,-12.01036 5.67976,-18.04493 0.89761,-5.46174 2.8988,-10.63315 4.06878,-16.03025 0.90638,-5.80176 2.87268,-11.38522 5.22911,-16.74116 1.42466,-4.7722 3.63075,-9.25466 4.85142,-14.09109 1.95437,-6.01949 5.04681,-11.54987 7.77467,-17.23099 1.25421,-4.80505 4.42114,-9.25165 4.5899,-14.274832 0.90762,-5.822841 1.69813,-11.601273 3.37555,-17.258728 1.34179,-5.809784 3.29504,-11.442845 4.50765,-17.28528 0.95628,-6.347329 3.07945,-12.459501 5.1896,-18.500096 2.07477,-6.877152 4.64557,-13.62959 7.98905,-19.989518 2.49518,-4.943492 4.77959,-10.063107 6.64699,-15.2864277 1.63361,-5.5010397 1.50982,-11.2812567 2.34097,-16.9152105 1.57912,-6.6379348 1.82762,-13.4837878 3.15134,-20.1515268 0.99944,-3.997932 0.52763,-2.056622 1.41994,-5.822837 2.21072,-9.321496 15.39331,-6.195061 13.18258,3.126435 l 0,0 c -0.89644,3.776267 -0.44617,1.946075 -1.34579,5.491807 -1.47713,6.370547 -1.30148,13.092522 -3.02224,19.4477297 -1.09622,6.46629549 -0.66148,13.2095795 -2.99874,19.4659903 -2.14992,5.81114 -4.61637,11.55031 -7.44135,17.058233 -3.14353,5.655592 -5.1704,11.900203 -7.13261,18.043809 -1.92003,5.495063 -3.90016,11.036726 -4.72173,16.820934 -1.3191,6.201416 -3.31816,12.200134 -4.78123,18.363747 -1.42415,4.754915 -2.00346,9.609072 -2.85704,14.498144 -0.68712,6.705727 -3.58021,12.766047 -5.8867,19.046867 -2.36338,4.89338 -4.99179,9.66592 -6.87239,14.77586 -1.47499,5.51715 -3.80142,10.70198 -5.55944,16.12456 -2.00234,4.54797 -3.69746,9.2629 -4.40084,14.20891 -1.29174,5.75422 -3.31954,11.28474 -4.35159,17.09989 -1.95037,6.28177 -3.95638,12.52377 -5.9353,18.79453 -2.20188,5.83365 -4.06685,11.79443 -6.48845,17.54698 -2.54387,5.85967 -4.5169,11.92652 -8.52424,17.05284 -3.56287,5.1905 -6.86909,10.5465 -10.58204,15.64273 -3.22096,5.23768 -5.96292,10.69322 -8.46305,16.31088 -3.21533,5.93317 -6.02245,12.02248 -8.57129,18.27801 -2.44696,5.81016 -5.6489,11.20773 -8.52134,16.80797 -2.7226,5.14766 -4.39908,10.81383 -6.59026,16.19268 -2.46004,5.78365 -4.66104,11.66283 -6.62482,17.62962 -2.13854,5.63644 -3.96017,11.391 -6.24991,16.97217 -2.39723,5.64571 -4.16533,11.5598 -7.14028,16.97676 -3.00671,5.54572 -6.6759,10.5486 -10.38296,15.60933 -3.15094,5.34335 -6.31524,10.66299 -9.95816,15.68778 -2.26961,4.13532 -3.9243,8.16889 -3.87861,13.0247 -0.26508,7.12947 -2.6696,11.89164 -6.01193,17.95743 -2.98241,5.26356 -6.02423,10.48084 -8.94095,15.7759 -2.73661,4.74285 -5.55444,9.45919 -7.97122,14.3675 -2.51201,4.31639 -5.18049,8.60523 -7.02177,13.24618 -2.34566,6.12755 -3.38646,12.69838 -5.19662,18.99093 -1.77377,5.57303 -3.25539,11.28176 -6.04767,16.45941 -2.39428,5.99623 -6.02438,11.21097 -9.47156,16.63966 -3.24398,5.18374 -6.26357,10.75112 -11.13559,14.60109 -3.32429,2.25836 -4.81634,3.90372 -5.7053,8.0567 -2.70445,6.26218 -4.35081,12.98833 -7.48173,19.08789 -3.04585,5.82757 -6.36944,11.45533 -9.66561,17.14227 -3.09858,5.53622 -6.588,10.84613 -9.04372,16.72055 -2.37572,5.43016 -5.16644,10.66453 -7.41427,16.13037 -2.15187,5.32276 -3.86306,10.79224 -5.65976,16.23596 -2.83927,6.79202 -5.2128,13.8356 -9.6026,19.84533 -3.50896,5.54602 -7.12508,11.07057 -11.35201,16.09972 -3.70648,3.9586 -6.57691,8.64711 -10.567,12.35597 -2.66107,3.96317 -3.99055,8.44504 -4.59125,13.16888 -0.44995,6.72858 -3.29952,11.86605 -7.08557,17.32382 -3.62372,5.08149 -7.43258,10.06169 -10.35966,15.59779 -3.14242,5.29362 -5.14507,11.21295 -8.51427,16.39666 -2.53792,5.86275 -5.20584,11.67889 -6.80098,17.89172 -1.54506,6.6125 -3.91559,12.99941 -6.00809,19.44503 -2.99181,6.26519 -6.81962,11.9979 -10.93457,17.58019 -3.12347,4.53891 -6.52437,8.76372 -10.84407,12.22844 -3.00419,2.36342 -6.123,4.98517 -8.20028,8.18508 -2.69193,6.77851 -4.81109,13.81094 -8.7243,20.03743 -3.72303,7.0131 -7.84446,13.80626 -12.13627,20.48471 -3.58555,6.28942 -6.82325,12.72778 -9.88926,19.28011 -3.11183,5.63087 -5.32345,11.73847 -8.02973,17.56593 -3.35143,6.96403 -6.90785,13.83658 -10.62361,20.61185 -3.9463,7.26706 -8.36045,14.28085 -13.29473,20.92115 -4.28763,6.29666 -8.88798,12.45642 -11.89562,19.50376 -3.33334,6.69793 -5.44205,13.99512 -9.93731,20.0993 -3.150582,5.83717 -6.196167,11.74833 -8.957877,17.77705 -3.539684,7.8611 -6.150347,16.1472 -9.360656,24.1486 -2.840565,8.2426 -6.176131,16.2947 -9.068717,24.5187 -2.118037,6.5186 -4.529489,12.9254 -7.394545,19.1557 -2.987688,5.8551 -5.809805,11.7868 -9.571479,17.2061 -3.821251,5.5681 -7.586915,11.1119 -11.863018,16.3529 -3.335768,4.9801 -6.330824,10.0778 -8.666915,15.6269 -3.178398,6.3277 -7.537203,11.8353 -11.178588,17.8825 -3.239915,5.1112 -5.864358,10.5627 -8.449797,16.0271 -2.262566,6.0626 -5.184682,11.8317 -7.6299765,17.8206 -2.6499649,5.3642 -5.0893467,10.8439 -7.0907858,16.487 -3.11721571,7.6193 -6.0585098,15.3331 -9.666453,22.7333 -4.4825167,8.0288 -9.0499607,16.0331 -12.4164267,24.6173 -3.029481,9.0885 -15.882483,4.8041 -12.853001,-4.2843 z"
       inkscape:connector-curvature="0" />
  </g>
</svg>
