<?xml version="1.0" encoding="UTF-8" standalone="no"?>
<!-- Created with Inkscape (http://www.inkscape.org/) -->

<svg
   xmlns:dc="http://purl.org/dc/elements/1.1/"
   xmlns:cc="http://creativecommons.org/ns#"
   xmlns:rdf="http://www.w3.org/1999/02/22-rdf-syntax-ns#"
   xmlns:svg="http://www.w3.org/2000/svg"
   xmlns="http://www.w3.org/2000/svg"
   xmlns:xlink="http://www.w3.org/1999/xlink"
   xmlns:sodipodi="http://sodipodi.sourceforge.net/DTD/sodipodi-0.dtd"
   xmlns:inkscape="http://www.inkscape.org/namespaces/inkscape"
   id="svg2"
   version="1.1"
   inkscape:version="0.48.4 r9939"
   width="901"
   height="1527"
   sodipodi:docname="46693-653.svg">
  <metadata
     id="metadata8">
    <rdf:RDF>
      <cc:Work
         rdf:about="">
        <dc:format>image/svg+xml</dc:format>
        <dc:type
           rdf:resource="http://purl.org/dc/dcmitype/StillImage" />
      </cc:Work>
    </rdf:RDF>
  </metadata>
  <defs
     id="defs6" />
  <sodipodi:namedview
     pagecolor="#ffffff"
     bordercolor="#666666"
     borderopacity="1"
     objecttolerance="10"
     gridtolerance="10"
     guidetolerance="10"
     inkscape:pageopacity="0"
     inkscape:pageshadow="2"
     inkscape:window-width="1280"
     inkscape:window-height="732"
     id="namedview4"
     showgrid="false"
     inkscape:zoom="1.2364113"
     inkscape:cx="441.85347"
     inkscape:cy="336.05497"
     inkscape:window-x="-8"
     inkscape:window-y="-8"
     inkscape:window-maximized="1"
     inkscape:current-layer="layer2" />
  <image
     width="901"
     height="1527"
     xlink:href="file:///tmp/broken-interfaces/phone_cropped_display/46693-653.png"
     id="image10"
     x="0"
     y="0" />
  <g
     inkscape:groupmode="layer"
     id="layer1"
     inkscape:label="Layer">
    <g
       id="g0"
       inkscape:label="#g3064">
      <path
         inkscape:connector-curvature="0"
         d="m 46.187837,1543.244 c 3.066248,-5.0259 6.063188,-10.0847 9.170406,-15.0846 2.205602,-3.4827 2.847899,-5.9697 5.845045,-9.0024 1.631091,-1.6859 3.603755,-3.0164 5.27779,-4.6369 2.331003,-2.0341 5.087379,-3.4705 7.449558,-5.4466 2.00916,-1.5275 3.90844,-3.1424 5.968722,-4.6215 2.66768,-1.8238 5.425237,-3.4152 8.30012,-4.9019 1.96426,-1.0962 3.706016,-2.5856 5.587435,-3.8616 1.383552,-1.3932 3.299676,-2.1265 4.601007,-3.5978 2.2558,-2.0259 4.58228,-3.9641 6.94205,-5.8795 1.6819,-1.2861 3.13692,-2.7298 4.35019,-4.4583 1.46801,-2.1609 3.45694,-3.8676 5.10213,-5.883 2.44042,-2.6221 5.37915,-4.5438 8.63442,-5.985 4.45483,-1.3175 7.48644,0.3248 11.20294,2.4738 2.54571,1.7721 4.59784,4.1051 6.9313,6.1172 2.63172,2.6482 5.42413,5.1123 7.95867,7.8634 2.0456,2.5034 4.09193,5.0032 6.28546,7.3792 1.69074,1.8961 3.80117,3.3355 5.85211,4.8226 2.92336,1.8334 4.76963,4.4024 5.97418,7.5696 -0.008,-0.097 -0.077,-0.3741 -0.0235,-0.2923 1.23785,1.8935 1.31192,4.2863 2.39351,6.1573 1.17659,2.6544 1.95941,5.4372 2.45357,8.2913 0.16439,-1.0643 1.71343,4.5343 1.72995,3.6817 1.25686,1.2962 1.96911,3.0103 2.56266,4.6862 0.28746,0.8176 0.47018,1.6596 0.56056,2.5196 0,0 -11.41015,0.8447 -11.41015,0.8447 l 0,0 c 0.007,0.067 0.18716,1.115 0.0307,0.474 -0.40308,-1.1306 -0.74739,-1.4782 -1.76504,-2.8419 -1.19483,-2.4322 -2.24759,-4.952 -3.08801,-7.5384 -0.26723,-2.0583 -1.06579,-3.9968 -1.82909,-5.9105 -0.80772,-2.27 -1.30143,-4.5607 -2.60212,-6.6465 0.52328,0.6573 -0.8766,-1.5715 -1.81459,-1.6672 -2.64577,-1.9582 -5.34309,-3.8832 -7.56414,-6.3367 -2.18256,-2.4039 -4.2819,-4.8766 -6.3267,-7.3987 -2.22013,-2.5016 -4.78537,-4.6363 -7.09555,-7.0441 -1.77551,-1.624 -3.47198,-3.3785 -5.27566,-4.9239 -0.50479,-0.3208 -1.94454,-0.6439 -1.47773,-1.0179 0.10826,-0.087 0.53645,0.067 0.41617,-0 -0.91333,-0.5249 -0.9373,0.028 0.60878,-0.7312 -1.61328,0.7253 -3.05351,1.5809 -4.38729,2.7607 -1.5757,1.9254 -3.467,3.5429 -4.85822,5.5875 -1.85046,2.3428 -3.81759,4.5907 -6.21817,6.3962 -2.17067,1.7851 -4.37659,3.5229 -6.4351,5.4305 -1.88976,1.6471 -3.91123,2.9897 -5.85051,4.5449 -2.271518,1.6237 -4.442025,3.4415 -6.919712,4.7348 -2.399508,1.1991 -4.70388,2.4822 -6.904933,4.0235 -1.832057,1.266 -3.463188,2.6636 -5.20467,4.052 -2.290291,1.9055 -4.832306,3.424 -7.201778,5.2288 -1.890296,1.6131 -3.79022,3.1976 -5.618108,4.9024 1.842654,-3.3078 -2.972638,6.3288 -3.223695,6.2028 -3.047982,4.9795 -5.961685,10.0421 -9.173902,14.9181 0,0 -9.921005,-5.9526 -9.921005,-5.9526 z"
         id="path3009"
         style="fill:#de2d26;fill-opacity:1;fill-rule:nonzero;stroke:none" />
      <path
         inkscape:connector-curvature="0"
         d="m 218.40439,1423.378 c -0.37024,-0.4634 -0.74048,-0.9269 -1.11072,-1.3904 0,0 9.32883,-6.9489 9.32883,-6.9489 l 0,0 c 0.56763,0.7955 1.13526,1.5911 1.7029,2.3867 0,0 -9.92101,5.9526 -9.92101,5.9526 z"
         id="path3011"
         style="fill:#de2d26;fill-opacity:1;fill-rule:nonzero;stroke:none" />
      <path
         inkscape:connector-curvature="0"
         d="m 202.67257,1385.4035 c 1.44878,4.9844 3.43107,9.771 5.39443,14.5676 1.75267,3.7904 3.59109,7.5911 6.31223,10.7847 1.95535,2.2485 4.15518,4.263 6.2968,6.329 2.22347,2.4373 4.76727,4.4148 7.42061,6.3445 1.92335,1.1778 3.40667,2.8704 5.13638,4.2912 -0.64951,-0.6272 -0.5313,-0.4493 0.841,0.2802 1.40317,0.746 2.87076,1.2805 4.31647,1.9517 2.56836,1.1499 5.27301,1.8204 7.83309,2.9991 3.29589,1.2512 6.26567,3.2003 9.26104,5.0303 4.36973,2.3945 8.72855,4.7895 13.05534,7.2593 3.87984,2.2616 7.69092,4.6351 11.42961,7.1264 2.81129,1.8197 5.5661,3.6441 7.9496,6.0191 2.45341,2.4081 4.03921,5.5581 6.44726,7.9962 2.84964,2.8003 4.23969,6.6266 6.48135,9.8415 2.07807,2.9187 3.49941,6.2055 5.27273,9.2876 2.00249,3.8765 3.32963,8.1015 4.51539,12.2938 1.51891,3.341 2.39176,6.9665 4.18198,10.1798 2.27312,3.672 3.84356,7.7056 5.95953,11.4582 2.19929,4.1473 3.96711,8.507 6.00684,12.7316 1.4236,3.5434 3.71114,6.6355 5.57379,9.9485 0.96048,2.5755 2.45017,4.8579 3.6105,7.3367 3.15242,4.9506 4.12294,5.3942 -5.71454,11.1281 -1.14153,0.6653 -2.50734,-0.8345 -3.76101,-1.2517 0,0 4.1569,-10.9034 4.1569,-10.9034 l 0,0 c 0.48826,0.2469 1.64259,0.2232 1.46478,0.7406 -3.86992,11.2614 -3.64385,10.3526 -6.58222,5.1732 -1.0447,-2.2297 -2.41594,-4.29 -3.30079,-6.5952 -1.9313,-3.539 -4.45912,-6.7745 -5.92269,-10.5662 -1.91578,-4.0352 -3.69513,-8.138 -5.72081,-12.1189 -2.09589,-3.8585 -3.7472,-7.9281 -6.04372,-11.6823 -2.04449,-4.0101 -3.44865,-8.2788 -5.10055,-12.4604 -0.91251,-3.3404 -1.93491,-6.7156 -3.46693,-9.821 -1.54353,-2.8661 -2.91008,-5.8051 -4.79087,-8.4884 -1.79152,-2.7814 -3.15905,-5.8619 -5.34364,-8.3698 -2.19468,-2.4584 -4.0036,-5.2048 -6.11261,-7.7194 -1.81511,-1.8613 -4.06191,-3.0896 -6.20885,-4.5301 -3.48841,-2.3521 -7.12129,-4.4739 -10.73254,-6.6259 -4.46248,-2.522 -8.94569,-4.9929 -13.4067,-7.5198 -2.58428,-1.6215 -5.14666,-3.3426 -8.01576,-4.4226 -2.60311,-1.2211 -5.4688,-1.7237 -8.02565,-3.0877 -2.39686,-1.2951 -5.11141,-2.0258 -7.33955,-3.6757 -1.94357,-1.5557 -2.64275,-2.6425 -4.68519,-3.8456 -3.09407,-2.2205 -6.04836,-4.5743 -8.63345,-7.3873 -2.47781,-2.3563 -4.98025,-4.6973 -7.24677,-7.2617 -3.39055,-4.1626 -6.01181,-8.8469 -8.16824,-13.7623 -2.25735,-5.4761 -4.54484,-10.9567 -5.92346,-16.7378 0,0 11.32889,-2.2657 11.32889,-2.2657 z"
         id="path3025"
         style="fill:#de2d26;fill-opacity:1;fill-rule:nonzero;stroke:none" />
      <path
         inkscape:connector-curvature="0"
         d="m 202.67257,1440.3061 c 0.87413,6.1806 2.30968,12.2518 3.25717,18.4216 0.5596,8.1137 2.03855,16.0762 3.82812,23.999 2.78282,9.8131 4.76135,19.8043 7.61454,29.5994 2.78483,10.0039 7.1907,19.3081 12.00658,28.4479 2.62533,5.2467 5.77647,10.1926 8.22104,15.5301 2.6696,4.1019 -1.99158,9.5778 -6.41351,10.2426 0,0 -1.63154,-11.4063 -1.63154,-11.4063 l 0,0 c 0.66684,-0.089 2.21612,-0.9342 1.99607,-0.2984 -3.63005,10.4874 -2.70207,9.9739 -4.40828,6.4004 -2.50302,-5.1121 -5.65776,-9.851 -8.23654,-14.9252 -5.23379,-9.8431 -9.9553,-19.9011 -12.95763,-30.6917 -2.87665,-10.0413 -4.93549,-20.2604 -7.74225,-30.3187 -1.80981,-8.187 -3.30305,-16.4249 -3.85071,-24.8023 -0.92023,-5.9971 -2.38656,-11.8917 -3.01195,-17.9326 0,0 11.32889,-2.2658 11.32889,-2.2658 z"
         id="path3027"
         style="fill:#de2d26;fill-opacity:1;fill-rule:nonzero;stroke:none" />
      <path
         inkscape:connector-curvature="0"
         d="m 688.806,1543.938 c 5.60587,-1.8267 11.00239,-4.1589 16.35189,-6.6219 4.89697,-2.7073 9.89875,-5.157 14.97849,-7.4919 4.87612,-2.6018 9.81899,-5.073 14.6733,-7.7165 2.80901,-2.2533 6.70965,-2.7487 9.64711,-4.6927 1.77345,-0.9959 3.57535,-1.8642 5.29525,-2.9566 2.34949,-0.9998 4.51586,-2.2072 6.68235,-3.5317 3.154,-1.5465 6.17022,-3.3273 9.46785,-4.557 0.923,-1.0445 3.07388,-2.2109 4.48916,-3.0116 3.58728,-1.6387 7.30602,-2.9002 10.92389,-4.4573 2.7114,-1.139 5.30102,-2.4843 7.75032,-4.0841 3.01142,-2.1237 6.19462,-3.942 9.47902,-5.6099 4.60189,-1.9421 9.14232,-3.9785 13.45783,-6.5001 3.69215,-3.3313 8.34562,-5.1838 12.7643,-7.3142 3.50055,-2.3249 7.45726,-3.7891 11.05018,-5.9277 2.6818,-1.6468 5.4218,-3.1798 8.20843,-4.6755 2.76032,-1.0574 4.99231,-2.9688 7.40915,-4.6075 2.57091,-1.8588 5.22616,-3.5934 7.81151,-5.4379 2.23485,-1.5615 4.21201,-3.4491 6.20449,-5.3003 1.56695,-1.5384 3.2436,-3.1059 4.63281,-4.7304 0.69351,-0.9706 2.07094,-2.9129 2.39753,-3.6116 0.35254,-1.7565 1.3562,-3.2621 1.9952,-4.9131 1.49195,-2.2328 2.58377,-4.634 4.20356,-6.7703 1.85194,-2.4686 4.35888,-4.2579 6.59373,-6.3212 2.54494,-2.0942 5.06883,-4.1903 7.84001,-5.9935 3.26846,-2.004 6.68476,-3.7387 10.0437,-5.5823 3.11029,-1.8392 6.45938,-3.2987 9.51729,-5.2187 2.22717,-1.118 2.97703,-2.0241 4.01686,-4.1245 0,0 10.17446,5.5434 10.17446,5.5434 l 0,0 c -2.05403,3.6122 -4.53807,6.5549 -8.25656,8.5219 -3.26376,1.8998 -6.62554,3.6257 -9.91005,5.4954 -3.15304,1.693 -6.36162,3.279 -9.41322,5.1534 -2.32421,1.3733 -4.27135,3.254 -6.39564,4.8926 -1.75865,1.5048 -3.58009,2.9142 -5.10023,4.69 -0.37335,0.4552 -2.95842,5.2355 -2.58989,3.9209 -0.9087,2.298 -1.5596,2.8491 -2.03343,4.9868 -1.05652,2.3022 -2.44821,4.1524 -3.64613,5.958 -1.81748,2.382 -3.97726,4.4319 -6.14595,6.4969 -2.36205,2.2627 -4.78503,4.4754 -7.46283,6.3644 -2.64819,1.8487 -5.32413,3.6494 -7.95386,5.5166 -2.72746,1.885 -5.3368,3.998 -8.43716,5.2565 -2.62403,1.4226 -5.27727,2.7267 -7.74493,4.4095 -3.89139,2.3523 -8.12996,4.0546 -11.97026,6.5161 -4.18794,1.9985 -8.47852,3.7025 -11.9654,6.8695 -4.54232,2.6198 -9.23801,4.9211 -14.11475,6.8564 -2.90916,1.4106 -5.7181,2.9707 -8.34143,4.8679 -3.01059,1.9646 -6.1674,3.6404 -9.47649,5.0586 -3.30596,1.4277 -6.67643,2.6489 -10.02501,3.9609 -2.12631,1.022 -3.82639,2.6316 -5.94562,3.6675 -2.61774,0.9781 -4.9362,2.5511 -7.51052,3.6366 -2.07009,1.2397 -4.13162,2.5805 -6.44324,3.3301 -1.92635,1.2503 -3.98208,2.2122 -5.95308,3.3647 -3.18733,1.6699 -6.59637,2.9068 -9.63935,4.8602 -5.08834,2.7623 -10.26802,5.3428 -15.39273,8.0357 -5.06617,2.3255 -10.01591,4.8369 -14.90159,7.5309 -6.15738,2.8883 -12.43362,5.5853 -19.02455,7.3275 0,0 -2.26577,-11.3289 -2.26577,-11.3289 z"
         id="path3031"
         style="fill:#de2d26;fill-opacity:1;fill-rule:nonzero;stroke:none" />
      <path
         inkscape:connector-curvature="0"
         d="m 800.47432,802.64978 c 5.80556,-1.69614 11.33961,-4.12289 16.92532,-6.41303 6.37392,-2.7371 12.67174,-5.62536 18.96115,-8.55388 5.49237,-2.36556 10.74692,-5.21321 16.12353,-7.82807 4.41843,-1.71571 8.35519,-4.36481 12.63431,-6.35534 2.69372,-1.74106 5.6019,-3.04946 8.45444,-4.49185 3.91867,-1.59541 7.96279,-2.80764 12.00903,-4.04618 6.19851,-1.73668 12.40974,-3.41534 18.61528,-5.1318 3.63077,-1.03495 7.32236,-1.85114 11.05145,-2.43789 0.46163,-0.0728 0.92564,-0.12685 1.39042,-0.17405 0,0 1.29002,11.38138 1.29002,11.38138 l 0,0 c -0.23908,0.0417 -0.47834,0.0828 -0.71678,0.12807 -3.32548,0.6414 -6.63109,1.40578 -9.87696,2.37559 -6.13382,1.71855 -12.28341,3.37025 -18.43237,5.02497 -3.41369,0.98862 -6.80756,1.97641 -10.13564,3.21202 -2.99591,1.49534 -5.9813,2.91834 -8.81568,4.72053 -4.22046,1.883 -7.99435,4.67738 -12.36242,6.27846 -5.43435,2.64925 -10.72642,5.57098 -16.27637,7.97524 -6.46581,3.01317 -12.94244,5.98014 -19.50509,8.77435 -5.8294,2.34639 -11.57104,4.96157 -17.67143,6.54811 0,0 -3.66221,-10.98663 -3.66221,-10.98663 z"
         id="path3033"
         style="fill:#de2d26;fill-opacity:1;fill-rule:nonzero;stroke:none" />
      <path
         inkscape:connector-curvature="0"
         d="m 559.40407,1002.8933 c 4.87276,1.9945 9.69602,4.1902 14.26983,6.8041 4.0625,2.3907 8.18888,4.671 12.10023,7.3075 3.01067,1.9348 6.32801,3.2518 9.40926,5.0682 3.10194,1.6116 6.49085,2.5627 9.72281,3.9073 2.86855,1.6458 5.97898,2.7412 8.95609,4.1527 1.55952,0.6262 3.14461,1.1901 4.75363,1.6754 0.19985,0.049 -0.41034,-0.033 -0.61417,-0.06 0,0 -0.0339,11.4625 -0.0339,11.4625 l 0,0 c -0.83066,-0.056 -1.63717,-0.1054 -2.43585,-0.3502 -2.25377,-0.5963 -4.46932,-1.3422 -6.6097,-2.2688 -2.79029,-1.3119 -5.71876,-2.3162 -8.38065,-3.8941 -3.80228,-1.5121 -7.78023,-2.6384 -11.33237,-4.7 -3.20773,-1.9982 -6.86369,-3.1673 -9.95518,-5.3801 -3.65973,-2.5026 -7.59476,-4.5695 -11.40088,-6.8344 -4.06693,-2.3814 -8.45707,-4.2118 -12.7423,-6.157 0,0 4.29317,-10.7329 4.29317,-10.7329 z"
         id="path3035"
         style="fill:#de2d26;fill-opacity:1;fill-rule:nonzero;stroke:none" />
      <path
         inkscape:connector-curvature="0"
         d="m 682.31634,1112.2356 c 3.86659,3.843 7.67883,7.703 11.87793,11.1837 4.23068,3.436 8.31225,7.0485 12.27422,10.7897 2.43535,2.1621 5.07641,4.0507 7.6621,6.0267 2.54866,1.9392 4.419,4.6373 7.0875,6.4347 2.52015,2.1528 5.30406,3.9532 7.89137,6.0253 2.36746,1.9667 4.47003,4.1884 7.00215,5.9434 2.89652,2.0514 5.62756,4.3085 8.52634,6.3533 2.37571,1.4719 4.58172,3.1634 6.67925,5.0059 2.74911,1.939 4.41516,4.9405 6.71431,7.2758 0.56655,0.5802 1.27126,1.1643 1.89119,1.6186 -5.18206,-3.3931 -1.20577,13.4027 -7.41214,8.7084 0,0 7.36503,-8.8189 7.36503,-8.8189 l 0,0 c -3.76383,-1.8172 -0.96653,13.8267 -5.88428,9.9142 -1.67775,-1.0171 -3.18695,-2.2844 -4.55294,-3.6911 -1.87671,-2.1572 -3.44936,-4.5412 -5.73391,-6.3264 -1.81646,-1.5898 -3.70771,-3.0468 -5.79781,-4.269 -2.83494,-2.0443 -5.59618,-4.1777 -8.39662,-6.2709 -2.76652,-1.9259 -5.15701,-4.235 -7.6845,-6.4521 -2.41253,-1.9847 -5.09301,-3.608 -7.44053,-5.6705 -2.61657,-1.9825 -4.89861,-4.2939 -7.23303,-6.5686 -2.92283,-2.1934 -5.86219,-4.3478 -8.62393,-6.7445 -3.8325,-3.545 -7.73216,-7.0132 -11.79124,-10.2992 -4.47065,-3.7151 -8.60927,-7.7621 -12.59875,-11.9903 0,0 8.17829,-8.1782 8.17829,-8.1782 z"
         id="path3039"
         style="fill:#de2d26;fill-opacity:1;fill-rule:nonzero;stroke:none" />
    </g>
  </g>
  <g
     inkscape:groupmode="layer"
     id="layer2"
     inkscape:label="Layer#1">
    <g
       id="g1"
       inkscape:label="#g3056">
      <path
         inkscape:connector-curvature="0"
         d="m 204.46341,-10.357255 c 3.81858,3.5910165 7.08463,7.7057851 10.53783,11.6377542 3.92113,4.480275 8.00774,8.7785498 12.54494,12.6339398 3.83071,3.919464 7.73611,7.69781 11.88591,11.277813 3.71407,2.991519 7.01476,6.390702 10.31689,9.805537 2.05366,2.106024 4.45022,3.817401 6.81657,5.556819 2.93755,2.900123 6.36919,5.182838 9.44548,7.916624 2.14639,1.637068 4.13232,3.495947 6.4905,4.842328 3.13476,1.987369 5.50219,5.018547 8.69974,6.892195 3.0999,1.892239 6.27928,3.618486 9.35837,5.549493 3.67949,1.984021 6.72375,4.893478 10.25114,7.124211 4.52539,3.109791 9.15678,6.030444 14.00245,8.617469 4.92198,2.843242 9.8274,5.712535 14.76039,8.538344 3.50265,2.178553 6.96235,4.414296 10.44323,6.629609 3.31013,2.282686 6.41248,4.893739 9.88988,6.927729 3.28633,1.85297 6.36473,4.02385 9.28372,6.40695 2.04667,1.79957 3.98339,3.69052 6.19613,5.28433 2.76763,1.98959 5.63596,3.83885 8.45609,5.76154 2.44236,1.96431 4.98148,3.72989 7.58555,5.46752 2.83296,1.92131 5.38969,4.19845 7.89543,6.51937 1.96979,1.65417 3.91623,3.37658 5.95056,4.97156 3.24779,1.90832 5.9797,4.59111 8.96347,6.89091 3.47275,3.17496 6.71106,6.5803 10.27137,9.65987 3.44325,3.23386 6.87895,6.48293 10.34485,9.70143 3.4491,3.05945 6.66233,6.30406 9.55854,9.88929 2.86666,3.51576 5.7295,7.02865 8.46983,10.64172 2.61194,3.23744 4.91685,6.69297 7.38535,10.03586 3.08605,4.39447 5.9173,8.88646 8.45362,13.61723 2.29799,4.37346 4.06195,9.04418 6.5681,13.3036 2.21295,4.06824 4.19872,8.26625 6.12657,12.4777 2.03059,4.4498 4.45222,8.68108 6.97214,12.86843 2.32946,3.84918 5.187,7.3891 8.14346,10.7726 4.21049,3.84965 7.21076,8.71401 10.59822,13.2528 3.28401,4.47389 6.7156,8.80448 10.22415,13.10382 2.42731,3.59896 5.50902,6.64521 8.13953,10.08901 1.99434,3.3252 4.34791,6.35936 6.80747,9.33697 3.28724,4.05781 6.99788,7.73672 10.41034,11.68367 4.31742,5.18541 8.8091,10.20608 12.95718,15.52908 3.30722,3.84886 5.82773,8.35549 9.28304,12.07493 2.47103,3.39915 5.14949,6.54375 8.09386,9.54466 3.20804,4.071 6.77052,7.80854 10.22514,11.66332 3.11964,3.74801 6.09605,7.51217 9.5953,10.92098 2.62093,2.52067 5.41457,4.84933 7.74386,7.6468 2.24413,2.439 4.63785,4.73238 6.85937,7.19342 2.63286,2.72448 5.25314,5.46038 7.99542,8.07834 3.36388,3.02635 6.69259,6.09015 9.96879,9.21119 3.19406,2.57367 6.0896,5.48324 9.29266,8.04531 2.85272,1.90414 4.87794,4.59304 6.87003,7.32169 1.87423,1.01834 3.292,2.65582 4.86095,4.05778 1.96682,1.95385 4.37894,3.31246 6.67945,4.82961 4.59976,2.88934 3.51326,9.11451 -1.05315,11.95234 0,0 -5.79151,-10.00829 -5.79151,-10.00829 l 0,0 c 4.0928,-2.02736 -2.63046,6.19322 0.55646,7.746 -2.88014,-1.83976 -5.81988,-3.63839 -8.25361,-6.06638 -2.04811,-1.9442 -4.31587,-3.62191 -6.30174,-5.67695 -1.42474,-1.927 -2.63977,-3.7902 -4.74442,-5.0738 -3.52042,-2.756 -6.7129,-5.88921 -10.17296,-8.71995 -3.26613,-3.15018 -6.61592,-6.20707 -9.96542,-9.26805 -2.93551,-2.85208 -5.79076,-5.77967 -8.62502,-8.73217 -2.30855,-2.68371 -4.95567,-5.0614 -7.25768,-7.75567 -1.54959,-2.61215 -4.93485,-3.98962 -6.7352,-6.419 -3.73196,-3.57543 -6.92708,-7.53216 -10.19566,-11.51579 -3.34469,-3.73825 -6.8475,-7.32128 -9.89514,-11.31702 -3.01026,-3.12104 -5.82048,-6.37259 -8.37678,-9.86645 -3.55884,-4.00682 -6.49864,-8.50748 -9.87211,-12.66779 -4.05478,-5.17779 -8.47146,-10.03979 -12.63855,-15.12732 -3.40264,-4.04101 -7.18977,-7.74569 -10.46275,-11.90158 -2.55222,-3.09882 -5.03561,-6.23943 -7.09116,-9.7002 -2.53086,-3.34691 -5.6044,-6.22889 -7.9251,-9.74181 -3.62378,-4.43255 -7.20561,-8.87227 -10.58642,-13.49429 -3.2047,-4.32375 -5.98754,-8.95807 -10.00372,-12.6028 -3.38312,-3.91697 -6.66297,-7.97447 -9.35557,-12.4055 -2.72933,-4.56938 -5.35563,-9.18827 -7.55755,-14.03912 -1.75815,-3.87974 -3.56948,-7.75151 -5.61501,-11.48619 -2.51184,-4.40521 -4.50656,-9.07992 -6.76545,-13.61818 -2.27626,-4.25559 -4.81945,-8.28983 -7.57482,-12.25697 -2.39942,-3.31571 -4.66477,-6.71569 -7.24903,-9.89612 -2.66264,-3.53388 -5.52308,-6.90706 -8.28617,-10.36443 -2.50774,-3.15167 -5.33198,-5.95692 -8.36161,-8.61633 -3.4096,-3.11453 -6.72752,-6.32258 -10.08984,-9.47754 -3.38678,-2.95161 -6.58138,-6.09818 -9.78364,-9.24582 -3.04202,-2.37702 -5.79882,-5.11248 -9.11752,-7.10388 -2.19736,-1.81842 -4.36156,-3.66861 -6.54808,-5.49864 -2.02304,-1.90493 -4.14029,-3.71505 -6.40598,-5.32712 -2.66255,-1.75536 -5.24638,-3.58998 -7.74822,-5.56412 -2.94288,-2.04149 -5.99059,-3.92878 -8.85591,-6.0766 -2.28752,-1.76425 -4.48053,-3.63039 -6.59813,-5.59772 -2.43871,-2.04529 -5.1279,-3.7582 -7.87236,-5.36149 -3.52973,-2.13432 -6.82924,-4.60952 -10.11776,-7.09195 -3.36216,-2.09783 -6.67942,-4.25902 -10.06751,-6.30978 -4.83149,-2.771858 -9.65622,-5.552048 -14.47001,-8.352557 -5.12264,-2.742871 -10.03086,-5.814434 -14.79017,-9.145909 -3.47681,-2.268849 -6.55321,-5.075245 -10.16515,-7.113109 -3.0584,-1.971122 -6.2835,-3.608303 -9.36169,-5.546799 -3.05131,-2.007727 -5.72468,-4.454953 -8.51285,-6.804779 -2.86703,-1.806516 -5.49353,-3.911605 -8.12922,-6.030276 -2.85002,-2.4924 -6.04585,-4.562216 -8.68634,-7.295428 -2.85535,-2.138574 -5.72936,-4.27424 -8.24258,-6.816813 -3.05724,-3.168041 -6.19578,-6.230833 -9.61401,-9.030164 -4.11396,-3.565551 -8.05018,-7.274104 -11.8231,-11.198554 -4.97408,-4.22876 -9.49768,-8.898001 -13.77146,-13.8352567 -3.63603,-4.1626722 -7.15479,-8.42264317 -10.98529,-12.4084354 0,0 9.24081,-6.9306049 9.24081,-6.9306049 z"
         id="path3042"
         style="fill:#fc9272;fill-opacity:1;fill-rule:nonzero;stroke:none" />
      <path
         inkscape:connector-curvature="0"
         d="m 313.64657,1487.0502 c -1.30013,3.7155 -2.91892,7.2678 -4.95701,10.6332 -0.70431,1.1161 -1.43356,2.2208 -2.27757,3.2372 -6.0524,4.9473 -10.34855,-1.3635 -10.19866,-5.7034 0.14577,-3.4148 1.06799,-1.6921 6.51555,-6.0154 4.06968,-0.8675 7.85234,-2.7126 11.52564,-4.6493 5.6701,-3.4043 11.33109,-6.7608 16.76955,-10.521 4.01585,-2.9349 7.94826,-5.9701 11.9147,-8.9715 3.45155,-2.2392 7.00381,-4.2955 10.48022,-6.4894 2.46135,-1.8081 4.59845,-3.9725 6.86117,-6.0119 2.84572,-2.4274 5.62165,-4.9331 8.39209,-7.4454 2.00961,-1.8505 3.69868,-3.9525 5.67141,-5.8542 1.89862,-1.9145 3.53196,-4.0579 5.53633,-5.8994 1.36849,-1.2068 4.06357,-2.3665 4.83089,-4.187 2.38863,-3.3127 5.33816,-6.2447 8.31219,-9.0408 2.76372,-2.7259 5.2327,-5.7095 7.74742,-8.664 2.0884,-2.3858 4.25179,-4.6912 6.11047,-7.2618 1.62163,-1.951 3.52382,-3.6454 5.59013,-5.1096 0.3455,-0.2466 0.71186,-0.4594 1.0809,-0.6677 0,0 5.50808,10.0343 5.50808,10.0343 l 0,0 c 0.0403,-0.024 0.16422,-0.089 0.1253,-0.063 -1.08587,0.8173 -2.08308,1.746 -3.03267,2.7167 -2.0675,2.7272 -4.26652,5.3371 -6.55763,7.8821 -2.80811,3.2812 -5.56053,6.6009 -8.64907,9.6266 -2.46277,2.276 -4.91496,4.6499 -6.90359,7.3429 -1.69369,2.1606 -3.85387,4.7083 -6.37117,5.9104 -1.95,1.7697 -3.43854,3.9396 -5.35834,5.7407 -2.03642,1.9148 -3.69487,4.144 -5.79697,5.9922 -2.77891,2.6087 -5.61711,5.1532 -8.54486,7.5945 -2.77213,2.412 -5.30821,5.099 -8.3735,7.1694 -3.20199,2.014 -6.42996,3.9672 -9.6477,5.9589 -4.08678,3.0865 -8.09801,6.2615 -12.24219,9.2718 -5.82294,4.1045 -11.90273,7.7524 -18.05256,11.3512 -5.31392,2.7231 -10.79233,5.2062 -16.81662,5.7498 1.62315,-1.7241 4.99624,-7.5725 4.82831,-5.2105 -0.009,4.9296 -6.70043,-5.0029 -10.05928,-1.8945 0.12197,-0.1863 0.92847,-1.416 1.16484,-1.8406 1.68316,-2.8715 2.97425,-5.8864 4.14128,-9.0047 0,0 10.73292,4.2932 10.73292,4.2932 z"
         id="path3044"
         style="fill:#fc9272;fill-opacity:1;fill-rule:nonzero;stroke:none" />
      <path
         inkscape:connector-curvature="0"
         d="m 750.41932,1189.2998 c -3.62518,2.1791 -7.0779,4.5079 -10.35105,7.1696 -3.67722,3.7559 -6.87727,7.92 -9.93169,12.1867 -4.20745,6.0831 -7.92337,12.4742 -11.42032,18.9861 -3.31853,6.1845 -7.393,11.933 -11.61334,17.528 -3.88639,4.9972 -6.88134,10.5626 -10.22371,15.9133 -2.95746,5.3563 -6.56024,10.3074 -10.11694,15.2728 -4.2379,6.2645 -8.75715,12.3431 -14.03681,17.7675 -4.00005,4.0796 -8.96446,6.9704 -13.44209,10.4642 -4.78672,3.0173 -8.99461,6.7776 -13.34094,10.3674 -7.79402,6.3 -16.27584,11.6325 -24.94217,16.6348 -5.54342,3.2022 -11.19104,6.2693 -17.00262,8.9617 -3.17323,1.6742 -6.44494,3.1313 -9.58396,4.8725 -3.74497,1.9324 -7.36962,4.0151 -11.35925,5.4099 -1.77874,1.2148 -3.88389,1.7362 -5.67678,2.8956 -2.34367,1.3397 -4.85974,2.3607 -7.1924,3.7151 -2.79857,1.5721 -5.58613,3.1664 -8.54756,4.4169 -2.4154,1.4518 -4.99035,2.5405 -7.69596,3.3059 -2.89638,0.6707 -5.89097,1.283 -8.69624,2.2951 -2.97443,0.9801 -5.64414,2.5549 -8.58112,3.6536 -2.30508,0.5686 -4.31275,1.8515 -6.51344,2.7318 -5.73336,2.9756 3.09807,-5.7593 0.83936,-1.0952 0,0 -10.19676,-5.319 -10.19676,-5.319 l 0,0 c 1.37819,-1.9798 2.84022,-3.5447 5.01112,-4.2433 2.27677,-0.9527 4.38665,-2.3121 6.79909,-2.8985 3.06149,-1.153 5.86367,-2.8545 8.99981,-3.8276 3.09153,-0.976 6.27232,-1.8176 9.44429,-2.4517 2.21129,-0.3629 4.0466,-1.9824 6.08256,-2.7883 2.58685,-1.1016 5.01888,-2.5265 7.46552,-3.9022 2.1976,-1.1794 4.45734,-2.2336 6.67322,-3.3769 2.57853,-1.5846 5.4209,-2.6071 8.07239,-4.0695 3.39123,-1.0771 6.2901,-3.2068 9.52686,-4.6409 3.35555,-1.7997 6.80445,-3.4054 10.17161,-5.1815 5.46902,-2.639 10.78572,-5.6055 16.01288,-8.6915 8.0931,-4.7436 16.08439,-9.6865 23.46097,-15.5024 4.46021,-3.5987 8.77829,-7.3846 13.63212,-10.4641 4.06986,-3.1469 8.49803,-5.8586 12.19798,-9.4538 4.89622,-4.9962 8.9197,-10.7441 12.9395,-16.4502 3.45448,-4.7123 6.8613,-9.4791 9.67483,-14.611 3.52956,-5.6396 6.70161,-11.5 10.79006,-16.7776 3.86049,-5.1014 7.62519,-10.3238 10.62112,-15.9896 3.72004,-6.9933 7.6956,-13.8551 12.25998,-20.3374 3.68605,-5.0452 7.53218,-10.0071 12.10825,-14.2885 3.38604,-2.775 6.86742,-5.3661 10.75102,-7.4286 0,0 6.93061,9.2408 6.93061,9.2408 z"
         id="path3048"
         style="fill:#fc9272;fill-opacity:1;fill-rule:nonzero;stroke:none" />
      <path
         inkscape:connector-curvature="0"
         d="m 43.449228,1363.0678 c 4.648897,2.9233 9.263968,5.9202 13.774327,9.0567 4.055539,3.1129 8.295674,5.9661 12.347069,9.0849 3.037944,2.5265 6.423567,4.5717 9.560399,6.9713 2.958674,1.8245 5.397229,4.3486 7.760672,6.8669 1.673254,1.9319 3.752305,3.3746 5.630265,5.1025 3.028391,3.0086 6.425769,5.6304 9.61263,8.4779 4.30819,4.0207 8.70969,7.9715 12.58864,12.4148 2.75971,2.9851 5.42622,6.0497 7.9711,9.2229 2.3293,2.4056 3.96913,5.3076 5.78567,8.0886 2.30276,1.763 4.05227,4.7435 5.35681,7.268 2.02397,2.6965 3.52143,5.7187 5.44283,8.4839 1.8125,2.6965 3.66978,5.2541 4.88587,8.2996 0.6314,2.2835 1.86964,4.2769 2.6003,6.5641 1.25149,2.5531 1.94418,5.3064 2.98404,7.9448 1.84187,3.6029 1.82504,7.0681 -0.64832,10.3183 -8.50208,0.8667 -8.34964,0.8104 -12.47045,-4.3797 0,0 9.26257,-7.066 9.26257,-7.066 l 0,0 c 2.73086,3.8186 2.93284,2.4096 -5.19397,3.6447 -1.86315,2.7722 0.33317,6.7103 -1.71799,1.7317 -1.1729,-2.9698 -1.97971,-6.0461 -3.28155,-8.9669 -0.33841,-1.9944 -2.13853,-3.5053 -2.2717,-5.5789 -0.82872,-2.197 -2.43208,-3.8749 -3.6331,-5.8754 -2.28809,-3.2537 -4.14191,-6.7793 -6.37264,-10.0715 -0.9326,-2.3606 -3.04954,-4.0086 -4.58979,-5.9651 -1.63204,-2.4617 -3.0384,-5.0453 -5.14791,-7.156 -2.48893,-3.0523 -5.04318,-6.0374 -7.76424,-8.8848 -3.5169,-4.1102 -7.731478,-7.5816 -11.586058,-11.3649 -3.252184,-2.9458 -6.711476,-5.6778 -9.794242,-8.796 -1.860496,-1.9679 -4.333066,-3.3182 -6.004874,-5.4967 -1.999716,-2.0639 -3.977667,-4.1852 -6.479853,-5.6551 -3.098392,-2.417 -6.551715,-4.3357 -9.539456,-6.899 -3.945044,-2.9824 -8.012389,-5.7899 -11.979742,-8.7405 -4.610748,-3.226 -9.375415,-6.2239 -14.017912,-9.4043 0,0 6.930605,-9.2408 6.930605,-9.2408 z"
         id="path3050"
         style="fill:#fc9272;fill-opacity:1;fill-rule:nonzero;stroke:none" />
      <path
         inkscape:connector-curvature="0"
         d="m 110.67139,1302.7311 c 3.34356,4.4035 7.15562,8.3317 11.47621,11.7704 4.14695,3.2985 8.46019,6.3414 12.84169,9.3132 2.59667,2.0046 5.25226,3.8363 8.03614,5.5579 2.48755,1.8247 5.17771,3.3267 7.73404,5.0504 1.92497,1.5919 3.963,2.8925 6.08794,4.1783 2.1017,1.349 4.01895,2.9038 6.12558,4.2312 3.48795,2.3532 7.10004,4.507 10.65873,6.7522 3.45635,2.2119 6.90716,4.4308 10.30759,6.7328 2.25204,1.3019 4.1412,3.1422 6.37112,4.4611 2.17182,1.3938 4.55078,2.3693 6.73742,3.7518 2.36462,1.4129 4.14073,3.1852 5.09187,5.8491 -1.96719,-3.618 0.56152,-0.4226 2.08193,0.4943 2.36115,1.3398 4.24739,3.3377 5.84589,5.5015 2.47173,3.6497 0.95414,1.043 -8.54909,7.7983 -0.2207,0.1569 -0.88074,-0.6071 -0.62457,-0.5193 5.27803,1.8078 0.48593,2.4026 8.45387,-1.8393 0,0 -10.82625,-3.8762 -10.82625,-3.8762 l 0,0 c 2.08688,-1.4874 3.82461,-3.6664 6.26064,-4.4621 3.7774,-1.2339 14.38558,12.2272 -3.92413,9.7569 -0.88361,-1.1616 -1.85053,-2.1841 -3.18575,-2.8359 -2.62258,-1.8911 -5.18277,-3.8086 -6.56137,-6.8294 1.31251,2.6402 2.64247,2.3876 -0.24376,0.7026 -2.09331,-1.3357 -4.45617,-2.1545 -6.48492,-3.6072 -2.41873,-1.4606 -4.51488,-3.3499 -6.96234,-4.7701 -3.27391,-2.245 -6.66342,-4.3092 -9.98136,-6.4837 -3.58234,-2.2564 -7.23049,-4.4124 -10.69884,-6.8423 -2.03617,-1.3261 -3.9343,-2.8022 -5.9565,-4.1408 -2.20735,-1.4046 -4.43318,-2.7411 -6.46419,-4.4019 -2.46161,-1.6409 -5.02906,-3.1099 -7.42068,-4.8515 -2.87472,-1.8236 -5.71713,-3.6482 -8.41986,-5.7278 -4.66742,-3.144 -9.28008,-6.3379 -13.69776,-9.834 -5.01144,-4.1034 -9.60957,-8.6299 -13.3501,-13.9499 0,0 9.24081,-6.9306 9.24081,-6.9306 z"
         id="path3052"
         style="fill:#fc9272;fill-opacity:1;fill-rule:nonzero;stroke:none" />
      <path
         inkscape:connector-curvature="0"
         d="m 220.97345,1463.1822 c 1.78596,5.5117 3.10585,11.1536 4.86516,16.6777 1.51843,5.448 3.05285,10.87 4.64788,16.295 1.28399,4.0374 1.58869,8.2504 1.75125,12.4541 -0.2785,3.867 0.66865,7.565 1.34391,11.3326 0.76496,3.7567 1.00192,7.3863 0.0874,11.1269 -0.91514,2.9399 -1.31261,5.9813 -2.06909,8.9692 -0.80612,3.7744 -2.25385,7.3694 -3.41434,11.0445 -1.72698,5.4734 0.2169,3.0775 -9.40103,-3.8919 0.50244,-0.4639 0.35845,-0.3332 -0.42007,0.4049 0,0 9.84737,5.9401 9.84737,5.9401 l 0,0 c -1.64858,2.1831 -0.86189,1.4036 -2.13909,2.5423 -10.04851,-5.6183 -10.65165,-2.3297 -8.93643,-8.356 1.0389,-3.5385 2.42213,-6.9705 3.22785,-10.5701 0.77996,-2.9908 1.21881,-6.0336 2.12923,-8.9902 0.50824,-1.7095 0.0806,-4.0293 -0.32785,-6.183 -0.76203,-4.2939 -1.81199,-8.5484 -1.52361,-12.9516 -0.1065,-3.2332 -0.23757,-6.487 -1.30145,-9.5776 -1.59181,-5.3531 -3.21133,-10.6811 -4.68272,-16.0702 -1.84728,-5.9324 -3.3548,-11.9464 -5.01327,-17.9309 0,0 11.32889,-2.2658 11.32889,-2.2658 z"
         id="path3054"
         style="fill:#fc9272;fill-opacity:1;fill-rule:nonzero;stroke:none" />
    </g>
    <path
       style="fill:#fee0d2;fill-opacity:1;fill-rule:nonzero;stroke:none"
       id="path3002"
       d="m 360.09517,1170.346 c -0.41052,2.2142 -0.66916,4.4511 -0.81954,6.6967 7.4e-4,2.0608 -0.3298,4.1722 -0.015,6.2189 0.16117,2.3402 0.0375,4.6874 -0.0311,7.0289 -0.0496,1.7807 -0.0644,3.562 -0.0719,5.3432 0.4231,1.4451 0.70159,2.934 0.90351,4.4254 0.1555,1.5949 0.70494,3.122 1.011,4.7009 0.72038,1.9414 1.05527,3.9826 1.28748,6.0305 0.16105,1.9748 0.74121,3.879 1.03005,5.843 0.29014,2.0125 0.3187,4.0479 0.34198,6.0771 0.0142,2.6142 0.006,5.2286 0.003,7.8429 -0.003,2.953 -0.004,5.906 -0.005,8.8591 -0.26702,2.9024 -0.73184,5.7753 -0.94631,8.6836 -0.15581,2.4134 -0.18652,4.8322 -0.20262,7.2498 -0.006,1.0164 -0.002,2.0328 0.001,3.0492 3.5e-4,0.094 0.0156,0.3759 0.001,0.2828 -0.37386,-2.3915 0.61524,0.8939 0.71201,1.2218 0.42313,1.6899 0.40777,3.446 0.43199,5.1763 -0.30097,2.5843 -0.72305,5.1473 -0.94174,7.7419 -0.36607,2.3254 0.0589,4.6012 0.1746,6.9152 -0.038,2.8349 -0.20615,5.6657 -0.2885,8.4996 -0.0988,2.6319 0.0269,5.2664 -0.24689,7.8868 -0.44259,2.6331 -0.7172,5.2824 -0.86052,7.9469 -0.0579,3.3706 -0.12081,6.7195 -0.47469,10.0736 -0.47493,4.1078 -0.62238,8.2413 -0.72082,12.3721 -6.3e-4,4.235 -0.2373,8.4818 0.0511,12.7102 0.45331,4.0934 0.7271,8.1992 0.88924,12.3134 0.38358,3.5637 0.81163,7.12 1.06835,10.696 0.40479,2.3839 0.84801,4.759 1.1294,7.1618 0.17549,1.5017 0.21724,3.0136 0.23103,4.5239 0.12636,0.9218 0.58031,2.5752 0.78851,3.9715 0.45412,2.5453 0.18255,5.0562 -0.21454,7.5822 -0.37219,2.5503 -0.47443,5.1265 -0.54081,7.6994 -0.0544,2.8541 -0.0493,5.709 -0.0484,8.5635 -0.0628,2.0352 0.44711,4.0323 0.78635,6.0282 0.0793,1.466 0.63848,2.7899 0.9709,4.2111 0.37278,2.1278 0.94751,4.2105 1.30891,6.3437 0.25681,1.5119 0.3389,3.0438 0.37579,4.5743 0.10444,1.5451 -0.092,3.0471 -0.38723,4.5618 -0.53089,2.7426 -0.51924,5.544 -0.84887,8.3098 -0.19583,1.9064 -0.70026,3.7658 -0.97537,5.6581 -0.0823,0.5255 -0.0852,1.0576 -0.089,1.5881 0.003,0.5469 0.006,1.0938 0.007,1.6407 0.002,1.7277 0.002,3.4554 0.002,5.183 10e-5,1.1641 9e-5,2.3281 5e-5,3.4922 0,0.1681 -2e-5,0.3362 -3e-5,0.5043 -4.33705,3.8527 -2.22384,3.9682 -5.71629,2.7829 -4.15706,-2.5037 -0.61641,-8.3826 3.54065,-5.879 l 0,0 c -2.928,-0.7262 -1.0601,-0.686 -4.68719,3.0944 1e-5,-0.1676 3e-5,-0.3353 3e-5,-0.5029 4e-5,-1.1637 5e-5,-2.3274 -5e-5,-3.4911 -1.9e-4,-1.723 -1.6e-4,-3.446 -0.002,-5.1691 -0.001,-0.5702 -0.004,-1.1405 -0.007,-1.7107 0.008,-0.8656 0.0341,-1.7327 0.17057,-2.5892 0.29355,-1.8197 0.72058,-3.6176 0.9461,-5.4492 0.38408,-2.9151 0.29397,-5.8876 0.92322,-8.7758 0.20208,-1.0359 0.36945,-2.0092 0.26228,-3.0861 -0.0279,-1.2054 -0.0818,-2.4129 -0.28363,-3.604 -0.33218,-2.0182 -0.89796,-3.9841 -1.24181,-5.9975 -0.29227,-1.5229 -0.99366,-2.9634 -1.03511,-4.5402 -0.40334,-2.3748 -0.96808,-4.7516 -0.88332,-7.1756 -9.2e-4,-2.9148 -0.006,-5.8299 0.0508,-8.7442 0.0752,-2.8702 0.19895,-5.7437 0.6219,-8.5876 0.29208,-1.8545 0.57164,-3.6501 0.20277,-5.5265 -0.23201,-1.6483 -0.80203,-3.2341 -0.85989,-4.8999 -0.0107,-1.2667 -0.0396,-2.535 -0.18568,-3.7946 -0.28637,-2.5039 -0.80807,-4.9677 -1.15753,-7.4623 -0.25985,-3.6495 -0.72514,-7.2756 -1.08054,-10.916 -0.15889,-4.0574 -0.43838,-8.1051 -0.88038,-12.1424 -0.27114,-4.4325 -0.0964,-8.8763 -0.0633,-13.3147 0.1037,-4.3175 0.26202,-8.6374 0.75704,-12.931 0.34438,-3.2369 0.37357,-6.4695 0.44662,-9.723 0.1541,-2.8094 0.42899,-5.6061 0.89813,-8.3823 0.35071,-2.3982 0.002,-4.8646 0.20208,-7.2787 0.0782,-2.6822 0.22257,-5.3617 0.29036,-8.044 -0.0363,-2.5805 -0.62014,-5.1575 -0.15469,-7.7526 0.2029,-2.3673 0.47961,-4.7297 0.9177,-7.0661 -0.0156,-1.1573 0.0161,-2.3353 -0.19415,-3.4772 -0.15426,-1.1219 -1.2395,-2.0247 -0.95149,-3.2727 -0.004,-1.0402 -0.008,-2.0804 -0.001,-3.1205 0.0174,-2.5721 0.0523,-5.1456 0.22139,-7.713 0.20538,-2.7387 0.57273,-5.4535 0.92739,-8.1759 6.2e-4,-2.9549 0.002,-5.9099 0.005,-8.8648 0.003,-2.586 0.0106,-5.1721 -0.003,-7.7581 -0.0192,-1.7269 -0.0312,-3.4604 -0.272,-5.1741 -0.28692,-2.0379 -0.93279,-4.0089 -1.05872,-6.0678 -0.20235,-1.8838 -0.60085,-3.71 -1.20908,-5.5077 -0.31265,-1.7064 -0.94633,-3.3488 -1.07269,-5.0857 -0.22595,-1.8027 -0.79972,-3.5354 -0.96191,-5.348 0.008,-1.8387 0.0233,-3.6774 0.0748,-5.5154 0.0588,-2.0078 0.15797,-4.0185 0.0751,-6.0269 -0.25089,-2.4887 -0.13743,-4.988 -0.0161,-7.4844 0.17439,-2.5413 0.46538,-5.0734 0.93707,-7.5781 0.9517,-4.7585 7.68126,-3.4126 6.72956,1.3459 z"
       inkscape:connector-curvature="0" />
    <path
       style="fill:#fee0d2;fill-opacity:1;fill-rule:nonzero;stroke:none"
       id="path3004"
       d="m 363.52658,1475.742 c -0.46359,2.4277 -0.67323,4.8918 -0.81764,7.3559 -0.19577,2.807 -0.13709,5.5923 0.17463,8.3846 0.29004,3.5918 0.77944,7.1522 1.25766,10.7219 0.61458,2.9993 1.04608,6.0242 1.84631,8.9801 0.7093,2.4379 0.97074,4.9582 1.10886,7.4827 -0.0818,1.9802 0.293,3.8969 0.69478,5.8232 0.4235,1.6555 0.46634,3.1011 0.20917,4.7828 -0.37141,0.7928 -0.61859,1.5841 -0.7438,2.4443 -0.0729,0.7388 -0.0962,1.4805 -0.10222,2.2224 -6.1e-4,1.0614 0.003,2.1229 0.005,3.1843 0.001,1.0385 0.002,2.077 0.002,3.1154 7e-5,0.141 8e-5,0.282 1.1e-4,0.423 5.8e-4,4.8528 -6.86225,4.8536 -6.86283,9e-4 l 0,0 c -3e-5,-0.1404 -4e-5,-0.2807 -1.1e-4,-0.4211 -4.2e-4,-1.036 -0.001,-2.0719 -0.002,-3.1079 -0.002,-1.0846 -0.006,-2.1691 -0.004,-3.2537 0.01,-1.0699 0.0487,-2.1407 0.18127,-3.2036 0.18665,-1.1824 0.44284,-2.3586 0.97382,-3.4411 -0.0691,2.4195 -0.11744,-0.9178 -0.37461,-1.3477 -0.46927,-2.2605 -0.88856,-4.534 -0.82882,-6.8539 -0.10687,-2.0444 -0.29853,-4.0869 -0.88116,-6.0601 -0.87536,-3.2461 -1.37517,-6.5626 -2.02324,-9.8599 -0.48391,-3.6216 -0.97912,-7.235 -1.27677,-10.8784 -0.34782,-3.1773 -0.42477,-6.351 -0.20417,-9.5432 0.16566,-2.7798 0.40957,-5.5591 0.93896,-8.2968 0.9517,-4.7585 7.68126,-3.4126 6.72955,1.3459 z"
       inkscape:connector-curvature="0" />
    <path
       style="fill:#fee0d2;fill-opacity:1;fill-rule:nonzero;stroke:none"
       id="path3006"
       d="m 579.9794,990.56652 c 0.75769,2.24009 1.718,4.42 2.90915,6.46444 0.85786,1.92034 2.26107,3.44244 3.60777,5.01654 0.84178,1.0343 1.64591,2.1009 2.72325,2.8982 1.1382,1.109 2.32371,2.1551 3.55058,3.1667 0.29118,0.3768 2.79428,2.0257 0.86434,0.8565 1.20869,0.4595 1.9482,1.3903 2.77213,2.3053 0.27292,0.3018 0.54783,0.6018 0.82424,0.9004 0.009,0.01 0.0171,0.019 0.0257,0.028 3.37108,3.4907 -1.56551,8.2581 -4.9366,4.7674 l 0,0 c -0.0402,-0.043 -0.0809,-0.085 -0.12035,-0.1278 -0.29998,-0.3242 -0.59844,-0.6497 -0.89456,-0.9774 -0.46244,-0.5142 -1.20307,-1.1372 0.1331,-0.3939 -1.13383,-0.5723 -2.10535,-1.187 -3.03471,-2.064 -1.21846,-1.0053 -2.40771,-2.0421 -3.52996,-3.1498 -1.33059,-1.1266 -2.56016,-2.3536 -3.60138,-3.7591 -1.60821,-1.8984 -3.2732,-3.7649 -4.33443,-6.0485 -1.53325,-2.69669 -2.84248,-5.54692 -3.68783,-8.53697 -0.95171,-4.75851 5.77785,-6.10443 6.72956,-1.34591 z"
       inkscape:connector-curvature="0" />
    <path
       style="fill:#fee0d2;fill-opacity:1;fill-rule:nonzero;stroke:none"
       id="path3008"
       d="m 618.34083,1041.2913 c 1.99695,2.3911 4.0156,4.76 6.11805,7.0595 2.34807,2.9871 5.08578,5.6174 7.63802,8.4239 2.75131,3.0186 5.57202,5.9645 8.22237,9.0732 2.37248,3.1028 5.13112,5.8629 7.71227,8.7836 2.45513,2.3928 4.17656,5.3964 6.49619,7.9055 1.68155,1.9399 3.38384,3.8611 5.14572,5.7285 1.86094,1.76 3.77043,3.441 5.53476,5.3087 1.74513,1.6602 3.41171,3.4352 5.21102,5.0374 0.95945,0.8843 1.87196,1.7691 2.79627,2.6779 0.47132,0.5961 1.11558,1.2062 1.86474,2.314 0.2268,0.3382 0.4343,0.6882 0.6099,1.0554 -2.16981,0.7067 -4.33963,1.4133 -6.50944,2.1199 -1.55422,-4.5971 4.94711,-6.7951 6.50133,-2.1979 l 0,0 c -2.07996,0.9724 -4.15992,1.9448 -6.23987,2.9172 0.15776,0.3238 0.0466,0.074 -0.0587,-0.068 -0.36926,-0.5565 -0.72614,-1.0667 -1.23563,-1.5131 1.10863,0.6092 -2.86038,-2.3895 -2.361,-2.2422 -1.89119,-1.7576 -3.72382,-3.5858 -5.56913,-5.39 -1.76431,-1.8704 -3.69641,-3.5229 -5.53713,-5.3112 -1.78908,-1.8979 -3.52335,-3.8454 -5.22909,-5.8185 -2.31187,-2.57 -4.14287,-5.5208 -6.56948,-7.9873 -2.59549,-2.957 -5.39202,-5.7356 -7.78591,-8.8687 -2.60176,-3.0536 -5.37881,-5.9403 -8.07712,-8.9082 -2.54696,-2.8022 -5.28381,-5.4271 -7.6259,-8.4106 -2.03175,-2.2238 -4.01468,-4.4906 -5.90504,-6.8366 -3.43141,-3.4314 1.42134,-8.2842 4.85276,-4.8528 z"
       inkscape:connector-curvature="0" />
    <path
       style="fill:#fee0d2;fill-opacity:1;fill-rule:nonzero;stroke:none"
       id="path3010"
       d="m 642.12561,438.40961 c 1.16486,1.85882 2.58309,3.53698 4.0313,5.17771 1.84193,1.87669 3.48595,3.91913 5.07493,6.00987 1.79065,2.12265 3.67575,4.16464 5.45976,6.29224 1.56224,1.95504 3.20997,3.8368 4.91608,5.66672 1.38392,1.67621 2.75454,3.3597 4.21374,4.97162 1.22507,1.38735 2.2457,2.94078 3.41419,4.37014 1.02059,1.03059 1.95706,2.12304 2.84422,3.27011 0.85687,1.09959 1.81219,2.11575 2.77478,3.12205 1.11881,1.15278 2.25751,2.28605 3.39385,3.4215 1.14538,1.1909 2.16863,2.50715 3.33426,3.67616 1.51065,1.30029 2.87049,2.72584 4.08727,4.30284 1.19837,1.68341 2.58759,3.21521 3.94596,4.76945 1.42579,1.47321 2.65076,3.11684 3.96202,4.68861 1.11461,1.50988 2.22946,3.01772 3.45882,4.43681 1.20806,1.26643 2.35395,2.56766 3.33586,4.01888 0.78522,1.06568 1.58012,2.12074 2.37701,3.17875 0.58633,0.75826 1.13765,1.53829 1.63893,2.35453 0.6139,1.07696 1.08977,2.17723 1.38581,3.3938 0.37458,0.89052 0.68861,1.80239 0.9118,2.74214 0.12985,1.02641 0.45406,1.99424 0.65099,3.01825 0.2695,1.65294 0.21259,3.32121 0.53467,4.96422 0.14071,1.22756 0.62902,2.356 0.97424,3.53153 0.52637,1.11466 0.86526,2.28645 1.0862,3.49586 0.0438,1.00596 0.39687,1.77793 0.62676,2.79089 0.29997,1.36144 0.33188,2.75885 0.36112,4.14659 0.0187,1.3449 0.0152,2.68998 0.0127,4.03497 -0.002,0.92509 -0.003,1.85018 -0.004,2.77526 -5.1e-4,1.20081 -4.3e-4,2.40163 -4.4e-4,3.60244 0,0.90975 2e-5,1.8195 3e-5,2.72925 10e-6,0.59501 10e-6,1.19002 10e-6,1.78503 0,1.28198 0,2.56395 0,3.84592 0,1.18268 0,2.36535 0,3.54802 -0.11032,0.8147 0.0504,1.43843 0.26859,2.18389 0.35283,1.07043 0.45719,2.18807 0.51092,3.30646 0.0381,1.25006 0.036,2.50094 0.0345,3.75145 -3.3e-4,0.36392 -0.004,0.72782 -0.004,1.09174 -8.6e-4,0.3278 -7.5e-4,0.65559 -7.8e-4,0.98339 -0.0667,0.30834 -0.20166,1.33892 -0.52097,1.67506 -0.16407,0.17272 0.18224,-0.44043 0.26181,-0.66497 0.0334,-0.0944 0.0424,0.19582 0.0572,0.29481 0.0585,1.28697 0.30569,2.53823 0.5202,3.80597 0.17591,1.86024 0.57779,3.68146 0.91345,5.51667 0.44607,1.49673 0.80777,3.01405 1.19714,4.52569 0.46365,1.97389 1.01146,3.92688 1.50603,5.89414 0.42667,2.17751 1.1408,4.2798 1.73629,6.41317 0.7284,1.92728 1.53108,3.83067 2.31244,5.73954 0.7473,2.1231 1.74579,4.13939 2.69356,6.17619 0.83362,1.28218 1.42382,2.74346 2.38865,3.93523 0.95585,1.24261 1.86368,2.52458 2.92895,3.67658 1.10886,1.29867 2.08113,2.70296 3.07089,4.09261 0.96998,1.35358 1.94347,2.71227 2.85549,4.10633 0.94886,1.54076 1.92153,3.06956 2.80045,4.6525 1.20066,1.89412 1.99084,3.99946 3.0493,5.9675 0.95991,1.84115 2.03729,3.61944 3.08941,5.40993 1.22308,1.99738 2.47389,3.98618 3.6111,6.03371 1.07026,2.00692 2.35055,3.89061 3.55444,5.81832 0.96869,1.98875 2.2754,3.75216 3.57849,5.52513 1.41656,1.91038 2.74414,3.88565 4.11798,5.82737 1.32222,1.85999 2.85862,3.54899 4.42252,5.20531 1.60732,1.88133 3.20424,3.76948 4.87593,5.59437 1.40222,1.57188 3.08985,2.84824 4.76199,4.11485 1.79852,1.4127 3.52874,2.89958 5.40454,4.21113 2.13642,1.45965 4.2595,2.93744 6.3651,4.44168 2.40487,1.6777 4.91744,3.19055 7.40682,4.73711 2.58682,1.58303 5.1417,3.21895 7.66705,4.89828 2.34827,1.47386 4.80925,2.75717 7.11663,4.29451 2.79973,1.89897 5.52701,3.90103 8.30343,5.83343 2.53118,1.64086 4.95785,3.42677 7.58703,4.91008 2.26651,1.55059 4.45839,3.191 6.72137,4.75033 1.85057,1.15735 3.28154,2.82743 5.00278,4.14364 1.46876,1.12995 3.00551,2.16635 4.53555,3.2114 1.80978,1.35909 3.69007,2.60911 5.65573,3.7312 1.95574,1.09936 3.98217,2.08352 6.04132,2.97759 2.50861,1.1779 5.11108,2.14662 7.6947,3.14625 3.18753,1.37747 6.45888,2.51974 9.73773,3.65408 3.77304,1.31848 7.62428,2.39939 11.45537,3.53408 3.30204,0.97967 6.65702,1.73523 10.03076,2.41869 3.52924,0.77485 7.03104,1.68003 10.52131,2.61491 2.77061,0.71648 5.50931,1.52411 8.33699,1.98885 1.69416,0.31008 3.28822,0.84679 4.84706,1.55964 0.38691,0.17277 0.7761,0.34075 1.17111,0.49417 0.0121,-0.004 0.85727,0.50871 1.14333,0.78987 0.0514,0.0505 0.20975,0.19708 0.15307,0.15261 -0.11269,-0.0884 -0.21446,-0.18995 -0.32169,-0.28493 0.47028,0.29277 0.85952,0.66973 1.22598,1.0784 0.0644,0.0718 0.26392,0.28006 0.18886,0.21941 -1.23233,-0.99572 -0.025,-0.11522 -0.45165,-0.42372 0.0333,-0.0314 -0.0882,-0.032 -0.1204,-0.0371 -0.006,-4.8e-4 -0.32503,-0.0275 -0.28418,-0.01 2.21891,0.96785 1.63988,0.25871 2.69311,2.09523 0.97647,3.28955 -3.67564,4.67049 -4.65212,1.38095 l 0,0 c 0.96541,1.476 0.0149,0.57749 2.12964,1.37358 0.11342,0.0427 -0.43109,-0.0301 -0.36342,-0.0108 -0.47887,-0.0557 -0.9466,-0.17671 -1.3912,-0.3655 -0.22163,-0.11098 -1.92685,-1.25739 -1.33007,-1.05792 -2.37883,-1.65735 0.41446,0.32473 -0.35077,-0.36698 -0.49439,-0.18965 -0.97996,-0.40156 -1.46357,-0.61698 -1.16644,-0.53679 -2.34195,-0.95001 -3.61729,-1.18284 -2.98202,-0.49866 -5.87892,-1.32067 -8.79944,-2.08895 -3.39333,-0.91063 -6.79884,-1.78896 -10.22953,-2.54628 -3.51247,-0.71359 -7.00599,-1.50171 -10.44421,-2.52165 -3.90091,-1.15575 -7.82205,-2.25756 -11.66371,-3.60094 -3.33386,-1.15349 -6.66053,-2.31556 -9.9022,-3.71433 -2.64519,-1.02351 -5.30835,-2.01861 -7.87813,-3.22157 -2.22216,-0.96695 -4.4082,-2.03383 -6.52118,-3.21858 -2.07141,-1.19282 -4.07109,-2.49528 -5.9802,-3.93472 -1.61153,-1.10281 -3.23114,-2.19574 -4.77795,-3.38837 -1.63034,-1.28489 -3.04112,-2.82231 -4.77548,-3.97703 -2.14452,-1.47856 -4.23727,-3.01316 -6.35722,-4.52244 -2.7571,-1.56415 -5.31974,-3.4161 -7.97003,-5.15103 -2.7541,-1.91819 -5.46107,-3.90306 -8.23792,-5.78861 -2.28557,-1.55399 -4.77841,-2.77667 -7.09729,-4.28157 -2.48281,-1.6526 -4.9966,-3.25963 -7.54033,-4.81679 -2.57756,-1.60206 -5.179,-3.16958 -7.6669,-4.91058 -2.09406,-1.49671 -4.20624,-2.96594 -6.33135,-4.41778 -1.91954,-1.35131 -3.71241,-2.85379 -5.54728,-4.31523 -1.90558,-1.44373 -3.81226,-2.91513 -5.41059,-4.70571 -1.65453,-1.80749 -3.24509,-3.66927 -4.82627,-5.54096 -1.71942,-1.82282 -3.403,-3.68614 -4.85509,-5.73367 -1.35645,-1.91826 -2.66756,-3.86941 -4.06671,-5.75625 -1.3742,-1.8707 -2.75743,-3.73443 -3.7843,-5.82864 -1.25053,-2.00375 -2.57957,-3.96237 -3.68994,-6.0493 -1.09586,-2.01762 -2.35828,-3.95055 -3.54446,-5.91644 -1.08328,-1.84796 -2.19477,-3.68214 -3.18527,-5.58112 -1.03588,-1.95271 -1.84132,-4.02084 -3.01369,-5.902 -0.82055,-1.48711 -1.73818,-2.91843 -2.62735,-4.36395 -0.85857,-1.34317 -1.8146,-2.63057 -2.73599,-3.93048 -0.87416,-1.22777 -1.73083,-2.46779 -2.69438,-3.62749 -1.15705,-1.26939 -2.17783,-2.64976 -3.21448,-4.01812 -1.11921,-1.51673 -1.9933,-3.19302 -2.92725,-4.82811 -0.97824,-2.10667 -2.01022,-4.19215 -2.78527,-6.38628 -0.85,-2.08363 -1.74292,-4.15443 -2.49527,-6.27388 -0.60319,-2.17429 -1.33339,-4.31577 -1.76829,-6.53416 -0.48982,-1.95938 -1.0356,-3.90372 -1.49954,-5.86859 -0.41437,-1.62325 -0.82314,-3.24549 -1.27051,-4.86041 -0.33766,-1.85568 -0.74455,-3.6987 -0.92441,-5.57903 -0.21838,-1.29375 -0.47676,-2.5804 -0.53423,-3.89387 -0.0733,-0.4882 -0.18502,-1.02254 -0.10103,-1.51544 0.42316,-2.48334 0.29589,-0.92281 0.24913,-0.51058 2e-5,-0.33197 -8e-5,-0.66393 7.9e-4,-0.9959 9.6e-4,-0.36156 0.004,-0.72311 0.004,-1.08467 0.001,-1.17429 0.003,-2.34888 -0.0294,-3.52281 -0.0317,-0.73317 -0.0772,-1.46648 -0.3207,-2.16632 -0.34105,-1.16586 -0.56456,-2.32543 -0.46393,-3.54688 0,-1.18267 0,-2.36534 0,-3.54802 0,-1.28197 0,-2.56394 0,-3.84591 0,-0.59499 0,-1.18998 -10e-6,-1.78497 -10e-6,-0.90978 -3e-5,-1.81956 -3e-5,-2.72934 0,-1.20184 -8e-5,-2.40368 4.4e-4,-3.60551 5.9e-4,-0.92701 0.002,-1.85402 0.004,-2.78103 0.002,-1.30856 0.006,-2.6172 -0.0117,-3.92567 -0.0217,-1.07062 -0.0278,-2.15171 -0.24878,-3.20418 -0.20907,-1.00401 -0.63022,-1.96081 -0.66765,-2.99814 -0.168,-1.0485 -0.57383,-2.0034 -0.9681,-2.98483 -0.37092,-1.31807 -0.92483,-2.58672 -1.07741,-3.96125 -0.31367,-1.65378 -0.35218,-3.31425 -0.53818,-4.98265 -0.17609,-0.96337 -0.49665,-1.8933 -0.61951,-2.8648 -0.15992,-0.92832 -0.67021,-1.7607 -0.8954,-2.67083 -0.16011,-0.6988 -0.37932,-1.40965 -0.80877,-1.99175 -0.41533,-0.68997 -0.87689,-1.33401 -1.37479,-1.96495 -0.84953,-1.13311 -1.7028,-2.26015 -2.53668,-3.40439 -0.84405,-1.30129 -1.9274,-2.39216 -2.96794,-3.53494 -1.24484,-1.44327 -2.39926,-2.95751 -3.51476,-4.50271 -1.28629,-1.54414 -2.48787,-3.15762 -3.88889,-4.60293 -1.42715,-1.63382 -2.88355,-3.24831 -4.14656,-5.01476 -1.0866,-1.43866 -2.36285,-2.67258 -3.71081,-3.86679 -1.12816,-1.17763 -2.17329,-2.43494 -3.28585,-3.6271 -1.16233,-1.16142 -2.32708,-2.32063 -3.47095,-3.5003 -1.07973,-1.12934 -2.1475,-2.27306 -3.10703,-3.50817 -0.87014,-1.12635 -1.8054,-2.17393 -2.79048,-3.20186 -1.08763,-1.37305 -2.09649,-2.80947 -3.22725,-4.15072 -1.44185,-1.59491 -2.81223,-3.24786 -4.16503,-4.91858 -1.76435,-1.89383 -3.4712,-3.83893 -5.08786,-5.86121 -1.82763,-2.18971 -3.77988,-4.27439 -5.60165,-6.47015 -1.51774,-1.99744 -3.08827,-3.94643 -4.85108,-5.73655 -1.64139,-1.86327 -3.2418,-3.77443 -4.55264,-5.89045 -1.76545,-2.94241 2.39575,-5.43913 4.1612,-2.49672 z"
       inkscape:connector-curvature="0" />
    <path
       style="fill:#fc9272;fill-opacity:1;stroke:none"
       id="path3005"
       d="m 810.31923,811.936 c -2.5471,1.56566 -5.25039,2.84807 -7.81213,4.38821 -1.67325,1.07808 -3.36622,2.15166 -4.82702,3.51499 -1.08678,1.00778 -2.14473,2.04456 -3.23557,3.04731 -1.13582,1.17267 -2.69197,1.77703 -3.928,2.80707 -1.02328,0.53986 -1.37243,1.24928 -1.95079,2.11962 -1.12348,1.63929 -2.63166,2.93615 -4.14078,4.20337 -1.21819,1.03109 -2.38838,2.12325 -3.42018,3.34255 -1.43448,1.93712 -3.14455,3.49211 -5.20809,4.72878 -1.40402,0.63719 -2.65016,1.48394 -3.90022,2.36615 -1.09557,1.11375 -2.20899,2.1968 -3.39814,3.21184 -1.20841,1.14555 -2.47616,2.26762 -3.60252,3.4972 -1.35282,1.5945 -2.78109,3.10175 -4.35278,4.48131 -1.73931,1.3993 -3.71611,2.44591 -5.62036,3.59809 -1.32071,0.86158 -2.50362,1.92404 -3.76952,2.86866 -0.98024,1.01533 -2.8231,1.51518 -3.70622,2.6029 -1.19764,1.10439 -2.42886,2.14525 -3.77218,3.07818 -1.61989,1.0531 -3.36375,1.88489 -5.06651,2.78901 -1.50307,0.94047 -2.94108,1.98049 -4.41812,2.96073 -1.71577,0.93454 -3.4082,1.91713 -5.16975,2.76173 -0.83745,0.42988 -1.43995,1.05505 -2.24993,1.69232 -1.6332,1.13281 -3.27576,2.24823 -4.9939,3.24873 -1.38533,0.96507 -2.83287,1.83838 -4.31547,2.64523 -1.34467,0.62418 -2.54416,1.40909 -3.73361,2.27939 -0.86712,0.80542 -1.68309,1.6702 -2.5337,2.49833 -1.34127,1.42145 -3.05441,2.32779 -4.68928,3.34907 -1.55578,0.89417 -3.10162,1.81719 -4.57737,2.83965 -1.36238,1.2445 -3.15393,1.94427 -4.5422,3.13688 -0.82562,0.73181 -1.9049,1.35036 -2.56278,2.25599 -1.17387,1.16828 -2.52767,2.13074 -3.86468,3.10026 -0.95372,0.94213 -2.40251,1.44127 -3.26496,2.47605 -1.50379,1.36978 -3.29758,2.35198 -5.10023,3.26598 -0.76292,0.55701 -1.72747,0.90327 -2.31233,1.67614 -0.94675,1.03344 -1.76621,2.16887 -2.68108,3.23144 -1.34603,1.41525 -2.90217,2.61699 -4.53624,3.67942 -1.23598,0.80451 -2.47962,1.61698 -3.57569,2.60765 -1.37418,1.28781 -2.77792,2.53666 -4.30934,3.63535 -1.11048,0.69315 -1.9822,1.60053 -2.93573,2.47668 -0.86452,0.83651 -1.43213,1.89874 -2.10292,2.8849 -1.248,1.68005 -2.7817,3.13331 -4.33853,4.52433 -1.25973,1.01276 -2.29429,2.27497 -3.39367,3.45462 -1.46094,1.67828 -3.29858,2.94992 -5.122,4.19758 -0.68282,0.67603 -1.55592,1.13982 -2.04657,1.99337 -1.13542,1.51362 -2.24694,3.0194 -3.5589,4.38892 -1.19929,1.40032 -2.73889,2.43047 -4.12808,3.61722 -1.03548,1.0896 -2.09271,2.17216 -3.17127,3.2298 -1.32697,1.49438 -3.30252,2.22151 -4.71895,3.58604 -1.26235,0.88256 -2.20951,2.07173 -3.22283,3.21214 -1.6221,1.8635 -3.31576,3.63187 -5.28656,5.12543 -0.9359,0.75931 -2.00519,1.3456 -2.83397,2.22335 -1.17946,1.12047 -2.34304,2.24576 -3.57917,3.30875 -1.19197,1.38206 -3.03517,1.97714 -4.36256,3.16881 -0.80237,0.50776 -1.45272,1.1862 -2.1339,1.82628 -1.12881,1.18355 -2.37345,2.20686 -3.72768,3.12985 -1.3409,0.90221 -2.55377,1.9555 -3.80401,2.97283 -1.10622,0.93233 -2.14624,1.92754 -3.22945,2.88642 -0.82229,1.06738 -1.88207,1.92007 -2.76684,2.929 -1.114,1.05378 -2.29301,2.00859 -3.29378,3.17134 -0.99239,1.25587 -2.02933,2.48095 -3.01118,3.74608 -1.10105,1.17717 -1.99617,2.46986 -3.1329,3.61691 -0.71572,0.8182 -1.50588,1.80488 -2.36273,2.66157 -0.39254,0.6683 -2.40004,1.4664 -2.55814,2.2374 -0.89182,1.1314 -1.90522,2.1519 -2.81924,3.2639 -0.708,0.9298 -1.32172,1.8998 -1.90612,2.9115 -0.7494,1.3123 -1.88992,2.3216 -2.81398,3.4914 -0.5849,0.7342 -1.39579,1.194 -2.10837,1.7823 -5.89308,4.5328 -12.30351,-3.8012 -6.41043,-8.3341 l 0,0 c 0.74929,-0.5641 0.9191,-0.8585 0.59419,-0.3584 0.60829,-0.6806 1.19334,-1.263 1.69682,-1.9475 0.8771,-1.4589 1.78941,-2.8881 2.83557,-4.23406 0.8739,-1.05737 1.83656,-2.0244 2.68621,-3.09924 1.01161,-1.20614 2.14198,-2.33884 3.42642,-3.20517 0.93561,-0.88767 1.6054,-2.02373 2.58752,-2.87644 -0.0199,0.0463 -0.10171,0.16696 -0.0598,0.13889 0.88452,-0.59322 1.15241,-2.041 2.11816,-2.59642 1.10076,-1.36634 2.19475,-2.73766 3.30398,-4.098 1.08394,-1.23825 2.23876,-2.39801 3.5248,-3.42833 1.16096,-1.22447 2.36067,-2.40731 3.50476,-3.64902 1.20594,-1.06511 2.37874,-2.16175 3.6052,-3.20336 1.48412,-1.16763 2.89636,-2.42613 4.47683,-3.47116 0.74618,-0.50718 1.45552,-0.99154 2.0427,-1.70231 1.0641,-1.06501 2.17774,-2.09414 3.41158,-2.96212 1.27439,-0.92443 2.67293,-1.66819 3.831,-2.74091 1.03404,-0.88921 2.02555,-1.80157 2.99125,-2.76282 1.25703,-1.2354 2.66283,-2.26964 4.08981,-3.29813 1.44716,-0.90465 2.40201,-2.43735 3.61435,-3.60847 1.33366,-1.50086 2.64032,-3.03964 4.26909,-4.23616 1.34431,-1.10371 2.81,-2.00859 4.17115,-3.08558 1.29006,-1.26481 2.51974,-2.58866 3.83279,-3.82564 1.15352,-0.9392 2.38682,-1.79939 3.37154,-2.92702 1.03406,-0.89983 1.62397,-2.20217 2.54461,-3.20477 1.31374,-1.70923 2.83915,-3.16721 4.57967,-4.44176 1.18877,-0.81341 2.42788,-1.5805 3.36807,-2.68909 1.3477,-1.44574 2.63608,-2.96754 4.17818,-4.21325 0.94946,-0.76813 1.79779,-1.68502 2.60835,-2.59279 1.17347,-1.60792 2.13394,-3.38942 3.69149,-4.6908 1.30612,-1.13444 2.52678,-2.35917 3.98612,-3.31039 1.25802,-0.77616 2.22742,-1.96002 3.36144,-2.89302 1.53886,-1.33588 3.19844,-2.52656 4.92221,-3.61362 0.83805,-0.46525 1.55856,-1.13749 2.27018,-1.75757 1.17049,-1.17585 1.96614,-2.70917 3.23241,-3.80739 1.49501,-1.38651 3.11887,-2.59098 4.9345,-3.53212 0.94394,-0.4549 1.90066,-0.94876 2.70346,-1.62192 1.32888,-1.16032 2.76589,-2.17376 4.18193,-3.22308 0.81445,-0.59045 1.63572,-1.16541 2.39925,-1.81451 1.18824,-1.20956 2.43903,-2.36896 3.80597,-3.37609 1.62982,-1.20644 3.39847,-2.20466 4.99303,-3.46367 1.62075,-1.10255 3.28898,-2.14156 4.99282,-3.11016 1.04348,-0.64045 2.13602,-1.12675 2.98296,-2.03522 1.24286,-1.06068 2.23604,-2.41863 3.58375,-3.37164 1.57706,-1.14201 3.20308,-2.18752 4.95365,-3.04471 1.40887,-0.73032 2.71288,-1.63915 4.04613,-2.49585 1.29204,-0.721 2.47751,-1.60267 3.72593,-2.39275 1.37888,-1.08485 2.71154,-2.23315 4.32575,-2.96654 1.32329,-0.55051 2.50201,-1.42418 3.8139,-2.00631 1.76942,-1.15008 3.45348,-2.43686 5.29331,-3.47803 1.33267,-0.69982 2.68606,-1.35976 3.9805,-2.12925 1.03618,-0.7175 1.96931,-1.52483 2.88873,-2.39312 1.38495,-1.1399 2.88433,-2.10709 4.35916,-3.12344 1.54645,-1.09712 2.91101,-2.45592 4.56766,-3.40041 1.38712,-0.83002 2.79138,-1.61757 4.13088,-2.51244 1.34644,-1.16564 2.50062,-2.50422 3.67887,-3.83833 1.41755,-1.44932 2.87822,-2.86706 4.37839,-4.22803 1.4399,-1.21875 2.66179,-2.6632 4.16833,-3.80772 1.5529,-1.08216 3.10873,-2.13871 4.82839,-2.94812 0.90563,-0.0845 1.74525,-1.94581 2.42018,-2.47829 1.41743,-1.58798 2.91235,-3.10607 4.56047,-4.45807 0.75842,-0.63685 1.57045,-1.24104 2.16946,-2.00723 1.1783,-1.72923 2.38772,-3.41253 4.20182,-4.54258 1.09835,-0.84042 2.29844,-1.51089 3.38499,-2.35161 1.15431,-0.95702 2.14601,-2.11361 3.28464,-3.0911 2.00106,-1.73741 4.13431,-3.30069 6.40518,-4.67105 2.42102,-1.44235 4.93424,-2.71021 7.37724,-4.11341 6.18607,-4.12405 12.01836,4.62438 5.83229,8.74842 z"
       inkscape:connector-curvature="0" />
    <path
       style="fill:#fc9272;fill-opacity:1;stroke:none"
       id="path3007"
       d="m 567.54832,1013.6864 c -1.8586,0.71 -3.77082,1.4217 -5.17301,2.8803 -1.53183,1.6322 -2.7971,3.4851 -4.1836,5.2381 -1.80753,2.3912 -3.86052,4.5951 -5.97462,6.7169 -2.28553,2.1384 -4.90565,3.8653 -7.30939,5.8629 -2.04837,1.8485 -4.11954,3.6661 -6.2212,5.4542 -2.16547,1.6206 -4.00728,3.6113 -6.00313,5.4251 -1.93251,1.5033 -3.55152,3.2981 -5.08256,5.1932 -1.74424,2.4918 -3.61442,4.876 -5.71711,7.0739 -2.09145,2.4547 -4.58722,4.4634 -7.09589,6.4645 -2.0621,1.5907 -3.94972,3.3667 -5.70074,5.2893 -2.40304,2.5004 -5.07289,4.7157 -7.78749,6.8655 -2.5337,2.0296 -5.12058,3.9925 -7.71803,5.9397 -1.94291,1.3242 -3.49057,3.0807 -5.07106,4.7973 -1.98763,1.9323 -4.02294,3.8236 -6.13842,5.6157 -2.07435,1.9873 -4.31249,3.7828 -6.65604,5.4397 -2.08851,1.718 -4.15879,3.4592 -6.18528,5.2506 -2.36481,2.0154 -4.70157,4.0674 -7.00327,6.1558 -2.18038,1.9777 -4.44123,3.8553 -6.52609,5.9366 -2.43663,2.42 -5.04547,4.6463 -7.64779,6.8825 -2.39448,1.9069 -4.54389,4.0833 -6.81261,6.1304 -2.17526,1.7683 -4.53083,3.2824 -6.63014,5.1448 -2.54985,2.1571 -5.06401,4.342 -7.46356,6.6659 -2.2207,2.4005 -4.7924,4.4138 -7.21442,6.5968 -2.34009,2.148 -4.4529,4.5145 -6.80485,6.6509 -1.91835,1.8707 -3.89648,3.696 -5.66721,5.7099 -1.77555,2.3641 -4.22946,4.0122 -6.45938,5.8968 -2.20364,1.8102 -4.2761,3.7746 -6.41468,5.663 -1.68755,1.3762 -3.16309,2.9437 -4.57501,4.5913 -1.53073,1.6487 -2.99729,3.306 -4.76151,4.7115 -1.59904,0.9162 -3.09098,1.8555 -4.41004,3.1359 -1.41814,1.3532 -2.85956,2.6855 -4.33165,3.9811 -1.38775,1.1878 -2.73746,2.4161 -4.12504,3.6032 -1.11415,1.1558 -2.47577,2.0307 -3.68389,3.0744 -1.01034,1.0639 -2.60121,1.5316 -3.57981,2.6119 -0.84,0.6399 -1.55899,1.3852 -2.48699,1.9254 -1.31652,0.6509 -0.85596,0.3731 -1.437,0.734 -0.46078,0.2563 -1.31533,0.6184 -1.73872,0.8054 -6.61138,3.4007 -11.42072,-5.9492 -4.80933,-9.3499 l 0,0 c 0.55422,-0.2671 1.03851,-0.4924 1.58505,-0.7247 0.97977,-0.5068 0.95916,-0.3301 2.16159,-1.4723 1.16565,-0.9302 2.403,-1.7506 3.60412,-2.6321 1.21774,-0.9888 2.49605,-1.9088 3.61422,-3.0162 1.35682,-1.1022 2.60804,-2.337 3.95322,-3.4553 1.36101,-1.1952 2.69822,-2.4191 4,-3.6768 1.5944,-1.5153 3.2914,-2.9153 5.28291,-3.8851 1.26098,-0.8496 2.03796,-2.224 3.18059,-3.2139 1.72849,-2.0152 3.55164,-3.929 5.59793,-5.6293 2.19914,-1.9419 4.33418,-3.9576 6.5985,-5.8215 1.85497,-1.5596 3.91402,-2.8862 5.38388,-4.8505 2.04857,-2.2799 4.25542,-4.413 6.47635,-6.524 2.37193,-2.118 4.42913,-4.5517 6.81317,-6.6585 2.33144,-2.0955 4.80478,-4.0264 6.93668,-6.3375 2.53043,-2.4465 5.17172,-4.7596 7.8601,-7.0305 2.08605,-1.802 4.30535,-3.4163 6.5229,-5.0498 2.33766,-2.0815 4.52584,-4.3306 6.98274,-6.2798 2.41386,-2.0736 4.83915,-4.131 7.09892,-6.3759 2.20805,-2.1759 4.55356,-4.1914 6.86307,-6.2561 2.33626,-2.1183 4.70817,-4.1998 7.10557,-6.2475 2.31808,-2.0469 4.67665,-4.0516 7.09982,-5.9724 2.10611,-1.4691 4.06866,-3.118 5.93365,-4.8835 1.78831,-1.49 3.46663,-3.1117 5.17357,-4.6931 2.0151,-2.1877 4.04276,-4.3787 6.49872,-6.0876 2.52306,-1.8913 5.03678,-3.7967 7.49698,-5.7693 2.27406,-1.8008 4.52259,-3.6383 6.5531,-5.7154 2.12862,-2.3234 4.41158,-4.4849 6.90625,-6.4165 2.16207,-1.7246 4.32622,-3.4221 6.10478,-5.565 1.92192,-1.9374 3.47275,-4.181 5.09221,-6.3689 1.87613,-2.314 3.86971,-4.5176 6.20757,-6.3808 2.08603,-1.8678 3.97627,-3.9613 6.23746,-5.6306 2.13777,-1.8186 4.23771,-3.6739 6.32951,-5.545 2.15534,-1.7788 4.45064,-3.3764 6.57299,-5.1921 1.83474,-1.8338 3.61781,-3.7384 5.17357,-5.8166 1.72037,-2.1685 3.27565,-4.4792 5.27123,-6.4147 2.40932,-2.1506 5.10953,-3.8035 8.18585,-4.8398 6.8336,-2.9287 10.97539,6.7354 4.14179,9.6641 z"
       inkscape:connector-curvature="0" />
    <path
       style="fill:#fc9272;fill-opacity:1;stroke:none"
       id="path3012"
       d="m 744.39987,1165.9569 c 1.22342,-2.8356 3.15217,-5.2569 5.15866,-7.5708 1.77561,-1.8432 3.39349,-3.8253 5.08702,-5.7422 2.23411,-2.2989 4.18918,-4.8354 6.31456,-7.2304 2.41384,-2.4187 5.0919,-4.5612 7.6904,-6.7797 2.323,-2.3208 4.84775,-4.4185 7.33843,-6.5529 2.79949,-2.3014 5.69156,-4.4785 8.7173,-6.4738 3.5685,-2.2724 7.21591,-4.3929 10.95986,-6.362 3.06644,-1.5367 6.06969,-3.1957 8.9811,-5.0089 1.26196,-0.7665 2.49,-1.5865 3.73077,-2.3864 6.24891,-4.0282 11.94566,4.8091 5.69676,8.8373 l 0,0 c -1.29042,0.8317 -2.56813,1.6836 -3.88031,2.481 -3.12948,1.9391 -6.34314,3.7373 -9.63655,5.3841 -3.44159,1.8076 -6.79378,3.7522 -10.07393,5.8394 -2.66062,1.7443 -5.18971,3.663 -7.65399,5.6738 -2.49616,2.1383 -5.01428,4.2499 -7.35237,6.5647 -2.23315,1.9066 -4.51509,3.7648 -6.65845,5.7681 -2.12318,2.3848 -4.06607,4.9216 -6.29734,7.211 -1.67709,1.8943 -3.27364,3.8592 -5.03248,5.6801 -1.29579,1.4814 -2.60551,3.0015 -3.42527,4.8094 -2.92869,6.8336 -12.59286,2.6918 -9.66417,-4.1418 z"
       inkscape:connector-curvature="0" />
    <path
       style="fill:#fc9272;fill-opacity:1;stroke:none"
       id="path3014"
       d="m 747.97991,1175.8445 c 3.43322,-1.6944 7.10354,-1.9556 10.84778,-1.5658 3.78995,0.5972 7.16592,2.3708 10.43725,4.2763 2.87522,1.672 5.44176,3.7284 7.62361,6.2318 1.32016,1.6095 2.38839,3.3909 3.77663,4.9432 1.6914,1.9363 3.23675,3.97 4.65081,6.1155 1.247,2.1122 2.32893,4.3129 3.67224,6.368 1.61598,2.2798 3.08495,4.6289 4.45424,7.0643 1.27428,2.4227 2.46982,4.8468 4.09195,7.0575 2.0113,2.6342 4.30444,5.0341 6.60804,7.4106 1.96406,2.0377 4.0329,3.9718 5.93934,6.0638 1.4043,1.8102 2.64908,3.7041 4.28402,5.3145 1.52514,1.5673 3.30346,2.8408 4.97736,4.2382 2.40815,2.0931 4.75802,4.2423 7.01804,6.4948 1.91954,1.9773 3.72317,4.064 5.79021,5.8936 1.68668,1.6736 3.74543,2.8195 5.75215,4.0515 2.81515,1.6062 5.26676,3.7561 7.51066,6.0751 1.60332,1.9436 3.34159,3.7324 5.19169,5.4374 1.65619,1.4166 3.09403,3.0893 4.88413,4.342 2.27744,1.534 4.20552,3.5108 6.1341,5.4485 1.64899,1.6752 3.29688,3.3515 4.95163,5.021 1.6714,1.3588 3.2847,2.7591 4.75117,4.3392 0.80645,1.1317 1.94791,1.74 3.11227,2.421 2.00222,0.8059 3.40022,2.3945 4.90317,3.8544 1.23921,1.1613 2.01922,2.6927 3.19238,3.9013 1.12367,1.0274 2.31411,1.9908 3.49323,2.9606 1.55022,0.9934 2.78623,2.4034 3.91859,3.836 0.5414,0.4085 0.8914,1.1902 1.56657,1.3879 1.91734,1.0602 3.40202,2.6284 4.67073,4.3823 0.88763,1.1404 1.6572,2.3659 2.45605,3.568 0.36383,0.6418 2.15444,3.1942 1.55426,2.2696 0.97236,0.8698 2.08724,1.5705 3.12959,2.3585 1.30628,0.7756 2.24616,2.0095 3.40755,2.949 0.71396,0.8426 1.63238,1.4363 2.50075,2.081 -2.16831,-1.4123 2.13928,0.9817 2.37302,1.1469 6.06732,4.2968 -0.009,12.8773 -6.07667,8.5804 l 0,0 c -0.11205,-0.079 -0.4702,-0.269 -0.33615,-0.2387 0.28323,0.064 0.52976,0.2386 0.80045,0.3437 0.0214,0.01 0.0904,7e-4 0.0686,-0.01 -2.00159,-0.6482 -0.69995,-0.086 -2.59427,-1.033 -1.33631,-0.9191 -2.66895,-1.8814 -3.78194,-3.0699 -0.91342,-0.8487 -1.74514,-1.7709 -2.80585,-2.4452 -1.13495,-0.9517 -2.48583,-1.6474 -3.5453,-2.6984 -1.38875,-1.3255 -2.48954,-2.8116 -3.47588,-4.4557 -0.75037,-1.1591 -1.50684,-2.3157 -2.35009,-3.4101 -0.19202,-0.6367 -0.78822,-0.8435 -1.02382,-1.0884 -1.86019,-1.089 -3.44168,-2.4425 -4.8009,-4.1201 -0.70613,-0.9038 -1.30822,-1.6209 -2.33497,-2.2175 -1.52838,-1.2576 -3.07428,-2.5069 -4.48693,-3.8923 -1.06956,-1.1605 -1.95185,-2.4373 -2.94941,-3.6505 -0.92954,-0.9412 -1.46892,-1.7366 -2.78141,-2.2177 -2.04559,-1.1968 -4.03986,-2.4957 -5.53745,-4.3736 -1.3645,-1.4995 -2.99663,-2.688 -4.48509,-4.0607 -1.65003,-1.6648 -3.29344,-3.3361 -4.93749,-5.0068 -1.53557,-1.544 -3.04582,-3.1545 -4.86925,-4.3644 -2.08244,-1.546 -3.92183,-3.3535 -5.82358,-5.1127 -2.01364,-1.8584 -3.93448,-3.7947 -5.67614,-5.9142 -1.57586,-1.7002 -3.38342,-3.2171 -5.40014,-4.3678 -2.54282,-1.562 -5.11467,-3.0915 -7.27132,-5.1849 -2.18338,-1.9764 -4.17915,-4.1308 -6.1934,-6.2749 -2.04308,-2.0388 -4.16733,-3.9816 -6.34304,-5.8779 -1.9017,-1.5979 -3.92735,-3.0523 -5.65097,-4.8538 -1.74685,-1.7553 -3.27876,-3.6636 -4.66575,-5.7156 -1.79784,-2.0215 -3.83713,-3.8171 -5.68547,-5.7923 -2.65298,-2.7389 -5.28332,-5.5146 -7.57784,-8.5672 -1.82764,-2.5541 -3.32461,-5.2637 -4.73636,-8.0649 -1.26249,-2.2458 -2.61574,-4.4021 -4.11421,-6.5015 -1.31344,-2.0414 -2.47334,-4.1666 -3.62804,-6.3003 -1.13977,-1.7319 -2.37812,-3.3724 -3.7465,-4.9339 -1.42646,-1.6249 -2.64108,-3.3904 -3.93084,-5.1215 -1.3039,-1.6682 -3.12415,-2.8128 -4.89218,-3.9372 -2.02906,-1.1867 -4.08232,-2.401 -6.40268,-2.9194 -1.68523,-0.2721 -3.30792,-0.1983 -4.88078,0.5321 -6.64983,3.3249 -11.35197,-6.0794 -4.70214,-9.4043 z"
       inkscape:connector-curvature="0" />
    <path
       style="fill:#fc9272;fill-opacity:1;stroke:none"
       id="path3016"
       d="m 245.54477,1388.1609 c -0.94496,-3.5228 -0.51944,-6.5738 2.20672,-9.2434 0.53389,-0.5229 1.25017,-0.8189 1.87526,-1.2284 3.05159,-1.4724 6.42445,-1.2539 9.6823,-0.8094 2.51368,0.3733 4.89458,1.2811 7.19276,2.3327 1.69208,0.8072 3.37292,1.6252 5.08207,2.394 1.47021,0.8491 3.04126,1.4188 4.71948,1.6489 2.52527,0.3927 4.94469,1.1315 7.25002,2.2232 1.53357,0.8977 3.12682,1.584 4.79308,2.1859 2.03168,0.8206 4.1014,1.5426 6.16702,2.274 2.09713,0.783 4.20582,1.5339 6.29956,2.3248 1.60028,0.76 3.27204,1.205 4.96554,1.681 2.16722,0.7355 4.35347,1.4031 6.47756,2.2582 1.56261,0.5868 3.14948,1.146 4.78446,1.5003 1.71095,0.5993 3.46992,0.8437 5.26695,0.9775 2.51156,0.031 4.99594,0.3999 7.49042,0.6503 1.92542,0.1872 3.85917,0.2492 5.79242,0.2774 1.67126,-0.2588 3.3474,-0.4769 5.03165,-0.6297 1.51232,-0.1335 3.02393,-0.064 4.51567,-0.3296 0.84008,-0.3986 4.13567,-0.2822 4.66037,-0.6063 1.2201,-0.1988 2.14439,-0.539 3.28088,-0.8978 -0.29273,-0.019 -0.12537,0.01 0.4389,-0.256 6.73652,-3.1455 11.18501,6.3813 4.44849,9.5269 l 0,0 c -0.95986,0.4481 -0.37426,0.1836 -1.76736,0.7698 -1.47189,0.4437 -2.92629,0.9247 -4.44665,1.1881 -1.60902,0.2584 -3.23704,0.3265 -4.83945,0.6387 -1.7785,0.2974 -3.55708,0.3655 -5.35531,0.4388 -2.04764,0.1791 -4.06914,0.5714 -6.12406,0.6703 -2.23403,-0.034 -4.46845,-0.1105 -6.69316,-0.3296 -2.41645,-0.2458 -4.82047,-0.6038 -7.25406,-0.6291 -2.29183,-0.1859 -4.58184,-0.4618 -6.77058,-1.2056 -2.19712,-0.5106 -4.34911,-1.2084 -6.45019,-2.0268 -1.74678,-0.7417 -3.58753,-1.2151 -5.36551,-1.8733 -1.97965,-0.5743 -3.95142,-1.1219 -5.83698,-1.9707 -2.00839,-0.7791 -4.05072,-1.4715 -6.06433,-2.2381 -2.09537,-0.7443 -4.19581,-1.4786 -6.25901,-2.3072 -2.01143,-0.7401 -3.97544,-1.5687 -5.83837,-2.6331 -1.30641,-0.7274 -2.80499,-0.9714 -4.25294,-1.269 -2.57472,-0.4369 -5.09708,-1.1454 -7.38388,-2.4461 -1.75027,-0.7902 -3.47465,-1.6251 -5.20747,-2.4515 -1.36598,-0.6614 -2.80605,-1.2139 -4.30733,-1.4632 -0.73167,-0.134 -2.44726,-0.046 -2.94991,-0.2417 -0.0509,-0.02 0.0566,-0.093 0.0848,-0.1401 -0.0508,-0.01 -0.10168,-0.01 -0.15253,-0.015 0.43479,-0.5813 0.50972,-0.6426 0.88646,-1.6052 0.20124,-0.5142 -0.0987,-0.7408 -0.11454,-0.6716 -0.0173,0.075 0.0103,0.1547 0.0155,0.232 2.35107,7.0532 -7.62367,10.3781 -9.97474,3.3249 z"
       inkscape:connector-curvature="0" />
    <path
       style="fill:#fc9272;fill-opacity:1;stroke:none"
       id="path3018"
       d="m 250.79188,1390.7624 c -2.12357,0.2443 -4.14456,1.0761 -6.05065,2.0167 -1.93575,1.3004 -3.7176,2.7977 -5.44397,4.3601 -1.38304,1.5993 -2.58056,3.3537 -3.90868,5.0028 -1.71551,2.1112 -3.82888,3.8481 -5.83605,5.6699 -1.81892,1.4214 -3.56489,2.9347 -5.38138,4.358 -1.13118,0.9711 -2.2156,1.976 -3.24132,3.0575 -0.28279,0.3901 -0.18744,0.2048 -0.32422,0.5346 -3.93107,6.3104 -12.85541,0.751 -8.92434,-5.5594 l 0,0 c 1.03499,-1.5728 0.489,-0.8368 1.62573,-2.2169 1.3922,-1.4635 2.87235,-2.8285 4.42137,-4.1249 1.61923,-1.2337 3.11943,-2.623 4.75807,-3.8348 1.60596,-1.4573 3.31157,-2.8353 4.72073,-4.4881 1.677,-2.0716 3.11928,-4.3425 5.04324,-6.202 2.46708,-2.2238 5.02569,-4.3708 7.92002,-6.0256 2.8948,-1.3778 5.92896,-2.5684 9.13451,-2.9565 7.36001,-1.0515 8.84695,9.3572 1.48694,10.4086 z"
       inkscape:connector-curvature="0" />
    <path
       style="fill:#fc9272;fill-opacity:1;stroke:none"
       id="path3020"
       d="m 40.743245,1376.9326 c -1.477139,-0.713 -3.059792,-1.1246 -4.672373,-1.3804 -2.036808,-0.4245 -4.014088,-1.0187 -5.912679,-1.866 -1.663724,-0.618 -2.868875,-1.961 -4.323144,-2.9037 -0.80851,-0.4678 -1.703777,-1.5984 -2.664504,-1.7735 -1.511587,-0.646 -2.899121,-1.4932 -4.25637,-2.413 -1.211308,-0.6107 -2.336013,-1.3943 -3.538014,-2.0315 -1.497748,-0.9227 -3.030426,-1.7694 -4.574689,-2.6102 -1.7560959,-0.8292 -2.9895915,-2.3219 -4.4232217,-3.5559 -0.8669306,-0.6713 -1.4689025,-1.8151 -2.4726107,-2.3074 -0.98814,-0.8084 -2.0403325,-1.5373 -3.17498397,-2.1245 -1.61985689,-0.905 -3.29854893,-1.6893 -4.89696073,-2.6336 -6.3746309,-3.8261 -0.9636531,-12.8412 5.4109777,-9.015 l 0,0 c 1.4472928,0.8955 3.0347712,1.5357 4.4978259,2.4056 1.4730173,0.815 2.9247459,1.691 4.2198941,2.7729 1.2833544,0.9473 2.4626044,2.0064 3.5471584,3.1757 0.762717,0.7205 1.43513,1.5449 2.343801,2.0611 1.527275,0.8404 3.058603,1.6682 4.538778,2.5906 1.502398,0.826 2.94819,1.744 4.442878,2.5834 0.89979,0.6155 1.799778,1.2014 2.863647,1.6125 1.461779,0.7402 2.894756,1.5985 4.159424,2.6446 1.071364,0.7678 1.795034,1.5356 2.875819,2.0554 0.97338,0.3917 2.02323,0.7091 3.073608,0.9626 2.637742,0.4556 5.228205,1.152 7.637877,2.346 6.649827,3.3249 1.947689,12.7292 -4.702138,9.4043 z"
       inkscape:connector-curvature="0" />
    <path
       style="fill:#fee0d2;fill-opacity:1;stroke:none"
       id="path6256"
       d="m 676.48531,1107.6994 c -0.624,-1.0342 -2.74172,-2.2423 1.06538,0.3106 3.89757,3.3619 -0.85677,8.8738 -4.75433,5.512 l 0,0 c 1.82921,0.2733 -2.08105,-0.6253 -2.48374,-1.9647 -2.72797,-4.3648 3.44472,-8.2227 6.17269,-3.8579 z"
       inkscape:connector-curvature="0" />
    <path
       style="fill:#fee0d2;fill-opacity:1;stroke:none"
       id="path6258"
       d="m 675.74601,1102.1557 c 0.2203,1.7321 0.58682,3.4545 1.09738,5.1252 0.35596,1.515 1.17414,2.8263 1.98474,4.1288 0.70411,1.2203 1.39346,2.4441 2.07912,3.6747 0.33237,0.2801 -0.29428,-0.2339 -0.11711,-0.2222 0.1546,0.01 0.2238,0.2149 0.34437,0.3123 0.0487,0.039 -0.0733,-0.1069 -0.12794,-0.1376 -0.88643,-0.4973 -0.6924,-0.4091 -1.48282,-0.5427 -1.06384,0.17 -1.28662,0.3219 -0.80696,0.055 4.57353,-2.3613 7.91289,4.1066 3.33936,6.4679 l 0,0 c -1.09875,0.5532 -0.37369,0.2364 -2.25187,0.7508 -2.65604,-0.1435 -3.8244,-1.0549 -5.26487,-3.1569 -0.619,-1.1277 -1.24419,-2.2445 -1.89144,-3.3554 -1.15591,-1.8576 -2.24271,-3.7744 -2.7862,-5.9149 -0.67642,-2.3452 -1.24264,-4.7419 -1.39489,-7.185 0,-5.1471 7.27913,-5.1471 7.27913,0 z"
       inkscape:connector-curvature="0" />
    <path
       style="fill:#fee0d2;fill-opacity:1;stroke:none"
       id="path6260"
       d="m 363.55216,1465.3035 c 0.11103,2.215 -0.24805,4.4034 -0.51373,6.5939 -0.19311,1.3437 -0.16185,2.7081 -0.33852,4.0524 -2.13277,-0.9859 -4.22075,-2.0751 -6.39833,-2.9576 -0.10761,-0.044 -0.12291,0.1996 -0.20531,0.2814 -0.0867,0.086 0.008,-0.2445 0.0219,-0.366 0.004,-0.04 0.0946,-0.9376 0.0975,-0.9665 0.0995,-0.3928 0.13714,-0.8068 0.29846,-1.1786 0.21007,-0.4841 0.52844,-0.9138 0.80462,-1.3635 0.0309,-0.05 0.0617,-0.1592 0.11524,-0.1343 6.47273,3.0077 6.55699,0.7978 6.28309,3.5563 -0.5104,5.1218 -7.75365,4.4 -7.24326,-0.7218 l 0,0 c 0.34374,-3.4386 6.90354,5.2325 6.98405,0.5742 -0.0505,0.4965 -0.58462,4.5589 -1.16452,4.4522 -2.35596,-0.4334 -4.50946,-1.6181 -6.76419,-2.4272 -0.01,0.096 -0.0186,0.382 -0.0298,0.2866 -0.1513,-1.2952 0.33289,-2.6704 0.31301,-3.9652 0.23107,-1.9006 0.57073,-3.7938 0.46064,-5.7163 0,-5.1472 7.27913,-5.1472 7.27913,0 z"
       inkscape:connector-curvature="0" />
    <path
       style="fill:#fee0d2;fill-opacity:1;stroke:none"
       id="path6262"
       d="m 61.520534,1243.5223 c 2.813681,-1.2539 5.773206,-1.8298 8.834822,-1.9259 2.775262,0.01 5.397757,0.9402 8.093217,1.4513 2.243321,0.3846 4.526091,0.4222 6.796005,0.4643 2.557968,0.2652 5.134384,0.4316 7.677405,0.8187 1.674697,0.3516 3.361386,0.6074 5.06786,0.7277 1.784198,0.1159 3.532497,-0.1885 5.322637,-0.1713 1.90935,0.071 3.81761,0.1626 5.72778,0.2102 1.6544,0.036 3.30925,0.038 4.96395,0.04 2.2997,0 4.59941,-2e-4 6.89911,-6e-4 2.51709,-0.085 5.02628,0.066 7.53854,0.1347 2.51255,-0 5.02458,-0.066 7.53693,-0.097 2.85477,-0.068 5.69201,0.3412 8.53379,0.5582 2.80276,0.1861 5.61317,0.1938 8.42082,0.2097 3.19848,0.011 6.39698,0.01 9.59547,0.01 2.86243,-0.2285 5.71861,-0.5039 8.58667,-0.66 2.4661,-0.2252 4.96668,0.035 7.42562,-0.2365 2.38288,-0.349 4.78179,-0.5266 7.18616,-0.6325 2.88181,-0.092 5.72707,0.339 8.60981,0.2596 3.06318,-0.046 6.09308,-0.509 9.14074,-0.7758 3.39093,-0.2711 6.79316,-0.3395 10.19327,-0.376 3.63301,-0.061 7.25621,-0.05 10.8796,0.2273 3.37678,0.3184 6.76506,0.4465 10.15452,0.5211 3.56911,0.058 7.13884,0.057 10.70832,0.058 4.03823,-0 8.07645,-0 12.11468,-0 3.8048,-10e-4 7.60961,-0 11.41441,-0 3.13649,0.049 6.27908,-0.1127 9.40967,0.1076 2.13373,0.2777 4.27005,0.5044 6.41897,0.6151 2.35401,0.1884 4.69137,-0.1822 7.03213,-0.3826 2.55829,-0.086 5.08635,-0.3625 7.62453,-0.6679 3.02386,-0.3421 6.06865,-0.4068 9.1084,-0.4581 2.8206,-0.083 5.61927,0.3586 8.42635,0.5677 3.02541,0.072 6.03266,0.3202 9.04489,0.5976 2.60889,0.1098 5.17469,0.5824 7.7575,0.9251 1.86441,0.2349 3.74556,0.2779 5.62227,0.3083 1.67156,0.018 3.34325,0.012 5.01487,0.01 1.7538,0 3.50231,-0.063 5.24708,0.1252 0.73186,0.076 1.44021,0.3489 2.17405,0.4119 0.24755,0.021 0.48172,-0.127 0.72796,-0.1602 1.29916,-0.3891 2.80988,0.016 4.08365,-0.3916 0.66853,-0.1187 1.33113,-0.1203 2.00446,-0.09 5.11784,0.5483 4.34246,7.786 -0.77538,7.2377 l 0,0 c 0.98843,0.02 0.18296,-0 0.0313,0.021 -1.46287,0.2177 -2.93805,0.2349 -4.40368,0.4406 -1.62791,0.2074 -3.23083,0.2013 -4.82122,-0.2569 -1.33114,-0.3852 -2.89195,0.1513 -4.25655,-0.059 -1.71534,0 -3.43077,0.01 -5.14604,-0.011 -2.15795,-0.036 -4.32024,-0.095 -6.4633,-0.3709 -2.4858,-0.3319 -4.95299,-0.7923 -7.46471,-0.8921 -2.97174,-0.2738 -5.9367,-0.5145 -8.92167,-0.5874 -2.5854,-0.1951 -5.1637,-0.6005 -7.75966,-0.5483 -2.79032,0.047 -5.58564,0.099 -8.36202,0.4071 -2.62042,0.3145 -5.23377,0.6009 -7.87385,0.6936 -2.67192,0.2275 -5.34297,0.6206 -8.03034,0.3991 -2.20959,-0.1164 -4.40982,-0.3271 -6.60247,-0.6271 -2.93621,-0.2606 -5.90331,0.018 -8.84703,-0.086 -3.80422,10e-5 -7.60844,3e-4 -11.41266,0 -4.03938,0 -8.07876,0 -12.11814,0 -3.62262,-8e-4 -7.24548,5e-4 -10.86771,-0.06 -3.52254,-0.078 -7.04392,-0.2121 -10.55343,-0.5408 -3.41097,-0.265 -6.82179,-0.2592 -10.24221,-0.2061 -3.21491,0.034 -6.43191,0.096 -9.63839,0.3488 -3.1963,0.2776 -6.37483,0.7636 -9.58829,0.801 -2.84117,0.067 -5.64327,-0.272 -8.4778,-0.2642 -2.2849,0.098 -4.56196,0.2787 -6.82649,0.6079 -2.56352,0.215 -5.13965,0.1035 -7.70817,0.2574 -2.99793,0.1618 -5.98075,0.4816 -8.97631,0.6706 -3.21372,0 -6.42746,0.01 -9.64117,-0.01 -2.97924,-0.017 -5.96135,-0.028 -8.93511,-0.2308 -2.62776,-0.2017 -5.25171,-0.5832 -7.8901,-0.5375 -2.61877,0.032 -5.23729,0.1032 -7.85632,0.093 -2.43475,-0.085 -4.86564,-0.2033 -7.30577,-0.131 -2.30331,5e-4 -4.60662,0 -6.90992,7e-4 -1.7122,-0 -3.42454,-0.01 -5.13641,-0.042 -1.88285,-0.047 -3.76404,-0.1323 -5.64587,-0.2085 -1.92366,-0.038 -3.82174,0.3794 -5.748711,0.1529 -1.913603,-0.1416 -3.811822,-0.4002 -5.689884,-0.7997 -2.200023,-0.3787 -4.453939,-0.4259 -6.666155,-0.7289 -2.687014,-0.051 -5.387177,-0.1166 -8.039129,-0.5951 -2.182292,-0.4271 -4.306802,-1.1273 -6.528295,-1.3217 -2.140197,0.035 -4.185721,0.4587 -6.152482,1.3398 -4.730952,2.0276 -7.598342,-4.663 -2.86739,-6.6906 z"
       inkscape:connector-curvature="0" />
    <path
       style="fill:#fee0d2;fill-opacity:1;stroke:none"
       id="path6266"
       d="m 358.01479,1248.2676 c 3.38745,-1.4307 7.00045,-2.1533 10.58923,-2.872 4.04025,-0.8525 8.12173,-1.5206 12.21836,-2.036 4.28194,-0.6999 8.60355,-1.068 12.93287,-1.2974 3.26863,-0.1547 6.54123,-0.1686 9.81277,-0.174 3.11066,-0.087 6.20057,0.034 9.27489,0.5201 2.33641,0.5342 4.69962,0.8477 7.08857,0.9999 3.07271,0.3774 6.15477,0.6406 9.22413,1.0444 2.93982,0.2868 5.84379,0.827 8.77946,1.1456 3.27833,0.3166 6.5754,0.2279 9.85782,0.4498 2.57919,0.2792 5.16068,0.5116 7.75269,0.6235 3.17159,-0.064 6.21427,0.8119 9.18567,1.8213 2.33449,0.7436 4.6672,1.5012 7.08691,1.9086 2.85779,0.4075 5.71129,0.7928 8.59184,0.9992 3.41013,0.201 6.82786,0.2001 10.24262,0.2117 4.01579,-0.2132 8.02586,-0.5009 12.04459,-0.6617 3.94029,-0.1315 7.88323,-0.1456 11.82532,-0.1564 3.88331,-0.1254 7.75057,0.1216 11.6224,0.3747 3.88223,0.2642 7.77226,0.3577 11.66212,0.4108 3.70794,-0.092 7.39827,0.255 11.09094,0.5289 2.97796,0.2375 5.95538,0.5958 8.91413,1.0165 2.97817,0.5032 5.99042,0.7032 9.00436,0.8222 3.00444,0.098 6.01097,0.093 9.01664,0.094 3.15051,-0 6.30102,-0.01 9.45153,-0.01 3.34157,0.1157 6.66282,-0.093 9.99068,-0.3568 3.16265,-0.3657 6.31319,-0.3163 9.47701,-0.048 2.52102,0.2185 5.04916,0.3191 7.57836,0.3715 2.24706,0.037 4.49452,0.036 6.74181,0.036 2.22016,-0 4.44031,-0 6.66046,-0 2.80602,-8e-4 5.61204,-8e-4 8.41806,-8e-4 2.47515,-0.2176 4.92452,-0.5775 7.41243,-0.5649 2.04938,0.2517 4.05302,0.2885 6.10391,0.1167 1.80074,-0.1929 3.61832,-0.1201 5.39322,-0.4897 1.73627,-0.4123 3.51176,-0.5499 5.28889,-0.6276 1.67617,0.078 3.30482,-0.2724 4.95339,-0.5091 1.45265,-0.044 2.82043,-0.4758 4.23355,-0.7602 0.98554,-0.084 1.76195,-0.3709 2.44813,-1.0834 0.92081,-0.5387 1.43994,-1.452 2.40217,-1.9564 0.5036,-0.264 1.05299,-0.4294 1.57949,-0.6442 1.48729,-0.4186 3.01492,0.014 4.50104,-0.2359 1.52818,-0.3078 2.99953,-0.4706 4.53854,-0.136 0.96187,0.2757 1.96619,0.3189 2.95938,0.3684 1.22801,0.031 2.44996,0.1487 3.6523,-0.1058 0.32724,-0.1136 0.12771,-0.048 0.60226,-0.1844 4.94763,-1.4191 6.95453,5.5779 2.0069,6.997 l 0,0 c -0.69408,0.199 -0.2915,0.087 -1.20949,0.3307 -1.79986,0.3385 -3.60165,0.3394 -5.42663,0.232 -1.46273,-0.077 -2.9338,-0.1818 -4.35172,-0.5765 1.89044,-0.233 -1.55828,0.2182 -1.69404,0.2735 -0.79712,0.1123 -2.86404,0.3952 -3.65241,0.1075 -0.0337,-0.012 0.0527,-0.049 0.079,-0.073 1.59269,-1.0469 -1.03831,0.8913 -1.3189,1.1885 -1.674,1.3306 -3.51952,2.4412 -5.70273,2.6386 -1.53657,0.2966 -3.04046,0.7662 -4.6165,0.8255 -1.88406,0.2682 -3.75899,0.6406 -5.67269,0.5757 -1.39974,0.058 -2.79772,0.1534 -4.16349,0.491 -2.059,0.4054 -4.13932,0.4495 -6.22769,0.608 -2.28703,0.1883 -4.55192,0.2014 -6.83256,-0.093 -2.43917,-0.1004 -4.84713,0.5364 -7.28565,0.566 -2.80526,0 -5.61052,10e-5 -8.41579,8e-4 -2.22077,7e-4 -4.44155,0 -6.66233,0 -2.29818,2e-4 -4.59653,8e-4 -6.89447,-0.037 -2.68468,-0.056 -5.36825,-0.1642 -8.04425,-0.3963 -2.76838,-0.2369 -5.51548,-0.2862 -8.28406,0.051 -3.5172,0.2786 -7.03019,0.4923 -10.5613,0.3796 -3.15313,0 -6.30627,0.01 -9.4594,0.01 -3.10114,-0 -6.20317,0 -9.30299,-0.1002 -3.26429,-0.1312 -6.52673,-0.3515 -9.75298,-0.8909 -2.79063,-0.4089 -5.60453,-0.7323 -8.41413,-0.962 -3.54687,-0.2632 -7.09021,-0.6054 -10.65203,-0.5096 -4.01502,-0.055 -8.03016,-0.1532 -12.0373,-0.4257 -3.70749,-0.2424 -7.4088,-0.4871 -11.12765,-0.3592 -3.85194,0.011 -7.70471,0.024 -11.55494,0.1507 -4.12376,0.1642 -8.23763,0.4768 -12.35976,0.6674 -3.58174,-0.012 -7.16663,-0.014 -10.74322,-0.2306 -3.12198,-0.2279 -6.21649,-0.639 -9.31329,-1.0879 -2.7952,-0.4971 -5.50931,-1.3077 -8.20417,-2.1956 -2.31117,-0.8049 -4.66223,-1.5151 -7.13889,-1.4336 -2.65705,-0.1171 -5.30519,-0.3404 -7.94858,-0.6347 -3.37266,-0.2518 -6.76899,-0.1021 -10.13673,-0.4749 -2.98824,-0.3296 -5.94562,-0.866 -8.93771,-1.1647 -2.91082,-0.3837 -5.83418,-0.6247 -8.74652,-0.9974 -2.62284,-0.1738 -5.22609,-0.4938 -7.79207,-1.0802 -2.67681,-0.4603 -5.37651,-0.4732 -8.08674,-0.4244 -3.14755,0 -6.29615,0.017 -9.44099,0.1638 -4.15577,0.2183 -8.30299,0.5764 -12.41272,1.2512 -3.92251,0.4878 -7.82863,1.1365 -11.69645,1.9514 -3.2951,0.6562 -6.60863,1.3096 -9.71306,2.6394 -4.88299,1.6276 -7.18485,-5.278 -2.30186,-6.9056 z"
       inkscape:connector-curvature="0" />
    <path
       style="fill:#fee0d2;fill-opacity:1;stroke:none"
       id="path6268"
       d="m 708.10991,1249.3047 c 3.41706,0.4392 6.82555,0.9088 10.26074,1.1914 3.56778,0.1398 7.11556,0.5394 10.67496,0.8024 3.27331,0.1717 6.53254,0.5696 9.75123,1.1833 2.47088,0.605 4.97906,0.9847 7.47969,1.4344 2.50845,0.5035 5.06002,0.7116 7.61064,0.8475 2.34114,0.1068 4.65251,0.5086 6.99001,0.6844 2.82521,0.1712 5.65682,0.1855 8.48623,0.2026 2.03445,0.01 4.06892,0.01 6.10337,0 1.79264,-0 3.58527,-0 5.3779,-0 1.1837,-0.1987 2.34746,-0.4334 3.50157,-0.7576 1.1632,-0.2943 0.56857,-0.1563 1.78447,-0.4114 5.0412,-1.0388 6.51031,6.0905 1.4691,7.1293 l 0,0 c -0.8459,0.1696 -0.41642,0.073 -1.28788,0.2908 -1.78759,0.5007 -3.61169,0.882 -5.46573,1.028 -1.79026,4e-4 -3.58053,9e-4 -5.3708,0 -2.05207,0 -4.10416,0.01 -6.15623,-0 -2.99922,-0.018 -6.00083,-0.035 -8.99526,-0.2235 -2.28361,-0.176 -4.54328,-0.5504 -6.82781,-0.6739 -2.85608,-0.155 -5.71229,-0.3956 -8.52193,-0.9544 -2.51972,-0.4645 -5.05317,-0.8375 -7.54491,-1.4465 -2.94378,-0.5651 -5.92663,-0.9198 -8.92113,-1.0737 -3.58034,-0.2657 -7.14876,-0.6655 -10.73753,-0.8072 -3.53613,-0.2939 -7.04616,-0.7688 -10.56357,-1.2229 -5.10737,-0.6384 -4.20451,-7.8613 0.90287,-7.2229 z"
       inkscape:connector-curvature="0" />
    <path
       style="fill:#fc9272;fill-opacity:1;stroke:none"
       id="path6270"
       d="m 701.43791,1247.3308 c -1.16965,1.8921 -2.66856,3.5887 -3.729,5.546 -0.98751,1.6628 -1.68245,3.4673 -2.48918,5.2162 -0.66477,0.9528 -1.2141,5.0693 -0.77292,0.733 -2.19611,-0.4357 -4.42627,-0.7255 -6.58834,-1.307 -0.24965,-0.067 0.25064,-0.4552 0.33462,-0.6997 0.2672,-0.7779 0.56995,-1.4869 0.92642,-2.2326 0.86136,-1.9271 2.07142,-3.6723 3.34396,-5.3465 0.48327,-0.7383 1.06124,-1.3961 1.62845,-2.0679 2.19541,-2.6001 0.98308,-0.2892 4.8132,5.1864 -0.60017,0.7882 -1.2372,1.6077 -1.82466,2.4298 -1.03133,1.3187 -1.7909,2.8153 -2.65778,4.2428 -1.71176,3.2125 -1.09851,2.0895 -7.42013,-1.6344 -0.0677,-0.04 0.29903,-1.2373 0.53259,-2.0354 0.75822,-2.1586 1.75051,-4.2121 2.85757,-6.209 -0.0285,0.1159 0.16182,-0.6441 0.14463,-0.4784 -0.0494,0.4764 -0.45161,1.0103 -0.20675,1.422 1.47991,2.4879 2.55906,3.8955 5.01952,2.792 -0.68632,0.8632 -1.32053,1.7734 -2.04612,2.6093 -2.10054,-1.0591 -4.50223,-1.662 -6.30162,-3.1773 -0.20549,-0.1731 1.74418,-3.7779 1.90093,-4.067 0.30853,-0.5191 0.64601,-1.1396 1.04947,-1.5927 0.28672,-0.322 0.612,-0.6081 0.93365,-0.8952 0.11334,-0.1012 0.24107,-0.3497 0.36896,-0.2677 5.92102,3.7978 6.21219,1.9265 5.31731,4.8764 -0.58563,1.2349 -1.32521,2.3941 -1.78044,3.6879 -0.11382,0.65 -1.54182,3.0356 -1.3992,3.3484 -0.8714,5.0728 -8.04546,3.8405 -7.17405,-1.2323 l 0,0 c 0.34978,-1.6638 1.11007,-3.1092 1.75629,-4.6685 0.33697,-0.8744 1.10928,-2.9527 1.72659,-3.6408 0.0523,-0.058 -0.0292,0.1538 -0.0438,0.2306 1.18726,-1.9829 -0.0217,-0.022 5.74018,3.3835 0.0583,0.034 0.78462,-1.1434 -0.0997,0.2469 -0.3446,0.6326 -0.64715,1.2059 -0.96374,1.8558 -0.0933,0.1915 -0.18582,0.7449 -0.29939,0.5646 -0.14041,-0.2228 0.39898,-0.6439 0.16877,-0.7719 -2.01456,-1.1198 -4.25001,-1.7852 -6.37501,-2.6778 0.95395,-1.0645 1.6602,-2.3439 2.73903,-3.3003 0.88803,-0.6453 2.3786,-1.9884 3.65738,-1.3911 3.83943,1.7933 3.84686,3.8031 2.53329,6.6732 -0.85556,1.5431 -1.63323,3.1187 -2.25288,4.7752 -0.0688,0.2185 -0.14515,0.4348 -0.20629,0.6555 -0.0515,0.186 0.0589,0.5959 -0.1314,0.5637 -8.21116,-1.3865 -7.77928,-0.057 -5.96185,-3.4326 0.96427,-1.5759 1.80775,-3.2315 2.95253,-4.6889 1.13887,-1.5923 2.30477,-3.237 3.91615,-4.3864 5.44984,6.7006 6.06838,3.4995 3.14618,7.525 -1.00704,1.2613 -1.90346,2.6348 -2.57054,4.1069 -2.27926,4.3586 0.16728,4.0778 -8.32932,2.5139 0.138,-2.0243 0.30204,-3.4665 1.313,-5.3231 0.92717,-1.8954 1.62771,-3.9106 2.74804,-5.7148 1.2112,-2.0745 2.67135,-3.983 3.9988,-5.9834 2.85511,-4.2827 8.91171,-0.245 6.0566,4.0377 z"
       inkscape:connector-curvature="0" />
  </g>
</svg>
