<?xml version="1.0" encoding="UTF-8" standalone="no"?>
<!-- Created with Inkscape (http://www.inkscape.org/) -->

<svg
   xmlns:dc="http://purl.org/dc/elements/1.1/"
   xmlns:cc="http://creativecommons.org/ns#"
   xmlns:rdf="http://www.w3.org/1999/02/22-rdf-syntax-ns#"
   xmlns:svg="http://www.w3.org/2000/svg"
   xmlns="http://www.w3.org/2000/svg"
   xmlns:xlink="http://www.w3.org/1999/xlink"
   xmlns:sodipodi="http://sodipodi.sourceforge.net/DTD/sodipodi-0.dtd"
   xmlns:inkscape="http://www.inkscape.org/namespaces/inkscape"
   id="svg2"
   version="1.1"
   inkscape:version="0.48.4 r9939"
   width="1073"
   height="1921"
   sodipodi:docname="46693-780.svg">
  <metadata
     id="metadata8">
    <rdf:RDF>
      <cc:Work
         rdf:about="">
        <dc:format>image/svg+xml</dc:format>
        <dc:type
           rdf:resource="http://purl.org/dc/dcmitype/StillImage" />
        <dc:title />
      </cc:Work>
    </rdf:RDF>
  </metadata>
  <defs
     id="defs6" />
  <sodipodi:namedview
     pagecolor="#ffffff"
     bordercolor="#666666"
     borderopacity="1"
     objecttolerance="10"
     gridtolerance="10"
     guidetolerance="10"
     inkscape:pageopacity="0"
     inkscape:pageshadow="2"
     inkscape:window-width="1366"
     inkscape:window-height="744"
     id="namedview4"
     showgrid="false"
     inkscape:zoom="0.86942355"
     inkscape:cx="465.29578"
     inkscape:cy="1740.572"
     inkscape:window-x="0"
     inkscape:window-y="24"
     inkscape:window-maximized="1"
     inkscape:current-layer="layer1" />
  <image
     width="1073"
     height="1921"
     xlink:href="file:///C:/Users/Surface/Desktop/CHI2013%20BI%20GitRepo/public-dataset/input/cropped-display/46693-780.png"
     id="image10"
     x="0"
     y="0" />
  <g
     inkscape:groupmode="layer"
     id="layer1"
     inkscape:label="Layer">
    <g
       id="g0"
       inkscape:label="#g3020">
      <path
         inkscape:connector-curvature="0"
         d="m -10.95259,684.81718 c 3.3784184,-2.6126 6.9020978,-5.04194 10.3709931,-7.53618 3.5742839,-2.24389 6.8630592,-4.85616 10.437367,-7.09775 2.2240219,-1.64481 4.2944709,-3.47227 6.4393659,-5.21963 1.906176,-1.70836 4.166169,-2.9362 6.184803,-4.4997 2.026939,-1.83136 4.232698,-3.45443 6.596627,-4.82121 1.404315,-0.77651 2.852721,-1.58113 4.144678,-2.5494 1.690396,-1.19924 3.156747,-2.64517 4.739358,-3.97616 1.99772,-1.92697 4.227666,-3.59055 6.30339,-5.43238 2.36404,-1.79247 4.747433,-3.55403 7.067905,-5.40316 1.388154,-1.61981 2.737636,-3.23922 4.30589,-4.70324 2.344562,-2.06599 4.561008,-4.27687 6.560809,-6.67949 1.736775,-1.71297 3.372047,-3.50106 4.97138,-5.34304 2.912385,-3.26931 5.648209,-6.65205 8.739318,-9.7603 2.453436,-2.7622 4.954108,-5.46618 7.516386,-8.12126 1.260143,-1.44201 2.487514,-2.87698 3.947549,-4.12006 1.313632,-1.27733 2.366937,-2.75341 3.649473,-4.07477 1.735021,-1.64225 3.53499,-3.1712 5.207022,-4.88485 2.458196,-2.74193 5.239746,-5.14779 7.837706,-7.74812 1.61888,-1.63588 3.09231,-3.40544 4.87366,-4.86516 1.51364,-1.48449 2.94481,-3.05138 4.40297,-4.59013 1.73439,-2.31513 3.9123,-4.25876 5.98766,-6.26118 3.75861,-3.60575 7.98103,-6.68251 11.9861,-10.00443 4.7212,-3.89811 9.17221,-8.11313 13.85029,-12.05787 2.20344,-2.01978 4.50126,-3.96702 6.94084,-5.6968 1.57709,-1.38831 3.40246,-2.43846 5.07578,-3.69936 1.99437,-1.71418 4.33883,-2.94798 6.59284,-4.28519 4.338,-3.06755 8.74085,-6.03297 13.3213,-8.7296 3.61119,-2.28001 7.52227,-4.0246 11.16596,-6.24357 4.07826,-2.3799 8.21529,-4.60877 12.47182,-6.65015 4.68112,-2.30141 9.21339,-4.88317 13.82337,-7.32691 2.24078,-0.95009 4.31357,-2.20627 6.11608,-3.83511 1.16514,-0.85953 2.12407,-1.919 3.24335,-2.83347 0.98064,-1.26655 2.23505,-2.32426 3.45462,-3.35875 1.50915,-1.36567 2.97834,-2.78402 4.55678,-4.07264 1.15978,-1.0011 2.47573,-1.89622 3.73078,-2.67228 1.46313,-1.17231 3.11016,-2.07688 4.52686,-3.30109 1.41734,-0.8749 2.62015,-1.95568 4.00319,-2.88552 1.22969,-0.89991 2.58671,-1.59484 3.86564,-2.42502 1.61039,-1.1719 3.46088,-1.74751 5.40664,-2.01594 2.20786,-0.18378 4.42772,-0.16028 6.64147,-0.15142 2.23392,-5.6e-4 4.46777,0.0196 6.70167,0.0225 1.7615,-0.004 3.52292,0.0134 5.28442,0.009 1.86664,0.39652 3.51945,1.12037 5.42274,1.34889 3.23859,0.13989 6.41352,0.8287 9.62168,1.25794 3.30521,0.47251 6.65645,0.3644 9.955,0.84491 2.86826,0.6681 5.77884,1.0358 8.71268,1.23638 2.46224,0.16485 4.93137,0.18618 7.39823,0.19019 2.87217,-0.006 5.74433,-0.0154 8.61651,-0.0203 3.65939,-0.0974 7.27493,-0.0259 10.9018,0.48051 3.72221,0.64367 7.49196,0.87272 11.26037,1.02827 3.44846,-0.17777 6.78611,0.56683 10.15281,1.16106 2.40234,0.35513 4.77754,0.53537 7.13632,1.14353 2.40098,0.56716 4.77749,1.21859 7.17619,1.80333 3.10904,0.44695 6.1804,1.0264 9.26162,1.64327 2.89535,0.55213 5.84273,0.72661 8.78256,0.83759 2.65215,-0.13717 5.18721,0.25213 7.74783,0.89451 2.12975,0.49483 4.31067,0.64438 6.48858,0.72355 2.67363,0.0896 5.33539,-0.0327 7.99429,0.27845 3.05074,0.61676 6.12983,1.00318 9.23293,1.21303 2.70754,-0.11344 5.26286,0.72791 7.88244,1.24074 2.97269,0.2535 5.88537,0.77789 8.81398,1.33781 3.07344,0.3564 6.07804,0.83144 9.05885,1.67424 1.94475,0.59304 3.9711,0.64199 5.9461,1.06738 2.64569,0.71777 5.34938,1.09494 8.0118,1.75089 3.16222,0.71328 6.37744,1.00023 9.54778,1.67804 2.80839,0.61908 5.66909,0.94736 8.53715,1.10825 2.70759,-0.07 5.31491,0.67911 7.96258,1.12284 3.08571,0.34121 6.14547,0.50367 9.19952,1.08595 3.35653,0.71035 6.7809,0.88285 10.1983,1.01618 4.26997,0.10709 8.5416,0.10176 12.81257,0.0943 4.4521,-0.19745 8.83745,0.0934 13.23222,0.78174 2.58566,0.6507 4.97569,0.54913 7.55022,0.11785 3.19143,-0.56353 6.42983,-0.7205 9.66233,-0.82921 3.58764,-0.53253 7.16751,-1.07595 10.78207,-1.39253 3.52233,-0.25548 7.05568,-0.28121 10.58555,-0.29997 2.37906,-0.36716 4.71094,-0.95744 7.09703,-1.28622 2.86955,-0.3841 5.76979,-0.18611 8.63908,-0.52767 4.00486,-0.57647 8.02888,-0.98492 12.06572,-1.24791 3.72337,-0.19658 7.45377,-0.19859 11.18131,-0.2087 3.49486,-0.41446 6.96891,-0.95931 10.47392,-1.29273 2.81497,-0.2579 5.64274,-0.28618 8.46716,-0.30529 3.33173,0.21358 6.57621,-0.26996 9.86137,-0.72796 3.69762,-0.52288 7.42643,-0.73816 11.15613,-0.8456 2.27799,-0.42454 4.52265,-0.99086 6.81412,-1.34385 1.99559,-0.28548 4.01406,-0.3089 6.02578,-0.33293 2.76826,-0.12662 5.57021,0.21135 8.31781,-0.18323 2.95353,-0.53971 5.91333,-1.00558 8.90624,-1.251 2.37551,-0.16728 4.7577,-0.19102 7.13809,-0.19027 1.90676,2.5e-4 3.81353,0.007 5.7203,0.007 2.03085,-0.008 4.06171,-7.2e-4 6.09254,0.009 1.32487,0.0107 2.64976,3.4e-4 3.97465,0.008 1.29316,-0.008 2.58636,0.002 3.87951,-0.003 3.45919,0.0111 1.42797,-0.30697 0.68055,6.55156 0,0 0,-6.55345 0,-6.55345 l 0,0 c 0.74748,6.85854 2.77868,6.54042 -0.68052,6.55157 -1.29311,-0.005 -2.58627,0.006 -3.87939,-0.003 -1.32536,0.008 -2.65072,-0.002 -3.97606,0.008 -2.03371,0.009 -4.06746,0.0151 -6.10117,0.002 -1.89438,-0.006 -3.78876,-0.0115 -5.68315,-0.008 -2.21314,0.0194 -4.42927,0.0255 -6.63717,0.19683 -2.90621,0.22765 -5.76573,0.74646 -8.63731,1.23752 -3.01316,0.32616 -6.03461,0.18799 -9.06289,0.1993 -1.69971,0.006 -3.40744,6.9e-4 -5.09291,0.25231 -2.54711,0.37744 -5.01144,1.17084 -7.57655,1.44774 -3.49923,0.13578 -6.9997,0.31647 -10.46956,0.81736 -3.56465,0.48869 -7.11029,0.971 -10.72003,0.74159 -2.62157,0.0224 -5.24764,0.05 -7.86003,0.29098 -3.71576,0.39082 -7.39947,1.00834 -11.1188,1.35584 -3.58186,0.004 -7.16568,-0.005 -10.74436,0.16939 -3.95096,0.28188 -7.88583,0.72933 -11.81262,1.24619 -2.82224,0.27536 -5.6496,0.152 -8.46891,0.45498 -2.66605,0.34274 -5.24222,1.18003 -7.93193,1.37072 -3.34958,0.0207 -6.70001,0.0811 -10.04403,0.28828 -3.74298,0.3299 -7.43802,0.9721 -11.16673,1.41754 -2.93632,0.0731 -5.87752,0.21332 -8.77728,0.71479 -3.24436,0.53377 -6.39502,0.65264 -9.63579,-0.0768 -4.06402,-0.61107 -8.11241,-0.86322 -12.22687,-0.67132 -4.35748,-0.008 -8.71618,0.007 -13.07218,-0.12351 -3.75342,-0.1479 -7.51183,-0.37839 -11.19722,-1.15621 -2.99845,-0.59258 -6.02339,-0.64465 -9.05076,-1.06756 -2.40996,-0.41732 -4.76037,-1.14413 -7.22664,-1.04511 -3.20765,-0.1843 -6.40987,-0.51935 -9.55,-1.22416 -3.23606,-0.69589 -6.52953,-0.9517 -9.7509,-1.73134 -2.65391,-0.66179 -5.35372,-1.0373 -7.98755,-1.78213 -1.93873,-0.65861 -4.21309,-0.27105 -6.144,-1.10685 -2.81674,-0.76773 -5.64505,-1.16042 -8.54128,-1.52522 -2.9485,-0.56774 -5.8725,-1.07959 -8.86315,-1.37145 -2.35106,-0.48032 -4.60158,-1.2525 -7.03875,-1.10338 -3.24452,-0.22456 -6.47107,-0.6041 -9.65841,-1.26718 -2.42823,-0.40268 -4.92463,-0.0503 -7.37611,-0.2362 -2.62968,-0.11033 -5.26513,-0.30563 -7.83162,-0.92783 -2.12696,-0.53425 -4.1676,-0.84388 -6.38448,-0.68453 -3.29697,-0.11472 -6.60032,-0.30672 -9.8449,-0.94325 -3.17809,-0.63858 -6.3446,-1.21703 -9.54571,-1.72022 -2.42497,-0.60705 -4.81766,-1.29494 -7.25645,-1.8422 -2.1762,-0.57831 -4.39204,-0.64222 -6.61606,-1.01495 -3.08026,-0.54189 -6.11944,-1.2245 -9.2759,-1.03214 -3.98945,-0.15839 -7.97708,-0.41842 -11.9187,-1.08802 -3.31575,-0.47321 -6.62012,-0.52493 -9.96891,-0.43896 -2.88055,6.2e-4 -5.76111,0.003 -8.64165,-0.004 -2.6138,-0.0106 -5.22915,-0.019 -7.83904,-0.18116 -3.12669,-0.22161 -6.23589,-0.5959 -9.29259,-1.31268 -3.21377,-0.5928 -6.57672,-0.15847 -9.80105,-0.79122 -3.20726,-0.43499 -6.36836,-1.14868 -9.60535,-1.3047 -1.17601,-0.16727 -3.99499,-0.39865 -4.55406,-1.31459 -1.76474,-0.004 -3.52944,0.0117 -5.29417,0.004 -2.23392,-0.004 -4.46786,0.003 -6.70177,-0.0102 -1.95319,0.002 -3.91115,-0.0505 -5.86104,0.0799 -0.96544,0.0677 -1.83219,0.4095 -2.60391,1.01231 -1.2448,0.80648 -2.57501,1.44596 -3.76143,2.33159 -1.15668,0.79514 -2.19685,1.7365 -3.40409,2.45275 -1.49026,1.27296 -3.15162,2.28722 -4.72694,3.4504 -1.22438,0.88357 -2.54404,1.56785 -3.65161,2.61963 -1.56437,1.2828 -3.01252,2.70076 -4.51269,4.05589 -1.39381,1.1112 -2.5643,2.40405 -3.85635,3.62491 0.41083,-0.76815 -2.78431,2.82977 -2.63104,2.36808 -2.19189,1.9918 -4.65882,3.64219 -7.37858,4.83659 -4.67364,2.53773 -9.30956,5.14785 -14.08514,7.48526 -4.06166,1.94317 -8.02996,4.02963 -11.91905,6.30349 -3.67509,2.21525 -7.57364,4.03071 -11.2105,6.315 -4.58193,2.71307 -8.95836,5.72839 -13.36359,8.71244 -2.04693,1.17905 -4.20458,2.21346 -5.98146,3.78631 -1.73597,1.3202 -3.61477,2.44229 -5.26556,3.87479 -2.29517,1.56163 -4.36734,3.47285 -6.40692,5.34666 -4.66458,4.01731 -9.08094,8.32848 -13.87443,12.20327 -3.89668,3.18364 -8.01115,6.11961 -11.6866,9.5601 -2.01232,1.93351 -4.11517,3.80837 -5.79915,6.04581 -1.69783,1.77348 -3.3249,3.6244 -5.16839,5.25038 -1.68427,1.02277 -2.59549,3.14141 -4.17683,4.30754 -2.56834,2.62521 -5.35108,5.02476 -7.83328,7.73861 -1.684707,1.69499 -3.483239,3.22516 -5.223679,4.84998 -1.473295,1.4808 -2.587369,3.25276 -4.209993,4.58812 -1.340743,0.92979 -2.169264,2.4459 -3.330644,3.57203 -2.58391,2.69121 -5.01167,5.51746 -7.536926,8.27058 -2.999528,2.9937 -5.649408,6.26383 -8.501,9.39382 -1.571628,1.77677 -3.16274,3.52429 -4.846866,5.19173 -2.170774,2.64982 -4.585358,5.09499 -7.179084,7.33248 -1.692263,1.53331 -3.014247,3.35961 -4.637186,4.96631 -2.222302,1.82464 -4.520049,3.54815 -6.83999,5.2464 -2.138783,1.87121 -4.409496,3.58917 -6.463146,5.55428 -1.731286,1.40216 -3.320524,2.96439 -5.151641,4.24475 -1.515621,1.04555 -3.091024,2.03957 -4.695337,2.93225 -2.132604,1.16356 -3.996305,2.75016 -5.836658,4.31905 -1.975412,1.49923 -4.127232,2.74959 -6.008113,4.36697 -2.346761,1.93869 -4.63293,3.9449 -7.099372,5.73153 -3.4565326,2.17234 -6.5999999,4.7554 -10.0699191,6.91201 -3.43779207,2.45852 -6.9194684,4.85856 -10.3170478,7.36995 0,0 -3.9424181,-5.25656 -3.9424181,-5.25656 z"
         id="path3009"
         style="fill:#de2d26;fill-opacity:1;fill-rule:nonzero;stroke:none" />
      <path
         inkscape:connector-curvature="0"
         d="m 699.77097,495.9256 c 3.48691,-0.70109 7.02541,-1.08637 10.57062,-1.32703 2.92343,-0.16637 5.85234,-0.18244 8.77958,-0.19382 3.68374,-0.22259 7.30359,0.5103 10.93444,1.00382 2.87434,0.3758 5.76821,0.52872 8.66312,0.62014 1.96387,0.0445 3.92823,0.0458 5.89246,0.0359 2.03447,-0.0485 4.01004,-0.76135 6.01798,-1.13567 2.64692,-0.41772 5.33254,-0.46191 8.00612,-0.50491 2.26754,-0.0187 4.5351,-0.006 6.80266,-0.006 2.79205,-5.4e-4 5.58412,-0.0124 8.37616,-9.8e-4 2.75477,0.007 5.50956,-0.008 8.26432,0.002 2.77737,0.003 5.55475,-0.003 8.33212,-0.006 2.69319,0.16549 5.26992,-0.0293 7.8858,-0.6375 2.00951,-0.50369 4.05743,-0.77682 6.12181,-0.90505 2.39441,-0.10365 4.79227,-0.0891 7.18841,-0.0923 2.72118,0.26797 5.30716,-0.4525 7.95728,-0.92021 2.74711,-0.50668 5.54034,-0.60696 8.3256,-0.67353 2.71075,-0.47786 5.41499,-0.98016 8.14664,-1.32553 2.14835,-0.002 4.14279,-0.5143 6.21665,-0.98392 2.09369,-0.50752 4.23831,-0.56204 6.28929,-1.21719 2.78079,-0.70737 5.57251,-1.39001 8.38716,-1.96423 4.13393,-1.07513 8.28599,-2.10137 12.45992,-3.01421 3.112,-0.73392 6.31976,-0.76828 9.40304,-1.58986 3.07448,-0.76439 6.19179,-1.3852 9.23131,-2.28254 3.18443,-1.24817 6.64727,-1.35294 9.91834,-2.19363 3.01989,-0.67292 5.9874,-1.53739 9.00296,-2.22561 4.42492,-1.30223 8.91913,-2.33579 13.37643,-3.5121 3.89849,-1.19119 7.95748,-1.62249 11.88879,-2.65867 2.5551,-0.55442 5.05625,-1.10675 7.53821,-1.92846 1.60522,-0.59916 3.28373,-0.93037 4.98587,-1.07502 0.84463,-0.15237 1.73625,0.0564 2.57858,-0.0679 0.0931,-0.0137 -0.34796,0.004 -0.27655,-0.0574 0.16141,-0.13868 0.39957,-0.1466 0.59935,-0.2199 3.01281,-0.8854 6.16687,-1.07843 9.28566,-1.24822 2.00506,-0.54748 3.99911,-1.07679 6.05484,-1.3983 2.41869,-0.0954 4.74169,-0.48902 7.10111,-1.00255 2.29484,-0.52884 4.63235,-0.76688 6.97929,-0.88902 1.63943,-0.0698 3.28099,-0.0686 4.92159,-0.0615 1.34716,-0.1002 2.82742,-0.78423 4.34339,-1.11117 2.77437,-0.38128 5.5398,-0.42297 8.29468,-0.93777 2.94466,-0.44846 5.8505,-0.87394 8.7134,-1.70953 2.2174,-0.6114 4.4744,-0.9595 6.712,-1.47643 4.7477,-1.40674 9.6681,-2.09933 14.5327,-2.97918 4.8102,-0.71027 9.6194,-1.30631 14.4063,-2.17001 2.9749,-0.57347 5.9933,-0.84139 9.0167,-0.96402 2.5036,-0.67837 5.0408,-1.2292 7.5717,-1.79892 5.1434,-1.23666 10.2266,-2.69651 15.3249,-4.10571 5.1127,-1.12539 10.2243,-2.29219 15.3936,-3.13604 2.9106,-0.66109 5.7675,-1.51956 8.709,-2.04016 3.0318,-2.3454 -0.1224,1.4653 -0.057,2.38497 0.067,0.93239 1.0919,1.51759 1.6378,2.27639 -0.072,0.0279 -0.1431,0.0558 -0.2147,0.0837 0,0 0.7616,-6.52622 0.7616,-6.52622 l 0,0 c 0.5707,0.10283 1.1414,0.20567 1.7121,0.30851 0.8335,0.8647 2.2429,1.42104 2.5004,2.59409 0.7656,3.4868 -2.9222,4.52471 -5.1643,5.34572 -2.972,0.5581 -5.8415,1.51516 -8.7999,2.13681 -4.9311,0.82666 -9.8049,1.9654 -14.6898,3.02068 -5.2138,1.45238 -10.4203,2.92928 -15.6965,4.14011 -2.9008,0.61387 -5.7813,1.31281 -8.689,1.88692 -2.7161,0.13949 -5.4308,0.37307 -8.1002,0.91707 -4.7931,0.92221 -9.6181,1.50931 -14.4421,2.23363 -4.7754,0.84846 -9.5963,1.53069 -14.274,2.83633 -2.094,0.45026 -4.2026,0.76992 -6.2663,1.34325 -3.082,0.93842 -6.21836,1.43711 -9.40069,1.89972 -2.71889,0.49491 -5.43234,0.64103 -8.17911,0.87538 -1.9064,0.3513 -3.68304,1.35534 -5.66816,1.22787 -1.50996,0.002 -3.02059,-0.0117 -4.52949,0.0573 -1.99696,0.12986 -3.98862,0.30221 -5.93991,0.77527 -2.4797,0.5539 -4.95438,0.9727 -7.49676,1.05566 -2.27669,0.36356 -4.44272,1.11318 -6.71645,1.49581 -2.50044,0.13967 -5.01627,0.3044 -7.46749,0.84553 -1.4931,0.51247 -2.9657,0.7198 -4.53449,0.68197 -1.17832,0.0974 -2.3357,0.34014 -3.43605,0.7879 -2.60347,0.88883 -5.24219,1.49209 -7.92455,2.08102 -3.93421,1.06887 -7.99337,1.53795 -11.90216,2.72442 -4.54245,1.19216 -9.12029,2.24693 -13.6414,3.52563 -2.97874,0.63588 -5.90138,1.51377 -8.87623,2.17208 -3.20398,0.75179 -6.51868,1.01524 -9.63668,2.14679 -3.09575,0.88098 -6.24983,1.54032 -9.3801,2.28498 -3.18191,0.84397 -6.45036,1.03497 -9.6694,1.71925 -4.21171,0.92816 -8.40379,1.95436 -12.58452,3.01013 -2.58978,0.50869 -5.16338,1.10624 -7.72031,1.74445 -2.23944,0.69422 -4.53392,0.9048 -6.82308,1.37622 -2.25191,0.49361 -4.47625,1.02059 -6.79359,1.07678 -2.9636,0.40597 -5.88961,1.03 -8.85791,1.39882 -2.45295,0.0502 -4.91823,0.10388 -7.33483,0.57379 -3.0195,0.52334 -6.00281,1.30631 -9.09953,1.02139 -2.25364,-0.006 -4.50868,-0.0356 -6.76148,0.0362 -1.69754,0.11442 -3.37876,0.33243 -5.02827,0.76746 -3.10592,0.74501 -6.20613,1.02188 -9.40158,0.83575 -2.77738,-0.003 -5.55475,-0.009 -8.33213,-0.006 -2.75543,0.0105 -5.51088,-0.005 -8.26633,0.001 -2.79508,0.01 -5.59018,-0.004 -8.38525,-0.0137 -2.23131,-0.008 -4.46287,-0.0143 -6.69405,0.0129 -2.30769,0.031 -4.62479,0.0757 -6.91468,0.38691 -2.39408,0.4316 -4.74007,1.30523 -7.19536,1.23767 -2.02668,-0.003 -4.05356,0.0133 -6.08002,-0.0249 -3.13324,-0.0694 -6.26621,-0.2383 -9.37672,-0.6373 -3.33188,-0.44989 -6.64628,-1.16059 -10.02617,-0.97031 -2.78461,0.005 -5.56994,0.023 -8.35044,0.19379 -3.2623,0.22123 -6.5062,0.61795 -9.72959,1.17105 0,0 -1.28887,-6.44435 -1.28887,-6.44435 z"
         id="path3011"
         style="fill:#de2d26;fill-opacity:1;fill-rule:nonzero;stroke:none" />
      <path
         inkscape:connector-curvature="0"
         d="m 9.7917908,-7.1873069 c -0.1462993,4.02498 0.2055025,7.98319919 0.9354022,11.938248 0.948365,5.7801949 2.793509,11.3727119 4.773207,16.8711339 1.947801,5.375713 3.819177,10.778233 5.734681,16.165391 1.583378,4.899122 3.11032,9.82774 4.938879,14.642337 1.621514,4.084119 3.0083,8.24841 4.428547,12.404747 1.489539,3.610935 2.289359,7.430945 3.528364,11.122067 0.925293,2.866241 1.466225,5.878042 2.583914,8.678915 0.850286,2.423161 1.776273,4.806292 2.692349,7.205187 0.508263,1.903972 1.031479,3.723289 1.756184,5.549574 0.556377,1.648527 1.491683,3.128687 2.107286,4.769887 1.030789,1.4103 1.564906,3.11414 1.947355,4.81529 0.848912,1.27389 0.981361,2.88672 1.644385,4.23763 0.623973,1.46831 1.241055,2.89583 2.058031,4.26782 0.910795,1.43921 0.993134,3.15648 1.679402,4.6671 0.8589,1.59588 1.183498,3.36599 1.371591,5.1462 0.603478,1.41833 1.110083,3.08339 1.702534,4.59115 0.68185,2.57845 1.685229,5.04269 2.422605,7.60632 0.259146,1.76319 1.092553,3.28847 1.669869,4.9567 0.60847,1.90027 1.146824,3.88691 1.94903,5.72351 0.684216,2.02022 1.498603,3.94412 2.384229,5.87928 0.589225,1.94276 1.55617,3.70628 2.174579,5.63778 0.863321,1.90639 1.879495,3.7274 2.664782,5.66895 1.005962,2.3724 2.153075,4.67917 3.180873,7.04072 1.064736,1.67219 1.88246,3.46639 2.840402,5.19427 0.729693,1.53088 1.739236,2.87077 2.471326,4.40179 0.783608,1.473 1.57277,2.89301 2.086585,4.49936 0.626718,1.12588 1.092123,2.31235 1.824224,3.3816 0.854486,1.38406 1.632763,2.83642 2.350208,4.30158 0.732464,1.63887 1.599684,3.22368 2.481265,4.79107 1.253436,1.63352 2.159687,3.47984 3.256272,5.21377 0.954442,1.54382 1.475864,3.42227 2.60288,4.85573 1.040222,1.77043 2.254851,3.40989 3.168049,5.25282 0.977485,1.27556 1.94277,2.62387 2.78841,4.00288 0.844215,0.84675 1.478012,1.86313 2.358878,2.66515 1.058704,1.26835 2.269892,2.38415 3.344442,3.64435 1.85447,1.66586 3.52398,3.53386 5.21228,5.36786 1.75084,1.96111 3.44701,3.97129 5.23631,5.89787 1.65327,1.55232 3.00077,3.33486 4.28181,5.19625 1.48856,1.78895 2.58326,3.84899 3.93749,5.73312 1.3173,1.86108 2.98172,3.42584 4.36048,5.23497 1.21294,1.5603 2.68169,2.86752 3.84565,4.46813 1.00282,1.47205 2.08061,2.86982 3.10323,4.32514 0.87081,1.30129 1.55606,2.72496 2.57833,3.91247 0.84872,1.2214 1.53191,2.51809 2.41094,3.71785 0.74334,1.27889 1.71337,2.36701 2.40302,3.70699 0.53263,1.60807 0.88411,1.69178 1.64971,3.68146 0.9514,1.96011 1.77304,3.97567 2.75697,5.92074 1.31818,2.49801 2.92145,4.83309 4.2702,7.31473 1.16972,1.87102 2.44607,3.68266 3.55474,5.59049 1.03832,1.43496 1.98173,2.93256 3.03125,4.36348 0.79683,1.6288 1.73314,2.73554 2.53154,4.41902 0.5619,1.6584 1.62719,3.09088 2.56496,4.55634 1.29596,2.46026 2.63311,4.90435 4.31832,7.12345 2.01118,2.64075 3.64432,5.52039 5.29862,8.38848 2.24789,3.51991 4.38101,7.11382 6.49844,10.71399 2.10682,3.49319 4.64012,6.69293 6.78999,10.16002 1.94117,2.64452 3.62413,5.45778 5.34728,8.24518 1.26689,2.05722 2.97831,3.77448 4.34744,5.75229 0.69458,1.36763 1.22083,2.52601 1.9334,3.79771 0.773,1.82639 0.3006,0.56727 1.61029,2.46073 0.77993,1.34596 0.91263,1.77171 1.91479,3.22379 1.45612,2.5162 3.01872,4.97973 4.68524,7.36356 2.39542,3.8904 4.37026,8.00567 6.59487,11.98941 1.88372,3.76728 4.25375,7.2547 6.31521,10.92201 1.83675,3.16967 3.61699,6.3816 4.94455,9.80147 0.95549,1.69543 1.85735,3.39838 2.44486,5.25813 0.32257,0.33411 0.33164,3.92688 0.4571,2.93137 0.85197,1.70496 1.1442,3.62872 1.37663,5.50037 -0.1045,1.56578 0.51,2.78975 1.01196,4.21473 0.56025,1.6402 0.71595,3.36877 0.79447,5.08796 -0.1474,2.18984 0.56562,4.24235 0.97002,6.37155 0.91541,2.4083 1.5517,4.90128 2.32395,7.35683 0.89954,2.99455 1.88571,5.94999 2.61261,8.99618 0.63076,1.47515 1.32206,2.90749 1.80421,4.44214 0.36537,0.98498 0.2692,2.04665 0.42576,3.06067 0.0225,0.14563 -0.1251,-0.51624 0.002,-0.44204 0.18336,0.10686 0.16436,0.39134 0.24654,0.58702 0.69104,1.77553 1.02031,3.65103 1.25808,5.53225 0.45598,-0.0827 1.19919,2.64856 1.38258,3.33444 0.27253,1.19087 0.35619,2.40685 0.3763,3.62442 -0.0397,0.2658 0.0957,4.23899 -0.0434,1.95138 0.65035,1.17976 1.09686,2.42922 1.39794,3.7396 0.99367,4.07404 -1.04851,-1.50537 0.8938,2.21526 0.19609,0.52237 1.75196,4.22509 0.58426,1.67979 1.16213,1.5702 2.00011,2.98454 1.49788,5.11704 -0.14021,0.59534 -0.69295,1.00805 -1.03942,1.51208 0.0701,-0.0592 0.14019,-0.11832 0.21029,-0.17748 0,0 -5.36113,-3.73224 -5.36113,-3.73224 l 0,0 c 0.21943,-0.27366 0.43886,-0.54733 0.65829,-0.82099 -0.21799,0.38202 -0.59715,0.7099 -0.65398,1.14605 -0.32414,2.48747 0.48708,2.67427 -0.13141,1.37007 -0.86569,-1.05943 -1.24141,-2.22084 -1.57811,-3.09373 -0.60693,-1.20125 -1.5211,-2.31093 -1.45293,-3.74827 -0.22759,-0.98435 -0.62682,-1.85294 -1.09049,-2.75909 -0.36628,-1.45451 -0.52833,-2.77419 -0.42445,-4.26708 -0.0186,-0.7434 -0.0366,-1.48409 -0.20818,-2.21252 -0.21764,-1.42677 -1.30975,-2.56916 -1.50393,-4.01015 -0.18951,-1.32356 -0.39279,-2.64925 -0.83701,-3.91602 -0.48137,-1.19835 -0.78401,-2.41761 -0.84453,-3.70535 -0.54226,-1.67035 -1.46438,-3.16448 -1.96373,-4.85451 -0.73661,-2.90032 -1.6691,-5.73189 -2.52331,-8.59622 -0.84262,-2.70777 -1.57522,-5.44003 -2.50056,-8.12187 -0.44287,-2.43407 -1.2269,-4.82601 -1.04341,-7.33082 -0.0296,-1.08037 -0.0991,-2.17633 -0.44132,-3.20937 -0.59173,-1.81321 -1.41543,-3.56105 -1.32359,-5.52723 -0.18541,-1.46996 -0.4005,-2.93738 -1.08503,-4.27356 -0.24747,-1.07362 -0.37668,-2.08441 -0.53097,-3.16156 -0.28846,-1.71669 -1.82502,-3.05129 -2.30986,-4.6959 -1.19195,-3.12784 -2.93069,-6.01449 -4.56675,-8.92357 -2.06599,-3.6745 -4.46453,-7.15584 -6.35226,-10.93152 -2.11198,-3.80081 -4.00591,-7.71179 -6.22237,-11.45628 -1.68301,-2.44765 -3.28821,-4.96391 -4.73639,-7.55577 -0.63096,-0.99956 -1.05953,-2.13008 -1.7808,-3.06657 -0.71459,-1.01488 -1.57646,-1.95581 -2.02742,-3.12323 -0.48642,-1.10341 -1.17662,-2.11426 -1.61832,-3.2367 -1.25365,-2.10042 -3.37553,-3.67046 -4.48628,-5.89613 -1.74774,-2.78103 -3.41207,-5.61418 -5.38294,-8.24851 -2.1681,-3.51191 -4.78277,-6.71791 -6.87537,-10.27841 -2.13417,-3.61834 -4.28084,-7.23006 -6.51258,-10.78887 -1.51568,-2.64865 -3.00006,-5.31513 -4.85877,-7.7464 -1.74406,-2.38047 -3.27692,-4.90453 -4.59376,-7.54738 -1.09387,-1.75727 -2.30926,-3.48871 -2.99856,-5.45343 -0.30359,-1.15624 -1.49949,-1.94213 -1.78752,-3.12666 -1.22879,-1.63611 -2.30707,-3.36598 -3.48527,-5.03678 -1.0631,-1.97685 -2.52108,-3.74941 -3.6405,-5.69847 -1.36253,-2.55621 -3.07315,-4.92015 -4.37927,-7.51 -1.06857,-2.18707 -2.01309,-4.42792 -3.01528,-6.64488 -0.28084,-1.01468 -1.13556,-2.19939 -1.29391,-2.89925 -0.52419,-1.01968 -1.29817,-1.81945 -1.85019,-2.80788 -0.80303,-1.07869 -1.51679,-2.20626 -2.16415,-3.38423 -1.15353,-1.38615 -2.0441,-2.93831 -2.99721,-4.46542 -0.87888,-1.45102 -2.08681,-2.71528 -2.98729,-4.16247 -1.12183,-1.58178 -2.68845,-2.79804 -3.81257,-4.39125 -1.31729,-1.89537 -3.21935,-3.35837 -4.44765,-5.33755 -1.34898,-1.92391 -2.48732,-3.98037 -3.97525,-5.8048 -1.11333,-1.60626 -2.22737,-3.14829 -3.69557,-4.46348 -1.79289,-1.94026 -3.54514,-3.91655 -5.2796,-5.90919 -1.75959,-1.93441 -3.527632,-3.85341 -5.415189,-5.66171 -0.829657,-1.10893 -1.933112,-1.94665 -2.759603,-3.03915 -1.307526,-1.24876 -2.404385,-2.69 -3.53192,-4.10859 -0.825935,-1.56818 -2.137743,-2.87764 -3.013477,-4.42514 -0.776328,-1.58255 -1.880641,-2.95586 -2.736109,-4.49752 -1.015188,-1.59604 -1.899812,-3.2757 -2.695205,-4.99433 -1.16533,-1.82912 -2.139267,-3.76508 -3.439675,-5.50827 -0.962368,-1.70654 -1.864163,-3.45432 -2.690653,-5.22766 -0.503117,-1.1813 -1.17138,-2.33243 -1.841271,-3.41535 -1.095669,-1.62977 -1.897983,-3.40331 -2.684806,-5.1992 -0.29584,-1.31391 -1.237531,-2.30759 -1.720266,-3.54928 -0.659207,-1.40972 -1.656919,-2.61745 -2.303518,-4.0405 -1.048325,-1.91898 -2.007934,-3.87261 -3.131303,-5.75366 -1.040047,-2.43483 -2.267665,-4.78874 -3.266339,-7.24398 -0.792333,-2.11962 -2.049042,-4.03274 -2.822126,-6.1675 -0.449186,-1.65809 -1.43954,-3.10976 -1.847052,-4.78963 -0.942891,-2.01751 -1.793445,-4.04994 -2.516579,-6.15667 -0.783707,-2.00391 -1.442402,-4.08253 -2.080844,-6.1284 -0.539267,-1.74683 -1.48963,-3.3617 -1.765605,-5.19425 -0.697718,-2.37176 -1.635825,-4.65808 -2.235071,-7.0571 -0.802183,-2.08441 -1.522645,-4.19079 -2.095501,-6.35077 -0.08808,-1.10425 -0.274679,-2.1659 -0.84885,-3.13545 -0.555065,-1.28768 -0.835725,-2.61742 -1.292949,-3.92611 -0.991602,-1.63647 -1.737461,-3.36305 -2.497318,-5.1123 -0.705303,-1.79899 -1.238697,-3.6568 -2.009813,-5.43491 -0.248773,-1.45858 -1.012773,-2.68774 -1.707932,-3.97743 -0.443684,-1.58051 -1.667536,-2.88044 -2.015968,-4.502661 -0.744259,-1.839141 -1.331271,-3.697447 -1.804123,-5.62164 -0.935569,-2.396765 -1.843048,-4.795813 -2.71747,-7.214262 C 29.462549,84.08697 28.742208,81.055882 27.867663,78.077985 26.611556,74.400975 25.772886,70.605219 24.324341,66.990273 22.914942,62.906294 21.547697,58.810706 19.944362,54.796641 18.097461,49.937114 16.514348,44.975758 14.934236,40.024467 13.025868,34.641362 11.130278,29.254167 9.1780214,23.886721 7.0903437,18.030106 5.1266089,12.078865 4.1480592,5.9229258 3.3983523,1.5818358 2.9761601,-2.7768786 3.2210939,-7.1873069 c 0,0 6.5706969,0 6.5706969,0 z"
         id="path3015"
         style="fill:#de2d26;fill-opacity:1;fill-rule:nonzero;stroke:none" />
    </g>
    <path
       style="fill:#fee0d2;fill-opacity:1;fill-rule:nonzero;stroke:none"
       id="path2989"
       d="m 145.48594,-15.572544 c 1.16586,2.66868 3.09889,4.847563 5.07866,6.9400008 3.7001,3.4041426 7.6555,6.5099671 11.50229,9.7427997 4.43112,3.4806408 8.68382,7.1821141 13.12539,10.6478735 3.4597,2.798014 7.17546,5.266161 10.52543,8.196724 2.07778,1.62426 3.8868,3.582105 5.97752,5.185026 1.46383,1.213134 2.90676,2.500821 4.4939,3.553416 2.06535,1.46195 4.19463,2.818717 6.20785,4.354559 2.22865,1.620332 4.52363,3.143486 6.7638,4.746948 2.21267,1.410192 4.31877,2.97687 6.5936,4.288226 2.16706,1.307211 4.41108,2.483794 6.75147,3.448826 2.72712,1.223969 5.50949,2.319206 8.28551,3.426076 2.87926,1.263862 5.8383,2.31083 8.63504,3.757272 2.4581,1.406545 5.0207,2.587107 7.5847,3.780866 2.84736,1.120029 5.605,2.428822 8.40029,3.664301 3.04901,1.453806 6.05298,2.992218 9.05072,4.549649 2.93384,1.430746 5.87972,2.840073 8.86207,4.169004 3.45005,1.537845 6.8348,3.243864 10.32714,4.685552 3.70449,1.717092 7.53648,3.112964 11.34939,4.56135 3.88307,1.519289 7.729,3.117465 11.52298,4.847631 4.22948,2.120169 8.3779,4.397255 12.57049,6.589189 4.3083,2.229451 8.51947,4.639279 12.79733,6.92654 4.574,2.389187 9.20352,4.643875 13.59002,7.368795 4.5539,2.8476 8.87766,6.04015 13.02107,9.45279 3.62796,3.09138 7.47783,5.88599 11.43748,8.53241 3.75316,2.48795 7.5559,4.88231 11.25618,7.45 3.80407,2.70433 7.69086,5.28023 11.49381,7.98683 3.62581,2.73128 7.47135,5.1475 11.25389,7.651 3.37997,2.33282 6.73435,4.7028 10.14356,6.9929 3.39204,2.34394 6.86777,4.5633 10.22389,6.95898 2.98236,2.13789 5.99126,4.23945 8.95346,6.40529 2.45755,1.61137 4.85374,3.32237 7.15376,5.15054 1.85098,1.59172 3.72317,3.1474 5.39907,4.92666 1.74386,2.19216 3.31841,4.50475 4.61862,6.98488 1.24684,2.59237 2.71988,5.05746 4.17127,7.53641 1.50114,2.71197 3.35465,5.18131 5.1813,7.67458 2.26215,2.90394 4.44502,5.85946 6.51413,8.90374 1.88917,2.85904 3.98635,5.56147 6.05046,8.29274 2.00961,2.74615 4.24834,5.30722 6.56076,7.79913 2.22143,2.35396 4.51424,4.63904 6.80254,6.9276 2.54281,2.3502 5.30463,4.43473 8.01667,6.58034 3.23314,2.4198 6.54728,4.71545 9.69506,7.24766 3.63379,2.66653 7.1025,5.54733 10.69263,8.2718 3.76706,2.79968 7.57529,5.55312 11.3031,8.40731 4.15785,2.92411 8.17401,6.02551 12.17188,9.16243 4.62484,3.50669 8.72587,7.61055 12.9124,11.61111 3.9746,4.09478 7.93699,8.1987 11.85921,12.34426 4.36953,4.39842 8.24399,9.23129 12.05008,14.11285 4.06824,5.02048 8.00682,10.14472 12.11486,15.1327 3.87344,4.75785 8.28857,9.01489 12.57332,13.39083 3.94052,3.98263 7.82279,8.02008 11.61596,12.14293 2.80124,3.12575 5.69257,6.16464 8.32834,9.43276 1.61526,1.85851 3.00623,3.904 4.6892,5.70074 1.11873,1.29743 2.08763,2.71022 3.1549,4.04867 -0.3217,-0.81331 1.75072,3.0175 1.21719,2.32446 -0.18475,-0.23998 -0.40201,-0.50975 -0.4065,-0.81258 -8.5e-4,-0.0571 0.66276,0.93029 0.69519,0.97798 0.74758,0.9859 1.44019,1.99179 2.15829,3.00132 1.24788,1.47499 2.12479,3.21152 3.24416,4.77198 1.35612,1.94832 2.48979,4.02956 3.65209,6.09487 1.45029,2.69953 2.52723,5.56973 3.67638,8.40309 1.375,3.54928 2.91643,7.02722 4.41239,10.52707 1.5276,3.81678 3.46958,7.44105 5.22713,11.15255 1.63981,3.66258 3.72919,7.09229 5.61387,10.62837 1.41041,2.62955 3.08612,5.1 4.55025,7.69791 1.27034,2.15603 2.34936,4.41514 3.55866,6.60499 0.601,1.33523 1.24944,2.61523 2.10279,3.8076 1.00815,1.58673 2.28518,2.98473 3.37543,4.52986 1.8902,2.61175 3.85445,5.17293 5.84961,7.706 1.879,2.38383 3.86704,4.68607 5.57252,7.20056 1.33928,1.80904 2.68376,3.61665 3.88696,5.52047 1.01472,1.37529 1.64626,2.97379 2.56892,4.40276 0.75559,1.47855 1.53262,2.9448 2.25925,4.43884 0.93728,1.72084 1.54533,3.59855 2.48445,5.31521 0.93707,2.09965 2.3117,3.93401 3.77004,5.69329 1.16624,1.27737 2.12171,2.7312 2.91817,4.26264 0.62728,1.11029 -0.7972,-0.69131 -1.025,-1.1521 -0.15543,-0.3144 0.53841,0.45032 0.79259,0.69197 0.26573,0.25263 1.47707,2.44233 1.04414,1.4065 0.84176,0.77049 1.33013,1.83477 1.72474,2.88268 0.20276,0.53736 0.31889,1.0943 0.37553,1.66384 -8.93564,0.0189 -8.75393,-2.83182 -7.46687,1.66995 -3.26302,-4.66524 3.33463,-9.27985 6.59765,-4.61461 l 0,0 c 1.80913,5.12047 1.54316,2.69736 -7.16604,3.45281 0.0127,0.12088 0.0894,0.5835 0.097,0.59005 -0.13501,-0.4592 0.28524,0.17935 0.27465,0.16773 -0.89087,-0.97726 0.14749,0.22455 -0.89351,-1.00279 -2.18372,-3.29929 2.82874,3.53411 -1.51524,-2.0746 -0.51548,-1.03 -1.18149,-1.98218 -1.96975,-2.82201 -1.79504,-2.18606 -3.49013,-4.46885 -4.67634,-7.05312 -0.94823,-1.83057 -1.66442,-3.75765 -2.62067,-5.58508 -0.57462,-1.21215 -1.24651,-2.37451 -1.79188,-3.60002 -0.92053,-1.45333 -1.61104,-3.03037 -2.59512,-4.44408 -1.15657,-1.84571 -2.48779,-3.57213 -3.76604,-5.33417 -1.54837,-2.36743 -3.49821,-4.44828 -5.20675,-6.69698 -2.08561,-2.65137 -4.14181,-5.32986 -6.11611,-8.06463 -1.09395,-1.57501 -2.40018,-2.98271 -3.42328,-4.59888 -0.95505,-1.42073 -1.84204,-2.89186 -2.51157,-4.47059 -1.19963,-2.17657 -2.27509,-4.41878 -3.53469,-6.56186 -1.47287,-2.65627 -3.22582,-5.14804 -4.63054,-7.84493 -1.94246,-3.6489 -4.09831,-7.187 -5.78474,-10.96828 -1.80128,-3.80523 -3.79049,-7.52197 -5.35465,-11.43589 -1.51349,-3.54773 -3.07092,-7.07422 -4.47103,-10.66806 -1.01786,-2.5189 -1.97045,-5.06885 -3.23269,-7.48047 -1.03819,-1.85068 -2.04296,-3.71908 -3.25782,-5.46336 -1.05909,-1.56508 -1.98255,-3.21818 -3.1838,-4.68579 -0.75732,-1.06819 -1.46397,-2.1303 -2.26545,-3.15604 -0.39643,-0.59383 -1.30187,-1.63112 -1.13068,-1.97895 -0.942,-1.1829 -1.81841,-2.41382 -2.76373,-3.59365 -1.7928,-1.94922 -3.34157,-4.09982 -5.05272,-6.12127 -2.52332,-3.13399 -5.30895,-6.03383 -7.98647,-9.03569 -3.73283,-4.06371 -7.56256,-8.03452 -11.4416,-11.95916 -4.44623,-4.54107 -9.02037,-8.96615 -13.03633,-13.90632 -4.15147,-5.04451 -8.13793,-10.22159 -12.24849,-15.29947 -3.64846,-4.67949 -7.3546,-9.31866 -11.54912,-13.52999 -3.82931,-4.04737 -7.6992,-8.05258 -11.57308,-12.05671 -3.99779,-3.82021 -7.9035,-7.75013 -12.32063,-11.0983 -3.97332,-3.11869 -7.9673,-6.1979 -12.09917,-9.10604 -3.7156,-2.85128 -7.51707,-5.59494 -11.27589,-8.38654 -3.64806,-2.77451 -7.18029,-5.69689 -10.87263,-8.41264 -3.126,-2.52179 -6.43936,-4.78032 -9.64044,-7.20404 -2.95538,-2.33912 -5.96471,-4.61492 -8.71408,-7.20126 -2.35965,-2.35995 -4.72358,-4.71672 -7.01259,-7.14573 -2.49504,-2.69215 -4.90998,-5.45944 -7.08261,-8.42218 -2.14213,-2.83971 -4.31861,-5.64994 -6.284,-8.61861 -2.016,-2.96632 -4.14864,-5.84122 -6.35091,-8.67243 -1.98928,-2.71749 -3.99345,-5.42017 -5.63697,-8.36937 -1.52598,-2.61695 -3.07967,-5.217 -4.39681,-7.94962 -0.8848,-1.84646 -2.16234,-3.45001 -3.31867,-5.13074 -1.40532,-1.51305 -3.01602,-2.79143 -4.56437,-4.15297 -2.1827,-1.78108 -4.53262,-3.35664 -6.86708,-4.93064 -2.93512,-2.15118 -5.92274,-4.23065 -8.87952,-6.35182 -3.29027,-2.35495 -6.70874,-4.52175 -10.03359,-6.82706 -3.39236,-2.28139 -6.73523,-4.63492 -10.09657,-6.96156 -3.8576,-2.55431 -7.77909,-5.02022 -11.47815,-7.80497 -3.77674,-2.68808 -7.6376,-5.24532 -11.41529,-7.93164 -3.66269,-2.54161 -7.42954,-4.90753 -11.14314,-7.37297 -4.1801,-2.79933 -8.24908,-5.75016 -12.08348,-9.01305 -3.86432,-3.1924 -7.90619,-6.16813 -12.15586,-8.83057 -4.22756,-2.64338 -8.72457,-4.7734 -13.12877,-7.10217 -4.25566,-2.27588 -8.44592,-4.671881 -12.73114,-6.891539 -4.06486,-2.125333 -8.09051,-4.325769 -12.18208,-6.399217 -3.63555,-1.659551 -7.32179,-3.189848 -11.04289,-4.647069 -3.88922,-1.480859 -7.8005,-2.903833 -11.58113,-4.653613 -3.54709,-1.486078 -7.00407,-3.188952 -10.5111,-4.764814 -3.12981,-1.395207 -6.2215,-2.875128 -9.29921,-4.379847 -2.8529,-1.484956 -5.71251,-2.95057 -8.61333,-4.338693 -2.8312,-1.269946 -5.64247,-2.566756 -8.52605,-3.721642 -2.67464,-1.249837 -5.34916,-2.485408 -7.91844,-3.946024 -2.53294,-1.35245 -5.27863,-2.213795 -7.88351,-3.411463 -2.81289,-1.124371 -5.63465,-2.231116 -8.39876,-3.472292 -2.66199,-1.119338 -5.23793,-2.42701 -7.70831,-3.924627 -2.48166,-1.458909 -4.82227,-3.127337 -7.23085,-4.701237 -2.30482,-1.657215 -4.67681,-3.218033 -6.96665,-4.897321 -1.90005,-1.462355 -3.93411,-2.724207 -5.88297,-4.118356 -1.69966,-1.195653 -3.33366,-2.499758 -4.90592,-3.857313 -2.17642,-1.74211 -4.16389,-3.708567 -6.3235,-5.47366 -3.1966,-2.85749 -6.8576,-5.148627 -10.15427,-7.888333 -4.51247,-3.530884 -8.84745,-7.282285 -13.34869,-10.8288831 -4.08932,-3.4385003 -8.31137,-6.7261604 -12.19655,-10.4006119 -2.64324,-2.8419814 -5.17859,-5.827203 -6.67909,-9.455057 -2.11437,-5.285945 5.36108,-8.276127 7.47546,-2.990182 z"
       inkscape:connector-curvature="0" />
  </g>
</svg>
