<?xml version="1.0" encoding="UTF-8" standalone="no"?>
<!-- Created with Inkscape (http://www.inkscape.org/) -->

<svg
   xmlns:dc="http://purl.org/dc/elements/1.1/"
   xmlns:cc="http://creativecommons.org/ns#"
   xmlns:rdf="http://www.w3.org/1999/02/22-rdf-syntax-ns#"
   xmlns:svg="http://www.w3.org/2000/svg"
   xmlns="http://www.w3.org/2000/svg"
   xmlns:xlink="http://www.w3.org/1999/xlink"
   xmlns:sodipodi="http://sodipodi.sourceforge.net/DTD/sodipodi-0.dtd"
   xmlns:inkscape="http://www.inkscape.org/namespaces/inkscape"
   id="svg2"
   version="1.1"
   inkscape:version="0.48.4 r9939"
   width="232"
   height="412"
   sodipodi:docname="46693-363.svg"
   inkscape:export-filename="/tmp/brokenInterface/data-analysis/data/display-damages-png/46693-363.png"
   inkscape:export-xdpi="107.76"
   inkscape:export-ydpi="107.76">
  <metadata
     id="metadata8">
    <rdf:RDF>
      <cc:Work
         rdf:about="">
        <dc:format>image/svg+xml</dc:format>
        <dc:type
           rdf:resource="http://purl.org/dc/dcmitype/StillImage" />
        <dc:title />
      </cc:Work>
    </rdf:RDF>
  </metadata>
  <defs
     id="defs6" />
  <sodipodi:namedview
     pagecolor="#ffffff"
     bordercolor="#666666"
     borderopacity="1"
     objecttolerance="10"
     gridtolerance="10"
     guidetolerance="10"
     inkscape:pageopacity="0"
     inkscape:pageshadow="2"
     inkscape:window-width="1280"
     inkscape:window-height="732"
     id="namedview4"
     showgrid="false"
     inkscape:zoom="3.26"
     inkscape:cx="132.20481"
     inkscape:cy="50.80778"
     inkscape:window-x="-8"
     inkscape:window-y="-8"
     inkscape:window-maximized="1"
     inkscape:current-layer="svg2" />
  <image
     width="232"
     height="412"
     xlink:href="file:///Users/juls/Documents/UUlm/Projects/2013/BrokenInterfaces/GIT%20Repo/brokenInterface/public-dataset/input/cropped-display/46693-363.png"
     id="image10"
     x="0"
     y="0" />
  <g
     inkscape:groupmode="layer"
     id="layer1"
     inkscape:label="Layer">
    <g
       id="g0"
       inkscape:label="#g3039">
      <path
         inkscape:connector-curvature="0"
         d="m 1.9503271,266.07087 c 0.8070797,0.34555 1.5550489,0.80324 2.2967322,1.26783 0.591934,0.31796 1.1671923,0.67158 1.7115782,1.06619 0.4719932,0.32888 0.9459884,0.65895 1.4068111,1.00474 0.327376,0.19122 0.5934117,0.45444 0.9268618,0.63649 0.2607901,0.15108 0.5077507,0.3227 0.7503017,0.49717 0.2301633,0.1928 0.4914366,0.37417 0.763007,0.5061 0.3145179,0.25383 0.6833469,0.41444 1.0285219,0.61407 0.2999,0.1864 0.582414,0.42886 0.906408,0.57269 0.337111,0.22826 0.696746,0.41502 1.026544,0.65421 0.24742,0.15854 0.499352,0.31192 0.750248,0.47134 0.319344,0.10079 0.605749,0.27417 0.917652,0.39458 0.435152,0.21792 0.889667,0.38022 1.327948,0.59072 0.466213,0.2335 0.953136,0.42055 1.429547,0.63335 0.428267,0.20203 0.859907,0.39777 1.29559,0.58437 0.423978,0.10444 0.811027,0.3058 1.218934,0.45545 0.399047,0.0664 0.77631,0.18468 1.153027,0.33185 0.506222,0.21435 1.043878,0.33028 1.561761,0.50854 0.723146,0.20078 1.431077,0.45045 2.16468,0.61266 0.7685,0.23624 1.554127,0.39922 2.328091,0.61463 0.495707,0.1537 1.003345,0.26113 1.520369,0.30471 0.351952,0.0508 0.644068,0.25146 0.974504,0.36391 0.281789,0.0132 0.544519,0.0796 0.806188,0.18632 0.453781,0.12078 0.899183,0.26879 1.353562,0.38859 0.718788,0.2292 1.427752,0.48965 2.151453,0.703 0.770008,0.19109 1.530708,0.41874 2.285667,0.6625 0.732334,0.19937 1.441181,0.46991 2.141389,0.75981 0.673542,0.22812 1.36292,0.40805 2.037535,0.63327 0.654811,0.19833 1.297065,0.43642 1.954505,0.62544 0.533494,0.13854 1.025168,0.37976 1.560631,0.51233 0.513942,0.17961 1.028468,0.34098 1.524335,0.56561 0.482584,0.24877 0.99492,0.42 1.494986,0.62781 0.516792,0.19364 1.033864,0.3843 1.550003,0.58141 0.582559,0.27894 1.189767,0.48692 1.75766,0.79741 0.622809,0.29411 1.24906,0.57137 1.857358,0.89593 0.651975,0.37904 1.311108,0.74761 1.986313,1.08398 0.768276,0.35588 1.474296,0.82866 2.236441,1.19434 0.73236,0.32402 1.428975,0.71099 2.127791,1.09948 0.5659,0.30447 1.168622,0.51862 1.754396,0.77471 0.536821,0.21896 1.064383,0.45755 1.593572,0.69543 0.497279,0.21248 0.953912,0.49814 1.458658,0.69334 0.492218,0.19663 0.905083,0.53732 1.39481,0.73738 0.433419,0.27352 0.92261,0.42122 1.377789,0.65132 0.380648,0.2049 0.768929,0.39568 1.142877,0.6129 0.382441,0.19331 0.749382,0.40599 1.094621,0.66007 0.322038,0.2127 0.661277,0.39699 0.999834,0.58619 0.528695,0.30958 1.014254,0.68201 1.512677,1.03579 0.522133,0.30239 1.034457,0.62634 1.522365,0.98245 0.448245,0.33375 0.927706,0.61996 1.373902,0.95831 0.428303,0.25333 0.792437,0.59418 1.191264,0.88904 0.388172,0.311 0.781825,0.61466 1.164095,0.93139 0.360762,0.25194 0.710941,0.52594 1.019135,0.8404 0.288386,0.21749 0.524127,0.46253 0.690418,0.78563 0.09805,0.34633 0.403135,0.71409 -0.252628,-0.0631 0.192778,-0.0611 -0.329009,0.0986 -0.359891,0.11824 0,0 1.077861,0.35923 1.077861,0.35923 l 0,0 c -0.135471,0.38786 -0.42605,0.71887 -0.893422,0.64715 -0.872263,-0.74333 -0.450429,-0.22612 -0.589711,-0.55013 -0.107891,-0.22914 -0.334564,-0.33391 -0.512694,-0.52214 -0.232416,-0.30896 -0.63179,-0.48839 -0.918065,-0.74016 -0.354605,-0.30883 -0.743676,-0.58081 -1.103992,-0.88453 -0.404017,-0.29648 -0.770094,-0.64127 -1.203811,-0.89606 -0.442978,-0.33352 -0.917793,-0.61756 -1.362717,-0.94737 -0.481061,-0.35625 -0.99452,-0.66765 -1.508631,-0.97277 -0.464757,-0.33214 -0.919436,-0.67782 -1.40947,-0.97354 -0.376241,-0.21417 -0.747529,-0.42986 -1.1105,-0.66238 -0.319622,-0.23195 -0.659478,-0.41958 -1.010786,-0.60014 -0.340492,-0.21808 -0.715288,-0.37856 -1.069283,-0.57214 -0.432159,-0.21824 -0.901366,-0.35259 -1.309368,-0.61857 -0.474532,-0.20651 -0.895449,-0.49815 -1.359674,-0.72341 -0.526364,-0.20317 -1.004023,-0.49276 -1.521083,-0.71596 -0.524755,-0.24143 -1.050423,-0.47606 -1.585139,-0.69312 -0.610856,-0.2795 -1.256983,-0.48632 -1.847163,-0.81713 -0.679232,-0.37803 -1.358095,-0.75077 -2.069994,-1.06615 -0.765693,-0.37162 -1.479518,-0.83879 -2.25031,-1.2021 -0.683206,-0.34257 -1.35212,-0.71401 -2.011269,-1.10053 -0.614218,-0.32659 -1.248874,-0.60163 -1.874169,-0.90587 -0.515232,-0.29125 -1.080014,-0.46266 -1.606476,-0.73048 -0.531588,-0.2 -1.061394,-0.39925 -1.593121,-0.5977 -0.502345,-0.22177 -1.028743,-0.39008 -1.518992,-0.64041 -0.431652,-0.19625 -0.880616,-0.32932 -1.325144,-0.49662 -0.551358,-0.13555 -1.060881,-0.37127 -1.607029,-0.51955 -0.672566,-0.19674 -1.331504,-0.43595 -2.002562,-0.63841 -0.696988,-0.23854 -1.414589,-0.41509 -2.108736,-0.66242 -0.671881,-0.278 -1.35315,-0.53376 -2.055741,-0.72527 -0.746159,-0.24086 -1.497598,-0.46638 -2.258863,-0.65456 -0.71375,-0.21238 -1.414902,-0.46507 -2.121805,-0.69865 -0.50135,-0.13657 -0.994726,-0.29611 -1.492544,-0.44337 -0.177814,-0.0749 -0.425854,-0.1077 -0.73331,-0.16204 -0.245739,-0.0823 -0.476779,-0.19146 -0.709841,-0.30285 -0.587034,-0.0524 -1.165933,-0.16122 -1.730193,-0.33418 -0.754639,-0.20996 -1.521124,-0.36701 -2.269736,-0.59986 -0.778296,-0.17452 -1.531736,-0.43237 -2.296692,-0.65513 -0.523884,-0.19247 -1.079006,-0.30138 -1.593033,-0.52617 -0.373227,-0.1442 -0.73707,-0.24415 -1.131052,-0.32325 -0.428075,-0.15559 -0.832771,-0.36323 -1.276097,-0.47602 -0.444743,-0.18886 -0.881788,-0.39403 -1.321241,-0.59405 -0.479871,-0.22388 -0.978029,-0.40943 -1.451907,-0.64528 -0.41012,-0.1982 -0.838379,-0.34478 -1.242839,-0.55669 -0.381694,-0.14774 -0.738145,-0.34496 -1.117475,-0.49731 -0.276434,-0.17558 -0.522136,-0.34104 -0.809962,-0.51045 -0.277123,-0.20193 -0.584441,-0.35126 -0.860896,-0.55354 -0.349823,-0.1807 -0.676663,-0.4057 -1.001831,-0.62637 C 9.9437505,272.412 9.5318559,272.33854 9.2719199,272.06075 8.9473635,271.88259 8.623559,271.67969 8.3400348,271.4427 8.2017756,271.2776 7.9238379,271.17897 7.7478756,271.04858 7.3648539,270.84132 7.0483315,270.55542 6.6797214,270.3279 c -0.4592135,-0.34115 -0.9280219,-0.67021 -1.398284,-0.99456 -0.5196419,-0.38185 -1.0777916,-0.71132 -1.6449068,-1.01658 -0.685615,-0.42655 -1.3759411,-0.84492 -2.1117162,-1.18211 0,0 0.4255127,-1.06378 0.4255127,-1.06378 z"
         id="path3009"
         style="fill:#de2d26;fill-opacity:1;fill-rule:nonzero;stroke:none" />
      <path
         inkscape:connector-curvature="0"
         d="m 117.73945,349.10761 c 0.53895,0.68235 1.11473,1.33358 1.70012,1.97603 0.5004,0.48734 0.93296,1.05804 1.48334,1.49142 0.35454,0.22256 0.54823,0.65876 0.89883,0.87755 0.34116,0.28839 0.66666,0.5926 0.98181,0.90881 0.31736,0.24778 0.63813,0.49077 0.94555,0.75102 0.36084,0.27498 0.62533,0.64111 0.94348,0.9584 0.32519,0.30519 0.64965,0.61111 0.97164,0.91969 0.29243,0.28496 0.58309,0.57173 0.87185,0.8604 0.32467,0.23545 0.59537,0.5324 0.9144,0.77574 0.46398,0.36487 0.85755,0.80657 1.29999,1.19694 0.58473,0.48838 1.10669,1.04783 1.69733,1.52831 0.5838,0.48784 1.16285,0.98347 1.73998,1.48039 0.56936,0.46704 1.10359,0.97287 1.67594,1.43683 0.4604,0.40484 0.88691,0.84656 1.35073,1.2468 0.28066,0.21205 0.5403,0.43273 0.75626,0.7104 0.20589,0.22854 0.42441,0.4453 0.62208,0.68179 0.21819,0.28496 0.44497,0.57096 0.68163,0.84641 0.38911,0.41141 0.74792,0.84958 1.12959,1.26666 0.38353,0.49686 0.81183,0.95347 1.2179,1.43218 0.30279,0.36315 0.62425,0.71009 0.95105,1.05157 0.12753,0.13295 0.25555,0.26543 0.38421,0.39728 0,0 -0.79963,0.80577 -0.79963,0.80577 l 0,0 c -0.13844,-0.13476 -0.27472,-0.27171 -0.40943,-0.4102 -0.34498,-0.3574 -0.68265,-0.7221 -1.00247,-1.10234 -0.39697,-0.46951 -0.82068,-0.91417 -1.19311,-1.40335 -0.38656,-0.43047 -0.75939,-0.87271 -1.15363,-1.29736 -0.24059,-0.28846 -0.46595,-0.59121 -0.70347,-0.88013 -0.17755,-0.27779 -0.48261,-0.47168 -0.6684,-0.7477 -0.12714,-0.14779 -0.37142,-0.33871 -0.55802,-0.48218 -0.45809,-0.39121 -0.88213,-0.8207 -1.33249,-1.2211 -0.5796,-0.47249 -1.1225,-0.9848 -1.69987,-1.45938 -0.56991,-0.49121 -1.14435,-0.978 -1.72041,-1.46075 -0.59858,-0.49454 -1.13995,-1.05361 -1.72876,-1.56014 -0.42417,-0.37843 -0.80673,-0.7998 -1.24641,-1.15874 -0.34601,-0.2792 -0.66157,-0.59114 -1.01326,-0.86351 -0.28463,-0.28337 -0.56715,-0.5689 -0.8577,-0.84624 -0.32509,-0.31485 -0.65891,-0.62051 -0.98511,-0.93419 -0.29799,-0.29714 -0.54414,-0.6378 -0.87898,-0.89835 -0.33132,-0.28615 -0.69254,-0.53482 -1.02213,-0.82285 -0.26633,-0.28513 -0.56558,-0.53779 -0.85511,-0.79779 -0.33515,-0.27165 -0.60268,-0.60861 -0.92727,-0.89323 -0.58695,-0.48168 -1.08445,-1.06136 -1.61306,-1.60464 -0.61463,-0.6666 -1.21694,-1.34612 -1.76488,-2.0693 0,0 0.91589,-0.68692 0.91589,-0.68692 z"
         id="path3011"
         style="fill:#de2d26;fill-opacity:1;fill-rule:nonzero;stroke:none" />
      <path
         inkscape:connector-curvature="0"
         d="m 108.29178,363.79231 c 0.65624,-0.63543 1.26409,-1.3175 1.94056,-1.93166 0.58184,-0.55465 1.12746,-1.14549 1.68479,-1.72436 0.37889,-0.45826 0.87617,-0.79068 1.29818,-1.20228 0.46544,-0.38955 0.92996,-0.77697 1.44332,-1.10183 0.38419,-0.35042 0.89222,-0.48324 1.33139,-0.72873 0.44481,-0.2168 0.91474,-0.39031 1.34454,-0.63713 0.43805,-0.18936 0.81633,-0.4815 1.23344,-0.70706 0.34742,-0.18572 0.72765,-0.23772 1.11487,-0.25726 0.3264,-0.0231 0.64163,-0.17841 0.9682,-0.26066 0.40019,-0.10194 0.81562,-0.10972 1.22615,-0.11792 0.42939,-0.0341 0.81973,0.16233 1.21163,0.30762 0.19749,0.0518 0.39965,0.0625 0.60245,0.0713 0.18475,0.002 0.36952,0.003 0.55429,0.004 0.0205,2e-5 0.041,-5e-5 0.0616,-7e-5 0,0 0.0236,1.13408 0.0236,1.13408 l 0,0 c -0.0249,7.6e-4 -0.0498,0.002 -0.0746,0.002 -0.20322,0.004 -0.40656,0.005 -0.60975,-0.001 -0.32061,-0.0117 -0.6409,-0.0402 -0.94847,-0.13833 -0.26152,-0.094 -0.51751,-0.24865 -0.7959,-0.236 -0.3242,0.008 -0.6549,0.003 -0.97123,0.0831 -0.39624,0.10027 -0.77795,0.28758 -1.19137,0.29244 -0.22433,0.0109 -0.44071,0.0185 -0.64207,0.13081 -0.4169,0.20239 -0.77188,0.53066 -1.21045,0.69881 -0.44788,0.23951 -0.91597,0.44068 -1.3774,0.65149 -0.42502,0.20711 -0.86924,0.36382 -1.23673,0.67841 -0.44963,0.2853 -0.85404,0.62696 -1.26669,0.96282 -0.41777,0.39175 -0.88297,0.73011 -1.25731,1.16806 -0.57291,0.60203 -1.1389,1.21146 -1.73839,1.78735 -0.70383,0.6357 -1.32044,1.36031 -2.03162,1.98858 0,0 -0.68692,-0.91589 -0.68692,-0.91589 z"
         id="path3013"
         style="fill:#de2d26;fill-opacity:1;fill-rule:nonzero;stroke:none" />
      <path
         inkscape:connector-curvature="0"
         d="m 149.2798,373.9666 c 0.88085,-0.2985 1.75607,-0.61377 2.65989,-0.83728 0.82323,-0.12351 1.62987,-0.32904 2.45005,-0.46993 0.88392,-0.12566 1.77796,-0.14447 2.66921,-0.15772 0.64794,0.0604 1.26256,-0.0815 1.88913,-0.21498 0.38463,-0.0918 0.77593,-0.13517 1.17015,-0.15265 0.41858,0.016 0.80628,-0.14571 1.21627,-0.22768 0.60877,-0.21807 1.22697,-0.37376 1.86762,-0.45957 0.54207,-0.0323 1.05114,-0.22087 1.54935,-0.42115 0.50016,-0.22951 0.96426,-0.51744 1.4404,-0.79053 0.32585,-0.14781 0.64608,-0.33389 0.90081,-0.58747 0.30785,-0.24496 0.60052,-0.50399 0.89467,-0.76382 0.35036,-0.36601 0.73276,-0.69867 1.06942,-1.07952 0.31662,-0.32371 0.58663,-0.69475 0.91793,-1.00336 0.17671,-0.19495 0.28056,-0.43533 0.42105,-0.66169 0.14981,-0.24876 0.19065,-0.54175 0.29205,-0.81132 0.12054,-0.25334 0.23511,-0.50016 0.27095,-0.77975 0.0314,-0.22109 0.0347,-0.44394 0.037,-0.66673 -0.001,-0.29634 -0.004,-0.59268 -0.004,-0.88903 0.009,-0.23441 0.015,-0.48173 -0.0557,-0.61453 -0.14949,-0.28283 -0.22339,-0.58445 -0.35537,-0.87135 -0.14081,-0.36153 -0.30657,-0.71125 -0.51433,-1.04079 -0.23998,-0.41802 -0.43245,-0.8738 -0.71667,-1.26427 -0.24412,-0.39752 -0.46897,-0.80476 -0.68824,-1.21674 -0.24526,-0.39937 -0.52001,-0.77729 -0.73278,-1.1952 -0.27872,-0.37015 -0.48966,-0.76473 -0.61903,-1.20966 -0.0438,-0.19368 -0.21915,-0.40416 -0.33999,-0.69375 -0.11104,-0.33103 -0.12681,-0.68262 -0.13557,-1.02871 -0.002,-0.23305 -0.15113,-0.45647 -0.23802,-0.69039 -0.0853,-0.0706 -0.12898,-1.00859 -0.1352,-0.74133 -0.17574,-0.20334 -0.26798,-0.54039 -0.32865,-0.83264 0.005,-0.30518 -0.13979,-0.52987 -0.24756,-0.80562 -0.0654,-0.33775 -0.15135,-0.56217 -0.29215,-0.84893 -0.11137,-0.27993 -0.20681,-0.54962 -0.35568,-0.81219 -0.13123,-0.34669 -0.25589,-0.67862 -0.40511,-1.01756 -0.10892,-0.38977 -0.22973,-0.7571 -0.38355,-1.13055 -0.12327,-0.33853 -0.17018,-0.68603 -0.3108,-1.00862 -0.18193,-0.4234 -0.32103,-0.86627 -0.5245,-1.28041 -0.24249,-0.46272 -0.38705,-1.0006 -0.69344,-1.42648 -0.27071,-0.41532 -0.5001,-0.85907 -0.70229,-1.31156 -0.22013,-0.39315 -0.47754,-0.76417 -0.69917,-1.15611 -0.27789,-0.43627 -0.49321,-0.90682 -0.71141,-1.37456 -0.15875,-0.46136 -0.40085,-0.88401 -0.57198,-1.3406 -0.20587,-0.34962 -0.36158,-0.72034 -0.5528,-1.07698 -0.16228,-0.37794 -0.36894,-0.73103 -0.55209,-1.09984 -0.15931,-0.36342 -0.35708,-0.6996 -0.47833,-1.08335 -0.19909,-0.40809 -0.39543,-0.817 -0.57095,-1.23608 -0.21657,-0.50379 -0.35803,-1.04483 -0.58215,-1.54361 -0.19696,-0.36366 -0.32169,-0.75288 -0.50144,-1.12268 -0.17745,-0.42999 -0.38155,-0.84829 -0.54024,-1.28633 -0.24561,-0.34147 -0.30054,-0.78547 -0.50152,-1.14211 -0.19229,-0.30942 -0.30669,-0.65077 -0.46827,-0.97421 -0.17439,-0.41761 -0.31196,-0.84419 -0.47868,-1.26649 -0.12119,-0.38966 -0.32373,-0.75257 -0.547,-1.09364 -0.24325,-0.44231 -0.4941,-0.87746 -0.75472,-1.30887 -0.2436,-0.50769 -0.49262,-1.00959 -0.76699,-1.50038 -0.15737,-0.35946 -0.41154,-0.65786 -0.60441,-0.99574 -0.11857,-0.33569 -0.25372,-0.61745 -0.37721,-0.94818 -0.14831,-0.38687 -0.29817,-0.78495 -0.49014,-1.15347 -0.22145,-0.38753 -0.41377,-0.79381 -0.65469,-1.1701 -0.25397,-0.52486 -0.55878,-1.02183 -0.8346,-1.53574 -0.27361,-0.50718 -0.51377,-1.03153 -0.80687,-1.52805 -0.18432,-0.40389 -0.36106,-0.79806 -0.56564,-1.19076 -0.101,-0.33682 -0.303,-0.61439 -0.45307,-0.92922 -0.1544,-0.36575 -0.31634,-0.73258 -0.48294,-1.096 -0.17256,-0.39634 -0.32718,-0.79171 -0.54115,-1.16828 -0.29777,-0.32426 -0.4492,-0.72474 -0.62401,-1.11901 -0.20383,-0.49199 -0.45299,-0.96059 -0.61992,-1.46722 -0.20795,-0.47723 -0.40304,-0.95113 -0.66499,-1.4024 -0.31407,-0.60685 -0.56139,-1.24599 -0.85323,-1.86358 -0.24583,-0.64734 -0.64674,-1.21322 -0.9388,-1.83735 -0.31369,-0.56657 -0.51773,-1.18932 -0.84649,-1.74664 -0.28237,-0.57981 -0.59287,-1.14231 -0.90649,-1.70557 -0.38411,-0.66242 -0.69588,-1.36206 -1.04512,-2.044 -0.43116,-0.62181 -0.79074,-1.27767 -1.12464,-1.9548 -0.23985,-0.65678 -0.62945,-1.23419 -0.97024,-1.83797 -0.23045,-0.49828 -0.49695,-0.97086 -0.66233,-1.49698 -0.1513,-0.3311 -0.28287,-0.65862 -0.47272,-0.96504 -0.21987,-0.33774 -0.30089,-0.73004 -0.4595,-1.09386 -0.13783,-0.41257 -0.34451,-0.79582 -0.506,-1.19874 -0.14088,-0.38886 -0.30882,-0.7691 -0.51488,-1.12853 -0.21967,-0.49934 -0.45709,-0.98961 -0.62832,-1.5093 -0.18706,-0.38216 -0.34589,-0.77519 -0.47824,-1.17947 -0.0896,-0.28559 -0.2336,-0.58871 -0.37428,-0.88977 -0.24425,-0.52992 -0.42978,-1.09041 -0.59217,-1.65106 -0.13661,-0.63879 -0.3744,-1.24779 -0.52021,-1.88458 -0.2066,-0.42239 -0.34416,-0.86295 -0.42836,-1.32438 -0.0649,-0.42151 -0.0727,-0.84826 -0.0773,-1.27377 0.003,-0.16072 -0.15678,-0.41634 -0.24757,-0.71872 -0.11632,-0.48975 -0.11973,-0.99657 -0.12879,-1.49718 -0.008,-0.65635 -0.005,-1.31275 -0.003,-1.96912 -2.3e-4,-0.61669 0.002,-1.23339 0.002,-1.85008 -0.0163,-0.66441 -0.18688,-1.31657 -0.27095,-1.97673 -0.0637,-0.56672 -0.0922,-1.13633 -0.10395,-1.70621 0.0223,-0.40114 0.0121,-0.39717 -0.12199,-0.69144 -0.13549,-0.27307 -0.19738,-0.56919 -0.23629,-0.86912 -0.011,-0.0833 -0.0157,-0.16706 -0.0181,-0.25094 0,0 1.13422,-0.0143 1.13422,-0.0143 l 0,0 c 0.001,0.0117 0.008,0.0911 0.012,0.11501 0.0265,0.19203 0.0554,0.37892 0.14933,0.55199 0.16288,0.37085 0.26363,0.72581 0.22479,1.13557 0.0106,0.5297 0.0467,1.05824 0.10281,1.58512 0.0886,0.70785 0.27422,1.40666 0.27649,2.12145 -5.4e-4,0.61713 8.8e-4,1.23425 -0.001,1.85137 -3.5e-4,0.64994 -0.001,1.29988 0.001,1.94981 0.005,0.39672 0.005,0.79689 0.0755,1.18866 0.10175,0.34462 0.311,0.66387 0.29563,1.03441 0.003,0.36054 0.0133,0.72189 0.0613,1.07966 0.0809,0.44755 0.24788,0.85502 0.42063,1.27528 0.13819,0.61653 0.38678,1.20119 0.50796,1.82197 0.14355,0.50986 0.30796,1.02035 0.53138,1.50028 0.14223,0.32811 0.29275,0.66012 0.41039,0.99519 0.13854,0.40426 0.30871,0.79311 0.4851,1.18199 0.14772,0.44679 0.35288,0.86702 0.53399,1.29964 0.23344,0.40849 0.42272,0.84005 0.5861,1.28076 0.14739,0.39264 0.36285,0.75964 0.4905,1.16078 0.1358,0.31583 0.21155,0.65125 0.38276,0.94818 0.23878,0.38894 0.41588,0.80135 0.59121,1.22272 0.14085,0.44971 0.38224,0.8475 0.57176,1.27669 0.34874,0.62309 0.76001,1.21363 1.00367,1.89217 0.32996,0.67275 0.69488,1.31732 1.11775,1.93795 0.34273,0.67106 0.64673,1.35985 1.02324,2.01188 0.30873,0.55934 0.62009,1.11527 0.8979,1.69066 0.33482,0.59384 0.57614,1.23348 0.89415,1.83677 0.28357,0.62508 0.70216,1.18127 0.93574,1.83187 0.27494,0.59142 0.52118,1.19658 0.80917,1.78147 0.29522,0.5232 0.52984,1.06868 0.76022,1.62262 0.14499,0.47352 0.39974,0.90267 0.57891,1.36351 0.15298,0.36238 0.29415,0.70524 0.564,1.00423 0.23605,0.40911 0.40937,0.84022 0.59676,1.27207 0.15469,0.35728 0.31004,0.71655 0.46677,1.0708 0.14298,0.30271 0.33912,0.57689 0.43951,0.89845 0.18564,0.37399 0.37568,0.73949 0.53451,1.1265 0.3038,0.51077 0.55248,1.05026 0.83536,1.57249 0.26091,0.49509 0.55639,0.97159 0.79668,1.47675 0.24668,0.41275 0.46935,0.839 0.70292,1.25936 0.20091,0.41575 0.38245,0.84585 0.54208,1.27817 0.0893,0.26999 0.21933,0.52284 0.30577,0.79279 0.15165,0.34427 0.47476,0.6124 0.60012,0.97734 0.26776,0.48041 0.52081,0.96708 0.74778,1.46869 0.25151,0.42037 0.50137,0.83986 0.7305,1.27336 0.26395,0.40424 0.50117,0.83794 0.65266,1.29704 0.15703,0.39229 0.28344,0.79205 0.43974,1.18147 0.16211,0.33011 0.28039,0.67551 0.47539,0.98867 0.18504,0.41333 0.31444,0.84992 0.5453,1.24452 0.14637,0.40101 0.3317,0.78572 0.49465,1.17933 0.18624,0.38748 0.3213,0.7921 0.52651,1.17106 0.2102,0.50937 0.37751,1.03757 0.5843,1.54906 0.19048,0.45186 0.40779,0.89012 0.60403,1.33905 0.0997,0.32308 0.27594,0.60355 0.40848,0.91185 0.18213,0.35808 0.37824,0.7081 0.54175,1.07408 0.21429,0.40473 0.40013,0.81968 0.618,1.22329 0.14961,0.42928 0.39683,0.81903 0.53788,1.25214 0.20256,0.4447 0.41111,0.88681 0.67203,1.30081 0.22801,0.42701 0.52875,0.81577 0.74648,1.25035 0.16913,0.39658 0.3762,0.7797 0.61,1.14141 0.31045,0.49161 0.53313,1.03415 0.77242,1.56331 0.20107,0.43138 0.3574,0.88116 0.53782,1.32067 0.14287,0.33364 0.22015,0.67607 0.31792,1.02421 0.15086,0.36212 0.2818,0.72468 0.3725,1.10606 0.13352,0.30075 0.26096,0.6 0.35185,0.91556 0.15977,0.28032 0.27348,0.57367 0.38763,0.8716 0.15179,0.30689 0.27667,0.6151 0.33699,0.95207 0.11122,0.32138 0.30609,0.62049 0.29483,0.97539 0.0472,0.22719 0.10351,0.41995 0.256,0.60583 0.0837,0.2675 0.11647,0.52337 0.15892,0.79861 0.13144,0.34482 0.32591,0.68296 0.31114,1.06211 0.006,0.21974 0.009,0.4444 0.0632,0.65825 0.0402,0.27459 0.38571,0.47967 0.37061,0.77988 0.10629,0.38267 0.33259,0.68831 0.54922,1.01824 0.19024,0.41323 0.49501,0.76212 0.71283,1.16125 0.20097,0.37407 0.40282,0.74545 0.62364,1.10744 0.27968,0.42008 0.5196,0.86683 0.74983,1.3162 0.22251,0.37243 0.42029,0.75938 0.57723,1.16312 0.13016,0.28813 0.20717,0.58899 0.35156,0.86834 0.15542,0.35632 0.18196,0.70567 0.16113,1.08938 0.001,0.29952 0.001,0.59904 6.6e-4,0.89856 -6.8e-4,0.27851 -0.009,0.55731 -0.047,0.83364 -0.063,0.37532 -0.18194,0.72752 -0.35552,1.06694 -0.0907,0.31405 -0.17741,0.67477 -0.37165,0.96185 -0.20122,0.31264 -0.34864,0.66761 -0.64406,0.91796 -0.26765,0.12403 -0.53907,0.7183 -0.80439,0.90215 -0.37346,0.41211 -0.78606,0.7811 -1.17523,1.17662 -0.28367,0.23881 -0.55278,0.49489 -0.84777,0.71925 -0.32572,0.31222 -0.71216,0.57508 -1.12379,0.76017 -0.52125,0.30355 -1.03396,0.61847 -1.5864,0.86454 -0.58784,0.23479 -1.19049,0.44705 -1.82735,0.4955 -0.61887,0.0786 -1.20477,0.25276 -1.7968,0.44614 -0.46109,0.0874 -0.90973,0.26179 -1.38443,0.24128 -0.33146,0.0155 -0.65976,0.0493 -0.98199,0.13366 -0.69806,0.15011 -1.39009,0.30615 -2.1113,0.24746 -0.83199,0.0133 -1.66611,0.0318 -2.49224,0.14013 -0.79275,0.13555 -1.57181,0.3383 -2.36775,0.45592 -0.85258,0.21006 -1.67394,0.51789 -2.51145,0.77867 0,0 -0.42552,-1.06378 -0.42552,-1.06378 z"
         id="path3015"
         style="fill:#de2d26;fill-opacity:1;fill-rule:nonzero;stroke:none" />
      <path
         inkscape:connector-curvature="0"
         d="m 203.99162,389.07723 c 0.89681,-0.55871 1.78735,-1.12595 2.66109,-1.72099 0.88995,-0.5695 1.78095,-1.14212 2.7478,-1.57266 0.793,-0.34314 1.49829,-0.84985 2.24572,-1.27796 0.59531,-0.34161 1.17736,-0.7025 1.77177,-1.04513 0.38418,-0.2245 0.72912,-0.49703 1.0915,-0.75156 0.15056,-0.21374 0.40846,-0.35747 0.55951,-0.56308 0.22478,-0.21533 0.56905,-0.35558 0.74522,-0.61824 0.25795,-0.27471 0.57852,-0.51888 0.74755,-0.86341 0.30331,-0.3822 0.42778,-0.8531 0.61384,-1.2968 0.14982,-0.56532 0.37619,-1.10759 0.51884,-1.6749 0.0791,-0.64983 0.25657,-1.28007 0.39022,-1.91964 0.10164,-0.55378 0.12541,-1.11674 0.13698,-1.67829 -0.0196,-0.58542 0.17084,-1.14725 0.29284,-1.71334 0.0143,0.003 0.0802,-0.45236 0.0898,-0.44954 1.16456,0.34149 1.21416,0.0427 0.98595,0.57735 -0.2341,0.72093 -0.47017,1.44332 -0.70273,2.16604 -0.36342,1.18359 -0.67789,2.37998 -0.98775,3.57867 -0.31093,1.12163 -0.63447,2.24265 -0.88678,3.37929 -0.24742,0.87135 -0.46724,1.74908 -0.59391,2.64657 -0.0799,0.59583 -0.39495,1.19092 -0.34,1.79928 0.0927,0.6324 0.17188,1.2659 0.22298,1.90309 0.15097,0.49047 0.27732,0.98502 0.35156,1.49292 0.0251,0.40028 0.21129,0.76296 0.32327,1.14363 0.0861,0.28616 0.11145,0.58511 0.12389,0.88219 6.5e-4,0.18846 0.007,0.37738 -2.3e-4,0.56578 -0.22384,0.41238 -0.99836,0.24034 -1.28032,-0.0656 0,0 0.86306,-0.74969 0.86306,-0.74969 l 0,0 c 0.5262,0.62388 0.54263,0.60955 -0.7187,0.80315 -0.004,-0.17147 0.004,-0.34311 -0.002,-0.51459 -0.005,-0.20066 -0.024,-0.40448 -0.0805,-0.59743 -0.12901,-0.43362 -0.34013,-0.8472 -0.36347,-1.30675 -0.0722,-0.53241 -0.24497,-1.03806 -0.36113,-1.56131 -0.0533,-0.65695 -0.14635,-1.3086 -0.22584,-1.96259 -7e-4,-0.68204 0.18028,-1.33269 0.34775,-1.99122 0.12835,-0.92865 0.33986,-1.8401 0.60065,-2.74051 0.25779,-1.14824 0.57502,-2.28364 0.89318,-3.41632 0.31349,-1.22283 0.63475,-2.44253 1.01019,-3.64795 0.25114,-0.7632 0.50057,-1.52628 0.77082,-2.28247 0.22124,-0.37811 0.0494,-0.12003 1.17032,0.0954 0.005,0.001 -0.0873,0.47856 -0.0899,0.48986 -0.10367,0.49727 -0.27748,0.98936 -0.26412,1.50157 -0.0149,0.63168 -0.0425,1.2653 -0.16061,1.88766 -0.13699,0.65686 -0.31349,1.30416 -0.40225,1.9701 -0.16149,0.6205 -0.39463,1.2193 -0.574,1.8343 -0.20276,0.48103 -0.34568,0.99672 -0.6735,1.41218 -0.23993,0.40534 -0.55309,0.7515 -0.89859,1.06986 -0.24044,0.24736 -0.50934,0.47806 -0.79657,0.66867 -0.19849,0.18077 -0.42197,0.4371 -0.70939,0.68986 -0.39264,0.25548 -0.74697,0.5714 -1.16092,0.79889 -0.59411,0.34874 -1.17751,0.71239 -1.77438,1.05679 -0.782,0.44684 -1.51874,0.97834 -2.35116,1.33159 -0.9047,0.39876 -1.72789,0.95205 -2.5617,1.47866 -0.89266,0.60602 -1.8007,1.18649 -2.72544,1.74196 0,0 -0.58998,-0.98331 -0.58998,-0.98331 z"
         id="path3017"
         style="fill:#de2d26;fill-opacity:1;fill-rule:nonzero;stroke:none" />
      <path
         inkscape:connector-curvature="0"
         d="m 179.72649,405.31171 c 0.29111,1.42325 0.70509,2.81203 1.1097,4.20578 0.37695,1.20132 0.73613,2.4083 1.0057,3.63863 0.12895,0.66462 0.29558,0.71026 -1.06023,0.43914 -0.0285,-0.006 -0.16458,-0.55489 -0.22258,-0.7763 -0.48813,-1.72164 -0.88886,-3.46537 -1.22209,-5.22324 -0.1784,-0.91546 -0.26909,-1.84377 -0.39523,-2.76674 0.39762,-0.0426 0.79965,-0.20079 1.19284,-0.12791 0.14134,0.0262 0.1327,0.2551 0.19424,0.385 0.41053,0.86668 0.78092,1.75373 1.17695,2.62717 0.55585,1.21947 1.11674,2.43704 1.62629,3.67685 0.27769,0.71941 0.47249,0.62212 -0.85926,0.691 -0.009,4.5e-4 -0.0356,-0.13704 -0.0891,-0.39209 -0.17866,-0.48831 -0.34862,-0.97909 -0.49853,-1.47711 -0.0987,0.39059 0.67979,-0.42701 1.06566,-0.48987 0.13176,-0.0215 0.50689,0.99957 0.55953,1.16046 0.35077,0.77254 0.17261,0.0276 -0.3247,0.21888 -0.18858,0.0725 -0.25779,0.31117 -0.38668,0.46676 -0.10257,-0.80855 -0.23945,-1.60954 -0.3926,-2.4106 -0.12053,-0.68952 -0.45596,-0.96212 0.91069,-0.51176 0.0815,0.0269 -0.014,0.17144 -0.0107,0.25717 0.005,0.1231 0.0231,0.24529 0.0347,0.36794 0.10777,0.95467 0.20122,1.91077 0.2815,2.86812 0.0146,0.17808 0.0287,0.3562 0.0408,0.53447 0,0 -1.1328,0.094 -1.1328,0.094 l 0,0 c -0.0173,-0.17452 -0.0346,-0.34904 -0.0519,-0.52355 -0.096,-0.96419 -0.19479,-1.92809 -0.29081,-2.89227 -0.0135,-0.25264 -0.0666,-0.89165 0.01,-0.93827 1.25935,-0.76959 1.16531,-0.27998 1.3442,0.52355 0.16809,0.85127 0.31015,1.70329 0.3942,2.56707 -0.12506,0.22342 -0.15477,0.53997 -0.37519,0.67025 -0.60633,0.3584 -0.99561,-0.57914 -1.13813,-0.93385 -0.27944,-0.8436 -0.60062,-0.69829 0.48416,-1.51908 0.0448,-0.0339 0.0464,0.1023 0.0696,0.15346 0.16871,0.53144 0.36285,1.05362 0.5313,1.58481 0.004,0.0182 0.11246,0.55449 0.10393,0.56087 -1.12298,0.83995 -1.03033,0.5369 -1.34423,-0.18383 -0.52326,-1.22258 -1.08231,-2.4291 -1.63164,-3.64004 -0.38842,-0.86326 -0.75189,-1.73787 -1.14206,-2.60014 -0.054,-0.11946 -0.25316,-0.25288 -0.17036,-0.35455 0.2347,-0.2882 0.62885,-0.39639 0.94328,-0.59458 0.16467,0.90497 0.24167,1.82524 0.42958,2.72668 0.3348,1.73371 0.72608,3.45535 1.18619,5.16023 0.0383,0.15668 0.0743,0.31394 0.11482,0.47005 0.0371,0.14283 0.22489,0.32488 0.11805,0.42666 -1.12739,1.07407 -1.0488,0.6041 -1.19545,-0.0197 -0.28409,-1.20356 -0.64633,-2.38538 -1.01402,-3.56571 -0.41347,-1.42556 -0.83659,-2.84637 -1.10216,-4.30922 0,0 1.12286,-0.22457 1.12286,-0.22457 z"
         id="path3019"
         style="fill:#de2d26;fill-opacity:1;fill-rule:nonzero;stroke:none" />
      <path
         inkscape:connector-curvature="0"
         d="m 214.32722,407.5262 c -0.44358,0.97005 -0.74613,2.00403 -1.03331,3.03028 -0.11804,0.42427 -0.30105,0.82312 -0.39485,1.25372 -0.016,0.0736 0.0289,0.24788 -0.0419,0.22206 -0.35477,-0.12946 -0.69757,-0.2896 -1.04636,-0.43439 0.16323,-0.47445 0.19686,-0.97927 0.4458,-1.41837 0.34763,0.17645 0.7593,0.26185 1.04289,0.52936 0.0576,0.0544 -0.21151,1.56405 -0.24689,1.77755 -0.0306,0.41751 -0.17117,0.75666 -0.4865,1.03487 0,0 -0.71226,-0.88784 -0.71226,-0.88784 l 0,0 c -0.0321,0.23458 0.0654,-0.32516 0.0654,-0.33055 0.0215,-0.13574 0.17423,-1.45731 0.24156,-1.46723 0.32651,-0.0481 0.65937,0.0306 0.98905,0.0459 0.26122,-0.56945 -0.25999,1.02494 -0.25442,1.07705 -0.3886,-0.0251 -0.7806,-0.0181 -1.16579,-0.0752 -0.005,-7.3e-4 0.0261,-0.22775 0.0497,-0.3398 0.094,-0.44592 0.26162,-0.86421 0.39557,-1.29885 0.29603,-1.06655 0.60905,-2.1446 1.08844,-3.14401 0,0 1.06378,0.42552 1.06378,0.42552 z"
         id="path3021"
         style="fill:#de2d26;fill-opacity:1;fill-rule:nonzero;stroke:none" />
      <path
         inkscape:connector-curvature="0"
         d="m 170.64405,367.24633 c 0.67903,0.71062 1.30286,1.4707 1.90018,2.25055 0.64967,0.76993 1.22501,1.59071 1.76508,2.43953 0.42277,0.75732 0.75801,1.56215 1.09957,2.35894 0.26903,0.77976 0.52887,1.56503 0.70314,2.37234 0.19103,0.85835 0.43058,1.70273 0.64775,2.55439 0.15687,0.58985 0.24136,1.19367 0.2781,1.80183 0.0134,0.27208 0.0123,0.54454 0.01,0.81685 0.0199,0.29351 -0.0152,0.54558 -0.0925,0.82926 -0.16664,0.26384 -0.27375,0.55064 -0.43273,0.82014 -0.12652,0.15402 -0.18363,0.31044 -0.22747,0.49895 -0.67747,1.51252 -1.59154,-0.65555 -1.71022,-0.94862 -0.41834,-1.16106 -0.43117,-2.40504 -0.58061,-3.616 -0.10221,-1.03893 -0.28706,-2.0589 -0.49696,-3.07982 -0.16056,-0.70407 -0.45563,-1.35977 -0.69283,-2.03762 -0.12533,-0.5275 -0.24018,-1.03743 -0.43716,-1.54119 -0.10735,-0.27086 -0.2031,-0.54155 -0.23862,-0.83148 -0.0512,-0.40617 0.0496,0.0696 0.16001,0.19169 0,0 0.33318,-1.08664 0.33318,-1.08664 l 0,0 c 0.35159,0.11569 0.63569,0.35546 0.63794,0.76561 0.0183,0.18902 0.1111,0.36303 0.17319,0.5444 0.20175,0.51671 0.34499,1.03621 0.45814,1.57979 0.2504,0.72577 0.57326,1.42597 0.73764,2.181 0.2196,1.05153 0.4141,2.10284 0.52305,3.17312 0.13424,1.11336 0.14661,2.255 0.4934,3.33117 0.0685,0.17557 0.12766,0.3552 0.20726,0.52603 0.0248,0.0533 0.0529,0.10522 0.0849,0.15452 0.0305,0.047 0.14858,0.10241 0.10201,0.13354 -0.26592,0.1777 -0.57702,0.27912 -0.87865,0.38548 -0.026,0.009 0.0104,-0.0541 0.0157,-0.0812 0.0682,-0.29633 0.17215,-0.57939 0.35422,-0.82636 0.13292,-0.22135 0.21764,-0.46359 0.36361,-0.67682 0.006,0.33745 -4e-4,-0.35439 0.005,-0.39789 0.002,-0.24687 2.9e-4,-0.49371 -0.014,-0.7403 -0.0309,-0.53528 -0.11354,-1.06569 -0.25413,-1.58373 -0.22147,-0.86597 -0.46713,-1.72437 -0.65608,-2.59864 -0.15607,-0.7352 -0.39876,-1.44766 -0.63667,-2.15934 -0.31671,-0.73964 -0.62866,-1.48612 -1.0142,-2.1924 -0.5226,-0.82029 -1.08209,-1.61078 -1.71049,-2.35484 -0.60022,-0.78266 -1.23362,-1.53764 -1.89527,-2.26933 0,0 0.91589,-0.68692 0.91589,-0.68692 z"
         id="path3023"
         style="fill:#de2d26;fill-opacity:1;fill-rule:nonzero;stroke:none" />
      <path
         inkscape:connector-curvature="0"
         d="m -4.6865592,338.11691 c 0.8772735,0.10778 1.7508651,0.23421 2.6322855,0.30597 0.9375059,0.1493 1.87165533,0.30229 2.80068482,0.49649 0.84765768,0.12332 1.67840998,0.29119 2.51002158,0.49367 0.5675675,0.14165 1.1475974,0.1847 1.7298115,0.20489 0.6567977,-0.0301 1.291989,0.053 1.9308503,0.19694 0.4933806,0.11474 0.9976802,0.15427 1.5020374,0.17946 0.5421373,-0.0218 1.0562117,0.039 1.5683877,0.21881 0.3333354,0.12545 0.6849484,0.14591 1.0370624,0.15862 0.837771,0.17481 1.691541,0.23675 2.535216,0.36993 1.001507,0.13687 1.976826,0.40284 2.968883,0.58945 0.701875,0.0565 1.37127,0.26636 2.052279,0.42701 0.515621,0.0481 1.002026,0.18807 1.497567,0.32815 0.573247,0.0789 1.127941,0.22617 1.68937,0.36264 0.576423,0.0973 1.126925,0.29611 1.693036,0.43601 0.49772,0.0736 0.967405,0.24969 1.447232,0.39364 0.489742,0.12092 0.952136,0.34248 1.401734,0.56798 0.608829,0.24089 1.189279,0.54549 1.804397,0.77069 0.846789,0.31765 1.692562,0.6362 2.532349,0.97333 0.747769,0.33306 1.501478,0.65632 2.263266,0.95625 0.618123,0.25082 1.222307,0.53828 1.846868,0.77265 0.632195,0.31092 1.322055,0.45341 1.983583,0.68403 0.632955,0.17835 1.252903,0.39794 1.897104,0.5347 0.646242,0.22836 1.308571,0.39742 1.963386,0.59791 0.641006,0.18957 1.283231,0.37841 1.91414,0.60006 0.789515,0.2443 1.601202,0.42559 2.407858,0.61022 0.843099,0.21131 1.698471,0.36722 2.545357,0.56177 0.97578,0.19091 1.929234,0.46345 2.881354,0.74723 0.906073,0.27308 1.831266,0.48307 2.736116,0.75843 0.437619,0.1619 0.866509,0.33562 1.328191,0.41193 0.411608,0.15609 0.840153,0.27137 1.24602,0.44026 0.485352,0.21643 1.018223,0.29194 1.530365,0.42858 0.654674,0.16655 1.305124,0.354 1.943797,0.57479 0.715337,0.23606 1.438731,0.45263 2.132836,0.74738 0.565299,0.2017 1.118004,0.42931 1.674952,0.6524 0.410884,0.10577 0.777536,0.32934 1.178605,0.46114 0.386282,0.0943 0.765725,0.12291 1.134867,0.28465 0.347613,0.143 0.711435,0.20964 1.065618,0.33926 0.479332,0.0985 0.902335,0.35222 1.368593,0.48711 0.593604,0.23344 1.206805,0.408 1.819854,0.58143 0.853814,0.26193 1.727607,0.434 2.598175,0.62843 0.91421,0.17666 1.819236,0.38457 2.726972,0.59104 0.73649,0.14168 1.450594,0.37325 2.188736,0.50974 0.555814,0.0169 1.068999,0.2249 1.602537,0.35015 0.446575,0.10962 0.905905,0.098 1.354375,0.18921 0.405815,0.12742 0.81073,0.241 1.234531,0.28383 0.56125,0.0121 1.09993,0.17863 1.650136,0.27363 0.79295,0.15487 1.593363,0.29049 2.383107,0.46472 0.902241,0.22159 1.82544,0.31357 2.733699,0.50603 0.88618,0.14227 1.768208,0.291 2.65022,0.46049 0.777736,0.13764 1.536037,0.35549 2.314736,0.49227 0.472684,0.10841 0.913729,0.30929 1.378991,0.44211 0.320867,0.002 0.563081,0.20295 0.831916,0.34324 0.253205,0.0514 0.501542,0.0817 0.752313,0.14781 0.456132,0.16132 0.937782,0.22698 1.417571,0.26827 0.755175,0.009 1.495007,0.17116 2.241649,0.26988 0.633251,0.0897 1.272131,0.12677 1.911011,0.14203 0.50498,0.0129 0.99751,0.0398 1.48825,-0.0842 0.36276,-0.11469 0.73014,-0.20743 1.10744,-0.25728 0.277,-0.0308 0.55585,-0.0297 0.8341,-0.0312 0.28746,3.1e-4 0.57492,9.7e-4 0.86238,0.002 -0.26322,0.002 0.58574,-0.27139 0.64859,-0.30399 0.27682,-0.16733 0.55982,-0.30532 0.87282,-0.38994 0.15898,-0.13118 0.35049,-0.19693 0.50143,-0.33822 0.29095,-0.17501 0.52966,-0.39488 0.81211,-0.5857 0.0957,0.0398 0.55435,-0.40815 0.39513,-0.27149 0,0 1.02066,0.50582 1.02066,0.50582 l 0,0 c -0.17419,0.27762 -0.43946,0.61842 -0.77467,0.7088 -0.23582,0.16154 -0.44656,0.35648 -0.69561,0.49575 -0.28503,0.24706 -0.61928,0.43167 -0.96337,0.58505 -0.25404,0.0676 -0.46298,0.20603 -0.69482,0.33051 -0.36551,0.15665 -0.74179,0.2995 -1.12447,0.4041 -0.28625,-1.3e-4 -0.57249,-0.002 -0.85873,-0.002 -0.23226,-7.3e-4 -0.46516,-8.2e-4 -0.69641,0.0235 -0.3336,0.0356 -0.65147,0.14547 -0.97225,0.2381 -0.59236,0.14323 -1.18341,0.14435 -1.79064,0.11855 -0.68022,-0.017 -1.36044,-0.0522 -2.035182,-0.14468 -0.73075,-0.0976 -1.452353,-0.26245 -2.191535,-0.27169 -0.56331,-0.0519 -1.128838,-0.12939 -1.663291,-0.32369 -0.225499,-0.17336 -0.713912,0.005 -0.938349,-0.22866 -0.347166,-0.18581 -0.216372,-0.21146 -0.604645,-0.25133 -0.42925,-0.11742 -0.839313,-0.2872 -1.26759,-0.40718 -0.786967,-0.13292 -1.551874,-0.35274 -2.336653,-0.49148 -0.88948,-0.1695 -1.778635,-0.31898 -2.671942,-0.46433 -0.912822,-0.19214 -1.841494,-0.28101 -2.7473,-0.50875 -0.770971,-0.1754 -1.554597,-0.30782 -2.329598,-0.4601 -0.526412,-0.0938 -1.038358,-0.25841 -1.575398,-0.26782 -0.467577,-0.0538 -0.922175,-0.15822 -1.369098,-0.30693 -0.433278,-0.13395 -0.929815,-0.0278 -1.364189,-0.19018 -0.514101,-0.12637 -1.005823,-0.31963 -1.542734,-0.33417 -0.753644,-0.13903 -1.484424,-0.3653 -2.235188,-0.51415 -0.907912,-0.20509 -1.813134,-0.41017 -2.727185,-0.58697 -0.89048,-0.20388 -1.785411,-0.38059 -2.659414,-0.65024 -0.617858,-0.17818 -1.23799,-0.35408 -1.835893,-0.59268 -0.485768,-0.1519 -0.933991,-0.3933 -1.431847,-0.50971 -0.379107,-0.14073 -0.775271,-0.20479 -1.144973,-0.37546 -0.318131,-0.16171 -0.703297,-0.0915 -1.033844,-0.24183 -0.417257,-0.14896 -0.803334,-0.36365 -1.232571,-0.47864 -0.564832,-0.22841 -1.128309,-0.45029 -1.700969,-0.65887 -0.666722,-0.29097 -1.373546,-0.47976 -2.059802,-0.71776 -0.609237,-0.21762 -1.234091,-0.39175 -1.860908,-0.54997 -0.572036,-0.15448 -1.166293,-0.24418 -1.704963,-0.4992 -0.287251,-0.16947 -0.670748,-0.1697 -0.959319,-0.3538 -0.511583,-0.0845 -0.995816,-0.25306 -1.479792,-0.43642 -0.900578,-0.27807 -1.828686,-0.46978 -2.729439,-0.75022 -0.929297,-0.277 -1.858527,-0.5476 -2.811637,-0.73193 -0.844382,-0.19835 -1.699268,-0.35374 -2.541394,-0.56211 -0.85056,-0.19433 -1.70634,-0.38635 -2.536792,-0.65149 -0.612747,-0.222 -1.240678,-0.4011 -1.865728,-0.58422 -0.622931,-0.19189 -1.254328,-0.3506 -1.867766,-0.57282 -0.689188,-0.15018 -1.353976,-0.37997 -2.031347,-0.57336 -0.672751,-0.23151 -1.373699,-0.37871 -2.014887,-0.69659 -0.627317,-0.24038 -1.238716,-0.52024 -1.859735,-0.77615 -0.764622,-0.2999 -1.523448,-0.61759 -2.272594,-0.9539 -0.830527,-0.33226 -1.666094,-0.64917 -2.50226,-0.96591 -0.653835,-0.24421 -1.274721,-0.56144 -1.919633,-0.82742 -0.389624,-0.19665 -0.785465,-0.39743 -1.212219,-0.49463 -0.464887,-0.13667 -0.915591,-0.31301 -1.39864,-0.37739 -0.564914,-0.14144 -1.113986,-0.33782 -1.689722,-0.43353 -0.576105,-0.14254 -1.144008,-0.28637 -1.731375,-0.37686 -0.479436,-0.13906 -0.943891,-0.2663 -1.445097,-0.31311 -0.664339,-0.15662 -1.316494,-0.35643 -2.001574,-0.40726 -0.982854,-0.18302 -1.949087,-0.44367 -2.940338,-0.58211 -0.799388,-0.13156 -1.612116,-0.17757 -2.40231,-0.36841 -0.463151,-0.024 -0.926359,-0.0622 -1.3650322,-0.22579 -0.4090712,-0.14424 -0.8090669,-0.16702 -1.2436867,-0.1526 -0.5701959,-0.0259 -1.1399899,-0.076 -1.6977361,-0.20369 -0.5728771,-0.12665 -1.1324256,-0.20245 -1.7224558,-0.16854 -0.6589933,-0.025 -1.3163944,-0.0778 -1.9592643,-0.23487 -0.820938,-0.19826 -1.6415368,-0.35422 -2.47743917,-0.47959 -0.88080347,-0.18703 -1.76718293,-0.32759 -2.65522003,-0.47763 -0.8506397,-0.0685 -1.6973051,-0.17112 -2.5390559,-0.31284 0,0 0,-1.14486 0,-1.14486 z"
         id="path3027"
         style="fill:#de2d26;fill-opacity:1;fill-rule:nonzero;stroke:none" />
      <path
         inkscape:connector-curvature="0"
         d="m 107.81237,363.02345 c 0.65174,-0.14234 1.31341,-0.20057 1.95436,-0.38785 0.46345,-0.11524 0.86953,-0.37886 1.31391,-0.54919 -0.32488,0.20979 0.81054,-0.35253 0.45992,-0.12274 -0.0971,0.0637 -0.1485,0.0439 -0.23012,0.10687 -0.003,-6.1e-4 -0.005,0.002 -0.007,0.004 0,0 1.09915,0.2872 1.09915,0.2872 l 0,0 c -0.0383,0.13575 -0.0149,0.0644 -0.0728,0.21311 -0.18799,0.34227 -0.47858,0.51025 -0.85292,0.58399 -0.47336,0.16331 -0.88761,0.48602 -1.38778,0.58024 -0.67326,0.19723 -1.36458,0.27639 -2.05253,0.40769 0,0 -0.22457,-1.12285 -0.22457,-1.12285 z"
         id="path3029"
         style="fill:#de2d26;fill-opacity:1;fill-rule:nonzero;stroke:none" />
      <path
         inkscape:connector-curvature="0"
         d="m 128.52219,361.87896 c -0.51352,-0.13652 -0.99778,-0.20121 -1.51971,-0.11521 -0.25119,0.0744 -0.56006,0.21097 -0.77519,0.38166 -0.41809,0.25605 -0.82472,0.52694 -1.23519,0.79419 -0.35472,0.26453 -0.67483,0.56522 -1.02014,0.84088 -0.25302,0.255 -0.49885,0.52053 -0.77141,0.75677 -0.30497,0.24921 -0.55153,0.55026 -0.84973,0.80895 -0.3103,0.28059 -0.64777,0.53139 -0.99984,0.75761 -0.31981,0.23287 -0.62109,0.47741 -0.99012,0.62679 -0.32318,0.16387 -0.62467,0.35024 -0.92541,0.55325 -0.47429,0.37372 -1.0023,0.66101 -1.52726,0.95579 -0.33835,0.19289 -0.6963,0.33356 -1.03458,0.51709 -0.51486,0.27879 -1.08553,0.41068 -1.63854,0.58927 -0.6804,0.17702 -1.34378,0.38344 -2.00506,0.6197 -0.26598,0.0902 -0.5332,0.1777 -0.80463,0.25022 -0.25332,-1.18188 -0.6004,-0.99333 -0.0631,-1.18327 0,0 0.37068,1.0808 0.37068,1.0808 l 0,0 c -0.52427,0.17383 -0.14139,0.10738 -0.61302,-0.99161 0.24328,-0.0719 0.4834,-0.15405 0.72313,-0.23683 0.67372,-0.24186 1.3483,-0.46161 2.04297,-0.63803 0.48709,-0.15249 0.99346,-0.25656 1.44723,-0.49697 0.33579,-0.17779 0.68208,-0.32471 1.01367,-0.51259 0.50072,-0.27956 1.00219,-0.55149 1.4535,-0.90838 0.36991,-0.24298 0.74549,-0.47176 1.14586,-0.6607 0.29833,-0.10609 0.50905,-0.37514 0.78673,-0.52674 0.30633,-0.19663 0.59913,-0.40951 0.86698,-0.65532 0.29694,-0.26136 0.54343,-0.56836 0.85431,-0.81375 0.28449,-0.24402 0.53296,-0.5253 0.80329,-0.78472 0.37412,-0.3003 0.72302,-0.62753 1.11171,-0.91062 0.41103,-0.26399 0.81367,-0.53841 1.23345,-0.78901 0.37627,-0.22994 0.78194,-0.46673 1.21636,-0.55494 0.65712,-0.10528 1.28498,-0.058 1.92766,0.12287 0,0 -0.22457,1.12285 -0.22457,1.12285 z"
         id="path3031"
         style="fill:#de2d26;fill-opacity:1;fill-rule:nonzero;stroke:none" />
      <path
         inkscape:connector-curvature="0"
         d="m 140.53548,378.22946 c 0.86237,0.16027 1.73628,0.2282 2.61094,0.27309 1.03866,0.0937 2.06761,-0.0654 3.09713,-0.17962 0.6208,0.002 1.19268,-0.18818 1.78126,-0.35117 0.60293,-0.1106 1.20506,-0.23629 1.78984,-0.42357 0.54602,-0.14386 1.02524,-0.43962 1.54432,-0.6505 0.3033,-0.16554 0.5926,-0.31794 0.85146,-0.52664 0.19781,-0.14641 0.48573,-0.38183 0.60327,-0.51329 0.25035,-0.24985 0.39833,-0.45757 0.64627,-0.68788 0.26126,-0.23918 0.52124,-0.45834 0.84368,-0.6102 0.32363,-0.1416 0.67741,-0.15715 1.02488,-0.16664 0.4655,-0.005 0.93103,-0.002 1.39654,-0.001 0.49487,0.0543 0.95372,-0.10428 1.42938,-0.21177 0.44893,-0.10453 0.91162,-0.0783 1.34576,-0.23396 0.39785,-0.18267 0.83209,-0.24225 1.26358,-0.28167 0.35032,-0.0249 0.70172,-0.0277 1.05277,-0.0261 0.51363,0.005 0.13692,0.005 -0.0652,1.14346 0,0 -0.006,-1.14336 -0.006,-1.14336 l 0,0 c 0.18951,1.13931 0.56781,1.13811 0.0712,1.13989 -0.31622,0.002 -0.63255,0.003 -0.94824,0.0245 -0.34069,0.0316 -0.68185,0.0699 -0.99297,0.22416 -0.48001,0.16334 -0.97169,0.19196 -1.46961,0.27153 -0.55633,0.1244 -1.10556,0.29685 -1.6839,0.23981 -0.45662,-0.002 -0.91326,-0.005 -1.36987,-0.003 -0.19114,0.002 -0.39411,-0.003 -0.57553,0.0624 -0.21441,0.0903 -0.36397,0.26849 -0.54672,0.41366 -0.17122,0.15239 -0.29478,0.34411 -0.47431,0.48921 -0.23593,0.29907 -0.52542,0.53768 -0.83288,0.76326 -0.35477,0.27897 -0.73421,0.49572 -1.13898,0.69788 -0.54848,0.21334 -1.04824,0.54364 -1.62621,0.6861 -0.59877,0.18285 -1.21012,0.32668 -1.82763,0.42829 -0.64544,0.17787 -1.27823,0.38742 -1.95699,0.39796 -1.09189,0.12441 -2.1846,0.28652 -3.28642,0.18558 -0.93018,-0.0485 -1.86123,-0.12073 -2.77561,-0.30725 0,0 0.22457,-1.12285 0.22457,-1.12285 z"
         id="path3033"
         style="fill:#de2d26;fill-opacity:1;fill-rule:nonzero;stroke:none" />
      <path
         inkscape:connector-curvature="0"
         d="m 156.13216,373.13821 c -0.3419,0.83504 -0.60246,1.69555 -0.88154,2.55234 -0.23201,0.78426 -0.4473,1.57483 -0.64492,2.36888 -0.16521,0.70489 -0.19956,1.42912 -0.22182,2.14985 -0.0162,0.64219 -0.0119,1.28457 -0.0121,1.92689 0.0337,0.57884 -0.0585,1.17202 0.0424,1.74457 0.0954,0.55948 0.28711,1.09542 0.52062,1.61117 0.21994,0.60315 0.46803,1.18654 0.82011,1.72524 0.34833,0.62136 0.80324,1.17212 1.24443,1.72907 0.22559,0.31625 0.49999,0.57608 0.82055,0.79324 0.3314,0.11328 0.6342,0.28743 0.96184,0.41033 0.27269,0.0801 0.55268,0.10731 0.83527,0.11639 0.18404,0.005 0.36814,0.007 0.55224,0.007 0.0103,0 0.0205,-1.8e-4 0.0308,-2.7e-4 0,0 0.0377,1.1338 0.0377,1.1338 l 0,0 c -0.0166,6.4e-4 -0.0332,0.002 -0.0498,0.002 -0.20464,0.005 -0.40944,0.005 -0.61408,-6.8e-4 -0.40436,-0.0171 -0.80708,-0.0593 -1.19369,-0.18745 -0.41243,-0.15481 -0.80296,-0.35855 -1.20488,-0.53667 -0.41153,-0.28263 -0.77833,-0.62198 -1.07721,-1.02362 -0.46422,-0.5867 -0.94755,-1.16419 -1.31221,-1.82005 -0.37534,-0.59223 -0.66794,-1.2212 -0.9016,-1.88192 -0.26755,-0.61303 -0.50087,-1.24281 -0.60608,-1.90638 -0.0861,-0.63421 -0.0437,-1.27318 -0.0542,-1.91225 -0.004,-0.65524 -0.005,-1.31063 0.008,-1.96578 0.0252,-0.80259 0.0683,-1.60843 0.25456,-2.39278 0.20466,-0.82064 0.4254,-1.63804 0.66451,-2.44892 0.28791,-0.88019 0.55032,-1.76647 0.91724,-2.61901 0,0 1.06378,0.42552 1.06378,0.42552 z"
         id="path3035"
         style="fill:#de2d26;fill-opacity:1;fill-rule:nonzero;stroke:none" />
      <path
         inkscape:connector-curvature="0"
         d="m 170.45023,362.3533 c 0.405,-0.71306 0.88855,-1.37636 1.40647,-2.01062 0.5169,-0.51662 1.10123,-0.95852 1.65407,-1.43554 0.4803,-0.42514 1.00609,-0.81089 1.55818,-1.13849 0.45512,-0.2126 0.93703,-0.3806 1.41907,-0.5255 0.5031,-0.10107 0.99026,-0.2065 1.47822,-0.36626 0.39091,-0.10482 0.7185,-0.34236 1.10192,-0.4774 0.31169,-0.10505 0.59599,-0.28561 0.92414,-0.39136 0.22936,-0.11385 0.37073,-0.29265 0.55847,-0.468 0.20059,-0.13694 0.30501,-0.36653 0.45043,-0.56064 0.24654,-0.3916 0.63852,-0.60096 1.10876,-0.41964 0.2657,0.1041 0.54273,0.14764 0.8117,0.24476 0.19008,0.0746 0.45098,0.27515 0.56858,0.29974 0.0535,0.0132 0.11624,0.0203 0.16762,0.0263 -0.004,-9e-5 -0.008,-1.8e-4 -0.0119,-2.6e-4 0,0 0.003,1.13421 0.003,1.13421 l 0,0 c -0.0114,-7e-5 -0.0228,-1.4e-4 -0.0342,-2.1e-4 -0.1422,-0.008 -0.28367,-0.0254 -0.42204,-0.0608 -0.25777,-0.0745 -0.47638,-0.2082 -0.70576,-0.34287 -0.23882,-0.17127 -0.64963,-0.0817 -0.89085,-0.28522 0.41994,0.0628 0.77059,-0.50177 0.31757,0.0895 -0.19078,0.25323 -0.34172,0.54779 -0.60859,0.7318 -0.32133,0.22681 -0.5607,0.57993 -0.96642,0.69949 -0.31878,0.0996 -0.59025,0.29516 -0.91081,0.38797 -0.38821,0.11109 -0.69455,0.4173 -1.10223,0.48028 -0.49843,0.16618 -0.99992,0.28061 -1.51448,0.37937 -0.39561,0.11248 -0.78887,0.25259 -1.16467,0.41543 -0.49544,0.28109 -0.95159,0.64734 -1.38239,1.01711 -0.50147,0.43654 -1.02885,0.84266 -1.51567,1.29548 -0.4836,0.59063 -0.92575,1.2143 -1.31492,1.87147 0,0 -0.98331,-0.58998 -0.98331,-0.58998 z"
         id="path3037"
         style="fill:#de2d26;fill-opacity:1;fill-rule:nonzero;stroke:none" />
    </g>
  </g>
  <path
     style="fill:#de2d26;fill-opacity:1;stroke:none"
     id="path2998"
     d="m 236.22186,352.44401 c -0.56595,0.66787 -1.20215,1.27561 -1.82316,1.89236 -0.41859,0.40862 -0.79191,0.84269 -1.12177,1.32463 -0.33163,0.51116 -0.70069,0.99289 -1.07042,1.47631 -0.3877,0.46322 -0.82356,0.88143 -1.22596,1.3339 -0.4025,0.52367 -0.85847,1.00653 -1.31174,1.48639 -0.46939,0.41263 -1.00956,0.71599 -1.48041,1.1272 -0.36424,0.41012 -0.61342,0.91114 -0.88565,1.385 -0.24002,0.53083 -0.55348,1.02151 -0.90646,1.48345 -0.34656,0.56906 -0.86738,0.98315 -1.33741,1.44197 -0.37322,0.35196 -0.68737,0.74586 -0.9571,1.1774 -0.2094,0.43142 -0.45812,0.83982 -0.69693,1.25521 -0.34428,0.49266 -0.68309,0.98891 -0.97094,1.51703 -0.27136,0.44236 -0.56709,0.88037 -0.77625,1.35689 -0.21214,0.47823 -0.43028,0.95734 -0.61068,1.44904 -0.12063,0.48367 -0.31666,0.92202 -0.65647,1.28776 -0.009,0.0175 -0.0172,0.035 -0.0258,0.0526 -0.48226,0.72123 -1.50224,0.0392 -1.01998,-0.68202 l 0,0 c 0.049,-0.0686 0.0979,-0.13717 0.14692,-0.20576 0.0323,-0.0348 0.0578,-0.0774 0.0969,-0.10431 0.0104,-0.007 -0.007,0.0478 4e-5,0.0377 0.16868,-0.22706 0.20625,-0.56016 0.30866,-0.81453 0.195,-0.51697 0.41875,-1.0239 0.64336,-1.52817 0.23241,-0.50033 0.52041,-0.9763 0.81797,-1.44014 0.29506,-0.53334 0.62577,-1.04542 0.98335,-1.53906 0.24769,-0.42831 0.49933,-0.85221 0.72093,-1.29507 0.32443,-0.51268 0.69648,-0.98384 1.13936,-1.40301 0.42911,-0.41806 0.90766,-0.78958 1.22105,-1.31102 0.32294,-0.41758 0.59757,-0.86721 0.81622,-1.34835 0.34108,-0.59084 0.6523,-1.21543 1.14391,-1.69861 0.44319,-0.38377 0.92905,-0.69434 1.39557,-1.04601 0.44674,-0.4676 0.88893,-0.94509 1.28471,-1.45696 0.38284,-0.43047 0.79602,-0.83037 1.16966,-1.26583 0.35796,-0.46453 0.71224,-0.92919 1.03126,-1.42232 0.37395,-0.54566 0.79854,-1.03862 1.27027,-1.50269 0.58877,-0.58241 1.1891,-1.15957 1.72885,-1.78746 0.542,-0.67749 1.50012,0.089 0.95812,0.7665 z"
     inkscape:connector-curvature="0" />
  <path
     style="fill:#de2d26;fill-opacity:1;stroke:none"
     id="path3000"
     d="m 217.79141,392.2815 c -0.002,0.81328 -0.15193,1.61748 -0.22479,2.42646 -0.0176,0.83274 -0.16212,1.65188 -0.27154,2.47537 -0.0929,0.68253 -0.22418,1.36642 -0.39276,2.03491 -0.17438,0.60692 -0.41606,1.18547 -0.53899,1.80699 -0.1689,0.52938 -0.29339,1.06827 -0.48461,1.58995 -0.1169,0.4699 -0.24916,0.9335 -0.37997,1.40035 -0.0884,0.54223 -0.19552,1.0791 -0.30582,1.61783 -0.0521,0.56375 -0.2378,1.09834 -0.35254,1.64954 -0.0604,0.57478 -0.21143,1.13296 -0.30823,1.70183 -0.0644,0.68318 -0.21391,1.35326 -0.30287,2.03318 -0.0453,0.36923 -0.0669,0.74055 -0.0881,1.11172 -0.0498,0.86618 -1.2748,0.79571 -1.22497,-0.0705 l 0,0 c 0.0232,-0.40127 0.047,-0.80269 0.0966,-1.20181 0.0925,-0.69547 0.2419,-1.38118 0.30996,-2.07987 0.10076,-0.58431 0.25253,-1.15756 0.317,-1.74775 0.11702,-0.54914 0.29846,-1.08099 0.35116,-1.64293 0.11672,-0.56802 0.22357,-1.13435 0.32689,-1.70443 0.141,-0.49694 0.27547,-0.99107 0.40893,-1.48974 0.16999,-0.46309 0.27469,-0.9424 0.43378,-1.40999 0.13148,-0.64196 0.35993,-1.24699 0.55355,-1.87042 0.16382,-0.61858 0.2747,-1.25814 0.36469,-1.8907 0.10744,-0.80662 0.25016,-1.60835 0.26582,-2.42422 0.0703,-0.7722 0.21158,-1.5402 0.2198,-2.3158 0,-0.86761 1.22699,-0.86761 1.22699,0 z"
     inkscape:connector-curvature="0" />
  <path
     style="fill:#de2d26;fill-opacity:1;stroke:none"
     id="path3002"
     d="m 182.18305,411.74004 c 0.54119,-0.61038 0.96543,-1.29923 1.35607,-2.01088 0.27447,-0.69232 0.74251,-1.26402 1.18988,-1.84838 0.48548,-0.56931 0.95497,-1.14936 1.42084,-1.73486 0.40091,-0.57932 0.82729,-1.14602 1.3139,-1.65634 0.49459,-0.46001 0.92715,-0.9818 1.3849,-1.47782 0.55738,-0.58863 1.18265,-1.11744 1.82544,-1.61091 0.58238,-0.43619 1.17604,-0.85156 1.7495,-1.29878 0.51702,-0.39522 0.90672,-0.92382 1.37409,-1.37309 0.52738,-0.43884 1.05468,-0.87986 1.59948,-1.29807 0.46401,-0.36876 0.85684,-0.80657 1.27897,-1.21896 0.52343,-0.52554 1.09767,-0.97048 1.72915,-1.35625 0.45411,-0.31865 0.9,-0.64314 1.28503,-1.04456 0.3999,-0.48559 0.73259,-1.01576 1.16169,-1.47977 0.39193,-0.48267 0.91134,-0.82971 1.41941,-1.17731 0.52789,-0.39953 1.0366,-0.8283 1.52934,-1.27035 0.50962,-0.44885 1.09356,-0.7962 1.63189,-1.20749 0.56775,-0.37617 1.04216,-0.86723 1.56794,-1.29727 0.67172,-0.54914 1.44832,0.4008 0.77661,0.94995 l 0,0 c -0.53664,0.4385 -1.02033,0.94052 -1.60079,1.3232 -0.51433,0.39115 -1.06755,0.72619 -1.55881,1.14719 -0.53432,0.47449 -1.07893,0.94189 -1.65335,1.36744 -0.4357,0.29808 -0.88591,0.58565 -1.21763,1.00439 -0.44324,0.46223 -0.74602,1.02928 -1.18001,1.49887 -0.46308,0.46571 -0.97712,0.86669 -1.52203,1.23301 -0.55436,0.33811 -1.05648,0.72618 -1.51454,1.19006 -0.45934,0.44049 -0.8821,0.91681 -1.38581,1.31121 -0.51045,0.39171 -1.00416,0.80468 -1.50028,1.21317 -0.50124,0.47173 -0.90361,1.04617 -1.46623,1.45252 -0.57713,0.44921 -1.17259,0.8686 -1.7589,1.30604 -0.58894,0.44695 -1.15749,0.93387 -1.66852,1.46797 -0.46436,0.50302 -0.90364,1.03187 -1.40484,1.49891 -0.46789,0.47314 -0.84808,1.02863 -1.23553,1.5671 -0.46117,0.57937 -0.9249,1.15451 -1.40672,1.71677 -0.411,0.53662 -0.84204,1.05327 -1.08849,1.69287 -0.42466,0.77349 -0.88879,1.52122 -1.47353,2.18691 -0.542,0.6775 -1.50012,-0.089 -0.95812,-0.76649 z"
     inkscape:connector-curvature="0" />
  <path
     style="fill:#de2d26;fill-opacity:1;stroke:none"
     id="path3004"
     d="m 176.33751,382.28226 c -0.11692,0.91781 -0.18469,1.84078 -0.23012,2.76459 -0.0653,0.61226 -0.0237,1.20052 0.092,1.80013 0.11733,0.58582 0.1495,1.18277 0.16981,1.77835 0.0152,0.61507 0.0134,1.23039 0.0131,1.8456 -0.0446,0.59039 0.0317,1.16084 0.12881,1.74028 0.13088,0.60919 0.095,1.23913 0.19561,1.85043 0.0967,0.58974 0.25004,1.17095 0.44387,1.73619 0.18839,0.54884 0.29479,1.11594 0.54107,1.64372 0.29621,0.61636 0.59193,1.2288 0.81664,1.87589 0.29052,0.67415 0.46757,1.37956 0.56596,2.10467 0.019,0.56862 0.0846,1.11746 0.19867,1.67317 0.22174,0.43418 0.54892,0.81123 0.81445,1.22223 0.39603,0.58517 0.68789,1.23606 0.92215,1.90074 0.19256,0.57311 0.49112,1.096 0.68196,1.66941 0.20448,0.57635 0.40529,1.15558 0.57691,1.74285 0.24194,0.8332 -0.93638,1.17535 -1.17832,0.34215 l 0,0 c -0.16573,-0.57512 -0.36597,-1.14065 -0.56517,-1.70473 -0.17929,-0.5671 -0.5002,-1.07549 -0.6741,-1.64609 -0.19745,-0.57567 -0.45461,-1.13673 -0.79609,-1.64166 -0.34209,-0.53768 -0.80523,-1.01369 -0.98373,-1.63823 -0.11962,-0.58285 -0.19598,-1.16194 -0.21295,-1.75762 -0.0843,-0.64552 -0.25072,-1.26837 -0.5099,-1.86748 -0.20832,-0.61158 -0.49821,-1.18444 -0.77346,-1.76751 -0.25421,-0.56941 -0.40136,-1.16612 -0.58675,-1.75943 -0.21134,-0.6349 -0.39021,-1.28308 -0.4944,-1.94479 -0.0866,-0.60803 -0.08,-1.22557 -0.19256,-1.83123 -0.10813,-0.64563 -0.18855,-1.28682 -0.14566,-1.94361 3.1e-4,-0.60118 0.002,-1.20247 -0.0124,-1.80352 -0.0178,-0.53154 -0.0437,-1.06463 -0.14833,-1.58755 -0.1339,-0.69533 -0.18178,-1.38457 -0.11271,-2.09278 0.0475,-0.96164 0.11825,-1.92241 0.24097,-2.87769 0.1227,-0.8589 1.33736,-0.68538 1.21466,0.17352 z"
     inkscape:connector-curvature="0" />
  <path
     style="fill:#de2d26;fill-opacity:1;stroke:none"
     id="path3006"
     d="m 161.16224,373.32135 c 0.76616,-0.23721 1.51373,-0.51869 2.29687,-0.70152 0.44724,-0.16546 1.07401,-0.19668 1.40197,-0.58718 0.44921,-0.47905 1.02286,-0.78874 1.57351,-1.12902 0.51183,-0.32514 1.07161,-0.57028 1.58277,-0.89468 0.44485,-0.27622 0.92364,-0.50248 1.27524,-0.89927 0.35048,-0.34072 0.66738,-0.71018 1.01631,-1.05246 0.61995,-0.60698 1.47834,0.26977 0.85839,0.87674 l 0,0 c -0.33695,0.32917 -0.64045,0.68737 -0.97934,1.01467 -0.44352,0.45904 -0.96804,0.79101 -1.52283,1.10239 -0.51867,0.31776 -1.06943,0.58009 -1.58849,0.89822 -0.48182,0.29432 -0.98615,0.55838 -1.37636,0.97855 -0.56223,0.48934 -1.24505,0.71718 -1.96432,0.88739 -0.8089,0.1856 -1.57166,0.50404 -2.372,0.71647 -0.85581,0.14263 -1.05753,-1.06767 -0.20172,-1.2103 z"
     inkscape:connector-curvature="0" />
  <path
     style="fill:#de2d26;fill-opacity:1;stroke:none"
     id="path3008"
     d="m 184.86446,355.35894 c -0.21877,0.80757 -0.57997,1.56572 -0.82946,2.3624 -0.25734,0.75603 -0.51707,1.51176 -0.79833,2.2592 -0.22896,0.56733 -0.31778,1.17169 -0.49616,1.75437 -0.16558,0.55957 -0.3611,1.11047 -0.55478,1.66116 -0.24162,0.56354 -0.55862,1.08583 -0.88439,1.60284 -0.26034,0.50794 -0.56726,0.9887 -0.94777,1.41434 -0.44766,0.35694 -0.70372,0.82574 -0.93219,1.33767 -0.22089,0.49783 -0.38879,1.00996 -0.5609,1.52559 -0.17963,0.6134 -0.482,1.17929 -0.70196,1.77735 -0.1387,0.6001 -0.41732,1.14717 -0.64272,1.71511 -0.23821,0.53344 -0.45391,1.08007 -0.62642,1.63861 -0.15913,0.57831 -0.33496,1.14684 -0.42676,1.74091 -0.12502,0.50476 -0.23914,1.0099 -0.31045,1.52515 -0.12038,0.85922 -1.33551,0.68897 -1.21512,-0.17025 l 0,0 c 0.0738,-0.52149 0.1785,-1.03605 0.31345,-1.54538 0.104,-0.65292 0.28908,-1.28078 0.46762,-1.91603 0.18515,-0.58812 0.40638,-1.16696 0.65871,-1.72936 0.22504,-0.55744 0.49321,-1.09596 0.63144,-1.68588 0.21902,-0.58528 0.5081,-1.14258 0.68942,-1.74194 0.1884,-0.5529 0.37016,-1.10373 0.60564,-1.63932 0.28377,-0.62155 0.6089,-1.21987 1.14633,-1.66197 0.34419,-0.35837 0.57478,-0.80776 0.81393,-1.23926 0.2775,-0.43943 0.54724,-0.88177 0.76471,-1.35546 0.18832,-0.5349 0.37982,-1.06946 0.53909,-1.61346 0.18631,-0.60705 0.27489,-1.23941 0.52159,-1.82874 0.27586,-0.72552 0.524,-1.46178 0.77632,-2.19579 0.25622,-0.80122 0.60911,-1.56816 0.83513,-2.37987 0.27436,-0.82309 1.43839,-0.43508 1.16403,0.38801 z"
     inkscape:connector-curvature="0" />
  <path
     style="fill:#de2d26;fill-opacity:1;stroke:none"
     id="path3010"
     d="m 77.980048,301.21627 c 0.407211,0.66763 0.874517,1.28253 1.444342,1.81876 0.427338,0.35003 0.868895,0.68511 1.310629,1.01778 0.438324,0.34661 0.859684,0.72845 1.19966,1.17263 0.160912,0.49665 0.450681,0.85208 0.79961,1.22705 0.379839,0.43098 0.742635,0.88255 1.15687,1.28157 0.309593,0.31782 0.604773,0.65392 0.935339,0.95057 0.287708,0.36828 0.643773,0.64061 1.029837,0.8969 0.411108,0.30795 0.799568,0.63847 1.147459,1.01672 0.388991,0.34905 0.745021,0.72975 1.093062,1.11944 0.383025,0.447 0.601393,1.01037 0.981303,1.45809 0.386489,0.42939 0.861639,0.76127 1.291103,1.14411 0.454297,0.28674 0.544259,0.91069 0.990192,1.18758 0.373395,0.26156 0.723262,0.55208 1.081665,0.83343 0.363167,0.29321 0.66209,0.67087 1.048683,0.93272 0.423606,0.31957 0.843997,0.62793 1.17525,1.04573 0.34318,0.55012 0.784047,1.02631 1.180482,1.53619 0.405384,0.55969 0.822534,1.11391 1.185005,1.70321 0.239091,0.37035 0.654475,0.55475 1.001379,0.80984 0.469273,0.35904 0.8061,0.84875 1.208085,1.27391 0.339266,0.43064 0.698112,0.84207 1.105777,1.20918 0.40177,0.35539 0.73783,0.7613 1.04195,1.20173 0.33125,0.49203 0.45687,1.06717 0.66229,1.61113 0.26693,0.44229 0.75361,0.73732 1.15762,1.0536 0.55589,0.40571 1.00762,0.93893 1.35056,1.53234 0.26349,0.42638 0.51561,0.85775 0.78136,1.28248 0.26694,0.391 0.62527,0.69437 0.97117,1.01268 0.52754,0.45898 1.06827,0.88025 1.43397,1.48533 0.10744,0.40557 0.23748,0.55605 0.56698,0.76907 0.37618,0.30781 0.68099,0.69869 0.98445,1.07695 0.35134,0.44265 0.69225,0.89234 1.03016,1.34548 0.33067,0.52396 0.63715,1.06561 0.83293,1.65519 0.24208,0.49913 0.3409,1.05055 0.56892,1.55484 0.20775,0.34741 0.49978,0.56872 0.83514,0.78281 0.6021,0.35502 1.09096,0.83664 1.51321,1.38765 0.34383,0.55076 0.84259,0.96284 1.31627,1.3939 0.49489,0.42902 0.82166,1.00192 1.16948,1.5477 0.28352,0.46046 0.55148,0.93839 0.86735,1.37798 0.21148,0.40796 0.38031,0.35876 0.73374,0.6263 0.45698,0.40994 0.66898,0.98524 0.94518,1.51397 0.18748,0.44092 0.52026,0.78822 0.76675,1.19354 0.44104,0.74716 -0.6156,1.37088 -1.05664,0.62372 l 0,0 c -0.24157,-0.43316 -0.62571,-0.78175 -0.80154,-1.25664 -0.1962,-0.3867 -0.34643,-0.80852 -0.64225,-1.13449 -0.0458,-0.0933 -0.41155,-0.23487 -0.43378,-0.25006 -0.1692,-0.11564 -0.26743,-0.24383 -0.38174,-0.40599 -0.0469,-0.0666 -0.089,-0.1365 -0.13353,-0.20475 -0.31913,-0.46083 -0.60928,-0.9446 -0.8984,-1.42435 -0.28972,-0.45498 -0.55194,-0.94043 -0.96154,-1.30045 -0.52832,-0.48329 -1.08076,-0.94935 -1.46902,-1.56163 -0.3286,-0.44609 -0.72617,-0.81727 -1.20551,-1.09977 -0.52654,-0.35019 -0.99474,-0.74369 -1.28801,-1.31928 -0.23266,-0.54731 -0.36741,-1.12635 -0.61198,-1.66881 -0.1427,-0.46565 -0.40615,-0.87923 -0.64867,-1.29791 -0.33065,-0.44344 -0.66335,-0.88407 -1.00794,-1.31659 -0.22377,-0.28714 -0.46039,-0.57324 -0.71746,-0.82774 -0.42116,-0.29784 -0.83062,-0.64177 -0.93949,-1.17471 -0.24674,-0.51574 -0.82543,-0.77789 -1.19789,-1.18839 -0.42659,-0.39256 -0.85915,-0.77788 -1.18111,-1.26574 -0.27526,-0.44199 -0.53853,-0.8896 -0.81135,-1.33319 -0.2438,-0.46274 -0.62159,-0.8554 -1.03774,-1.16656 -0.58519,-0.46105 -1.25106,-0.89012 -1.55256,-1.59859 -0.16117,-0.45341 -0.26746,-0.92425 -0.52322,-1.3399 -0.24608,-0.36802 -0.522756,-0.6939 -0.855871,-0.98713 -0.426426,-0.39386 -0.823181,-0.81652 -1.175763,-1.2785 -0.347968,-0.37743 -0.65132,-0.79745 -1.046547,-1.12872 -0.463459,-0.35919 -1.019673,-0.61025 -1.312604,-1.15237 -0.334031,-0.55328 -0.732894,-1.06575 -1.1077,-1.59103 -0.398226,-0.51672 -0.847889,-0.99489 -1.19258,-1.55207 -0.216436,-0.34097 -0.620387,-0.51402 -0.909035,-0.78468 -0.392541,-0.29096 -0.730682,-0.64377 -1.095356,-0.96797 -0.348934,-0.27906 -0.693437,-0.5606 -1.060167,-0.81676 -0.447533,-0.36237 -0.687362,-0.83843 -1.070038,-1.25359 -0.47158,-0.43055 -1.010984,-0.78824 -1.422994,-1.28298 -0.352878,-0.44665 -0.61415,-0.95125 -0.943527,-1.41372 -0.344919,-0.38621 -0.698774,-0.76071 -1.082987,-1.1083 -0.280956,-0.3088 -0.596661,-0.57373 -0.92766,-0.82738 -0.430125,-0.29254 -0.854225,-0.59705 -1.175874,-1.01224 -0.333959,-0.31262 -0.649099,-0.64565 -0.963599,-0.97744 -0.421641,-0.41927 -0.810263,-0.87165 -1.197007,-1.32287 -0.363967,-0.39368 -0.775246,-0.81443 -0.902172,-1.35354 -0.172434,-0.34135 -0.66538,-0.63468 -0.938698,-0.90269 -0.476384,-0.36311 -0.9591,-0.72015 -1.41591,-1.10738 -0.64879,-0.62444 -1.200327,-1.32453 -1.663082,-2.09814 -0.430458,-0.7533 0.634871,-1.36206 1.065329,-0.60876 z"
     inkscape:connector-curvature="0" />
  <path
     style="fill:#de2d26;fill-opacity:1;stroke:none"
     id="path3012"
     d="m 103.48164,365.4791 c 0.76801,0.28519 1.43985,0.76534 2.17945,1.1104 0.64528,0.24314 1.20612,0.63652 1.80547,0.96502 0.48012,0.31304 1.03378,0.46069 1.57345,0.63443 0.59125,0.11258 1.14497,0.32502 1.69581,0.56088 0.46589,0.26814 0.93792,0.52985 1.44442,0.71322 0.53513,0.12855 1.07014,0.26473 1.58158,0.47046 0.4264,0.22715 0.90821,0.25688 1.36809,0.36989 0.58156,0.14979 1.11693,0.42494 1.60145,0.77477 0.41845,0.29699 0.77858,0.65047 1.20459,0.9371 0.39592,0.20689 0.82417,0.39078 1.27146,0.43743 0.60015,-0.019 1.16804,0.0971 1.72854,0.3024 0.56667,0.1747 1.09154,0.44672 1.59778,0.75109 0.49093,0.25505 0.92121,0.60477 1.35792,0.94049 0.46281,0.30591 0.93811,0.59502 1.45207,0.80641 0.6213,0.25674 1.22986,0.54145 1.84299,0.81672 0.52916,0.21071 1.0479,0.44861 1.55722,0.70363 0.52859,0.29381 1.01538,0.65343 1.50411,1.00802 0.43756,0.30113 0.9669,0.40246 1.46933,0.54796 0.57369,0.17005 1.17436,0.17399 1.76079,0.26685 0.60247,0.0996 1.2038,0.23695 1.81114,0.29812 0.61973,0.0654 1.21016,0.23529 1.80515,0.40856 0.47354,0.12404 0.91642,0.3194 1.40038,0.40622 0.55268,0.0666 1.08492,0.24738 1.60931,0.42722 0.50861,0.19228 1.0169,0.333 1.54809,0.43217 0.31769,0.0898 0.13673,0.0169 0.51675,0.2748 0.61777,0.60919 -0.24375,1.48285 -0.86152,0.87366 l 0,0 c 0.20518,0.0904 0.2462,0.10289 0.11535,0.0569 -0.5881,-0.11484 -1.15421,-0.26522 -1.71674,-0.4769 -0.46796,-0.16051 -0.94087,-0.32735 -1.43503,-0.38144 -0.52399,-0.0996 -1.0105,-0.29078 -1.52057,-0.43484 -0.52778,-0.15454 -1.04763,-0.31098 -1.59858,-0.36708 -0.62788,-0.0759 -1.25162,-0.19374 -1.87435,-0.30691 -0.63118,-0.11137 -1.2855,-0.0956 -1.90179,-0.29885 -0.63901,-0.18541 -1.30131,-0.33296 -1.84849,-0.73347 -0.43473,-0.31573 -0.86646,-0.63614 -1.33289,-0.90395 -0.49401,-0.24759 -0.99669,-0.4786 -1.51086,-0.68161 -0.60336,-0.2717 -1.20259,-0.55167 -1.81436,-0.80428 -0.60843,-0.25886 -1.18107,-0.58999 -1.72546,-0.96525 -0.40075,-0.30825 -0.79233,-0.63244 -1.24499,-0.86326 -0.43835,-0.26714 -0.89365,-0.50034 -1.3869,-0.64963 -0.47543,-0.17635 -0.94793,-0.24984 -1.45838,-0.23646 -0.63442,-0.0883 -1.2499,-0.31301 -1.80295,-0.63706 -0.443,-0.29872 -0.82232,-0.65865 -1.25304,-0.97146 -0.34266,-0.27268 -0.75602,-0.45084 -1.17487,-0.5702 -0.51062,-0.14392 -1.06154,-0.15688 -1.53621,-0.42663 -0.48518,-0.22139 -1.02598,-0.29253 -1.53191,-0.45084 -0.52238,-0.19634 -1.02689,-0.4421 -1.5017,-0.73607 -0.51692,-0.22145 -1.03341,-0.41654 -1.58928,-0.52099 -0.61483,-0.19854 -1.24356,-0.37594 -1.79219,-0.7293 -0.57344,-0.32111 -1.1117,-0.69497 -1.73279,-0.92781 -0.69429,-0.32924 -1.33445,-0.76242 -2.04485,-1.0565 -0.82309,-0.27437 -0.43508,-1.43839 0.38801,-1.16403 z"
     inkscape:connector-curvature="0" />
  <path
     style="fill:#de2d26;fill-opacity:1;stroke:none"
     id="path3014"
     d="m 104.18707,366.80311 c -0.82315,-0.27294 -1.63322,-0.58096 -2.45297,-0.86329 -0.37484,-0.10647 -0.19917,-0.0794 -0.52355,-0.10115 -0.86257,-0.0934 -0.73043,-1.31329 0.13214,-1.21986 l 0,0 c 0.5516,0.0715 0.2881,0.0154 0.79199,0.16124 0.81518,0.28229 1.62134,0.58751 2.4404,0.85903 0.82309,0.27436 0.43508,1.43839 -0.38801,1.16403 z"
     inkscape:connector-curvature="0" />
  <path
     style="fill:#de2d26;fill-opacity:1;stroke:none"
     id="path3016"
     d="m 140.09746,371.5092 c 0.84463,0.0365 1.62151,0.36627 2.40421,0.64895 0.57136,0.18462 1.1704,0.23636 1.75562,0.36318 0.7029,0.15404 1.30939,0.53643 1.95538,0.82968 0.51783,0.30337 1.0479,0.57285 1.59165,0.82463 0.51106,0.26076 1.08415,0.29575 1.63258,0.42247 0.51476,0.15711 1.0495,0.18992 1.54867,0.3955 0.79375,0.3503 0.29835,1.47284 -0.49541,1.12253 l 0,0 c -0.40368,-0.21651 -0.92072,-0.13599 -1.34045,-0.32512 -0.62224,-0.15939 -1.28328,-0.18523 -1.86153,-0.50222 -0.54145,-0.25143 -1.07359,-0.51379 -1.58592,-0.822 -0.56505,-0.26011 -1.09465,-0.59547 -1.70509,-0.74637 -0.63807,-0.13856 -1.29344,-0.19044 -1.91288,-0.40846 -0.64915,-0.23517 -1.28953,-0.51989 -1.98683,-0.57577 -0.86762,0 -0.86762,-1.227 0,-1.227 z"
     inkscape:connector-curvature="0" />
  <path
     style="fill:#de2d26;fill-opacity:1;stroke:none"
     id="path3018"
     d="m 142.06827,379.97801 c 0.48871,0.71219 0.9686,1.4307 1.48422,2.1242 0.41243,0.58834 0.88979,1.11439 1.39651,1.62152 0.47128,0.48671 1.0237,0.88359 1.51547,1.34745 0.42682,0.43527 0.86084,0.86284 1.28432,1.30133 0.37927,0.35126 0.80426,0.64682 1.22328,0.94837 0.48739,0.35737 0.88861,0.81237 1.33554,1.21633 0.38677,0.34955 0.843,0.58535 1.2819,0.85889 0.55458,0.27705 1.00664,0.66571 1.4225,1.11678 0.22255,0.39805 0.52136,0.47079 0.90701,0.63658 0.43839,0.18406 0.90952,0.24621 1.36274,0.38667 0.56095,0.10928 0.99527,0.44119 1.43762,0.77605 0.34944,0.33986 0.72121,0.64087 1.10821,0.93334 0.41804,0.27359 0.83839,0.54137 1.25216,0.82194 0.31461,0.22215 0.66924,0.32339 1.02143,0.46149 0.46105,0.16104 0.92239,0.28538 1.35441,0.52016 0.46234,0.27656 0.87984,0.62817 1.28622,0.98096 0.51487,0.48368 1.10243,0.87974 1.65472,1.31734 0.2397,0.17886 0.54443,0.17475 0.81117,0.28763 0.17287,0.0731 0.33346,0.17249 0.50117,0.25679 0.59779,0.32551 1.15749,0.71409 1.7336,1.07507 0.66839,0.38136 1.22036,0.91237 1.78868,1.4221 0.52267,0.42071 1.08608,0.78354 1.63192,1.1721 0.67166,0.47564 1.23972,1.07462 1.86789,1.60167 0.5661,0.37095 1.11036,0.77412 1.64196,1.19304 0.49871,0.47487 1.01296,0.9328 1.51328,1.40606 0.54339,0.46668 1.13499,0.86968 1.67378,1.34114 0.59886,0.46963 0.93859,1.13628 1.34264,1.75738 0.37162,0.49369 0.91116,0.79029 1.40959,1.1333 0.44174,0.16614 0.90456,0.23053 1.34187,0.42062 0.43704,0.25694 0.71949,0.67853 1.07087,1.02782 0.2044,0.24012 0.10679,0.13933 0.2851,0.30967 0.61727,0.6097 -0.24497,1.48266 -0.86225,0.87296 l 0,0 c -0.23239,-0.23403 -0.13455,-0.12346 -0.30062,-0.32529 -0.24231,-0.2525 -0.46936,-0.52609 -0.71136,-0.77299 -0.47085,-0.26108 -1.08102,-0.17627 -1.52151,-0.5236 -0.63048,-0.43859 -1.3011,-0.82927 -1.7449,-1.48068 -0.33518,-0.5294 -0.61626,-1.09673 -1.11911,-1.49727 -0.54807,-0.48343 -1.16076,-0.88532 -1.70734,-1.37173 -0.47364,-0.44815 -0.96268,-0.87981 -1.43015,-1.33419 -0.54173,-0.42817 -1.10088,-0.83179 -1.67281,-1.21821 -0.60057,-0.50854 -1.15014,-1.07735 -1.78908,-1.54052 -0.58246,-0.41571 -1.18584,-0.80187 -1.73902,-1.25786 -0.5167,-0.46343 -1.01297,-0.95156 -1.62226,-1.29661 -0.54341,-0.34233 -1.07331,-0.70705 -1.63513,-1.01935 -0.11056,-0.0563 -0.21067,-0.13264 -0.32374,-0.18376 -0.39377,-0.17802 -0.8638,-0.17952 -1.19873,-0.49557 -0.56335,-0.45169 -1.16973,-0.85264 -1.69526,-1.35109 -0.34622,-0.30148 -0.69998,-0.60622 -1.0927,-0.84317 -0.36417,-0.23977 -0.81827,-0.25922 -1.20679,-0.448 -0.4205,-0.18554 -0.86655,-0.30692 -1.24667,-0.58222 -0.4323,-0.29382 -0.87341,-0.57044 -1.30729,-0.86163 -0.38304,-0.29617 -0.76495,-0.58592 -1.1065,-0.93204 -0.33116,-0.25261 -0.6297,-0.51153 -1.05877,-0.581 -0.49543,-0.154 -1.01486,-0.21511 -1.48996,-0.43401 -0.51026,-0.22777 -1.01832,-0.41742 -1.31863,-0.92987 -0.34122,-0.37084 -0.70746,-0.68659 -1.17076,-0.90782 -0.49832,-0.31322 -1.01466,-0.5911 -1.45439,-0.98929 -0.41285,-0.37399 -0.78524,-0.79241 -1.22898,-1.13022 -0.479,-0.34474 -0.96442,-0.68495 -1.39138,-1.09421 -0.40876,-0.42832 -0.83408,-0.84008 -1.24708,-1.26419 -0.49091,-0.47757 -1.06739,-0.86451 -1.53606,-1.3676 -0.5485,-0.54948 -1.06408,-1.12225 -1.5134,-1.75702 -0.52723,-0.71072 -1.01993,-1.44559 -1.52007,-2.17513 -0.48126,-0.7219 0.53966,-1.40251 1.02092,-0.68061 z"
     inkscape:connector-curvature="0" />
  <path
     style="fill:#de2d26;fill-opacity:1;stroke:none"
     id="path3020"
     d="m 158.8504,394.8763 c -0.35399,-0.83235 -0.69709,-1.66948 -1.07568,-2.49141 -0.32058,-0.7156 -0.64939,-1.4287 -1.00745,-2.1265 -0.31477,-0.59241 -0.49546,-1.2438 -0.76594,-1.85395 -0.23893,-0.50631 -0.38581,-1.05278 -0.61738,-1.56082 -0.20903,-0.52884 -0.43705,-1.04904 -0.66356,-1.57065 -0.3481,-0.56222 -0.4614,-1.21029 -0.66513,-1.82568 -0.21386,-0.56087 -0.29663,-1.15185 -0.34382,-1.74634 -0.05,-0.55114 -0.2448,-1.04391 -0.43666,-1.55212 -0.18478,-0.35407 -0.12698,-0.85244 -0.36027,-1.17917 -0.28073,-0.47655 -0.3643,-1.01854 -0.41944,-1.55935 0.0237,-0.48528 -0.0134,-0.24015 0.11952,-0.73414 0.25923,-0.82798 1.43018,-0.46138 1.17095,0.3666 l 0,0 c -0.0699,0.14805 -0.0442,0.0667 -0.0695,0.24618 0.0376,0.39096 0.0821,0.78247 0.29219,1.12458 0.19497,0.42019 0.28368,0.86849 0.41734,1.30965 0.22127,0.61692 0.45602,1.21812 0.50914,1.88243 0.0382,0.50043 0.10468,0.99668 0.28913,1.46763 0.18177,0.58146 0.29776,1.18274 0.62227,1.71163 0.2251,0.52002 0.45288,1.03831 0.66119,1.5652 0.22144,0.51627 0.3905,1.05436 0.62041,1.5678 0.25052,0.59063 0.44114,1.20735 0.73185,1.78159 0.36437,0.71386 0.7032,1.4411 1.02994,2.17282 0.37198,0.8102 0.71495,1.63297 1.05834,2.45529 0.38801,0.77602 -0.70944,1.32474 -1.09745,0.54873 z"
     inkscape:connector-curvature="0" />
  <path
     style="fill:#de2d26;fill-opacity:1;stroke:none"
     id="path3022"
     d="m 141.02515,379.53693 c 0.45108,-0.81516 0.85212,-1.65419 1.22141,-2.50919 0.25411,-0.60221 0.6563,-1.11646 0.99327,-1.67013 0.30791,-0.59495 0.58253,-1.20448 0.89687,-1.79659 0.3145,-0.49056 0.55305,-0.89523 1.05897,-1.19098 0.81377,-0.30091 1.23932,0.84992 0.42556,1.15083 l 0,0 c 0.48437,-0.39534 -0.42062,0.49872 -0.40084,0.61559 -0.3264,0.61458 -0.60574,1.25051 -0.9351,1.86345 -0.31072,0.50209 -0.67285,0.97127 -0.9126,1.51501 -0.38826,0.89614 -0.80843,1.77634 -1.28221,2.63077 -0.43046,0.7533 -1.49579,0.14454 -1.06533,-0.60876 z"
     inkscape:connector-curvature="0" />
  <path
     style="fill:#de2d26;fill-opacity:1;stroke:none"
     id="path3024"
     d="m 131.1135,242.24912 c -0.33347,0.68267 -0.52698,1.41524 -0.65029,2.1614 -0.0921,0.53147 0.0483,1.06318 0.1161,1.59037 0.024,0.58848 0.17294,1.15732 0.26947,1.73592 0.0473,0.62083 0.20272,1.22278 0.30627,1.8351 0.0999,0.63913 0.11891,1.28646 0.13089,1.93202 0.007,0.70127 0.005,1.40259 0.004,2.10389 -9.9e-4,0.63225 -0.001,1.2645 -0.002,1.89676 -0.0427,0.53979 0.0202,1.05364 0.12656,1.57934 0.10429,0.52303 0.11155,1.05278 0.23962,1.57021 0.13069,0.50586 0.15896,1.02436 0.29551,1.52776 0.12503,0.59806 0.25018,1.19515 0.36843,1.79523 0.0815,0.66646 0.1901,1.32345 0.31705,1.98256 0.0718,0.63085 0.2411,1.24208 0.35382,1.86577 0.20181,0.47596 0.24462,0.99933 0.40022,1.48614 0.0985,0.30862 0.0498,0.14769 0.14467,0.48312 0.23491,0.83521 -0.94625,1.16743 -1.18116,0.33222 l 0,0 c -0.0849,-0.30363 -0.0385,-0.14769 -0.14017,-0.46751 -0.15143,-0.53665 -0.23842,-1.09052 -0.43123,-1.61703 -0.11036,-0.6187 -0.28075,-1.22503 -0.35102,-1.85079 -0.12645,-0.65734 -0.23752,-1.31313 -0.31616,-1.97797 -0.11204,-0.57227 -0.23241,-1.14184 -0.34916,-1.71242 -0.13774,-0.5138 -0.18221,-1.03769 -0.30254,-1.55507 -0.13003,-0.53511 -0.15873,-1.07713 -0.2505,-1.61886 -0.12237,-0.6048 -0.19245,-1.20406 -0.15093,-1.82317 2.4e-4,-0.63264 6.7e-4,-1.26529 0.002,-1.89794 9.3e-4,-0.69322 0.003,-1.38647 -0.004,-2.07966 -0.0107,-0.58492 -0.0257,-1.1716 -0.11409,-1.75101 -0.10256,-0.61305 -0.25951,-1.21624 -0.3067,-1.83772 -0.098,-0.59328 -0.25041,-1.17772 -0.2761,-1.78097 -0.0825,-0.64683 -0.23768,-1.29641 -0.1092,-1.94895 0.14663,-0.8658 0.37337,-1.71597 0.76298,-2.50747 0.38801,-0.77602 1.48547,-0.22729 1.09746,0.54873 z"
     inkscape:connector-curvature="0" />
  <path
     style="fill:#de2d26;fill-opacity:1;stroke:none"
     id="path3026"
     d="m 3.79996,267.96012 c -0.5450856,-0.33611 -1.1072882,-0.66102 -1.7077265,-0.88892 -0.4701702,-0.24737 -0.9731159,-0.41769 -1.44241125,-0.66595 -0.49078618,-0.24653 -0.99019769,-0.47837 -1.49140497,-0.70381 -0.52432088,-0.24704 -0.96809358,-0.60842 -1.41582358,-0.96776 -0.069276,-0.0674 -0.1385515,-0.13483 -0.2078273,-0.20224 -0.6147791,-0.61221 0.2510195,-1.48164 0.8657986,-0.86943 l 0,0 c 0.037502,0.0389 0.075004,0.0778 0.1125063,0.11675 0.3652642,0.29597 0.72272571,0.59686 1.14985364,0.8042 0.52857394,0.23902 1.05619263,0.4825 1.57346056,0.74458 0.4153369,0.23716 0.8860365,0.35966 1.3008347,0.6002 0.631734,0.2501 1.239573,0.56881 1.8114681,0.93493 0.7760191,0.38801 0.2272907,1.48546 -0.5487283,1.09745 z"
     inkscape:connector-curvature="0" />
</svg>
