<?xml version="1.0" encoding="UTF-8" standalone="no"?>
<!-- Created with Inkscape (http://www.inkscape.org/) -->

<svg
   xmlns:dc="http://purl.org/dc/elements/1.1/"
   xmlns:cc="http://creativecommons.org/ns#"
   xmlns:rdf="http://www.w3.org/1999/02/22-rdf-syntax-ns#"
   xmlns:svg="http://www.w3.org/2000/svg"
   xmlns="http://www.w3.org/2000/svg"
   xmlns:xlink="http://www.w3.org/1999/xlink"
   xmlns:sodipodi="http://sodipodi.sourceforge.net/DTD/sodipodi-0.dtd"
   xmlns:inkscape="http://www.inkscape.org/namespaces/inkscape"
   id="svg2"
   version="1.1"
   inkscape:version="0.48.4 r9939"
   width="1408"
   height="2111"
   sodipodi:docname="46693-936.svg">
  <metadata
     id="metadata8">
    <rdf:RDF>
      <cc:Work
         rdf:about="">
        <dc:format>image/svg+xml</dc:format>
        <dc:type
           rdf:resource="http://purl.org/dc/dcmitype/StillImage" />
        <dc:title />
      </cc:Work>
    </rdf:RDF>
  </metadata>
  <defs
     id="defs6" />
  <sodipodi:namedview
     pagecolor="#ffffff"
     bordercolor="#666666"
     borderopacity="1"
     objecttolerance="10"
     gridtolerance="10"
     guidetolerance="10"
     inkscape:pageopacity="0"
     inkscape:pageshadow="2"
     inkscape:window-width="1280"
     inkscape:window-height="732"
     id="namedview4"
     showgrid="false"
     inkscape:zoom="0.48418894"
     inkscape:cx="695.53525"
     inkscape:cy="1801.9343"
     inkscape:window-x="-8"
     inkscape:window-y="-8"
     inkscape:window-maximized="1"
     inkscape:current-layer="layer1" />
  <image
     width="1408"
     height="2111"
     xlink:href="file:///C:/Users/Surface/Desktop/CHI2013%20BI%20GitRepo/public-dataset/input/cropped-display/46693-936.png"
     id="image10"
     x="0"
     y="0" />
  <g
     inkscape:groupmode="layer"
     id="layer1"
     inkscape:label="Layer">
    <g
       id="g0"
       inkscape:label="#g3071">
      <g
         id="g3055">
        <path
           style="fill:#de2d26;fill-opacity:1;fill-rule:nonzero;stroke:none"
           id="path3007"
           d="m 42.283695,-15.545249 c 3.797001,3.412597 6.867025,7.4944195 10.090082,11.4259553 3.93349,4.04018784 6.913412,8.8063444 10.139634,13.3944523 4.209304,4.9532944 7.466942,10.5272164 10.644265,16.1674064 1.984479,4.654829 5.133676,8.60675 7.831071,12.83993 2.700049,4.173646 5.077441,8.557192 7.288318,13.007543 2.457705,4.520668 5.279902,8.815756 7.426149,13.501252 2.498459,4.721864 4.774016,9.544982 7.053826,14.376258 2.49605,5.491713 5.2482,10.839882 8.24644,16.07405 2.41628,4.730888 5.07522,9.315122 7.72815,13.912542 3.43443,5.96875 6.81956,11.93865 9.83698,18.13169 3.28704,6.26601 6.63646,12.49638 9.9675,18.74044 2.43284,4.54917 4.17566,9.38051 6.07164,14.15621 1.35015,2.83549 1.98433,5.91084 3.14499,8.81249 0.66845,2.19379 1.37827,3.49665 2.40409,5.29042 1.01533,2.1142 1.25665,2.25274 2.31197,4.23875 2.09722,15.71066 -13.66323,-0.14922 -14.87323,-1.40925 -4.81988,-5.22436 -8.42263,-11.43247 -12.01241,-17.53066 -4.13542,-6.78657 -8.27862,-13.55644 -12.23466,-20.44867 -2.90636,-4.6317 -4.76602,-9.79682 -7.21108,-14.64546 -1.80248,-2.73133 -2.69096,-5.72245 -3.10244,-8.93502 -0.42831,-3.66512 -0.31868,-7.24612 0.49984,-10.84061 0.59904,-3.08162 2.08574,-5.747424 3.97487,-8.20541 1.43765,-1.985315 3.56176,-3.200327 5.30336,-4.457614 2.2184,-1.165838 4.41815,-2.481255 6.2125,-4.252817 1.63982,-1.708456 3.48434,-3.226188 5.05788,-4.999343 1.64444,-1.740634 3.45191,-3.276733 5.03466,-5.082278 2.11976,-2.228996 3.85271,-4.759331 5.94541,-7.004615 1.33647,-1.784543 2.96554,-3.241105 4.40584,-4.766367 1.33466,-1.745937 3.11436,-3.052024 4.47322,-4.783318 1.58258,-1.759922 3.03304,-3.647219 4.74975,-5.281716 0.86164,-1.213437 2.06267,-2.078002 3.0227,-3.195893 0.47125,-1.232932 2.41814,-3.210679 4.14477,-4.417744 0.75439,-1.017429 2.43761,-1.687466 2.85036,-2.286388 1.41479,-1.322972 3.08652,-2.282349 4.61604,-3.461981 -1.5289,1.157536 -1.44675,2.560131 -1.22273,4.277054 0,0 8.30745,-3.360705 8.30745,-3.360705 l 0,0 c 0.4733,2.511465 0.43762,4.305625 -1.56206,6.187235 -1.05799,0.828007 -2.15578,1.753061 -3.37103,2.287975 -1.52454,1.66304 -3.40954,2.723873 -5.12826,4.152572 0.92033,-1.128584 -1.89225,2.171133 -1.88988,2.580791 -1.64584,1.837469 -2.15954,1.986936 -3.96268,4.119139 -0.80177,0.891326 -2.54889,2.88277 -3.66131,4.230395 -1.60226,1.832374 -3.42021,3.439982 -4.97696,5.302315 -1.55744,1.274719 -2.86539,3.065208 -4.18699,4.572129 -2.04455,2.196781 -3.69895,4.71728 -5.80158,6.872602 -1.67672,1.853314 -3.56248,3.457082 -5.24556,5.272956 -1.80261,1.841539 -3.65129,3.629375 -5.48255,5.448204 -2.1493,1.907168 -4.52239,3.809203 -7.16116,4.969805 -1.43142,0.934897 -2.4403,1.462177 -3.41044,2.691347 -1.16795,1.36476 -1.89794,2.86941 -2.21953,4.64891 -0.61822,2.5607 -0.62693,5.11018 -0.33456,7.73912 0.21468,2.22552 0.9349,4.07269 2.24014,5.93691 2.32495,4.70896 4.29673,9.59815 7.05304,14.09842 3.97142,6.85973 8.11042,13.61046 12.21633,20.39088 3.21241,5.52599 6.4213,11.1654 10.72345,15.92863 1.81047,1.98707 1.22796,1.46644 3.17741,3.16288 1.52554,1.32755 2.12365,1.71045 2.11109,1.72447 -5.72954,6.39803 -6.30539,2.15797 -5.44005,6.0144 1.83594,2.64443 -1.62558,-2.34284 -1.74868,-2.98806 -1.19875,-2.06876 -2.21219,-4.17106 -2.99165,-6.42991 -1.1646,-2.91707 -1.84119,-5.98995 -3.19673,-8.83604 -1.74707,-4.45512 -3.44571,-8.91885 -5.69643,-13.15975 -3.41618,-6.33908 -6.82442,-12.67688 -10.16885,-19.05265 -2.90199,-6.0042 -6.17757,-11.78777 -9.45939,-17.58975 -2.65861,-4.60519 -5.32352,-9.19772 -7.76028,-13.927915 C 99.955762,94.337975 97.055203,88.788868 94.4914,83.058499 92.202518,78.185163 89.921206,73.319291 87.4104,68.555705 85.344405,63.949413 82.416437,59.818343 80.116824,55.331523 78.059983,51.163545 75.828365,47.066232 73.309246,43.159374 70.543745,38.786465 67.248878,34.733556 65.193585,29.938001 62.151501,24.559297 59.049038,19.249194 55.022223,14.526467 51.939217,10.115619 49.128215,5.5222625 45.336542,1.657105 42.29671,-2.0417352 39.39355,-5.8674968 35.888016,-9.1495698 c 0,0 6.395679,-6.3956792 6.395679,-6.3956792 z"
           inkscape:connector-curvature="0" />
        <path
           style="fill:#de2d26;fill-opacity:1;fill-rule:nonzero;stroke:none"
           id="path3009"
           d="m 57.449433,15.079002 c 4.332088,3.686029 7.850866,8.223195 11.146421,12.830536 3.225031,4.515117 5.9502,9.373655 8.447816,14.322153 2.498813,4.427663 5.039195,8.83435 7.569239,13.246292 2.440541,4.46981 4.6497,9.058442 7.020283,13.564126 1.995422,4.115522 4.199463,8.121152 6.144283,12.261758 1.517009,2.777493 3.474205,5.25184 5.208985,7.893439 0.52878,0.81378 1.0461,1.635128 1.52936,2.476775 0.0294,0.05425 0.0588,0.108508 0.0882,0.162761 -2.40723,1.785319 -4.52189,4.054719 -7.221678,5.355956 -0.540018,0.260276 -8.394094,-7.765365 -9.088829,-8.476911 C 81.861196,81.497035 75.979242,73.795363 70.272415,65.994969 67.002796,61.073831 63.778763,56.125934 60.609782,51.140835 58.398287,47.342841 56.990639,43.14696 55.39557,39.061936 54.456307,37.300479 54.493432,35.148442 53.548296,33.482152 52.612522,31.212164 52.033841,28.89286 50.96359,26.676167 50.317829,24.628018 49.606365,22.816338 48.661718,20.927963 47.954069,18.782167 47.13148,16.744415 46.28223,14.653317 45.398038,12.830519 45.486929,10.70749 44.573075,8.9649576 43.624493,7.516405 43.082806,5.8888757 42.709654,4.2114764 c 2.605334,-1.3731855 5.008872,-3.22881427 7.816003,-4.11955659 0.603085,-0.19136734 0.993931,0.783398 1.499718,1.16354659 2.912936,2.1893611 5.700681,4.3336746 8.360663,6.8378795 5.524631,5.7309121 10.723347,11.7512261 15.207656,18.3341171 4.052846,6.304435 8.458476,12.370603 12.633086,18.590782 3.698564,5.904688 7.51435,11.716325 11.077068,17.704529 3.315732,4.881603 6.066212,10.056546 8.602232,15.369289 1.71655,4.092245 3.26788,8.249737 5.0197,12.328886 1.48262,3.786181 3.36627,7.397447 5.04297,11.099301 1.27902,2.94384 2.3376,6.10541 4.00725,8.86378 1.27292,1.72152 2.17714,3.63234 2.8287,5.66377 1.72739,5.73129 -6.42768,5.65188 -9.07479,4.31136 -1.80744,-0.93329 -3.38606,-2.22316 -4.94632,-3.51074 0,0 5.80838,-6.93082 5.80838,-6.93082 l 0,0 c 1.05244,0.90084 2.11932,1.8151 3.34776,2.46998 0.41598,0.23951 3.80159,1.86774 3.56349,2.12771 -7.1795,7.83896 -6.36668,7.25946 -7.24435,4.29872 -0.47991,-1.45707 -1.19137,-2.70602 -2.12275,-3.94035 -1.71469,-3.0828 -3.15299,-6.34867 -4.44542,-9.62392 -1.68798,-3.77037 -3.63612,-7.424792 -5.12454,-11.281739 C 102.89904,90.000202 101.31418,86.002346 99.682568,82.02196 97.262276,76.962865 94.602213,72.060252 91.43184,67.416926 87.944285,61.581492 84.224373,55.908084 80.6221,50.143315 76.42735,43.947124 72.030038,37.886972 67.971701,31.596364 63.879029,25.530354 59.059032,20.030212 54.056002,14.702684 52.172693,12.858343 50.217814,11.252738 48.127905,9.6490162 46.203203,8.1720684 45.510944,7.6909385 45.565388,7.6262401 c 1.714022,-2.0368499 3.935429,-3.585933 5.903144,-5.3788996 0.238333,1.0456775 0.534744,1.8269019 1.193899,2.7488279 0.975524,2.0476997 1.37875,4.1802911 2.009298,6.3319416 0.716553,1.883416 1.533368,3.724847 2.092777,5.654528 0.870927,1.889025 1.810147,3.707835 2.304814,5.74361 1.037066,2.113607 1.825774,4.290029 2.443499,6.550868 1.063674,2.0753 1.483656,4.284477 2.299253,6.447363 1.426352,3.540317 2.639878,7.187138 4.477223,10.53196 3.059397,4.807689 6.241983,9.532222 9.411393,14.269361 5.512319,7.43892 11.163554,14.796889 17.225184,21.796628 1.45442,1.528641 3.381614,3.567332 4.89735,5.116856 0.436998,0.446742 0.858948,0.910224 1.326468,1.324927 0.37192,0.329909 1.44318,0.47834 1.1863,0.903988 -1.47291,2.440541 -7.004183,3.96268 -5.566922,6.491592 -0.422761,-0.655 -0.851508,-1.30617 -1.288878,-1.951552 C 93.449101,91.219034 91.217306,88.370452 89.548563,85.150468 87.678294,81.126241 85.480841,77.274015 83.563443,73.273117 81.257098,68.860507 79.078477,64.38304 76.702253,60.00652 74.098311,55.450485 71.456149,50.915578 68.905635,46.331051 66.624794,41.792623 64.111109,37.347644 61.16015,33.208777 58.417675,29.343559 55.463139,25.58329 52.029482,22.305603 c 0,0 5.419951,-7.226601 5.419951,-7.226601 z"
           inkscape:connector-curvature="0" />
        <path
           style="fill:#de2d26;fill-opacity:1;fill-rule:nonzero;stroke:none"
           id="path3011"
           d="m 272.77575,108.23775 c -0.36821,-4.96331 0.23032,-9.818332 1.04241,-14.698863 0.44695,-4.336617 1.83154,-8.403525 3.37788,-12.447259 1.93265,-4.529338 4.23038,-8.884106 6.35245,-13.323592 1.5973,-4.309971 3.66589,-8.415039 5.49491,-12.623193 1.19635,-3.394546 2.51829,-6.734765 3.88741,-10.066362 2.44218,-4.190535 4.14573,-8.719258 6.18331,-13.100389 1.34999,-2.434694 2.1318,-5.081241 3.14417,-7.64816 1.07525,-1.785613 1.4464,-3.671884 1.62518,-5.709028 0.3329,-3.988743 1.28128,-7.90268 1.86693,-11.8659748 0.32539,-2.4248897 0.49916,-4.8617809 0.5874,-7.30517831 -0.0493,-1.15054659 0.10555,-2.32043069 0.0105,-3.46895559 -0.0192,-0.2317714 0.20742,0.6341348 -0.0163,0.6975009 -0.21602,0.061172 -0.18269,-0.4101836 -0.27403,-0.6152754 0.43449,0.4312062 -0.98274,-1.6955322 -0.62516,-1.3513448 0.24043,0.2314259 0.26549,0.6420576 0.52406,0.8530224 2.31429,1.8881954 5.36939,1.8627654 7.24274,-1.3920751 -1.04341,2.984783 -1.01501,5.95078605 -0.36219,9.0283556 1.00375,3.7231351 1.7089,7.4967411 2.7245,11.2147831 1.30402,4.289808 2.3527,8.663866 3.63824,12.959212 0.93387,3.727564 2.14352,7.339216 3.40119,10.962829 1.09809,2.748492 2.0723,5.569822 3.21833,8.302838 1.29923,3.287208 2.85749,6.456027 4.32089,9.671678 1.35707,3.089987 2.49984,6.388307 4.24523,9.292907 1.52287,3.045545 2.89491,6.152616 4.32942,9.24401 1.22216,3.184616 2.45551,6.319011 3.83764,9.435554 1.04802,1.834951 1.23167,3.922798 1.7025,5.923333 0.0266,0.112958 0.0169,-0.231476 0.0253,-0.347213 1.44805,2.340054 1.25204,5.264485 2.21744,7.7274 1.2852,2.64912 1.18452,5.76384 2.2208,8.4585 1.08245,3.05696 1.74561,6.2179 2.65629,9.32503 0.84303,4.11564 2.12486,8.11612 3.10778,12.19868 0.65674,3.34126 1.91862,6.50617 2.64098,9.84441 0.55756,2.70839 1.59329,5.2878 2.22618,7.99384 0.55603,2.63798 0.67659,5.33343 0.72416,8.02018 0.0155,1.75419 0.005,3.50841 -0.005,5.26259 0.20138,2.2411 -1.20486,3.9951 -1.89087,5.97692 -0.37986,0.90222 -0.32357,1.85127 -0.35233,2.81584 -0.0332,1.52158 -0.0154,3.04385 -0.0125,4.56569 0.001,1.62958 0.0158,3.25907 0.008,4.88868 -0.003,0.55573 -0.009,1.11144 -0.0173,1.66712 0,0 -8.96024,0.002 -8.96024,0.002 l 0,0 c -0.009,-0.55418 -0.0148,-1.10839 -0.0188,-1.66261 -0.01,-1.62167 0.003,-3.24333 -0.009,-4.86496 -0.008,-1.62445 -0.0162,-3.2491 0.014,-4.87338 0.0597,-1.88716 0.19142,-3.77933 0.87232,-5.56211 0.40194,-1.10907 0.37471,-1.11279 0.93782,-2.27725 0.10884,-0.22507 0.2661,-0.8577 0.39007,-0.6406 0.10051,0.17602 -0.0585,0.78252 0.0422,0.60661 0.11231,-0.1962 -7.8e-4,-0.45215 -0.001,-0.67822 0.003,-1.68095 0.0208,-3.36222 -0.0119,-5.04298 -0.0478,-2.05091 -0.10232,-4.10865 -0.49759,-6.12895 -0.6601,-2.76404 -1.74478,-5.40185 -2.28672,-8.19113 -0.67238,-3.26132 -2.02769,-6.32126 -2.61047,-9.59799 -0.95045,-3.94487 -2.23172,-7.80484 -2.99957,-11.79372 -0.87447,-3.04124 -1.50252,-6.13221 -2.56011,-9.11821 -0.82657,-2.82484 -1.18608,-5.76678 -2.24438,-8.53175 -0.64533,-2.298107 -0.84668,-4.711196 -1.87616,-6.893946 -0.59671,-1.788777 -0.86124,-3.657772 -1.67608,-5.369691 -1.40265,-3.084728 -2.64997,-6.202539 -3.84316,-9.372463 -1.28473,-2.853297 -2.56052,-5.701369 -3.9199,-8.515214 -1.79825,-3.21978 -3.31036,-6.627695 -4.68353,-10.043319 -1.49728,-3.335299 -3.06981,-6.633982 -4.43663,-10.025539 -1.14177,-2.901218 -2.22689,-5.82795 -3.37993,-8.723752 -1.30419,-3.759606 -2.59422,-7.503864 -3.57457,-11.367888 -1.26378,-4.367789 -2.3712,-8.783357 -3.67516,-13.138991 -1.07449,-3.968036 -1.82422,-7.995931 -2.89855,-11.965276 -0.64548,-3.88274209 -1.12683,-8.1569157 0.39308,-11.9078069 1.65744,-6.9953781 8.30679,-5.8169031 10.06885,-0.3623798 0.95422,2.3347895 1.14936,4.6446878 0.97624,7.13471961 -0.0566,2.79126229 -0.24697,5.57843679 -0.60441,8.34829999 -0.53956,3.8443551 -1.48586,7.6230991 -1.84759,11.4783381 -0.31629,2.894719 -0.86906,5.738701 -2.31181,8.311271 -1.27957,2.528803 -1.65769,5.560916 -3.22999,7.993277 -2.00372,4.239045 -3.54098,8.703171 -6.01769,12.718696 -1.40355,3.375261 -2.77039,6.750473 -3.95128,10.21051 -1.86984,4.313989 -3.93894,8.539941 -5.6091,12.941253 -2.02232,4.218582 -4.19655,8.362089 -6.0824,12.645735 -1.33812,3.477424 -2.60023,6.925157 -2.88894,10.681897 -0.72796,4.397071 -1.24309,8.733519 -0.98295,13.209409 0,0 -9.03325,0 -9.03325,0 z"
           inkscape:connector-curvature="0" />
        <path
           style="fill:#de2d26;fill-opacity:1;fill-rule:nonzero;stroke:none"
           id="path3013"
           d="m 135.71744,-5.047057 c 4.41642,3.4632305 8.85266,6.9149404 13.47257,10.1055652 4.73424,3.3684954 9.45293,6.7634048 14.1167,10.2306138 4.00737,2.719817 8.15636,5.260958 11.65821,8.627944 1.86096,1.732257 3.79727,3.379132 5.667,5.101901 2.4233,2.051691 4.19696,4.711987 6.40675,6.96464 1.70604,2.358146 3.83025,4.302538 5.81544,6.406358 2.27773,1.986428 4.29759,4.221947 6.24397,6.531152 2.21133,2.066594 4.35722,4.185731 6.68734,6.126981 3.03498,3.061215 6.34138,5.83655 9.50349,8.765336 3.30468,3.077376 6.52982,6.239289 9.72627,9.428552 2.8191,2.994974 5.87254,5.726782 8.88253,8.514745 3.03819,3.150418 6.68335,5.610809 10.06674,8.35747 3.23707,2.482117 6.59248,4.813304 9.77819,7.355894 2.11857,1.917619 4.37508,3.653675 6.662,5.366775 2.30234,1.51466 4.43947,3.24373 6.63164,4.91685 1.70259,1.02707 3.24796,2.43386 5.0129,3.33611 2.06384,1.65411 4.26493,3.10763 6.3168,4.78182 2.19001,1.85011 4.24964,3.84767 6.2883,5.8613 3.66502,3.75295 4.22667,0.70042 -3.79423,8.61276 0,0 5.63873,-6.99427 5.63873,-6.99427 l 0,0 c -5.57746,7.18624 -3.60534,9.26913 -8.17182,4.82053 -1.86472,-1.82257 -3.73445,-3.645 -5.72262,-5.33398 -1.71081,-1.44033 -3.61067,-2.64519 -5.29979,-4.08754 -1.95479,-1.27448 -3.88169,-2.53754 -5.81355,-3.8552 -2.13857,-1.68028 -4.24161,-3.36834 -6.53169,-4.84524 -2.34903,-1.78918 -4.69315,-3.5699 -6.91089,-5.51941 -3.16302,-2.59018 -6.61608,-4.829492 -9.82841,-7.364216 -3.5256,-2.884172 -7.34272,-5.451115 -10.50191,-8.764607 -3.06669,-2.866767 -6.22976,-5.626427 -9.09599,-8.708987 -3.13934,-3.090113 -6.26638,-6.193595 -9.49565,-9.190558 -3.07456,-2.817333 -6.2439,-5.546928 -9.1721,-8.513997 -2.71394,-2.29764 -5.25576,-4.764826 -7.78804,-7.258459 -1.84181,-2.211088 -3.79266,-4.295 -5.94819,-6.20446 -1.88767,-2.11727 -4.09705,-3.949271 -5.73373,-6.295138 -2.03847,-2.176692 -3.78737,-4.603088 -6.00728,-6.602335 -1.91627,-1.806526 -3.96,-3.465555 -5.88247,-5.265264 -3.0536,-3.190619 -7.27533,-5.068222 -10.74112,-7.748854 -4.57267,-3.409604 -9.21655,-6.725428 -13.86061,-10.035043 -4.71449,-3.2600161 -9.28868,-6.7342391 -13.69543,-10.3991382 0,0 5.41995,-7.2266008 5.41995,-7.2266008 z"
           inkscape:connector-curvature="0" />
        <path
           style="fill:#de2d26;fill-opacity:1;fill-rule:nonzero;stroke:none"
           id="path3015"
           d="m 263.0643,-10.401221 c -1.20216,4.2563068 -2.90497,8.3239632 -4.35853,12.4909173 -1.12707,3.6129158 -1.2895,7.4096486 -1.42654,11.1628097 0.57141,4.005612 1.26533,7.989346 1.72594,12.010999 0.37277,3.709955 0.4342,7.441492 0.45334,11.167171 -0.009,1.584732 -0.0136,3.169521 -0.0305,4.754192 0.002,1.788649 0.006,3.577257 0.0158,5.365897 0.0139,2.855784 2.8e-4,5.711577 0.008,8.567385 0.11834,3.109316 0.0384,6.086015 -0.83246,9.088121 -0.73371,1.856386 -1.06355,3.808769 -1.31027,5.776742 -0.0131,2.250661 -0.28829,4.386433 -1.01599,6.528478 -0.64787,1.983994 -0.99485,4.051302 -1.21033,6.122426 -0.0134,0.151399 -0.13463,1.382385 -0.0985,1.534175 0.0248,-0.196259 0.0496,-0.392518 0.0744,-0.588776 0.0171,-0.02153 0.0382,-0.08875 0.0513,-0.06459 0.18873,0.347135 0.65107,1.458764 0.82034,1.857774 0.43511,0.819803 0.57656,1.737427 0.87903,2.601911 0.0631,0.180242 -0.10054,-0.372734 -0.10217,-0.563683 -0.001,-0.121459 0.19082,0.151126 0.27717,0.236552 0.11943,0.154367 0.61378,0.483209 0.13748,0.171316 0,0 -4.50703,7.73252 -4.50703,7.73252 l 0,0 c -0.83107,-0.504095 -1.57971,-1.125443 -2.25171,-1.828533 -1.29612,-1.447766 -2.11763,-3.043501 -2.71564,-4.826554 -0.98486,-2.307316 -2.06349,-4.58312 -1.53212,-7.173767 0.27797,-2.784672 0.75529,-5.562254 1.67419,-8.213928 0.53804,-1.408124 0.46032,-2.958792 0.57847,-4.591968 0.28416,-2.481657 0.72736,-4.944395 1.5994,-7.295674 0.65728,-2.099607 0.4468,-4.26553 0.44084,-6.50246 0.008,-2.856773 -0.006,-5.713537 0.009,-8.570282 0.0113,-1.800787 0.0151,-3.601582 0.0295,-5.402332 -0.003,-1.541467 0.007,-3.082843 -0.0306,-4.624109 -0.0516,-3.407734 -0.0939,-6.82151 -0.41976,-10.216524 -0.52301,-4.477436 -1.46822,-8.896264 -1.79923,-13.393994 0.17984,-4.6610117 0.47198,-9.3582592 1.93855,-13.82466768 1.50828,-4.28783572 3.15721,-8.50947482 4.53542,-12.84493632 0,0 8.39348,3.357393 8.39348,3.357393 z"
           inkscape:connector-curvature="0" />
        <path
           style="fill:#de2d26;fill-opacity:1;fill-rule:nonzero;stroke:none"
           id="path3017"
           d="m 284.04523,86.31415 c 0.0426,4.063183 0.0353,8.126737 0.0135,12.190023 -0.012,2.690987 -0.0101,5.382007 -0.0207,8.072977 -0.003,2.36179 0.0121,4.72351 -0.002,7.08528 0.005,1.4662 -0.004,2.93244 -0.0244,4.39849 -0.006,0.7067 9.5e-4,1.41379 0.009,2.12057 0.004,0.84669 -0.003,1.69337 -0.0136,2.53998 -7e-4,0.043 -0.001,0.086 -0.002,0.12893 0,0 -8.95343,0 -8.95343,0 l 0,0 c -7.1e-4,-0.043 -0.001,-0.0859 -0.002,-0.12893 -0.0108,-0.84661 -0.0181,-1.69329 -0.0136,-2.53998 0.008,-0.70678 0.0149,-1.41387 0.009,-2.12057 -0.0207,-1.46605 -0.0298,-2.93229 -0.0244,-4.39849 -0.0136,-2.36177 0.002,-4.72349 -0.002,-7.08528 -0.0106,-2.69097 -0.009,-5.38199 -0.0207,-8.072977 -0.0219,-4.063286 -0.0291,-8.12684 0.0135,-12.190023 0,0 9.03325,0 9.03325,0 z"
           inkscape:connector-curvature="0" />
        <path
           style="fill:#de2d26;fill-opacity:1;fill-rule:nonzero;stroke:none"
           id="path3019"
           d="m 278.83609,113.47307 c 2.81463,2.04322 5.07919,4.66772 7.85942,6.75998 1.98838,1.60093 4.11352,2.98927 6.21165,4.44683 2.40256,1.66871 4.8962,3.20587 7.33012,4.83746 2.12968,1.08199 3.90428,2.78983 5.91147,4.01636 1.81951,0.98533 2.65638,2.78162 4.24671,3.9288 1.94428,1.94297 3.84344,3.9154 5.7246,5.91489 1.43528,1.65602 3.04433,3.14403 4.5863,4.69855 1.78343,1.95311 3.46748,3.91179 4.64121,6.29552 1.07375,1.07797 2.10163,3.06458 2.77611,4.7087 -0.59325,-2.25572 1.57376,5.55767 0.61306,3.90667 -0.16811,-0.2889 -0.30406,-0.72192 -0.11323,-0.99634 0.1436,-0.20652 0.22421,0.45035 0.33631,0.67552 1.06711,2.02041 1.57571,4.25502 1.85883,6.50379 0.18366,1.71208 0.18548,3.43684 0.18479,5.15672 -0.60182,2.506 -1.58435,4.93467 -2.7771,7.21513 -0.30463,0.38537 -0.6032,0.7756 -0.91388,1.15611 -0.37529,0.45961 0.69169,-1.01923 0.76296,-1.6083 0.17216,-1.42298 -0.39468,-2.35514 -1.26064,-3.38463 -5.79203,1.6253 -7.04255,3.98463 -7.09896,1.36472 0,0 8.9412,0.91053 8.9412,0.91053 l 0,0 c -0.55558,4.1376 -0.58267,2.34885 -7.71235,4.4864 -2.10974,-2.35284 -2.34727,-5.0874 -0.38278,-7.65245 0.0209,1.07775 1.82989,-5.89209 1.4454,-2.47978 -0.003,-1.35386 0.015,-2.71335 -0.12173,-4.0617 -0.15155,-1.2683 -0.38771,-2.54228 -1.0209,-3.66911 -0.70004,-1.46589 -1.13798,-2.98499 -1.2425,-4.59423 -0.18853,-0.45036 -1.72553,-2.92092 -2.40054,-3.75403 -0.67399,-1.5288 -2.00526,-2.61712 -3.02514,-3.93709 -1.48537,-1.68435 -3.27958,-3.09298 -4.71815,-4.8238 -1.59859,-1.80677 -3.36949,-3.46015 -5.00207,-5.23008 -1.3169,-1.20855 -2.40783,-2.67518 -3.6221,-3.44094 -1.84409,-1.40328 -3.6484,-2.66859 -5.69094,-3.82098 -2.45689,-1.6902 -5.01603,-3.21806 -7.4604,-4.9212 -2.14063,-1.52571 -4.31955,-2.97087 -6.38357,-4.59743 -2.82483,-2.0707 -5.19667,-4.58776 -7.90311,-6.78399 0,0 5.41995,-7.2266 5.41995,-7.2266 z"
           inkscape:connector-curvature="0" />
        <path
           style="fill:#de2d26;fill-opacity:1;fill-rule:nonzero;stroke:none"
           id="path3023"
           d="m 365.93409,-3.0767964 c 5.25739,3.49043086 11.06441,5.909212 16.90781,8.2061735 5.31664,1.9660349 10.77153,3.5281979 16.13015,5.3675459 3.68979,1.496665 7.65029,2.008832 11.45005,3.094507 2.20854,0.982338 4.47605,1.547596 6.8598,1.834193 4.09763,1.116921 8.12323,2.500661 12.15511,3.851659 4.40072,1.574559 9.01495,2.238058 13.48163,3.576861 3.98146,0.882353 7.94689,1.876826 11.95308,2.655073 5.0743,0.977164 10.17974,1.962409 15.19498,3.221935 4.51238,1.446525 9.18504,1.94868 13.88637,2.26162 4.50805,0.31862 9.03549,0.04169 13.52141,0.584099 4.49372,0.972211 9.06617,1.371612 13.64647,1.644948 4.48299,0.172215 8.92377,0.05581 13.32188,1.024858 2.71689,0.6895 5.48209,1.1515 8.27589,1.362873 3.86524,-0.138282 7.62125,0.590658 11.41938,1.177594 4.7491,0.341761 9.35232,1.467511 13.96857,2.561504 1.94918,0.561721 3.96058,0.749797 5.97551,0.866308 3.33479,0.680574 6.45491,2.056515 9.70548,3.025991 4.13336,1.192937 8.35531,2.141759 12.44649,3.477005 3.77738,1.094001 7.41287,2.625009 11.1925,3.709055 3.52133,1.356772 7.16547,2.320747 10.65517,3.754 2.43618,0.969366 4.85213,1.867635 7.13409,3.182645 1.74807,0.57768 3.43463,1.092312 5.02243,2.067127 1.70743,0.796747 3.2916,1.801529 5.09847,2.372137 2.87097,1.281352 5.8432,2.280611 8.63209,3.738724 2.01573,0.870815 4.07364,1.525662 6.06053,2.465092 2.49122,1.254231 4.91518,2.644411 7.41395,3.887597 3.64768,1.198556 6.92542,3.211271 10.43224,4.721542 3.55331,1.518274 6.99151,3.349323 10.62785,4.662886 4.17713,1.763216 8.51679,3.064059 12.6989,4.81885 3.97939,1.462365 7.96999,2.92339 12.00665,4.230903 3.17279,1.492926 6.56366,2.423929 9.78945,3.756117 1.7985,1.118921 3.80648,1.748727 5.70779,2.626113 2.09269,1.060603 4.29677,1.87842 6.49325,2.707628 3.48539,1.536043 6.85795,3.302173 10.23373,5.061363 3.88757,1.63684 7.79518,3.23538 11.68833,4.86829 4.23285,2.00345 8.55887,3.86558 13.01447,5.31845 3.8073,1.63493 7.6497,3.18025 11.51967,4.6618 3.38464,1.2295 6.83515,2.28307 10.22563,3.49287 2.77818,1.17998 5.66772,1.94234 8.4358,3.14235 2.44575,0.91948 4.9277,1.69394 7.36727,2.67019 2.47413,0.67186 4.66961,2.02278 7.09081,2.83185 2.06241,0.41799 3.84338,1.61275 5.77303,2.41476 1.53136,0.66597 2.86834,2.00243 4.57717,2.24744 2.11725,1.14625 4.39443,1.83059 6.60732,2.73405 2.43583,1.10821 4.93051,2.04652 7.38532,3.13719 2.06088,0.69025 4.03784,1.58577 6.06222,2.38097 2.02323,0.585 3.76004,1.78103 5.68384,2.59177 1.94196,0.50858 3.8045,1.16213 5.60032,2.10094 1.75776,0.37591 3.24005,1.422 4.86677,2.09921 1.65537,1.0146 3.19328,2.28393 5.06539,2.84722 1.77644,0.73226 3.35585,1.74211 5.19013,2.3113 1.87727,-0.0685 3.34651,1.34111 5.05406,1.81629 2.19702,0.49736 4.20243,1.52877 6.40459,2.03093 2.79794,1.16348 5.64266,2.10881 8.61786,2.67792 2.38528,0.73302 4.69879,1.65966 7.07942,2.41457 3.1745,1.90756 1.68121,0.50642 3.77036,4.84999 0,0 -8.90964,1.23176 -8.90964,1.23176 l 0,0 c 1.74366,2.43066 0.71873,1.83644 2.50716,2.51919 -2.07502,-0.61509 -4.12425,-1.30607 -6.12327,-2.13773 -3.13211,-0.5852 -6.21926,-1.41832 -9.11611,-2.77263 -2.54636,-0.66088 -4.82151,-1.74576 -7.34817,-2.36002 -3.30301,-1.30927 -1.58798,-1.21297 -4.58099,-1.67329 -1.8552,-0.56766 -3.62292,-1.32015 -5.2837,-2.3292 -2.16392,-0.70902 -4.43662,-1.74346 -6.15373,-3.26503 -1.73829,-0.85267 -3.31592,-1.72952 -5.2098,-2.27964 -1.59986,-0.83509 -3.22191,-1.23208 -4.95172,-1.78528 -1.90586,-0.81262 -3.5983,-1.96955 -5.59701,-2.54447 -2.08371,-0.88048 -4.10908,-1.76027 -6.26827,-2.45731 -2.45051,-1.06963 -4.89744,-2.06733 -7.34539,-3.12813 -1.66764,-0.84922 -4.01648,-1.16881 -5.28225,-2.29714 -2.00902,-0.58147 -4.04466,-1.32108 -5.70605,-2.63319 -1.7732,-0.7157 -3.36293,-1.80838 -5.22514,-2.19046 -2.58336,-0.86252 -4.9589,-2.18833 -7.5623,-2.98753 -2.54159,-0.99752 -5.09093,-1.82661 -7.64374,-2.78171 -2.59284,-1.13205 -5.33435,-1.77866 -7.94182,-2.91349 -3.39574,-1.28298 -6.92337,-2.24677 -10.32445,-3.52407 -3.75533,-1.40493 -7.46934,-2.91958 -11.15366,-4.49904 -4.67914,-1.54934 -9.25557,-3.44286 -13.69827,-5.57469 -4.1296,-1.7399 -8.28267,-3.42652 -12.38236,-5.22846 -3.03066,-1.61015 -6.096,-3.15486 -9.19628,-4.6243 -2.57086,-0.96333 -5.12707,-1.99203 -7.57176,-3.24108 -1.23047,-0.46559 -3.56853,-1.34525 -5.07948,-2.28636 -2.79612,-1.44898 -6.2025,-1.79473 -8.96998,-3.401265 -4.28048,-1.404243 -8.53662,-2.888866 -12.74866,-4.478923 -4.03391,-1.736598 -8.2632,-2.930625 -12.28873,-4.686288 -3.78707,-1.422754 -7.42344,-3.225212 -11.12079,-4.862555 -3.6495,-1.616845 -7.11448,-3.608556 -10.88748,-4.957923 -2.42,-1.244178 -4.79094,-2.585379 -7.20785,-3.824897 -2.03317,-0.980559 -4.2724,-1.556703 -6.36469,-2.601287 -2.3881,-1.254677 -4.9652,-2.03238 -7.39637,-3.204973 -2.46918,-0.893577 -4.75322,-2.111913 -7.05096,-3.367116 -0.27594,-0.105524 -3.48206,-1.194406 -4.59171,-1.789464 -1.94834,-1.106573 -4.00202,-1.806778 -6.08684,-2.622503 -3.19287,-1.30273 -6.53688,-2.136451 -9.73982,-3.422334 -3.89859,-1.132082 -7.664,-2.649419 -11.55251,-3.811967 -3.98362,-1.377834 -8.19089,-2.146706 -12.21714,-3.401747 -1.66042,-0.514641 -6.28373,-1.820688 -7.73547,-2.630542 -0.0687,-0.03833 0.14567,-0.05955 0.2185,-0.08932 -2.5445,-0.115372 -5.07835,-0.394555 -7.55323,-1.022986 -4.4308,-0.992575 -8.82842,-2.076777 -13.37456,-2.406407 -3.5639,-0.590633 -7.04905,-1.292272 -10.68652,-1.159338 -3.21543,-0.260696 -6.40914,-0.725598 -9.5387,-1.526817 -3.91147,-0.887724 -7.90869,-0.48227 -11.89448,-0.770603 -4.80995,-0.288392 -9.61328,-0.717312 -14.33033,-1.747818 -4.23836,-0.70207 -8.63605,0.05234 -12.9052,-0.479178 -5.25202,-0.356384 -10.4767,-0.969175 -15.52726,-2.534662 -4.85093,-1.264348 -9.83071,-2.127405 -14.74119,-3.119553 -4.26741,-0.885594 -8.50187,-1.911312 -12.74789,-2.88196 -4.57501,-1.355813 -9.32695,-1.964023 -13.81465,-3.647392 -3.43748,-1.182409 -6.9072,-2.244268 -10.30774,-3.516684 -2.88925,-0.348235 -5.70304,-0.982077 -8.38944,-2.132764 -3.84516,-1.27612 -8.07499,-1.42032 -11.81203,-3.145473 -5.47388,-1.898202 -11.08211,-3.412121 -16.5131,-5.44267 -6.31295,-2.477022 -12.60598,-5.0974681 -18.20904,-8.9876262 0,0 4.65513,-7.7585372 4.65513,-7.7585372 z"
           inkscape:connector-curvature="0" />
        <path
           style="fill:#de2d26;fill-opacity:1;fill-rule:nonzero;stroke:none"
           id="path3025"
           d="m 881.85408,166.29163 c 3.84305,1.71233 8.00358,2.40614 12.02591,3.53151 2.92754,1.09938 5.95503,1.81475 9.06291,2.1151 3.12603,0.88358 6.3237,1.57161 9.40429,2.59132 2.16729,1.1622 4.55071,1.65868 6.7877,2.62191 1.83405,0.99635 3.80245,1.66903 5.73745,2.45218 2.78715,1.01051 5.53996,2.15247 8.18055,3.50665 1.57254,1.17501 3.27958,1.88286 5.16502,2.32239 2.37733,0.48381 4.75196,1.5274 6.93,2.59809 2.44096,1.13267 4.77207,2.44288 7.30564,3.37615 2.7089,0.7602 5.30489,1.8488 7.99697,2.67612 2.43675,0.68404 4.84786,1.74825 7.10839,2.89563 1.59544,1.01493 3.30396,1.52686 5.14607,1.82464 2.38333,0.94785 4.81457,1.78465 7.09767,2.94551 1.76302,1.08376 3.72556,1.67085 5.55866,2.63809 2.44431,1.10333 4.62438,2.72808 6.9773,4.0099 2.69033,1.33081 5.1762,3.01729 7.50227,4.90422 1.35962,1.04444 2.92892,1.99491 4.51742,2.67799 3.2339,1.46708 6.1506,3.50214 9.2466,5.22382 3.8457,1.6065 7.4878,3.64152 11.0976,5.71186 3.3474,1.70753 6.7138,3.40851 9.8763,5.43813 1.7789,1.21662 3.7079,2.11556 5.5659,3.1424 2.0606,1.01133 4.0929,2.03909 6.0674,3.23042 3.1083,1.56845 6.2736,3.0046 9.4471,4.4429 3.7879,1.55478 7.4026,3.48606 11.1375,5.16105 3.1192,1.11867 5.9814,2.79 9.1432,3.80073 2.5379,0.97429 4.9044,2.28648 7.2426,3.65091 1.9403,1.02999 3.8405,2.09044 5.92,2.83395 3.0758,1.4599 6.0007,3.14136 9.0719,4.61748 4.2493,1.88196 8.4705,3.8388 12.6199,5.9343 4.1763,2.12231 8.469,3.96657 12.6916,5.98881 3.8299,2.20312 7.8311,4.01289 11.8656,5.79083 3.8783,1.75618 7.7514,3.56898 11.5582,5.48981 2.5843,1.86764 5.4833,3.08439 8.2944,4.51277 1.5894,1.09841 3.4011,1.76188 5.0796,2.7007 1.9991,1.24327 3.8795,2.69274 5.9394,3.86014 3.4354,1.87845 7.2197,2.77938 10.8721,4.08175 2.7872,1.23029 5.7824,1.81193 8.6179,2.88319 1.6904,1.10946 3.5726,1.57678 5.4139,2.32423 2.3165,1.02755 4.6649,1.99825 7.0958,2.72879 4.4741,1.82124 9.0474,3.30106 13.6164,4.85415 4.3285,1.68579 8.7057,3.30762 12.9972,5.09141 2.139,0.93669 4.2432,1.8862 6.5245,2.40137 1.8481,0.45355 3.3907,1.80307 5.2873,2.09566 2.2141,1.09082 4.4062,2.10459 6.6243,3.19779 3.0791,1.13904 6.0065,2.61919 8.8846,4.18533 2.2334,1.00999 4.4117,2.06183 6.5542,3.27197 2.8497,1.13914 5.5707,2.5695 8.4665,3.60438 4.7825,1.90913 9.7821,3.31221 14.7956,4.48472 5.2847,1.35775 10.4589,3.08402 15.7087,4.55672 4.0637,0.92455 8.0029,2.2902 12.0683,3.21307 2.81,0.21321 5.397,1.28322 8.0431,2.15217 3.0304,1.50677 6.3255,2.27684 9.5428,3.27527 5.512,1.27477 10.9125,3.01325 16.2806,4.79129 5.5817,1.77228 11.2198,3.37865 16.7626,5.2708 4.3213,1.31601 8.5381,2.93379 12.7095,4.66478 4.9609,2.06486 10.0739,3.72499 15.0755,5.68071 4.0116,1.46066 7.584,3.93057 11.5828,5.4088 2.2054,1.14442 4.2582,2.53639 6.4959,3.62533 4.041,2.27344 7.8793,4.87789 11.7373,7.44547 5.0955,3.09099 10.3121,5.95796 15.4815,8.91916 3.5405,1.81659 7.0816,3.68526 10.4214,5.85796 2.929,1.64521 5.6559,3.65428 8.2857,5.74337 2.6819,2.18455 5.3595,4.37186 8.2016,6.35114 4.8074,3.54186 2.8078,1.1232 -2.234,9.87741 0,0 1.9136,-8.84727 1.9136,-8.84727 l 0,0 c -1.7299,10.28656 0.1535,9.96986 -4.7836,6.42118 -3.0451,-2.05626 -5.8912,-4.37324 -8.7301,-6.69811 -2.4082,-1.90512 -4.8542,-3.80272 -7.5648,-5.25318 -3.2097,-2.06094 -6.6235,-3.79864 -10.0217,-5.5215 -5.3839,-3.043 -10.8052,-6.012 -16.0666,-9.2687 -3.5368,-2.40099 -7.0697,-4.80521 -10.7484,-6.98265 -1.9051,-1.00048 -3.7964,-2.03637 -5.5972,-3.21599 -4.0148,-1.54841 -7.7311,-3.73474 -11.7157,-5.34872 -5.061,-1.99583 -10.2396,-3.68723 -15.2484,-5.82106 -3.9698,-1.69125 -8.0272,-3.15079 -12.1516,-4.4131 -5.5152,-1.90096 -11.1613,-3.41218 -16.7111,-5.20868 -5.3011,-1.79182 -10.6449,-3.49142 -16.085,-4.81021 -3.2359,-1.01891 -6.5912,-1.80153 -9.617,-3.36322 -2.3996,-0.77058 -4.6532,-1.77038 -7.2137,-1.89351 -4.2415,-0.91668 -8.3463,-2.30602 -12.5709,-3.28216 -5.1285,-1.43591 -10.1896,-3.09088 -15.3474,-4.42971 -5.3613,-1.27152 -10.7087,-2.79205 -15.8206,-4.85212 -3.3337,-1.24128 -6.4982,-2.83731 -9.7501,-4.27012 -2.1309,-1.1844 -4.2301,-2.19958 -6.4804,-3.1895 -2.783,-1.51912 -5.6323,-2.8916 -8.5914,-4.05231 -1.3778,-0.69639 -4.0122,-1.632 -4.6703,-2.5166 -1.7532,-0.459 -3.6814,-1.0085 -5.1377,-2.06658 -2.8225,-0.61046 -5.4852,-1.65811 -8.119,-2.83329 -4.0629,-1.75741 -8.3112,-3.1752 -12.4221,-4.81439 -4.4858,-1.54542 -8.9881,-2.99403 -13.3652,-4.83819 -2.8014,-0.89872 -5.5293,-2.00864 -8.21,-3.21695 -1.6159,-0.53818 -3.4821,-1.1737 -5.0413,-2.14833 -2.4512,-1.38403 -5.8099,-1.1611 -8.2644,-2.68386 -4.1529,-1.53704 -8.5089,-2.53724 -12.3763,-4.81484 -2.0977,-1.26498 -4.0171,-2.73822 -6.0832,-4.01454 -1.4505,-0.75632 -3.2003,-1.37067 -4.5904,-2.38274 -2.5987,-1.57138 -5.7066,-2.38945 -8.106,-4.37071 -3.6921,-1.83325 -7.4145,-3.62096 -11.1808,-5.28017 -4.1049,-1.82693 -8.1959,-3.65064 -12.0893,-5.91211 -4.2984,-2.03901 -8.6691,-3.89811 -12.9085,-6.06557 -4.0912,-2.09053 -8.2737,-4.00254 -12.4595,-5.89347 -2.7733,-1.36253 -5.4642,-2.81096 -8.1725,-4.28331 -2.6191,-0.95024 -5.0023,-2.29008 -7.4591,-3.57077 -1.7326,-1.04024 -3.4989,-1.97813 -5.3702,-2.80001 -3.5073,-1.10602 -6.7189,-2.83666 -10.1479,-4.13546 -3.7414,-1.69809 -7.3881,-3.59966 -11.1797,-5.1844 -3.4971,-1.62003 -7.0184,-3.17649 -10.4157,-4.99602 -1.9828,-1.25987 -4.049,-2.19338 -6.1122,-3.30853 -1.6073,-0.7648 -3.98,-2.03836 -5.7644,-3.21822 -2.9173,-2.05045 -6.3456,-3.34502 -9.4314,-5.11483 -3.5716,-2.07985 -7.2149,-4.02548 -11.0095,-5.6736 -2.913,-1.65918 -5.6702,-3.57159 -8.7054,-5.00333 -2.17523,-1.09567 -4.36537,-2.29662 -6.28412,-3.7928 -1.9336,-1.56443 -4.00865,-2.94377 -6.25234,-4.03109 -2.26805,-1.3008 -4.40971,-2.84477 -6.77907,-3.93157 -1.93967,-1.04282 -4.0851,-1.61505 -5.927,-2.86026 -0.44808,-0.17945 -3.4255,-1.18647 -3.95808,-1.7908 -2.84718,-0.47337 -5.56615,-1.31796 -8.04979,-2.82725 -1.36526,-1.1228 -3.70502,-1.56099 -5.3272,-2.14977 -2.8862,-0.84349 -5.65165,-2.00201 -8.53801,-2.83156 -2.94214,-1.08444 -5.65006,-2.58569 -8.47108,-3.92724 -1.25827,-1.13578 -3.4628,-1.37195 -4.66127,-1.75933 -2.64462,-0.60586 -5.17741,-1.54505 -7.41205,-3.12187 -2.29967,-1.35409 -4.90373,-2.14684 -7.36797,-3.13167 -2.13596,-0.90065 -4.32583,-1.66093 -6.36802,-2.77351 -1.21431,-0.39197 -4.07326,-1.20392 -5.74303,-2.13739 -2.2896,-0.99795 -4.98032,-1.05807 -7.28626,-2.09854 -3.62826,-0.38965 -7.19809,-1.11815 -10.63151,-2.38495 -4.30068,-1.26265 -8.81375,-1.88368 -12.88911,-3.87206 0,0 3.35739,-8.39348 3.35739,-8.39348 z"
           inkscape:connector-curvature="0" />
        <path
           style="fill:#de2d26;fill-opacity:1;fill-rule:nonzero;stroke:none"
           id="path3029"
           d="m 333.40738,168.96328 c 2.10553,2.9201 3.47564,6.63755 6.14328,9.12147 1.4152,0.85744 3.08608,1.55428 4.68097,2.14738 1.19397,0.13314 2.44003,0.81713 3.66282,0.71188 0.11713,-0.0101 -0.40222,-0.0534 -0.32342,-0.14069 0.15075,-0.16689 0.42727,-0.14053 0.64091,-0.2108 0.42229,-0.39775 5.0441,-1.24077 3.29322,-1.13923 1.67839,-1.29363 3.37702,-2.64426 5.09412,-3.99263 1.3081,-1.75055 3.65391,-3.94908 5.90719,-4.26171 1.10739,-0.15364 2.22588,0.21243 3.33882,0.31864 4.74889,1.48214 8.36218,4.99896 12.24087,7.93181 3.59304,2.83544 7.07993,5.8183 10.57977,8.77511 1.67118,1.17363 3.11971,2.70395 4.89764,3.71475 2.00981,1.15214 3.7996,2.71388 5.93986,3.62288 3.15567,1.80129 6.23943,3.69421 9.3076,5.63643 2.28013,0.84959 3.92759,3.15537 6.1402,4.02926 2.23988,1.18339 4.28284,2.79402 6.25467,4.38362 2.72614,2.15591 5.22104,4.5746 7.90379,6.77859 3.01865,2.67631 5.95167,5.43837 8.98065,8.1062 3.08824,3.26999 6.51269,6.1987 9.79339,9.27152 3.12387,2.99821 6.15198,6.05124 9.57289,8.70857 3.47877,2.99652 6.821,6.07483 10.55776,8.75794 3.28661,2.85998 6.75845,5.49326 10.29931,8.02551 2.5717,2.18735 4.91096,4.61944 7.3357,6.95627 1.86391,1.43669 3.60437,3.00398 5.44564,4.4747 1.95507,1.47077 4.15864,2.55621 6.16229,3.98958 2.33574,1.88477 4.74171,3.65053 7.12706,5.47013 1.97021,1.35483 4.08759,2.50724 6.1158,3.79367 2.64251,1.47986 5.0442,3.36497 7.6789,4.8663 2.45608,1.68423 4.6493,3.69014 7.07748,5.40988 2.24674,1.82548 4.80818,3.16149 7.1888,4.80046 2.79347,1.975 5.28131,4.33093 7.74603,6.69164 3.37832,2.51505 6.57502,5.22575 10.14302,7.47219 5.12467,3.43063 10.3492,6.79119 15.13045,10.69422 3.10735,2.40618 6.36591,4.6118 9.39592,7.11839 1.50597,1.35169 3.07465,2.64402 4.71306,3.8446 1.54045,1.63152 3.34388,2.97719 5.0454,4.43317 1.84131,1.07561 3.63764,2.6812 5.11448,4.23244 2.0306,0.9108 2.74106,2.34424 3.68106,4.35413 0,0 -8.83572,1.47462 -8.83572,1.47462 l 0,0 c 0.37281,0.71383 0.65937,1.47983 1.11844,2.1415 0.17223,0.24824 1.03502,0.49302 0.73518,0.53017 -0.97937,0.12137 -2.51507,-2.05695 -3.26608,-2.33116 -1.26679,-1.38447 -2.81104,-2.49578 -4.37175,-3.52499 -1.54966,-1.29882 -3.25829,-2.58658 -4.56008,-4.05439 -1.80403,-1.33119 -3.47156,-2.76438 -5.20946,-4.19428 -2.91723,-2.56788 -6.37453,-4.47223 -9.35092,-6.96948 -4.47823,-3.70226 -9.489,-6.75904 -14.26234,-10.06091 -4.03405,-2.6184 -7.73843,-5.65039 -11.50175,-8.6389 -2.10988,-2.04452 -4.25163,-4.07813 -6.64656,-5.78999 -2.36374,-1.68127 -4.97656,-2.98575 -7.21304,-4.84835 -2.2222,-1.56461 -4.27565,-3.33364 -6.44427,-4.97027 -2.72204,-1.62092 -5.27547,-3.50374 -8.00909,-5.09264 -2.20953,-1.46738 -4.57622,-2.68081 -6.732,-4.22393 -2.30596,-1.79153 -4.68524,-3.46599 -6.94043,-5.32986 -2.0795,-1.57023 -4.50672,-2.5712 -6.49901,-4.25984 -2.05428,-1.67536 -4.02464,-3.39947 -6.09828,-5.04557 -2.04743,-2.05892 -4.19421,-4.03358 -6.30169,-6.03472 -3.54148,-2.54209 -7.06046,-5.13082 -10.33121,-8.01994 -3.82248,-2.76218 -7.30319,-5.86362 -10.83123,-8.97583 -3.6165,-2.83451 -6.88953,-6.0124 -10.17885,-9.21775 -3.24088,-3.00001 -6.57278,-5.92113 -9.61288,-9.12512 -2.9551,-2.62481 -5.82012,-5.33455 -8.78276,-7.94743 -2.62619,-2.22296 -5.11042,-4.59315 -7.80574,-6.73692 -1.67549,-1.39257 -3.32746,-2.78539 -4.88537,-3.49641 -2.2706,-1.33777 -4.29954,-3.03846 -6.64532,-4.26478 -2.75844,-1.7543 -5.53568,-3.45613 -8.34239,-5.13323 -2.31771,-1.16152 -4.4462,-2.61118 -6.61766,-4.02183 -2.18843,-1.31015 -4.06071,-3.0566 -6.13854,-4.52542 -3.42052,-2.831 -6.80519,-5.70801 -10.28276,-8.4608 -2.95652,-2.25264 -5.68791,-4.98202 -9.12083,-6.50121 2.69155,-0.60465 -0.22996,0.22031 2.21201,-1.01163 0.2525,-0.12738 -0.42954,0.36803 -0.64126,0.55554 -0.99636,0.88245 -1.96158,1.79828 -2.84246,2.79888 -1.61643,1.27314 -3.32155,2.46265 -4.88387,3.78149 -1.99628,1.54216 -4.26244,2.18014 -6.62955,2.9368 -3.36657,0.8875 -6.49211,0.49766 -9.7553,-0.64904 -2.75579,-1.12646 -5.65169,-2.23675 -7.87251,-4.26149 -2.9654,-3.20581 -5.20685,-6.97463 -7.38861,-10.74403 0,0 7.75854,-4.65513 7.75854,-4.65513 z"
           inkscape:connector-curvature="0" />
        <path
           style="fill:#de2d26;fill-opacity:1;fill-rule:nonzero;stroke:none"
           id="path3033"
           d="m 585.08451,341.30244 c 4.51702,2.28915 8.90943,4.80316 13.2767,7.36034 2.89889,1.57883 5.60314,3.47316 8.11456,5.6089 1.37322,0.99797 2.55958,2.29383 4.03931,3.14038 1.23438,0.16003 2.2333,1.28332 3.33535,1.81637 0,0 -4.36012,7.88674 -4.36012,7.88674 l 0,0 c -1.24509,-0.71974 -2.22452,-1.53373 -3.61226,-1.9852 -1.88417,-1.15552 -3.45847,-2.68239 -5.24001,-3.97456 -2.11223,-1.78498 -4.39773,-3.35 -6.85054,-4.63733 -4.41382,-2.55656 -8.88276,-5.00478 -13.35811,-7.4571 0,0 4.65512,-7.75854 4.65512,-7.75854 z"
           inkscape:connector-curvature="0" />
        <path
           style="fill:#de2d26;fill-opacity:1;fill-rule:nonzero;stroke:none"
           id="path3047"
           d="m 613.2079,359.71765 c 3.13452,2.86598 6.42267,5.50909 9.90896,7.93886 2.1689,1.55127 4.30617,3.1628 6.43563,4.77591 1.39592,1.24829 3.02963,1.94545 4.39305,3.27219 1.10709,0.60404 2.13335,1.39125 3.31184,1.92302 1.65882,1.38455 3.62779,2.09417 5.47092,3.1406 1.76743,0.64844 3.01996,2.41955 4.73211,3.08586 1.98321,0.9104 3.82137,2.07601 5.68464,3.20296 1.71578,0.79631 3.22713,1.98742 4.89815,2.8389 1.71282,0.83707 3.33099,1.85431 4.89154,2.93861 1.31461,1.20358 2.94283,1.95025 4.39498,2.97782 1.33264,0.77829 2.45759,1.89194 3.81591,2.64379 1.48684,1.28203 3.13953,2.33577 4.66694,3.56609 1.60796,1.35966 3.12745,2.82039 4.6276,4.29693 1.25035,0.9557 2.55702,2.21127 3.76388,3.51347 1.5148,1.38186 2.30317,3.27029 3.34869,4.98557 1.03976,1.42313 2.08173,2.92869 3.00091,4.37395 1.16845,1.74468 2.46478,3.39732 3.57226,5.17925 0.68522,1.3949 1.95609,2.31981 2.80507,3.71822 -0.31707,-0.70052 -0.32409,-0.63196 0.65401,0.62941 0.67369,0.86879 1.431,1.57022 2.23088,2.55076 1.53079,1.35089 3.04525,2.79478 4.6496,4.10991 2.73246,3.16345 5.84505,5.92824 8.77262,8.8977 2.67761,2.14713 4.66615,5.04911 7.20965,7.31432 1.86584,1.83511 3.6469,3.78118 5.6227,5.50284 1.84853,1.51595 3.35198,3.37592 5.17768,4.91799 1.94619,0.96991 2.86869,3.55871 4.85423,4.37819 2.05058,1.53115 4.08309,3.07513 6.13902,4.60462 1.89742,1.39477 3.6445,2.97148 5.3599,4.58017 1.36844,1.48555 2.90675,2.74004 4.42352,4.04397 2.12233,1.62473 4.01426,3.5158 6.07406,5.22366 2.16366,1.66391 4.36895,3.27352 6.43971,5.05783 1.8267,1.61928 3.76859,3.10497 5.67245,4.63973 2.13807,1.31358 4.04334,3.0084 6.24357,4.23063 2.90026,1.69588 5.64897,3.62084 8.6061,5.22043 4.02894,2.13765 7.96902,4.42216 11.87087,6.78588 4.21077,3.08468 9.02011,5.13047 13.54378,7.68058 4.55447,2.32415 8.7479,5.26365 13.19308,7.77821 3.53819,2.09469 7.28023,3.81175 10.97861,5.60693 2.34269,0.95112 4.54269,2.26981 6.73336,3.53778 2.03174,1.23737 4.06255,2.48543 6.04656,3.8095 2.03762,1.40812 4.13826,2.72708 6.19237,4.12088 2.0248,1.53094 4.25246,2.71981 6.40695,4.04472 2.61744,1.44372 5.09017,3.12803 7.42186,4.99437 1.85587,1.68048 4.07807,2.86436 6.10319,4.32318 2.28539,1.27872 4.26175,3.0324 6.32776,4.63333 3.25877,2.60327 6.73308,4.93033 10.2006,7.24668 4.04936,2.7556 8.13889,5.42626 11.99876,8.44953 3.01057,2.50839 6.07324,4.94277 9.18971,7.31988 1.88565,1.26389 3.30983,3.02222 5.00994,4.50097 1.52347,1.30095 2.97431,2.68234 4.41784,4.07033 2.524,2.02426 5.10283,3.99864 7.58416,6.08623 3.30546,2.90919 6.45603,5.95899 9.89827,8.70761 3.91191,2.90939 7.28521,6.46398 11.09384,9.48916 2.90056,2.74042 5.96664,5.3005 8.80453,8.1052 2.35003,1.81788 4.40603,4.06467 6.88276,5.70945 2.00344,1.67161 4.2096,3.0685 6.28633,4.64754 1.89819,1.64187 3.81087,3.25085 5.70762,4.88356 1.90821,1.43378 3.92594,2.70206 5.84962,4.10387 2.25208,1.36254 4.39042,2.82422 6.22581,4.71237 1.19506,0.9421 2.32915,2.14504 3.69272,2.857 1.67742,1.03662 3.35607,2.06298 4.98632,3.1582 1.39305,1.05798 2.791,2.10799 4.2265,3.12591 2.2517,1.54354 4.4078,3.24098 6.7642,4.63616 3.5681,2.25847 7.3294,4.16411 10.9583,6.32197 4.4735,2.70534 9.0708,5.17569 13.5795,7.82115 4.2993,2.73907 8.6245,5.42101 12.6981,8.49177 2.1291,0.99063 3.6971,3.25427 5.968,3.96834 2.4211,1.32093 4.5834,3.04564 6.7672,4.72142 2.4396,1.9535 4.9733,3.77951 7.502,5.61998 2.287,1.48858 4.4096,3.18521 6.5773,4.84123 2.3312,1.90845 5.0366,3.24046 7.5433,4.88556 3.1396,2.43772 6.4239,4.67751 9.7102,6.90931 2.7265,1.49229 5.3057,3.24652 8.0484,4.71412 3.009,2.15156 6.2294,3.9656 9.2994,6.02264 3.9361,2.31795 7.64,4.98464 11.3833,7.59101 3.1637,2.39357 6.4477,4.60881 9.6584,6.93603 3.7144,2.13785 6.8103,5.12611 10.342,7.52307 3.0787,2.60317 6.5784,4.60223 9.9026,6.85718 3.4442,2.45355 6.5987,5.2587 10.1802,7.52007 4.5991,2.66334 8.5272,6.24836 12.658,9.54581 4.5768,4.07931 9.5592,7.52676 14.6328,10.93878 5.5438,3.70869 11.1131,7.32617 16.9356,10.57843 5.5661,3.41604 11.3715,6.48885 16.657,10.33457 3.507,2.85541 7.4414,5.08066 11.1683,7.61061 2.8015,1.73644 5.324,3.85821 7.8448,5.96308 1.2855,0.8131 2.3272,2.2878 3.4696,2.98606 2.5641,1.73729 5.1242,3.47501 7.709,5.18477 3.9599,2.84591 7.8289,5.82517 11.8761,8.5486 3.8904,2.56807 7.3074,5.77413 11.0703,8.51653 4.5503,2.98989 8.8688,6.30186 13.2985,9.46128 4.2153,3.00617 8.4225,5.98412 12.4936,9.17997 3.4498,2.50071 6.8192,5.08108 10.1591,7.73281 3.583,2.88375 6.9306,6.04173 10.2411,9.22972 3.6357,3.02512 7.2934,6.01108 11.1019,8.81518 3.6178,3.613 7.9002,6.36798 11.9666,9.43316 4.4556,3.48137 8.5134,7.41241 12.9152,10.95792 3.2362,3.11995 6.8879,5.7639 9.9829,9.02633 2.001,2.01205 4.0654,3.97656 5.9239,6.12048 0.8246,1.18513 1.8905,2.19809 3.0404,3.09392 3.0011,2.38286 5.7404,5.07354 8.4936,7.73275 3.4056,2.83869 6.4507,6.06982 9.8018,8.96911 2.4195,2.38226 4.9826,4.60392 7.187,7.1942 2.5047,1.88567 4.3211,4.47168 6.6039,6.59097 3.8724,3.2135 7.5417,6.59406 10.8712,10.36744 2.6966,2.89535 4.8544,6.20574 7.5871,9.06514 3.1444,2.57427 6.1139,5.37218 8.9787,8.25899 4.2878,4.89299 8.8828,9.50068 13.172,14.39276 1.4994,1.77656 2.94,3.60486 4.2484,5.52706 0,0 -6.7981,4.7592 -6.7981,4.7592 l 0,0 c -1.1838,-1.6277 -2.4695,-3.1787 -3.7794,-4.7057 -4.2139,-4.7485 -8.7499,-9.20316 -12.8616,-14.04339 -2.8781,-2.94385 -5.8544,-5.78832 -9.0188,-8.42301 -2.7963,-2.94846 -5.1457,-6.23634 -7.8558,-9.26141 -3.154,-3.59285 -6.6894,-6.75214 -10.3264,-9.85184 -2.4554,-2.37085 -4.5198,-5.09376 -7.1737,-7.2595 -1.9379,-2.26668 -4.2209,-4.17342 -6.3316,-6.27212 -3.4646,-3.01014 -6.6706,-6.29695 -10.1758,-9.26186 -2.5434,-2.48341 -5.0633,-5.00576 -7.8045,-7.27338 -1.57,-1.26529 -3.0339,-2.69747 -4.2791,-4.28722 -1.5269,-2.15455 -3.9444,-3.69566 -5.639,-5.71769 -2.7425,-3.03372 -6.2787,-5.24226 -9.1377,-8.16681 -4.3391,-3.48864 -8.3611,-7.32633 -12.7145,-10.79732 -4.0259,-3.05095 -8.2877,-5.7991 -11.8753,-9.38311 -4.1081,-3.02822 -8.0596,-6.24819 -11.9527,-9.54869 -3.1051,-3.01305 -6.2626,-5.97544 -9.6197,-8.70931 -3.3166,-2.64355 -6.673,-5.19395 -10.1072,-7.67894 -3.9867,-3.1004 -8.1058,-5.99103 -12.2192,-8.9261 -4.4639,-3.17749 -8.8075,-6.52101 -13.3713,-9.55977 -3.6588,-2.69813 -7.0314,-5.77725 -10.8076,-8.31283 -4.0284,-2.72305 -7.9087,-5.65996 -11.8198,-8.54626 -2.3768,-1.59562 -4.7481,-3.21254 -7.0639,-4.8826 -1.9994,-1.2437 -3.081,-2.58066 -4.8349,-3.89239 -2.2898,-1.94015 -4.6381,-3.8226 -7.1999,-5.40892 -3.7869,-2.59814 -7.8324,-4.82703 -11.4165,-7.72955 -4.9892,-3.66052 -10.5817,-6.44582 -15.812,-9.74122 -6.0321,-3.35976 -11.7971,-7.1059 -17.5229,-10.9644 -5.275,-3.5421 -10.4545,-7.14157 -15.2122,-11.37553 -3.8682,-3.13408 -7.5573,-6.52453 -11.8798,-9.04772 -3.6364,-2.33953 -6.9172,-5.11627 -10.4006,-7.66459 -3.3115,-2.28071 -6.8215,-4.27657 -9.9103,-6.87216 -3.581,-2.47509 -6.7908,-5.436 -10.5448,-7.66443 -3.1398,-2.31008 -6.3771,-4.47924 -9.494,-6.82194 -3.7233,-2.57668 -7.4106,-5.20681 -11.3031,-7.53101 -2.829,-1.93578 -5.8368,-3.59326 -8.592,-5.63815 -2.9628,-1.63495 -5.8135,-3.45927 -8.76,-5.12128 -3.2654,-2.21894 -6.5517,-4.41927 -9.6455,-6.87611 -2.6351,-1.80023 -5.5546,-3.18473 -8.0125,-5.25596 -2.0879,-1.63566 -4.1513,-3.26698 -6.3956,-4.69231 -2.5685,-1.88866 -5.1723,-3.72424 -7.645,-5.73567 -1.6637,-1.2707 -3.2839,-2.60685 -5.0314,-3.72828 -2.7619,-1.29995 -5.1168,-3.1849 -7.6425,-4.87323 -3.8564,-2.84731 -7.9346,-5.34531 -11.9664,-7.93293 -4.5189,-2.66973 -9.1266,-5.17158 -13.6226,-7.87935 -3.6248,-2.19269 -7.4056,-4.10381 -10.9771,-6.38389 -2.503,-1.54631 -4.83964,-3.32387 -7.2369,-5.01643 -1.55259,-1.10584 -2.63774,-2.05811 -4.28376,-3.15991 -1.19565,-1.28179 -3.37396,-1.81348 -4.71688,-2.97194 -1.86354,-1.31171 -3.72329,-2.67157 -5.33357,-4.28741 -1.44608,-1.31162 -3.30541,-2.43736 -5.00087,-3.55393 -1.99993,-1.6312 -4.39187,-2.7966 -6.34625,-4.50921 -1.67082,-1.54886 -3.53166,-2.90336 -5.18938,-4.47807 -2.01274,-1.49157 -4.12504,-2.84959 -6.05434,-4.44603 -2.8288,-2.01438 -5.37882,-4.39655 -8.02539,-6.64159 -2.59006,-2.61638 -5.50435,-4.89556 -8.13907,-7.46866 -3.7965,-3.04812 -7.24539,-6.50941 -11.10742,-9.48421 -3.49896,-2.80817 -6.71559,-5.90003 -10.07396,-8.87041 -2.60828,-2.23317 -5.33128,-4.32152 -7.9646,-6.51981 -1.30254,-1.28526 -2.63162,-2.54097 -4.01506,-3.73939 -1.60718,-1.36697 -2.90831,-2.98224 -4.67374,-4.15287 -3.1429,-2.40003 -6.2743,-4.80665 -9.29655,-7.35726 -3.69289,-2.89551 -7.64055,-5.40739 -11.49734,-8.07123 -3.63353,-2.43871 -7.27095,-4.89631 -10.67018,-7.65483 -1.96658,-1.55366 -3.83055,-3.24184 -6.03605,-4.44927 -2.14349,-1.53297 -4.50756,-2.76229 -6.44412,-4.57156 -2.09994,-1.66778 -4.33947,-3.14418 -6.68031,-4.45559 -2.19257,-1.45633 -4.57464,-2.61988 -6.67486,-4.22751 -2.02059,-1.4137 -4.11504,-2.70425 -6.1476,-4.09288 -1.82894,-1.26906 -3.72522,-2.41511 -5.6282,-3.55602 -1.9223,-1.20736 -3.97919,-2.29542 -6.07711,-3.14771 -3.89265,-1.83439 -7.81027,-3.64434 -11.51847,-5.82936 -4.44308,-2.51818 -8.65195,-5.42878 -13.20169,-7.75939 -4.58841,-2.60889 -9.48877,-4.67559 -13.7567,-7.83137 -3.79068,-2.30933 -7.62106,-4.53531 -11.53471,-6.62708 -2.99874,-1.66303 -5.82837,-3.58329 -8.76562,-5.34788 -2.52779,-1.50294 -4.82264,-3.33331 -7.27087,-4.95095 -2.02452,-1.61694 -4.03648,-3.23722 -5.99787,-4.9197 -1.90458,-1.83538 -4.26324,-3.14758 -6.26334,-4.86878 -2.10849,-1.78052 -4.05162,-3.73347 -6.23987,-5.40966 -1.5002,-1.43993 -3.232,-2.64824 -4.61833,-4.22529 -1.46766,-1.40777 -2.99838,-2.75099 -4.64133,-3.9523 -1.86613,-1.41646 -3.7386,-2.80919 -5.58489,-4.24054 -2.15852,-1.47591 -3.78468,-3.39798 -5.78296,-5.05608 -1.88959,-1.60263 -3.46958,-3.49958 -5.37658,-5.07062 -1.97459,-1.80983 -3.85041,-3.72701 -5.7436,-5.61805 -2.55597,-2.45185 -4.81909,-5.20361 -7.50799,-7.52673 -2.70411,-2.7839 -5.69148,-5.28222 -8.1068,-8.34605 -2.0084,-1.68531 -3.88431,-3.48921 -5.77184,-5.3031 -1.17526,-1.46246 -2.5139,-2.75815 -3.6201,-4.27999 -0.29696,-0.34467 -2.34777,-2.38008 -2.79548,-3.65268 -0.69585,-1.50087 -2.07828,-2.67375 -2.85537,-4.14932 -1.27638,-1.7266 -2.33811,-3.5815 -3.64795,-5.29208 -0.82329,-1.36175 -1.22726,-2.65701 -2.37462,-3.69246 -1.06765,-1.18685 -2.15729,-2.24445 -3.45129,-3.18778 -1.31065,-1.28424 -2.64159,-2.54606 -4.02108,-3.75697 -1.14965,-0.92889 -2.82009,-1.98569 -3.58655,-2.83407 -1.59351,-0.93206 -2.89561,-2.16519 -4.49171,-3.07068 -1.49311,-1.06753 -3.20112,-1.8106 -4.54967,-3.07912 -1.10064,-1.11061 -2.84566,-1.63718 -4.15655,-2.4591 -1.66085,-1.02967 -3.26615,-2.009 -5.02615,-2.89279 -1.73515,-1.0789 -3.45991,-2.16713 -5.32883,-3.01602 -1.79419,-1.0562 -3.38801,-2.39121 -5.22397,-3.38395 -1.27405,-0.59144 -3.28304,-1.42332 -4.45532,-2.57659 -2.08399,-0.97386 -3.99215,-2.25483 -5.78237,-3.69447 -0.22771,-0.14842 -2.60595,-1.58244 -3.50874,-2.45303 -2.00013,-1.56717 -4.09297,-3.03628 -6.16409,-4.49731 -3.8875,-2.71316 -7.60097,-5.61971 -11.01304,-8.91785 0,0 5.90685,-5.90685 5.90685,-5.90685 z"
           inkscape:connector-curvature="0" />
        <path
           style="fill:#de2d26;fill-opacity:1;fill-rule:nonzero;stroke:none"
           id="path3049"
           d="m 152.87369,185.30151 c 0.0316,3.81993 0.84762,7.59512 1.44848,11.35985 0.35121,1.94295 0.53207,3.90907 0.59391,5.88082 0.0513,2.3726 0.0431,4.74609 0.0305,7.11907 -0.0202,1.47939 -0.0163,2.95886 -0.0319,4.43829 -0.0377,1.97809 -1.62324,3.83508 -2.1727,4.51282 -1.45208,1.54128 -1.85651,2.15898 -2.72101,3.34151 -1.32163,1.23632 -2.49528,2.52744 -3.68234,3.85029 -1.54316,1.47733 -2.74523,3.25599 -4.21225,4.81447 -0.97934,1.4107 -2.18213,2.74245 -3.00585,4.25454 -1.03387,1.73247 -2.08697,3.45256 -3.20649,5.12203 -1.05822,1.39366 -2.1096,2.79111 -3.12829,4.22679 -0.95239,2.00853 -2.42388,3.77616 -3.46269,5.75576 -1.54886,2.5729 -2.85108,5.27273 -4.34619,7.87748 -0.36639,1.77331 -1.79597,3.14689 -2.31676,4.8123 -1.51297,3.10876 -3.14298,6.17035 -4.72273,9.26098 -2.58065,5.15394 -5.3645,10.15772 -8.35536,15.08776 -1.62551,2.54961 -3.4377,4.95992 -5.08143,7.49189 -1.77797,2.80371 -3.45684,5.65386 -5.420419,8.34035 -0.886254,2.06364 -2.587744,3.56324 -3.762364,5.42129 -1.721919,2.8661 -3.673807,5.60253 -5.159738,8.60659 -2.522355,5.44565 -5.887303,10.39784 -9.176764,15.39182 -1.144352,2.33345 -3.502105,4.02237 -4.469456,6.43117 -1.394046,2.22946 -3.173292,4.18192 -4.86393,6.19267 -2.829567,3.90324 -5.602582,7.80296 -8.807898,11.41217 -1.703771,2.27681 -3.74544,4.26589 -5.678191,6.32953 -1.283957,2.06024 -3.050992,3.72247 -4.647666,5.53387 -2.408413,2.54699 -4.332381,5.48142 -6.477257,8.24576 -2.050565,2.03575 -3.870578,4.28101 -5.782238,6.44267 -1.357968,1.74029 -2.818371,3.44778 -4.181022,5.22851 -2.469833,2.97906 -4.750215,6.0928 -7.092708,9.17146 -2.148683,2.90187 -4.250335,5.88646 -6.587473,8.64093 -1.701737,1.54559 -3.099058,3.36142 -4.566426,5.12952 -3.356547,3.73199 -6.059516,7.97133 -8.9737439,12.04125 -2.6487199,3.62199 -5.5749607,7.02419 -8.61846265,10.31665 -1.65482525,1.54763 -2.87772745,3.42267 -4.38577265,5.10452 -1.6459432,2.18436 -3.3919163,4.28763 -5.1932298,6.3447 -0.5573798,1.49881 -2.338774,2.38328 -2.91709,3.68653 0.801982,-2.35112 0.676539,-0.97838 -0.477926,-4.10768 0,0 -5.993087,5.71042 -5.993087,5.71042 l 0,0 c -1.675446,-3.80542 -1.535933,-1.93685 -0.835388,-5.5589 1.091525,-1.93064 2.727015,-3.32843 3.914916,-5.18884 1.849263,-2.16449 3.650061,-4.36545 5.42364,-6.59236 1.6187278,-1.51272 2.5967457,-3.63499 4.3184618,-5.07387 2.8051218,-3.0406 5.42648862,-6.24702 7.9005943,-9.56215 3.0456332,-4.24176 5.8671107,-8.66524 9.4309529,-12.50717 1.531328,-1.79549 3.026662,-3.61913 4.716316,-5.25999 2.361126,-2.4068 3.978292,-5.6646 6.162119,-8.23521 2.369074,-3.07864 4.680942,-6.19103 7.156774,-9.1846 1.491433,-1.90427 3.129954,-3.64979 4.538305,-5.60433 1.780621,-2.04051 3.451968,-4.18477 5.402249,-6.0697 2.249906,-2.92821 4.339919,-5.98549 6.87051,-8.68335 1.703759,-1.89373 3.493671,-3.6317 4.912902,-5.76266 1.949589,-1.84079 3.650778,-4.03118 5.356614,-6.09301 3.145344,-3.5964 5.823902,-7.50477 8.738292,-11.28448 1.244694,-1.4399 2.443496,-2.93093 3.658588,-4.3403 0.0519,-0.0602 -0.0242,0.15711 -0.03631,0.23567 1.272037,-2.8135 3.342229,-5.10459 5.022791,-7.67709 3.07343,-4.79541 6.31732,-9.49 8.737146,-14.66924 1.699812,-3.20554 3.746683,-6.18048 5.671287,-9.2493 1.29611,-1.98952 2.995646,-3.63351 3.984927,-5.83515 1.876342,-2.59431 3.483835,-5.34659 5.233309,-8.02203 1.607876,-2.39848 3.224223,-4.78728 4.816893,-7.20324 2.8376,-4.81847 5.55998,-9.66587 8.08493,-14.65432 1.56082,-2.97016 3.23546,-5.89075 4.66833,-8.90589 1.22057,-2.40905 1.49739,-2.37611 2.59817,-5.39822 1.44422,-2.588 2.75134,-5.24573 4.28455,-7.78233 1.25961,-2.24044 2.81632,-4.29085 4.00751,-6.56157 1.10616,-1.55187 2.05563,-2.63102 3.15732,-4.27726 1.27344,-1.18263 1.80651,-3.36081 2.92592,-4.7108 1.30288,-1.95848 2.62183,-3.91646 4.16023,-5.69746 1.59335,-1.15223 2.35274,-3.4341 3.99728,-4.59176 1.13574,-1.09974 2.04064,-2.42874 3.31441,-3.39989 0.74425,-1.05728 1.71992,-2.32005 2.74266,-3.33922 4.75258,-5.84262 -0.25723,3.55672 0.31682,0.70762 -0.0124,-1.48206 -0.004,-2.96411 -0.0159,-4.44617 -0.003,-2.27635 0.0159,-4.5527 0.006,-6.829 -0.0557,-1.60094 -0.207,-3.19788 -0.53595,-4.76866 -0.7417,-4.20825 -1.64624,-8.4558 -1.54489,-12.74512 0,0 8.34282,0 8.34282,0 z"
           inkscape:connector-curvature="0" />
        <path
           style="fill:#de2d26;fill-opacity:1;fill-rule:nonzero;stroke:none"
           id="path3053"
           d="m 144.36404,187.7799 c -1.18195,-3.70394 -2.34316,-7.42628 -3.24904,-11.20908 -0.30549,-1.44775 -0.57319,-2.90822 -0.68796,-4.3849 0.90426,1.17139 1.3452,2.85226 2.6396,3.56947 2.34994,-1.26032 3.67215,-4.65587 3.54877,-2.38772 -0.23518,0.20254 0.55784,1.24745 1.53003,3.37741 1.57021,3.84594 2.9675,7.75175 4.37119,11.66144 1.02193,2.501 1.46841,5.26805 2.22782,7.79547 0.85889,1.25415 1.47682,2.60592 1.8845,4.07027 2.14149,3.88146 -7.92696,4.72068 -7.93405,0.87963 -0.0368,0.0649 -0.0768,0.26134 -0.11029,0.19468 -1.34071,-2.67128 -2.26428,-5.80833 -3.25675,-8.62736 -1.4296,-4.43396 -2.21986,-9.03169 -2.69012,-13.65617 -2.1192,-7.5401 7.9391,1.44846 8.15765,-2.92281 -1.48068,-2.59904 5.36312,4.27048 5.36539,4.27273 2.41349,2.53605 5.17573,4.71511 7.57085,7.26596 2.08608,1.68161 3.45294,4.16006 5.46309,5.8901 1.36375,1.78613 2.6558,2.90118 4.03677,4.49892 1.12448,1.55966 2.50144,2.54552 3.80124,3.90828 1.47165,1.55303 2.73857,3.26391 3.98025,4.99817 1.8715,1.82199 3.10215,4.17052 4.72928,6.18486 1.84798,2.35617 3.26752,5.01187 5.17144,7.31711 1.5949,2.13474 3.24439,4.21712 4.65498,6.48888 1.46824,2.45263 2.66575,5.04563 4.13013,7.49976 1.39401,2.0823 2.33349,4.5404 3.75714,6.58925 1.28022,2.56855 2.76226,5.02966 3.85684,7.69099 1.31343,1.03538 1.57666,4.32293 2.68751,5.27493 1.19342,1.26235 1.42402,3.04858 2.41183,4.39345 1.88233,2.20762 3.39595,4.73845 4.59511,7.372 1.46722,2.76489 3.14042,5.40334 4.46187,8.24421 1.11459,2.1912 2.44591,4.22947 3.68078,6.35005 1.15871,2.33342 2.38907,4.62408 3.62909,6.92136 1.52616,2.13282 3.11599,4.24403 4.49479,6.47818 1.63649,2.11604 3.07752,4.39495 4.32503,6.76127 1.01297,2.80671 2.81287,5.19949 4.38803,7.70194 2.00909,3.18829 4.23598,6.21966 6.41252,9.29005 1.95615,2.61808 4.4488,4.70002 6.85933,6.88129 4.07584,3.42595 7.56239,7.40034 10.98242,11.45721 3.11968,3.78399 6.69377,7.13792 10.01667,10.73967 2.3083,1.74611 4.06196,4.17221 6.30827,5.96466 1.52967,1.33955 3.15732,2.55476 4.58564,4.00547 1.13515,1.87221 2.55948,3.5056 4.01014,5.13338 2.28068,2.63673 4.88486,4.92679 7.42803,7.29026 3.15211,2.93084 6.48912,5.56851 9.42628,8.73495 3.22605,3.34863 6.39098,6.75633 9.55575,10.16808 2.81323,2.87347 5.36593,6.05427 8.46793,8.62675 2.35963,2.12953 4.44607,4.57279 6.3399,7.1214 1.716,2.03661 3.64534,3.85203 5.3795,5.88823 2.30285,2.94016 4.9651,5.56768 7.28387,8.49058 2.28977,2.62016 3.81531,5.73328 5.59385,8.68974 1.05923,1.9692 2.32583,3.83324 3.56536,5.70249 1.625,2.3227 3.41251,4.4984 4.83683,6.95562 1.75053,3.15213 3.7185,6.16935 5.434,9.34172 2.17106,3.92219 4.25129,7.90096 6.2057,11.93649 2.69786,4.54788 5.35925,9.08605 7.88552,13.74219 3.37387,6.47847 7.1181,12.74374 10.93359,18.96799 3.85201,5.80122 7.41059,11.79334 11.29128,17.57412 2.83821,4.43573 5.63737,8.90626 8.66351,13.21748 2.97844,3.89297 5.53253,8.09079 8.95993,11.6187 3.09785,3.01903 5.52101,6.57803 8.00441,10.09124 1.20942,2.21168 2.87157,4.10984 4.39042,6.10236 2.32406,2.36173 4.28959,5.05458 6.21385,7.74567 3.30523,4.16268 6.50533,8.44047 10.11251,12.34802 4.46527,5.1985 9.30439,10.06885 13.71684,15.30989 3.13802,4.02848 6.63822,7.74438 10.0456,11.54381 3.15843,3.79955 5.85512,7.93358 8.73857,11.93521 2.17936,3.30375 4.25087,6.67901 6.64648,9.83208 1.69639,2.6409 3.70276,5.06693 5.47839,7.65687 3.04258,5.11317 6.3353,10.07207 9.25943,15.25409 3.09364,5.78805 6.3468,11.49123 9.60918,17.18644 3.10609,5.16161 6.20977,10.32172 9.31602,15.48327 2.46854,4.68593 5.10569,9.28413 7.59061,13.96278 2.50583,4.49338 5.74534,8.52502 8.69741,12.72793 3.4276,5.76421 6.78658,11.55717 10.45855,17.17349 3.67845,5.91454 7.94354,11.42911 11.77752,17.23828 2.92374,4.12674 5.44038,8.57034 8.68378,12.46174 2.25691,2.7825 4.59786,5.51149 6.9881,8.18746 3.57912,4.63228 7.47639,9.00099 11.18005,13.52951 3.87136,5.06002 8.24357,9.69754 12.34244,14.56485 4.35306,4.74737 7.66561,10.26144 11.18911,15.61879 2.38317,3.38852 4.48059,6.97747 6.54858,10.56624 0.68511,1.58772 1.5695,3.02824 2.57847,4.4243 0.85032,1.81272 1.13292,1.36458 2.37128,3.5705 0.99801,2.80338 0.76659,2.17238 1.75428,4.00208 1.20368,1.77921 2.45114,3.51776 3.59078,5.34209 1.818,4.43811 0.37335,6.66482 -3.10617,9.43089 0,0 -4.74068,-6.89296 -4.74068,-6.89296 l 0,0 c 1.09496,-0.1554 -0.37493,1.44149 0.7819,1.8872 -1.23867,-1.97108 -2.59685,-3.84316 -3.83852,-5.81036 -0.69131,-1.27435 -1.41696,-2.66494 -1.73434,-3.97826 -0.54611,-1.0829 -1.9121,-2.76987 -1.76594,-2.62994 -1.21457,-1.6286 -2.29026,-3.34108 -3.14281,-5.18884 -1.95433,-3.43607 -4.07112,-6.80511 -6.32682,-10.04984 -3.40163,-5.06415 -6.49149,-10.34603 -10.6534,-14.84782 -4.10219,-4.91831 -8.54381,-9.55309 -12.42057,-14.66278 -3.60355,-4.45663 -7.4612,-8.70653 -10.89562,-13.30234 -2.43438,-2.76642 -4.80517,-5.59449 -7.17041,-8.4141 -3.40585,-4.14649 -6.24641,-8.71114 -9.28257,-13.1286 -3.86039,-5.81171 -8.1437,-11.3357 -11.81373,-17.27599 -3.62099,-5.54615 -6.96581,-11.24921 -10.30174,-16.96721 -3.11818,-4.50024 -6.54405,-8.81592 -9.17562,-13.63033 -2.41432,-4.54192 -5.03884,-8.97131 -7.4005,-13.54061 -3.15464,-5.20929 -6.27381,-10.43435 -9.4308,-15.64203 -3.27005,-5.71305 -6.55834,-11.41917 -9.64541,-17.23264 -2.80516,-4.98512 -5.96944,-9.75458 -8.8165,-14.71642 -1.64686,-2.47506 -3.54885,-4.7772 -5.16475,-7.26968 -2.47732,-3.20114 -4.66499,-6.60636 -6.85907,-10.00531 -2.69598,-3.76555 -5.23226,-7.64136 -8.16551,-11.23372 -3.45804,-3.86574 -7.04385,-7.61636 -10.24308,-11.70299 -4.35392,-5.14775 -9.16138,-9.90171 -13.51268,-15.05623 -3.7918,-4.20222 -7.23279,-8.7174 -10.69483,-13.19253 -1.87149,-2.6491 -3.79404,-5.26924 -6.04427,-7.61469 -1.50683,-2.07732 -3.29977,-3.96031 -4.52393,-6.2351 -2.28165,-3.16147 -4.4447,-6.41129 -7.27844,-9.12505 -3.68377,-3.88237 -6.60693,-8.32347 -9.78164,-12.61585 -3.04477,-4.36129 -5.89931,-8.85555 -8.78087,-13.32533 -3.96081,-5.87386 -7.63193,-11.93858 -11.53011,-17.85458 -3.88697,-6.35917 -7.71892,-12.75051 -11.12139,-19.38692 -2.57229,-4.77733 -5.27779,-9.4286 -8.00914,-14.10851 -1.89619,-3.93333 -3.92969,-7.80397 -6.02843,-11.63182 -1.66563,-3.14186 -3.6386,-6.09918 -5.33733,-9.22269 -1.22957,-2.35825 -3.14803,-4.26984 -4.54595,-6.52846 -1.23872,-1.96269 -2.5841,-3.85336 -3.6962,-5.88328 -1.62632,-2.6623 -2.98411,-5.4816 -5.0558,-7.84957 -2.20982,-2.87469 -4.89577,-5.36012 -7.08754,-8.25736 -1.8545,-2.22212 -3.95964,-4.18407 -5.75945,-6.45088 -1.3192,-2.07769 -3.26462,-3.81838 -4.97791,-5.56076 -3.31893,-2.85166 -6.21807,-6.14119 -9.22909,-9.31026 -3.15635,-3.42466 -6.32184,-6.83524 -9.55467,-10.18266 -2.77394,-3.02722 -6.00031,-5.482 -8.96152,-8.31219 -2.71793,-2.55151 -5.5356,-4.99503 -7.95102,-7.85681 -1.48254,-1.66508 -2.9943,-3.35455 -4.0916,-5.29848 1.37778,0.60238 -4.39367,-3.25982 -3.70991,-3.08266 -2.38829,-2.12631 -4.55568,-4.4925 -7.00685,-6.5585 -3.45243,-3.6713 -7.12668,-7.12678 -10.3232,-11.0298 -3.17756,-3.77771 -6.41058,-7.47672 -10.19002,-10.67955 -2.83664,-2.60325 -5.72379,-5.14811 -8.03711,-8.24995 -2.26731,-3.20532 -4.61846,-6.35076 -6.69095,-9.69229 -1.65631,-2.68317 -3.547,-5.27094 -4.65651,-8.24761 -1.18008,-2.23666 -2.57725,-4.34751 -4.10016,-6.36675 -1.34823,-2.39407 -3.27119,-4.46404 -4.69693,-6.81785 -1.17722,-2.21084 -2.32811,-4.42921 -3.46108,-6.65448 -1.37722,-2.33252 -2.82899,-4.60604 -4.05157,-7.02699 -1.36371,-2.89323 -3.14768,-5.55453 -4.56099,-8.42577 -0.9009,-2.21147 -2.32241,-4.18015 -3.80257,-6.04044 -1.0573,-1.59294 -1.57663,-3.38007 -2.73712,-4.89796 -1.11264,-2.10543 -2.01012,-4.32491 -3.24669,-6.37788 -0.83126,-2.24258 -2.24279,-4.22837 -3.20736,-6.40849 -1.29264,-2.20525 -2.4692,-4.48463 -3.81598,-6.6605 -1.46906,-2.4435 -2.6654,-5.02482 -4.11696,-7.47767 -1.1247,-1.96421 -2.62033,-3.66626 -3.93882,-5.49108 -1.95994,-2.37486 -3.51122,-5.03184 -5.34146,-7.5078 -1.65013,-2.17805 -3.06467,-4.53968 -4.95905,-6.53191 -0.96282,-1.4423 -2.00388,-2.78123 -3.18451,-4.05194 -1.33895,-1.43009 -2.93465,-2.58836 -4.07213,-4.2148 -1.13475,-1.33958 -2.4754,-2.47526 -3.51152,-3.90629 -2.01224,-2.01784 -3.73923,-4.3036 -5.83918,-6.24084 -2.23377,-2.53708 -5.10047,-4.50982 -7.36803,-7.02862 -2.40423,-2.50856 -5.48497,-4.37793 -7.2598,-7.44087 -0.16084,-0.67818 -1.13423,-1.7874 -0.48252,-2.03456 9.05616,-3.43453 8.02876,-2.85117 8.48112,1.31924 0.47589,3.99439 1.15606,7.97028 2.35834,11.81817 1.25601,3.73133 3.0464,7.31237 3.70277,11.21321 -0.0287,3.36355 -8.05237,4.64198 -8.37509,1.27854 -0.23736,-0.90958 -0.97361,-1.84717 -1.56504,-3.05335 -0.98222,-2.67375 -1.39148,-5.51171 -2.45737,-8.16519 -1.3257,-3.70583 -2.6405,-7.41003 -4.09065,-11.06794 -0.99473,-2.25601 -2.32572,-4.53516 -2.173,-7.0898 0.0772,-2.41741 1.45029,-5.50296 4.33194,-5.59353 3.09557,-0.1445 4.3261,0.75347 5.99878,3.98974 0.13252,1.05715 0.34013,2.10338 0.56998,3.14331 0.93081,3.88362 2.33245,7.64487 3.30479,11.51942 0,0 -8.18239,1.63648 -8.18239,1.63648 z"
           inkscape:connector-curvature="0" />
      </g>
    </g>
    <path
       style="fill:#fee0d2;fill-opacity:1;fill-rule:nonzero;stroke:none"
       id="path2999"
       d="m 626.82676,827.02157 c 3.14624,4.59973 5.7032,9.52429 8.14921,14.5168 1.49891,3.20791 2.63556,6.63461 4.66179,9.5687 1.33607,1.6092 2.04753,3.59258 3.21018,5.30722 1.25773,2.24412 2.48178,4.56685 4.09456,6.57845 1.73939,2.3284 3.5396,4.62246 5.34829,6.90649 1.24562,1.71596 2.32258,3.45424 3.86296,4.91814 2.25149,2.8255 4.88827,5.28298 7.35781,7.90702 1.43311,1.62006 2.74411,3.33807 4.1633,4.96994 1.18006,1.41439 1.30216,1.32541 2.55509,2.35339 1.95647,1.7687 3.53707,3.87429 5.07893,5.99645 1.59713,1.86554 3.23533,3.66315 5.0776,5.29643 2.8507,2.61681 5.8226,5.08975 8.71174,7.65773 3.07355,2.68784 5.92118,5.58863 8.69847,8.58122 1.21702,0.96625 3.90473,4.06952 5.05973,4.61214 2.16851,1.48563 2.79015,2.4959 3.75271,3.60064 0.84774,1.26088 1.7881,2.44489 2.76241,3.60945 1.04643,1.7402 0.79765,1.1421 1.41208,2.71067 0.1241,0.31682 -0.68886,-1.11894 -0.4,-0.93913 0.40491,0.25206 0.72837,0.61597 1.0941,0.9221 2.04966,1.49546 3.4221,3.67582 5.21896,5.426 1.95644,2.30179 4.17289,4.34742 6.10403,6.67478 1.60456,1.37283 2.83052,3.13339 4.18753,4.74261 1.2363,1.05529 1.71881,3.05119 3.11249,3.95716 1.53675,1.76256 2.48594,2.8035 3.8028,4.5648 1.50576,1.91103 2.85979,3.91975 4.26571,5.90705 1.99456,2.74219 4.20506,5.31302 6.2865,7.98804 2.33182,2.6903 4.00362,5.84004 6.03806,8.74084 2.38043,2.8088 4.57706,5.75149 6.82392,8.66686 2.55078,3.81268 5.22383,7.53351 7.86047,11.28384 2.68328,3.5293 4.62193,7.5304 7.00175,11.2537 2.38692,3.5189 4.90191,6.9521 7.24239,10.503 2.50614,3.4217 4.4444,7.1823 6.45867,10.8981 1.99576,3.3173 3.923,6.6728 5.84947,10.0324 2.14392,3.5096 4.41969,6.9323 6.90683,10.2111 3.05137,4.1662 5.51723,8.7069 7.89733,13.2781 2.11022,4.0724 5.08537,7.6041 7.71948,11.3366 2.85657,3.8678 5.42887,7.928 8.3722,11.7322 3.24754,4.0422 6.29626,8.2252 9.67633,12.1625 3.25778,4.2427 6.62308,8.3929 9.78171,12.7099 2.69073,3.8729 5.52841,7.6029 8.46051,11.2956 2.7719,3.4739 5.44848,7.055 7.92457,10.7483 2.25379,2.8683 4.23298,5.9968 5.83044,9.2772 1.99065,2.8248 3.85483,5.7304 5.67494,8.6713 2.21358,4.1231 4.44629,8.2108 6.90743,12.1915 2.60792,4.7481 5.28137,9.4497 7.9791,14.1455 2.5495,4.1152 5.08416,8.2411 8.0169,12.0979 3.09403,4.0781 5.6408,8.504 8.17815,12.9356 2.12022,2.9972 4.29082,5.9475 6.65371,8.7587 2.21249,2.4052 4.38022,4.8411 6.4242,7.3901 2.03812,2.9072 4.50943,5.3979 6.99763,7.8979 2.44656,2.5728 4.85346,5.1823 7.31993,7.7362 3.27455,2.9939 6.566,5.9148 9.62182,9.151 2.83646,2.7444 5.78797,5.3731 8.54627,8.1963 1.821,1.5233 3.06187,3.829 4.96222,5.2342 2.1797,2.2179 4.30221,4.5081 6.18324,6.9849 2.21188,2.583 4.65626,4.9421 6.92678,7.4699 3.44246,3.8114 6.43775,8 9.91088,11.7777 4.39633,4.4945 8.98512,8.7954 13.50354,13.1661 4.76187,4.2593 8.95686,8.9494 12.68059,14.1286 2.8203,3.7883 5.8649,7.4239 8.9403,11.0129 1.9388,2.0298 3.9571,3.9819 5.8642,6.0573 1.9551,1.8775 3.5998,3.9217 4.7658,6.3758 0.9562,3.1713 2.9855,5.0903 -2.8389,-1.3324 3.1856,0.8253 4.6442,2.0601 5.5601,4.9605 -1.1662,5.3029 -0.075,3.9383 -2.7631,6.5607 -5.633,4.6463 -12.2038,-3.32 -6.5708,-7.9663 l 0,0 c -0.4814,0.7209 -0.4532,0.6642 0.1305,-0.1381 -0.2416,1.4614 -0.4832,2.9228 -0.7248,4.3842 1.2205,2.3266 6.3579,2.8425 2.6533,2.3821 -1.575,-1.4272 -3.15,-2.8543 -4.725,-4.2815 0.1433,0.5564 -0.019,-0.1081 -0.095,-0.2371 -0.6449,-1.5105 -1.8892,-2.5102 -2.996,-3.7211 -1.9877,-2.1636 -4.0974,-4.1914 -6.1043,-6.3281 -3.26326,-3.8143 -6.49295,-7.6787 -9.48446,-11.7062 -3.35759,-4.6834 -7.15764,-8.8892 -11.47187,-12.729 -4.67519,-4.5224 -9.42807,-8.9683 -13.95957,-13.6361 -3.47213,-3.8428 -6.56402,-8.0003 -10.00091,-11.8779 -2.42983,-2.7924 -5.18959,-5.2915 -7.50888,-8.1887 -1.36369,-1.961 -3.16397,-3.599 -4.73149,-5.396 -1.95612,-1.8282 -3.63058,-3.9181 -5.54243,-5.7912 -2.72965,-2.8964 -5.81858,-5.4463 -8.62047,-8.2741 -3.02809,-3.211 -6.31813,-6.0628 -9.54005,-9.0654 -2.43513,-2.5223 -4.81648,-5.0948 -7.22665,-7.6409 -2.74311,-2.7841 -5.48941,-5.5437 -7.75641,-8.7536 -1.94697,-2.5042 -4.13015,-4.7942 -6.23871,-7.1627 -2.75389,-3.2834 -5.30292,-6.7215 -7.70754,-10.2693 -2.31643,-4.049 -4.62138,-8.1033 -7.44735,-11.83 -3.18359,-4.217 -5.98303,-8.6928 -8.74269,-13.1947 -2.63484,-4.6013 -5.27323,-9.1932 -7.80514,-13.8535 -2.46017,-3.9797 -4.72276,-8.0512 -6.90559,-12.1886 -2.02467,-3.2736 -4.20246,-6.4377 -6.23377,-9.7008 -1.27092,-2.8794 -3.22074,-5.4586 -5.09171,-7.9671 -2.27723,-3.4727 -4.84091,-6.7837 -7.4104,-10.0411 -3.01504,-3.7983 -5.92776,-7.6466 -8.70706,-11.6191 -3.0017,-4.1031 -6.20705,-8.0406 -9.28696,-12.0857 -3.49117,-4.0763 -6.6605,-8.39 -10.01271,-12.5759 -3.02837,-3.9345 -5.71098,-8.1037 -8.6469,-12.1053 -2.8773,-4.1211 -6.16588,-7.9961 -8.43411,-12.5138 -2.10199,-4.0631 -4.28417,-8.0972 -6.97048,-11.8096 -2.73913,-3.6354 -5.26984,-7.4157 -7.62996,-11.3062 -1.96364,-3.4339 -3.94072,-6.8554 -5.97043,-10.2497 -1.87134,-3.4646 -3.66435,-6.9711 -6.01271,-10.1509 -2.34655,-3.6047 -4.93509,-7.0476 -7.3215,-10.6255 -2.27917,-3.6034 -4.18113,-7.4415 -6.74122,-10.8637 -2.53885,-3.6318 -5.15291,-7.20769 -7.5881,-10.91319 -2.34597,-3.0504 -4.6636,-6.10432 -7.11822,-9.06884 -1.91821,-2.77411 -3.53021,-5.7488 -5.73044,-8.32159 -2.15264,-2.80743 -4.49591,-5.46206 -6.55076,-8.34547 -1.36175,-1.92923 -2.65009,-3.88962 -4.13294,-5.72343 -0.94588,-1.3013 -1.95186,-2.55537 -3.06632,-3.67779 -1.25068,-1.43486 -2.47796,-3.01348 -3.44494,-4.33278 -1.38315,-1.64252 -2.6376,-3.40162 -4.25857,-4.82784 -1.73221,-2.12028 -3.78079,-3.93616 -5.53269,-6.03753 -1.50085,-1.57965 -2.76277,-3.36172 -4.45795,-4.71971 -0.17454,-0.14659 -5.64855,-5.20232 -3.39343,-3.98286 -1.00002,-1.19701 -1.99858,-2.40071 -2.84708,-3.71207 -0.003,-0.0299 -0.005,-0.0597 -0.008,-0.0896 -0.4232,-0.45654 -0.8464,-0.91309 -1.2696,-1.36964 -0.22494,-0.25183 1.14188,0.71855 0.84234,0.56269 -0.59546,-0.30983 -1.34439,-0.87593 -1.86946,-1.24895 -2.0638,-1.80931 -4.12991,-3.61886 -6.06982,-5.56353 -2.56157,-2.76038 -5.16478,-5.45471 -8.01954,-7.91412 -2.85784,-2.5876 -5.86564,-5.01168 -8.69224,-7.64031 -2.40679,-2.15409 -4.5695,-4.52575 -6.62053,-7.01832 -1.0303,-1.50939 -2.1488,-2.91862 -3.4524,-4.20086 -0.91709,-1.24694 -2.76385,-1.91622 -3.56186,-3.36185 -1.34024,-1.54282 -2.59695,-3.15115 -3.9243,-4.70438 -2.32079,-2.52721 -4.9187,-4.80382 -7.00439,-7.54585 -1.82733,-1.80333 -3.32066,-3.80991 -4.75837,-5.91009 -1.8552,-2.34482 -3.67915,-4.72066 -5.49171,-7.09196 -1.64163,-2.23769 -3.20757,-4.57955 -4.44269,-7.06843 -1.15596,-1.74808 -1.96232,-3.67752 -3.23491,-5.34445 -2.17701,-3.36724 -3.78448,-7.02719 -5.32218,-10.72235 -2.31693,-4.73079 -4.73739,-9.3943 -7.73043,-13.7465 -3.75684,-6.26139 5.09811,-11.57436 8.85494,-5.31297 z"
       inkscape:connector-curvature="0" />
    <path
       style="fill:#fee0d2;fill-opacity:1;fill-rule:nonzero;stroke:none"
       id="path3001"
       d="m 1018.7061,1335.9115 c 3.6921,4.0706 6.6676,8.6997 10.0364,13.0281 3.4533,4.6504 6.7413,9.3836 9.7816,14.3129 2.5892,4.2913 5.7397,8.1488 8.8327,12.0679 2.5365,3.5504 5.1105,7.0423 7.8002,10.4816 2.1122,3.2585 4.8052,6.0727 7.2691,9.0581 2.5561,2.9349 5.1783,5.8292 7.804,8.7119 3.6254,3.9274 7.3872,7.7257 11.1483,11.5224 3.3524,3.557 6.944,6.8537 10.5073,10.187 2.997,2.8208 6.0633,5.5744 9.1736,8.2759 3.0321,2.8637 6.0324,5.7621 9.102,8.5932 2.8457,2.1575 5.5291,4.497 8.2259,6.8342 3.4615,2.7332 6.4102,6.0019 9.585,9.0434 3.4139,3.1887 6.5658,6.622 9.9427,9.8515 3.4949,3.5918 6.4325,7.6353 9.3152,11.7173 2.1868,3.0721 4.3809,6.135 6.6087,9.181 1.8051,2.9726 3.6875,5.8909 5.5428,8.8312 2.2379,3.8015 4.1651,7.7683 6.2315,11.6618 1.9167,3.5786 4.2053,6.9325 6.3574,10.3685 2.6918,5.1069 5.4709,10.1894 8.0021,15.3803 2.941,5.4514 5.4698,11.1032 8.1626,16.678 1.9143,4.4689 4.3737,8.6789 6.9071,12.8201 2.361,4.2004 4.6783,8.4201 7.1453,12.5628 2.3939,4.1732 4.5255,8.4848 6.784,12.73 2.501,3.9942 5.1048,7.9292 8.0095,11.6443 2.8722,4.3703 6.3329,8.2885 9.5217,12.4161 3.244,4.0822 6.3452,8.2665 9.5,12.417 3.4383,4.5523 6.9042,9.0653 10.641,13.3807 3.9611,4.844 7.2871,10.1457 11.1922,15.0372 3.8446,4.5901 8.1317,8.7443 11.7281,13.5391 3.2361,4.7135 6.8466,9.1422 10.2256,13.7503 3.2121,3.4972 6.4115,7.0056 9.2826,10.7934 2.9864,4.0082 5.8651,8.102 8.5893,12.2933 2.758,3.9783 4.809,8.3771 7.3654,12.4761 3.0284,4.4696 5.8997,9.0524 8.7553,13.6358 2.8566,4.3739 5.8899,8.6426 9.0019,12.8406 2.6715,4.0499 5.5049,7.9817 8.2975,11.9449 2.596,3.3576 4.8725,6.9432 7.3972,10.3525 2.5613,3.0145 4.7223,6.3039 7.0047,9.5183 1.7113,2.6108 3.6609,5.0518 5.3178,7.7061 2.0643,3.1809 4.197,6.2808 5.9078,9.6707 1.8562,4.018 4.1092,7.8281 6.13,11.7613 2.1457,4.0314 4.2642,8.0819 6.2556,12.1926 2.4288,4.5319 4.5778,9.1958 6.3864,14.0082 2.2821,6.2129 4.5434,12.4334 6.8039,18.6571 2.798,6.7575 5.9769,13.3508 8.6452,20.1618 2.6217,7.0732 6.0938,13.7539 9.6336,20.3966 3.7187,6.5242 7.6825,12.8966 11.454,19.39 3.0682,5.0368 6.5299,9.8068 9.9247,14.6223 2.8249,3.3372 5.3505,6.8694 7.1805,10.846 0.6016,1.3225 1.0392,2.6872 1.1738,4.133 -10.486,-9.1317 -0.7372,-3.6608 1.7428,-1.4922 1.3121,1.5751 1.9465,3.3484 2.2292,5.3567 0.9044,7.2457 -9.3426,8.5248 -10.2471,1.279 l 0,0 c 0.085,0.1166 0.2102,0.2056 0.3398,0.2696 0.2982,0.1913 0.6162,0.3548 0.8947,0.5737 0.4681,0.3678 -2.0985,-1.0973 -1.9172,-1.0853 3.327,0.219 5.7789,4.145 -3.3605,-4.4875 0.1525,1.4004 0.1193,0.4177 -0.2559,-0.2727 -1.5223,-3.4124 -3.8875,-6.2825 -6.2232,-9.1747 -3.5623,-5.0648 -7.2039,-10.0771 -10.4113,-15.3817 -3.8343,-6.6023 -7.8737,-13.0766 -11.6378,-19.7202 -3.7298,-7.0004 -7.3706,-14.0505 -10.1408,-21.5003 -2.6754,-6.8945 -5.9625,-13.5315 -8.7307,-20.3888 -2.2512,-6.1986 -4.4958,-12.3972 -6.7763,-18.582 -1.6617,-4.5252 -3.752,-8.8608 -6.0071,-13.1186 -1.9452,-4.0446 -4.0469,-8.015 -6.1494,-11.9789 -2.0342,-3.9954 -4.3449,-7.8464 -6.2132,-11.9276 -1.4568,-3.1503 -3.6729,-5.8447 -5.4412,-8.8205 -1.4809,-2.5133 -3.4382,-4.7066 -4.9745,-7.1811 -2.1897,-3.171 -4.3627,-6.3339 -6.8457,-9.297 -2.5638,-3.481 -4.8993,-7.1214 -7.5379,-10.5478 -2.7344,-3.9011 -5.5429,-7.7479 -8.1493,-11.7395 -3.2721,-4.4259 -6.4731,-8.9173 -9.4714,-13.5317 -2.8496,-4.5929 -5.735,-9.1721 -8.7631,-13.6483 -2.5013,-4.0557 -4.5713,-8.3624 -7.2577,-12.306 -2.5753,-4.0006 -5.3445,-7.8789 -8.1759,-11.701 -2.8586,-3.8505 -6.231,-7.2623 -9.3542,-10.8899 -3.3656,-4.59 -6.9648,-8.9996 -10.1858,-13.6964 -3.4774,-4.7342 -7.843,-8.6835 -11.516,-13.2635 -3.8109,-4.7897 -7.1175,-9.9314 -10.9256,-14.7163 -3.8768,-4.4842 -7.4833,-9.1654 -11.055,-13.8912 -3.1395,-4.1358 -6.2279,-8.3023 -9.4613,-12.3663 -3.1567,-4.1234 -6.6404,-7.9993 -9.4818,-12.3645 -3.261,-4.1948 -6.2223,-8.6158 -8.9861,-13.1511 -2.1732,-4.1019 -4.2401,-8.2585 -6.5386,-12.2936 -2.4404,-4.1092 -4.7526,-8.2854 -7.0805,-12.4553 -2.708,-4.4338 -5.3346,-8.9442 -7.3975,-13.72 -2.6837,-5.5731 -5.216,-11.2155 -8.1548,-16.6619 -2.3419,-4.8738 -5.0059,-9.6039 -7.4695,-14.4157 -2.2676,-3.6509 -4.7079,-7.1992 -6.723,-11.0033 -1.9377,-3.6683 -3.7631,-7.3943 -5.841,-10.9872 -1.7257,-2.741 -3.5071,-5.4441 -5.1421,-8.2416 -2.261,-3.092 -4.4785,-6.2098 -6.7089,-9.3205 -2.5004,-3.5415 -5.0215,-7.0613 -8.0176,-10.2112 -3.3798,-3.2335 -6.5373,-6.666 -9.9516,-9.8602 -3.0551,-2.9316 -5.8872,-6.0818 -9.2229,-8.7122 -2.7577,-2.414 -5.5453,-4.7751 -8.4422,-7.0282 -2.9949,-2.7622 -5.9211,-5.5918 -8.8741,-8.3891 -3.2099,-2.7902 -6.3643,-5.6449 -9.471,-8.5446 -3.6368,-3.4347 -7.3457,-6.7899 -10.7731,-10.4459 -3.8629,-3.8995 -7.7256,-7.8016 -11.4473,-11.8372 -2.7445,-3.0149 -5.4752,-6.051 -8.1542,-9.1171 -2.4906,-3.0647 -5.2747,-5.9117 -7.4186,-9.2448 -2.6819,-3.4308 -5.2538,-6.9192 -7.782,-10.4585 -3.3189,-4.2375 -6.7197,-8.4008 -9.5051,-13.0308 -2.8449,-4.6127 -5.9167,-9.0418 -9.1456,-13.3966 -3.1017,-3.9953 -5.8828,-8.2276 -9.1851,-12.0634 -5.1632,-5.1632 2.1387,-12.4652 7.302,-7.3019 z"
       inkscape:connector-curvature="0" />
    <path
       style="fill:#de2d26;fill-opacity:1;stroke:none"
       id="path3006"
       d="m 139.63207,55.722634 c 5.00996,-3.296462 9.48,-7.325174 13.41618,-11.836975 2.88912,-2.92376 5.37749,-6.133155 7.77675,-9.44421 1.54603,-2.620539 2.40021,-5.534428 3.93409,-8.184362 1.66564,-2.829939 3.88062,-5.316804 6.21415,-7.612205 0.44948,-0.399751 0.89896,-0.799501 1.34844,-1.199252 4.37246,-3.873709 9.85071,2.309882 5.47826,6.183591 l 0,0 c -0.36671,0.323342 -0.73342,0.646683 -1.10013,0.970024 -1.87759,1.7338 -3.55798,3.758028 -4.87642,5.940806 -1.82866,2.720123 -2.19531,6.20226 -4.32517,8.771316 -2.57328,3.493431 -5.17662,6.93459 -8.24692,10.030506 -4.44669,5.021581 -9.40731,9.575348 -15.03672,13.254526 -4.86049,3.240324 -9.443,-3.633441 -4.58251,-6.873765 z"
       inkscape:connector-curvature="0" />
  </g>
</svg>
